<?xml version="1.0" encoding="UTF-8" standalone="no"?>
<svg  
  xmlns="http://www.w3.org/2000/svg"
  version="1.1"
  width="48"
  height="48"  
  viewBox="0 0 256 256">  
  
  <g transform="scale(0.69,0.69)">
	<g transform="translate(-36,-60)">
	  <path d="m 233.283,176.775 -28.189,27.432 40.392,23.22 c 0.252,17.748 0.396,32.76 0.289,46.152 -0.109,13.248 1.08,26.244 -0.865,33.012 -2.088,6.588 -6.984,6.516 -11.088,6.588 -4.141,-0.108 -10.908,-1.944 -13.355,-6.876 -2.449,-5.04 -1.297,-12.78 -1.404,-22.68 -0.252,-10.116 -0.252,-22.104 0,-36.937 -12.889,-5.976 -23.616,-11.304 -32.725,-16.38 -9.18,-5.076 -16.992,-8.856 -21.636,-13.716 -4.681,-5.112 -6.155,-10.44 -6.228,-15.552 -0.072,-5.112 1.728,-8.928 5.688,-14.508 3.924,-5.652 10.08,-11.664 17.641,-19.008 7.523,-7.524 19.764,-19.764 27,-25.056 7.092,-5.256 10.691,-6.444 15.659,-6.336 5.004,0.072 9.792,3.24 13.932,6.588 3.924,3.168 5.615,6.372 9.936,12.924 4.248,6.588 9.324,15.12 15.373,26.136 11.592,-1.044 20.412,-1.044 26.748,0 6.156,0.972 9.936,2.808 10.799,6.048 0.828,3.204 0.182,10.476 -5.688,12.924 -6.047,2.232 -22.355,1.116 -29.879,1.08 -7.525,0 -11.484,0.432 -15.084,-1.08 -3.674,-1.656 -4.32,-4.464 -7.094,-8.424 -2.95,-4.031 -6.226,-9.215 -10.222,-15.551 z" id="path101" style="fill:#000000;fill-rule:evenodd"/>
	  <path d="m 262.516,100.667 c 13.492,0 24.443,10.16 24.443,22.68 0,12.52 -10.951,22.68 -24.443,22.68 -13.494,0 -24.445,-10.161 -24.445,-22.68 0,-12.519 10.95,-22.68 24.445,-22.68" id="path103" style="fill:#000000;fill-rule:evenodd"/>
	  <path d="m 143.067,232.287 c 37.756,0 68.4,28.434 68.4,63.468 0,35.034 -30.645,63.468 -68.4,63.468 -37.757,0 -68.4,-28.434 -68.4,-63.468 0,-35.034 30.643,-63.468 68.4,-63.468 z m 0,12.276 c 30.463,0 55.188,22.935 55.188,51.192 0,28.257 -24.725,51.191 -55.188,51.191 -30.464,0 -55.188,-22.934 -55.188,-51.191 0,-28.257 24.724,-51.192 55.188,-51.192 z" id="path105" style="fill:#000000;fill-rule:evenodd"/>
	  <path d="m 321.951,232.287 c 37.756,0 68.4,28.434 68.4,63.468 0,35.034 -30.645,63.468 -68.4,63.468 -37.758,0 -68.4,-28.434 -68.4,-63.468 0,-35.034 30.642,-63.468 68.4,-63.468 z m 0,12.276 c 30.443,0 55.152,22.935 55.152,51.192 0,28.257 -24.709,51.191 -55.152,51.191 -30.445,0 -55.152,-22.934 -55.152,-51.191 0,-28.257 24.707,-51.192 55.152,-51.192 z" id="path107" style="fill:#000000;fill-rule:evenodd"/>
	</g>
  </g>
</svg>
