<?xml version="1.0" encoding="UTF-8" standalone="no"?>
<svg  
  xmlns="http://www.w3.org/2000/svg"  
  width="16"
  height="16"
  viewBox="0 0 256 256">
    <path
       style="fill:#000000"
       d="M 1.9637336,254.4974 C 2.2952107,253.9923 28.069629,216.38516 59.240219,170.92597 97.786019,114.71079 115.91157,87.94652 115.90637,87.252504 115.90217,86.691279 108.69114,68.531659 99.881881,46.897792 91.072619,25.263924 83.938044,7.490484 84.027268,7.4012576 c 0.08922,-0.089226 9.852319,13.6202324 21.695762,30.4654634 11.84344,16.845232 21.85118,31.019979 22.23942,31.499436 0.69362,0.85658 1.08157,0.324645 22.30327,-30.580581 11.87856,-17.298779 21.66003,-31.3925384 21.7366,-31.3194652 0.0766,0.073073 -6.98874,17.8253132 -15.70068,39.4494232 -8.71194,21.624109 -15.84406,39.775745 -15.84915,40.33697 -0.006,0.694269 18.00197,27.372456 56.34337,83.469386 30.99393,45.34694 56.68147,82.95408 57.0834,83.57143 l 0.73078,1.12245 -35.04694,-0.007 -35.04694,-0.007 -28.12596,-68.36028 c -15.46928,-37.59815 -28.24285,-68.36027 -28.38572,-68.36027 -0.14287,0 -12.92497,30.76337 -28.404657,68.36306 l -28.144889,68.36307 -35.046943,0.004 -35.046943,0.004 0.6026856,-0.91837 z"
      
      />  
</svg>
