<?xml version="1.0" encoding="UTF-8" standalone="no"?>
<svg  
  xmlns="http://www.w3.org/2000/svg"  
  width="16"
  height="16"
  viewBox="0 0 256 256">
    <path
       style="fill:#000000"
       d="m 123.94575,255.10786 c -8.04997,-0.7888 -15.67923,-1.97068 -20.89047,-3.23621 -37.021204,-8.99052 -55.811874,-31.17535 -54.169243,-63.95384 0.741926,-14.80504 5.171474,-27.35823 13.053037,-36.99184 9.776823,-11.95019 27.87449,-20.5473 45.924816,-21.81612 l 4.83186,-0.33964 0,-24.6762 0,-24.6762 -24,0 -24,0 0,-15.25 0,-15.25 24,0 24,0 0,-24 0,-24 15.25,0 15.25,0 0,24 0,24 24,0 24,0 0,15.25 0,15.25 -24,0 -24,0 0,24.5 0,24.5 2.125,0.003 c 6.06896,0.008 18.17216,2.79485 25.375,5.84191 19.16565,8.10776 30.72358,22.03789 35.08691,42.2883 1.58403,7.35159 1.61536,22.50855 0.0602,29.14654 -4.98184,21.2648 -19.23335,35.40186 -44.03252,43.6789 -11.5294,3.84809 -29.43119,6.55782 -37.86462,5.73145 l 0,-5e-5 z m 16,-31.23906 c 19.31181,-2.43657 32.34692,-12.17942 36.05528,-26.94884 1.03186,-4.10964 0.65866,-8.74132 -1.07765,-13.37431 -5.89348,-15.72554 -22.25411,-24.14822 -46.84934,-24.11868 -25.95213,0.0312 -41.876448,8.71536 -47.659721,25.99084 -3.618166,10.80799 2.955082,24.724 15.074999,31.91479 10.521542,6.24248 27.268862,8.70475 44.456432,6.5362 l 0,0 z"
       />

</svg>
