<?xml version="1.0" encoding="UTF-8" standalone="no"?>
<svg  
  xmlns="http://www.w3.org/2000/svg"  
  width="16"
  height="16"
  viewBox="0 0 256 256">
  <g
     transform="translate(0,-796.36218)">
    <path
       style="fill:#000000"
       d="m 3.94575,886.85307 c 0.825,-0.50775 29.0625,-18.09122 62.75,-39.07438 33.6875,-20.98316 61.48075,-38.15439 61.76277,-38.15828 0.39815,-0.005 119.78519,74.61127 123.97348,77.48328 0.8301,0.56922 -18.8822,0.67601 -124.5,0.67443 C 5.7176955,887.7763 2.4848612,887.75218 3.94575,886.85307 z"
      />
    <path
       style="fill:#000000"
       d="m 68.69575,946.27999 0,-53.5 11.25,0 11.25,0 0,53.5 0,53.50001 -11.25,0 -11.25,0 0,-53.50001 z"
      />
    <path
       style="fill:#000000"
       d="m 116.69575,946.27999 0,-53.5 11.25,0 11.25,0 0,53.5 0,53.50001 -11.25,0 -11.25,0 0,-53.50001 z"
      />
    <path
       style="fill:#000000"
       d="m 164.69575,946.27999 0,-53.5 11.25,0 11.25,0 0,53.5 0,53.50001 -11.25,0 -11.25,0 0,-53.50001 z"
      />
    <path
       style="fill:#000000"
       d="m 212.69575,946.27999 0,-53.5 11.25,0 11.25,0 0,53.5 0,53.50001 -11.25,0 -11.25,0 0,-53.50001 z"
      />
    <path
       style="fill:#000000"
       d="m 20.69575,946.27999 0,-53.5 11.25,0 11.25,0 0,53.5 0,53.50001 -11.25,0 -11.25,0 0,-53.50001 z"
      />
    <path
       style="fill:#000000"
       d="m 20.69575,1008.53 0,-3.25 107.25,0 107.25,0 0,3.25 0,3.25 -107.25,0 -107.25,0 0,-3.25 z"
      />
    <path
       style="fill:#000000"
       d="m 20.69575,1020.53 0,-3.25 107.25,0 107.25,0 0,3.25 0,3.25 -107.25,0 -107.25,0 0,-3.25 z"
      />
    <path
       style="fill:#000000"
       d="m 20.69575,1032.53 0,-3.25 107.25,0 107.25,0 0,3.25 0,3.25 -107.25,0 -107.25,0 0,-3.25 z"
      />
  </g>
</svg>
