<?xml version="1.0" encoding="UTF-8" standalone="no"?>
<svg xmlns="http://www.w3.org/2000/svg" version="1.0" width="725" height="725">
  <circle cx="362.5" cy="362.5" r="350" style="fill:white;stroke:black;stroke-width:2.5px"/>
  <circle cx="362.5" cy="362.5" r="328.146" style="fill:#003399"/>
  <g style="fill:white">
    <circle cx="275.758" cy="143.717" r="38.051"/>
    <circle cx="449.747" cy="347.125" r="33.992"/>
<path d="M240.756,469.884L241.771,581.481 C241.857,590.978,269.164,592.531,269.164,581.481V469.884Z M279.978,469.884L280.994,605.828 C281.113,621.749,308.386,622.292,308.386,605.828V469.884Z M176.627,459.398L373.186,460.474 C365.451,420.543,363.392,385.327,304.679,334.573L304.32,253.51H309.342 C323.23,282.434,340.672,309.584,350.948,340.314 C348.654,347.661,342.513,352.294,350.948,367.215L424.12,434.649L414.077,611.839 C414.077,618.856,437.033,620.41,437.033,611.839L445.055,528.424L462.859,528.623 L475.771,601.437C475.771,609.571,501.238,607.575,501.238,600.003L487.967,521.092 H508.771L494.064,446.485L536.389,497.059 C543.277,493.993,550.491,491.467,547.509,471.951L484.739,395.91 C471.588,397.586,462.582,402.713,445.283,400.932 C409.04,396.763,396.227,369.162,371.752,353.225 C393.84,340.331,370.891,307.61,351.435,270.8 C335.327,240.323,327.019,209.397,283.514,201.861L260.918,202.219 C223.269,216.553,217.174,239.256,207.473,261.044 C206.253,263.785,203.659,278.983,203.724,290.604 C203.801,304.487,206.821,323.142,207.832,325.966 C212.417,338.77,213.367,353.016,222.562,357.586 C188.517,396.887,183.435,426.51,176.627,459.398Z M235.452,253.51L245.136,256.023V334.215L235.546,343.58 C226.473,284.811,226.932,313.609,235.452,253.51Z"/></g></svg>