<?xml version="1.0" encoding="UTF-8" standalone="no"?>
<!-- Created with Inkscape (http://www.inkscape.org/) -->

<svg
   xmlns:dc="http://purl.org/dc/elements/1.1/"
   xmlns:cc="http://creativecommons.org/ns#"
   xmlns:rdf="http://www.w3.org/1999/02/22-rdf-syntax-ns#"
   xmlns:svg="http://www.w3.org/2000/svg"
   xmlns="http://www.w3.org/2000/svg"
   xmlns:xlink="http://www.w3.org/1999/xlink"
   xmlns:sodipodi="http://sodipodi.sourceforge.net/DTD/sodipodi-0.dtd"
   xmlns:inkscape="http://www.inkscape.org/namespaces/inkscape"
   width="256"
   height="256"
   id="svg2"
   inkscape:label="Pozadí"
   version="1.1"
   inkscape:version="0.48.3.1 r9886"
   sodipodi:docname="piste.svg">
  <defs
     id="defs3">
    <inkscape:path-effect
       effect="spiro"
       id="path-effect3001"
       is_visible="true" />
    <linearGradient
       inkscape:collect="always"
       id="linearGradient3766">
      <stop
         style="stop-color:#000000;stop-opacity:1;"
         offset="0"
         id="stop3768" />
      <stop
         style="stop-color:#000000;stop-opacity:0;"
         offset="1"
         id="stop3770" />
    </linearGradient>
    <radialGradient
       inkscape:collect="always"
       xlink:href="#linearGradient3766"
       id="radialGradient3772"
       cx="128"
       cy="127.99653"
       fx="128"
       fy="127.99653"
       r="128"
       gradientTransform="matrix(1,0,0,0.50002713,0,63.994792)"
       gradientUnits="userSpaceOnUse" />
  </defs>
  <sodipodi:namedview
     id="base"
     pagecolor="#ffffff"
     bordercolor="#666666"
     borderopacity="1.0"
     inkscape:pageopacity="0.0"
     inkscape:pageshadow="2"
     inkscape:zoom="1.7469907"
     inkscape:cx="90.342755"
     inkscape:cy="178.72098"
     inkscape:document-units="px"
     inkscape:current-layer="layer1"
     showgrid="true"
     inkscape:window-width="1600"
     inkscape:window-height="1147"
     inkscape:window-x="0"
     inkscape:window-y="0"
     inkscape:window-maximized="1"
     inkscape:snap-object-midpoints="true">
    <inkscape:grid
       type="xygrid"
       id="grid2984"
       empspacing="4"
       visible="true"
       enabled="true"
       snapvisiblegridlinesonly="true"
       originx="0px"
       spacingx="8px"
       spacingy="8px"
       dotted="false" />
  </sodipodi:namedview>
  <metadata
     id="metadata6">
    <rdf:RDF>
      <cc:Work
         rdf:about="">
        <dc:format>image/svg+xml</dc:format>
        <dc:type
           rdf:resource="http://purl.org/dc/dcmitype/StillImage" />
        <dc:title></dc:title>
      </cc:Work>
    </rdf:RDF>
  </metadata>
  <g
     inkscape:label="Vrstva 1"
     inkscape:groupmode="layer"
     id="layer1"
     transform="translate(0,-796.36215)">
    <path
       sodipodi:type="arc"
       style="fill:none;stroke:none;stroke-width:1;stroke-linecap:square;stroke-linejoin:round;stroke-miterlimit:4;stroke-opacity:1;stroke-dasharray:none;stroke-dashoffset:0"
       id="path3851"
       sodipodi:cx="128"
       sodipodi:cy="128"
       sodipodi:rx="128"
       sodipodi:ry="128"
       d="M 256,128 C 256,198.69245 198.69245,256 128,256 57.307552,256 0,198.69245 0,128 0,57.307552 57.307552,0 128,0 198.69245,0 256,57.307552 256,128 z"
       transform="translate(0,796.36215)" />
    <g
       transform="matrix(1.1532731,0,0,1.1532731,-388.57924,588.56397)"
       id="g3216">
      <path
         inkscape:connector-curvature="0"
         style="fill:#000000;stroke:none"
         d="m 423.4696,260.09006 c 0,0 -0.50249,-4.35497 -0.66999,-5.19247 -0.1675,-0.83749 0.66999,-11.72494 0.66999,-11.72494 l -0.1675,-4.68998 1.005,-3.85248 4.18748,-2.51249 3.34998,-4.85747 5.02497,-5.86247 10.21746,-1.67499 7.36996,-2.51249 1.67499,-2.67999 1.17249,0.67 c 0,0 1.5075,-4.18748 2.17749,-3.85248 0.67,0.33499 1.84249,0.1675 1.84249,0.1675 l 5.52748,-6.36497 2.34499,-2.00999 -1.34,-0.67 c 0,0 2.17749,-1.33999 3.18249,-1.50749 1.00499,-0.1675 7.70496,1.50749 7.70496,1.50749 l 4.35497,3.01499 c 0,0 1.84249,2.84748 1.84249,3.68498 0,0.8375 1.1725,2.67999 1.675,4.01998 0.50249,1.33999 0.1675,3.18248 0.1675,3.18248 l -1.67499,1.005 c 0,0 1.84249,1.67499 1.67499,2.34499 -0.1675,0.66999 -4.68998,5.86247 -4.68998,5.86247 l -3.18248,3.85248 -2.00999,-1.005 -2.00999,1.1725 -1.50749,1.00499 c 0,0 -0.5025,0.335 1.00499,2.00999 1.50749,1.67499 4.18748,5.02498 4.18748,5.02498 l 0.335,3.68498 1.84249,1.33999 0,4.01998 c 0,0 0.1675,1.84249 1.67499,1.17249 1.50749,-0.66999 4.52248,1.005 4.52248,1.005 l -0.5025,3.34999 1.84249,-1.1725 1.84249,-0.335 c 0,0 1.34,0.83749 1.84249,1.67499 0.5025,0.8375 1.67499,0 2.51249,-0.5025 0.83749,-0.50249 1.84249,-0.50249 2.84749,0.1675 1.00499,0.67 2.34498,1.84249 2.34498,1.84249 l 5.86247,0.5025 2.34499,-1.67499 5.19247,-5.19247 4.85748,0.33499 0.5025,3.85249 c 0,0 0.1675,1.67499 0.50249,2.51248 0.335,0.8375 0.8375,4.18748 0.5025,4.85748 -0.33499,0.66999 0.1675,1.84249 -1.67499,2.17749 -1.84249,0.335 -3.51748,1.17249 -3.51748,1.17249 l 1.00499,57.78721 1.5075,21.77489 -2.00999,0 -2.67999,-36.68231 -0.335,-24.11988 0.1675,-16.24742 -0.1675,-2.51249 -1.67499,0.5025 0.5025,1.67499 -1.50749,-0.335 -1.005,-0.66999 -2.51249,2.17749 -3.34998,0.66999 -1.50749,-0.8375 c 0,0 -1.50749,2.34499 -2.17749,1.8425 -0.67,-0.5025 -3.68498,-1.1725 -3.68498,-1.1725 l -9.71495,1.1725 -8.37496,0 -1.1725,-2.34499 -2.51249,-1.17249 -10.88744,10.55244 2.00999,5.86247 3.34998,5.86247 10.04995,16.58242 5.86247,6.53247 c 0,0 4.52248,4.68997 4.68998,5.35997 0.1675,0.67 0,3.68498 0,3.68498 l 5.52747,5.02498 2.51249,5.52747 3.68498,11.55744 3.18248,6.53247 0.67,4.85746 c 0,0 5.86247,5.1925 6.53247,5.52751 0.67,0.33496 4.52248,8.20746 4.52248,8.20746 l 1.17249,2.51247 9.21245,5.52746 1.43319,0.78356 21.17919,9.93641 9.37995,3.85245 0.83749,2.01003 -8.70994,5.02493 -28.80985,-16.74988 -27.97236,-15.91243 -5.52747,-3.51748 -1.1725,-11.89247 -9.21245,-11.38993 -3.68498,-5.86247 -4.18748,-7.36996 -0.67,-4.68997 -4.85748,-3.85249 -5.02497,-4.52248 -1.50749,-2.51248 -0.67,10.88745 c 0,0 -1.50749,3.34998 -1.84249,4.01997 -0.335,0.67 0.83749,6.53247 0.83749,7.36997 0,0.83749 1.8425,7.36996 2.01,8.03996 0.1675,0.66999 2.00999,7.70497 2.00999,7.70497 0,0 3.01498,5.86247 4.01998,6.69996 1.00499,0.83749 17.41991,13.06491 17.41991,13.06491 l 5.52747,2.84752 3.01498,-0.335 1.5075,3.34995 -13.56743,0.33501 -35.00733,-28.13986 -24.78987,-20.26739 10.04995,0.8375 13.23243,10.71994 -0.5025,-6.36497 -2.34499,-2.67998 2.67999,-1.67499 -0.335,-1.84249 -1.33999,-3.34999 -1.1725,-14.23743 0.1675,-5.19247 -11.05494,-4.01998 c 0,0 -4.18748,-3.51748 -4.52248,-4.35498 -0.335,-0.8375 -2.67999,-7.03496 -2.67999,-7.03496 l 2.17749,-6.19747 1.675,-7.20247 0.33499,-5.69497 -76.21212,25.29237 -0.16749,3.85249 -3.18249,-2.34499 -4.35498,1.67499 -1.67499,-2.00999 5.69497,-1.00499 0.67,-4.18749 c 0,0 2.51249,0.335 2.84749,1.34 0.335,1.00499 76.54711,-26.12987 76.37961,-26.79987 z"
         id="path6676" />
    </g>
  </g>
</svg>
