<?xml version="1.0" encoding="UTF-8" standalone="no"?>
<svg  
  xmlns="http://www.w3.org/2000/svg"  
  width="24"
  height="24"
  viewBox="0 0 256 256">
  
  <path
    style="fill:#000000"
    d="m 80.638607,243.9872 0,-11.42857 16.122449,0 16.122454,0 0,-80.61225 0,-80.612243 -12.04082,0 c -9.362672,0 -12.039931,-0.113482 -12.03683,-0.510205 0.0022,-0.280612 0.448459,-1.464844 0.991702,-2.631632 2.901467,-6.231808 11.173768,-13.940217 19.280588,-17.966302 3.77373,-1.874147 4.7275,-2.729123 8.59728,-7.706789 1.9921,-2.562413 4.08637,-6.984948 5.00081,-10.560358 0.45422,-1.775991 1.18928,-6.270644 1.63346,-9.988119 1.14145,-9.552991 2.94233,-18.7998608 3.6614,-18.7998608 0.68502,0 2.57056,9.2051608 3.46966,16.9387758 1.27914,11.002638 2.37657,15.139671 5.27615,19.889791 3.02714,4.959066 6.19158,8.27838 9.84917,10.331205 9.34865,5.246918 19.19434,14.833094 20.41926,19.881045 l 0.27238,1.122449 -11.88099,0 -11.88098,0 0,80.612243 0,80.61225 15.91837,0 15.91836,0 0,11.42857 0,11.42857 -47.34693,0 -47.346943,0 0,-11.42857 0,0 z"
   />
  
</svg>
