<?xml version="1.0" encoding="UTF-8" standalone="no"?>
<svg  
  xmlns="http://www.w3.org/2000/svg"
  version="1.1"
  width="48"
  height="48"  
  viewBox="0 0 256 256">  
  
  <g transform="scale(0.69,0.69)">
	<g transform="translate(-36,-60)">
      <path d="m 402.602,255.279 c -3.177,0.97 -7.28,0.784 -12.662,-0.367 -5.47,-1.245 -10.456,-7.049 -19.544,-6.728 -9.309,0.323 -22.457,8.662 -35.161,8.662 -12.884,-0.274 -27.354,-9.031 -40.501,-9.031 -13.103,0.093 -25.015,9.168 -37.588,9.445 -12.794,0.045 -25.544,-8.476 -38.073,-8.66 -12.705,-0.322 -24.75,7.557 -36.617,7.463 -11.691,-0.229 -22.059,-8.616 -33.662,-8.248 -11.911,0.463 -24.971,9.676 -36.617,10.229 -11.734,0.185 -22.367,-8.568 -32.735,-8.662 -10.455,-0.184 -22.19,6.404 -29.249,7.879 -7.059,1.338 -11.516,1.476 -13.191,0.415 v 24.419 c 1.676,1.059 6.133,0.922 13.191,-0.415 7.059,-1.475 18.794,-8.063 29.249,-7.879 10.368,0.093 21.001,8.846 32.735,8.66 11.646,-0.459 24.706,-9.905 36.617,-10.228 11.604,-0.46 21.971,8.109 33.662,8.293 11.867,0.094 23.912,-7.738 36.617,-7.508 12.529,0.183 25.279,8.705 38.073,8.661 12.573,-0.277 24.485,-9.354 37.588,-9.446 13.147,-0.044 27.617,8.847 40.501,9.079 12.704,0 25.853,-8.342 35.161,-8.663 9.088,-0.416 14.074,5.482 19.544,6.68 5.382,1.152 9.485,1.336 12.662,0.368 v -24.418 z" id="path103" style="fill:#000000;fill-rule:evenodd"/>
      <path d="m 193.528,242.289 100.94,-53.858 c -7.939,-17.416 -13.543,-30.545 -16.808,-39.898 -3.354,-9.307 -4.765,-11.38 -2.868,-15.803 1.941,-4.561 -0.75,-5.252 14.03,-11.287 14.778,-6.266 58.984,-24.234 73.41,-25.109 14.118,-0.737 13.545,14.835 11.207,20.088 -2.56,5.113 -15.707,6.403 -25.677,10.458 -10.104,3.87 -21.221,8.2 -34.059,12.992 l 46.19,101.634 c -5.955,5.113 -13.853,7.096 -24.529,6.311 -10.853,-1.057 -25.324,-11.377 -38.823,-11.426 -13.456,0.049 -28.809,11.566 -41.117,11.795 -12.353,-0.047 -22.147,-9.997 -32.471,-11.009 -10.365,-1.017 -20.116,0.687 -29.425,5.112 z" id="path105" style="fill:#000000;fill-rule:evenodd"/>
      <path d="m 374.881,154.343 c 15.562,0 28.19,13.188 28.19,29.439 0,16.251 -12.629,29.439 -28.19,29.439 -15.561,0 -28.191,-13.188 -28.191,-29.439 0,-16.251 12.629,-29.439 28.191,-29.439" id="path107" style="fill:#000000;fill-rule:evenodd"/>
      <path d="M 125.411,244.269 C 113.455,242.057 101.279,238.651 88.044,234.04 74.72,229.159 52,222.615 46.617,216.211 c -5.382,-6.588 -1.455,-19.764 9.398,-20.363 10.896,-0.599 32.514,9.076 54.969,17.093 22.324,7.926 47.867,17.831 78,30.224 -3.705,2.027 -8.603,2.672 -14.867,1.75 -6.354,-1.061 -14.383,-6.912 -22.545,-7.095 -8.205,-0.139 -16.808,2.073 -26.161,6.449 z" id="path109" style="fill:#000000;fill-rule:evenodd"/>
      <path d="m 402.602,296.147 c -3.177,0.874 -7.28,0.737 -12.662,-0.415 -5.47,-1.197 -10.456,-7.097 -19.544,-6.682 -9.309,0.322 -22.457,8.661 -35.161,8.661 -12.884,-0.275 -27.354,-9.029 -40.501,-9.029 -13.103,0.093 -25.015,9.169 -37.588,9.444 -12.794,0.047 -25.544,-8.476 -38.073,-8.661 -12.705,-0.323 -24.75,7.556 -36.617,7.464 -11.691,-0.23 -22.059,-8.616 -33.662,-8.247 -11.911,0.46 -24.971,9.674 -36.617,10.229 -11.734,0.183 -22.367,-8.571 -32.735,-8.663 -10.455,-0.183 -22.19,6.404 -29.249,7.879 -7.059,1.43 -11.516,1.382 -13.191,0.369 v 24.418 c 1.676,1.013 6.133,1.061 13.191,-0.369 7.059,-1.476 18.794,-8.062 29.249,-7.879 10.368,0.092 21.001,8.846 32.735,8.663 11.646,-0.555 24.706,-9.769 36.617,-10.229 11.604,-0.369 21.971,8.017 33.662,8.247 11.867,0.092 23.912,-7.787 36.617,-7.464 12.529,0.185 25.279,8.708 38.073,8.661 12.573,-0.275 24.485,-9.354 37.588,-9.444 13.147,0 27.617,8.754 40.501,9.029 12.704,0 25.853,-8.339 35.161,-8.661 9.088,-0.323 14.074,5.481 19.544,6.727 5.382,1.152 9.485,1.337 12.662,0.37 v -24.418 z" id="path111" style="fill:#000000;fill-rule:evenodd"/>
    </g>
  </g>
   
</svg>
