<?xml version="1.0" encoding="UTF-8" standalone="no"?>
<svg   
   xmlns="http://www.w3.org/2000/svg"   
   version="1.1"
   width="48"
   height="48"
   viewBox="0 0 256 256"
   id="svg3096">    
  <g
     transform="scale(0.69,0.69)"
     id="g3098">
    <g
       transform="translate(-36,-60)"
       id="g3100">
      <path
         d="m 283.328,152.426 c 10.332,-4.104 20.699,-4.644 31.248,-1.908 10.656,2.736 23.4,15.192 31.717,18.468 8.207,3.096 14.111,3.204 16.74,0.468 2.447,-2.844 2.734,-10.332 -2.197,-17.028 -5.219,-6.84 -15.768,-17.82 -27.756,-23.22 -12.061,-5.436 -30.707,-8.748 -43.596,-8.964 -12.961,-0.252 -25.92,3.564 -33.48,7.56 -7.668,4.032 -7.236,12.492 -11.879,16.092 -4.717,3.276 -11.629,0.432 -15.876,4.248 -4.32,3.744 -7.129,10.224 -9.684,18.468 -2.593,8.208 1.008,19.332 -5.725,30.312 -7.02,10.944 -14.64614,21.66677 -31.42214,34.08777 -8.928,-11.772 -12.91117,-15.65402 -16.83517,-25.48302 -3.779,-9.936 -5.68763,-15.80828 -7.30863,-26.75228 -1.799,-11.016 -3.47406,-34.26847 -9.16306,-44.81647 -4.22229,-13.19506 -14.38942,-23.38306 -23.89342,-26.73106 -9.611,-3.276 -27.217109,1.77741 -33.769109,7.71741 -6.625,5.904 -12.837882,16.51059 -12.262882,27.31059 0.685,10.656 8.552058,26.34071 16.651058,34.87271 8.101003,8.424 23.729643,16.49294 33.053643,22.25294 9.037,5.652 14.34224,8.14688 21.47024,16.17488 7.164,8.136 17.21847,20.67853 22.97847,27.77053 5.508,6.84 6.912,9.359 11.448,9.936 4.536,0.432 8.892,-2.809 15.407,-7.092 6.373,-4.5 15.625,-11.232 22.896,-18.936 7.236,-7.776 13.861,-16.632 20.267,-27 l 17.174,22.716 c -10.729,8.604 -19.836,16.991 -27.758,25.597 -8.099,8.566 -16.451,15.982 -19.367,25.559 -2.881,9.432 -0.9,15.264 2.627,31.248 3.564,16.092 13.248,50.328 18.505,64.369 5.111,13.752 7.416,16.668 12.348,18.467 4.932,1.693 14.867,0.684 17.172,-8.027 2.123,-8.855 -2.016,-29.16 -3.961,-44.531 -1.979,-15.518 -4.428,-30.926 -7.486,-47.342 l 35.676,-26.963 c 21.059,29.736 37.764,53.244 51.084,71.496 13.176,18.072 20.016,27.973 27.719,36.9 7.525,8.891 11.736,14.256 17.641,16.092 5.904,1.619 15.84,0.324 17.172,-6.121 1.045,-6.551 -0.721,-13.283 -10.584,-32.688 C 380.167,327.315 359.43,295.815 341.43,263.197 323.324,230.475 304.461,194.15 283.328,152.426 z M 100.01945,126.8972 c -3.956468,3.5944 -7.018535,8.67319 -6.805267,14.40221 0.207173,5.56531 2.265998,11.69587 7.643727,20.91742 8.4937,9.47949 10.66645,10.19763 16.17033,11.29465 4.09503,0.81622 12.18762,0.75389 16.48788,-2.53274 5.03133,-3.84537 5.83549,-12.14751 5.0341,-18.49689 -0.80415,-6.37128 -2.36958,-8.65119 -5.48978,-16.73473 -3.70614,-5.96271 -6.61967,-8.86393 -10.47305,-11.01735 -9.5225,-5.32157 -15.02861,-4.68197 -22.56794,2.16743 z m 37.46237,64.76404 c 1.404,0 2.40906,-1.17477 4.06506,-1.78677 1.691,-0.648 1.63312,0.0635 3.29012,-1.41247 1.62,-1.548 1.0012,-1.86996 2.2612,-4.64196 -0.288,2.376 0.36951,4.48098 2.19329,7.78347 0.684,3.78 2.27751,7.44249 4.04151,12.55449 -2.484,-2.556 -4.74777,-5.26123 -7.87877,-7.31323 -3.168,-2.088 -4.22841,-3.59953 -7.97241,-5.18353 z"
         id="path99"
         style="fill:#000000;fill-rule:evenodd"/>
      <path
         d="m 193.905,111.242 c 0,15.948 12.023,28.872 26.892,28.872 14.833,0 26.856,-12.924 26.856,-28.872 0,-15.984 -12.023,-28.908 -26.856,-28.908 -14.869,0 -26.892,12.924 -26.892,28.908 z"
         id="path101"
         style="fill:#000000;fill-rule:evenodd" />
      <path
         style="fill:#000000;fill-rule:evenodd"
         d="m 79.03125,228 c -17.423403,0.48054 -27.077513,23.70855 -17,37.1875 7.232181,12.55875 27.497423,13.33439 35.625,1.1875 11.55149,-14.50419 1.080274,-39.7784 -18.625,-38.375 z"
         id="path103"/>
    </g>
  </g>
</svg>
