<?xml version="1.0" encoding="UTF-8" standalone="no"?>
<!-- Created with Inkscape (http://www.inkscape.org/) -->

<svg
   xmlns:dc="http://purl.org/dc/elements/1.1/"
   xmlns:cc="http://creativecommons.org/ns#"
   xmlns:rdf="http://www.w3.org/1999/02/22-rdf-syntax-ns#"
   xmlns:svg="http://www.w3.org/2000/svg"
   xmlns="http://www.w3.org/2000/svg"
   xmlns:sodipodi="http://sodipodi.sourceforge.net/DTD/sodipodi-0.dtd"
   xmlns:inkscape="http://www.inkscape.org/namespaces/inkscape"
   width="851"
   height="315"
   id="svg2"
   inkscape:label="Pozadí"
   version="1.1"
   inkscape:version="0.48.3.1 r9886"
   sodipodi:docname="banner.svg"
   inkscape:export-filename="/home/klinger/current/projects/devel/my-map/logo/banner.png"
   inkscape:export-xdpi="90"
   inkscape:export-ydpi="90">
  <defs
     id="defs5679" />
  <sodipodi:namedview
     id="base"
     pagecolor="#ffffff"
     bordercolor="#666666"
     borderopacity="1.0"
     inkscape:pageopacity="0.0"
     inkscape:pageshadow="2"
     inkscape:zoom="2.8"
     inkscape:cx="307.38556"
     inkscape:cy="209.79233"
     inkscape:document-units="px"
     inkscape:current-layer="layer1"
     showgrid="true"
     inkscape:snap-grids="false"
     inkscape:snap-to-guides="false"
     inkscape:window-width="1600"
     inkscape:window-height="1147"
     inkscape:window-x="0"
     inkscape:window-y="0"
     inkscape:window-maximized="1"
     showguides="true"
     inkscape:guide-bbox="true">
    <inkscape:grid
       type="xygrid"
       id="grid5685"
       empspacing="5"
       visible="true"
       enabled="true"
       snapvisiblegridlinesonly="true"
       spacingx="85.1px"
       spacingy="31.5px" />
    <sodipodi:guide
       orientation="1,0"
       position="18.182746,303.04576"
       id="guide7086" />
    <sodipodi:guide
       orientation="1,0"
       position="350.52293,261.62951"
       id="guide7088" />
  </sodipodi:namedview>
  <metadata
     id="metadata5682">
    <rdf:RDF>
      <cc:Work
         rdf:about="">
        <dc:format>image/svg+xml</dc:format>
        <dc:type
           rdf:resource="http://purl.org/dc/dcmitype/StillImage" />
        <dc:title></dc:title>
      </cc:Work>
    </rdf:RDF>
  </metadata>
  <g
     inkscape:label="Vrstva 1"
     inkscape:groupmode="layer"
     id="layer1"
     transform="translate(0,-737.36217)">
    <rect
       style="fill:#00001f;fill-opacity:1;stroke:none"
       id="rect7082"
       width="851"
       height="315"
       x="0"
       y="359.36218" />
    <path
       style="fill:#cccccf;fill-opacity:0.94117647;stroke:none"
       d="M 510.03125 0 C 509.96686 0.10759449 509.89024 0.21509865 509.78125 0.3125 C 509.03119 0.97787 508.31156 0.88306 507.34375 1.125 C 505.17825 1.65731 503.74816 0.84774 501.625 1.53125 C 500.28216 1.96678 499.37911 2.15214 498.375 3.15625 C 497.37089 4.16036 497.79042 5.45046 496.75 6.40625 C 495.95762 7.12002 495.21883 7.11085 494.28125 7.625 C 492.47263 8.61102 491.83889 10.08162 489.8125 10.46875 C 488.24585 10.77119 487.29852 9.67537 485.75 10.0625 C 484.50998 10.37099 483.67445 10.67124 482.90625 11.6875 C 481.84163 13.07875 482.66331 14.76595 482.5 16.1875 C 482.5 16.1875 482.24497 19.1571 482.09375 21.0625 C 481.93047 22.97394 480.883 24.20146 481.6875 25.9375 C 482.03833 26.65738 482.29027 27.11594 482.9375 27.59375 C 484.0747 28.45276 485.4253 27.12897 486.5625 28 C 487.88719 28.99813 488.06555 30.42332 487.78125 32.0625 C 487.56954 33.32678 486.89422 33.8538 486.15625 34.90625 C 485.32151 36.11003 483.87602 36.28623 483.71875 37.75 C 483.49493 39.75823 486.65014 39.56242 487.40625 41.4375 C 488.10187 43.20383 487.40625 44.40716 487.40625 46.3125 C 487.40625 48.21795 485.94242 49.97168 487.40625 51.1875 C 488.75515 52.30661 490.20551 50.26106 491.875 50.78125 C 493.71386 51.34381 493.90411 53.0524 495.53125 54.0625 C 496.85594 54.89126 497.66924 55.30641 499.1875 55.6875 C 501.81271 56.34083 503.46954 55.77117 506.125 55.28125 C 509.08895 54.7308 510.61268 53.85896 513.4375 52.8125 C 515.84495 51.92337 517.51194 51.92352 519.5625 50.375 C 520.64525 49.56446 521.03823 48.89328 522 47.9375 C 522.78636 47.1391 523.02713 46.40831 524.03125 45.90625 C 525.03536 45.40419 525.87089 46.00808 526.875 45.5 C 528.2965 44.79234 528.58059 43.66543 529.3125 42.25 C 530.01417 40.91918 529.23079 39.30657 530.53125 38.5625 C 532.38826 37.504 533.25796 40.61681 534.625 42.25 C 535.13917 42.86692 535.37193 43.23988 535.84375 43.875 L 536.65625 43.875 C 537.30358 44.471746 537.88957 44.952535 538.3125 45.90625 C 538.87504 47.23102 538.17338 48.2197 538.6875 49.5625 C 539.26213 51.05053 539.80737 51.98387 541.15625 52.8125 C 542.26926 53.50214 543.40213 52.81545 544.40625 53.65625 C 545.68257 54.72092 545.09873 56.14605 545.625 57.71875 C 546.33271 59.81777 546.9183 60.90708 547.65625 63 C 548.14621 64.41538 548.10678 65.39309 548.875 66.6875 C 549.78233 68.23607 550.87993 68.6673 552.15625 69.9375 C 552.95471 70.72996 553.78827 70.9223 554.1875 71.96875 C 554.77424 73.52337 552.70865 74.39806 552.96875 76.03125 C 553.19859 77.51323 554.31649 77.98181 555 79.3125 C 555.5565 80.38927 555.83767 81.00701 556.21875 82.15625 C 556.72081 83.69877 555.95456 85.00903 557.03125 86.21875 C 558.84591 88.27537 561.25179 85.5141 563.9375 85 C 565.54045 84.69151 567.12996 85.5364 568.03125 84.1875 C 568.73292 83.12888 567.84985 82.19574 568.03125 80.9375 C 568.18842 79.79428 568.19049 79.02432 568.84375 78.0625 C 569.59381 76.9253 570.35676 76.3277 571.6875 76.03125 C 573.11503 75.72276 573.93536 76.60786 575.375 76.84375 C 576.78439 77.07966 577.64605 77.63115 579.03125 77.25 C 581.09391 76.69351 581.67734 75.07476 582.6875 73.1875 C 583.38313 71.85681 583.57962 71.0012 583.90625 69.53125 C 584.28733 67.81942 583.97383 66.74912 584.3125 65.03125 C 584.55446 63.90017 584.84072 63.31265 585.125 62.1875 C 585.51818 60.61479 585.76207 59.74012 585.9375 58.125 C 586.13107 56.23172 585.70764 55.11205 585.9375 53.21875 C 586.16735 51.27101 585.81345 49.7774 587.15625 48.34375 C 588.40837 46.98275 590.21562 47.91643 591.625 46.71875 C 592.39322 46.05338 592.34367 45.10492 593.28125 44.6875 C 594.65434 44.07058 595.56439 46.52323 596.9375 45.90625 C 598.2259 45.3316 598.15118 44.02329 598.5625 42.65625 C 598.96172 41.27717 598.15216 40.14835 598.96875 38.96875 C 599.70068 37.92229 601.09873 38.40835 601.8125 37.34375 C 602.68957 36.02516 602.73797 34.56965 601.8125 33.28125 C 600.84468 31.9324 599.05051 33.09081 597.75 32.0625 C 596.58257 31.13098 596.76521 29.89526 595.71875 28.8125 C 594.78119 27.82654 594.16847 27.08874 592.84375 26.75 C 591.2771 26.35682 590.23298 28.33177 588.78125 27.59375 C 587.25694 26.80739 587.1986 25.20584 587.15625 23.5 C 587.10775 22.19344 588.07158 21.55057 587.96875 20.25 C 587.8236 18.62286 586.72989 18.02735 585.9375 16.59375 L 587.96875 14.96875 C 588.13203 14.00698 588.28526 13.25611 588.40625 12.5 C 588.52127 11.88302 588.63608 11.26108 588.78125 10.46875 L 590.40625 7.21875 C 591.83378 6.73484 593.01604 7.07661 594.0625 6 C 594.90934 5.141 594.53825 4.09376 595.3125 3.15625 C 596.52832 1.67427 598.1289 2.11696 599.75 1.125 C 600.43957 0.710655 600.99045 0.3707025 601.5 0 L 541.59375 0 C 541.57521 0.49117097 541.58635 0.96866333 541.5625 1.53125 C 541.52015 2.48697 541.5005 3.2194463 541.5625 3.96875 C 541.5005 3.2194437 541.48892 2.48697 541.53125 1.53125 C 541.55651 0.96859923 541.56974 0.49121092 541.59375 0 L 510.03125 0 z M 619.3125 0 C 619.20467 0.23582661 619.08052 0.48173939 618.90625 0.71875 C 617.96867 1.98296 616.57061 2.07453 616.0625 3.5625 C 615.4818 5.23809 616.20966 6.38596 616.875 8.03125 C 617.43754 9.41646 618.01706 10.07154 618.90625 11.28125 C 619.89825 12.63626 621.41832 12.9111 621.78125 14.5625 C 622.17443 16.37716 620.26413 17.17424 620.125 19.03125 C 619.97374 21.33592 620.86183 22.5956 621.78125 24.71875 C 622.19864 25.69873 622.1955 26.48589 623 27.1875 C 623.97991 28.05254 625.20356 27.21961 626.25 28 C 627.16944 28.68359 626.95558 29.74797 627.875 30.4375 C 629.5203 31.67153 631.14198 29.98988 633.15625 30.4375 C 634.13618 30.6492 634.76001 30.75399 635.625 31.25 C 637.08278 32.09086 637.04727 33.58063 638.46875 34.5 C 639.59988 35.23802 640.38194 35.51921 641.71875 35.71875 C 643.96287 36.05145 645.29016 35.23797 647.4375 34.5 C 649.79051 33.68951 650.70544 32.17647 653.125 31.65625 C 655.14532 31.23284 656.37384 31.99499 658.40625 31.65625 C 660.05155 31.39615 660.891 30.83678 662.5 30.4375 C 664.07877 30.04432 664.9535 29.8609 666.5625 29.625 C 668.61912 29.32861 669.77504 29.27319 671.84375 29.21875 C 672.96883 29.18845 673.60576 29.14015 674.71875 29.21875 C 675.82569 29.29735 676.44346 29.61894 677.5625 29.625 C 677.56335 29.625847 677.59375 29.625 677.59375 29.625 C 678.07162 29.631 678.50804 29.48079 678.9375 29.28125 C 680.5828 28.51909 681.89001 26.80232 683.28125 28 C 683.72283 28.37502 683.81653 28.82154 683.9375 29.28125 C 684.05251 29.68047 684.14916 30.08061 684.5 30.4375 C 685.76423 31.73194 687.19643 31.32355 688.96875 31.65625 C 690.22087 31.89216 691.00392 31.80854 692.25 32.0625 C 694.21588 32.46777 695.64907 32.3265 697.125 33.6875 C 697.97185 34.46176 698.58668 34.99387 698.75 36.125 C 699.10688 38.45987 695.41552 34.23286 693.0625 34.09375 C 690.79418 33.9547 689.46187 34.43541 687.375 35.3125 C 685.46355 36.117 684.63522 37.0493 682.875 38.15625 C 681.61079 38.94863 681.02229 39.68646 679.625 40.21875 C 678.69348 40.57563 677.88616 40.75906 677.09375 40.84375 L 677.1875 41.03125 C 677.66537 42.46484 678.08564 43.21763 678.40625 44.6875 C 678.82361 46.55662 679.32665 47.72363 678.8125 49.5625 C 678.7099 49.941663 678.57869 50.26629 678.4375 50.5625 C 678.5691 50.269388 678.6769 49.948143 678.78125 49.5625 C 679.2954 47.72371 678.79318 46.55665 678.375 44.6875 C 678.0544 43.21768 677.63412 42.46489 677.15625 41.03125 L 677.0625 40.84375 C 676.07653 40.94656 675.10393 40.86692 673.90625 40.625 C 671.80729 40.19553 671.04453 38.80961 669 38.15625 C 667.4636 37.6542 666.5465 37.50714 664.9375 37.34375 C 663.3527 37.18639 662.44165 37.11995 660.875 37.34375 C 659.2297 37.57966 658.42755 38.24191 656.8125 38.5625 C 655.08253 38.90124 653.99408 38.49098 652.3125 38.96875 C 651.14507 39.30144 650.63617 39.89815 649.46875 40.21875 C 648.3739 40.51515 647.71381 40.32852 646.625 40.625 C 645.46362 40.94559 644.47588 40.86989 643.75 41.84375 C 642.90922 42.98705 643.28424 44.15118 643.75 45.5 C 644.2944 47.10296 645.44548 47.54028 646.625 48.75 C 648.10698 50.28043 649.24788 50.87085 650.6875 52.4375 C 651.54644 53.34489 652.24694 53.72579 652.71875 54.875 C 652.99699 55.54039 652.99704 56.1068 652.90625 56.6875 C 652.83355 57.38313 652.63399 58.07257 652.71875 58.9375 C 652.87001 60.5526 654.22789 61.52408 653.5625 63 C 652.99391 64.23995 651.88518 64.35983 650.6875 65.03125 C 649.20553 65.87205 648.32474 66.79039 646.625 66.6875 C 644.48371 66.55436 643.73501 64.88822 642.15625 63.40625 C 640.93438 62.25092 640.6604 61.14827 639.28125 60.15625 C 638.01704 59.23688 637.18561 58.47688 635.625 58.53125 C 633.98577 58.58565 633.37814 59.73387 631.96875 60.5625 C 630.68036 61.32465 629.5525 61.60777 628.6875 62.59375 C 625.84454 65.84803 627.0748 66.27697 624.625 69.53125 C 623.77815 70.68666 624.61387 71.80842 625.03125 73.1875 C 625.42442 74.54851 626.18442 75.09459 626.65625 76.4375 C 626.80664 76.882625 626.95591 77.273126 627.0625 77.65625 L 627.0625 77.71875 C 627.34074 78.74705 627.44455 79.66119 627.46875 80.9375 C 627.54125 83.03042 627.66036 84.39205 626.65625 86.21875 C 625.57349 88.19672 624.27436 88.99185 622.1875 89.875 C 620.85069 90.44963 619.66238 89.76199 618.53125 90.6875 C 617.00692 91.92753 618.63729 94.14807 617.3125 95.59375 L 616.90625 96 C 616.89441 95.998514 616.88694 96.001485 616.875 96 C 615.60566 96.990838 614.12183 96.683014 612.40625 97.21875 C 610.80935 97.71476 609.9588 98.81864 608.34375 98.4375 C 607.23681 98.17136 606.33573 97.87105 605.90625 96.8125 C 605.60381 96.08662 606.16635 95.53132 605.90625 94.78125 C 605.41024 93.36588 604.07068 93.13719 602.625 92.75 C 600.61073 92.19955 599.41851 93.32054 597.34375 93.5625 C 595.45045 93.7863 594.35499 93.90827 592.4375 93.96875 C 591.32451 94.00495 590.64021 93.59978 589.59375 93.96875 C 587.77304 94.62208 588.40135 97.02114 586.75 98.03125 C 584.83251 99.19263 583.25723 98.20161 581.03125 98.4375 C 578.79922 98.67946 577.30963 98.17329 575.34375 99.25 C 574.24285 99.84278 573.9648 100.66427 572.90625 101.28125 C 571.34336 102.1769 570.23786 102.57223 568.4375 102.5 C 566.38089 102.4153 565.35296 101.49712 563.5625 100.46875 C 562.56444 99.90621 562.06157 99.44864 561.09375 98.84375 C 559.7025 97.98487 558.99206 97.30851 557.4375 96.8125 C 554.70946 95.95961 552.84599 96.39609 550.09375 97.21875 C 548.61177 97.66637 547.52026 97.71867 546.4375 98.84375 C 545.79027 99.51517 545.92647 100.27017 545.21875 100.875 C 544.22068 101.72795 543.24506 101.97785 541.96875 101.6875 C 540.19643 101.27618 540.61201 99.03537 539.09375 98.03125 C 537.84768 97.19051 536.81663 97.42956 535.4375 96.8125 C 534.79631 96.52822 534.45366 96.29036 533.8125 96 C 533.02614 95.64917 532.36799 95.79843 531.78125 95.1875 C 530.87996 94.27418 532.12506 92.94666 531.375 91.90625 C 530.41928 90.55735 528.31662 92.00606 527.3125 90.6875 C 526.42936 89.5442 527.28741 88.41645 526.90625 87.03125 C 526.59169 85.86993 525.29937 85.33679 525.65625 84.1875 C 525.97685 83.21961 527.05338 83.31861 527.71875 82.5625 C 528.57769 81.61288 528.61789 80.75217 529.34375 79.6875 C 529.79741 79.02823 529.96971 78.59486 530.5625 78.0625 C 531.90536 76.85882 533.89405 78.25314 535.03125 76.84375 C 535.85993 75.8276 536.36396 74.79143 535.84375 73.59375 C 535.33565 72.4202 533.81054 72.97292 533 71.96875 C 532.57054 71.41226 532.39921 71.02127 532.1875 70.34375 C 531.62496 68.4989 533.10887 67.36716 533 65.4375 C 532.9273 63.97972 532.9436 63.03949 532.1875 61.78125 C 531.61287 60.81948 531.2753 59.99806 530.15625 59.75 C 528.52911 59.38705 528.00108 61.2933 526.90625 62.59375 C 526.17432 63.47089 526.19462 64.34174 525.28125 65.03125 C 523.63595 66.27133 522.01327 64.69252 519.96875 65.03125 C 517.98471 65.3579 516.66545 65.44747 515.0625 66.6875 C 513.32648 68.04849 512.97585 69.48175 512.25 71.5625 C 511.45154 73.83083 511.06851 75.27905 511.4375 77.65625 C 511.64921 79.14428 511.96063 80.00694 512.65625 81.34375 C 513.38815 82.75313 514.36083 83.17837 515.0625 84.59375 C 515.95169 86.34798 515.57351 87.63595 516.28125 89.46875 C 516.80749 90.79339 517.29633 91.47974 517.9375 92.75 C 519.04444 94.96993 520.49695 95.96961 520.78125 98.4375 C 520.97482 100.02237 521.23394 101.14511 520.375 102.5 C 519.66124 103.66138 518.49302 103.57553 517.53125 104.53125 C 516.79935 105.24496 516.92246 106.45368 515.90625 106.5625 C 514.90214 106.67733 514.68555 105.54233 513.875 104.9375 C 512.94953 104.25996 512.5021 103.68142 511.4375 103.3125 C 510.0765 102.85277 509.19668 103.20358 507.78125 103.3125 C 506.65615 103.4033 505.76519 102.98683 504.90625 103.71875 C 504.02915 104.46874 504.97696 105.82453 504.09375 106.5625 C 502.85977 107.60895 501.6463 105.70861 500.03125 105.78125 C 498.37386 105.85395 497.47997 106.37696 495.9375 107 C 494.6249 107.52625 493.92852 107.88698 492.71875 108.625 C 491.16419 109.56858 490.5737 110.54326 489.03125 111.46875 C 487.25287 112.5273 486.20077 113.21571 484.15625 113.5 C 483.0493 113.65126 482.1281 112.77414 481.28125 113.5 C 480.42231 114.23192 481.22682 115.26706 480.90625 116.34375 C 480.43444 117.91041 479.63615 118.59761 478.84375 120.03125 C 477.88802 121.77334 476.64217 122.52202 476.40625 124.5 C 476.255 125.77027 476.47978 126.50992 476.8125 127.75 C 477.18754 129.26827 478.77018 129.87582 478.4375 131.40625 C 477.89914 133.89227 474.44677 131.78931 471.90625 131.84375 C 470.64204 131.86795 469.89628 131.54735 468.65625 131.84375 C 466.55729 132.33371 466.25017 134.44042 464.1875 135.09375 C 462.20952 135.71672 460.81771 134.33152 458.90625 135.09375 C 457.84165 135.51716 457.10993 135.76298 456.46875 136.71875 C 455.65216 137.90434 456.33463 138.95949 456.0625 140.375 C 455.74189 142.00214 455.54542 142.93133 454.84375 144.4375 C 454.11789 145.992 453.82673 147.21156 452.375 148.125 C 451.52211 148.66335 450.90531 148.64111 449.9375 148.9375 C 448.21357 149.48191 446.12808 148.4686 445.46875 150.15625 C 444.99693 151.37207 446.26311 152.10574 446.28125 153.40625 C 446.28125 154.38006 446.59481 155.20256 445.875 155.84375 C 444.85275 156.74503 443.96785 154.8064 442.625 154.625 C 441.19747 154.43748 440.37109 154.95261 438.9375 155.03125 C 437.50997 155.11595 436.70878 155.14608 435.28125 155.03125 C 434.16221 154.94045 433.45978 155.09687 432.4375 154.625 C 431.20959 154.05639 430.89522 153.19766 430 152.1875 C 429.32856 151.41929 429.24503 150.64619 428.34375 150.15625 C 427.23681 149.53925 426.26118 149.65419 425.09375 150.15625 C 423.63597 150.78526 422.69255 151.82744 422.65625 153.40625 C 422.62005 154.91236 424.10682 155.27101 424.6875 156.65625 C 425.13512 157.72087 425.32459 158.388 425.5 159.53125 C 425.6814 160.78936 426.38314 161.86175 425.5 162.78125 C 424.71971 163.58575 423.76321 163.01814 422.65625 163.1875 C 421.70053 163.33266 421.18052 163.55745 420.21875 163.59375 C 418.93034 163.64815 418.12408 163.73793 416.96875 163.1875 C 416.24894 162.84272 416.00812 162.34976 415.3125 161.96875 C 413.62488 161.03117 412.30659 160.65426 410.4375 161.15625 C 408.69541 161.62202 408.45679 163.30438 406.78125 164 C 404.30122 165.05251 402.48107 163.44955 399.84375 164 C 398.36784 164.31456 396.2117 163.71258 396.1875 165.21875 C 396.1746 166.241 397.14106 166.49389 397.8125 167.25 C 398.41738 167.91537 399.37097 167.97373 399.4375 168.875 C 399.4919 169.58273 398.73387 169.79234 398.625 170.5 C 398.38909 171.89729 399.01604 173.07958 400.25 173.78125 C 401.35089 174.41027 402.26099 173.67234 403.53125 173.78125 C 405.13421 173.92641 405.99081 174.32766 407.59375 174.59375 C 408.69464 174.77515 409.34869 174.73989 410.4375 175 C 412.10093 175.40528 413.12087 175.6088 414.5 176.625 C 415.95174 177.70171 415.74181 179.5009 417.375 180.28125 C 418.53033 180.83776 419.69346 179.8104 420.625 180.6875 C 421.78638 181.77024 420.08664 183.26197 420.625 184.75 C 421.05446 185.92342 421.71466 186.52919 422.53125 187.21875 C 422.8216 187.4607 423.1421 187.72875 423.46875 188.03125 C 424.36399 188.89013 424.8477 189.41534 425.90625 190.0625 C 426.93457 190.69165 427.87292 190.44047 428.75 191.28125 C 430.25617 192.72701 429.27922 194.49984 429.59375 196.5625 C 429.90831 198.62517 430.35786 199.7821 430.40625 201.875 C 430.43635 203.62313 430.19256 204.60167 429.96875 206.34375 C 429.63607 208.90848 429.47587 210.38898 428.75 212.875 C 428.03019 215.33697 427.09886 216.525 426.3125 218.96875 C 425.74996 220.68663 426.14014 221.96158 425.09375 223.4375 C 423.8235 225.24007 422.35399 225.78014 420.21875 226.3125 C 418.36779 226.77222 417.2179 226.2217 415.3125 226.3125 C 413.55833 226.3911 412.42252 227.48092 410.84375 226.71875 C 409.83359 226.2288 409.84685 225.09788 408.8125 224.65625 C 406.97363 223.86384 405.86004 225.88909 403.90625 226.3125 C 401.25686 226.869 399.67966 227.13613 397 226.71875 C 394.67724 226.34977 393.45884 225.55753 391.28125 224.65625 C 389.50289 223.93037 388.7179 222.83679 386.8125 222.625 C 385.05228 222.42539 384.11608 223.28628 382.34375 223.4375 C 379.49474 223.69157 377.86112 223.09175 375 223.03125 C 373.25189 222.99505 372.23099 223.43047 370.53125 223.03125 C 368.80732 222.62597 368.21586 220.98796 366.4375 221 C 365.08859 221.0129 364.24 221.36586 363.1875 222.21875 C 361.80232 223.33787 362.6987 225.4293 361.15625 226.3125 C 359.77709 227.09878 358.67252 226.11288 357.09375 226.3125 C 355.3033 226.53025 353.89426 226.27319 352.59375 227.53125 C 351.18437 228.90434 351.00703 230.48271 351.40625 232.40625 C 351.745 234.09387 352.94246 234.59873 353.84375 236.0625 C 354.69059 237.45979 355.59676 238.141 355.875 239.75 C 356.17744 241.54053 355.24098 242.56136 354.78125 244.21875 C 354.73785 244.2172 354.70107 244.21875 354.65625 244.21875 L 354.65625 244.625 C 354.28121 246.36709 353.22675 247.42435 353.84375 249.09375 C 354.41838 250.68465 356.5796 250.3346 357.09375 251.9375 C 357.59581 253.48 356.69259 254.46465 356.28125 256.03125 C 355.77315 257.97285 355.4668 259.07335 354.65625 260.90625 C 353.44043 263.65244 351.0464 264.4796 350.5625 267.4375 C 350.35079 268.6896 351.16739 269.5684 350.5625 270.6875 C 350.07254 271.5766 349.16639 271.514 348.53125 272.3125 C 347.77514 273.2561 347.61494 273.98275 347.3125 275.15625 C 346.84674 277.00115 347.16734 278.1571 347.3125 280.0625 C 347.4033 281.3328 346.60576 282.6714 347.71875 283.3125 C 348.71077 283.8932 349.42531 282.246 350.5625 282.5 C 351.99003 282.8085 352.07553 284.23685 353.03125 285.34375 L 353.4375 290.625 C 353.28014 292.5304 353.10385 293.62575 353.03125 295.53125 C 352.95855 297.28535 351.87592 298.6874 353.03125 300 C 354.08982 301.2219 355.50896 300.4979 357.09375 300.8125 C 358.68461 301.127 359.55329 301.8791 361.15625 301.625 C 362.76525 301.3831 363.32447 300.26515 364.8125 299.59375 C 366.01018 299.04935 366.68638 298.49695 367.96875 298.40625 C 367.92111 298.09926 367.88171 297.79076 367.8125 297.5 C 367.88363 297.79583 367.95182 298.09374 368 298.40625 C 367.99207 298.40751 367.97727 298.40554 367.96875 298.40625 C 368.01725 298.66635 368.08175 298.9092 368.09375 299.1875 L 368.09375 298.375 C 369.40032 298.302 370.15818 298.6431 371.34375 299.1875 C 372.58377 299.7561 373.58866 299.99695 374.1875 301.21875 C 374.75004 302.36195 373.99998 303.2418 374.1875 304.5 C 374.35688 305.6432 374.44351 306.33355 375 307.34375 C 375.97993 309.13425 377.70755 309.07555 379.0625 310.59375 C 379.98192 311.61005 379.7761 313.2135 381.125 313.4375 C 382.46786 313.6612 382.95254 312.32565 383.96875 311.40625 C 385.05755 310.42615 385.15413 309.3246 386.40625 308.5625 C 387.79143 307.7217 388.88998 308.1069 390.46875 307.75 C 392.38624 307.3266 393.4333 306.84575 395.375 306.53125 C 398.82286 305.98685 400.81626 306.62825 404.3125 306.53125 C 407.33091 306.44625 409.05016 306.3729 412.0625 306.125 C 414.92967 305.8891 417.77811 307.6957 419.375 305.3125 C 419.9436 304.4777 419.87396 303.78745 420.21875 302.84375 C 420.78733 301.22875 420.71866 300.06365 421.84375 298.78125 C 422.82367 297.65015 423.68437 297.252 425.09375 296.75 C 426.7451 296.1572 427.82043 296.56155 429.5625 296.34375 C 430.67549 296.21065 431.48683 296.5907 432.40625 295.9375 C 433.50715 295.1511 433.23283 293.95075 433.65625 292.65625 C 434.01313 291.56145 434.32963 290.98695 434.46875 289.84375 C 434.58969 288.89405 434.00902 288.2037 434.46875 287.375 C 435.18252 286.0927 436.7035 286.9013 438.125 286.5625 C 439.40131 286.2601 440.32856 286.5306 441.375 285.75 C 442.28839 285.0665 442.15315 284.0928 443 283.3125 C 444.14929 282.2539 445.8346 283.0122 446.6875 281.6875 C 447.63112 280.2176 447.5636 278.3731 446.28125 277.1875 C 445.41626 276.4072 444.30753 277.1066 443.40625 276.375 C 441.91217 275.1532 442.41833 273.4235 442.59375 271.5 C 442.66645 270.6955 442.79434 270.24905 443 269.46875 C 443.248 268.55535 443.51006 267.93255 443.8125 267.21875 C 443.93954 266.91025 444.07962 266.59985 444.21875 266.21875 L 444.625 266.21875 C 444.93956 264.31325 444.80242 263.13319 445.4375 261.3125 C 446.242 259.026 446.892 257.62215 448.71875 256.03125 C 450.43665 254.53715 451.95548 254.58575 454 253.59375 C 457.06678 252.09955 459.02197 251.5384 461.75 249.5 C 463.10495 248.4898 463.54222 247.50905 465 246.65625 C 466.99008 245.47665 469.00592 246.61647 470.6875 245.03125 C 472.30861 243.51904 472.67742 241.95779 472.75 239.75 C 472.7803 238.67324 472.38007 237.88011 471.96875 237.09375 C 471.56953 236.30739 471.17944 235.52025 471.125 234.4375 C 471.01609 232.16313 470.81842 230.46183 472.3125 228.75 C 473.57671 227.31042 474.97365 227.28136 476.8125 226.71875 C 479.24416 225.96876 480.75987 225.80348 483.3125 225.90625 C 485.23604 225.98485 486.49483 225.83555 488.21875 226.71875 C 489.51321 227.39018 489.82247 228.3881 491.0625 229.15625 C 492.65336 230.12406 493.71659 230.3821 495.53125 230.78125 C 497.08581 231.11999 498.04625 231.41136 499.625 231.1875 C 501.51831 230.92738 502.43031 230.11197 504.09375 229.15625 C 505.96891 228.07956 506.68129 226.96486 508.5625 225.90625 C 510.37111 224.9022 511.51496 224.56356 513.46875 223.84375 C 515.34996 223.13603 516.91018 223.62209 518.34375 222.21875 C 519.25713 221.32958 519.63001 220.61508 519.96875 219.375 C 520.28933 218.14108 519.21869 217.14725 519.96875 216.125 C 520.91238 214.84263 522.44039 215.57358 524.03125 215.71875 C 525.68864 215.87593 526.55834 216.39915 528.125 216.9375 C 529.40737 217.37907 530.11684 217.68444 531.375 218.15625 C 533.12918 218.79743 534.38597 218.63196 535.84375 219.78125 C 536.82973 220.54945 537.17433 221.21464 537.90625 222.21875 C 539.27329 224.1181 539.60677 225.48678 540.75 227.53125 C 541.82671 229.45478 542.23275 230.67022 543.59375 232.40625 C 544.82168 234.00316 546.13096 234.38092 547.25 236.0625 C 547.60083 236.59481 547.76612 237.1683 547.875 237.71875 C 548.14115 239.07974 548.02314 240.42534 549.28125 241.375 C 550.8237 242.5364 552.72367 240.91723 554.1875 242.1875 C 555.36704 243.21588 554.76 244.69453 555.8125 245.84375 C 557.00412 247.16245 558.30832 247.0403 559.875 247.875 C 561.32673 248.6311 562.12286 249.11995 563.5625 249.90625 C 565.29852 250.86805 566.15004 251.764 568.03125 252.375 C 570.60807 253.2097 572.85667 251.04525 574.9375 252.78125 C 576.63723 254.19065 575.39707 256.5261 577 258.0625 C 577.90735 258.9517 578.64002 259.252 579.84375 259.6875 C 581.64027 260.3348 582.82546 259.83365 584.71875 260.09375 C 585.68658 260.22685 586.38805 259.9073 587.15625 260.5 C 588.39628 261.48 586.57557 263.11175 587.15625 264.59375 C 588.04544 266.93465 590.58151 266.6047 592.46875 268.25 C 593.65433 269.2843 594.24185 269.94455 595.3125 271.09375 C 596.30452 272.17645 597.09673 272.631 597.75 273.9375 C 598.47586 275.3832 598.41128 276.3909 598.5625 278 C 598.68954 279.4215 599.64526 280.7681 598.5625 281.6875 C 597.82455 282.3166 596.88715 281.51305 596.125 282.09375 C 595.07854 282.88625 595.60889 284.07355 595.3125 285.34375 C 594.94352 286.92865 594.05842 287.85165 594.5 289.40625 C 595.07465 291.36005 596.53614 292.54135 598.5625 292.65625 C 598.5625 292.65625 600.29425 289.9235 601.4375 288.1875 C 602.36903 286.7539 602.95455 285.99495 603.84375 284.53125 C 604.69664 283.12785 604.46059 281.6371 605.90625 280.875 C 606.7531 280.4152 607.47876 280.90415 608.34375 280.46875 C 610.76329 279.24695 610.70476 275.75725 609.15625 273.53125 C 608.36384 272.41215 607.52227 272.1291 606.3125 271.5 C 604.96361 270.8105 603.43655 271.57015 602.65625 270.28125 C 602.23282 269.59175 602.25 269.0666 602.25 268.25 C 602.25 267.4394 602.33571 267.01125 602.65625 266.21875 C 603.6543 265.70465 604.16731 265.15435 604.6875 264.15625 C 605.26216 263.01905 604.07755 261.69865 605.09375 260.90625 C 605.72283 260.41025 606.30839 260.4335 607.125 260.5 C 608.18355 260.597 608.63703 261.21675 609.5625 261.71875 C 611.2078 262.59585 612.88098 262.46256 613.625 264.15625 C 614.1331 265.32365 612.91123 266.3911 613.625 267.4375 C 614.1573 268.1997 614.76101 268.47475 615.65625 268.65625 C 617.483 269.01915 618.31643 266.85395 619.75 266.21875 C 619.58062 264.78525 619.99703 263.81364 619.34375 262.53125 C 618.39407 260.68625 616.61607 260.7581 614.84375 259.6875 C 612.96859 258.5381 611.8681 257.99305 609.96875 256.84375 C 608.69245 256.06945 607.99507 255.5928 606.71875 254.8125 C 604.21453 253.3124 602.8853 252.2561 600.1875 251.125 C 598.34865 250.3447 595.94159 251.3993 595.3125 249.5 C 594.8286 248.0724 596.74295 247.33795 596.53125 245.84375 C 596.37999 244.79127 596.04442 244.1805 595.3125 243.40625 C 593.94546 241.9787 592.34793 242.51421 590.40625 242.1875 C 587.75684 241.73988 586.10707 242.46478 583.5 241.78125 C 581.83656 241.34574 580.7733 241.19067 579.40625 240.15625 C 578.43842 239.41835 577.90528 238.60788 577.5 237.71875 C 577.05239 236.73884 576.73089 235.64128 576.15625 234.4375 C 575.24892 232.58055 575.09283 231.38925 574.125 229.5625 C 573.04831 227.53617 572.15131 226.5556 570.875 224.65625 C 569.15106 222.09757 569.1464 219.55355 566.40625 218.15625 C 564.67628 217.28522 563.20578 218.24509 561.5 217.34375 C 560.39305 216.75702 559.80651 216.29845 559.0625 215.3125 C 557.04822 212.65709 559.0625 210.083 559.0625 206.75 C 559.0625 204.84468 557.84668 203.3389 559.0625 201.875 C 560.115 200.59265 561.70352 201.49098 563.125 200.65625 C 564.67956 199.75497 564.60975 197.50814 566.40625 197.375 C 567.8217 197.26609 568.6703 198.00295 569.65625 199.03125 C 571.51932 200.99114 569.07048 203.41518 570.0625 205.9375 C 570.51617 207.12307 570.68339 207.98287 571.6875 208.78125 C 573.18763 209.96683 575.09363 207.99589 576.59375 209.1875 C 577.59787 209.98603 577.02712 211.52925 578.21875 212.03125 C 579.97293 212.78136 580.32648 207.65622 581.875 208.78125 C 583.17551 209.71278 581.27011 211.40518 581.875 212.875 C 582.3468 214.0183 583.34371 214.21166 583.90625 215.3125 C 584.57164 216.61307 584.1078 217.63806 584.71875 218.96875 C 586.23701 222.2957 589.33542 222.3809 592.46875 224.25 C 593.87814 225.07876 594.67931 225.51405 596.125 226.3125 C 597.87313 227.26817 598.6954 228.27219 600.625 228.75 C 602.46387 229.21576 603.75187 227.97579 605.5 228.75 C 607.24208 229.5303 607.55232 230.91223 608.75 232.40625 C 610.31665 234.37219 610.26494 236.38801 612.40625 237.71875 L 614.15625 234.53125 L 614.03125 234.84375 C 614.51468 234.12616 614.86578 233.52427 615.21875 232.9375 C 615.46318 232.53117 615.69343 232.12647 616.03125 231.71875 C 616.17611 231.54391 616.28727 231.36897 616.46875 231.1875 C 616.47454 231.18174 616.49422 231.19321 616.5 231.1875 C 616.34802 231.33948 616.18469 231.51607 616.03125 231.71875 C 615.76273 232.07345 615.48543 232.48559 615.21875 232.9375 C 614.41871 234.29322 613.65448 235.93421 613.03125 236.875 L 612.40625 237.71875 C 613.94267 238.67442 615.21256 238.29027 616.90625 238.9375 C 619.0899 239.77218 620.05224 240.84967 622.1875 241.78125 C 623.43355 242.3196 624.25193 242.35882 625.4375 243 C 626.242 243.41737 626.97677 243.73176 627.59375 244.125 C 628.21075 244.53027 628.71873 245.02714 629.09375 245.84375 C 629.8922 247.58575 628.75405 248.81335 628.6875 250.71875 C 628.6331 252.30955 628.6875 253.2277 628.6875 254.8125 C 628.6875 257.2017 628.85688 258.53505 628.6875 260.90625 C 628.5967 262.34585 627.83465 263.23275 628.3125 264.59375 C 628.91738 266.29955 631.1945 265.8043 631.96875 267.4375 C 632.5192 268.5868 632.06036 269.4354 632.375 270.6875 C 632.62905 271.7158 632.55338 272.637 633.03125 273.375 C 633.16438 273.5746 633.3508 273.762 633.5625 273.9375 C 634.59082 274.7117 635.65818 273.84755 636.84375 274.34375 C 638.19265 274.90635 638.77412 275.62595 639.6875 276.78125 C 640.24399 277.51325 640.43444 278.04525 640.90625 278.84375 C 642.0374 280.73705 641.94139 282.44845 643.75 283.71875 C 644.99003 284.58365 646.0513 284.2721 647.40625 284.9375 C 648.241 285.3428 648.58561 285.84175 649.46875 286.15625 C 651.39833 286.87615 652.67524 285.8226 654.75 285.75 C 656.49813 285.69 657.50087 285.5443 659.21875 285.75 C 660.67048 285.9255 661.48981 286.0907 662.875 286.5625 C 664.55055 287.1372 666.06141 287.06345 666.96875 288.59375 C 667.61598 289.70075 666.37088 291.0886 667.375 291.875 C 668.01014 292.371 668.58965 292.28125 669.40625 292.28125 C 670.22284 292.28125 670.62695 291.8024 671.4375 291.875 C 673.13723 292.0263 673.10975 294.20445 674.71875 294.71875 C 675.93457 295.09975 676.89204 295.39615 677.96875 294.71875 C 679.24505 293.91415 679.48994 292.5323 679.1875 291.0625 C 678.95763 289.9373 678.31861 289.45255 677.5625 288.59375 C 676.75195 287.67425 676.1281 287.2581 675.09375 286.5625 C 673.64807 285.5584 672.62209 285.31765 671.03125 284.53125 L 677.15625 285.75 C 677.96075 285.2782 678.76409 285.34785 679.1875 284.53125 C 679.82868 283.26695 678.53033 282.32765 677.5625 281.28125 C 676.46767 280.07745 675.30353 280.0847 673.90625 279.25 C 672.60574 278.4878 672.14428 277.2178 670.65625 277.1875 C 669.44043 277.1635 668.99103 278.5222 667.78125 278.4375 C 666.42631 278.3347 665.25808 277.6997 664.9375 276.375 C 664.57457 274.9172 667.09576 274.6191 666.96875 273.125 C 666.84171 271.6673 665.53536 271.33375 664.53125 270.28125 C 663.34566 269.04725 662.47288 268.4093 661.28125 267.375 C 661.28125 266.4676 661.23275 265.9255 661.28125 265 C 661.37205 262.59861 659.68025 259.002 662.09375 258.875 C 663.9931 258.7722 663.75895 261.45445 665.34375 262.53125 C 666.22689 263.13004 667.03119 262.9939 667.78125 263.75 C 668.53736 264.5061 667.95967 266.01915 669 266.21875 C 670.00412 266.40625 670.1965 265.17445 671.03125 264.59375 C 672.37409 263.65605 674.28927 264.11014 674.71875 262.53125 C 675.02119 261.41225 673.73084 260.8247 673.90625 259.6875 C 674.08173 258.5564 674.62997 257.9637 675.53125 257.25 C 676.92855 256.143 678.26398 256.7702 680 256.4375 C 681.59086 256.135 682.47265 255.4556 684.09375 255.625 C 685.4366 255.7702 686.0251 256.52325 687.34375 256.84375 C 688.89832 257.22485 690.12994 256.3064 691.40625 257.25 C 692.54344 258.0908 691.88801 259.6592 693.03125 260.5 C 694.31361 261.4496 695.49685 260.97275 697.09375 260.90625 C 699.21086 260.82125 700.41618 260.4013 702.40625 259.6875 C 704.41448 258.9677 705.61175 258.5807 707.28125 257.25 C 708.15833 256.5483 708.2842 255.67845 709.3125 255.21875 C 710.47388 254.70465 711.32349 255.21875 712.59375 255.21875 C 714.34187 255.21875 715.32043 255.34585 717.0625 255.21875 C 718.33277 255.12775 719.05535 254.7641 720.34375 254.8125 C 721.29947 254.8545 721.80637 255.06155 722.75 255.21875 L 723.15625 253.59375 C 722.48482 253.18845 723.53132 252.23895 723.15625 251.53125 C 722.56346 250.36985 721.17046 251.08785 719.90625 250.71875 C 718.46057 250.30135 717.62311 250.1229 716.25 249.5 C 715.08862 248.9677 714.39223 248.6977 713.40625 247.875 C 712.46262 247.0705 712.00408 246.51425 711.375 245.4375 C 710.80642 244.45765 710.83165 243.48085 710.84375 242.53125 C 710.84975 241.58158 710.83291 240.65734 710.15625 239.75 C 709.41224 238.75793 708.33573 238.7833 707.71875 237.71875 C 706.67834 235.9283 707.67637 234.42663 708.09375 232.40625 C 708.63815 229.89602 708.36676 227.64931 710.5625 226.3125 C 711.54846 225.70762 712.52312 226.21284 713.40625 225.46875 C 714.12003 224.882 714.28626 224.30255 714.625 223.4375 C 715.1452 222.10071 715.03729 221.22094 715.03125 219.78125 L 715.0625 219.78125 C 715.0383 217.85772 714.2863 216.84195 714.25 214.90625 C 714.1834 212.66218 713.33858 210.63324 715.0625 209.1875 C 716.29043 208.14708 717.5402 208.6956 719.125 208.375 C 720.70376 208.06047 723.1875 207.5625 723.1875 207.5625 C 723.2541 206.26199 723.30243 205.27837 723.375 204.25 C 723.4416 204.2685 723.51518 204.2882 723.59375 204.3125 L 723.40625 204.03125 C 723.44855 203.38402 723.50904 202.69166 723.59375 201.875 C 723.72689 200.44142 723.24389 199.44063 724 198.21875 C 724.85894 196.82758 726.48277 197.29343 727.65625 196.15625 C 728.7148 195.10979 728.64709 193.98294 729.6875 192.90625 C 730.63113 191.91423 731.78119 192.0122 732.53125 190.875 C 733.18453 189.90724 732.49094 188.81155 733.34375 188.03125 C 734.28736 187.16619 735.60173 186.80839 736.59375 187.625 C 737.13813 188.07866 736.94149 188.7359 737.4375 189.25 C 738.242 190.07271 739.27109 189.49391 740.28125 190.0625 C 741.44263 190.7219 741.55132 191.84067 742.71875 192.5 C 743.72286 193.06858 744.46867 192.98587 745.59375 193.3125 C 747.17856 193.77223 747.99281 194.46472 749.65625 194.53125 C 751.28945 194.60985 752.1158 193.90023 753.71875 193.71875 C 755.93266 193.4647 759.05036 191.52913 759.4375 193.71875 C 759.75204 195.60601 757.36505 195.95254 755.75 196.96875 C 754.84267 197.52524 754.25008 197.71675 753.3125 198.21875 C 752.18137 198.81759 751.38819 198.93642 750.46875 199.84375 C 749.56748 200.74504 748.45057 201.46563 748.84375 202.6875 C 749.26112 203.97597 750.76299 203.58567 752.09375 203.90625 C 753.64227 204.28734 754.61982 203.88872 756.15625 204.3125 C 757.31763 204.63915 758.2318 204.59367 759 205.53125 C 759.91338 206.64424 759.09283 207.79021 759.4375 209.1875 C 759.81859 210.85094 759.71967 212.21671 761.0625 213.28125 C 762.55658 214.46682 764.23777 214.5707 765.9375 213.6875 C 767.69772 212.76202 766.54825 209.97384 768.375 209.1875 C 770.17757 208.40719 771.57547 211.39827 773.28125 210.40625 C 774.16438 209.89815 774.25902 209.16741 774.90625 208.375 C 775.84384 207.24387 775.90411 205.84585 777.34375 205.53125 C 778.46279 205.28325 779.12288 205.90217 780.1875 206.34375 C 781.37307 206.82764 781.761 207.7571 783.03125 207.96875 C 784.15031 208.15627 784.92029 208.10695 785.90625 207.5625 C 787.09788 206.90922 788.02824 206.08581 787.9375 204.71875 C 787.82267 203.00692 785.95678 202.63209 784.28125 202.28125 C 783.36182 202.08164 782.78133 202.22685 781.84375 202.28125 C 779.91417 202.38407 778.86104 203.37206 776.9375 203.09375 C 775.59465 202.90018 774.80049 202.63716 773.6875 201.875 C 772.47773 201.0403 772.10894 200.21084 771.25 199.03125 C 770.36081 197.82758 770.38013 196.68152 769.21875 195.75 C 768.14811 194.91525 766.23489 195.86198 765.96875 194.53125 C 765.64212 193.00082 768.25191 193.63817 769.625 192.90625 C 770.9497 192.19254 771.79224 191.90942 772.875 190.875 C 773.8549 189.92532 773.78721 188.81156 774.90625 188.03125 C 776.59994 186.84561 778.12483 187.78831 780.1875 187.625 C 782.09289 187.47374 783.18835 187.45465 785.09375 187.21875 C 787.00519 186.98284 788.2932 187.38612 789.96875 186.40625 C 791.11804 185.72272 791.2993 184.70565 792.40625 183.9375 C 793.2773 183.33256 793.82755 183.02718 794.84375 182.71875 C 796.51324 182.22274 798.11582 181.48471 799.34375 182.71875 C 800.57168 183.95878 799.59175 185.48878 799.34375 187.21875 C 799.16235 188.51926 798.82765 189.19245 798.53125 190.46875 C 797.98685 192.83386 797.48791 194.14294 797.3125 196.5625 C 797.2158 197.99003 797.76012 198.88901 797.3125 200.25 C 796.88303 201.54445 796.41742 202.39208 795.25 203.09375 C 794.01604 203.83776 792.21073 202.19344 791.59375 203.5 C 791.19452 204.37103 791.56448 205.07252 792 205.9375 C 792.5686 207.0384 793.42833 207.27918 794.46875 207.96875 C 796.05961 209.03335 797.1047 209.40116 798.9375 210 C 800.17148 210.41738 801.02007 210.25096 802.1875 210.84375 C 803.5001 211.49703 803.79727 212.48884 805.03125 213.28125 C 807.14835 214.6241 809.22664 213.7035 811.15625 215.3125 C 812.37811 216.32871 812.59568 217.32247 813.59375 218.5625 C 814.36197 219.53636 814.79629 220.08058 815.625 221 C 816.61095 222.09485 817.30134 222.66423 818.28125 223.65625 C 818.35985 223.72895 818.41429 223.7711 818.46875 223.84375 C 820.108 225.54349 820.35466 227.52111 822.5625 228.34375 C 823.3186 228.62201 823.79529 228.57459 824.59375 228.75 C 825.76119 229.01012 826.59971 229.16531 827.53125 229.4375 L 828.65625 229.15625 C 829.92653 228.3578 830.49082 227.56657 831.90625 227.125 C 833.58178 226.60481 834.63898 227.0888 836.375 227.125 C 839.09699 227.1916 840.78408 226.57552 843.3125 227.53125 C 845.73207 228.45672 846.7196 229.80934 848.625 231.59375 C 849.77078 232.66368 850.38778 233.8976 851 235.0625 L 851 0 L 695.625 0 C 695.719 0.12224526 695.79079 0.26221353 695.90625 0.375 C 695.77696 0.2505296 695.66283 0.1333629 695.5625 0 L 619.3125 0 z M 700.40625 4.1875 C 700.39942 4.3626679 700.40279 4.5391576 700.375 4.71875 C 700.36965 4.7501497 700.3497 4.7809867 700.34375 4.8125 C 700.38101 4.6044579 700.39838 4.3903239 700.40625 4.1875 z M 379.625 7.6875 C 379.41594 7.7059231 379.21675 7.7953625 379.0625 8.03125 C 378.48785 8.92649 379.88202 9.48877 380.28125 10.46875 C 380.66232 11.40027 380.38706 12.24793 381.125 12.9375 C 382.16541 13.91144 383.51704 13.60295 384.78125 12.9375 C 385.57366 12.51409 386.22478 12.15833 386.40625 11.28125 C 386.63005 10.15615 385.74906 9.45469 384.78125 8.84375 C 383.82553 8.25096 383.05049 8.59477 381.9375 8.4375 C 381.10276 8.3150475 380.25219 7.6322306 379.625 7.6875 z M 543.4375 10.28125 C 543.62246 10.707134 543.82761 11.16276 544 11.6875 C 544.10891 11.97179 544.16437 12.24595 544.21875 12.5 C 544.15454 12.236985 544.06818 11.98014 543.96875 11.6875 C 543.79636 11.16276 543.62246 10.707133 543.4375 10.28125 z M 693.03125 12.9375 C 693.03655 12.931582 693.05719 12.943385 693.0625 12.9375 C 691.99788 14.12307 691.61702 14.95352 690.625 16.1875 C 690.08967 16.8438 689.69938 17.38756 689.28125 17.90625 C 689.69938 17.387557 690.05843 16.843775 690.59375 16.1875 C 691.58577 14.95353 691.97269 14.12314 693.03125 12.9375 z M 545.84375 23.46875 C 545.84933 23.462605 545.8693 23.474751 545.875 23.46875 C 545.82138 23.527833 545.75959 23.613894 545.71875 23.6875 C 545.67791 23.761106 545.65108 23.815894 545.625 23.90625 C 545.594 24.014756 545.56815 24.121756 545.5625 24.21875 C 545.56811 24.121757 545.56275 24.014756 545.59375 23.90625 C 545.61984 23.815895 545.67791 23.761105 545.71875 23.6875 C 545.75959 23.613895 545.79012 23.527833 545.84375 23.46875 z M 430.375 25.65625 C 429.8616 25.661542 429.35489 25.74091 428.75 25.9375 C 427.86686 26.22179 427.23897 26.4193 426.71875 27.1875 C 426.05943 28.16144 426.13137 29.23882 426.6875 30.21875 C 426.81454 30.43045 426.96167 30.64419 427.125 30.84375 C 428.32873 32.32571 430.30026 32.12111 432 31.25 C 433.42148 30.52415 434.84378 29.54247 434.46875 28 C 434.18445 26.79029 433.17348 26.36097 432 25.9375 C 431.40418 25.71974 430.8884 25.650958 430.375 25.65625 z M 548.375 27.28125 C 548.41996 27.379891 548.47316 27.483361 548.5 27.59375 C 548.55973 27.856117 548.57319 28.099777 548.59375 28.34375 C 548.57263 28.099774 548.52924 27.85612 548.46875 27.59375 C 548.44229 27.483358 548.41967 27.379894 548.375 27.28125 z M 611.375 28.75 C 609.5474 28.721117 606.75797 31.161494 607.9375 32.46875 C 608.71175 33.32776 609.6501 33.48691 610.78125 33.28125 C 611.68251 33.11797 612.35883 32.87304 612.8125 32.0625 C 613.35085 31.08259 613.11396 30.08379 612.40625 29.21875 C 612.14652 28.905732 611.79675 28.756665 611.375 28.75 z M 540.5625 36.84375 C 540.46686 36.983037 540.39743 37.147163 540.34375 37.34375 C 540.31275 37.459061 540.28214 37.586308 540.28125 37.6875 C 540.28214 37.586308 540.2815 37.459061 540.3125 37.34375 C 540.36618 37.14716 540.46671 36.98304 540.5625 36.84375 z M 416.59375 40.9375 C 415.87866 40.917377 415.27124 41.092748 414.5 41.4375 C 413.56848 41.85487 412.58367 42.04629 412.46875 43.0625 C 412.35983 44.07274 413.16221 44.69458 414.09375 45.09375 C 415.12811 45.53533 415.86685 45.03837 416.9375 44.6875 C 418.35293 44.21568 420.4365 44.13824 420.21875 42.65625 C 420.01913 41.3921 418.60192 41.24301 417.34375 41.03125 C 417.06853 40.98437 416.83211 40.944208 416.59375 40.9375 z M 635.59375 41.8125 C 635.47961 41.805526 635.3488 41.819561 635.21875 41.84375 C 634.43845 41.98281 634.1674 42.53626 633.5625 43.0625 C 632.46766 44.02427 632.28133 43.29918 631.15625 45.90625 C 631.09575 46.05751 632.27923 46.68449 632.40625 46.78125 C 634.83186 48.75924 633.37384 47.8286 635.21875 47.9375 C 636.71887 48.0283 637.92532 47.88019 638.875 46.71875 C 639.50409 45.93851 640.05045 45.21277 639.6875 44.28125 C 639.32457 43.42237 638.4668 43.50413 637.65625 43.0625 C 636.83587 42.607325 636.39271 41.861319 635.59375 41.8125 z M 642.4375 47.875 C 641.94442 47.911006 641.50054 48.216715 640.90625 48.34375 C 638.98269 48.75507 637.97899 49.24796 636.03125 49.5625 C 634.14401 49.87704 632.95175 49.4426 631.125 49.96875 C 629.95152 50.30144 628.61999 50.02613 628.28125 51.1875 C 627.98485 52.20977 629.03424 52.70053 629.5 53.65625 C 630.15328 54.92658 629.91622 56.20458 631.15625 56.90625 C 632.2511 57.53539 633.25091 57.42644 634.40625 56.90625 C 635.44664 56.45258 635.56646 55.58884 636.4375 54.875 C 637.58074 53.9254 638.32046 53.47188 639.6875 52.8125 C 640.90334 52.21971 642.13905 52.69468 642.9375 51.59375 C 643.7662 50.43235 644.26826 48.44566 642.9375 47.9375 C 642.74999 47.866425 642.60186 47.862998 642.4375 47.875 z M 397.875 48.9375 C 397.42186 48.979707 397.00375 49.154201 396.59375 49.5625 C 395.44446 50.71186 396.62814 52.2711 395.78125 53.65625 C 395.1945 54.61197 394.69968 55.09478 393.75 55.6875 C 393.02413 56.13512 392.492 56.21572 391.6875 56.5 C 390.59869 56.88109 389.95069 56.96771 388.84375 57.3125 C 387.60979 57.68752 386.7047 57.68034 385.71875 58.21875 C 386.1966 57.66226 386.67435 57.07471 387.21875 56.5 C 388.3257 55.35684 389.37195 54.78548 389.65625 53.21875 C 389.8498 52.11785 389.86094 51.31869 389.25 50.375 C 388.03418 48.51195 385.61912 49.5342 383.5625 50.375 C 382.29829 50.8952 381.65633 51.40826 380.71875 52.40625 C 379.60576 53.60399 378.71675 54.46062 378.65625 56.09375 C 378.61395 57.45482 378.83451 58.47272 379.875 59.34375 C 380.53432 59.88815 381.09672 60.02929 381.9375 60.15625 C 382.68756 60.26517 383.29331 60.11604 383.84375 59.84375 C 383.25703 60.59986 382.87702 61.45058 382.75 62.59375 C 382.58062 64.04548 382.52208 65.24696 383.5625 66.28125 C 384.91744 67.61806 387.0765 64.93841 388.4375 66.28125 C 389.47186 67.30962 388.42656 68.72173 389.25 69.9375 C 390.01216 71.0626 391.48381 70.75903 392.125 71.96875 C 392.79037 73.23302 392.125 74.19745 392.125 75.625 C 392.125 77.21584 390.87893 78.69548 392.125 79.6875 C 393.11702 80.48601 394.10474 79.5967 395.375 79.6875 C 396.49403 79.7722 397.3477 79.41124 398.21875 80.125 C 399.23496 80.94764 398.55945 82.15312 399.03125 83.375 C 399.40628 84.37313 400.18347 84.74795 400.25 85.8125 C 400.36502 87.83289 397.61602 87.72055 396.59375 89.46875 C 395.90419 90.63618 395.03625 91.43128 395.375 92.75 C 395.89519 94.8005 398.55124 94.08979 400.65625 93.96875 C 402.66448 93.86594 403.83857 93.3589 405.5625 92.3125 C 406.80252 91.55029 407.14806 89.12501 408.40625 89.875 C 409.26518 90.38917 408.93445 91.35067 409.21875 92.3125 C 409.85993 94.49615 409.09464 96.19844 410.4375 98.03125 C 410.4919 98.10375 410.53938 98.15819 410.59375 98.21875 C 411.52528 99.28934 412.81647 99.25904 413.6875 100.46875 C 414.83074 102.06566 415.59583 103.51094 414.90625 105.34375 C 414.27113 107.04349 412.90739 107.50491 411.25 108.21875 C 409.04822 109.15631 407.4296 109.26006 405.125 108.625 C 403.75794 108.24996 403.1997 106.50399 401.875 107 C 400.45352 107.52626 400.92846 109.16824 400.65625 110.65625 C 400.31752 112.53134 400.74095 113.62578 400.65625 115.53125 C 400.58375 117.4427 401.3509 118.87084 400.25 120.4375 C 399.2217 121.87706 397.43962 121.21057 396.1875 122.46875 C 394.41519 124.24107 392.27504 126.90511 394.15625 128.5625 C 395.34786 129.62105 396.62184 128.89617 398.21875 128.96875 C 399.48901 129.02925 400.19847 128.90215 401.46875 128.96875 C 402.90232 129.04145 403.7035 129.1875 405.125 129.375 C 406.24403 129.51405 406.88701 129.60582 408 129.78125 C 408 129.78125 410.59067 129.4626 411.25 130.59375 C 411.80649 131.56755 411.66641 132.71264 410.84375 133.46875 C 410.12998 134.11591 409.36802 133.77217 408.40625 133.875 C 406.82748 134.03236 405.85497 133.48787 404.3125 133.875 C 402.93337 134.21979 402.24808 134.71971 401.0625 135.5 C 399.84668 136.31055 399.41643 137.0967 398.21875 137.9375 C 396.88194 138.88106 395.83881 138.94649 394.5625 139.96875 C 393.2499 141.02724 392.65531 141.8335 391.6875 143.21875 C 390.74991 144.55556 389.14813 145.35163 389.65625 146.90625 C 390.28533 148.87818 392.94843 147.80247 394.96875 147.3125 C 397.18868 146.77415 397.57542 144.40629 399.84375 144.03125 C 401.92457 143.68648 403.01394 145.45061 405.125 145.28125 C 405.93554 145.21465 406.43744 145.14616 407.1875 144.84375 C 408.85698 144.18435 409.02811 142.7007 410.4375 141.59375 C 411.90132 140.45051 412.64904 139.09576 414.5 139.15625 C 415.91543 139.20475 416.35875 140.49696 417.75 140.78125 C 419.31665 141.0958 420.29524 140.78027 421.84375 140.375 C 424.31169 139.71562 425.06936 137.82062 427.53125 137.125 C 430.29558 136.35674 432.01388 137.125 434.875 137.125 C 437.73612 137.125 439.35057 137.43351 442.1875 137.125 C 444.601 136.8649 446.11677 136.97076 448.3125 135.90625 C 450.33889 134.92635 450.82141 133.36294 452.78125 132.25 C 453.39218 131.89312 453.90419 131.90831 454.40625 131.40625 C 455.53133 130.28714 451.6745 132.27123 450.34375 131.40625 C 449.38199 130.78322 448.82158 130.11193 448.71875 128.96875 C 448.58561 127.28717 450.20755 126.72286 451.5625 125.71875 C 452.69969 124.86586 453.59668 124.83165 454.8125 124.09375 C 455.97992 123.38598 457.10075 123.30252 457.6875 122.0625 C 458.28634 120.75594 457.49799 119.82775 457.25 118.40625 C 457.01409 116.96058 457.33275 115.87409 456.4375 114.71875 C 454.96157 112.81942 452.35198 115.2249 450.34375 113.90625 C 449.40013 113.28927 448.69964 112.92145 448.3125 111.875 C 447.85884 110.67127 449.28736 109.76824 448.71875 108.625 C 448.21669 107.60273 447.0555 107.8408 446.28125 107 C 444.90816 105.52408 446.13117 103.41839 444.625 102.09375 C 443.37895 100.9989 441.56057 102.19968 440.5625 100.875 C 439.92133 100.0342 440.35081 99.15026 440.375 98.21875 C 440.381 97.88605 440.31961 97.56354 440.15625 97.21875 C 439.17634 95.15002 437.15034 95.30554 435.28125 93.96875 C 433.98678 93.04931 433.33074 92.37103 432 91.5 C 431.22573 90.99794 430.53735 91.01317 429.96875 90.28125 C 428.98884 89.03525 430.38613 87.75517 429.96875 86.21875 C 429.40621 84.138 428.24308 83.28637 426.71875 81.75 C 425.44849 80.46155 424.79854 79.43854 423.0625 78.90625 C 421.2418 78.33765 420.06769 79.34273 418.15625 79.3125 C 416.55329 79.2883 415.49104 79.67445 414.09375 78.90625 C 413.11382 78.36185 412.26816 77.95075 412.0625 76.84375 C 411.72981 75.0231 414.89707 75.7915 416.125 74.40625 C 416.9779 73.45058 416.79427 72.41547 417.75 71.5625 C 419.10494 70.3528 420.81642 71.4628 422.25 70.34375 C 424.34896 68.70457 423.96065 66.45587 424.28125 63.8125 C 424.61999 61.12686 425.88927 58.71493 423.875 56.90625 C 421.73973 54.98271 419.36212 57.24088 416.53125 57.71875 C 414.28712 58.09982 413.11207 59.05854 410.84375 58.9375 C 409.88198 58.8831 409.00508 59.29341 408.40625 58.53125 C 407.69247 57.61793 408.57153 56.63717 409.21875 55.6875 C 410.05348 54.44755 411.53116 54.82373 412.46875 53.65625 C 413.22485 52.71267 414.03834 51.93659 413.6875 50.78125 C 413.43345 49.91632 412.89724 49.489 412.0625 49.15625 C 410.84666 48.67839 410.11905 49.86597 408.8125 49.96875 C 407.3789 50.07766 406.56462 49.64114 405.125 49.5625 C 403.85472 49.502 403.13921 49.5625 401.875 49.5625 C 400.57827 49.5625 399.39947 49.008385 398.34375 48.9375 C 398.18539 48.926867 398.02605 48.923431 397.875 48.9375 z M 677.96875 51.40625 C 677.84316 51.605437 677.75097 51.800978 677.59375 52.03125 C 677.49155 52.18047 677.36142 52.287012 677.25 52.40625 C 677.35279 52.294025 677.46723 52.169619 677.5625 52.03125 C 677.71373 51.81198 677.84758 51.59669 677.96875 51.40625 z M 675.5625 53.84375 C 675.41734 54.01313 675.28933 54.22679 675.15625 54.46875 C 674.05535 56.58586 676.37909 58.32441 675.5625 60.5625 C 675.48929 60.762951 675.39881 60.953478 675.3125 61.125 C 675.39603 60.953923 675.46017 60.760188 675.53125 60.5625 C 676.34784 58.32443 674.0241 56.58591 675.125 54.46875 C 675.25588 54.224455 675.40278 54.017216 675.5625 53.84375 z M 605.1875 57.3125 C 604.53553 57.314504 603.8176 57.60155 603.03125 57.71875 C 601.55533 57.94257 600.54849 57.99388 599.375 58.9375 C 598.0866 59.95976 596.85984 61.02708 597.34375 62.59375 C 597.70668 63.77333 599.26608 63.51908 599.75 64.65625 C 600.21576 65.67246 599.02433 66.69555 599.78125 67.5 C 600.46478 68.19562 601.31746 68.24505 602.21875 67.90625 C 603.63418 67.38001 602.633 65.49506 603.4375 64.21875 C 604.16942 63.08156 605.28927 62.98505 605.90625 61.78125 C 606.63817 60.35977 607.52227 58.75916 606.3125 57.71875 C 605.95184 57.408014 605.57868 57.311297 605.1875 57.3125 z M 673.40625 63.40625 C 673.22602 63.594455 673.05876 63.809031 672.875 64.03125 C 672.86839 64.025896 672.85031 64.036603 672.84375 64.03125 C 673.03503 63.799053 673.21814 63.602893 673.40625 63.40625 z M 673.09375 64.21875 L 673.125 64.21875 C 672.01806 67.55168 669.70055 69.31524 670.28125 72.78125 C 670.59579 74.67455 671.82861 75.393 672.3125 77.25 C 672.79642 79.10096 672.14409 80.33552 672.71875 82.15625 C 672.90929 82.755085 673.05974 83.349188 673.25 83.90625 C 673.05571 83.338363 672.87937 82.769006 672.6875 82.15625 C 672.10681 80.3356 672.76513 79.10102 672.28125 77.25 C 671.79735 75.39305 670.56454 74.67461 670.25 72.78125 C 669.66325 69.31524 671.98681 67.55175 673.09375 64.21875 z M 588.71875 67.3125 C 588.56309 67.30476 588.41502 67.323054 588.25 67.34375 C 588.02997 67.371345 587.79689 67.442547 587.5625 67.5 C 585.69945 67.95366 586.00306 70.1057 585.53125 71.96875 C 585.22881 73.21483 584.14509 74.40216 585.125 75.21875 C 585.99605 75.93257 587.01404 75.35682 588 74.8125 C 589.55456 73.94751 589.68547 72.49813 590 70.75 C 590.19357 69.65523 590.7803 68.7108 590 67.90625 C 589.62232 67.51156 589.18574 67.335721 588.71875 67.3125 z M 385.53125 71.25 C 385.26604 71.286381 385.00808 71.384073 384.78125 71.5625 C 384.01909 72.15529 383.91529 73.14711 384.375 74 C 384.99198 75.1191 386.91124 75.4709 387.625 74.40625 C 388.06053 73.74698 388.00609 73.07062 387.625 72.375 C 387.19857 71.617417 386.32687 71.140857 385.53125 71.25 z M 549.96875 77.5625 C 549.74797 77.557016 549.5232 77.585188 549.28125 77.65625 C 548.30737 77.94054 548.47891 79.10681 547.65625 79.6875 C 546.56746 80.4436 545.70676 80.35584 544.40625 80.53125 C 542.8275 80.74297 541.49204 79.46066 540.3125 80.53125 C 539.03015 81.7048 539.40517 83.51197 540.3125 85 C 541.17144 86.39123 542.6027 86.20262 544 87.03125 C 544.8045 87.49701 545.23279 87.80238 546.03125 88.25 C 546.96883 88.76415 547.47773 89.76521 548.5 89.46875 C 549.64324 89.12397 549.26407 87.75609 549.6875 86.625 C 550.03834 85.68736 550.07054 85.0949 550.5 84.1875 C 550.88713 83.34677 551.44149 83.03945 551.75 82.15625 C 552.20971 80.8074 552.71781 79.51521 551.75 78.46875 C 551.22375 77.91981 550.6311 77.578951 549.96875 77.5625 z M 387.46875 78.375 C 386.9235 78.484728 386.44913 79.15671 386 79.6875 C 385.46167 80.35287 384.7157 81.0363 385.1875 81.75 C 385.73795 82.58474 386.98382 81.71181 387.625 80.9375 C 388.24199 80.19356 388.85389 78.97691 388.03125 78.46875 C 387.83466 78.34777 387.6505 78.338424 387.46875 78.375 z M 390.375 83.34375 C 390.27967 83.337744 390.16079 83.361398 390.0625 83.375 C 386.92917 83.82262 390.84375 85.42646 390.84375 85.46875 L 391.6875 84.59375 C 391.58686 83.905685 391.04228 83.385792 390.375 83.34375 z M 673.5625 84.71875 C 673.67041 84.973048 673.77677 85.201972 673.90625 85.4375 L 673.5 86.21875 L 673.875 85.4375 C 673.75435 85.218622 673.65956 84.962271 673.5625 84.71875 z M 574.625 85.8125 C 574.27814 85.849071 573.95768 85.976795 573.71875 86.21875 C 573.16226 86.79943 573.01005 87.49994 573.3125 88.25 C 573.74198 89.32059 575.22573 89.72787 576.1875 89.0625 C 576.76215 88.65722 577.01816 88.13917 577 87.4375 C 576.95462 86.41675 575.66559 85.702788 574.625 85.8125 z M 668.1875 85.96875 C 668.83062 85.954218 668.44916 86.193851 668.9375 86.25 C 668.19397 86.233748 667.464 86.141392 666.78125 86.125 C 667.42038 86.034715 667.94712 85.974182 668.1875 85.96875 z M 385.4375 86.09375 C 384.21595 86.070262 383.38772 87.532718 381.9375 87.4375 C 381.50804 87.4072 381.14519 87.30144 380.8125 87.15625 C 380.12899 86.84172 379.56964 86.37002 378.65625 86.21875 C 377.56141 86.04326 376.92549 86.13405 375.8125 86.21875 C 373.70144 86.38813 372.56973 86.8568 370.53125 87.4375 C 367.77296 88.2117 365.58384 87.81844 363.59375 89.875 C 362.80137 90.70376 362.03528 91.16925 361.96875 92.3125 C 361.84782 94.24818 365.52919 93.3184 366.03125 95.1875 C 366.249 95.95578 366.29739 96.46868 366.03125 97.21875 C 365.58363 98.50716 364.5485 99.1229 363.1875 99.25 C 361.77207 99.37703 361.11704 98.41747 359.9375 97.625 C 359.09066 97.06246 358.81358 96.4718 357.90625 96 C 356.07344 95.04428 354.39027 94.54729 352.59375 95.59375 C 351.5231 96.21677 350.64113 96.79124 350.5625 98.03125 C 350.4959 99.09579 351.09167 99.66431 351.78125 100.46875 C 352.92449 101.82975 355.9476 100.72761 355.875 102.5 C 355.8327 103.42542 355.32162 103.88397 354.65625 104.53125 C 353.46461 105.68653 351.17344 104.24483 350.5625 105.78125 C 350.26611 106.5192 350.26611 107.08058 350.5625 107.8125 C 351.17344 109.34885 353.11378 108.42636 354.65625 109.03125 C 356.31364 109.67848 358.97281 109.30832 358.71875 111.0625 C 358.53123 112.29041 357.16439 112.22874 356.28125 113.09375 C 355.23479 114.10995 355.01118 115.06043 353.84375 115.9375 C 352.4646 116.95978 351.12309 116.54023 349.75 117.5625 C 348.57651 118.43958 348.18353 119.25186 347.3125 120.4375 C 346.2116 121.92552 344.41529 122.70348 344.875 124.5 C 345.1956 125.80655 346.40517 125.93938 347.3125 126.9375 C 348.14725 127.85687 348.3215 128.66729 349.34375 129.375 C 350.93461 130.46373 352.30831 130.17535 354.25 130.1875 C 356.6756 130.1935 357.97863 129.54339 360.34375 128.96875 C 362.58787 128.4183 363.96254 128.37811 366.03125 127.34375 C 367.97294 126.39407 368.58956 125.04949 370.53125 124.09375 C 372.74514 123.00491 374.18125 122.78328 376.625 122.46875 C 378.99616 122.16026 380.66313 123.61798 382.75 122.46875 C 384.99412 121.22867 385.11688 119.15136 386 116.75 C 386.8045 114.62075 386.89814 113.31269 387.21875 111.0625 C 387.46675 109.32042 387.59475 108.31668 387.625 106.5625 C 387.6435 104.93534 387.00102 103.84178 387.03125 102.46875 L 387.21875 102.5 C 387.15825 102.4515 387.09172 102.42323 387.03125 102.375 C 387.04975 102.03022 387.10377 101.67443 387.21875 101.28125 C 387.65426 99.84761 388.2217 99.12 389.25 98.03125 C 390.42954 96.7852 392.59878 97.27533 392.9375 95.59375 C 393.27019 93.90611 391.41842 93.33983 390.46875 91.90625 C 389.51302 90.4726 389.15029 89.55656 388.03125 88.25 C 387.29933 87.39706 387.05855 86.61798 386 86.21875 C 385.80719 86.146163 385.61201 86.097105 385.4375 86.09375 z M 663.6875 87.4375 L 663.71875 87.4375 C 663.60609 87.622746 663.51618 87.817074 663.46875 88 C 663.51325 87.817074 663.57484 87.622745 663.6875 87.4375 z M 543.46875 89.8125 C 543.00828 89.793588 542.52525 89.862895 541.96875 89.875 C 540.98882 89.8992 540.20873 89.59772 539.53125 90.28125 C 538.85379 90.97083 538.57455 91.95753 539.125 92.75 C 539.69359 93.53024 540.61887 92.90126 541.5625 93.125 C 542.53636 93.373 543.00193 93.84778 544 93.96875 C 544.63514 94.05345 545.05035 94.24094 545.625 93.96875 C 546.96179 93.35177 545.99204 91.17649 544.8125 90.28125 C 544.37396 89.939525 543.92922 89.831412 543.46875 89.8125 z M 663.84375 91.3125 C 663.82611 91.509735 663.79285 91.700594 663.71875 91.90625 C 663.47958 92.591568 663.12289 93.081742 662.71875 93.5 C 663.11574 93.085612 663.45159 92.582214 663.6875 91.90625 C 663.7616 91.700589 663.82611 91.509738 663.84375 91.3125 z M 660.4375 95.59375 C 660.44244 95.588126 660.46381 95.599343 660.46875 95.59375 C 659.35576 96.85796 658.73799 97.58559 657.625 98.84375 C 656.91425 99.645255 656.40655 100.31774 655.875 100.96875 C 656.40655 100.31774 656.88301 99.64526 657.59375 98.84375 C 658.70674 97.58558 659.32451 96.85791 660.4375 95.59375 z M 699.5625 96.8125 C 699.56845 96.818336 699.58782 96.806592 699.59375 96.8125 C 699.77522 96.99548 699.9186 97.161172 700.0625 97.34375 C 699.9186 97.161168 699.74397 96.995487 699.5625 96.8125 z M 629.4375 98.84375 C 629.57426 99.108105 629.74545 99.371955 629.9375 99.65625 C 630.35185 100.27623 630.55542 100.86412 630.8125 101.40625 C 630.55542 100.86412 630.3206 100.27623 629.90625 99.65625 C 629.7142 99.37195 629.57426 99.108106 629.4375 98.84375 z M 701.59375 101.6875 C 701.66455 101.97452 701.68255 102.25632 701.6875 102.53125 C 701.69017 102.67929 701.70018 102.82691 701.6875 102.96875 C 701.67705 103.09927 701.64363 103.21606 701.625 103.34375 C 701.66309 103.08176 701.68915 102.80704 701.6875 102.53125 C 701.68585 102.25546 701.6565 101.97861 701.59375 101.6875 z M 651.53125 104.875 L 651.53125 104.9375 C 651.88511 105.47285 652.1993 105.89622 652.5 106.3125 C 652.19149 105.89622 651.85386 105.47285 651.5 104.9375 L 651.53125 104.875 z M 653.375 107.59375 C 653.56639 107.89761 653.77368 108.24241 653.96875 108.625 C 654.18197 109.03934 654.34899 109.42406 654.5 109.78125 C 654.34127 109.42406 654.15072 109.03934 653.9375 108.625 C 653.74242 108.24241 653.56639 107.89761 653.375 107.59375 z M 706.53125 111.8125 C 707.0197 112.31834 707.51103 112.84672 708.125 113.5 C 708.11984 113.49463 708.09887 113.5054 708.09375 113.5 C 707.47978 112.84672 707.02045 112.31834 706.53125 111.8125 z M 655.21875 111.875 C 655.33698 112.27249 655.45941 112.61302 655.59375 113.09375 C 655.64743 113.28882 655.70545 113.47174 655.78125 113.65625 C 655.70504 113.47174 655.61694 113.28882 655.5625 113.09375 C 655.4385 112.64462 655.32905 112.24994 655.21875 111.875 z M 704.4375 118.34375 C 704.44113 118.33804 704.46496 118.34941 704.46875 118.34375 C 704.38173 118.48069 704.31883 118.61873 704.3125 118.78125 C 704.31883 118.61874 704.35048 118.48069 704.4375 118.34375 z M 703.21875 128.5625 L 702.4375 128.96875 L 702.03125 128.96875 C 701.23885 130.55955 700.69563 131.43536 700 133.0625 C 699.90776 133.27648 699.81486 133.48417 699.75 133.6875 C 699.81543 133.48417 699.87575 133.27648 699.96875 133.0625 C 700.66438 131.43534 701.20761 130.55954 702 128.96875 L 702.03125 128.96875 L 703.21875 128.5625 z M 660.53125 130.65625 C 660.5368 130.65083 660.55692 130.66166 660.5625 130.65625 C 660.2454 130.96568 659.97243 131.31525 659.71875 131.65625 C 659.2114 132.33825 658.77324 133.08258 658.0625 133.875 L 657.8125 134.21875 C 657.86846 134.28226 657.91591 134.37058 657.96875 134.4375 C 658.12726 134.63825 658.28325 134.84873 658.4375 135.09375 C 659.43557 136.73293 660.65123 137.65106 660.5 139.5625 C 660.37297 141.19571 659.49 141.96663 658.4375 143.21875 C 658.2594 143.43278 658.08703 143.6106 657.90625 143.78125 C 658.08073 143.61489 658.23461 143.42592 658.40625 143.21875 C 659.45876 141.96663 660.34171 141.19569 660.46875 139.5625 C 660.62001 137.65106 659.40432 136.73292 658.40625 135.09375 C 658.26032 134.85254 658.13064 134.63745 657.96875 134.4375 C 657.83087 134.2672 657.67625 134.11769 657.53125 133.96875 C 657.61981 134.05881 657.72597 134.12146 657.8125 134.21875 L 658.03125 133.875 C 658.742 133.08256 659.21064 132.33825 659.71875 131.65625 C 659.9728 131.31525 660.21444 130.96568 660.53125 130.65625 z M 494.3125 133.46875 C 494.97334 133.76513 495.62491 134.08467 496.65625 134.5625 L 496.8125 134.5625 L 496.65625 134.59375 C 495.62492 134.11588 494.97334 133.76513 494.3125 133.46875 z M 686.1875 134.9375 C 686.19294 134.93186 686.21328 134.94311 686.21875 134.9375 C 686.06078 135.10146 685.9001 135.2647 685.75 135.4375 C 685.88915 135.26884 686.03774 135.09295 686.1875 134.9375 z M 496.5 143.3125 L 496.40625 143.46875 C 493.5512 143.78329 492.7351 144.03125 489.84375 144.03125 C 492.49037 144.03125 494.06656 143.62494 496.5 143.3125 z M 651.5625 148.25 C 651.56838 148.24438 651.58783 148.25558 651.59375 148.25 C 651.20012 148.62587 650.88206 149.09672 650.71875 149.75 C 650.22274 151.75218 652.88911 152.56832 652.75 154.625 C 652.62907 156.18561 652.20169 157.14407 651.125 158.28125 C 651.11941 158.28728 651.09932 158.27531 651.09375 158.28125 C 652.17046 157.14405 652.59778 156.18561 652.71875 154.625 C 652.8578 152.56833 650.19149 151.75218 650.6875 149.75 C 650.85082 149.09672 651.16887 148.62588 651.5625 148.25 z M 609.96875 151.78125 L 615.84375 152.9375 C 615.6618 152.9731 615.48767 152.9932 615.28125 153 C 614.15011 153.0362 613.5011 152.82354 612.40625 152.59375 C 611.33383 152.36557 610.72202 152.13912 609.71875 151.84375 L 609.96875 151.78125 z M 648.90625 159.40625 L 649.46875 159.53125 L 649.1875 159.6875 C 649.08299 159.59481 649.00104 159.49452 648.90625 159.40625 z M 648.5625 159.96875 L 648.59375 159.96875 C 648.59375 159.96875 648.59757 160.2456 648.375 161.03125 C 648.58878 160.24559 648.5625 159.96875 648.5625 159.96875 z M 648.3125 166.84375 L 648.28125 167.65625 C 648.2704 167.65356 648.26094 167.65895 648.25 167.65625 L 648.3125 166.84375 z M 709.9375 170.40625 C 710.09396 170.44186 710.24872 170.44837 710.40625 170.5 C 710.44797 170.51334 710.48906 170.54794 710.53125 170.5625 C 710.3284 170.49122 710.13707 170.45167 709.9375 170.40625 z M 510.59375 175 L 510.625 175 C 510.49117 175.18221 510.33172 175.32683 510.1875 175.46875 C 510.3313 175.32683 510.46067 175.18221 510.59375 175 z M 507.375 177.375 C 507.38112 177.36944 507.40012 177.38051 507.40625 177.375 C 507.2558 177.51182 507.1109 177.66833 506.96875 177.84375 C 506.68596 178.18701 506.43273 178.50156 506.21875 178.8125 C 506.4332 178.50156 506.65472 178.18701 506.9375 177.84375 C 507.07965 177.66833 507.22439 177.51182 507.375 177.375 z M 505.65625 179.75 C 505.33566 180.38059 505.10284 181.03825 504.90625 181.90625 C 505.09981 181.03825 505.3349 180.38059 505.65625 179.75 z M 642.125 183.125 C 642.13027 183.11898 642.15097 183.13093 642.15625 183.125 C 641.9831 183.32084 641.83577 183.52008 641.71875 183.71875 C 641.83577 183.52008 641.95185 183.32084 642.125 183.125 z M 641.25 186.9375 C 641.28166 187.40856 641.34375 187.91577 641.34375 188.4375 C 641.34225 188.96222 641.42725 189.43202 641.5625 189.875 C 641.4264 189.43202 641.3125 188.96222 641.3125 188.4375 C 641.3125 187.91577 641.28166 187.40856 641.25 186.9375 z M 506.25 189.09375 C 506.46364 189.41102 506.71319 189.74116 506.96875 190.0625 C 507.13358 190.27497 507.28632 190.46573 507.46875 190.625 C 507.28574 190.46573 507.10309 190.27497 506.9375 190.0625 C 506.67948 189.73947 506.46299 189.41202 506.25 189.09375 z M 596.46875 189.5625 C 596.55624 189.65135 596.66017 189.74565 596.75 189.84375 L 596.71875 189.875 C 596.62608 189.77181 596.55917 189.65551 596.46875 189.5625 z M 595.6875 190.875 L 595.71875 190.875 C 595.0011 191.71612 594.59391 192.3509 593.96875 193.03125 C 594.58658 192.35642 594.97524 191.70976 595.6875 190.875 z M 642.3125 193.03125 C 642.28271 193.25599 642.25152 193.47528 642.15625 193.71875 C 642.09406 193.87666 642.01089 194.01467 641.9375 194.15625 C 642.01026 194.01547 642.06338 193.87565 642.125 193.71875 C 642.22027 193.47528 642.28273 193.25599 642.3125 193.03125 z M 571.125 195.5625 C 571.05892 196.07919 570.94314 196.58709 570.8125 197.125 C 570.94484 196.59061 571.05494 196.07327 571.125 195.5625 z M 713.3125 195.65625 C 713.33257 195.81724 713.36693 195.98084 713.40625 196.15625 C 713.43234 196.26664 713.4255 196.388 713.40625 196.5 C 713.4255 196.388 713.40108 196.26664 713.375 196.15625 C 713.33568 195.98084 713.33257 195.81724 713.3125 195.65625 z M 619.75 195.75 L 620.125 195.75 L 619.78125 196.125 C 619.76352 195.99955 619.77135 195.87947 619.75 195.75 z M 620.96875 203.09375 C 621.19407 203.58371 621.41845 203.99108 621.65625 204.375 C 621.42975 204.00932 621.18365 203.61691 620.96875 203.15625 L 620.96875 203.09375 z M 627.6875 210.5625 C 627.777 210.75976 627.86467 210.97 627.90625 211.21875 C 627.92855 211.35485 627.91527 211.50026 627.90625 211.625 C 627.91555 211.50026 627.89693 211.35485 627.875 211.21875 C 627.83266 210.97 627.77757 210.75976 627.6875 210.5625 z M 627.5625 218.15625 C 627.67914 218.27473 627.81325 218.40373 627.90625 218.5625 C 628.05294 218.82184 628.17497 219.08248 628.28125 219.34375 C 628.17456 219.08247 628.02244 218.82185 627.875 218.5625 C 627.782 218.40372 627.67914 218.27473 627.5625 218.15625 z M 827.53125 229.46875 L 829.53125 230.5 C 829.59785 230.4815 829.62704 230.4618 829.6875 230.4375 C 828.87695 230.04434 828.11195 229.69862 827.53125 229.46875 z M 529.90625 231.5625 C 528.76754 231.5669 528.90962 233.73433 527.71875 234.4375 C 526.7328 235.02424 525.83677 234.59667 524.875 235.25 C 523.53216 236.16937 523.04941 237.31034 522.84375 238.9375 C 522.66235 240.38311 522.67022 241.50489 523.65625 242.59375 C 524.35792 243.38009 525.46366 242.92938 526.0625 243.8125 C 526.87912 244.99197 524.86385 246.27705 525.65625 247.46875 C 526.33978 248.47285 527.32752 248.9113 528.53125 248.6875 C 529.53536 248.5 529.89713 247.8367 530.5625 247.0625 C 531.67549 245.756 531.84876 244.66949 532.1875 243 C 532.62303 240.97961 532.33266 239.77532 532.1875 237.71875 C 532.0967 236.28512 532.33882 235.36801 531.8125 234.03125 C 531.38304 232.96061 531.28738 231.84176 530.15625 231.59375 C 530.06816 231.57371 529.98216 231.56221 529.90625 231.5625 z M 692.40625 244.8125 C 692.41068 244.80683 692.43293 244.81814 692.4375 244.8125 C 692.38372 244.88131 692.31577 244.95892 692.28125 245.03125 C 692.31577 244.95892 692.35247 244.88131 692.40625 244.8125 z M 530.96875 251.9375 C 529.68033 251.9075 529.30452 253.06745 528.125 253.59375 C 526.60069 254.27115 525.66444 254.5766 524.03125 254.8125 C 522.29522 255.0787 520.78437 253.5664 519.5625 254.8125 C 518.76405 255.6472 518.15116 256.67635 518.75 257.65625 C 519.27021 258.51515 520.6068 257.65215 521.1875 258.46875 C 521.96175 259.52735 520.28426 260.41825 520.375 261.71875 C 520.4477 262.37205 520.47274 262.76915 520.78125 263.34375 C 521.41032 264.45675 523.19552 263.7903 523.625 265 C 523.95768 265.9074 523.36392 266.4818 523.21875 267.4375 C 523.53933 268.5444 523.54636 268.66425 523.625 269.46875 C 523.73392 270.41835 523.87905 270.99275 523.625 271.90625 C 523.37095 272.79535 522.54538 273.018 522.40625 273.9375 C 522.28531 274.7359 522.42538 275.25495 522.8125 275.96875 C 523.29641 276.85185 524.35379 276.7357 524.84375 277.625 C 525.23693 278.3327 524.77818 279.00285 525.25 279.65625 C 526.17547 280.95065 527.84262 280.24895 529.3125 279.65625 C 531.09088 278.94845 530.90006 276.86395 532.59375 275.96875 C 533.616 275.42435 534.63904 275.99185 535.4375 275.15625 C 536.54444 274.01295 535.54031 272.68465 535.4375 271.09375 C 535.3528 269.66015 535.01309 268.8711 535.03125 267.4375 C 535.05545 266.1612 535.35281 265.43255 535.4375 264.15625 C 535.625 261.94236 535.86617 260.65235 535.4375 258.46875 C 535.09271 256.64195 534.99806 255.4215 533.8125 254 C 532.92935 252.9475 532.34788 251.9799 530.96875 251.9375 z M 644.5625 257.84375 C 644.69921 257.94454 644.82489 258.01599 644.96875 258.125 C 644.92663 258.18395 644.88418 258.25245 644.84375 258.3125 L 644.5625 257.84375 z M 467.15625 268.5625 C 466.38599 268.6208 465.67029 268.85973 465 269.46875 C 464.31042 270.08575 463.66026 270.5805 463.78125 271.5 C 463.91439 272.6372 465.26303 272.5201 466.21875 273.125 C 467.00511 273.621 467.36081 274.07145 468.25 274.34375 C 469.31459 274.67035 470.13903 274.86395 471.125 274.34375 C 472.14121 273.81145 472.64112 273.04945 472.75 271.90625 C 472.85281 270.90805 472.61393 270.19455 471.90625 269.46875 C 471.10779 268.64605 470.21179 268.74695 469.0625 268.65625 C 468.66025 268.62295 468.30147 268.57735 467.9375 268.5625 C 467.66452 268.55137 467.413 268.54307 467.15625 268.5625 z M 454.375 276.34375 C 453.28552 276.3831 451.96875 277.1875 451.96875 277.1875 C 451.54534 278.4275 451.82553 279.57945 452.78125 280.46875 C 453.83375 281.44865 455.36079 281.8307 456.4375 280.875 C 457.07262 280.3004 457.30444 279.69655 457.25 278.84375 C 457.1714 277.50095 456.1251 276.6471 454.8125 276.375 C 454.67035 276.34475 454.53064 276.33813 454.375 276.34375 z M 590.375 285.71875 C 589.43809 285.82602 588.98496 286.91982 587.96875 287.375 C 586.30531 288.1009 585.29652 288.40015 583.5 288.59375 C 582.22974 288.73275 581.52633 288.67875 580.25 288.59375 C 578.9737 288.51475 578.24607 288.4596 577 288.1875 C 575.51804 287.8669 574.81867 286.87195 573.3125 286.96875 C 572.31443 287.03575 571.8549 287.59975 570.875 287.78125 C 569.62892 288.00505 568.90131 287.69625 567.625 287.78125 C 566.3487 287.86025 565.42145 287.4495 564.375 288.1875 C 563.02005 289.1492 562.85279 290.64195 563.125 292.28125 C 563.3125 293.33375 563.69147 293.90215 564.375 294.71875 C 565.69969 296.29145 567.52003 295.6309 569.25 296.75 C 570.67755 297.6633 570.81842 299.58775 572.5 299.59375 C 573.78237 299.59375 574.18943 297.47875 575.375 297.96875 C 576.58477 298.46475 575.14106 300.42635 576.1875 301.21875 C 577.19162 301.98685 578.34265 300.58955 579.4375 301.21875 C 580.43557 301.78735 580.23984 302.86385 581.0625 303.65625 C 582.96788 305.47085 585.24678 304.139 587.59375 305.3125 C 588.41639 305.7238 588.73581 306.33765 589.625 306.53125 C 591.09487 306.86395 592.33762 306.4863 593.28125 305.3125 C 594.3761 303.9514 594.39424 302.1553 593.28125 300.8125 C 592.39811 299.766 590.87103 300.63425 590 299.59375 C 589.35881 298.82555 589.01812 298.14825 589.1875 297.15625 C 589.36298 296.15205 590.16527 295.9054 590.8125 295.125 C 591.75613 293.9939 592.85177 293.68455 593.28125 292.28125 C 593.69257 290.90815 593.40725 289.93655 592.875 288.59375 C 592.37899 287.32345 592.15536 286.0041 590.8125 285.75 C 590.65598 285.72051 590.50884 285.70343 590.375 285.71875 z M 655.71875 288.9375 C 654.70764 288.92536 653.87106 289.08435 652.71875 289.40625 C 651.55737 289.73295 650.81863 289.8568 649.875 290.625 C 648.4898 291.7501 647.1058 293.09755 647.84375 294.71875 C 648.27323 295.63815 649.00396 295.82355 649.875 296.34375 C 651.04243 297.04535 652.10273 296.6673 653.125 297.5625 C 654.84288 299.0626 653.18854 301.2962 654.34375 303.25 C 654.85186 304.1211 655.04931 304.8648 655.96875 305.3125 C 657.2874 305.9476 658.3013 303.9435 659.65625 304.5 C 661.03538 305.0686 661.08866 306.3768 661.6875 307.75 C 662.09882 308.6694 661.56839 309.8125 662.5 310.1875 C 663.70372 310.6836 662.08457 307.3731 663.3125 306.9375 C 664.08071 306.6654 664.59973 307.03545 665.34375 307.34375 C 666.78943 307.94865 666.82046 310.9557 668.1875 310.1875 C 669.43962 309.4979 668.248 307.96485 668.1875 306.53125 C 668.1148 304.77705 668.11382 303.74905 667.78125 302.03125 C 667.46067 300.40405 665.35878 299.10585 666.5625 297.96875 C 667.48797 297.09765 669.05035 298.97885 669.8125 297.96875 C 670.67146 296.83155 668.97386 295.89815 668.1875 294.71875 C 667.26203 293.30325 666.86808 292.1754 665.34375 291.4375 C 664.03719 290.8144 663.09689 291.3767 661.6875 291.0625 C 659.67927 290.5906 658.86307 289.2359 656.8125 289 C 656.41327 288.95465 656.05579 288.94155 655.71875 288.9375 z M 681.40625 288.96875 C 681.1711 288.98301 680.95313 289.11138 680.8125 289.40625 C 680.45559 290.13215 680.74078 290.7963 681.21875 291.4375 C 681.89621 292.369 683.04127 291.79735 684.09375 292.28125 C 685.32773 292.86195 685.85476 295.1533 686.9375 294.3125 C 687.69965 293.7198 687.65224 292.7883 687.34375 291.875 C 686.87799 290.5321 685.41242 290.70875 684.09375 290.21875 C 683.16375 289.88305 682.1117 288.92596 681.40625 288.96875 z M 685.5 302.25 C 684.9125 302.22363 684.34582 302.6123 683.65625 302.84375 C 682.24686 303.30945 679.77113 303.514 680.40625 304.875 C 680.94461 306.0364 682.45857 305.7298 683.65625 305.3125 C 685.04749 304.8346 687.38316 303.1936 686.125 302.4375 C 685.91934 302.3135 685.69583 302.25879 685.5 302.25 z M 523.65625 303.65625 L 522.40625 304.5 C 522.9567 304.3791 523.36993 304.18055 523.78125 303.96875 C 523.73285 303.86595 523.7108 303.77115 523.65625 303.65625 z M 691.375 308.75 C 691.10885 308.71747 690.83571 308.76915 690.59375 308.96875 C 689.78925 309.59785 691.2207 310.8064 692.21875 311 C 693.07164 311.1633 694.12297 311.0341 694.25 310.1875 C 694.40736 309.2741 693.13819 309.16235 692.21875 308.96875 C 691.91631 308.89925 691.64115 308.78253 691.375 308.75 z "
       transform="translate(0,737.36217)"
       id="path4154" />
    <g
       id="Layer_7"
       transform="matrix(6.0488761,0,0,6.0488761,-1468.7823,510.64665)"
       style="fill:#cccccf;fill-opacity:0.94117647;stroke:none" />
    <g
       transform="matrix(0.96274034,0,0,0.95891415,0.61623241,33.421096)"
       id="g7207">
      <text
         transform="scale(1.005584,0.99444705)"
         xml:space="preserve"
         style="font-size:47.7367897px;font-style:normal;font-variant:normal;font-weight:normal;font-stretch:normal;line-height:125%;letter-spacing:0px;word-spacing:0px;fill:#000000;fill-opacity:1;stroke:none;font-family:Liberation Sans;-inkscape-font-specification:Sans"
         x="17.118286"
         y="828.99518"
         id="text7047"
         sodipodi:linespacing="125%"><tspan
           sodipodi:role="line"
           id="tspan7049"
           x="17.118286"
           y="828.99518"
           style="font-size:22.56557846px;fill:#999999;fill-opacity:1">One map for the whole of Europe</tspan></text>
      <text
         transform="scale(0.99951208,1.0004882)"
         xml:space="preserve"
         style="font-size:47.97657776px;font-style:normal;font-variant:normal;font-weight:normal;font-stretch:normal;line-height:125%;letter-spacing:0px;word-spacing:0px;fill:#77aa00;fill-opacity:1;stroke:none;font-family:Liberation Sans;-inkscape-font-specification:Sans"
         x="13.143422"
         y="803.47235"
         id="text7051"
         sodipodi:linespacing="125%"><tspan
           sodipodi:role="line"
           id="tspan7053"
           x="13.143422"
           y="803.47235"
           style="font-size:76.96242523px;font-weight:bold;-inkscape-font-specification:Liberation Sans Bold">MAP1.EU</tspan></text>
    </g>
  </g>
</svg>
