<?xml version="1.0" encoding="UTF-8" standalone="no"?>
<!-- Created with Inkscape (http://www.inkscape.org/) -->

<svg
   xmlns:dc="http://purl.org/dc/elements/1.1/"
   xmlns:cc="http://creativecommons.org/ns#"
   xmlns:rdf="http://www.w3.org/1999/02/22-rdf-syntax-ns#"
   xmlns:svg="http://www.w3.org/2000/svg"
   xmlns="http://www.w3.org/2000/svg"
   xmlns:sodipodi="http://sodipodi.sourceforge.net/DTD/sodipodi-0.dtd"
   xmlns:inkscape="http://www.inkscape.org/namespaces/inkscape"
   width="100"
   height="75"
   id="svg2"
   inkscape:label="Pozadí"
   version="1.1"
   inkscape:version="0.48.3.1 r9886"
   sodipodi:docname="logo_4_3_final.svg">
  <defs
     id="defs3" />
  <sodipodi:namedview
     id="base"
     pagecolor="#ffffff"
     bordercolor="#666666"
     borderopacity="1.0"
     inkscape:pageopacity="0.0"
     inkscape:pageshadow="2"
     inkscape:zoom="5.6"
     inkscape:cx="24.052565"
     inkscape:cy="23.928906"
     inkscape:document-units="px"
     inkscape:current-layer="layer1"
     showgrid="true"
     inkscape:window-width="1600"
     inkscape:window-height="1147"
     inkscape:window-x="0"
     inkscape:window-y="0"
     inkscape:window-maximized="1">
    <inkscape:grid
       type="xygrid"
       id="grid2984"
       empspacing="5"
       visible="true"
       enabled="true"
       snapvisiblegridlinesonly="true"
       spacingx="5px"
       spacingy="5px" />
  </sodipodi:namedview>
  <metadata
     id="metadata6">
    <rdf:RDF>
      <cc:Work
         rdf:about="">
        <dc:format>image/svg+xml</dc:format>
        <dc:type
           rdf:resource="http://purl.org/dc/dcmitype/StillImage" />
        <dc:title />
      </cc:Work>
    </rdf:RDF>
  </metadata>
  <g
     inkscape:label="Vrstva 1"
     inkscape:groupmode="layer"
     id="layer1"
     transform="translate(0,-977.36218)">
    <path
       style="fill:#bff000;fill-opacity:0;stroke:none"
       d="m 25,1006.5288 16.666666,0 0,-16.66662 16.666668,0 0,16.66662 16.666666,0 0,16.6667 -16.666666,0 0,16.6667 -16.666668,0 0,-16.6667 -16.666666,0 z"
       id="path2988"
       inkscape:connector-curvature="0" />
    <path
       style="fill:#77aa00;fill-opacity:1;stroke:none"
       d="m 25,977.36218 c -6.25,0 -12.5,6.25 -12.5,12.5 l 0,62.50002 62.5,0 c 6.25,0 12.5,-6.25 12.5,-12.5 l 0,-62.50002 z"
       id="path4349"
       inkscape:connector-curvature="0"
       sodipodi:nodetypes="sscsscs" />
    <path
       style="fill:#ffffff;fill-opacity:1;stroke:none"
       d="m 12.5,1033.6122 c 0,0 6.25,-12.5 12.5,-18.75 6.25,-6.25 25,-12.5 31.25,-18.75002 6.25,-6.25 12.5,-18.75 12.5,-18.75 l 18.75,0 0,18.75 c 0,0 -6.25,12.50002 -12.5,18.75002 -6.25,6.25 -25,12.5 -31.25,18.75 -6.25,6.25 -12.5,18.75 -12.5,18.75 l -18.75,0 z"
       id="path4351"
       inkscape:connector-curvature="0"
       sodipodi:nodetypes="czzccczzccc" />
  </g>
</svg>
