<?xml version="1.0" encoding="UTF-8" standalone="no"?>
<!-- Created with Inkscape (http://www.inkscape.org/) -->

<svg
   xmlns:dc="http://purl.org/dc/elements/1.1/"
   xmlns:cc="http://creativecommons.org/ns#"
   xmlns:rdf="http://www.w3.org/1999/02/22-rdf-syntax-ns#"
   xmlns:svg="http://www.w3.org/2000/svg"
   xmlns="http://www.w3.org/2000/svg"
   xmlns:sodipodi="http://sodipodi.sourceforge.net/DTD/sodipodi-0.dtd"
   xmlns:inkscape="http://www.inkscape.org/namespaces/inkscape"
   width="96"
   height="64"
   id="svg2"
   inkscape:label="Pozadí"
   version="1.1"
   inkscape:version="0.48.3.1 r9886"
   sodipodi:docname="logo_3_2_final.svg">
  <defs
     id="defs3" />
  <sodipodi:namedview
     id="base"
     pagecolor="#ffffff"
     bordercolor="#666666"
     borderopacity="1.0"
     inkscape:pageopacity="0.0"
     inkscape:pageshadow="2"
     inkscape:zoom="5.6"
     inkscape:cx="24.052565"
     inkscape:cy="23.928906"
     inkscape:document-units="px"
     inkscape:current-layer="layer1"
     showgrid="true"
     inkscape:window-width="1600"
     inkscape:window-height="1147"
     inkscape:window-x="0"
     inkscape:window-y="0"
     inkscape:window-maximized="1">
    <inkscape:grid
       type="xygrid"
       id="grid2984"
       empspacing="4"
       visible="true"
       enabled="true"
       snapvisiblegridlinesonly="true"
       spacingx="5.3333px"
       spacingy="5.3333px" />
  </sodipodi:namedview>
  <metadata
     id="metadata6">
    <rdf:RDF>
      <cc:Work
         rdf:about="">
        <dc:format>image/svg+xml</dc:format>
        <dc:type
           rdf:resource="http://purl.org/dc/dcmitype/StillImage" />
        <dc:title></dc:title>
      </cc:Work>
    </rdf:RDF>
  </metadata>
  <g
     inkscape:label="Vrstva 1"
     inkscape:groupmode="layer"
     id="layer1"
     transform="translate(0,-988.36218)">
    <path
       style="fill:#bff000;fill-opacity:0;stroke:none"
       d="m 26.6665,1013.2513 14.222133,0 0,-14.22212 14.222134,0 0,14.22212 14.222133,0 0,14.2221 -14.222133,0 0,14.2222 -14.222134,0 0,-14.2222 -14.222133,0 z"
       id="path2988"
       inkscape:connector-curvature="0" />
    <path
       style="fill:#77aa00;fill-opacity:1;stroke:none"
       d="m 26.6665,988.36258 c -5.3333,0 -10.6666,5.3333 -10.6666,10.6666 l 0,53.33302 53.333,0 c 5.3333,0 10.6666,-5.3333 10.6666,-10.6666 l 0,-53.33302 z"
       id="path4349"
       inkscape:connector-curvature="0"
       sodipodi:nodetypes="sscsscs" />
    <path
       style="fill:#ffffff;fill-opacity:1;stroke:none"
       d="m 15.9999,1036.3623 c 0,0 5.3333,-10.6666 10.6666,-15.9999 5.3333,-5.3333 21.3332,-10.6666 26.6665,-15.9999 5.3333,-5.33332 10.6666,-15.99992 10.6666,-15.99992 l 15.9999,0 0,15.99992 c 0,0 -5.3333,10.6666 -10.6666,15.9999 -5.3333,5.3333 -21.3332,10.6666 -26.6665,15.9999 -5.3333,5.3333 -10.6666,15.9999 -10.6666,15.9999 l -15.9999,0 z"
       id="path4351"
       inkscape:connector-curvature="0"
       sodipodi:nodetypes="czzccczzccc" />
  </g>
</svg>
