<?xml version="1.0" encoding="UTF-8" standalone="no"?>
<!-- Created with Inkscape (http://www.inkscape.org/) -->

<svg
   xmlns:dc="http://purl.org/dc/elements/1.1/"
   xmlns:cc="http://creativecommons.org/ns#"
   xmlns:rdf="http://www.w3.org/1999/02/22-rdf-syntax-ns#"
   xmlns:svg="http://www.w3.org/2000/svg"
   xmlns="http://www.w3.org/2000/svg"
   xmlns:sodipodi="http://sodipodi.sourceforge.net/DTD/sodipodi-0.dtd"
   xmlns:inkscape="http://www.inkscape.org/namespaces/inkscape"
   width="1252"
   height="626"
   id="svg2"
   inkscape:label="Pozadí"
   version="1.1"
   inkscape:version="0.48.3.1 r9886"
   sodipodi:docname="map1eu_logo_banner_twitter.svg"
   inkscape:export-filename="/home/klinger/current/projects/devel/my-map/logo/banner.png"
   inkscape:export-xdpi="90"
   inkscape:export-ydpi="90">
  <defs
     id="defs5679" />
  <sodipodi:namedview
     id="base"
     pagecolor="#ffffff"
     bordercolor="#666666"
     borderopacity="1.0"
     inkscape:pageopacity="0.0"
     inkscape:pageshadow="2"
     inkscape:zoom="0.7"
     inkscape:cx="717.17395"
     inkscape:cy="501.84658"
     inkscape:document-units="px"
     inkscape:current-layer="layer1"
     showgrid="true"
     inkscape:snap-grids="false"
     inkscape:snap-to-guides="false"
     inkscape:window-width="1600"
     inkscape:window-height="1147"
     inkscape:window-x="0"
     inkscape:window-y="0"
     inkscape:window-maximized="1"
     showguides="true"
     inkscape:guide-bbox="true"
     borderlayer="false"
     inkscape:showpageshadow="true"
     showborder="true"
     fit-margin-top="0"
     fit-margin-left="0"
     fit-margin-right="0"
     fit-margin-bottom="0">
    <inkscape:grid
       type="xygrid"
       id="grid5685"
       empspacing="5"
       visible="true"
       enabled="true"
       snapvisiblegridlinesonly="true"
       spacingx="85.1px"
       spacingy="31.5px"
       originx="-18.217882px"
       originy="83.188245px" />
    <sodipodi:guide
       orientation="1,0"
       position="-0.03513545,386.23401"
       id="guide7086" />
    <sodipodi:guide
       orientation="1,0"
       position="332.30505,344.81776"
       id="guide7088" />
  </sodipodi:namedview>
  <metadata
     id="metadata5682">
    <rdf:RDF>
      <cc:Work
         rdf:about="">
        <dc:format>image/svg+xml</dc:format>
        <dc:type
           rdf:resource="http://purl.org/dc/dcmitype/StillImage" />
        <dc:title></dc:title>
      </cc:Work>
    </rdf:RDF>
  </metadata>
  <g
     inkscape:label="Vrstva 1"
     inkscape:groupmode="layer"
     id="layer1"
     transform="translate(-18.217882,-509.55041)">
    <rect
       style="color:#000000;fill:#999999;fill-opacity:1;fill-rule:nonzero;stroke:none;stroke-width:1;marker:none;visibility:visible;display:inline;overflow:visible;enable-background:accumulate"
       id="rect8515"
       width="1251.4286"
       height="627.14288"
       x="1.4285715"
       y="1.7142854"
       transform="translate(18.217882,509.55041)" />
    <path
       style="fill:#444444;fill-opacity:1;stroke:none"
       d="m 601.49328,510.69756 c -0.12686,0.21169 -0.27744,0.42323 -0.49191,0.61489 -1.47586,1.30923 -2.89187,1.12268 -4.7962,1.59874 -4.26099,1.0474 -7.07495,-0.54555 -11.25264,0.79938 -2.64228,0.85697 -4.41918,1.22169 -6.39494,3.19745 -1.97576,1.97576 -1.15026,4.51427 -3.19747,6.39495 -1.55914,1.40445 -3.01284,1.38641 -4.85769,2.39808 -3.55878,1.94018 -4.80578,4.83385 -8.79305,5.59558 -3.08266,0.59511 -4.94669,-1.56109 -7.99368,-0.79938 -2.43995,0.60704 -4.08399,1.19782 -5.59556,3.1975 -2.09485,2.73751 -0.47802,6.05737 -0.79938,8.85452 0,0 -0.5018,5.84321 -0.79936,9.5924 -0.32128,3.76109 -2.38236,6.17646 -0.79938,9.59243 0.69032,1.41649 1.18607,2.31878 2.45959,3.25895 2.23764,1.69025 4.8952,-0.91453 7.13284,0.79938 2.60654,1.96398 2.95751,4.7683 2.3981,7.99366 -0.41658,2.4877 -1.74541,3.5247 -3.19747,5.59557 -1.6425,2.36866 -4.48676,2.71537 -4.7962,5.59558 -0.44041,3.95154 5.76801,3.56626 7.25577,7.2558 1.36877,3.47556 0,5.84332 0,9.59242 0,3.74931 -2.88033,7.20008 0,9.5924 2.6542,2.20205 5.50803,-1.82294 8.79307,-0.79936 3.61826,1.10693 3.99261,4.46889 7.19428,6.45642 2.60657,1.63073 4.20687,2.44761 7.19432,3.19748 5.16557,1.28555 8.42567,0.1647 13.65074,-0.79938 5.83209,-1.08309 8.8303,-2.79859 14.38861,-4.85769 4.73708,-1.74953 8.01718,-1.74922 12.052,-4.79621 2.13051,-1.59488 2.90378,-2.91554 4.79622,-4.7962 1.54729,-1.571 2.02107,-3.00894 3.99684,-3.99684 1.97577,-0.98788 3.61981,0.20037 5.59557,-0.79938 2.79704,-1.39243 3.35605,-3.60981 4.7962,-6.39492 1.38066,-2.61861 -0.1607,-5.7917 2.3981,-7.2558 3.65401,-2.08277 5.36527,4.04222 8.05517,7.2558 1.01172,1.21389 1.46971,1.94775 2.3981,3.19748 l 1.59874,0 c 1.27373,1.17417 2.42677,2.1202 3.25895,3.99682 1.1069,2.60672 -0.27374,4.55212 0.73788,7.19432 1.1307,2.92796 2.20355,4.76447 4.85769,6.39493 2.19006,1.357 4.41917,0.007 6.39494,1.66023 2.5114,2.09492 1.36258,4.89913 2.39812,7.99368 1.39253,4.13018 2.54478,6.27359 3.99682,10.39177 0.9641,2.78499 0.8865,4.70882 2.3981,7.25579 1.78534,3.04709 3.94508,3.8956 6.45644,6.39494 1.5711,1.5593 3.2113,1.93778 3.99684,3.99684 1.1545,3.05897 -2.90991,4.78009 -2.3981,7.99369 0.45225,2.91605 2.6519,3.83806 3.99684,6.45643 1.095,2.11872 1.64826,3.33424 2.39811,5.59557 0.98787,3.03517 -0.51985,5.61334 1.59872,7.99368 3.57067,4.04676 8.30465,-1.38654 13.58926,-2.3981 3.15408,-0.60703 6.2817,1.05545 8.05515,-1.59876 1.38067,-2.083 -0.35692,-3.91911 0,-6.39493 0.30926,-2.24948 0.31334,-3.76453 1.59873,-5.65707 1.47588,-2.23764 2.97711,-3.41352 5.5956,-3.99682 2.80889,-0.60701 4.42303,1.13459 7.25578,1.59874 2.77323,0.46418 4.46868,1.54934 7.1943,0.79934 4.05866,-1.09498 5.20665,-4.28015 7.19432,-7.99367 1.36877,-2.61836 1.7554,-4.30192 2.3981,-7.19432 0.74983,-3.36829 0.13293,-5.47429 0.79936,-8.85451 0.4761,-2.2256 1.03936,-3.38164 1.59875,-5.59557 0.77365,-3.09459 1.25354,-4.81566 1.59874,-7.99366 0.38088,-3.72539 -0.4523,-5.92851 0,-9.65392 0.45226,-3.83251 -0.24409,-6.77146 2.39809,-9.5924 2.46376,-2.67802 6.01984,-0.84084 8.79305,-3.19748 1.5116,-1.30923 1.41409,-3.17549 3.25895,-3.99684 2.70179,-1.21389 4.49249,3.61212 7.19431,2.3981 2.53515,-1.13072 2.38813,-3.70504 3.19747,-6.39494 0.78554,-2.71357 -0.80742,-4.93472 0.79937,-7.2558 1.44019,-2.05908 4.1911,-1.10268 5.59558,-3.19746 1.72579,-2.59456 1.82103,-5.45854 0,-7.99368 -1.90437,-2.65409 -5.43469,-0.37473 -7.99369,-2.39811 -2.29711,-1.83291 -1.93773,-4.2644 -3.99683,-6.39492 -1.84482,-1.94007 -3.05046,-3.39182 -5.65706,-4.05835 -3.08265,-0.77364 -5.13714,3.11241 -7.99368,1.66023 -2.99935,-1.54729 -3.11413,-4.69863 -3.19747,-8.05516 -0.0955,-2.57089 1.80108,-3.83584 1.59873,-6.39494 -0.2856,-3.20169 -2.43766,-4.37346 -3.99682,-7.19432 l 3.99682,-3.19744 c 0.3213,-1.89246 0.62281,-3.36993 0.86087,-4.85771 0.22632,-1.21402 0.45222,-2.43779 0.73787,-3.99685 l 3.19746,-6.39494 c 2.80892,-0.95216 5.13523,-0.27967 7.19434,-2.3981 1.66629,-1.69023 0.9361,-3.75085 2.45957,-5.59557 2.39233,-2.91605 5.54176,-2.04498 8.73155,-3.99683 1.35686,-0.81531 2.4408,-1.48422 3.44343,-2.21363 l -117.87596,0 c -0.0365,0.96645 -0.0148,1.906 -0.0616,3.01301 -0.0835,1.88051 -0.12193,3.32179 0,4.7962 -0.12193,-1.47441 -0.14477,-2.91569 -0.0618,-4.7962 0.0498,-1.10713 0.0758,-2.04646 0.12291,-3.01301 l -62.1047,0 z m 215.02987,0 c -0.21219,0.46403 -0.45645,0.9479 -0.79936,1.41426 -1.84484,2.48755 -4.59577,2.66773 -5.59558,5.59557 -1.14261,3.29702 0.28958,5.55565 1.59874,8.79304 1.10688,2.72565 2.2472,4.01463 3.99684,6.39494 1.95194,2.66622 4.94293,3.20704 5.65704,6.45644 0.77368,3.57066 -2.98517,5.13905 -3.25895,8.79304 -0.29763,4.53483 1.44985,7.01348 3.25895,11.19113 0.82132,1.92828 0.81514,3.47717 2.39812,4.85771 1.9282,1.70211 4.33596,0.0631 6.39487,1.59874 1.80931,1.34508 1.38849,3.43943 3.19748,4.7962 3.23741,2.42818 6.42847,-0.88077 10.39184,0 1.92812,0.41656 3.15574,0.62275 4.85775,1.59874 2.86835,1.65454 2.79852,4.58592 5.59555,6.39492 2.22569,1.4522 3.76454,2.00549 6.39495,2.39811 4.41574,0.65466 7.02742,-0.946 11.25254,-2.39811 4.63001,-1.59477 6.43029,-4.57192 11.19126,-5.59556 3.97536,-0.83313 6.39265,0.66652 10.39167,0 3.23741,-0.51179 4.88931,-1.61245 8.05523,-2.3981 3.10645,-0.77365 4.82769,-1.13456 7.99362,-1.59874 4.04684,-0.58319 6.32133,-0.69224 10.39184,-0.79936 2.2137,-0.0596 3.46712,-0.15463 5.657,0 2.1782,0.15462 3.39367,0.78744 5.5957,0.79936 0.001,0.002 0.0625,0 0.0625,0 0.94023,0.0131 1.79896,-0.28376 2.64405,-0.67639 3.2374,-1.49968 5.80948,-4.87773 8.54703,-2.52107 0.86892,0.73792 1.05329,1.61652 1.29122,2.52107 0.22643,0.78553 0.41655,1.57289 1.10685,2.27513 2.48762,2.54702 5.30569,1.74345 8.79302,2.3981 2.4638,0.4642 4.00461,0.29965 6.45641,0.79936 3.86823,0.79745 6.68826,0.51947 9.59243,3.19749 1.66636,1.5235 2.87607,2.5705 3.19748,4.7962 0.7023,4.59425 -6.56108,-3.72313 -11.19109,-3.99684 -4.46339,-0.27362 -7.08493,0.67228 -11.19109,2.3981 -3.76125,1.583 -5.39113,3.41745 -8.85464,5.59558 -2.48745,1.55914 -3.64557,3.01096 -6.39495,4.05832 -1.83281,0.70222 -3.42144,1.06315 -4.98066,1.2298 l 0.18436,0.36893 c 0.9404,2.82084 1.76725,4.30209 2.39807,7.19431 0.82126,3.67783 1.81112,5.97412 0.79941,9.59242 -0.20179,0.74605 -0.46009,1.38483 -0.73779,1.96766 0.2588,-0.57674 0.47093,-1.20884 0.67633,-1.96766 1.01171,-3.61815 0.023,-5.91454 -0.79941,-9.59242 -0.63082,-2.89212 -1.45783,-4.37337 -2.39806,-7.19431 l -0.18437,-0.36893 c -1.94011,0.20229 -3.85377,0.0455 -6.21042,-0.43045 -4.13015,-0.84504 -5.63104,-3.57208 -9.65389,-4.85767 -3.02314,-0.98789 -4.82768,-1.27723 -7.99378,-1.59874 -3.11827,-0.30964 -4.91099,-0.44037 -7.99361,0 -3.2374,0.4642 -4.81585,1.76728 -7.99377,2.3981 -3.40403,0.66653 -5.54559,-0.14066 -8.85448,0.79936 -2.29717,0.65465 -3.29853,1.82875 -5.59554,2.4596 -2.15438,0.58322 -3.45316,0.21598 -5.59555,0.79935 -2.28518,0.63083 -4.22874,0.48188 -5.65716,2.39812 -1.65436,2.24963 -0.9164,4.54027 0,7.19429 1.07119,3.15412 3.33616,4.01462 5.65716,6.39494 2.916,3.0114 5.16093,4.17317 7.99362,7.25582 1.69018,1.78544 3.06848,2.53493 3.99688,4.7962 0.54751,1.30926 0.54751,2.42378 0.3689,3.56641 -0.14296,1.36877 -0.53568,2.72537 -0.3689,4.42725 0.29758,3.17801 2.96941,5.08957 1.66028,7.99369 -1.11885,2.43981 -3.30051,2.6757 -5.65716,3.99684 -2.916,1.65443 -4.64907,3.46141 -7.99362,3.25895 -4.21346,-0.26197 -5.68657,-3.54039 -8.79302,-6.45643 -2.40431,-2.27329 -2.94344,-4.44296 -5.65716,-6.39493 -2.48746,-1.809 -4.12358,-3.30445 -7.1942,-3.19748 -3.22558,0.10697 -4.42116,2.36637 -7.19437,3.99685 -2.5351,1.49966 -4.75439,2.05675 -6.4564,3.99684 -5.59407,6.40335 -3.17333,7.24736 -7.99378,13.65071 -1.66619,2.27348 -0.0214,4.48074 0.79941,7.19432 0.77361,2.67803 2.26908,3.75254 3.19748,6.39497 0.29594,0.87583 0.58974,1.6442 0.79941,2.39806 l 0,0.12291 c 0.54751,2.02338 0.75176,3.82211 0.79941,6.33345 0.14296,4.11821 0.37695,6.79744 -1.59882,10.3918 -2.13056,3.892 -4.6867,5.45654 -8.79304,7.1943 -2.6304,1.13067 -4.9686,-0.22238 -7.1943,1.59875 -2.99939,2.43995 0.20865,6.80927 -2.3981,9.65389 l -0.79947,0.79937 c -0.0232,-0.002 -0.038,0.005 -0.0618,0 -2.49766,1.94965 -5.41734,1.34392 -8.79304,2.3981 -3.14218,0.97599 -4.81578,3.14805 -7.99367,2.3981 -2.1781,-0.52368 -3.95113,-1.1146 -4.7962,-3.19747 -0.59511,-1.42829 0.51177,-2.52095 0,-3.99684 -0.97599,-2.78501 -3.61181,-3.23498 -6.45643,-3.99684 -3.96343,-1.08311 -6.30934,1.12263 -10.39177,1.59874 -3.72542,0.44036 -5.88094,0.68036 -9.65392,0.79934 -2.18999,0.0713 -3.53649,-0.72599 -5.59556,0 -3.58256,1.28555 -2.34626,6.00613 -5.59556,7.9937 -3.77301,2.28523 -6.87265,0.33521 -11.25266,0.79937 -4.39191,0.4761 -7.32293,-0.51988 -11.19114,1.59873 -2.1662,1.1664 -2.71333,2.78282 -4.79621,3.99685 -3.07526,1.76234 -5.25053,2.54022 -8.79304,2.39808 -4.04674,-0.16665 -6.06937,-1.97332 -9.59242,-3.99682 -1.96385,-1.10691 -2.95333,-2.00727 -4.85768,-3.19747 -2.73754,-1.68999 -4.13543,-3.02086 -7.19432,-3.99684 -5.36788,-1.67822 -9.03459,-0.81938 -14.4501,0.79937 -2.91607,0.88075 -5.06379,0.98367 -7.1943,3.19747 -1.27355,1.32113 -1.00555,2.80672 -2.39812,3.99683 -1.96385,1.67834 -3.88357,2.17005 -6.39493,1.59873 -3.48734,-0.80934 -2.66961,-5.21852 -5.65707,-7.1943 -2.45186,-1.65431 -4.48062,-1.18392 -7.1943,-2.3981 -1.26165,-0.55938 -1.93587,-1.02741 -3.19748,-1.59873 -1.5473,-0.69033 -2.84231,-0.39663 -3.99683,-1.59875 -1.77345,-1.7971 0.67651,-4.40923 -0.79936,-6.45643 -1.88055,-2.65419 -6.0179,0.19638 -7.99368,-2.39808 -1.73774,-2.24965 -0.0495,-4.4687 -0.79938,-7.19431 -0.61894,-2.28512 -3.16182,-3.33416 -2.45959,-5.5956 0.63084,-1.90448 2.7491,-1.70968 4.05835,-3.19744 1.6901,-1.86855 1.7692,-3.56217 3.19746,-5.65707 0.89264,-1.29724 1.23168,-2.14998 2.39808,-3.19749 2.64233,-2.36844 6.55541,0.37512 8.79305,-2.39808 1.63057,-1.99948 2.62237,-4.03832 1.59874,-6.39496 -0.99976,-2.30915 -4.0007,-1.22159 -5.59556,-3.19746 -0.84504,-1.095 -1.18217,-1.86434 -1.59874,-3.19748 -1.10688,-3.63006 1.81296,-5.85694 1.59874,-9.65388 -0.14295,-2.86845 -0.11091,-4.71853 -1.59874,-7.19432 -1.13069,-1.89244 -1.79491,-3.50874 -3.99683,-3.99685 -3.20169,-0.71416 -4.24067,3.03672 -6.39496,5.59559 -1.4402,1.72592 -1.40026,3.43947 -3.19746,4.7962 -3.23742,2.44007 -6.43031,-0.66651 -10.45328,0 -3.90393,0.64273 -6.49981,0.81898 -9.65389,3.25897 -3.41592,2.67796 -4.10583,5.49816 -5.53408,9.59241 -1.57112,4.46334 -2.32479,7.31294 -1.59873,11.99048 0.41657,2.92798 1.02934,4.62542 2.39809,7.25582 1.44017,2.77319 3.35405,3.60992 4.73472,6.39494 1.74964,3.45174 1.0055,5.98605 2.39812,9.59241 1.03545,2.60644 1.99733,3.95696 3.25895,6.45643 2.17808,4.3681 5.03617,6.33514 5.59556,11.19115 0.38087,3.11849 0.89077,5.32768 -0.79936,7.99366 -1.40445,2.28523 -3.70312,2.11631 -5.59558,3.99684 -1.44012,1.40435 -1.1979,3.78272 -3.19748,3.99684 -1.97573,0.22595 -2.40192,-2.00735 -3.99682,-3.19746 -1.82101,-1.33318 -2.70143,-2.47157 -4.7962,-3.19748 -2.678,-0.9046 -4.40921,-0.21432 -7.19431,0 -2.21384,0.17867 -3.96695,-0.64081 -5.65707,0.79938 -1.72584,1.47573 0.13902,4.14348 -1.59874,5.59556 -2.42807,2.05908 -4.81578,-1.68017 -7.99366,-1.53723 -3.26121,0.14295 -5.02008,1.17215 -8.05518,2.39811 -2.58276,1.03547 -3.95301,1.74528 -6.33343,3.19745 -3.05887,1.85667 -4.22077,3.77451 -7.2558,5.59559 -3.49928,2.08285 -5.56947,3.43743 -9.59242,3.99682 -2.17811,0.29763 -3.99074,-1.42826 -5.65706,0 -1.69012,1.44019 -0.10714,3.477 -0.73788,5.59558 -0.92838,3.08267 -2.49914,4.43486 -4.05832,7.2558 -1.88058,3.42785 -4.332,4.90102 -4.7962,8.79304 -0.29763,2.49948 0.1446,3.95487 0.79936,6.39494 0.73795,2.98744 3.85207,4.18291 3.19746,7.1943 -1.05931,4.8917 -7.85244,0.75376 -12.85138,0.86086 -2.48755,0.0475 -3.95495,-0.58321 -6.39494,0 -4.13005,0.96409 -4.73436,5.10939 -8.79304,6.39494 -3.892,1.2258 -6.63065,-1.49982 -10.39177,0 -2.09477,0.83313 -3.53456,1.31683 -4.7962,3.19746 -1.60679,2.33287 -0.26391,4.40906 -0.79938,7.19432 -0.63085,3.2017 -1.01744,5.03002 -2.3981,7.99367 -1.42826,3.05876 -2.00114,5.45845 -4.85769,7.25581 -1.67821,1.05928 -2.89187,1.01553 -4.79621,1.59873 -3.39213,1.07121 -7.49569,-0.92265 -8.79304,2.3981 -0.9284,2.39235 1.56305,3.83596 1.59874,6.39494 0,1.91614 0.61698,3.53456 -0.79936,4.7962 -2.01146,1.77343 -3.75266,-2.04117 -6.39496,-2.3981 -2.80891,-0.36899 -4.43494,0.64462 -7.2558,0.79938 -2.8089,0.16667 -4.38538,0.22595 -7.1943,0 -2.20188,-0.17867 -3.58405,0.12899 -5.59556,-0.79938 -2.41614,-1.11883 -3.03472,-2.80853 -4.7962,-4.7962 -1.32119,-1.51158 -1.48555,-3.0328 -3.25898,-3.99684 -2.17809,-1.21407 -4.09781,-0.9879 -6.39494,0 -2.86843,1.23768 -4.72478,3.28835 -4.79618,6.39494 -0.0713,2.96354 2.85423,3.66924 3.99682,6.39494 0.88078,2.09483 1.25359,3.40752 1.59872,5.65706 0.35694,2.47555 1.73776,4.58566 0,6.39494 -1.53534,1.583 -3.41741,0.46612 -5.59554,0.79938 -1.88056,0.2856 -2.90377,0.72793 -4.79623,0.79936 -2.53516,0.10697 -4.12164,0.2837 -6.39492,-0.79936 -1.41636,-0.67842 -1.89021,-1.6484 -3.25898,-2.39812 -3.32067,-1.84484 -5.91464,-2.58647 -9.5924,-1.59874 -3.42787,0.91649 -3.8974,4.22684 -7.19432,5.59558 -4.87989,2.07101 -8.46134,-1.08309 -13.65074,0 -2.9041,0.61896 -7.14668,-0.56555 -7.19432,2.3981 -0.0253,2.01146 1.87633,2.50907 3.1975,3.99686 1.19019,1.30922 3.06655,1.42403 3.19746,3.19746 0.10697,1.39258 -1.3845,1.80502 -1.59874,3.19747 -0.46417,2.7494 0.76946,5.07577 3.19748,6.45643 2.16619,1.23771 3.95697,-0.2143 6.45644,0 3.1541,0.28562 4.8396,1.07517 7.99366,1.59874 2.16618,0.35693 3.45316,0.28756 5.59558,0.79936 3.27308,0.79745 5.28,1.19793 7.99367,3.19748 2.85655,2.11861 2.44349,5.65882 5.65707,7.1943 2.2733,1.09501 4.56198,-0.92647 6.39492,0.79936 2.28524,2.13049 -1.05931,5.06573 0,7.99369 0.84506,2.30889 2.14411,3.50086 3.7509,4.85769 0.57132,0.47608 1.20194,1.00351 1.84469,1.59873 1.76153,1.68999 2.71331,2.72344 4.7962,3.99684 2.02341,1.23798 3.86977,0.74373 5.59556,2.3981 2.96367,2.84479 1.04134,6.33312 1.66025,10.39178 0.61895,4.05867 1.50351,6.33512 1.59872,10.45326 0.0591,3.43977 -0.42046,5.3652 -0.86085,8.79306 -0.65461,5.04655 -0.96983,7.95968 -2.39812,12.85136 -1.41633,4.84431 -3.24889,7.18189 -4.7962,11.99052 -1.10688,3.38015 -0.33913,5.88877 -2.3981,8.7929 -2.49943,3.54692 -5.39095,4.60957 -9.59241,5.6571 -3.64208,0.90474 -5.90469,-0.17878 -9.6539,0 -3.45162,0.15446 -5.68653,2.29915 -8.79304,0.79941 -1.98767,-0.96406 -1.96156,-3.18943 -3.99682,-4.05834 -3.61832,-1.55922 -5.80949,2.426 -9.65392,3.25893 -5.21313,1.09485 -8.31655,1.62067 -13.58924,0.79941 -4.57044,-0.72596 -6.96785,-2.28485 -11.25264,-4.05834 -3.49923,-1.42826 -5.04383,-3.58011 -8.79304,-3.99694 -3.46354,-0.39275 -5.30567,1.30122 -8.79304,1.59877 -5.60591,0.50009 -8.82036,-0.68026 -14.45012,-0.79923 -3.43969,-0.0718 -5.44849,0.78553 -8.79302,0 -3.39214,-0.79747 -4.55593,-4.02048 -8.05518,-3.99689 -2.6542,0.024 -4.32398,0.71998 -6.39494,2.39812 -2.72557,2.20203 -0.96179,6.31726 -3.99685,8.0551 -2.71372,1.54722 -4.88715,-0.39272 -7.99366,0 -3.52303,0.42854 -6.29554,-0.0772 -8.85453,2.39823 -2.77322,2.7016 -3.12215,5.80755 -2.33661,9.5923 0.66655,3.32072 3.02274,4.31402 4.7962,7.1942 1.66631,2.74954 3.44935,4.09006 3.99684,7.25598 0.59511,3.52316 -1.24754,5.53179 -2.15215,8.79303 -0.0854,0 -0.15791,0 -0.24595,0 l 0,0.79941 c -0.73795,3.42785 -2.81279,5.50812 -1.59874,8.79287 1.13068,3.1304 5.38326,2.4418 6.39494,5.5959 0.98788,3.0349 -0.78935,4.9722 -1.59874,8.0549 -0.99976,3.8204 -1.60257,5.9859 -3.19746,9.5926 -2.39233,5.4034 -7.103,7.031 -8.05518,12.8512 -0.41656,2.4637 1.19024,4.1929 0,6.3949 -0.96407,1.7495 -2.74708,1.6263 -3.99682,3.1976 -1.48779,1.8567 -1.803,3.2864 -2.3981,5.5954 -0.91647,3.6302 -0.28564,5.9047 0,9.6541 0.17865,2.4994 -1.39065,5.1335 0.79934,6.3949 1.95199,1.1425 3.35797,-2.0986 5.59558,-1.5986 2.80893,0.6068 2.97716,3.4173 4.85769,5.5954 l 0.79937,10.3916 c -0.30962,3.7493 -0.6565,5.9045 -0.79937,9.6541 -0.14312,3.4513 -2.2733,6.2102 0,8.7928 2.08293,2.4045 4.87535,0.98 7.99369,1.5989 3.1303,0.6189 4.83958,2.0988 7.99366,1.5988 3.16599,-0.476 4.26637,-2.6758 7.19432,-3.9969 2.35664,-1.0712 3.68719,-2.1583 6.21049,-2.3368 -0.0937,-0.6039 -0.17119,-1.2107 -0.30748,-1.783 0.13984,0.582 0.27415,1.1681 0.36896,1.783 -0.0164,0 -0.0447,-0 -0.0618,0 0.0955,0.512 0.22236,0.9899 0.24597,1.5375 l 0,-1.5988 c 2.57091,-0.1429 4.06212,0.5275 6.39495,1.5988 2.43994,1.1189 4.41723,1.5926 5.59556,3.9968 1.10689,2.2493 -0.36897,3.9806 0,6.4564 0.33329,2.2495 0.50375,3.6078 1.59874,5.5955 1.92818,3.523 5.32757,3.4077 7.99368,6.395 1.80911,1.9996 1.40412,5.155 4.05832,5.5955 2.6423,0.4404 3.596,-2.1877 5.59556,-3.9967 2.14242,-1.9286 2.33246,-4.096 4.7962,-5.5955 2.72561,-1.6546 4.88719,-0.8966 7.9937,-1.5989 3.77298,-0.8331 5.83326,-1.7792 9.6539,-2.398 6.78424,-1.0712 10.70663,0.1907 17.58609,0 5.93925,-0.1675 9.32216,-0.3116 15.24946,-0.7994 5.64166,-0.4642 11.24647,3.0908 14.38862,-1.5987 1.11883,-1.6427 0.98179,-3.0008 1.66023,-4.8578 1.11878,-3.1779 0.98366,-5.4704 3.19746,-7.9936 1.92818,-2.2257 3.62174,-3.0091 6.39495,-3.9968 3.2493,-1.1664 5.3652,-0.3709 8.79302,-0.7995 2.19001,-0.2619 3.78646,0.4859 5.59559,-0.7992 2.1662,-1.5476 1.62645,-3.9095 2.45959,-6.4566 0.70223,-2.1542 1.32499,-3.2847 1.59874,-5.5341 0.23798,-1.8686 -0.90461,-3.227 0,-4.8577 1.40447,-2.523 4.39725,-0.9319 7.1943,-1.5987 2.51136,-0.5948 4.33589,-0.064 6.39495,-1.5986 1.79726,-1.345 1.53116,-3.2609 3.19746,-4.7962 2.26144,-2.083 5.57757,-0.591 7.25579,-3.1974 1.85675,-2.8924 1.7239,-6.5219 -0.79936,-8.8547 -1.70201,-1.5354 -3.88362,-0.1594 -5.65705,-1.5986 -2.93987,-2.4044 -1.9439,-5.8076 -1.59875,-9.5925 0.14295,-1.583 0.39469,-2.4615 0.79937,-3.9969 0.488,-1.7971 1.00363,-3.0226 1.59873,-4.4272 0.24997,-0.607 0.52562,-1.2178 0.79937,-1.9677 l 0.79938,0 c 0.61894,-3.7494 0.3491,-6.0714 1.59872,-9.6537 1.583,-4.4992 2.86198,-7.2616 6.45645,-10.392 3.38026,-2.9397 6.36881,-2.8442 10.39176,-4.7962 6.03444,-2.9401 9.88163,-4.0442 15.24948,-8.0552 2.6661,-1.98761 3.5265,-3.91753 6.39493,-5.59555 3.91585,-2.321 7.88235,-0.0789 11.19116,-3.19748 3.18982,-2.97548 3.91551,-6.04742 4.05832,-10.39168 0.0596,-2.11856 -0.72791,-3.67926 -1.53723,-5.22664 -0.78554,-1.54739 -1.55312,-3.09626 -1.66024,-5.22665 -0.21429,-4.47522 -0.60323,-7.82289 2.33661,-11.19109 2.48757,-2.83272 5.23628,-2.88991 8.85454,-3.99692 4.78471,-1.47575 7.76715,-1.80093 12.78988,-1.59882 3.7849,0.15446 6.2618,-0.13803 9.65392,1.59882 2.54705,1.32112 3.15559,3.28473 5.59556,4.79617 3.13028,1.90445 5.22239,2.41203 8.79305,3.19764 3.05886,0.66631 4.94869,1.23978 8.05515,0.79924 3.72543,-0.51169 5.51992,-2.11626 8.79305,-3.99688 3.6897,-2.1186 5.09143,-4.31192 8.79304,-6.39499 3.55875,-1.9756 5.80949,-2.64192 9.65389,-4.05818 3.70162,-1.3927 6.77162,-0.43625 9.59241,-3.19751 1.79724,-1.74957 2.53095,-3.15556 3.19749,-5.59568 0.63079,-2.42782 -1.47589,-4.38333 0,-6.3948 1.85674,-2.52334 4.86336,-1.085 7.99366,-0.7994 3.2612,0.30937 4.9725,1.33886 8.05517,2.39802 2.52329,0.86892 3.91929,1.46978 6.39494,2.39817 3.45166,1.26169 5.9246,0.93606 8.79303,3.19757 1.9401,1.51139 2.61816,2.82027 4.05833,4.79612 2.6899,3.73713 3.34609,6.43048 5.59559,10.45333 2.11861,3.78495 2.91756,6.17644 5.59556,9.5923 2.41616,3.14227 4.99242,3.88548 7.19432,7.1942 0.69032,1.04753 1.01555,2.17591 1.22979,3.25926 0.5237,2.67774 0.29149,5.32557 2.76705,7.1942 3.03503,2.28518 6.77356,-0.90079 9.6539,1.59866 2.32095,2.02358 1.12649,4.93301 3.19746,7.1942 2.34471,2.59492 4.91096,2.35468 7.99368,3.99705 2.85653,1.48758 4.42305,2.44962 7.2558,3.99672 3.41591,1.8925 5.09145,3.6554 8.79304,4.8578 5.07035,1.6423 9.49486,-2.6167 13.58923,0.7992 3.34453,2.7734 0.90432,7.3689 4.05835,10.3918 1.78537,1.7497 3.22702,2.3408 5.59557,3.1977 3.53498,1.2736 5.86704,0.2875 9.5924,0.7992 1.90437,0.262 3.28465,-0.3667 4.79622,0.7994 2.43997,1.9283 -1.14259,5.1391 0,8.0551 1.74963,4.6062 6.73981,3.957 10.45326,7.1944 2.33283,2.0351 3.48887,3.3342 5.59556,5.5955 1.95199,2.1304 3.5108,3.025 4.79622,5.5957 1.42826,2.8444 1.30119,4.8274 1.59875,7.9935 0.24995,2.7972 2.13051,5.4468 0,7.256 -1.45206,1.2378 -3.29656,-0.3435 -4.79623,0.7992 -2.05908,1.5594 -1.01554,3.8955 -1.59874,6.395 -0.72602,3.1186 -2.46762,4.9346 -1.59872,7.9936 1.13073,3.8444 4.00647,6.1688 7.99369,6.3949 0,0 3.4075,-5.3771 5.65705,-8.793 1.83294,-2.8207 2.98505,-4.3142 4.73471,-7.1944 1.67821,-2.7613 1.21374,-5.6948 4.05833,-7.1942 1.66631,-0.9047 3.09419,0.058 4.79622,-0.7995 4.76087,-2.404 4.64568,-9.2706 1.59872,-13.6505 -1.55921,-2.202 -3.21514,-2.7591 -5.59558,-3.9969 -2.65416,-1.3566 -5.65894,0.1364 -7.1943,-2.398 -0.83318,-1.3567 -0.79938,-2.3902 -0.79938,-3.9969 0,-1.5949 0.16864,-2.4375 0.79938,-3.9969 1.96384,-1.0116 2.97328,-2.0943 3.99684,-4.0582 1.13074,-2.2378 -1.2002,-4.8359 0.79936,-6.3949 1.23783,-0.9763 2.39002,-0.9304 3.99684,-0.7995 2.08289,0.1907 2.97519,1.4104 4.79621,2.3979 3.23741,1.7262 6.52968,1.4636 7.99366,4.7965 0.99979,2.297 -1.40446,4.3973 0,6.4563 1.04741,1.4999 2.23531,2.041 3.99684,2.398 3.59446,0.7143 5.23436,-3.5463 8.05517,-4.7961 -0.33327,-2.8207 0.48607,-4.7322 -0.79936,-7.2558 -1.86867,-3.6303 -5.36718,-3.4888 -8.85453,-5.5954 -3.68971,-2.2617 -5.85512,-3.3342 -9.59243,-5.5957 -2.51132,-1.5236 -3.88356,-2.4614 -6.39492,-3.9969 -4.92749,-2.9517 -7.54299,-5.0301 -12.85138,-7.2557 -3.61827,-1.5355 -8.35456,0.5397 -9.59242,-3.1976 -0.95214,-2.80887 2.81467,-4.25405 2.3981,-7.19437 -0.29761,-2.07091 -0.95791,-3.27241 -2.3981,-4.79597 -2.68986,-2.80903 -5.83331,-1.75542 -9.65388,-2.39823 -5.21318,-0.88059 -8.45939,0.54554 -13.58926,-0.79941 -3.27311,-0.85692 -5.36525,-1.1619 -8.05516,-3.19732 -1.90437,-1.45208 -2.95342,-3.04696 -3.75087,-4.79613 -0.88077,-1.92828 -1.51336,-4.08808 -2.64407,-6.45657 -1.78532,-3.65379 -2.09247,-5.99813 -3.99684,-9.59243 -2.11857,-3.98723 -3.88357,-5.91666 -6.39494,-9.65392 -3.39214,-5.03458 -3.40133,-10.04038 -8.79305,-12.78986 -3.40399,-1.71391 -6.29746,0.17477 -9.6539,-1.59863 -2.17811,-1.1545 -3.33222,-2.0569 -4.7962,-3.99695 -3.96345,-5.22491 0,-10.28988 0,-16.84815 0,-3.74905 -2.39235,-6.71193 0,-9.59242 2.07097,-2.52324 5.19666,-0.75563 7.99369,-2.3981 3.05886,-1.77342 2.92147,-6.19447 6.45641,-6.45644 2.78515,-0.21429 4.45491,1.2356 6.39496,3.25898 3.66591,3.85643 -1.15262,8.62614 0.79936,13.58926 0.89267,2.3328 1.22169,4.0246 3.19747,5.59556 2.95176,2.33283 6.70214,-1.54534 9.65389,0.79937 1.97578,1.57124 0.85273,4.6078 3.19748,5.59555 3.45166,1.47601 4.14732,-8.60863 7.19431,-6.39492 2.55897,1.83294 -1.19024,5.16304 0,8.05516 0.92835,2.24965 2.88994,2.63007 3.99684,4.79615 1.30928,2.55923 0.39657,4.57613 1.59872,7.19437 2.98745,6.54622 9.08411,6.71399 15.24948,10.39166 2.77323,1.63086 4.34965,2.48729 7.1943,4.05834 3.43975,1.88063 5.05771,3.85607 8.85454,4.79633 3.6183,0.9164 6.15267,-1.52343 9.5924,0 3.42785,1.53539 4.03831,4.25454 6.39496,7.1942 3.08265,3.86839 2.98089,7.83488 7.1943,10.45346 l 3.44342,-6.27204 -0.24595,0.61488 c 0.95123,-1.41216 1.64207,-2.5964 2.3366,-3.7509 0.48097,-0.79958 0.93403,-1.59587 1.59875,-2.39824 0.28505,-0.34391 0.50377,-0.68816 0.86087,-1.04523 0.0131,-0.0164 0.0503,0.0164 0.0618,0 -0.29906,0.2989 -0.62043,0.64643 -0.92235,1.04523 -0.52837,0.69803 -1.074,1.50894 -1.59874,2.39824 -1.57422,2.66771 -3.07797,5.89657 -4.3043,7.74762 l -1.22979,1.66044 c 3.02317,1.8803 5.5219,1.12443 8.85453,2.3979 4.29672,1.64237 6.19028,3.76257 10.39177,5.59555 2.45182,1.05936 4.06219,1.13643 6.39502,2.39823 1.58288,0.82126 3.02872,1.43976 4.24271,2.2137 1.21415,0.79727 2.21354,1.77497 2.95149,3.38168 1.57122,3.42769 -0.66845,5.84337 -0.79924,9.59257 -0.10681,3.1301 0,4.9368 0,8.0551 0,4.7011 0.33324,7.3248 0,11.9907 -0.17878,2.8325 -1.67819,4.5775 -0.73796,7.2556 1.19016,3.3564 5.6708,2.3821 7.19437,5.5956 1.08302,2.2615 0.18025,3.9313 0.79924,6.3949 0.50002,2.0234 0.35099,3.836 1.29138,5.2883 0.26193,0.3927 0.62869,0.7614 1.04523,1.1068 2.02342,1.5233 4.12375,-0.1771 6.45641,0.7991 2.65424,1.107 3.79839,2.523 5.59571,4.7963 1.09502,1.4404 1.46967,2.4871 2.39807,4.0583 2.22569,3.7255 2.03673,7.093 5.59554,9.5923 2.43997,1.7019 4.5283,1.0891 7.19437,2.3982 1.64253,0.7975 2.32051,1.7793 4.05834,2.3981 3.79675,1.4166 6.30934,-0.6564 10.39168,-0.7992 3.43984,-0.1183 5.41282,-0.4048 8.79302,0 2.85668,0.3454 4.46881,0.6704 7.19436,1.5986 3.29689,1.1309 6.26991,0.9858 8.05523,3.9969 1.27347,2.1781 -1.17652,4.909 0.79925,6.4564 1.24981,0.9759 2.39018,0.7994 3.99689,0.7994 1.60687,0 2.40201,-0.9422 3.99688,-0.7994 3.34455,0.2979 3.29049,4.5835 6.45641,5.5956 2.39232,0.7496 4.27623,1.3328 6.39496,0 2.51128,-1.5832 2.99323,-4.3021 2.39806,-7.1944 -0.45236,-2.2139 -1.70973,-3.1677 -3.19747,-4.8576 -1.59488,-1.8095 -2.82234,-2.6279 -4.85776,-3.9969 -2.84452,-1.9756 -4.86334,-2.4496 -7.99361,-3.9969 l 12.05196,2.3983 c 1.58304,-0.9283 3.16379,-0.7916 3.99688,-2.3983 1.26164,-2.4876 -1.29302,-4.3358 -3.19747,-6.3949 -2.15422,-2.3687 -4.44482,-2.3544 -7.19437,-3.9966 -2.55893,-1.4997 -3.46696,-3.9987 -6.39479,-4.0585 -2.39248,-0.046 -3.27668,2.6263 -5.65716,2.4597 -2.66607,-0.2024 -4.96473,-1.4518 -5.59554,-4.0583 -0.71413,-2.8687 4.24681,-3.4552 3.99688,-6.3948 -0.25009,-2.8684 -2.82053,-3.5248 -4.79629,-5.5957 -2.33284,-2.4282 -4.05013,-3.6834 -6.39496,-5.7188 0,-1.7853 -0.0953,-2.8519 0,-4.6731 0.17878,-4.725 -3.15015,-11.802 1.59882,-12.0519 3.73727,-0.2023 3.27652,5.0756 6.39496,7.1942 1.73767,1.1783 3.32022,0.9105 4.79613,2.3982 1.48774,1.4877 0.35115,4.465 2.39807,4.8576 1.97576,0.3689 2.35435,-2.0548 3.99688,-3.1975 2.64225,-1.845 6.41073,-0.9516 7.25582,-4.0583 0.59517,-2.2019 -1.94389,-3.3581 -1.59882,-5.5954 0.3454,-2.2257 1.42415,-3.392 3.19748,-4.7963 2.74954,-2.1784 5.37716,-0.9442 8.79319,-1.5987 3.13027,-0.5955 4.86531,-1.932 8.05506,-1.5988 2.64225,0.2858 3.80036,1.7676 6.39496,2.3981 3.05895,0.7499 5.48232,-1.0572 7.99361,0.7994 2.23769,1.6543 0.94795,4.7404 3.19747,6.3949 2.52328,1.8687 4.85151,0.9301 7.99378,0.7995 4.16581,-0.1673 6.53742,-0.9937 10.4533,-2.3981 3.95153,-1.4166 6.30737,-2.1779 9.59243,-4.7963 1.72567,-1.3806 1.97346,-3.0922 3.99672,-3.9969 2.28518,-1.0115 3.95696,0 6.45642,0 3.4398,0 5.3653,0.2501 8.793,0 2.4996,-0.1791 3.9213,-0.8946 6.4566,-0.7994 1.8804,0.082 2.8779,0.4902 4.7347,0.7994 l 0.7994,-3.1975 c -1.3213,-0.7974 0.7379,-2.6657 0,-4.0583 -1.1665,-2.2854 -3.9075,-0.8724 -6.395,-1.5987 -2.8447,-0.8214 -4.4925,-1.1724 -7.1943,-2.3982 -2.2852,-1.0474 -3.6555,-1.5785 -5.5956,-3.19732 -1.85679,-1.58305 -2.75906,-2.67741 -3.99688,-4.7963 -1.11868,-1.92795 -1.06905,-3.84998 -1.04539,-5.71862 0.0164,-1.86863 -0.0214,-3.68714 -1.35267,-5.47247 -1.46392,-1.9521 -3.58215,-1.90231 -4.7963,-3.99672 -2.04708,-3.52332 -0.0838,-6.47793 0.73795,-10.45346 1.0712,-4.93926 0.53716,-9.36012 4.85776,-11.99053 1.93994,-1.19016 3.85787,-0.19603 5.59553,-1.66011 1.4044,-1.15467 1.7316,-2.29488 2.3981,-3.99699 1.0235,-2.63035 0.8112,-4.36126 0.7994,-7.19412 l 0.062,0 c -0.048,-3.78486 -1.5273,-5.78359 -1.5988,-9.59253 -0.1314,-4.41552 -1.7934,-8.40782 1.5988,-11.25256 2.4162,-2.04721 4.8754,-0.9679 7.9936,-1.59875 3.1065,-0.61887 7.9938,-1.59872 7.9938,-1.59872 0.1315,-2.55897 0.2261,-4.49443 0.3689,-6.51793 0.1315,0.0365 0.2757,0.0751 0.4304,0.12291 l -0.3689,-0.5534 c 0.084,-1.27353 0.2022,-2.63588 0.3689,-4.2428 0.262,-2.82081 -0.6884,-4.79004 0.7994,-7.1943 1.6902,-2.73737 4.8853,-1.82073 7.1943,-4.05833 2.0828,-2.05909 1.9497,-4.27636 3.9968,-6.39494 1.8568,-1.95199 4.1198,-1.75921 5.5957,-3.99685 1.2853,-1.90422 -0.079,-4.06018 1.5986,-5.59556 1.8567,-1.70216 4.443,-2.4062 6.395,-0.79936 1.0712,0.89264 0.6842,2.18588 1.6603,3.19746 1.5828,1.61882 3.6077,0.47994 5.5955,1.59874 2.2852,1.29749 2.4991,3.49887 4.7961,4.79621 1.9758,1.11877 3.4433,0.95603 5.6572,1.59873 3.1183,0.90459 4.7205,2.2672 7.9936,2.39809 3.2136,0.15463 4.8395,-1.24164 7.9936,-1.59873 4.3563,-0.49988 10.4909,-4.30846 11.2527,0 0.6188,3.71353 -4.0779,4.39537 -7.2558,6.39495 -1.7853,1.09499 -2.9513,1.4718 -4.7961,2.45959 -2.2257,1.17831 -3.7864,1.41214 -5.5957,3.19746 -1.7734,1.77344 -3.9711,3.19133 -3.1974,5.59558 0.8211,2.53529 3.7764,1.76729 6.3948,2.3981 3.0472,0.74986 4.9707,-0.0345 7.9938,0.79936 2.2852,0.64275 4.084,0.55324 5.5956,2.39811 1.7973,2.19001 0.1825,4.4449 0.8608,7.19432 0.7498,3.27309 0.5553,5.96049 3.1975,8.05513 2.9398,2.33288 6.2479,2.53731 9.5924,0.79931 3.4635,-1.82096 1.2017,-7.30718 4.7962,-8.85444 3.5469,-1.5354 6.2975,4.35006 9.6539,2.3981 1.7378,-0.99978 1.924,-2.43765 3.1974,-3.99686 1.845,-2.22569 1.9635,-4.97654 4.7963,-5.59556 2.2019,-0.48797 3.5007,0.72986 5.5956,1.59874 2.3328,0.95213 3.0961,2.78101 5.5955,3.19746 2.2019,0.36896 3.7171,0.27193 5.657,-0.79938 2.3448,-1.28541 4.1755,-2.90563 3.9969,-5.59556 -0.2259,-3.36832 -3.8973,-4.10586 -7.1944,-4.7962 -1.8089,-0.39277 -2.9513,-0.10697 -4.7961,0 -3.7967,0.20231 -5.869,2.14635 -9.6539,1.59874 -2.6422,-0.38089 -4.2049,-0.89841 -6.3949,-2.39811 -2.3805,-1.6424 -3.1062,-3.27451 -4.7962,-5.59556 -1.7496,-2.36844 -1.7117,-4.62352 -3.9969,-6.45643 -2.1067,-1.64253 -5.8712,0.22032 -6.3949,-2.39812 -0.6427,-3.01138 4.4925,-1.75728 7.1944,-3.19746 2.6065,-1.40436 4.2643,-1.96143 6.3949,-3.99685 1.9281,-1.86865 1.7949,-4.06015 3.9967,-5.59556 3.3327,-2.33296 6.3332,-0.47802 10.3919,-0.79936 3.7491,-0.29765 5.9046,-0.3352 9.6539,-0.79938 3.761,-0.4642 6.2955,0.32934 9.5924,-1.59874 2.2613,-1.34496 2.6181,-3.34623 4.7961,-4.85769 1.714,-1.19032 2.7967,-1.79122 4.7963,-2.39809 3.2849,-0.97599 6.4384,-2.42819 8.8545,0 2.4161,2.43995 0.488,5.45049 0,8.85452 -0.3569,2.55898 -1.0155,3.88361 -1.5987,6.39494 -1.0713,4.65378 -2.053,7.22961 -2.3982,11.99051 -0.1903,2.80892 0.8809,4.57782 0,7.25581 -0.8449,2.54705 -1.7612,4.2149 -4.0583,5.59557 -2.428,1.46397 -5.9802,-1.77152 -7.1942,0.79936 -0.7856,1.7139 -0.057,3.09419 0.7994,4.79622 1.1187,2.1662 2.8103,2.63998 4.8576,3.99682 3.1302,2.0948 5.1867,2.81853 8.793,3.99684 2.4281,0.82128 4.0979,0.49379 6.3949,1.66023 2.5828,1.28543 3.1676,3.23699 5.5956,4.79618 4.1658,2.64238 8.2552,0.83083 12.0521,3.99679 2.4041,1.99967 2.8324,3.95502 4.7961,6.39497 1.5116,1.91628 2.3662,2.98723 3.9969,4.79618 1.94,2.15435 3.2986,3.27474 5.2267,5.22673 0.1544,0.14345 0.2617,0.22583 0.3689,0.36895 3.2255,3.34454 3.7108,7.23593 8.0552,8.85464 1.4877,0.54741 2.4257,0.45408 3.9967,0.79931 2.2972,0.51169 3.9471,0.81716 5.7801,1.35284 l 2.2137,-0.55359 c 2.4994,-1.57112 3.6097,-3.12788 6.3949,-3.99696 3.2969,-1.02337 5.377,-0.0723 8.7931,0 5.3559,0.13146 8.6755,-1.08121 13.6506,0.79958 4.7609,1.82081 6.7042,4.48251 10.4533,7.99367 2.2546,2.10525 3.4686,4.53323 4.6732,6.82531 l 0,-462.52635 -305.72722,0 c 0.18486,0.24051 0.32617,0.51594 0.55342,0.73787 -0.25453,-0.24491 -0.47899,-0.47547 -0.6765,-0.73787 l -150.03511,0 z m 159.56615,8.23963 c -0.0164,0.34469 0,0.69194 -0.0608,1.04533 -0.0164,0.0619 -0.0493,0.12225 -0.0624,0.18436 0.0739,-0.40937 0.10681,-0.83071 0.12324,-1.22979 z m -631.19298,6.88686 c -0.41137,0.0361 -0.80332,0.21223 -1.10682,0.67638 -1.13072,1.76155 1.61254,2.86792 2.3981,4.7962 0.74982,1.83294 0.20819,3.50087 1.66021,4.85769 2.04722,1.91641 4.70676,1.3094 7.1943,0 1.55922,-0.83312 2.84041,-1.53313 3.19749,-3.25895 0.44036,-2.21383 -1.29313,-3.59408 -3.19749,-4.7962 -1.88053,-1.16642 -3.40554,-0.48992 -5.59556,-0.79936 -1.6425,-0.24096 -3.31613,-1.58453 -4.55023,-1.47576 z m 322.32957,5.10365 c 0.36395,0.83798 0.76762,1.73452 1.10682,2.76705 0.2143,0.55939 0.32343,1.09884 0.43043,1.59873 -0.12636,-0.51755 -0.29627,-1.02291 -0.49192,-1.59873 -0.3392,-1.03253 -0.68138,-1.92907 -1.04533,-2.76705 z m 294.35177,5.22662 c 0.0164,-0.0131 0.0509,0.0131 0.0624,0 -2.0949,2.33283 -2.84435,3.96688 -4.7963,6.39495 -1.05328,1.29138 -1.8213,2.36133 -2.64405,3.38196 0.82275,-1.02063 1.52932,-2.09064 2.5826,-3.38196 1.95194,-2.42805 2.71323,-4.06197 4.7963,-6.39495 z M 671.96062,556.8764 c 0.0131,-0.0131 0.0503,0.0131 0.0618,0 -0.10565,0.1165 -0.22709,0.2856 -0.30747,0.43043 -0.0803,0.14476 -0.1331,0.25264 -0.18437,0.43043 -0.0611,0.2135 -0.1119,0.42404 -0.12291,0.6149 0.0131,-0.19086 5e-4,-0.4014 0.0618,-0.6149 0.0513,-0.17768 0.16566,-0.28562 0.24595,-0.43043 0.0802,-0.14476 0.14049,-0.31418 0.24595,-0.43043 z m -227.20487,4.30429 c -1.01019,0.01 -2.00723,0.16667 -3.19746,0.55341 -1.73773,0.55939 -2.97321,0.94802 -3.99683,2.45959 -1.29732,1.91638 -1.15579,4.03632 -0.0618,5.9645 0.24996,0.41657 0.53949,0.83714 0.86087,1.2298 2.36854,2.91603 6.24785,2.51343 9.5924,0.79938 2.79701,-1.42825 5.59564,-3.35986 4.8577,-6.39494 -0.55941,-2.38032 -2.54867,-3.22507 -4.8577,-4.05833 -1.17237,-0.42849 -2.18727,-0.56383 -3.19747,-0.55341 z m 232.18553,3.19746 c 0.0886,0.19401 0.19322,0.39769 0.24597,0.6149 0.11732,0.51626 0.14394,0.99571 0.18437,1.47578 -0.0416,-0.48009 -0.12686,-0.95952 -0.24597,-1.47578 -0.0519,-0.21721 -0.0966,-0.4208 -0.18437,-0.6149 z m 123.96347,2.89002 c -3.59613,-0.0569 -9.08481,4.74503 -6.76388,7.31729 1.52347,1.69025 3.36985,2.00341 5.59556,1.59874 1.77341,-0.32127 3.10416,-0.80322 3.99686,-2.39811 1.05928,-1.92813 0.59317,-3.89345 -0.79938,-5.59556 -0.51106,-0.61592 -1.1993,-0.90926 -2.02916,-0.92236 z m -139.33592,15.92587 c -0.1881,0.27407 -0.3248,0.597 -0.43042,0.98384 -0.0611,0.22689 -0.12127,0.47726 -0.12291,0.67638 0.002,-0.19912 5.1e-4,-0.44949 0.0618,-0.67638 0.10566,-0.38684 0.30343,-0.70977 0.49194,-0.98384 z m -243.93006,8.05518 c -1.40708,-0.0396 -2.60228,0.30547 -4.11985,0.98382 -1.83289,0.82124 -3.77068,1.1979 -3.99682,3.19746 -0.21432,1.98783 1.3645,3.21142 3.19748,3.99684 2.03526,0.86889 3.48888,-0.1091 5.59554,-0.79936 2.78512,-0.92838 6.8849,-1.08075 6.45644,-3.99684 -0.39277,-2.48744 -3.18139,-2.78078 -5.65706,-3.19747 -0.54153,-0.0922 -1.00672,-0.17119 -1.47573,-0.18435 z m 430.9205,1.72171 c -0.22446,-0.0148 -0.48194,0.0148 -0.73779,0.0618 -1.53539,0.2736 -2.06877,1.36263 -3.25893,2.39811 -2.15438,1.89245 -2.52098,0.4657 -4.73468,5.59556 -0.11831,0.29762 2.2096,1.53132 2.45952,1.72173 4.7728,3.89202 1.90397,2.06084 5.53409,2.27511 2.95182,0.17867 5.32557,-0.11272 7.19437,-2.3981 1.23781,-1.53528 2.31278,-2.96327 1.59865,-4.79621 -0.71412,-1.68999 -2.40201,-1.5291 -3.99688,-2.39809 -1.61411,-0.89566 -2.48614,-2.36356 -4.05835,-2.45962 z m 13.46641,11.92901 c -0.9703,0.071 -1.84365,0.67236 -3.01311,0.92236 -3.78492,0.80933 -5.75986,1.77919 -9.59243,2.3981 -3.71344,0.6189 -6.05942,-0.23593 -9.65389,0.79936 -2.309,0.65464 -4.92906,0.11288 -5.59554,2.3981 -0.58317,2.0115 1.48166,2.97716 2.39807,4.8577 1.28546,2.4996 0.81912,5.01427 3.25909,6.39494 2.15422,1.23793 4.12161,1.02356 6.39496,0 2.04708,-0.89268 2.28288,-2.59224 3.99672,-3.99684 2.24952,-1.86852 3.70506,-2.7609 6.39495,-4.05833 2.39248,-1.16641 4.82391,-0.23183 6.39496,-2.39809 1.63053,-2.28528 2.61858,-6.19442 0,-7.19432 -0.3689,-0.13984 -0.6604,-0.14674 -0.98378,-0.12291 z m -481.21932,2.09066 c -0.89163,0.083 -1.71434,0.42638 -2.52109,1.2298 -2.26142,2.26155 0.0677,5.32962 -1.59874,8.05516 -1.15452,1.88055 -2.12816,2.83055 -3.99682,3.99684 -1.42828,0.88078 -2.47533,1.03936 -4.05833,1.59872 -2.14242,0.74987 -3.41748,0.9203 -5.59558,1.59876 -2.42802,0.7379 -4.20894,0.72379 -6.14898,1.78318 0.94025,-1.09497 1.88031,-2.2511 2.95151,-3.38194 2.17812,-2.24936 4.23679,-3.37361 4.79621,-6.45642 0.38083,-2.16622 0.40275,-3.7387 -0.79938,-5.59558 -2.39233,-3.66587 -7.14437,-1.65441 -11.19113,0 -2.48756,1.02361 -3.75072,2.03313 -5.59558,3.99685 -2.18999,2.35676 -3.93929,4.04234 -4.05833,7.25579 -0.0833,2.67815 0.35076,4.68105 2.3981,6.39494 1.29733,1.07119 2.40395,1.34892 4.05833,1.59874 1.47589,0.21432 2.66778,-0.079 3.75087,-0.6149 -1.15445,1.48776 -1.9022,3.16172 -2.15213,5.41111 -0.33329,2.85654 -0.44848,5.22065 1.59874,7.25579 2.66607,2.63041 6.9144,-2.64228 9.5924,0 2.0353,2.02349 -0.0215,4.80208 1.59873,7.1943 1.49969,2.21383 4.3954,1.6165 5.65707,3.99684 1.30923,2.48768 0,4.38537 0,7.19431 0,3.13026 -2.45186,6.0417 0,7.9937 1.95197,1.57118 3.89549,-0.17867 6.39494,0 2.2019,0.16665 3.88163,-0.5436 5.59557,0.86083 1.99958,1.61868 0.67038,3.99069 1.59873,6.39494 0.73795,1.964 2.2672,2.70153 2.39811,4.79621 0.22632,3.97546 -5.18281,3.75442 -7.19431,7.19432 -1.35683,2.29711 -3.06463,3.86162 -2.3981,6.45642 1.02357,4.03472 6.24981,2.63627 10.39179,2.39809 3.95154,-0.20228 6.26176,-1.19997 9.65389,-3.25895 2.43996,-1.49977 3.11987,-6.27195 5.59559,-4.7962 1.69008,1.01171 1.03932,2.90364 1.59871,4.7962 1.26165,4.29672 -0.2442,7.64627 2.39811,11.25264 0.10697,0.14263 0.20047,0.24978 0.30746,0.36894 1.83294,2.10659 4.37357,2.04694 6.08748,4.42727 2.24952,3.14219 3.75496,5.98602 2.3981,9.59242 -1.24971,3.34453 -3.93308,4.25245 -7.1943,5.65705 -4.33239,1.84482 -7.51732,2.04895 -12.052,0.79936 -2.68993,-0.73796 -3.78837,-4.17345 -6.39494,-3.19746 -2.79702,1.0355 -1.8625,4.26638 -2.3981,7.1943 -0.66653,3.68958 0.16665,5.84305 0,9.59241 -0.14263,3.76111 1.36684,6.57122 -0.79938,9.65391 -2.02335,2.83257 -5.52991,1.52114 -7.99367,3.99683 -3.48732,3.48735 -7.69845,8.7293 -3.99683,11.9905 2.34468,2.0829 4.85148,0.65657 7.99366,0.79938 2.49947,0.11897 3.89546,-0.13113 6.39494,0 2.82081,0.14296 4.39727,0.43043 7.19432,0.79938 2.20188,0.27359 3.46706,0.45417 5.65706,0.79936 0,0 5.09758,-0.62699 6.39494,1.59874 1.09499,1.91612 0.81936,4.16927 -0.79936,5.65706 -1.40448,1.27339 -2.90376,0.59702 -4.7962,0.79935 -3.10653,0.30964 -5.0201,-0.76172 -8.05518,0 -2.71369,0.67843 -4.06209,1.66213 -6.39494,3.19749 -2.39233,1.59489 -3.23892,3.14177 -5.59558,4.7962 -2.63041,1.85662 -4.68295,1.98536 -7.19431,3.99684 -2.58276,2.08275 -3.75273,3.66922 -5.65705,6.39493 -1.84489,2.63042 -4.99665,4.19683 -3.99684,7.25581 1.23783,3.8801 6.47795,1.76345 10.45327,0.79936 4.36808,-1.05931 5.12907,-5.71847 9.59241,-6.45641 4.09436,-0.67841 6.2379,2.79283 10.39178,2.45957 1.59487,-0.13113 2.58245,-0.2658 4.05832,-0.86086 3.285,-1.29748 3.62172,-4.2168 6.39494,-6.39493 2.88033,-2.24952 4.35159,-4.91523 7.99366,-4.79621 2.78514,0.0955 3.65744,2.63809 6.39496,3.19746 3.08265,0.61895 5.0082,-0.002 8.05518,-0.79936 4.85609,-1.29745 6.34692,-5.02618 11.19113,-6.39494 5.4393,-1.51168 8.82033,0 14.45011,0 5.62973,0 8.80644,0.60704 14.38861,0 4.74899,-0.51179 7.73152,-0.30348 12.052,-2.39808 3.98728,-1.92815 4.93673,-5.00444 8.79304,-7.19434 1.20211,-0.70221 2.20958,-0.67231 3.19748,-1.66022 2.2138,-2.20202 -5.37519,1.70201 -7.99368,0 -1.89242,-1.2259 -2.99513,-2.54679 -3.19748,-4.7962 -0.26197,-3.3088 2.92949,-4.41917 5.5956,-6.39494 2.23761,-1.67822 4.00257,-1.74551 6.39492,-3.19748 2.29709,-1.39265 4.50254,-1.55687 5.65706,-3.99683 1.17833,-2.57089 -0.3729,-4.39725 -0.86086,-7.19432 -0.46419,-2.8446 0.16267,-4.98245 -1.59872,-7.25577 -2.90416,-3.73728 -8.03898,0.99592 -11.99052,-1.59874 -1.85675,-1.21402 -3.23507,-1.93778 -3.99684,-3.99685 -0.89264,-2.36856 1.91823,-4.14542 0.79936,-6.39494 -0.98788,-2.01149 -3.27271,-1.54304 -4.79618,-3.19746 -2.70181,-2.90412 -0.29531,-7.04743 -3.25898,-9.65392 -2.45182,-2.1543 -6.02979,0.20845 -7.99366,-2.39808 -1.26162,-1.65443 -0.41655,-3.39374 -0.36894,-5.22664 0.0131,-0.65466 -0.10895,-1.28924 -0.43044,-1.96766 -1.92815,-4.0706 -5.91465,-3.76459 -9.5924,-6.39497 -2.54712,-1.80914 -3.83797,-3.14378 -6.45644,-4.85769 -1.52351,-0.98789 -2.87801,-0.95791 -3.99682,-2.39808 -1.92817,-2.45174 0.82126,-4.97051 0,-7.99368 -1.10692,-4.09425 -3.39558,-5.76997 -6.39495,-8.79306 -2.49947,-2.53524 -3.77836,-4.5482 -7.19432,-5.59556 -3.58254,-1.11882 -5.89281,0.85885 -9.6539,0.79937 -3.1541,-0.0475 -5.24427,0.71219 -7.99366,-0.79937 -1.9282,-1.07121 -3.59219,-1.88011 -3.99684,-4.05832 -0.65465,-3.58244 5.5775,-2.0705 7.99368,-4.79622 1.67821,-1.88044 1.31689,-3.91719 3.19746,-5.59556 2.66608,-2.38032 6.03371,-0.19618 8.85454,-2.39811 4.13007,-3.22538 3.366,-7.65009 3.99684,-12.85138 0.66652,-5.28446 3.16405,-10.03034 -0.79938,-13.58924 -4.20151,-3.7849 -8.87988,0.65844 -14.45009,1.59874 -4.41573,0.7498 -6.72784,2.63626 -11.19115,2.39808 -1.89246,-0.10697 -3.61792,0.70033 -4.7962,-0.79936 -1.4045,-1.79712 0.3252,-3.72693 1.59871,-5.59556 1.64248,-2.43984 4.55008,-1.69961 6.39495,-3.99684 1.48774,-1.85667 3.08845,-3.38373 2.3981,-5.65706 -0.49989,-1.7019 -1.55496,-2.54272 -3.19746,-3.19748 -2.39238,-0.94028 -3.82409,1.39649 -6.39494,1.59874 -2.82086,0.2143 -4.4231,-0.64462 -7.2558,-0.79936 -2.4995,-0.11897 -3.90739,0 -6.39494,0 -2.55154,0 -4.87103,-1.09032 -6.94835,-1.2298 -0.31161,-0.0209 -0.62513,-0.0278 -0.92235,0 z m 551.13314,4.85771 c -0.24713,0.39193 -0.42854,0.77668 -0.73779,1.22977 -0.20113,0.29363 -0.45713,0.50326 -0.6765,0.73789 0.20228,-0.22084 0.42756,-0.46563 0.61504,-0.73789 0.29742,-0.43145 0.56082,-0.85508 0.79925,-1.22977 z m -4.73468,4.7962 c -0.28558,0.33327 -0.53748,0.75369 -0.79941,1.22979 -2.16621,4.16577 2.40612,7.58669 0.79941,11.99051 -0.1446,0.39442 -0.32206,0.76931 -0.49197,1.10682 0.16432,-0.33662 0.29068,-0.71784 0.43052,-1.10682 1.60671,-4.4038 -2.96563,-7.82464 -0.79941,-11.99051 0.25748,-0.4807 0.54652,-0.88849 0.86086,-1.22979 z m -138.47504,6.82537 c -1.28289,0.005 -2.69554,0.56874 -4.24281,0.79936 -2.90415,0.44039 -4.88528,0.54136 -7.1943,2.39808 -2.53517,2.01148 -4.94903,4.11162 -3.99687,7.19433 0.71414,2.32102 3.78253,1.82075 4.73473,4.05833 0.91647,1.99956 -1.42788,4.01266 0.0618,5.59556 1.34497,1.36876 3.02276,1.46602 4.79622,0.79938 2.7851,-1.03547 0.8151,-4.74446 2.3981,-7.25581 1.44017,-2.23762 3.64366,-2.42751 4.85768,-4.7962 1.44019,-2.79701 3.1798,-5.94649 0.79938,-7.99367 -0.70966,-0.61145 -1.44392,-0.80173 -2.21365,-0.79936 z m 134.23217,11.99049 c -0.3546,0.37031 -0.68373,0.79255 -1.04523,1.2298 -0.0164,-0.01 -0.0477,0.01 -0.0624,0 0.37629,-0.45689 0.73664,-0.84287 1.10685,-1.2298 z m -0.61488,1.59874 0.0624,0 c -2.17804,6.55813 -6.73822,10.02824 -5.59554,16.84822 0.61898,3.72539 3.04466,5.13905 3.99688,8.79302 0.95223,3.64209 -0.33143,6.07132 0.79941,9.65392 0.37482,1.1783 0.67092,2.34729 1.04524,3.44342 -0.38221,-1.11742 -0.72925,-2.23773 -1.10686,-3.44342 -1.1425,-3.58244 0.15282,-6.01169 -0.79924,-9.65392 -0.95223,-3.65385 -3.37806,-5.06752 -3.99689,-8.79302 -1.1545,-6.81998 3.4175,-10.28998 5.59555,-16.84822 z m -166.02245,6.0875 c -0.30627,-0.0164 -0.59763,0.0209 -0.92232,0.0618 -0.43296,0.0544 -0.89158,0.19443 -1.3528,0.30748 -3.66587,0.89264 -3.06844,5.12715 -3.99682,8.79302 -0.5951,2.45188 -2.72751,4.78816 -0.79937,6.39495 1.71393,1.40455 3.71701,0.27166 5.65707,-0.79937 3.05886,-1.70202 3.31644,-4.55393 3.93533,-7.99368 0.38088,-2.15415 1.53538,-4.01248 0,-5.59558 -0.74314,-0.7766 -1.60219,-1.12261 -2.52109,-1.1683 z m -399.80675,7.74773 c -0.52184,0.0718 -1.02942,0.26379 -1.47576,0.61489 -1.49967,1.1664 -1.7039,3.11798 -0.79934,4.7962 1.214,2.20204 4.99049,2.89425 6.39493,0.79936 0.85698,-1.29723 0.74986,-2.62809 0,-3.99684 -0.83907,-1.49068 -2.5543,-2.42838 -4.11983,-2.21361 z m 323.5594,12.42093 c -0.43442,-0.01 -0.8767,0.0447 -1.35279,0.18436 -1.91626,0.55939 -1.57872,2.85423 -3.19747,3.99684 -2.14237,1.48776 -3.83594,1.31508 -6.39494,1.66021 -3.10646,0.41661 -5.73421,-2.10655 -8.05515,0 -2.52326,2.30919 -1.78532,5.86509 0,8.79305 1.6901,2.73749 4.50636,2.36637 7.25579,3.99684 1.583,0.91647 2.42574,1.51735 3.99685,2.3981 1.84483,1.0117 2.8462,2.98145 4.85769,2.3981 2.24952,-0.6784 1.50343,-3.36994 2.33661,-5.59556 0.69034,-1.84497 0.75372,-3.01074 1.59874,-4.79621 0.76173,-1.65428 1.85253,-2.25899 2.45957,-3.99683 0.90458,-2.6541 1.90436,-5.19671 0,-7.25582 -1.03548,-1.08011 -2.20161,-1.75083 -3.5049,-1.78318 z M 360.33025,664.914 c -1.07287,0.21592 -2.00628,1.53816 -2.89002,2.58259 -1.05925,1.30922 -2.52709,2.65399 -1.59874,4.0583 1.08311,1.6425 3.53458,-0.0751 4.79621,-1.59873 1.21404,-1.46384 2.41805,-3.85781 0.79937,-4.85769 -0.38683,-0.23805 -0.7492,-0.25645 -1.10682,-0.18437 z m 5.71855,9.77688 c -0.1875,-0.0131 -0.42149,0.0348 -0.6149,0.0618 -6.16536,0.88078 1.53724,4.0366 1.53724,4.11983 l 1.66024,-1.72173 c -0.19804,-1.35389 -1.26959,-2.37689 -2.58258,-2.45957 z m 557.22075,2.70554 c 0.2123,0.5004 0.42148,0.95082 0.67634,1.41428 l -0.79941,1.53725 0.73795,-1.53725 c -0.23744,-0.43068 -0.42394,-0.93511 -0.61488,-1.41428 z m -194.67683,2.15215 c -0.6825,0.0721 -1.31307,0.32327 -1.7832,0.79938 -1.09499,1.14257 -1.39449,2.52096 -0.79938,3.99682 0.84509,2.10657 3.76462,2.90796 5.65707,1.59874 1.13074,-0.79746 1.63447,-1.81682 1.59875,-3.19746 -0.0892,-2.00852 -2.6257,-3.41336 -4.67324,-3.19748 z m 184.10046,0.30746 c 1.26542,-0.0286 0.51498,0.44292 1.47575,0.55339 -1.46293,-0.0319 -2.89924,-0.21371 -4.24271,-0.24595 1.25753,-0.17768 2.29405,-0.29676 2.76696,-0.30744 z M 356.33343,680.102 c -2.40364,-0.0462 -4.03332,2.8314 -6.88688,2.64405 -0.84504,-0.0596 -1.55901,-0.26773 -2.21363,-0.55341 -1.34492,-0.61891 -2.44553,-1.54704 -4.2428,-1.84469 -2.1543,-0.34532 -3.40557,-0.16669 -5.59557,0 -4.15388,0.33329 -6.38071,1.25548 -10.39178,2.3981 -5.42743,1.52338 -9.73488,0.74955 -13.65074,4.7962 -1.55915,1.63071 -3.06656,2.54666 -3.19746,4.7962 -0.23795,3.80879 7.00579,1.97928 7.99366,5.65706 0.42848,1.51173 0.52368,2.52095 0,3.99686 -0.88076,2.53515 -2.91758,3.74673 -5.59556,3.99682 -2.7851,0.24994 -4.074,-1.63814 -6.39494,-3.19748 -1.66632,-1.10688 -2.21151,-2.26911 -3.99685,-3.19744 -3.60637,-1.88056 -6.9183,-2.85847 -10.45327,-0.79938 -2.10668,1.22588 -3.84211,2.35628 -3.99684,4.7962 -0.13112,2.09467 1.04124,3.21333 2.39812,4.79621 2.24951,2.67799 8.19801,0.50934 8.05515,3.99683 -0.0833,1.82093 -1.08886,2.7232 -2.39808,3.99683 -2.34477,2.27322 -6.85305,-0.56358 -8.05519,2.45961 -0.58318,1.45202 -0.58318,2.55665 0,3.99682 1.20214,3.02304 5.02009,1.20789 8.05519,2.39812 3.26118,1.27353 8.49358,0.54517 7.99367,3.99683 -0.36898,2.41613 -3.05848,2.29478 -4.79621,3.99683 -2.0591,1.99956 -2.49908,3.8698 -4.7962,5.59557 -2.71373,2.01151 -5.35339,1.18599 -8.05518,3.19746 -2.30903,1.72584 -3.08228,3.32412 -4.7962,5.65709 -2.1662,2.92792 -5.70076,4.4587 -4.7962,7.99367 0.63083,2.57087 3.01087,2.83223 4.7962,4.7962 1.64253,1.80902 1.98539,3.40366 3.99685,4.79622 3.13027,2.14225 5.83328,1.57481 9.6539,1.59872 4.77277,0.0131 7.33674,-1.26741 11.9905,-2.3981 4.41571,-1.08311 7.1206,-1.16219 11.19114,-3.19746 3.82062,-1.86868 5.03394,-4.51436 8.85454,-6.39496 4.35621,-2.14247 7.18201,-2.57857 11.99052,-3.19746 4.66566,-0.60702 7.94572,2.26132 12.052,0 4.41569,-2.44006 4.65725,-6.52754 6.39494,-11.25264 1.58299,-4.18966 1.76724,-6.7635 2.3981,-11.19114 0.48797,-3.42785 0.73986,-5.40289 0.79937,-8.85454 0.0365,-3.20171 -1.2278,-5.35348 -1.1683,-8.05516 l 0.36893,0.0618 c -0.11897,-0.0955 -0.24995,-0.15117 -0.36893,-0.24597 0.0365,-0.6784 0.14263,-1.37847 0.36893,-2.15214 0.85695,-2.82093 1.97348,-4.25264 3.99683,-6.39494 2.32096,-2.45182 6.58932,-1.4874 7.25581,-4.7962 0.65461,-3.32072 -2.98906,-4.43498 -4.85771,-7.25579 -1.88056,-2.82096 -2.59429,-4.62343 -4.79619,-7.19431 -1.44019,-1.67831 -1.91396,-3.21128 -3.99684,-3.99684 -0.37938,-0.14279 -0.76343,-0.23938 -1.1068,-0.24597 z m 547.50528,2.64405 0.0624,0 c -0.22167,0.36449 -0.39864,0.74688 -0.49197,1.10682 0.0871,-0.35994 0.20885,-0.74233 0.43051,-1.10682 z m -236.55133,4.67322 c -0.90604,-0.0373 -1.85651,0.0992 -2.95151,0.12291 -1.92816,0.0475 -3.46313,-0.5456 -4.79622,0.79938 -1.333,1.35686 -1.88246,3.29837 -0.79934,4.85769 1.1188,1.53526 2.93945,0.29763 4.7962,0.73789 1.91623,0.48796 2.83233,1.42217 4.7962,1.66019 1.24976,0.16668 2.06675,0.5356 3.19748,0 2.63036,-1.214 0.72221,-5.49422 -1.59874,-7.25577 -0.86291,-0.67241 -1.73802,-0.88515 -2.64407,-0.92235 z m 236.85877,2.95151 c -0.0345,0.38809 -0.10024,0.76364 -0.24599,1.16831 -0.47061,1.34848 -1.17241,2.31298 -1.96771,3.13597 0.78117,-0.81538 1.44206,-1.8059 1.90626,-3.13597 0.14624,-0.40467 0.27277,-0.78021 0.30744,-1.16831 z m -6.7024,8.42411 c 0.0164,-0.0131 0.0526,0.0131 0.0624,0 -2.19004,2.48754 -3.4055,3.9193 -5.59554,6.39492 -1.39852,1.5771 -2.39757,2.90032 -3.44346,4.18132 1.04589,-1.281 1.98349,-2.6042 3.382,-4.18132 2.18988,-2.47566 3.40551,-3.90746 5.59555,-6.39492 z m 76.98527,2.3981 c 0.0164,0.0131 0.0493,-0.0131 0.0625,0 0.35706,0.36004 0.63919,0.68606 0.92232,1.04533 -0.28313,-0.35927 -0.62672,-0.68526 -0.98378,-1.04533 z m -137.98315,3.99682 c 0.26915,0.52018 0.606,1.03933 0.98377,1.59874 0.81535,1.21992 1.21596,2.3767 1.72173,3.44345 -0.50577,-1.06675 -0.96783,-2.22353 -1.78318,-3.44345 -0.37794,-0.55941 -0.65317,-1.07856 -0.92232,-1.59874 z m 141.98004,5.59558 c 0.13967,0.56476 0.17467,1.11927 0.18437,1.66022 0,0.29131 0.0246,0.58177 0,0.86087 -0.0214,0.25683 -0.0871,0.48661 -0.12324,0.73789 0.0756,-0.51552 0.12652,-1.05608 0.12324,-1.59876 0,-0.54266 -0.0608,-1.08741 -0.18437,-1.66022 z m -98.50674,6.27198 0,0.12291 c 0.69621,1.05338 1.31454,1.88644 1.90609,2.70554 -0.60699,-0.8191 -1.27133,-1.65216 -1.96755,-2.70554 l 0.0624,-0.12291 z m 3.62782,5.3496 c 0.37662,0.59789 0.78462,1.27637 1.16831,2.02916 0.41967,0.81528 0.74831,1.5723 1.04539,2.27512 -0.31237,-0.70282 -0.68734,-1.45984 -1.10685,-2.27512 -0.38384,-0.75279 -0.73023,-1.43127 -1.10685,-2.02916 z m 104.59426,8.30112 c 0.9611,0.99533 1.92779,2.03501 3.13603,3.32045 -0.0164,-0.01 -0.0509,0.01 -0.0625,0 -1.20823,-1.28544 -2.11198,-2.32512 -3.07456,-3.32045 z M 887.17498,730.831 c 0.23268,0.78214 0.47357,1.4522 0.7378,2.3981 0.10516,0.38383 0.21985,0.74377 0.36906,1.10683 -0.14953,-0.36306 -0.32338,-0.723 -0.43052,-1.10683 -0.24401,-0.88372 -0.45927,-1.66032 -0.67634,-2.3981 z m 96.84648,12.72839 c 0.0164,-0.0131 0.0542,0.0131 0.0624,0 -0.17122,0.26946 -0.29496,0.54108 -0.30744,0.86086 0.0164,-0.31974 0.0756,-0.5914 0.24598,-0.86086 z m -2.39824,20.10717 -1.5372,0.79937 -0.79924,0 c -1.55922,3.13018 -2.62812,4.85348 -3.99689,8.05517 -0.18141,0.42105 -0.36429,0.82969 -0.49197,1.22979 0.12817,-0.4001 0.24746,-0.80874 0.43051,-1.22979 1.36878,-3.20174 2.43767,-4.92501 3.99673,-8.05517 l 0.0624,0 2.33661,-0.79937 z m -83.99494,4.11983 c 0.0164,-0.01 0.0509,0.01 0.0624,0 -0.62408,0.60886 -1.16107,1.2967 -1.66027,1.96766 -0.9984,1.34196 -1.86042,2.80657 -3.25894,4.36579 l -0.49197,0.67638 c 0.1101,0.12505 0.20343,0.29877 0.30744,0.43045 0.31188,0.39499 0.61883,0.80914 0.92233,1.29127 1.96393,3.22537 4.35592,5.03194 4.05834,8.79303 -0.24993,3.21365 -1.98727,4.73056 -4.05834,7.19432 -0.35033,0.42115 -0.68965,0.77103 -1.04524,1.1068 0.34327,-0.32732 0.64611,-0.69916 0.98378,-1.1068 2.07107,-2.46376 3.80841,-3.98072 4.05834,-7.19432 0.29758,-3.76109 -2.0944,-5.56769 -4.05834,-8.79303 -0.28706,-0.47462 -0.54225,-0.89784 -0.86087,-1.29127 -0.27129,-0.33511 -0.5756,-0.62929 -0.86086,-0.92235 0.17434,0.17728 0.38319,0.30047 0.55342,0.4919 l 0.43052,-0.67638 c 1.39835,-1.55926 2.32051,-3.02383 3.32039,-4.36579 0.49985,-0.67096 0.97539,-1.3588 1.59865,-1.96766 z m -327.06436,5.53409 c 1.30032,0.58316 2.5824,1.21193 4.61173,2.15214 l 0.30744,0 -0.30744,0.0618 c -2.02932,-0.94032 -3.31141,-1.63047 -4.61173,-2.21366 z m 377.5475,2.89002 c 0.0164,-0.0131 0.0509,0.0131 0.0624,0 -0.31089,0.3226 -0.62704,0.64381 -0.92249,0.98384 0.27392,-0.33188 0.56624,-0.67798 0.86103,-0.98384 z m -373.24322,16.47925 -0.18437,0.30746 c -5.61781,0.61891 -7.22361,1.10683 -12.91287,1.10683 5.2077,0 8.30912,-0.79951 13.09733,-1.41429 z m 305.11242,9.71541 c 0.0164,-0.0131 0.0493,0.0131 0.0624,0 -0.77443,0.73958 -1.40032,1.66606 -1.72173,2.95151 -0.97589,3.93964 4.27064,5.54551 3.99689,9.5924 -0.23794,3.07077 -1.07892,4.9567 -3.19748,7.19431 -0.0164,0.0131 -0.0509,-0.0131 -0.0624,0 2.11856,-2.23762 2.95938,-4.12354 3.19748,-7.19431 0.27359,-4.04686 -4.97278,-5.65276 -3.99689,-9.5924 0.32141,-1.28545 0.94713,-2.21191 1.72173,-2.95151 z m -81.84291,6.94833 11.56007,2.27512 c -0.35802,0.07 -0.70066,0.1096 -1.10681,0.12291 -2.22571,0.0713 -3.50276,-0.3472 -5.65706,-0.79934 -2.11018,-0.449 -3.31401,-0.89458 -5.28814,-1.47578 l 0.49194,-0.12291 z m 76.61626,15.00353 1.10685,0.24595 -0.55342,0.30744 c -0.20557,-0.18239 -0.36693,-0.37971 -0.55343,-0.55339 z m -0.67633,1.1068 0.0624,0 c 0,0 0,0.54477 -0.43035,2.09066 0.42065,-1.54593 0.36889,-2.09066 0.36889,-2.09066 z m -0.49197,13.52776 -0.0625,1.59874 c -0.0214,-0.007 -0.0394,0.007 -0.0624,0 l 0.12324,-1.59874 z m 121.25798,7.00984 c 0.30777,0.07 0.61241,0.0828 0.92232,0.18437 0.0822,0.0261 0.16267,0.0943 0.24598,0.12291 -0.39913,-0.14033 -0.77558,-0.21807 -1.1683,-0.30743 z m -392.24354,9.03901 0.0618,0 c -0.26334,0.35854 -0.57708,0.64309 -0.86085,0.92233 0.28295,-0.27924 0.5375,-0.56379 0.79936,-0.92233 z m -6.33347,4.67322 c 0.0131,-0.0131 0.0495,0.0131 0.0618,0 -0.29605,0.2692 -0.58116,0.57718 -0.86087,0.92235 -0.55645,0.67543 -1.05471,1.29436 -1.47576,1.90618 0.42197,-0.61182 0.85786,-1.23075 1.41428,-1.90618 0.27968,-0.34517 0.5645,-0.65315 0.86086,-0.92235 z m -3.38194,4.67322 c -0.6308,1.24081 -1.08892,2.53485 -1.47574,4.24281 0.38087,-1.70796 0.84345,-3.002 1.47574,-4.24281 z m 268.5261,6.64089 c 0.0164,-0.0131 0.0509,0.0132 0.0624,0 -0.34079,0.38536 -0.63065,0.77741 -0.86086,1.16832 0.23021,-0.39091 0.45861,-0.78296 0.79924,-1.16832 z m -1.72173,7.50177 c 0.0624,0.92691 0.18437,1.92492 0.18437,2.95151 -0.002,1.03248 0.16432,1.95689 0.43035,2.82853 -0.26784,-0.87164 -0.49197,-1.79605 -0.49197,-2.82853 0,-1.02659 -0.0608,-2.0246 -0.12324,-2.95151 z m -265.63604,4.24281 c 0.42037,0.62428 0.91139,1.27388 1.41425,1.90618 0.32434,0.41808 0.62487,0.79343 0.98385,1.10682 -0.36013,-0.31339 -0.71951,-0.68874 -1.04533,-1.10682 -0.5077,-0.63562 -0.93368,-1.27994 -1.35277,-1.90618 z m 177.52107,0.92235 c 0.17219,0.17492 0.37665,0.36037 0.55341,0.5534 l -0.0618,0.0618 c -0.18241,-0.20305 -0.31402,-0.43189 -0.49193,-0.61491 z m -1.53725,2.58255 0.0618,0 c -1.41208,1.65507 -2.2133,2.9041 -3.44341,4.24281 1.21568,-1.32784 1.98042,-2.60026 3.38194,-4.24281 z m 91.74285,4.24281 c -0.0592,0.44221 -0.11995,0.8737 -0.30744,1.35277 -0.1216,0.31073 -0.28608,0.58226 -0.43052,0.86086 0.14296,-0.27702 0.2478,-0.55214 0.36906,-0.86086 0.18749,-0.47907 0.31024,-0.91056 0.3689,-1.35277 z m -140.07384,4.98068 c -0.13014,1.01665 -0.35782,2.01607 -0.61489,3.07447 0.26041,-1.05148 0.47705,-2.06943 0.61489,-3.07447 z m 279.77874,0.18436 c 0.039,0.31678 0.1068,0.63869 0.1844,0.98385 0.051,0.21721 0.038,0.456 0,0.67638 0.038,-0.22038 -0.016,-0.45917 -0.063,-0.67638 -0.077,-0.34516 -0.084,-0.66707 -0.1232,-0.98385 z m -184.10059,0.18437 0.73787,0 -0.67638,0.73789 c -0.0348,-0.24686 -0.0196,-0.48313 -0.0618,-0.73789 z m 2.39812,14.4501 c 0.44333,0.96409 0.88485,1.76567 1.35275,2.52109 -0.44566,-0.71953 -0.92993,-1.49166 -1.35275,-2.39811 l 0,-0.12291 z m 13.22027,14.69609 c 0.17615,0.38812 0.34869,0.80181 0.43052,1.29126 0.0444,0.26781 0.0181,0.55394 0,0.79938 0.0181,-0.24544 -0.0181,-0.53157 -0.0624,-0.79938 -0.0838,-0.48945 -0.19176,-0.90314 -0.36906,-1.29126 z m -0.24598,14.94201 c 0.22955,0.23313 0.49345,0.48699 0.6765,0.79923 0.28854,0.51044 0.52878,1.02327 0.73779,1.53738 -0.20984,-0.51411 -0.50922,-1.02694 -0.79941,-1.53738 -0.18289,-0.31224 -0.38533,-0.5661 -0.61488,-0.79923 z m 393.47338,22.25921 3.9353,2.02934 c 0.1314,-0.0362 0.1885,-0.0772 0.3074,-0.12324 -1.5949,-0.77361 -3.1002,-1.45373 -4.2427,-1.90626 z m -585.62899,4.1198 c -2.2406,0 -1.96103,4.27344 -4.30429,5.65716 -1.94003,1.15434 -3.70311,0.31319 -5.59557,1.59866 -2.64227,1.80915 -3.59217,4.05423 -3.99685,7.25582 -0.35692,2.84452 -0.34144,5.05181 1.59876,7.19436 1.38065,1.54739 3.55638,0.6604 4.73471,2.39807 1.60684,2.32084 -2.35855,4.84937 -0.79938,7.1942 1.34496,1.97593 3.28852,2.83856 5.65706,2.39826 1.97575,-0.36892 2.68762,-1.67411 3.99684,-3.1975 2.19001,-2.57093 2.53095,-4.70889 3.19748,-7.99378 0.85699,-3.97536 0.28562,-6.345 0,-10.39151 -0.17866,-2.82119 0.29774,-4.62574 -0.73789,-7.25599 -0.84503,-2.10673 -1.03327,-4.30827 -3.25897,-4.79613 -0.17334,-0.0394 -0.34253,-0.0624 -0.4919,-0.0624 z m 319.74709,26.07162 c 0.0164,-0.0164 0.0526,0.0164 0.0624,0 -0.10516,0.13474 -0.23958,0.28822 -0.30744,0.43068 0.0674,-0.14131 0.13967,-0.29511 0.24582,-0.43068 z m -317.65645,14.01981 c -2.53517,-0.059 -3.27465,2.2234 -5.59556,3.259 -2.99934,1.3329 -4.8416,1.9338 -8.05516,2.398 -3.41596,0.5239 -6.38879,-2.4519 -8.79306,0 -1.57108,1.6424 -2.77705,3.6676 -1.59872,5.5956 1.02359,1.69 3.65356,-0.016 4.7962,1.5986 1.52348,2.0831 -1.77727,3.8362 -1.59874,6.395 0.14312,1.2854 0.19226,2.0668 0.79938,3.1976 1.2378,2.1899 4.75049,0.8786 5.59556,3.259 0.65461,1.7853 -0.51371,2.9156 -0.79936,4.7961 0.6308,2.178 0.64464,2.4138 0.79936,3.9969 0.21434,1.8686 0.49991,2.9986 0,4.7961 -0.49989,1.7495 -2.12433,2.1877 -2.3981,3.9971 -0.23798,1.5708 0.0375,2.5919 0.79938,3.9965 0.95218,1.7377 3.03275,1.5091 3.99682,3.2591 0.77366,1.3925 -0.12899,2.7111 0.79938,3.9967 1.82101,2.5471 5.10142,1.1664 7.99367,0 3.49929,-1.3926 3.1238,-5.4943 6.45643,-7.2558 2.01146,-1.071 4.02448,0.044 5.59556,-1.5988 2.17811,-2.2494 0.20233,-4.863 0,-7.9936 -0.16665,-2.8207 -0.83508,-4.3734 -0.79934,-7.1942 0.0475,-2.5113 0.63272,-3.9451 0.79934,-6.4564 0.36896,-4.3561 0.8435,-6.8945 0,-11.1913 -0.67842,-3.5944 -0.86466,-5.996 -3.19746,-8.7928 -1.73774,-2.0711 -2.88189,-3.9751 -5.59558,-4.0584 z m 223.51549,11.6215 c 0.26899,0.1983 0.51629,0.339 0.79941,0.5536 -0.0822,0.1166 -0.16646,0.2507 -0.24599,0.3687 l -0.55342,-0.9223 z m -349.07768,21.0913 c -1.51561,0.115 -2.92389,0.5849 -4.24278,1.7831 -1.35687,1.214 -2.63619,2.1876 -2.39811,3.9969 0.26199,2.2377 2.91565,2.0072 4.7962,3.1977 1.5473,0.9759 2.2472,1.862 3.99684,2.3977 2.09478,0.6427 3.71698,1.0237 5.65706,0 1.99958,-1.0472 2.98324,-2.5468 3.19748,-4.7961 0.20229,-1.964 -0.26774,-3.3681 -1.66023,-4.7962 -1.57112,-1.6187 -3.33414,-1.4202 -5.59558,-1.5988 -0.79149,-0.066 -1.49745,-0.1544 -2.21361,-0.1843 -0.53716,-0.023 -1.03206,-0.038 -1.53727,0 z m -25.14934,15.3108 c -2.14371,0.077 -4.73471,1.6603 -4.73471,1.6603 -0.83313,2.4401 -0.2818,4.7066 1.59874,6.4563 2.07099,1.9282 5.07569,2.6802 7.19432,0.7995 1.24971,-1.1305 1.70585,-2.3188 1.59872,-3.9969 -0.15463,-2.6422 -2.21342,-4.3222 -4.7962,-4.8575 -0.2797,-0.059 -0.55461,-0.074 -0.86087,-0.061 z m 267.60367,18.4469 c -1.84353,0.2112 -2.73514,2.3634 -4.73472,3.259 -3.27311,1.4286 -5.25806,2.0172 -8.79303,2.3982 -2.49947,0.2734 -3.88356,0.1671 -6.39494,0 -2.51135,-0.1561 -3.94307,-0.2639 -6.39494,-0.7994 -2.91603,-0.6308 -4.29217,-2.5885 -7.25582,-2.3982 -1.96385,0.1314 -2.86807,1.2417 -4.7962,1.5988 -2.45188,0.4404 -3.88357,-0.1673 -6.39492,0 -2.51135,0.1561 -4.33589,-0.6527 -6.39495,0.7994 -2.66609,1.8925 -2.9952,4.8295 -2.45959,8.0552 0.36894,2.0709 1.11462,3.1895 2.45959,4.7962 2.60657,3.0946 6.18839,1.7947 9.59241,3.9969 2.80895,1.7969 3.08614,5.5837 6.39494,5.5955 2.52329,0 3.32423,-4.1617 5.65706,-3.1975 2.38042,0.9759 -0.4603,4.8358 1.59873,6.395 1.97578,1.5112 4.24063,-1.2383 6.39493,0 1.96389,1.1188 1.57876,3.2369 3.1975,4.7961 3.74916,3.5707 8.2333,0.9499 12.85136,3.2591 1.61867,0.8094 2.24719,2.017 3.99682,2.3981 2.89224,0.6545 5.33757,-0.087 7.19432,-2.3981 2.15432,-2.6782 2.19001,-6.2122 0,-8.8546 -1.73772,-2.059 -4.74253,-0.3507 -6.45643,-2.3981 -1.26165,-1.5116 -1.93202,-2.8442 -1.59874,-4.7963 0.34529,-1.9759 1.92395,-2.4612 3.19748,-3.9967 1.85675,-2.2257 4.01261,-2.8344 4.85769,-5.5956 0.80933,-2.702 0.24792,-4.6139 -0.79938,-7.2558 -0.97597,-2.4996 -1.416,-5.0955 -4.05831,-5.5955 -0.30798,-0.057 -0.59751,-0.092 -0.86086,-0.061 z m 128.57517,6.3337 c -1.98941,-0.023 -3.63555,0.2887 -5.90298,0.9222 -2.28518,0.6429 -3.73875,0.8866 -5.59555,2.398 -2.72572,2.2141 -5.44897,4.8652 -3.99688,8.0553 0.84509,1.8091 2.28287,2.1737 3.99688,3.1974 2.29718,1.3806 4.38337,0.6366 6.39496,2.3981 3.3802,2.9518 0.12488,7.3469 2.39806,11.1911 0.99972,1.7142 1.38833,3.1776 3.19748,4.0585 2.59459,1.2496 4.58975,-2.6937 7.25582,-1.5988 2.71372,1.1188 2.81839,3.6929 3.99672,6.3949 0.80944,1.8092 -0.23431,4.0584 1.59882,4.7963 2.36849,0.9761 -0.81748,-5.5378 1.59866,-6.3949 1.51157,-0.5354 2.53297,0.1927 3.99689,0.7992 2.84468,1.1902 2.90565,7.1073 5.59554,5.5957 2.4638,-1.3567 0.11831,-4.3736 0,-7.1943 -0.14295,-3.4517 -0.1446,-5.4745 -0.79924,-8.8545 -0.63082,-3.2019 -4.76672,-5.7564 -2.39823,-7.9938 1.82114,-1.714 4.89538,1.9876 6.39495,0 1.69018,-2.2377 -1.65009,-4.0743 -3.19748,-6.3949 -1.82098,-2.7852 -2.59607,-5.0044 -5.59554,-6.4564 -2.57093,-1.2262 -4.421,-0.1216 -7.19437,-0.738 -3.95153,-0.9284 -5.55742,-3.594 -9.59226,-4.0582 -0.78561,-0.087 -1.48906,-0.115 -2.15225,-0.1232 z m 50.54459,0.063 c -0.46256,0.026 -0.89159,0.2803 -1.16831,0.8608 -0.70213,1.4283 -0.14131,2.7351 0.79941,3.9966 1.33312,1.833 3.5861,0.7082 5.65717,1.6603 2.42797,1.1426 3.46499,5.6512 5.59554,3.9968 1.49957,-1.1661 1.40641,-2.9989 0.79925,-4.7963 -0.91641,-2.6424 -3.8002,-2.2947 -6.39479,-3.2587 -1.83002,-0.6606 -3.90011,-2.5437 -5.28827,-2.4595 z m 8.05523,26.1329 c -1.15598,-0.051 -2.27105,0.7129 -3.62783,1.1683 -2.7732,0.9164 -7.64476,1.3188 -6.39495,3.9969 1.0592,2.2851 4.03829,1.6818 6.39495,0.8607 2.73739,-0.9401 7.33322,-4.1693 4.85759,-5.6569 -0.40455,-0.244 -0.84443,-0.3516 -1.22976,-0.369 z m -318.45572,2.7669 -2.45961,1.6605 c 1.08311,-0.238 1.89621,-0.6289 2.70556,-1.0456 -0.0951,-0.2021 -0.13869,-0.3889 -0.24595,-0.6149 z m 330.01587,10.023 c -0.52369,-0.066 -1.06117,0.036 -1.53737,0.4303 -1.58288,1.2378 1.23371,3.616 3.19748,3.9969 1.67835,0.3214 3.74696,0.067 3.99689,-1.5986 0.30957,-1.7974 -2.18774,-2.0174 -3.99689,-2.3983 -0.595,-0.1364 -1.13643,-0.3664 -1.66011,-0.4303 z"
       id="path4154"
       inkscape:connector-curvature="0" />
    <g
       id="Layer_7"
       transform="matrix(6.0488761,0,0,6.0488761,-1468.7823,499.21808)"
       style="fill:#cccccf;fill-opacity:0.94117647;stroke:none" />
  </g>
</svg>
