<?xml version="1.0" encoding="UTF-8" standalone="no"?>
<!-- Created with Inkscape (http://www.inkscape.org/) -->
<svg id="svg2" xmlns:rdf="http://www.w3.org/1999/02/22-rdf-syntax-ns#" xmlns="http://www.w3.org/2000/svg" height="64.075" width="354.94" version="1.1" xmlns:cc="http://creativecommons.org/ns#" xmlns:dc="http://purl.org/dc/elements/1.1/">
<metadata id="metadata6">
<rdf:RDF>
<cc:Work rdf:about="">
<dc:format>image/svg+xml</dc:format>
<dc:type rdf:resource="http://purl.org/dc/dcmitype/StillImage"/>
<dc:title/>
</cc:Work>
</rdf:RDF>
</metadata>
<g id="layer1" transform="translate(-0.0133929,-988.33521)">
<g id="text7047" style="letter-spacing:0px;word-spacing:0px;" font-weight="normal" transform="scale(1.0075882,0.99246895)" font-stretch="normal" line-height="125%" font-size="38.98192595999999810px" font-variant="normal" font-family="Liberation Sans" font-style="normal" fill="#999">
<path id="path7387" d="m94.948,1049.9c-0.000014,0.9897-0.14398,1.8895-0.43188,2.6993-0.28194,0.8098-0.69283,1.5026-1.2327,2.0784-0.53987,0.5759-1.1997,1.0198-1.9795,1.3317s-1.6646,0.4678-2.6543,0.4678c-1.0437,0-1.9585-0.1619-2.7443-0.4858-0.78579-0.3299-1.4396-0.7858-1.9615-1.3677-0.52186-0.5878-0.91476-1.2836-1.1787-2.0874-0.26393-0.8038-0.3959-1.6825-0.39589-2.6363-0.000001-0.9897,0.13796-1.8835,0.41389-2.6813,0.27592-0.7978,0.68082-1.4756,1.2147-2.0334,0.53386-0.5639,1.1907-0.9958,1.9705-1.2957,0.78578-0.3059,1.6855-0.4589,2.6993-0.4589,1.0077,0,1.9015,0.153,2.6813,0.4589,0.78578,0.3059,1.4426,0.7408,1.9705,1.3047,0.53385,0.5638,0.93874,1.2446,1.2147,2.0424,0.27591,0.7978,0.41388,1.6856,0.41389,2.6633m-1.7545,0c-0.000012-0.7618-0.09898-1.4546-0.29692-2.0784-0.19196-0.6239-0.47988-1.1577-0.86377-1.6016-0.37791-0.4439-0.84878-0.7858-1.4126-1.0257-0.56386-0.24-1.2147-0.3599-1.9525-0.3599-0.7558,0-1.4186,0.1199-1.9885,0.3599-0.56985,0.2399-1.0467,0.5818-1.4306,1.0257-0.3779,0.4439-0.66283,0.9777-0.85477,1.6016-0.18595,0.6238-0.27893,1.3166-0.27893,2.0784-0.000003,0.7618,0.09597,1.4606,0.28792,2.0964,0.19794,0.6299,0.48587,1.1757,0.86377,1.6376,0.38389,0.4559,0.85777,0.8128,1.4216,1.0707,0.56984,0.252,1.2237,0.3779,1.9615,0.3779,0.79178,0,1.4726-0.1289,2.0425-0.3869,0.57584-0.2579,1.0467-0.6148,1.4126-1.0707,0.37189-0.4619,0.64482-1.0107,0.81878-1.6466,0.17994-0.6358,0.26992-1.3286,0.26993-2.0784"/>
<path id="path7389" d="m103.24,1056.3,0-6.1724c-0.00001-0.4738-0.036-0.8697-0.10797-1.1876-0.066-0.3179-0.17696-0.5729-0.33291-0.7648-0.15597-0.198-0.36291-0.3359-0.62084-0.4139-0.25194-0.084-0.56685-0.126-0.94474-0.126-0.38391,0-0.73181,0.069-1.0437,0.207-0.30592,0.1319-0.56985,0.3269-0.79178,0.5848-0.21595,0.2519-0.3839,0.5669-0.50387,0.9447-0.11997,0.372-0.17996,0.8008-0.17995,1.2867v5.6415h-1.6196v-7.657c-0.000002-0.2039-0.003-0.4168-0.009-0.6388-0.000001-0.2279-0.003-0.4409-0.009-0.6388-0.006-0.204-0.012-0.3779-0.018-0.5219-0.006-0.1439-0.012-0.2369-0.01799-0.2789h1.5296c0.006,0.03,0.01199,0.111,0.01799,0.2429,0.006,0.132,0.01199,0.285,0.01799,0.4589,0.01199,0.168,0.02099,0.3419,0.02699,0.5219,0.006,0.1739,0.009,0.3209,0.009,0.4408h0.02699c0.15596-0.2819,0.32691-0.5368,0.51286-0.7647,0.18595-0.228,0.40189-0.4199,0.64783-0.5759,0.24593-0.1619,0.52785-0.2849,0.84577-0.3689,0.31791-0.09,0.68682-0.1349,1.1067-0.135,0.53985,0.0001,1.0047,0.066,1.3946,0.198,0.38988,0.132,0.7108,0.3359,0.96274,0.6118,0.25192,0.276,0.43487,0.6329,0.54885,1.0707,0.11996,0.4319,0.17995,0.9478,0.17996,1.5476v6.4873h-1.6286"/>
<path id="path7391" d="m108.56,1051.7c0,0.5099,0.051,0.9807,0.15296,1.4126,0.10797,0.4259,0.26992,0.7948,0.48587,1.1067,0.22194,0.306,0.50386,0.5459,0.84577,0.7198,0.34191,0.168,0.7528,0.252,1.2327,0.252,0.70181,0,1.2627-0.141,1.6826-0.4229,0.42588-0.2819,0.71381-0.6388,0.86377-1.0707l1.4216,0.4049c-0.10198,0.2699-0.24594,0.5428-0.43188,0.8187-0.17996,0.27-0.4229,0.5159-0.72881,0.7378-0.30592,0.216-0.68982,0.3959-1.1517,0.5399-0.45588,0.138-1.0077,0.2069-1.6556,0.2069-1.4396,0-2.5373-0.4288-3.2931-1.2866-0.7498-0.8578-1.1247-2.1324-1.1247-3.824,0-0.9117,0.11397-1.6825,0.34191-2.3124,0.22794-0.6358,0.53986-1.1517,0.93575-1.5476,0.39589-0.3958,0.85777-0.6808,1.3856-0.8547,0.52786-0.18,1.0917-0.2699,1.6916-0.27,0.81578,0.0001,1.4966,0.132,2.0425,0.3959,0.55184,0.264,0.99272,0.6299,1.3226,1.0977,0.3359,0.4619,0.57284,1.0078,0.71081,1.6376,0.14395,0.6298,0.21594,1.3107,0.21594,2.0425v0.2159h-6.9461m5.2726-1.2417c-0.09-1.0257-0.35091-1.7725-0.78279-2.2404-0.43189-0.4738-1.0527-0.7108-1.8625-0.7108-0.26994,0-0.55486,0.045-0.85477,0.135-0.29393,0.084-0.56686,0.2369-0.81879,0.4589-0.25193,0.2219-0.46487,0.5248-0.63882,0.9087-0.17396,0.3779-0.27293,0.8608-0.29693,1.4486h5.2546"/>
<path id="path7393" d="m128.36,1056.3,0-6.1724c0-0.4738-0.03-0.8697-0.09-1.1876s-0.16197-0.5729-0.30592-0.7648c-0.13797-0.198-0.32092-0.3359-0.54885-0.4139-0.22795-0.084-0.50687-0.126-0.83678-0.126-0.34191,0-0.65083,0.069-0.92675,0.207-0.27593,0.1319-0.51287,0.3269-0.71081,0.5848-0.19195,0.2519-0.34191,0.5669-0.44988,0.9447-0.10198,0.372-0.15296,0.8008-0.15296,1.2867v5.6415h-1.6106v-7.657c0-0.2039-0.003-0.4168-0.009-0.6388,0-0.2279-0.003-0.4409-0.009-0.6388-0.006-0.204-0.012-0.3779-0.018-0.5219-0.006-0.1439-0.012-0.2369-0.018-0.2789h1.5296c0.006,0.03,0.012,0.111,0.018,0.2429,0.006,0.132,0.012,0.285,0.018,0.4589,0.012,0.168,0.021,0.3419,0.027,0.5219,0.006,0.1739,0.009,0.3209,0.009,0.4408h0.027c0.14396-0.2819,0.29991-0.5368,0.46787-0.7647,0.16795-0.228,0.3629-0.4199,0.58485-0.5759,0.22793-0.1619,0.48586-0.2849,0.77379-0.3689,0.29392-0.09,0.63283-0.1349,1.0167-0.135,0.7378,0.0001,1.3196,0.147,1.7455,0.4409,0.43188,0.294,0.7318,0.7618,0.89976,1.4036h0.027c0.14395-0.2819,0.3059-0.5368,0.48587-0.7647,0.17994-0.228,0.38988-0.4199,0.62983-0.5759,0.23992-0.1619,0.50985-0.2849,0.80978-0.3689,0.29991-0.09,0.64182-0.1349,1.0257-0.135,0.49185,0.0001,0.91474,0.066,1.2687,0.198,0.35989,0.132,0.65381,0.3359,0.88176,0.6118,0.22793,0.276,0.39588,0.6329,0.50387,1.0707,0.10796,0.4319,0.16194,0.9478,0.16196,1.5476v6.4873h-1.6016v-6.1724c-0.00001-0.4738-0.03-0.8697-0.09-1.1876s-0.16197-0.5729-0.30592-0.7648c-0.13798-0.198-0.32093-0.3359-0.54885-0.4139-0.22796-0.084-0.50688-0.126-0.83678-0.126-0.34192,0-0.65084,0.066-0.92675,0.198-0.27594,0.1259-0.51288,0.3149-0.71081,0.5668-0.19196,0.2519-0.34192,0.5669-0.44988,0.9448-0.10199,0.3779-0.15297,0.8157-0.15296,1.3136v5.6415h-1.6016"/>
<path id="path7395" d="m140.54,1056.4c-0.97774,0-1.7125-0.2579-2.2044-0.7737-0.49187-0.5159-0.7378-1.2237-0.7378-2.1235,0-0.6418,0.11996-1.1667,0.3599-1.5746,0.24593-0.4138,0.56385-0.7378,0.95375-0.9717,0.39589-0.2339,0.84577-0.3959,1.3496-0.4859,0.50386-0.09,1.0167-0.1409,1.5386-0.1529l2.1864-0.036v-0.5309c-0.00001-0.4019-0.042-0.7438-0.12596-1.0257-0.084-0.2819-0.21295-0.5099-0.3869-0.6838-0.17396-0.174-0.3929-0.2999-0.65683-0.3779-0.25793-0.084-0.56385-0.126-0.91775-0.126-0.31192,0-0.59385,0.024-0.84578,0.072-0.25193,0.042-0.47087,0.123-0.65682,0.2429-0.18595,0.114-0.33591,0.273-0.44988,0.4769-0.11397,0.198-0.18895,0.4499-0.22494,0.7558l-1.6916-0.153c0.06-0.3838,0.17395-0.7348,0.34191-1.0527,0.16795-0.3239,0.40489-0.6028,0.71081-0.8368,0.31192-0.2339,0.69881-0.4138,1.1607-0.5398,0.46787-0.132,1.0317-0.1979,1.6916-0.198,1.2237,0.0001,2.1444,0.282,2.7623,0.8458,0.61783,0.5579,0.92675,1.3677,0.92675,2.4294v4.1928c0,0.4799,0.063,0.8428,0.18895,1.0888,0.12596,0.2399,0.3659,0.3599,0.71981,0.3599,0.09,0,0.17994-0.01,0.26993-0.018,0.09-0.012,0.17694-0.027,0.26093-0.045v1.0077c-0.20396,0.048-0.4079,0.084-0.61184,0.108-0.19795,0.024-0.4109,0.036-0.63883,0.036-0.30592,0-0.56985-0.039-0.79178-0.117-0.21595-0.084-0.39291-0.2069-0.53086-0.3689-0.13797-0.168-0.24295-0.3719-0.31492-0.6118-0.072-0.246-0.11697-0.5309-0.13496-0.8548h-0.054c-0.17396,0.3119-0.36591,0.5938-0.57584,0.8458-0.20396,0.2519-0.44389,0.4678-0.71981,0.6478-0.27593,0.1739-0.59085,0.3089-0.94475,0.4049-0.34791,0.096-0.7498,0.1439-1.2057,0.1439m0.3689-1.2146c0.51586,0,0.96574-0.093,1.3496-0.279,0.38989-0.1919,0.71081-0.4348,0.96275-0.7288,0.25792-0.2939,0.44987-0.6148,0.57584-0.9627,0.12596-0.3479,0.18894-0.6808,0.18895-0.9987v-0.8008l-1.7725,0.036c-0.39589,0.01-0.77379,0.036-1.1337,0.09-0.35391,0.048-0.66583,0.147-0.93575,0.297-0.26993,0.1499-0.48588,0.3599-0.64783,0.6298-0.15596,0.2699-0.23394,0.6238-0.23394,1.0617,0,0.5279,0.14096,0.9358,0.42289,1.2237,0.28792,0.2879,0.69581,0.4319,1.2237,0.4319"/>
<path id="path7397" d="m156.55,1051.3c-0.00001,0.7378-0.06,1.4186-0.17995,2.0425-0.11998,0.6238-0.32093,1.1607-0.60284,1.6105-0.27594,0.4499-0.64484,0.8038-1.1067,1.0617-0.45588,0.252-1.0197,0.3779-1.6915,0.3779-0.69582,0-1.3047-0.1319-1.8265-0.3958-0.52186-0.264-0.92075-0.6959-1.1967-1.2957h-0.045c0.006,0.012,0.009,0.066,0.009,0.162,0.006,0.096,0.009,0.2159,0.009,0.3599,0.006,0.1439,0.009,0.3059,0.009,0.4858,0.006,0.174,0.009,0.3479,0.009,0.5219v3.806h-1.6196v-11.571c0-0.234-0.003-0.4589-0.009-0.6749,0-0.2159-0.003-0.4108-0.009-0.5848-0.006-0.1799-0.012-0.3329-0.018-0.4589-0.006-0.1259-0.012-0.2159-0.018-0.2699h1.5656c0.006,0.018,0.012,0.081,0.018,0.1889,0.012,0.108,0.021,0.24,0.027,0.3959,0.012,0.15,0.021,0.312,0.027,0.4859,0.012,0.174,0.018,0.3389,0.018,0.4949h0.036c0.14996-0.3119,0.32091-0.5759,0.51286-0.7918,0.19195-0.2219,0.41089-0.4019,0.65683-0.5399,0.24593-0.1439,0.51886-0.2459,0.81878-0.3059,0.30591-0.066,0.64782-0.099,1.0257-0.099,0.67181,0,1.2357,0.12,1.6915,0.3599,0.46187,0.24,0.83077,0.5789,1.1067,1.0168,0.28191,0.4319,0.48286,0.9567,0.60284,1.5746,0.11996,0.6118,0.17994,1.2926,0.17995,2.0424m-1.7006,0.036c0-0.5998-0.036-1.1337-0.10797-1.6016-0.072-0.4678-0.19795-0.8637-0.3779-1.1877-0.17396-0.3239-0.40789-0.5698-0.70181-0.7378-0.29393-0.1679-0.66283-0.2519-1.1067-0.2519-0.35991,0-0.69882,0.051-1.0167,0.153-0.31792,0.1019-0.59685,0.2969-0.83678,0.5848-0.23394,0.2879-0.41989,0.6868-0.55785,1.1967-0.13797,0.5039-0.20695,1.1607-0.20694,1.9705-0.00001,0.6898,0.057,1.2746,0.17095,1.7545,0.11397,0.4739,0.27892,0.8578,0.49487,1.1517,0.22193,0.2939,0.49486,0.5069,0.81878,0.6388,0.32391,0.126,0.69581,0.189,1.1157,0.189,0.44988,0,0.82178-0.087,1.1157-0.261,0.29992-0.1739,0.53685-0.4258,0.71081-0.7558,0.17995-0.3299,0.30591-0.7318,0.3779-1.2056,0.072-0.4799,0.10797-1.0258,0.10797-1.6376"/>
<path id="path7399" d="m165.69,1047.7,0,8.5567-1.6196,0,0-8.5567-1.3676,0,0-1.1787,1.3676,0,0-1.0977c0-0.3539,0.033-0.6808,0.099-0.9808,0.066-0.3059,0.18594-0.5698,0.3599-0.7917,0.17995-0.228,0.42288-0.4049,0.7288-0.5309,0.30592-0.1319,0.70181-0.1979,1.1877-0.1979,0.19194,0,0.38989,0.01,0.59384,0.027,0.20994,0.018,0.39289,0.045,0.54885,0.081v1.2327c-0.10198-0.018-0.22194-0.033-0.3599-0.045-0.13197-0.018-0.25194-0.027-0.35991-0.027-0.23994,0-0.43788,0.033-0.59384,0.099-0.14996,0.066-0.26993,0.162-0.3599,0.2879-0.084,0.12-0.14397,0.27-0.17995,0.4499-0.03,0.18-0.045,0.3869-0.045,0.6208v0.8728h1.8985v1.1787h-1.8985"/>
<path id="path7401" d="m177.02,1051.4c-0.00001,1.7035-0.37491,2.9722-1.1247,3.806-0.74981,0.8338-1.8385,1.2506-3.2661,1.2506-0.67782,0-1.2837-0.1019-1.8175-0.3059-0.53386-0.2039-0.98674-0.5158-1.3586-0.9357-0.3659-0.4199-0.64783-0.9448-0.84577-1.5746-0.19195-0.6358-0.28793-1.3826-0.28793-2.2404,0-3.3591,1.4546-5.0386,4.3638-5.0387,0.75579,0.0001,1.4066,0.105,1.9525,0.315,0.55184,0.2099,1.0017,0.5248,1.3496,0.9447,0.35389,0.4199,0.61482,0.9448,0.78279,1.5746,0.16794,0.6298,0.25192,1.3646,0.25193,2.2044m-1.7006,0c0-0.7558-0.06-1.3796-0.17995-1.8715-0.11397-0.4919-0.28493-0.8848-0.51286-1.1787-0.22195-0.2939-0.49487-0.4978-0.81878-0.6118-0.32392-0.12-0.68982-0.18-1.0977-0.18-0.41389,0-0.78879,0.063-1.1247,0.189-0.32991,0.1199-0.61184,0.3299-0.84577,0.6298-0.23394,0.2939-0.41389,0.6868-0.53986,1.1787-0.11997,0.4919-0.17995,1.1067-0.17995,1.8445,0,0.7558,0.066,1.3826,0.19795,1.8805,0.13196,0.4919,0.31191,0.8848,0.53985,1.1787,0.23394,0.2939,0.50686,0.5008,0.81878,0.6208,0.31791,0.12,0.66282,0.18,1.0347,0.18,0.41388,0,0.78878-0.057,1.1247-0.171,0.3359-0.12,0.62083-0.3269,0.85477-0.6208,0.23393-0.2939,0.41388-0.6898,0.53986-1.1877,0.12595-0.4979,0.18894-1.1247,0.18894-1.8805"/>
<path id="path7403" d="m179.08,1056.3,0-7.468c0-0.2039-0.003-0.4109-0.009-0.6208,0-0.216-0.003-0.4229-0.009-0.6209-0.006-0.1979-0.012-0.3839-0.018-0.5578-0.006-0.174-0.012-0.3299-0.018-0.4679h1.5296c0.006,0.138,0.012,0.2969,0.018,0.4769,0.012,0.1739,0.021,0.3539,0.027,0.5398,0.012,0.186,0.018,0.3659,0.018,0.5399,0.006,0.1679,0.009,0.3119,0.009,0.4319h0.036c0.11397-0.3719,0.23393-0.6928,0.3599-0.9628,0.13196-0.2759,0.28492-0.5008,0.45888-0.6748,0.17395-0.1799,0.3809-0.3119,0.62084-0.3959,0.23993-0.09,0.53085-0.1349,0.87276-0.135,0.13196,0.0001,0.25793,0.012,0.3779,0.036,0.11996,0.018,0.21294,0.036,0.27893,0.054v1.4846c-0.10798-0.03-0.23395-0.051-0.3779-0.063-0.14397-0.018-0.30593-0.027-0.48587-0.027-0.37191,0.0001-0.68982,0.084-0.95375,0.252-0.25793,0.1679-0.47088,0.4019-0.63883,0.7018-0.16196,0.2939-0.28193,0.6478-0.3599,1.0617-0.078,0.4079-0.11697,0.8548-0.11697,1.3406v5.0747h-1.6196"/>
<path id="path7405" d="m194.06,1056.2c-0.24593,0.066-0.49787,0.117-0.75579,0.153-0.25194,0.042-0.54586,0.063-0.88177,0.063-1.2956,0-1.9435-0.7348-1.9435-2.2045v-6.4962h-1.1247v-1.1787h1.1877l0.47688-2.1774h1.0797v2.1774h1.7995v1.1787h-1.7995v6.1453c0,0.4679,0.075,0.7978,0.22494,0.9898,0.15595,0.1859,0.42288,0.2789,0.80078,0.2789,0.15596,0,0.30592-0.012,0.44988-0.036,0.14996-0.024,0.31192-0.054,0.48587-0.09v1.1967"/>
<path id="path7407" d="m197.03,1048.2c0.17995-0.3299,0.37489-0.6088,0.58484-0.8367,0.20994-0.234,0.44088-0.4259,0.69282-0.5759,0.25192-0.1499,0.52785-0.2579,0.82778-0.3239,0.29991-0.072,0.63582-0.1079,1.0077-0.108,0.62382,0.0001,1.1337,0.084,1.5296,0.252,0.40188,0.1679,0.7168,0.4049,0.94475,0.7108,0.23392,0.2999,0.39288,0.6598,0.47687,1.0797,0.09,0.4199,0.13495,0.8818,0.13496,1.3856v6.4873h-1.6286v-6.1724c-0.00001-0.4138-0.027-0.7767-0.081-1.0887-0.048-0.3119-0.14397-0.5698-0.28792-0.7738-0.14397-0.2099-0.34792-0.3659-0.61184-0.4678-0.26394-0.108-0.60584-0.162-1.0257-0.162-0.3839,0-0.73181,0.069-1.0437,0.207-0.30592,0.1379-0.56985,0.3329-0.79179,0.5848-0.21594,0.2519-0.3839,0.5579-0.50386,0.9178-0.11997,0.3599-0.17996,0.7648-0.17995,1.2146v5.7405h-1.6196v-13.352h1.6196v3.473c-0.00001,0.198-0.003,0.3959-0.009,0.5939-0.006,0.1979-0.015,0.3809-0.027,0.5488-0.006,0.168-0.012,0.312-0.018,0.4319-0.006,0.114-0.012,0.192-0.018,0.2339h0.027"/>
<path id="path7409" d="m206.92,1051.7c0,0.5099,0.051,0.9807,0.15296,1.4126,0.10797,0.4259,0.26992,0.7948,0.48587,1.1067,0.22194,0.306,0.50386,0.5459,0.84577,0.7198,0.34191,0.168,0.7528,0.252,1.2327,0.252,0.70181,0,1.2627-0.141,1.6826-0.4229,0.42588-0.2819,0.71381-0.6388,0.86377-1.0707l1.4216,0.4049c-0.10198,0.2699-0.24594,0.5428-0.43188,0.8187-0.17996,0.27-0.4229,0.5159-0.72881,0.7378-0.30592,0.216-0.68982,0.3959-1.1517,0.5399-0.45588,0.138-1.0077,0.2069-1.6556,0.2069-1.4396,0-2.5373-0.4288-3.2931-1.2866-0.7498-0.8578-1.1247-2.1324-1.1247-3.824,0-0.9117,0.11397-1.6825,0.34191-2.3124,0.22794-0.6358,0.53986-1.1517,0.93575-1.5476,0.39589-0.3958,0.85777-0.6808,1.3856-0.8547,0.52786-0.18,1.0917-0.2699,1.6916-0.27,0.81578,0.0001,1.4966,0.132,2.0425,0.3959,0.55184,0.264,0.99272,0.6299,1.3226,1.0977,0.3359,0.4619,0.57284,1.0078,0.71081,1.6376,0.14395,0.6298,0.21594,1.3107,0.21594,2.0425v0.2159h-6.9461m5.2726-1.2417c-0.09-1.0257-0.35091-1.7725-0.78279-2.2404-0.43189-0.4738-1.0527-0.7108-1.8625-0.7108-0.26993,0-0.55486,0.045-0.85477,0.135-0.29393,0.084-0.56686,0.2369-0.81879,0.4589-0.25193,0.2219-0.46487,0.5248-0.63882,0.9087-0.17396,0.3779-0.27293,0.8608-0.29693,1.4486h5.2546"/>
<path id="path7411" d="m230.37,1056.3-1.8805,0-1.5566-6.2803c-0.048-0.162-0.099-0.3629-0.15296-0.6029-0.048-0.2399-0.096-0.4738-0.14396-0.7018-0.06-0.2639-0.11698-0.5368-0.17096-0.8188-0.054,0.27-0.11097,0.5369-0.17095,0.8008-0.048,0.228-0.10198,0.4649-0.16196,0.7108-0.054,0.246-0.10498,0.4619-0.15296,0.6479l-1.6016,6.2443h-1.8715l-2.7263-9.7354h1.6016l1.6466,6.6132c0.042,0.138,0.084,0.3089,0.12597,0.5129,0.042,0.1979,0.084,0.3929,0.12596,0.5848,0.042,0.222,0.087,0.4499,0.13497,0.6839,0.048-0.228,0.099-0.4499,0.15296-0.6659,0.048-0.1859,0.096-0.3749,0.14396-0.5668,0.048-0.192,0.09-0.3509,0.12597-0.4769l1.7635-6.6852h1.7365l1.7006,6.6852c0.042,0.156,0.087,0.3329,0.13496,0.5309,0.048,0.1979,0.093,0.3839,0.13496,0.5578,0.048,0.204,0.096,0.4109,0.14397,0.6209,0.048-0.228,0.096-0.4499,0.14396-0.6659,0.042-0.1859,0.084-0.3779,0.12596-0.5758,0.048-0.204,0.093-0.3839,0.13497-0.5399l1.7185-6.6132h1.5836l-2.7893,9.7354"/>
<path id="path7413" d="m235.98,1048.2c0.17995-0.3299,0.3749-0.6088,0.58485-0.8367,0.20994-0.234,0.44087-0.4259,0.69281-0.5759,0.25193-0.1499,0.52786-0.2579,0.82778-0.3239,0.29991-0.072,0.63582-0.1079,1.0077-0.108,0.62383,0.0001,1.1337,0.084,1.5296,0.252,0.40189,0.1679,0.7168,0.4049,0.94475,0.7108,0.23393,0.2999,0.39289,0.6598,0.47687,1.0797,0.09,0.4199,0.13496,0.8818,0.13497,1.3856v6.4873h-1.6286v-6.1724c-0.00001-0.4138-0.027-0.7767-0.081-1.0887-0.048-0.3119-0.14397-0.5698-0.28792-0.7738-0.14397-0.2099-0.34791-0.3659-0.61184-0.4678-0.26393-0.108-0.60584-0.162-1.0257-0.162-0.3839,0-0.73181,0.069-1.0437,0.207-0.30593,0.1379-0.56986,0.3329-0.79179,0.5848-0.21595,0.2519-0.3839,0.5579-0.50387,0.9178s-0.17995,0.7648-0.17995,1.2146v5.7405h-1.6196v-13.352h1.6196v3.473c0,0.198-0.003,0.3959-0.009,0.5939-0.006,0.1979-0.015,0.3809-0.027,0.5488-0.006,0.168-0.012,0.312-0.018,0.4319-0.006,0.114-0.012,0.192-0.018,0.2339h0.027"/>
<path id="path7415" d="m252.86,1051.4c-0.00001,1.7035-0.37491,2.9722-1.1247,3.806-0.74981,0.8338-1.8385,1.2506-3.2661,1.2506-0.67782,0-1.2837-0.1019-1.8175-0.3059-0.53386-0.2039-0.98673-0.5158-1.3586-0.9357-0.36591-0.4199-0.64783-0.9448-0.84578-1.5746-0.19195-0.6358-0.28792-1.3826-0.28792-2.2404,0-3.3591,1.4546-5.0386,4.3638-5.0387,0.75579,0.0001,1.4066,0.105,1.9525,0.315,0.55185,0.2099,1.0017,0.5248,1.3496,0.9447,0.3539,0.4199,0.61483,0.9448,0.78279,1.5746,0.16795,0.6298,0.25193,1.3646,0.25194,2.2044m-1.7006,0c-0.00001-0.7558-0.06-1.3796-0.17995-1.8715-0.11398-0.4919-0.28493-0.8848-0.51286-1.1787-0.22195-0.2939-0.49488-0.4978-0.81879-0.6118-0.32391-0.12-0.68982-0.18-1.0977-0.18-0.4139,0-0.7888,0.063-1.1247,0.189-0.32992,0.1199-0.61184,0.3299-0.84578,0.6298-0.23394,0.2939-0.41389,0.6868-0.53985,1.1787-0.11997,0.4919-0.17996,1.1067-0.17995,1.8445-0.00001,0.7558,0.066,1.3826,0.19794,1.8805,0.13197,0.4919,0.31192,0.8848,0.53986,1.1787,0.23393,0.2939,0.50686,0.5008,0.81878,0.6208,0.31791,0.12,0.66282,0.18,1.0347,0.18,0.41389,0,0.78879-0.057,1.1247-0.171,0.33591-0.12,0.62083-0.3269,0.85478-0.6208,0.23393-0.2939,0.41388-0.6898,0.53985-1.1877,0.12596-0.4979,0.18894-1.1247,0.18895-1.8805"/>
<path id="path7417" d="m254.88,1056.3,0-13.352,1.6196,0,0,13.352-1.6196,0"/>
<path id="path7419" d="m260.22,1051.7c0,0.5099,0.051,0.9807,0.15296,1.4126,0.10797,0.4259,0.26993,0.7948,0.48587,1.1067,0.22194,0.306,0.50386,0.5459,0.84578,0.7198,0.3419,0.168,0.75279,0.252,1.2327,0.252,0.7018,0,1.2626-0.141,1.6826-0.4229,0.42588-0.2819,0.7138-0.6388,0.86377-1.0707l1.4216,0.4049c-0.10198,0.2699-0.24595,0.5428-0.43189,0.8187-0.17996,0.27-0.42289,0.5159-0.7288,0.7378-0.30593,0.216-0.68983,0.3959-1.1517,0.5399-0.45588,0.138-1.0077,0.2069-1.6556,0.2069-1.4396,0-2.5373-0.4288-3.2931-1.2866-0.7498-0.8578-1.1247-2.1324-1.1247-3.824,0-0.9117,0.11397-1.6825,0.34191-2.3124,0.22793-0.6358,0.53985-1.1517,0.93575-1.5476,0.39589-0.3958,0.85776-0.6808,1.3856-0.8547,0.52785-0.18,1.0917-0.2699,1.6915-0.27,0.81578,0.0001,1.4966,0.132,2.0425,0.3959,0.55184,0.264,0.99273,0.6299,1.3226,1.0977,0.3359,0.4619,0.57283,1.0078,0.71081,1.6376,0.14395,0.6298,0.21593,1.3107,0.21594,2.0425v0.2159h-6.9462m5.2726-1.2417c-0.09-1.0257-0.35091-1.7725-0.78279-2.2404-0.43189-0.4738-1.0527-0.7108-1.8625-0.7108-0.26993,0-0.55486,0.045-0.85477,0.135-0.29393,0.084-0.56685,0.2369-0.81878,0.4589-0.25194,0.2219-0.46488,0.5248-0.63883,0.9087-0.17396,0.3779-0.27293,0.8608-0.29692,1.4486h5.2546"/>
<path id="path7421" d="m282.58,1051.4c-0.00001,1.7035-0.37491,2.9722-1.1247,3.806-0.74981,0.8338-1.8385,1.2506-3.2661,1.2506-0.67783,0-1.2837-0.1019-1.8175-0.3059-0.53386-0.2039-0.98674-0.5158-1.3586-0.9357-0.36591-0.4199-0.64783-0.9448-0.84578-1.5746-0.19195-0.6358-0.28792-1.3826-0.28792-2.2404,0-3.3591,1.4546-5.0386,4.3638-5.0387,0.7558,0.0001,1.4066,0.105,1.9525,0.315,0.55185,0.2099,1.0017,0.5248,1.3496,0.9447,0.3539,0.4199,0.61483,0.9448,0.78279,1.5746,0.16795,0.6298,0.25193,1.3646,0.25194,2.2044m-1.7006,0c-0.00001-0.7558-0.06-1.3796-0.17995-1.8715-0.11398-0.4919-0.28493-0.8848-0.51287-1.1787-0.22194-0.2939-0.49487-0.4978-0.81878-0.6118-0.32392-0.12-0.68982-0.18-1.0977-0.18-0.4139,0-0.7888,0.063-1.1247,0.189-0.32992,0.1199-0.61184,0.3299-0.84578,0.6298-0.23394,0.2939-0.41389,0.6868-0.53985,1.1787-0.11997,0.4919-0.17996,1.1067-0.17996,1.8445,0,0.7558,0.066,1.3826,0.19795,1.8805,0.13196,0.4919,0.31192,0.8848,0.53986,1.1787,0.23393,0.2939,0.50686,0.5008,0.81878,0.6208,0.31791,0.12,0.66282,0.18,1.0347,0.18,0.41389,0,0.78879-0.057,1.1247-0.171,0.33591-0.12,0.62083-0.3269,0.85477-0.6208,0.23393-0.2939,0.41389-0.6898,0.53986-1.1877,0.12596-0.4979,0.18894-1.1247,0.18895-1.8805"/>
<path id="path7423" d="m286.61,1047.7,0,8.5567-1.6196,0,0-8.5567-1.3676,0,0-1.1787,1.3676,0,0-1.0977c0-0.3539,0.033-0.6808,0.099-0.9808,0.066-0.3059,0.18595-0.5698,0.3599-0.7917,0.17995-0.228,0.42289-0.4049,0.72881-0.5309,0.30591-0.1319,0.70181-0.1979,1.1877-0.1979,0.19194,0,0.38989,0.01,0.59384,0.027,0.20994,0.018,0.39289,0.045,0.54885,0.081v1.2327c-0.10197-0.018-0.22194-0.033-0.3599-0.045-0.13197-0.018-0.25194-0.027-0.3599-0.027-0.23994,0-0.43789,0.033-0.59385,0.099-0.14996,0.066-0.26993,0.162-0.3599,0.2879-0.084,0.12-0.14396,0.27-0.17995,0.4499-0.03,0.18-0.045,0.3869-0.045,0.6208v0.8728h1.8985v1.1787h-1.8985"/>
<path id="path7425" d="m295.1,1056.3,0-12.678,9.6184,0,0,1.4036-7.8999,0,0,4.0669,7.36,0,0,1.3856-7.36,0,0,4.4179,8.2688,0,0,1.4036-9.9873,0"/>
<path id="path7427" d="m308.72,1046.5,0,6.1723c-0.00001,0.4739,0.033,0.8698,0.099,1.1877,0.072,0.3179,0.18595,0.5759,0.34191,0.7738,0.15595,0.192,0.3599,0.3299,0.61184,0.4139,0.25792,0.078,0.57584,0.117,0.95374,0.117,0.38389,0,0.7288-0.066,1.0347-0.198,0.31191-0.1379,0.57584-0.3329,0.79178-0.5848,0.22194-0.2579,0.39289-0.5729,0.51287-0.9448,0.11996-0.3779,0.17994-0.8097,0.17995-1.2956v-5.6415h1.6196v7.6569c-0.00001,0.204-0.00001,0.4199,0,0.6479,0.006,0.2219,0.012,0.4349,0.018,0.6388,0.006,0.198,0.012,0.3689,0.018,0.5129,0.006,0.1439,0.012,0.2369,0.018,0.2789h-1.5296c-0.006-0.03-0.012-0.111-0.018-0.2429-0.006-0.132-0.015-0.282-0.027-0.4499-0.006-0.174-0.012-0.3479-0.018-0.5219-0.006-0.1799-0.009-0.3299-0.009-0.4499h-0.027c-0.15597,0.282-0.32692,0.5369-0.51287,0.7648-0.18595,0.228-0.4019,0.4229-0.64782,0.5849-0.24594,0.1559-0.52787,0.2759-0.84578,0.3599-0.31792,0.09-0.68682,0.1349-1.1067,0.1349-0.53986,0-1.0047-0.066-1.3946-0.1979-0.3899-0.132-0.71081-0.3359-0.96274-0.6118-0.25194-0.276-0.43789-0.6299-0.55785-1.0618-0.11397-0.4318-0.17096-0.9507-0.17096-1.5565v-6.4873h1.6286"/>
<path id="path7429" d="m317.43,1056.3,0-7.468c0-0.2039-0.003-0.4109-0.009-0.6208-0.00001-0.216-0.003-0.4229-0.009-0.6209-0.006-0.1979-0.012-0.3839-0.018-0.5578-0.006-0.174-0.012-0.3299-0.018-0.4679h1.5296c0.006,0.138,0.012,0.2969,0.018,0.4769,0.012,0.1739,0.021,0.3539,0.027,0.5398,0.012,0.186,0.018,0.3659,0.018,0.5399,0.006,0.1679,0.009,0.3119,0.009,0.4319h0.036c0.11397-0.3719,0.23394-0.6928,0.3599-0.9628,0.13197-0.2759,0.28493-0.5008,0.45888-0.6748,0.17395-0.1799,0.3809-0.3119,0.62084-0.3959,0.23993-0.09,0.53085-0.1349,0.87276-0.135,0.13196,0.0001,0.25793,0.012,0.3779,0.036,0.11996,0.018,0.21294,0.036,0.27893,0.054v1.4846c-0.10798-0.03-0.23395-0.051-0.3779-0.063-0.14397-0.018-0.30592-0.027-0.48587-0.027-0.37191,0.0001-0.68982,0.084-0.95375,0.252-0.25793,0.1679-0.47087,0.4019-0.63883,0.7018-0.16196,0.2939-0.28192,0.6478-0.3599,1.0617-0.078,0.4079-0.11697,0.8548-0.11697,1.3406v5.0747h-1.6196"/>
<path id="path7431" d="m331.78,1051.4c-0.00001,1.7035-0.37491,2.9722-1.1247,3.806-0.7498,0.8338-1.8385,1.2506-3.2661,1.2506-0.67783,0-1.2837-0.1019-1.8175-0.3059-0.53386-0.2039-0.98674-0.5158-1.3586-0.9357-0.3659-0.4199-0.64782-0.9448-0.84577-1.5746-0.19195-0.6358-0.28792-1.3826-0.28792-2.2404,0-3.3591,1.4546-5.0386,4.3638-5.0387,0.75579,0.0001,1.4066,0.105,1.9525,0.315,0.55184,0.2099,1.0017,0.5248,1.3496,0.9447,0.3539,0.4199,0.61483,0.9448,0.78279,1.5746,0.16795,0.6298,0.25192,1.3646,0.25193,2.2044m-1.7005,0c-0.00001-0.7558-0.06-1.3796-0.17995-1.8715-0.11398-0.4919-0.28494-0.8848-0.51287-1.1787-0.22195-0.2939-0.49487-0.4978-0.81878-0.6118-0.32392-0.12-0.68982-0.18-1.0977-0.18-0.41389,0-0.78879,0.063-1.1247,0.189-0.32991,0.1199-0.61184,0.3299-0.84577,0.6298-0.23394,0.2939-0.41389,0.6868-0.53986,1.1787-0.11997,0.4919-0.17995,1.1067-0.17995,1.8445,0,0.7558,0.066,1.3826,0.19795,1.8805,0.13196,0.4919,0.31191,0.8848,0.53985,1.1787,0.23394,0.2939,0.50687,0.5008,0.81879,0.6208,0.31791,0.12,0.66281,0.18,1.0347,0.18,0.41388,0,0.78878-0.057,1.1247-0.171,0.3359-0.12,0.62083-0.3269,0.85477-0.6208,0.23393-0.2939,0.41388-0.6898,0.53986-1.1877,0.12596-0.4979,0.18894-1.1247,0.18895-1.8805"/>
<path id="path7433" d="m342.04,1051.3c-0.00001,0.7378-0.06,1.4186-0.17996,2.0425-0.11997,0.6238-0.32092,1.1607-0.60283,1.6105-0.27594,0.4499-0.64484,0.8038-1.1067,1.0617-0.45588,0.252-1.0197,0.3779-1.6916,0.3779-0.69582,0-1.3046-0.1319-1.8265-0.3958-0.52186-0.264-0.92076-0.6959-1.1967-1.2957h-0.045c0.006,0.012,0.009,0.066,0.009,0.162,0.006,0.096,0.009,0.2159,0.009,0.3599,0.006,0.1439,0.009,0.3059,0.009,0.4858,0.006,0.174,0.009,0.3479,0.009,0.5219v3.806h-1.6196v-11.571c0-0.234-0.003-0.4589-0.009-0.6749,0-0.2159-0.003-0.4108-0.009-0.5848-0.006-0.1799-0.012-0.3329-0.018-0.4589-0.006-0.1259-0.012-0.2159-0.018-0.2699h1.5656c0.006,0.018,0.012,0.081,0.018,0.1889,0.012,0.108,0.021,0.24,0.027,0.3959,0.012,0.15,0.021,0.312,0.027,0.4859,0.012,0.174,0.018,0.3389,0.018,0.4949h0.036c0.14995-0.3119,0.32091-0.5759,0.51286-0.7918,0.19195-0.2219,0.41089-0.4019,0.65682-0.5399,0.24593-0.1439,0.51886-0.2459,0.81879-0.3059,0.30591-0.066,0.64782-0.099,1.0257-0.099,0.67182,0,1.2357,0.12,1.6916,0.3599,0.46187,0.24,0.83077,0.5789,1.1067,1.0168,0.28191,0.4319,0.48286,0.9567,0.60283,1.5746,0.11996,0.6118,0.17995,1.2926,0.17996,2.0424m-1.7006,0.036c-0.00001-0.5998-0.036-1.1337-0.10797-1.6016-0.072-0.4678-0.19796-0.8637-0.3779-1.1877-0.17396-0.3239-0.4079-0.5698-0.70181-0.7378-0.29393-0.1679-0.66283-0.2519-1.1067-0.2519-0.35991,0-0.69882,0.051-1.0167,0.153-0.31792,0.1019-0.59684,0.2969-0.83677,0.5848-0.23394,0.2879-0.41989,0.6868-0.55785,1.1967-0.13797,0.5039-0.20695,1.1607-0.20695,1.9705,0,0.6898,0.057,1.2746,0.17096,1.7545,0.11396,0.4739,0.27892,0.8578,0.49486,1.1517,0.22194,0.2939,0.49487,0.5069,0.81879,0.6388,0.3239,0.126,0.6958,0.189,1.1157,0.189,0.44987,0,0.82177-0.087,1.1157-0.261,0.29991-0.1739,0.53685-0.4258,0.71081-0.7558,0.17994-0.3299,0.30591-0.7318,0.3779-1.2056,0.072-0.4799,0.10796-1.0258,0.10797-1.6376"/>
<path id="path7435" d="m345.31,1051.7c-0.00001,0.5099,0.051,0.9807,0.15296,1.4126,0.10796,0.4259,0.26992,0.7948,0.48587,1.1067,0.22193,0.306,0.50386,0.5459,0.84577,0.7198,0.3419,0.168,0.75279,0.252,1.2327,0.252,0.70181,0,1.2627-0.141,1.6826-0.4229,0.42588-0.2819,0.7138-0.6388,0.86377-1.0707l1.4216,0.4049c-0.10198,0.2699-0.24594,0.5428-0.43188,0.8187-0.17996,0.27-0.4229,0.5159-0.72881,0.7378-0.30593,0.216-0.68982,0.3959-1.1517,0.5399-0.45589,0.138-1.0077,0.2069-1.6556,0.2069-1.4396,0-2.5373-0.4288-3.2931-1.2866-0.7498-0.8578-1.1247-2.1324-1.1247-3.824,0-0.9117,0.11397-1.6825,0.34191-2.3124,0.22794-0.6358,0.53985-1.1517,0.93575-1.5476,0.39589-0.3958,0.85777-0.6808,1.3856-0.8547,0.52785-0.18,1.0917-0.2699,1.6916-0.27,0.81577,0.0001,1.4966,0.132,2.0424,0.3959,0.55185,0.264,0.99273,0.6299,1.3226,1.0977,0.3359,0.4619,0.57284,1.0078,0.71081,1.6376,0.14395,0.6298,0.21593,1.3107,0.21594,2.0425v0.2159h-6.9461m5.2726-1.2417c-0.09-1.0257-0.35092-1.7725-0.78279-2.2404-0.43189-0.4738-1.0527-0.7108-1.8625-0.7108-0.26993,0-0.55485,0.045-0.85477,0.135-0.29392,0.084-0.56685,0.2369-0.81878,0.4589-0.25193,0.2219-0.46488,0.5248-0.63883,0.9087-0.17395,0.3779-0.27293,0.8608-0.29692,1.4486h5.2546"/>
</g>
<g id="text7051" style="letter-spacing:0px;word-spacing:0px;" font-weight="normal" transform="scale(1.0015042,0.99849806)" font-stretch="normal" line-height="125%" font-size="39.17773438px" font-variant="normal" font-family="Liberation Sans" font-style="normal" fill="#999">
<path id="path7372" d="m118.77,1033.1,0-26.207c-0.00004-1.0433,0.0102-2.1174,0.0307-3.2221,0.0409-1.1048,0.0818-2.1174,0.12275-3.0381,0.0613-1.0842,0.11248-2.1378,0.15344-3.1608-0.42966,1.6162-0.83883,3.1506-1.2275,4.6031-0.16371,0.6138-0.3376,1.248-0.52169,1.9026-0.18416,0.6547-0.36828,1.2889-0.55237,1.9026-0.1637,0.6138-0.32737,1.1866-0.49099,1.7185-0.16371,0.532-0.30692,0.9923-0.42963,1.381l-7.7946,24.12h-6.4443l-7.7946-24.12c-0.12276-0.3887-0.26597-0.849-0.42962-1.381-0.14322-0.5319-0.30689-1.1047-0.491-1.7185-0.16368-0.6137-0.33757-1.2479-0.52168-1.9026-0.18414-0.6546-0.36826-1.2888-0.55237-1.9026-0.40918-1.4525-0.8388-2.9868-1.2889-4.6031,0.06136,1.1866,0.12274,2.3527,0.18412,3.4984,0.0409,0.982,0.08182,2.0151,0.12275,3.0994,0.0409,1.0843,0.06136,2.0254,0.06137,2.8232v26.207h-8.0401v-43.238h12.121l7.7332,24.182c0.20456,0.6342,0.41937,1.4116,0.64444,2.3322,0.24547,0.9206,0.48074,1.8106,0.7058,2.6698,0.24548,1.0025,0.51143,2.0458,0.79787,3.1301,0.28639-1.0638,0.56258-2.0867,0.82856-3.0687,0.12272-0.4296,0.24547-0.8695,0.36825-1.3196,0.12272-0.45,0.24547-0.8899,0.36825-1.3195,0.12272-0.4296,0.24547-0.8388,0.36825-1.2275,0.12272-0.3887,0.23524-0.7365,0.33756-1.0434l7.6104-24.335h12.06v43.238h-8.0401"/>
<path id="path7374" d="m165.84,1033.1-3.8359-11.047-16.479,0-3.8359,11.047-9.0528,0,15.773-43.238,10.679,0,15.712,43.238-8.9607,0m-10.127-30.288c-0.24552-0.716-0.49102-1.432-0.73649-2.1481-0.22507-0.73646-0.42965-1.4014-0.61375-1.9947-0.16369-0.61371-0.30689-1.1149-0.42962-1.5037-0.10231-0.38867-0.16369-0.60348-0.18412-0.64444-0.0205,0.0614-0.0819,0.28646-0.18413,0.67513-0.10231,0.38874-0.24552,0.87973-0.42962,1.473-0.16369,0.59332-0.36827,1.2582-0.61375,1.9947-0.22506,0.7161-0.46033,1.4321-0.7058,2.1481l-4.2655,12.428h12.428l-4.2655-12.428"/>
<path id="path7376" d="m216.26,1003.6c-0.00004,1.8617-0.31714,3.6621-0.95131,5.401-0.61378,1.7185-1.5651,3.2426-2.8539,4.5724-1.2889,1.3298-2.9256,2.3936-4.91,3.1915-1.9845,0.7774-4.3372,1.1661-7.0581,1.1661h-10.741v15.221h-9.0528v-43.238h19.425c2.7618,0.00004,5.1554,0.3376,7.1808,1.0127,2.0253,0.6547,3.7029,1.5856,5.0327,2.7925,1.3298,1.2071,2.3117,2.6494,2.946,4.3269,0.65463,1.6776,0.98196,3.5291,0.982,5.5544m-9.1141,0.1534c-0.00003-2.2299-0.67515-3.9177-2.0254-5.0634-1.3298-1.1661-3.3347-1.7491-6.0147-1.7492h-9.3596v14.024h9.6051c1.3502,0,2.5061-0.1739,3.4677-0.5217,0.98196-0.3478,1.7901-0.8388,2.4243-1.473,0.65464-0.6342,1.1354-1.3911,1.4423-2.2709,0.30684-0.9001,0.46028-1.8821,0.46031-2.946"/>
<path id="path7378" d="m222.43,1033.1,0-6.4137,10.71,0,0-29.49-10.372,6.4751,0-6.7819,10.833-7.0274,8.1628,0,0,36.825,9.912,0,0,6.4137-29.245,0"/>
<path id="path7380" d="m257.72,1033.1,0-9.3596,8.8686,0,0,9.3596-8.8686,0"/>
<path id="path7382" d="m275.09,1033.1,0-43.238,34.002,0,0,6.9967-24.949,0,0,10.863,23.077,0,0,6.9967-23.077,0,0,11.385,26.207,0,0,6.9967-35.26,0"/>
<path id="path7384" d="m335.05,1033.7c-2.7005,0-5.1759-0.3171-7.4263-0.9513-2.2504-0.6546-4.1939-1.6571-5.8306-3.0073-1.6162-1.3707-2.8846-3.1199-3.8052-5.2476-0.90017-2.1276-1.3502-4.6644-1.3502-7.6104v-27.036h9.0528v26.33c-0.00001,1.8208,0.22503,3.3961,0.67512,4.7258,0.45007,1.3094,1.0945,2.3936,1.9333,3.2529,0.83877,0.8388,1.8514,1.4628,3.038,1.8719,1.1866,0.3887,2.5061,0.5831,3.9587,0.5831,1.473,0,2.8232-0.2046,4.0507-0.6138,1.2479-0.4296,2.3118-1.0843,3.1915-1.964,0.90013-0.8797,1.5957-1.9946,2.0867-3.3449,0.49097-1.3502,0.73647-2.9562,0.7365-4.8179v-26.023h9.0528v26.575c-0.00004,2.9664-0.48081,5.5339-1.4423,7.7025-0.96157,2.1686-2.3016,3.9689-4.02,5.401-1.7185,1.4116-3.7644,2.4652-6.1375,3.1608-2.3527,0.6751-4.9407,1.0126-7.7639,1.0126"/>
</g>
<path id="path4012" fill="#7A3" d="m10.681,988.41c-5.3336,0-10.667,5.3336-10.667,10.667v53.265l53.336,0.072c5.3336-0.0002,10.667-5.3338,10.667-10.667v-53.407z"/>
<path id="path4522" fill="#FFF" d="m0.013393,1036.3l16.001-8.0004c8.0004-8.0004,8.0004-24.001,16.001-32.002,8.0004-8.0004,16.001-8.0004,16.001-8.0004h16.001v16.001l-16.001,8.0004c-8.0004,8.0004-8.0004,24.001-16.001,32.002-8.0004,8.0005-16.001,8.0005-16.001,8.0005h-16.001v-16.001"/>
</g>
</svg>
