<?xml version="1.0" encoding="UTF-8" standalone="no"?>
<!-- Created with Inkscape (http://www.inkscape.org/) -->

<svg
   xmlns:dc="http://purl.org/dc/elements/1.1/"
   xmlns:cc="http://creativecommons.org/ns#"
   xmlns:rdf="http://www.w3.org/1999/02/22-rdf-syntax-ns#"
   xmlns:svg="http://www.w3.org/2000/svg"
   xmlns="http://www.w3.org/2000/svg"
   xmlns:sodipodi="http://sodipodi.sourceforge.net/DTD/sodipodi-0.dtd"
   xmlns:inkscape="http://www.inkscape.org/namespaces/inkscape"
   width="48"
   height="48"
   id="svg2"
   inkscape:label="Pozadí"
   version="1.1"
   inkscape:version="0.48.3.1 r9886"
   sodipodi:docname="route-car.svg">
  <defs
     id="defs3" />
  <sodipodi:namedview
     id="base"
     pagecolor="#ffffff"
     bordercolor="#666666"
     borderopacity="1.0"
     inkscape:pageopacity="0.0"
     inkscape:pageshadow="2"
     inkscape:zoom="11.2"
     inkscape:cx="13.700172"
     inkscape:cy="27.377404"
     inkscape:document-units="px"
     inkscape:current-layer="layer1"
     showgrid="true"
     inkscape:snap-grids="false"
     inkscape:window-width="1600"
     inkscape:window-height="1147"
     inkscape:window-x="0"
     inkscape:window-y="0"
     inkscape:window-maximized="1">
    <inkscape:grid
       type="xygrid"
       id="grid2984"
       empspacing="4"
       visible="true"
       enabled="true"
       snapvisiblegridlinesonly="true"
       spacingx="6px"
       spacingy="6px" />
  </sodipodi:namedview>
  <metadata
     id="metadata6">
    <rdf:RDF>
      <cc:Work
         rdf:about="">
        <dc:format>image/svg+xml</dc:format>
        <dc:type
           rdf:resource="http://purl.org/dc/dcmitype/StillImage" />
        <dc:title></dc:title>
      </cc:Work>
    </rdf:RDF>
  </metadata>
  <g
     inkscape:label="Vrstva 1"
     inkscape:groupmode="layer"
     id="layer1"
     transform="translate(0,-1004.3622)">
    <path
       style="fill:#77aa33;fill-opacity:1;stroke:none"
       d="M 0,12 C 0,6 6,0 12,0 l 36,0 0,36 c 0,6 -6,12 -12,12 L 0,48 z"
       id="path2986"
       inkscape:connector-curvature="0"
       transform="translate(0,1004.3622)"
       sodipodi:nodetypes="ccccccc" />
    <path
       style="fill:#ffffff;fill-opacity:1;fill-rule:evenodd;stroke:none"
       d="M 12.6875 9 C 9.3562572 9.1310039 9.8502895 10.059875 7.875 14.625 C 3.5065371 25.3706 3.901674 19.15825 4 26.40625 C 4.1545109 33.27495 1.5811414 31.42385 23.4375 31.71875 C 45.462417 31.48015 42.845488 33.295 43 26.1875 C 43.028094 19.7121 43.342107 24.89965 39.15625 14.96875 C 35.813182 7.21515 38.739676 9.32635 24.1875 9.03125 C 18.056199 9.131375 14.686246 8.9213977 12.6875 9 z M 9.0625 21.84375 C 10.571464 21.84375 11.8125 23.053536 11.8125 24.5625 C 11.8125 26.071464 10.571464 27.3125 9.0625 27.3125 C 7.5535364 27.3125 6.34375 26.071464 6.34375 24.5625 C 6.34375 23.053536 7.5535364 21.84375 9.0625 21.84375 z M 37.84375 21.84375 C 39.352714 21.84375 40.5625 23.053536 40.5625 24.5625 C 40.5625 26.071464 39.352714 27.3125 37.84375 27.3125 C 36.334786 27.3125 35.09375 26.071464 35.09375 24.5625 C 35.09375 23.053536 36.334786 21.84375 37.84375 21.84375 z M 11.875 32.46875 L 6.28125 32.5 C 6.3311932 39.5186 5.7728876 39.14125 9.40625 39.15625 C 12.457462 39.11095 11.85784 39.49365 11.875 32.46875 z M 35.09375 32.53125 C 35.139011 39.57955 34.720921 39.081 38 39.125 C 41.171387 39.1062 40.68129 39.56705 40.71875 32.53125 L 35.09375 32.53125 z "
       transform="translate(0,1004.3622)"
       id="Car" />
  </g>
</svg>
