<?xml version="1.0" encoding="UTF-8" standalone="no"?>
<!-- Created with Inkscape (http://www.inkscape.org/) -->

<svg
   xmlns:dc="http://purl.org/dc/elements/1.1/"
   xmlns:cc="http://creativecommons.org/ns#"
   xmlns:rdf="http://www.w3.org/1999/02/22-rdf-syntax-ns#"
   xmlns:svg="http://www.w3.org/2000/svg"
   xmlns="http://www.w3.org/2000/svg"
   xmlns:sodipodi="http://sodipodi.sourceforge.net/DTD/sodipodi-0.dtd"
   xmlns:inkscape="http://www.inkscape.org/namespaces/inkscape"
   width="64"
   height="64"
   id="svg2"
   inkscape:label="Pozadí"
   version="1.1"
   inkscape:version="0.48.4 r9939"
   sodipodi:docname="ammonit.svg">
  <defs
     id="defs3" />
  <sodipodi:namedview
     id="base"
     pagecolor="#ffffff"
     bordercolor="#666666"
     borderopacity="1.0"
     inkscape:pageopacity="0.0"
     inkscape:pageshadow="2"
     inkscape:zoom="5.6"
     inkscape:cx="6.4927452"
     inkscape:cy="23.928906"
     inkscape:document-units="px"
     inkscape:current-layer="layer1"
     showgrid="true"
     inkscape:window-width="1400"
     inkscape:window-height="997"
     inkscape:window-x="0"
     inkscape:window-y="0"
     inkscape:window-maximized="1"
     inkscape:snap-grids="false">
    <inkscape:grid
       type="xygrid"
       id="grid2984"
       empspacing="4"
       visible="true"
       enabled="true"
       snapvisiblegridlinesonly="true"
       spacingx="5.3333px"
       spacingy="5.3333px" />
  </sodipodi:namedview>
  <metadata
     id="metadata6">
    <rdf:RDF>
      <cc:Work
         rdf:about="">
        <dc:format>image/svg+xml</dc:format>
        <dc:type
           rdf:resource="http://purl.org/dc/dcmitype/StillImage" />
        <dc:title></dc:title>
      </cc:Work>
    </rdf:RDF>
  </metadata>
  <g
     inkscape:label="Vrstva 1"
     inkscape:groupmode="layer"
     id="layer1"
     transform="translate(0,-988.36218)">
    <path
       style="font-size:medium;font-style:normal;font-variant:normal;font-weight:normal;font-stretch:normal;text-indent:0;text-align:start;text-decoration:none;line-height:normal;letter-spacing:normal;word-spacing:normal;text-transform:none;direction:ltr;block-progression:tb;writing-mode:lr-tb;text-anchor:start;baseline-shift:baseline;color:#000000;fill:#ffffff;fill-opacity:1;stroke:none;stroke-width:8;marker:none;visibility:visible;display:inline;overflow:visible;enable-background:accumulate;font-family:Sans;-inkscape-font-specification:Sans"
       d="m 34.617837,992.21512 c -4.191104,-0.33675 -8.460917,0.0902 -12.465085,1.53374 -8.596482,3.09915 -16.6140173,9.93424 -19.8270153,18.87894 -3.5172294,9.7916 -3.12121028,21.9127 3.9598258,31.2882 a 3.5722952,3.5722952 0 1 0 5.6887635,-4.3224 c -5.3543159,-7.0893 -5.7764879,-16.6876 -2.955926,-24.5398 2.274274,-6.3313 8.887222,-12.1786 15.560442,-14.5844 5.712482,-2.05949 13.225038,-1.26619 19.185635,1.3385 4.310029,1.8835 8.386781,5.633 10.317856,9.7323 2.617571,5.5565 3.350636,12.8758 1.310647,18.2654 -1.665772,4.4008 -6.037332,8.6547 -10.513059,10.3457 -4.218705,1.5939 -9.996846,1.2524 -13.998821,-0.8087 -4.259559,-2.1937 -8.173961,-6.8685 -9.118754,-11.2659 -0.760539,-3.5399 0.441815,-8.4665 2.78861,-11.0429 2.844341,-3.1228 9.610255,-3.5058 13.385327,-1.4781 4.109315,2.2074 5.377868,5.7569 4.71275,8.84 -0.119992,0.5562 -0.726956,1.5829 -1.64528,2.3145 -0.918323,0.7316 -2.031668,1.0968 -2.593407,1.0876 -0.195723,0 -1.378805,-0.434 -2.370318,-1.3665 -0.991513,-0.9325 -1.758498,-2.3763 -1.756824,-2.3702 a 3.572061,3.572061 0 0 0 -6.887866,1.8962 c 0.633981,2.2901 1.988945,3.9909 3.764623,5.6608 1.775678,1.6701 4.028933,3.2678 7.110955,3.3185 2.764272,0.045 5.187871,-1.0727 7.166727,-2.6492 1.978855,-1.5764 3.629307,-3.6904 4.210801,-6.3859 1.348736,-6.2519 -1.771832,-13.0931 -8.337944,-16.6201 -6.695289,-3.5963 -16.270853,-3.3668 -22.030016,2.9559 -4.229065,4.643 -5.808269,11.3376 -4.517548,17.3452 1.515607,7.0542 6.701849,12.9489 12.855491,16.1182 6.025038,3.103 13.467084,3.5078 19.799129,1.1154 6.556833,-2.4773 12.158861,-7.8715 14.668087,-14.5008 2.935591,-7.7556 1.810653,-16.6561 -1.561622,-23.8147 -2.808506,-5.9618 -8.034258,-10.64809 -13.915162,-13.21801 -3.70213,-1.61782 -7.799918,-2.73071 -11.991022,-3.06747 z"
       id="path4019"
       inkscape:connector-curvature="0" />
  </g>
</svg>
