<?xml version="1.0" encoding="UTF-8" standalone="no"?>
<!-- Created with Inkscape (http://www.inkscape.org/) -->

<svg
   xmlns:dc="http://purl.org/dc/elements/1.1/"
   xmlns:cc="http://creativecommons.org/ns#"
   xmlns:rdf="http://www.w3.org/1999/02/22-rdf-syntax-ns#"
   xmlns:svg="http://www.w3.org/2000/svg"
   xmlns="http://www.w3.org/2000/svg"
   xmlns:sodipodi="http://sodipodi.sourceforge.net/DTD/sodipodi-0.dtd"
   xmlns:inkscape="http://www.inkscape.org/namespaces/inkscape"
   width="64"
   height="64"
   id="svg2"
   inkscape:label="Pozadí"
   version="1.1"
   inkscape:version="0.48.4 r9939"
   sodipodi:docname="hiker.svg">
  <defs
     id="defs3" />
  <sodipodi:namedview
     id="base"
     pagecolor="#ffffff"
     bordercolor="#666666"
     borderopacity="1.0"
     inkscape:pageopacity="0.0"
     inkscape:pageshadow="2"
     inkscape:zoom="8.48"
     inkscape:cx="40.181461"
     inkscape:cy="23.921754"
     inkscape:document-units="px"
     inkscape:current-layer="layer1"
     showgrid="true"
     inkscape:window-width="1400"
     inkscape:window-height="997"
     inkscape:window-x="0"
     inkscape:window-y="0"
     inkscape:window-maximized="1"
     inkscape:snap-grids="false">
    <inkscape:grid
       type="xygrid"
       id="grid2984"
       empspacing="4"
       visible="true"
       enabled="true"
       snapvisiblegridlinesonly="true"
       spacingx="5.3333px"
       spacingy="5.3333px" />
  </sodipodi:namedview>
  <metadata
     id="metadata6">
    <rdf:RDF>
      <cc:Work
         rdf:about="">
        <dc:format>image/svg+xml</dc:format>
        <dc:type
           rdf:resource="http://purl.org/dc/dcmitype/StillImage" />
        <dc:title></dc:title>
      </cc:Work>
    </rdf:RDF>
  </metadata>
  <g
     inkscape:label="Vrstva 1"
     inkscape:groupmode="layer"
     id="layer1"
     transform="translate(0,-988.36218)">
    <path
       style="font-size:medium;font-style:normal;font-variant:normal;font-weight:normal;font-stretch:normal;text-indent:0;text-align:start;text-decoration:none;line-height:normal;letter-spacing:normal;word-spacing:normal;text-transform:none;direction:ltr;block-progression:tb;writing-mode:lr-tb;text-anchor:start;baseline-shift:baseline;color:#000000;fill:#ffffff;fill-opacity:1;stroke:none;stroke-width:5;marker:none;visibility:visible;display:inline;overflow:visible;enable-background:accumulate;font-family:Sans;-inkscape-font-specification:Sans"
       d="m 31.10078,988.66617 c -1.332096,-0.10432 -2.569014,0.36665 -3.576845,1.50831 -1.355085,1.53502 -1.646938,5.05061 -1.034269,7.92939 l 0,5.17143 c -1.149487,-0.257 -2.412468,-0.3559 -3.878506,-0.2586 -9.967987,3.0921 -8.657562,13.2395 -4.007791,20.5992 2.447275,2.408 5.296278,3.4499 7.886297,3.2752 l 0,4.7835 -9.954834,14.4367 a 3.4479065,3.4479065 0 0 0 2.499482,5.3868 l 5.042059,0.474 a 3.4479065,3.4479065 0 0 0 1.422119,-6.7227 l 3.706129,-5.3868 4.438735,9.9117 c 0.505655,1.1257 1.656701,1.9332 2.887334,2.0254 l 4.568018,0.3448 c 1.80514,0.1242 3.538931,-1.3839 3.663035,-3.189 0.124099,-1.8051 -1.383855,-3.582 -3.188994,-3.7061 l -2.499482,-0.1724 -5.688477,-12.7129 c 0,0 1.265848,-4.0382 1.465213,-6.1194 0.02217,-0.2315 0.02406,-0.4915 0.04309,-0.7326 l 7.369163,6.7227 a 3.4479065,3.4479065 0 1 0 4.654209,-5.0851 L 35.06547,1016.333 c -0.132315,-5.1616 -0.534099,-10.1997 -0.904984,-14.5229 0.955619,-0.4956 1.870128,-1.1357 2.628766,-1.89625 2.49904,-2.50507 0.976331,-7.33821 -1.637592,-9.4377 -1.306962,-1.04976 -2.718789,-1.70569 -4.050886,-1.80998 z"
       id="path4506"
       inkscape:connector-curvature="0" />
  </g>
</svg>
