<?xml version="1.0" encoding="UTF-8" standalone="no"?>
<!-- Created with Inkscape (http://www.inkscape.org/) -->

<svg
   xmlns:dc="http://purl.org/dc/elements/1.1/"
   xmlns:cc="http://creativecommons.org/ns#"
   xmlns:rdf="http://www.w3.org/1999/02/22-rdf-syntax-ns#"
   xmlns:svg="http://www.w3.org/2000/svg"
   xmlns="http://www.w3.org/2000/svg"
   xmlns:sodipodi="http://sodipodi.sourceforge.net/DTD/sodipodi-0.dtd"
   xmlns:inkscape="http://www.inkscape.org/namespaces/inkscape"
   width="64"
   height="64"
   id="svg2"
   inkscape:label="Pozadí"
   version="1.1"
   inkscape:version="0.48.4 r9939"
   sodipodi:docname="shell_modern.svg">
  <defs
     id="defs3" />
  <sodipodi:namedview
     id="base"
     pagecolor="#ffffff"
     bordercolor="#666666"
     borderopacity="1.0"
     inkscape:pageopacity="0.0"
     inkscape:pageshadow="2"
     inkscape:zoom="5.6"
     inkscape:cx="6.4927452"
     inkscape:cy="23.928906"
     inkscape:document-units="px"
     inkscape:current-layer="layer1"
     showgrid="true"
     inkscape:window-width="1400"
     inkscape:window-height="997"
     inkscape:window-x="0"
     inkscape:window-y="0"
     inkscape:window-maximized="1"
     inkscape:snap-grids="false">
    <inkscape:grid
       type="xygrid"
       id="grid2984"
       empspacing="4"
       visible="true"
       enabled="true"
       snapvisiblegridlinesonly="true"
       spacingx="5.3333px"
       spacingy="5.3333px" />
  </sodipodi:namedview>
  <metadata
     id="metadata6">
    <rdf:RDF>
      <cc:Work
         rdf:about="">
        <dc:format>image/svg+xml</dc:format>
        <dc:type
           rdf:resource="http://purl.org/dc/dcmitype/StillImage" />
        <dc:title></dc:title>
      </cc:Work>
    </rdf:RDF>
  </metadata>
  <g
     inkscape:label="Vrstva 1"
     inkscape:groupmode="layer"
     id="layer1"
     transform="translate(0,-988.36218)">
    <path
       style="fill:#ffffff;fill-opacity:1;stroke:none"
       d="m 1.1584431,1021.465 32.7422519,31.4478 c 1.520077,-0.4472 2.970667,-0.9535 4.397113,-1.4892 a 2.5141983,2.218007 0 0 1 -0.588986,-1.0737 c -0.811501,-3.7843 -2.940175,-6.2184 -8.00891,-7.7927 a 2.51284,2.2168086 0 0 1 -1.727401,-1.9741 2.51284,2.2168086 0 0 1 0,-0.2078 2.51284,2.2168086 0 0 1 3.415581,-2.0088 c 6.392596,1.9854 10.184398,6.1368 11.267382,11.1868 a 2.5141983,2.218007 0 0 1 0,0.035 c 3.196694,-1.517 6.099688,-3.2705 8.637117,-5.2644 a 2.5169556,2.2204394 0 0 1 -0.196329,-0.2078 c -4.096838,-4.0894 -8.236638,-7.5093 -16.567473,-9.0049 a 2.51284,2.2168086 0 0 1 -2.041504,-1.9395 2.51284,2.2168086 0 0 1 3.023036,-2.4244 c 9.514023,1.708 14.988453,6.077 19.315513,10.3902 1.89335,-1.9361 3.503543,-4.0095 4.789544,-6.2688 a 2.51284,2.2168086 0 0 1 -0.156882,-0.069 c -7.84704,-4.5517 -10.02899,-7.8244 -29.876359,-8.1737 a 2.51284,2.2168086 0 0 1 -2.47327,-2.0088 2.51284,2.2168086 0 0 1 2.591045,-2.4244 c 19.934537,0.3508 24.906695,4.3967 31.878529,8.52 1.127645,-3.058 1.727627,-6.3347 1.727401,-9.8361 -3.4e-4,-3.4577 -0.642604,-6.8086 -1.805955,-9.94 -3.332266,2.3643 -6.332745,4.4869 -10.796284,5.9225 -4.866171,1.565 -11.252985,2.2984 -21.749561,2.2512 a 2.51284,2.2168086 0 0 1 -2.551823,-1.9742 2.51284,2.2168086 0 0 1 0,-0.2078 2.51284,2.2168086 0 0 1 2.591158,-2.2512 c 10.210015,0.046 15.971457,-0.684 19.982826,-1.9741 4.011369,-1.2902 6.50663,-3.1825 10.285963,-5.8532 a 2.5138152,2.217669 0 0 1 0.23555,-0.1732 c -1.322614,-2.3534 -2.957857,-4.5672 -4.868099,-6.5805 -3.638207,5.86 -8.526482,9.6558 -14.604408,10.2864 a 2.51284,2.2168086 0 0 1 -2.826821,-1.9049 2.51284,2.2168086 0 0 1 -0.03854,-0.2078 2.51284,2.2168086 0 0 1 2.277054,-2.2859 c 4.229577,-0.4387 7.829471,-3.0601 11.071167,-8.51997 a 2.5287922,2.2308816 0 0 1 0.549653,-0.62341 c -1.695548,-1.37167 -3.496855,-2.63541 -5.457085,-3.74049 a 2.5263531,2.2287298 0 0 1 -0.157109,0.27707 c -2.304259,3.15696 -4.988026,6.47228 -9.382872,9.282 a 2.51284,2.2168086 0 0 1 -4.043676,-1.6625 2.51284,2.2168086 0 0 1 1.099194,-1.90486 c 3.652604,-2.33517 5.878422,-5.07938 8.087464,-8.1044 -2.32659,-0.98049 -4.749644,-1.80263 -7.302262,-2.38975 L 1.1590099,1021.465 z"
       id="path4109"
       inkscape:connector-curvature="0" />
  </g>
</svg>
