<?xml version="1.0" encoding="UTF-8" standalone="no"?>
<!-- Created with Inkscape (http://www.inkscape.org/) -->

<svg
   xmlns:dc="http://purl.org/dc/elements/1.1/"
   xmlns:cc="http://creativecommons.org/ns#"
   xmlns:rdf="http://www.w3.org/1999/02/22-rdf-syntax-ns#"
   xmlns:svg="http://www.w3.org/2000/svg"
   xmlns="http://www.w3.org/2000/svg"
   xmlns:sodipodi="http://sodipodi.sourceforge.net/DTD/sodipodi-0.dtd"
   xmlns:inkscape="http://www.inkscape.org/namespaces/inkscape"
   width="64"
   height="64"
   id="svg2"
   inkscape:label="Pozadí"
   version="1.1"
   inkscape:version="0.48.3.1 r9886"
   sodipodi:docname="caravan.svg">
  <defs
     id="defs3" />
  <sodipodi:namedview
     id="base"
     pagecolor="#ffffff"
     bordercolor="#666666"
     borderopacity="1.0"
     inkscape:pageopacity="0.0"
     inkscape:pageshadow="2"
     inkscape:zoom="7.919596"
     inkscape:cx="36.499126"
     inkscape:cy="14.580774"
     inkscape:document-units="px"
     inkscape:current-layer="layer1"
     showgrid="true"
     inkscape:window-width="1600"
     inkscape:window-height="1147"
     inkscape:window-x="0"
     inkscape:window-y="0"
     inkscape:window-maximized="1"
     inkscape:snap-grids="false">
    <inkscape:grid
       type="xygrid"
       id="grid2984"
       empspacing="4"
       visible="true"
       enabled="true"
       snapvisiblegridlinesonly="true"
       spacingx="5.3333px"
       spacingy="5.3333px" />
  </sodipodi:namedview>
  <metadata
     id="metadata6">
    <rdf:RDF>
      <cc:Work
         rdf:about="">
        <dc:format>image/svg+xml</dc:format>
        <dc:type
           rdf:resource="http://purl.org/dc/dcmitype/StillImage" />
        <dc:title />
      </cc:Work>
    </rdf:RDF>
  </metadata>
  <g
     inkscape:label="Vrstva 1"
     inkscape:groupmode="layer"
     id="layer1"
     transform="translate(0,-988.36218)">
    <path
       style="fill:#000000;fill-opacity:1;stroke:#000000;stroke-width:0.09804925px;stroke-linecap:butt;stroke-linejoin:miter;stroke-opacity:1"
       d="M 19.15625 22.65625 C 19.15625 22.65625 18.447708 22.65295 17.90625 23.03125 C 17.402096 23.38015 17.0625 23.9375 17.0625 23.9375 L 15.0625 27.9375 C 14.833053 28.5039 14.568543 28.93185 14.5 29.78125 C 14.4735 30.55075 14.586343 30.83345 14.75 31.40625 L 17.34375 40.5 C 17.34375 40.5 17.414333 40.9468 17.90625 41.375 C 18.398163 41.8032 19.09375 41.78125 19.09375 41.78125 L 28.125 41.78125 C 28.125 41.78125 28.126017 37.4375 32.46875 37.4375 C 36.811483 37.4375 36.8125 41.78125 36.8125 41.78125 L 48.09375 41.78125 C 48.09375 41.78125 48.975203 41.77475 49.84375 40.90625 C 50.712296 40.03765 50.71875 39.15625 50.71875 39.15625 L 50.71875 25.28125 C 50.71875 25.28125 50.712295 24.39985 49.84375 23.53125 C 48.975203 22.66275 48.09375 22.65625 48.09375 22.65625 L 19.15625 22.65625 z M 21.1875 27.875 L 29.875 27.875 L 29.875 33.09375 L 21.1875 33.09375 L 21.1875 27.875 z M 40.28125 27.875 L 45.5 27.875 L 45.5 40.03125 L 40.28125 40.03125 L 40.28125 27.875 z "
       transform="translate(0,988.36218)"
       id="path45672" />
    <path
       style="fill:none;stroke:#000000;stroke-width:0.98049247;stroke-linecap:butt;stroke-linejoin:miter;stroke-miterlimit:4;stroke-opacity:1;stroke-dasharray:none"
       d="m 18.578322,1028.0044 -5.211278,0"
       id="path46186"
       inkscape:connector-curvature="0" />
    <path
       sodipodi:type="arc"
       style="color:#000000;fill:#000000;fill-opacity:1;stroke:#000000;stroke-width:0.85714239px;stroke-linecap:butt;stroke-linejoin:miter;stroke-miterlimit:4;stroke-opacity:1;stroke-dasharray:none;stroke-dashoffset:0;marker:none;visibility:visible;display:inline;overflow:visible;enable-background:accumulate"
       id="path46188"
       sodipodi:cx="256.88977"
       sodipodi:cy="205.70866"
       sodipodi:rx="26.574802"
       sodipodi:ry="26.574802"
       d="m 283.46457,205.70866 a 26.574802,26.574802 0 1 1 -53.1496,0 26.574802,26.574802 0 1 1 53.1496,0 z"
       transform="matrix(0.11439087,0,0,0.1143908,3.1032804,1006.5184)" />
    <path
       style="fill:#000000;fill-opacity:1;stroke:#000000;stroke-width:0;stroke-linecap:butt;stroke-linejoin:miter;stroke-miterlimit:4;stroke-opacity:1;stroke-dasharray:none"
       d="m 41.160531,1023.0116 c 0,0 0,-0.6948 0.868547,-0.6948 0.868547,0 0.868547,0.6948 0.868547,0.6948 l -1.737094,0"
       id="path46190"
       inkscape:connector-curvature="0"
       sodipodi:nodetypes="cscc" />
  </g>
</svg>
