<?xml version="1.0" encoding="UTF-8" standalone="no"?>
<!-- Created with Inkscape (http://www.inkscape.org/) -->

<svg
   xmlns:dc="http://purl.org/dc/elements/1.1/"
   xmlns:cc="http://creativecommons.org/ns#"
   xmlns:rdf="http://www.w3.org/1999/02/22-rdf-syntax-ns#"
   xmlns:svg="http://www.w3.org/2000/svg"
   xmlns="http://www.w3.org/2000/svg"
   xmlns:sodipodi="http://sodipodi.sourceforge.net/DTD/sodipodi-0.dtd"
   xmlns:inkscape="http://www.inkscape.org/namespaces/inkscape"
   width="64"
   height="64"
   id="svg2"
   inkscape:label="Pozadí"
   version="1.1"
   inkscape:version="0.48.3.1 r9886"
   sodipodi:docname="snowmobile.svg">
  <defs
     id="defs3" />
  <sodipodi:namedview
     id="base"
     pagecolor="#ffffff"
     bordercolor="#666666"
     borderopacity="1.0"
     inkscape:pageopacity="0.0"
     inkscape:pageshadow="2"
     inkscape:zoom="1.979899"
     inkscape:cx="-86.392"
     inkscape:cy="-23.535644"
     inkscape:document-units="px"
     inkscape:current-layer="layer1"
     showgrid="true"
     inkscape:window-width="1600"
     inkscape:window-height="1147"
     inkscape:window-x="0"
     inkscape:window-y="0"
     inkscape:window-maximized="1"
     inkscape:snap-grids="false">
    <inkscape:grid
       type="xygrid"
       id="grid2984"
       empspacing="4"
       visible="true"
       enabled="true"
       snapvisiblegridlinesonly="true"
       spacingx="5.3333px"
       spacingy="5.3333px" />
  </sodipodi:namedview>
  <metadata
     id="metadata6">
    <rdf:RDF>
      <cc:Work
         rdf:about="">
        <dc:format>image/svg+xml</dc:format>
        <dc:type
           rdf:resource="http://purl.org/dc/dcmitype/StillImage" />
        <dc:title></dc:title>
      </cc:Work>
    </rdf:RDF>
  </metadata>
  <g
     inkscape:label="Vrstva 1"
     inkscape:groupmode="layer"
     id="layer1"
     transform="translate(0,-988.36218)">
    <g
       id="g6375"
       transform="matrix(0.35279652,0,0,0.35279652,68.690755,638.48289)">
      <g
         transform="matrix(0.1378021,0,0,0.1378021,-158.59181,1057.5521)"
         id="g1892">
        <path
           sodipodi:nodetypes="ccccccccccccccccccccccccccccccccccccccccc"
           inkscape:connector-curvature="0"
           d="m 87.233271,32.452788 0.5,23.75 -46.46875,52.531252 11.625,12.125 53.031249,-11.125 23.21875,39.90625 c -10.19625,24.39508 -1.45315,35.55975 4.0625,52.03125 l -57.593749,36.34375 0,80.3125 20.71875,-11.125 -0.5,-54.53125 47.968749,-26.28125 44.9375,102.03125 -3.9375,20.37503 20.625,0.3437 3.03125,-20.21873 -35.875,-104.03125 c 34.15614,9.64976 68.62547,11.43405 103.5625,0 l 33.8125,60.09375 -34.40625,63.71873 23.8125,0.5313 35.875,-66.25003 -7.59375,-50.53125 52.53125,41.4375 -11.625,70.18748 23.25,-6.06248 11.09375,-71.71875 -29.78125,-51 c 4.24708,-25.99813 -1.2403,-45.73275 -12.3125,-59.125 l 10.59375,-9.1875 c 17.82138,-6.1883 28.6233,0.32116 34.84375,15.125 l 6,36.71875 30.28125,-15.5625 -8.09375,-29.21875 c -10.02521,-26.21643 -40.11224,-44.06318 -73.8125,-20.125 0,0 -10.70234,10.90232 -11.96875,11.375 -17.86218,-11.73842 -42.45296,-13.4123 -65.59375,-4.84375 l -22.38865,-0.88501 c -41.36419,-3.60858 -66.35623,-10.37211 -79.6426,-35.55249 -15.98669,-28.227892 -32.74758,-55.978382 -77.625,-55.906252 z"
           style="fill:#000000;fill-opacity:1;fill-rule:evenodd;stroke:none"
           id="path1882" />
      </g>
      <path
         sodipodi:nodetypes="ccccccc"
         d="m -82.725978,1089.9275 -14.877743,0 0,-0.1194 -31.684359,-2.6517 -0.25254,2.3053 46.028153,4.2932 c 0.177587,-1.2869 0.127673,-2.6035 0.786489,-3.8274 z"
         style="fill:#000000;fill-opacity:1;fill-rule:evenodd;stroke:none"
         id="path28093"
         inkscape:connector-curvature="0" />
      <path
         sodipodi:nodetypes="cssscc"
         d="m -61.063646,1096.717 c 0,5.1969 -4.941764,9.4098 -11.037744,9.4098 -6.095979,0 -11.037743,-4.2129 -11.037743,-9.4098 0,-5.197 4.941764,-9.4099 11.037743,-9.4099 6.09598,0 11.164013,4.0866 11.164013,9.2836 z"
         style="fill:#000000;fill-opacity:1;fill-rule:nonzero;stroke:none"
         id="path26315"
         inkscape:connector-curvature="0" />
      <path
         d="m -97.570949,1088.2833 0,-16.7484 c 0.463658,-2.6107 2.170683,-2.8615 3.735821,-3.2368 l 43.584568,0 c 1.187263,0.2407 2.640726,0.4395 3.37535,3.0312 l 0,16.954 -16.123013,0 c -3.309803,-5.3262 -14.74666,-5.3502 -18.253089,0 l -16.319637,0 z"
         style="fill:#000000;fill-opacity:1;fill-rule:evenodd;stroke:none"
         id="path26317"
         inkscape:connector-curvature="0" />
    </g>
  </g>
</svg>
