<?xml version="1.0" encoding="UTF-8" standalone="no"?>
<!-- Created with Inkscape (http://www.inkscape.org/) -->

<svg
   xmlns:dc="http://purl.org/dc/elements/1.1/"
   xmlns:cc="http://creativecommons.org/ns#"
   xmlns:rdf="http://www.w3.org/1999/02/22-rdf-syntax-ns#"
   xmlns:svg="http://www.w3.org/2000/svg"
   xmlns="http://www.w3.org/2000/svg"
   xmlns:sodipodi="http://sodipodi.sourceforge.net/DTD/sodipodi-0.dtd"
   xmlns:inkscape="http://www.inkscape.org/namespaces/inkscape"
   width="64"
   height="64"
   id="svg2"
   inkscape:label="Pozadí"
   version="1.1"
   inkscape:version="0.48.3.1 r9886"
   sodipodi:docname="carriage.svg">
  <defs
     id="defs3" />
  <sodipodi:namedview
     id="base"
     pagecolor="#ffffff"
     bordercolor="#666666"
     borderopacity="1.0"
     inkscape:pageopacity="0.0"
     inkscape:pageshadow="2"
     inkscape:zoom="1.979899"
     inkscape:cx="-86.392"
     inkscape:cy="-23.535644"
     inkscape:document-units="px"
     inkscape:current-layer="layer1"
     showgrid="true"
     inkscape:window-width="1600"
     inkscape:window-height="1147"
     inkscape:window-x="0"
     inkscape:window-y="0"
     inkscape:window-maximized="1"
     inkscape:snap-grids="false">
    <inkscape:grid
       type="xygrid"
       id="grid2984"
       empspacing="4"
       visible="true"
       enabled="true"
       snapvisiblegridlinesonly="true"
       spacingx="5.3333px"
       spacingy="5.3333px" />
  </sodipodi:namedview>
  <metadata
     id="metadata6">
    <rdf:RDF>
      <cc:Work
         rdf:about="">
        <dc:format>image/svg+xml</dc:format>
        <dc:type
           rdf:resource="http://purl.org/dc/dcmitype/StillImage" />
        <dc:title></dc:title>
      </cc:Work>
    </rdf:RDF>
  </metadata>
  <g
     inkscape:label="Vrstva 1"
     inkscape:groupmode="layer"
     id="layer1"
     transform="translate(0,-988.36218)">
    <path
       style="fill:#000000;fill-rule:evenodd;stroke:none"
       d="m 26.958996,1015.2458 0,9.7537 10.556848,-0.081 c -0.903597,0.7382 -1.467729,1.7559 -1.460355,3.0913 l -10.444235,0.084 c -0.146422,-5.1812 -7.497449,-5.1636 -7.657181,-0.03 -1.104083,-0.012 -1.257232,-0.259 -1.267877,-1.2761 l 0,-3.8894 c -0.01386,-1.7381 -0.230933,-0.5908 1.055732,-3.887 1.323903,-3.5135 0.958927,-3.1887 2.156389,-3.2795 z m -3.058335,5.7509 0.06094,-4.144 -3.930694,0.2438 c -0.716585,0.048 -0.722549,0.053 -0.975056,0.8836 l -1.005526,2.6814 c -0.337801,0.8225 -0.284034,1.0649 0.639881,0.9446 z m 24.573128,3.9296 0.0075,2.1913 -2.538251,0.8985 -2.228632,0 c 0.0091,-1.2706 -0.518986,-2.3393 -1.455262,-3.09 z"
       id="path6707"
       inkscape:connector-curvature="0"
       sodipodi:nodetypes="cccccccccccccccccccccccc" />
    <rect
       x="27.973589"
       y="1018.6434"
       height="5.708571"
       width="20.517132"
       style="fill:#000000;stroke:none"
       id="rect6709" />
    <circle
       transform="matrix(0.03928723,0,0,0.03928723,15.338452,1011.8349)"
       sodipodi:ry="77"
       sodipodi:rx="77"
       sodipodi:cy="412"
       sodipodi:cx="164"
       r="77"
       cx="164"
       cy="412"
       style="fill:#000000;stroke:none"
       id="circle6711" />
    <circle
       r="77"
       cx="748"
       cy="412"
       style="fill:#000000;stroke:none"
       id="circle6713"
       sodipodi:cx="748"
       sodipodi:cy="412"
       sodipodi:rx="77"
       sodipodi:ry="77"
       transform="matrix(0.03928723,0,0,0.03928723,10.404273,1011.928)" />
  </g>
</svg>
