<?xml version="1.0" encoding="UTF-8" standalone="no"?>
<!-- Created with Inkscape (http://www.inkscape.org/) -->

<svg
   xmlns:dc="http://purl.org/dc/elements/1.1/"
   xmlns:cc="http://creativecommons.org/ns#"
   xmlns:rdf="http://www.w3.org/1999/02/22-rdf-syntax-ns#"
   xmlns:svg="http://www.w3.org/2000/svg"
   xmlns="http://www.w3.org/2000/svg"
   xmlns:sodipodi="http://sodipodi.sourceforge.net/DTD/sodipodi-0.dtd"
   xmlns:inkscape="http://www.inkscape.org/namespaces/inkscape"
   width="64"
   height="64"
   id="svg2"
   inkscape:label="Pozadí"
   version="1.1"
   inkscape:version="0.48.3.1 r9886"
   sodipodi:docname="foot.svg">
  <defs
     id="defs3" />
  <sodipodi:namedview
     id="base"
     pagecolor="#ffffff"
     bordercolor="#666666"
     borderopacity="1.0"
     inkscape:pageopacity="0.0"
     inkscape:pageshadow="2"
     inkscape:zoom="1.979899"
     inkscape:cx="7.9182725"
     inkscape:cy="-19.502815"
     inkscape:document-units="px"
     inkscape:current-layer="layer1"
     showgrid="true"
     inkscape:window-width="1600"
     inkscape:window-height="1147"
     inkscape:window-x="0"
     inkscape:window-y="0"
     inkscape:window-maximized="1"
     inkscape:snap-grids="false">
    <inkscape:grid
       type="xygrid"
       id="grid2984"
       empspacing="4"
       visible="true"
       enabled="true"
       snapvisiblegridlinesonly="true"
       spacingx="5.3333px"
       spacingy="5.3333px" />
  </sodipodi:namedview>
  <metadata
     id="metadata6">
    <rdf:RDF>
      <cc:Work
         rdf:about="">
        <dc:format>image/svg+xml</dc:format>
        <dc:type
           rdf:resource="http://purl.org/dc/dcmitype/StillImage" />
        <dc:title></dc:title>
      </cc:Work>
    </rdf:RDF>
  </metadata>
  <g
     inkscape:label="Vrstva 1"
     inkscape:groupmode="layer"
     id="layer1"
     transform="translate(0,-988.36218)">
    <g
       id="layer1-2"
       transform="matrix(0.09120175,0,0,0.09120175,12.667437,1003.621)">
      <g
         transform="translate(2.930158,-2.251167)"
         id="g1892">
        <path
           d="m 52.413594,38.866939 0.5,23.75 -46.4687498,52.531251 11.6249998,12.125 53.03125,-11.125 23.21875,39.90625 c -10.19625,24.39508 -1.45315,35.55975 4.0625,52.03125 l -57.59375,36.34375 0,80.3125 20.71875,-11.125 -0.5,-54.53125 47.968746,-26.28125 44.9375,102.03125 -3.9375,20.37503 20.625,0.3437 3.03125,-20.21873 -35.875,-104.03125 c 34.15614,9.64976 68.62547,11.43405 103.5625,0 l 33.8125,60.09375 -34.40625,63.71873 23.8125,0.5313 35.875,-66.25003 -7.59375,-50.53125 52.53125,41.4375 -11.625,70.18748 23.25,-6.06248 11.09375,-71.71875 -29.78125,-51 c 4.24708,-25.99813 -1.2403,-45.73275 -12.3125,-59.125 l 10.59375,-9.1875 c 17.82138,-6.1883 28.6233,0.32116 34.84375,15.125 l 6,36.71875 30.28125,-15.5625 -8.09375,-29.21875 c -10.02521,-26.21643 -40.11224,-44.06318 -73.8125,-20.125 0,0 -10.70234,10.90232 -11.96875,11.375 -17.86218,-11.73842 -42.45296,-13.4123 -65.59375,-4.84375 l -4.0625,0.0313 c 7.2997,-3.73313 7.70713,-13.16086 5.21875,-20.15625 L 213.53859,64.616939 c -13.74307,-16.06692 -46.65874,-1.31884 -40.40625,22.25 l 4.6875,8.6875 -31.625,14.875001 C 130.20815,82.201549 113.44726,54.451059 68.569844,54.523189 l -16.15625,-15.65625 z m 134.812496,74.718751 11.75,19.71875 -27.96875,13.90625 -0.40625,0 c -4.97704,-5.38296 -9.29518,-11.43524 -13.3125,-17.8125 l 29.9375,-15.8125 z"
           style="fill:#000000;fill-opacity:1;fill-rule:evenodd;stroke:none"
           id="path1882"
           inkscape:connector-curvature="0" />
        <path
           d="m 241.42858,621.29077 a 23.39286,23.39286 0 1 1 -46.78572,0 23.39286,23.39286 0 1 1 46.78572,0 z"
           transform="translate(-40.44356,-589.0438)"
           style="fill:#000000;fill-opacity:1;fill-rule:nonzero;stroke:none"
           id="path1884"
           inkscape:connector-curvature="0" />
      </g>
    </g>
  </g>
</svg>
