<?xml version="1.0" encoding="UTF-8" standalone="no"?>
<!-- Created with Inkscape (http://www.inkscape.org/) -->

<svg
   xmlns:dc="http://purl.org/dc/elements/1.1/"
   xmlns:cc="http://creativecommons.org/ns#"
   xmlns:rdf="http://www.w3.org/1999/02/22-rdf-syntax-ns#"
   xmlns:svg="http://www.w3.org/2000/svg"
   xmlns="http://www.w3.org/2000/svg"
   xmlns:sodipodi="http://sodipodi.sourceforge.net/DTD/sodipodi-0.dtd"
   xmlns:inkscape="http://www.inkscape.org/namespaces/inkscape"
   width="64"
   height="64"
   id="svg2"
   inkscape:label="Pozadí"
   version="1.1"
   inkscape:version="0.48.3.1 r9886"
   sodipodi:docname="motorhome.svg">
  <defs
     id="defs3" />
  <sodipodi:namedview
     id="base"
     pagecolor="#ffffff"
     bordercolor="#666666"
     borderopacity="1.0"
     inkscape:pageopacity="0.0"
     inkscape:pageshadow="2"
     inkscape:zoom="1.979899"
     inkscape:cx="7.9182725"
     inkscape:cy="-19.502815"
     inkscape:document-units="px"
     inkscape:current-layer="layer1"
     showgrid="true"
     inkscape:window-width="1600"
     inkscape:window-height="1147"
     inkscape:window-x="0"
     inkscape:window-y="0"
     inkscape:window-maximized="1"
     inkscape:snap-grids="false">
    <inkscape:grid
       type="xygrid"
       id="grid2984"
       empspacing="4"
       visible="true"
       enabled="true"
       snapvisiblegridlinesonly="true"
       spacingx="5.3333px"
       spacingy="5.3333px" />
  </sodipodi:namedview>
  <metadata
     id="metadata6">
    <rdf:RDF>
      <cc:Work
         rdf:about="">
        <dc:format>image/svg+xml</dc:format>
        <dc:type
           rdf:resource="http://purl.org/dc/dcmitype/StillImage" />
        <dc:title></dc:title>
      </cc:Work>
    </rdf:RDF>
  </metadata>
  <g
     inkscape:label="Vrstva 1"
     inkscape:groupmode="layer"
     id="layer1"
     transform="translate(0,-988.36218)">
    <g
       id="layer1-5"
       transform="matrix(0.05829461,0,0,0.05829461,12.005061,1009.7299)">
      <path
         d="m 136.75462,282.03583 a 135.85492,135.85492 0 1 1 -271.70984,0 135.85492,135.85492 0 1 1 271.70984,0 z"
         transform="matrix(0.74724,0,0,0.74724,122.5869,48.79482)"
         style="fill:none;stroke:#000000;stroke-width:39.38558578;stroke-linecap:round;stroke-linejoin:round;stroke-miterlimit:4;stroke-opacity:1;stroke-dasharray:none;stroke-dashoffset:0"
         id="path15475"
         inkscape:connector-curvature="0" />
      <path
         d="m 648.90867,96.718727 -213.12196,0 c -8.03892,3.120006 -13.78672,8.225643 -9.22469,22.266473 l 55.03001,35.62636 c 23.50602,-17.62897 47.8773,-20.5485 72.20699,-24.17503 l 95.74584,-0.31809 -0.63619,-33.399713 z"
         style="fill:#000000;fill-opacity:1;fill-rule:evenodd;stroke:none"
         id="path12814"
         inkscape:connector-curvature="0" />
      <path
         d="M 582.93177,285.852 361.08955,285.58848 C 314.75731,284.17925 288.28246,245.79634 259.51124,204.2434 209.17953,131.55162 201.92686,130.76936 191.60083,97.014213 l 73.87464,0.07718 c 4.92242,1.499345 9.84484,2.23425 14.76726,8.330677 l 44.46824,63.29689 c 3.70559,15.6799 0.63128,28.34319 -3.25536,41.77529 -4.48774,15.5095 13.34697,43.13968 41.16983,42.01262 L 583.4588,239.59683 582.93177,285.852 z"
         style="fill:#000000;fill-opacity:1;fill-rule:evenodd;stroke:none"
         id="path13701"
         inkscape:connector-curvature="0" />
      <path
         d="m 108.60035,251.76407 c 1.7994,-5.39821 85.73516,-209.948519 85.73516,-209.948519 10.19898,-18.28919 24.50441,-28.3655 43.18566,-29.690147 l 57.5809,0 -0.31809,33.815985 -55.51798,0 c -6.78582,-0.640172 -11.88817,3.638056 -16.14005,15.667593 L 139.45372,265.8412 c -8.13451,18.99988 -39.054,12.31699 -30.85337,-14.07713 z"
         style="fill:#000000;fill-opacity:1;fill-rule:evenodd;stroke:none"
         id="path14588"
         inkscape:connector-curvature="0" />
      <path
         d="m 136.75462,282.03583 a 135.85492,135.85492 0 1 1 -271.70984,0 135.85492,135.85492 0 1 1 271.70984,0 z"
         transform="matrix(0.74724,0,0,0.74724,555.8824,49.18351)"
         style="fill:none;stroke:#000000;stroke-width:39.38558578;stroke-linecap:round;stroke-linejoin:round;stroke-miterlimit:4;stroke-opacity:1;stroke-dasharray:none;stroke-dashoffset:0"
         id="path17247"
         inkscape:connector-curvature="0" />
    </g>
  </g>
</svg>
