<?xml version="1.0" encoding="UTF-8" standalone="no"?>
<!-- Created with Inkscape (http://www.inkscape.org/) -->

<svg
   xmlns:dc="http://purl.org/dc/elements/1.1/"
   xmlns:cc="http://creativecommons.org/ns#"
   xmlns:rdf="http://www.w3.org/1999/02/22-rdf-syntax-ns#"
   xmlns:svg="http://www.w3.org/2000/svg"
   xmlns="http://www.w3.org/2000/svg"
   xmlns:sodipodi="http://sodipodi.sourceforge.net/DTD/sodipodi-0.dtd"
   xmlns:inkscape="http://www.inkscape.org/namespaces/inkscape"
   width="64"
   height="64"
   id="svg2"
   inkscape:label="Pozadí"
   version="1.1"
   inkscape:version="0.48.3.1 r9886"
   sodipodi:docname="motorcar.svg">
  <defs
     id="defs3" />
  <sodipodi:namedview
     id="base"
     pagecolor="#ffffff"
     bordercolor="#666666"
     borderopacity="1.0"
     inkscape:pageopacity="0.0"
     inkscape:pageshadow="2"
     inkscape:zoom="15.839192"
     inkscape:cx="26.783935"
     inkscape:cy="33.441567"
     inkscape:document-units="px"
     inkscape:current-layer="layer1"
     showgrid="true"
     inkscape:window-width="1600"
     inkscape:window-height="1147"
     inkscape:window-x="0"
     inkscape:window-y="0"
     inkscape:window-maximized="1"
     inkscape:snap-grids="false">
    <inkscape:grid
       type="xygrid"
       id="grid2984"
       empspacing="4"
       visible="true"
       enabled="true"
       snapvisiblegridlinesonly="true"
       spacingx="5.3333px"
       spacingy="5.3333px" />
  </sodipodi:namedview>
  <metadata
     id="metadata6">
    <rdf:RDF>
      <cc:Work
         rdf:about="">
        <dc:format>image/svg+xml</dc:format>
        <dc:type
           rdf:resource="http://purl.org/dc/dcmitype/StillImage" />
        <dc:title />
      </cc:Work>
    </rdf:RDF>
  </metadata>
  <g
     inkscape:label="Vrstva 1"
     inkscape:groupmode="layer"
     id="layer1"
     transform="translate(0,-988.36218)">
    <path
       id="path25345"
       style="fill:#000000;fill-opacity:1;fill-rule:nonzero;stroke:none"
       d="m 22.543285,1026.3876 a 2.958334,2.958334 0 1 1 -5.916668,0 2.958334,2.958334 0 1 1 5.916668,0 z"
       inkscape:connector-curvature="0" />
    <path
       style="fill:#000000;fill-opacity:1;fill-rule:evenodd;stroke:none"
       d="M 29.46875 26.40625 C 29.274507 26.448522 29.149403 26.58195 29.03125 26.71875 L 24.25 31.53125 L 13.78125 33.25 C 13.635519 33.3771 13.492108 33.51625 13.375 33.84375 L 13.40625 37.4375 C 13.633124 38.0099 13.765789 37.95125 13.9375 38.03125 L 15.96875 38.03125 C 15.96875 33.13875 23.25 33.15745 23.25 38.03125 L 41.84375 38.03125 C 41.84375 33.12845 49.0625 33.13845 49.0625 38.03125 L 50.71875 38.03125 C 50.996139 38.00575 51.149045 37.75555 51.28125 37.46875 L 51.25 32.46875 C 51.230087 32.36145 51.20349 32.2284 51.125 32.0625 L 44 26.40625 L 29.6875 26.40625 C 29.604665 26.40115 29.533498 26.392159 29.46875 26.40625 z M 29.5625 27.90625 L 35.90625 27.90625 L 35.90625 32.21875 L 25.96875 32.21875 C 25.591285 32.06985 25.561703 31.8371 25.71875 31.5625 L 29.28125 28.0625 C 29.36163 27.9945 29.422791 27.88555 29.5625 27.90625 z M 37.0625 27.90625 L 42.40625 27.90625 C 42.545959 27.88555 42.60712 27.9945 42.6875 28.0625 L 45.75 31.125 C 46.031691 31.5492 46.58632 32.13275 46.15625 32.21875 L 37.0625 32.21875 L 37.0625 27.90625 z "
       transform="translate(0,988.36218)"
       id="path24454" />
    <path
       id="path25343"
       style="fill:#000000;fill-opacity:1;fill-rule:nonzero;stroke:none"
       d="m 48.375724,1026.3863 a 2.958334,2.958334 0 1 1 -5.916668,0 2.958334,2.958334 0 1 1 5.916668,0 z"
       inkscape:connector-curvature="0" />
  </g>
</svg>
