<?xml version="1.0" encoding="UTF-8" standalone="no"?>
<!-- Created with Inkscape (http://www.inkscape.org/) -->

<svg
   xmlns:dc="http://purl.org/dc/elements/1.1/"
   xmlns:cc="http://creativecommons.org/ns#"
   xmlns:rdf="http://www.w3.org/1999/02/22-rdf-syntax-ns#"
   xmlns:svg="http://www.w3.org/2000/svg"
   xmlns="http://www.w3.org/2000/svg"
   xmlns:sodipodi="http://sodipodi.sourceforge.net/DTD/sodipodi-0.dtd"
   xmlns:inkscape="http://www.inkscape.org/namespaces/inkscape"
   width="64"
   height="64"
   id="svg2"
   inkscape:label="Pozadí"
   version="1.1"
   inkscape:version="0.48.3.1 r9886"
   sodipodi:docname="motorhome.svg">
  <defs
     id="defs3" />
  <sodipodi:namedview
     id="base"
     pagecolor="#ffffff"
     bordercolor="#666666"
     borderopacity="1.0"
     inkscape:pageopacity="0.0"
     inkscape:pageshadow="2"
     inkscape:zoom="15.839192"
     inkscape:cx="32.397351"
     inkscape:cy="20.235221"
     inkscape:document-units="px"
     inkscape:current-layer="layer1"
     showgrid="true"
     inkscape:window-width="1600"
     inkscape:window-height="1147"
     inkscape:window-x="0"
     inkscape:window-y="0"
     inkscape:window-maximized="1"
     inkscape:snap-grids="false">
    <inkscape:grid
       type="xygrid"
       id="grid2984"
       empspacing="4"
       visible="true"
       enabled="true"
       snapvisiblegridlinesonly="true"
       spacingx="5.3333px"
       spacingy="5.3333px" />
  </sodipodi:namedview>
  <metadata
     id="metadata6">
    <rdf:RDF>
      <cc:Work
         rdf:about="">
        <dc:format>image/svg+xml</dc:format>
        <dc:type
           rdf:resource="http://purl.org/dc/dcmitype/StillImage" />
        <dc:title />
      </cc:Work>
    </rdf:RDF>
  </metadata>
  <g
     inkscape:label="Vrstva 1"
     inkscape:groupmode="layer"
     id="layer1"
     transform="translate(0,-988.36218)">
    <path
       style="fill:#000000;fill-opacity:1;stroke:#000000;stroke-width:0.08236768px;stroke-linecap:butt;stroke-linejoin:miter;stroke-opacity:1"
       d="M 17.375 23.5625 L 16.625 25.03125 L 16.625 28.65625 L 27.09375 28.625 L 27.09375 40.34375 L 36.34375 40.34375 C 36.34375 40.34375 36.351825 36.6875 40 36.6875 C 43.648175 36.6875 43.625 40.34375 43.625 40.34375 L 49.46875 40.34375 C 49.46875 40.34375 50.207865 40.3547 50.9375 39.625 C 51.667135 38.8954 51.65625 38.15625 51.65625 38.15625 L 51.65625 26.46875 C 51.65625 26.46875 51.667134 25.76095 50.9375 25.03125 C 50.207865 24.30165 49.46875 24.28125 49.46875 24.28125 L 30.5 24.28125 L 28.3125 23.5625 L 17.375 23.5625 z M 41.53125 28.5625 L 48.84375 28.5625 L 48.84375 32.9375 L 41.53125 32.9375 L 41.53125 28.5625 z M 30.5 28.65625 L 34.875 28.65625 L 34.875 38.875 L 30.5 38.875 L 30.5 28.65625 z "
       transform="translate(0,988.36218)"
       id="path45672" />
    <path
       sodipodi:type="arc"
       style="color:#000000;fill:#000000;fill-opacity:1;stroke:#000000;stroke-width:0.85714239px;stroke-linecap:butt;stroke-linejoin:miter;stroke-miterlimit:4;stroke-opacity:1;stroke-dasharray:none;stroke-dashoffset:0;marker:none;visibility:visible;display:inline;overflow:visible;enable-background:accumulate"
       id="path46188"
       sodipodi:cx="256.88977"
       sodipodi:cy="205.70866"
       sodipodi:rx="26.574802"
       sodipodi:ry="26.574802"
       d="m 283.46457,205.70866 c 0,14.67686 -11.89794,26.57481 -26.5748,26.57481 -14.67686,0 -26.5748,-11.89795 -26.5748,-26.57481 0,-14.67685 11.89794,-26.5748 26.5748,-26.5748 14.67686,0 26.5748,11.89795 26.5748,26.5748 z"
       transform="matrix(0.0960957,0,0,0.09609564,15.311862,1008.8634)" />
    <g
       id="g46229"
       transform="matrix(-0.08236768,0,0,0.08236768,71.360356,944.93966)">
      <path
         sodipodi:nodetypes="cscc"
         inkscape:connector-curvature="0"
         id="path46190"
         d="m 451.77165,944.29132 c 0,0 0,-7.08661 8.85827,-7.08661 8.85827,0 8.85827,7.08661 8.85827,7.08661 l -17.71654,0"
         style="fill:#000000;fill-opacity:1;stroke:#000000;stroke-width:0;stroke-linecap:butt;stroke-linejoin:miter;stroke-miterlimit:4;stroke-opacity:1;stroke-dasharray:none" />
    </g>
    <path
       sodipodi:type="arc"
       style="color:#000000;fill:#000000;fill-opacity:1;stroke:#000000;stroke-width:0.85714239px;stroke-linecap:butt;stroke-linejoin:miter;stroke-miterlimit:4;stroke-opacity:1;stroke-dasharray:none;stroke-dashoffset:0;marker:none;visibility:visible;display:inline;overflow:visible;enable-background:accumulate"
       id="path46188-4"
       sodipodi:cx="256.88977"
       sodipodi:cy="205.70866"
       sodipodi:rx="26.574802"
       sodipodi:ry="26.574802"
       d="m 283.46457,205.70866 c 0,14.67686 -11.89794,26.57481 -26.5748,26.57481 -14.67686,0 -26.5748,-11.89795 -26.5748,-26.57481 0,-14.67685 11.89794,-26.5748 26.5748,-26.5748 14.67686,0 26.5748,11.89795 26.5748,26.5748 z"
       transform="matrix(0.0960957,0,0,0.09609564,-5.8440035,1008.8176)" />
    <path
       style="fill:#000000;fill-opacity:1;stroke:#000000;stroke-width:0.08236768px;stroke-linecap:butt;stroke-linejoin:miter;stroke-opacity:1"
       d="M 19.5625 29.40625 L 13 35.21875 L 13 40.34375 L 15.1875 40.34375 C 15.1875 40.34375 15.164325 36.6875 18.8125 36.6875 C 22.460674 36.6875 22.46875 40.34375 22.46875 40.34375 L 26.84375 40.34375 L 26.84375 29.40625 L 19.5625 29.40625 z M 19.5625 30.125 L 23.21875 30.125 L 23.21875 33.78125 L 15.4375 33.8125 L 19.5625 30.125 z "
       transform="translate(0,988.36218)"
       id="path46233" />
  </g>
</svg>
