<?xml version="1.0" encoding="UTF-8" standalone="no"?>
<!-- Created with Inkscape (http://www.inkscape.org/) -->

<svg
   xmlns:dc="http://purl.org/dc/elements/1.1/"
   xmlns:cc="http://creativecommons.org/ns#"
   xmlns:rdf="http://www.w3.org/1999/02/22-rdf-syntax-ns#"
   xmlns:svg="http://www.w3.org/2000/svg"
   xmlns="http://www.w3.org/2000/svg"
   xmlns:sodipodi="http://sodipodi.sourceforge.net/DTD/sodipodi-0.dtd"
   xmlns:inkscape="http://www.inkscape.org/namespaces/inkscape"
   width="64"
   height="64"
   id="svg2"
   inkscape:label="Pozadí"
   version="1.1"
   inkscape:version="0.48.3.1 r9886"
   sodipodi:docname="ice_skates.svg">
  <defs
     id="defs3" />
  <sodipodi:namedview
     id="base"
     pagecolor="#ffffff"
     bordercolor="#666666"
     borderopacity="1.0"
     inkscape:pageopacity="0.0"
     inkscape:pageshadow="2"
     inkscape:zoom="1.979899"
     inkscape:cx="9.0153919"
     inkscape:cy="-33.397605"
     inkscape:document-units="px"
     inkscape:current-layer="layer1"
     showgrid="true"
     inkscape:window-width="1600"
     inkscape:window-height="1147"
     inkscape:window-x="0"
     inkscape:window-y="0"
     inkscape:window-maximized="1"
     inkscape:snap-grids="false">
    <inkscape:grid
       type="xygrid"
       id="grid2984"
       empspacing="4"
       visible="true"
       enabled="true"
       snapvisiblegridlinesonly="true"
       spacingx="5.3333px"
       spacingy="5.3333px" />
  </sodipodi:namedview>
  <metadata
     id="metadata6">
    <rdf:RDF>
      <cc:Work
         rdf:about="">
        <dc:format>image/svg+xml</dc:format>
        <dc:type
           rdf:resource="http://purl.org/dc/dcmitype/StillImage" />
        <dc:title></dc:title>
      </cc:Work>
    </rdf:RDF>
  </metadata>
  <g
     inkscape:label="Vrstva 1"
     inkscape:groupmode="layer"
     id="layer1"
     transform="translate(0,-988.36218)">
    <path
       inkscape:connector-curvature="0"
       d="m 24.626445,1006.5095 -0.1868,0.016 -0.23554,0.041 -0.30051,0.073 -0.19493,0.065 -0.15026,0.049 -0.31675,0.138 -0.21524,0.1138 -0.15838,0.093 -0.19898,0.1583 -0.0569,0.5239 -0.008,0.1868 0,0.1421 c -0.23391,0.1497 -0.4379,0.3359 -0.59696,0.5605 l -0.12183,0.1583 0.72691,0 0.51575,0.8528 0,0.2437 c -0.0187,0.3181 0.0947,0.6258 0.30051,0.8691 0.0655,0.075 0.13915,0.1416 0.22336,0.2071 0.10292,0.065 0.22354,0.092 0.34518,0.1015 l 0.17056,0.01 c 0.13099,0.075 0.20711,0.228 0.20711,0.3777 l 0,0.01 0,0.195 -0.0203,0.028 -0.41016,0.4223 c -0.15906,0.1872 -0.33957,0.3555 -0.53605,0.5239 -0.23392,0.1965 -0.4395,0.4296 -0.61727,0.6822 -0.13099,0.1965 -0.18769,0.439 -0.15026,0.6823 l 0.29239,1.9939 0.19493,1.8153 0.0203,0.3086 -0.21523,0.4508 -0.49544,1.3279 -0.34924,1.263 c -0.0655,0.1778 -0.0922,0.3639 -0.10153,0.5604 l -0.008,0.1503 c 0.0281,0.2245 0.0726,0.4398 0.13807,0.6457 0.0561,0.159 0.15081,0.2894 0.30052,0.3736 0.20584,0.1216 0.46863,0.1601 0.70255,0.085 0.19648,-0.056 0.31675,-0.2247 0.31675,-0.4305 0,-0.019 0,-0.039 0,-0.049 l -0.008,-0.057 0.74723,-1.4213 1.06803,-2.0874 1.3645,-2.5787 0.55229,0.2233 c -0.2807,0.4679 -0.53095,0.9454 -0.66194,1.198 -0.32748,0.655 -0.65496,1.3084 -1.16956,2.3189 l 0.008,0 c -0.131,0.262 -0.25445,0.5233 -0.35737,0.804 -0.0936,0.234 -0.18664,0.4577 -0.28021,0.6823 -0.0561,0.1403 -0.1116,0.2807 -0.15838,0.4305 -0.0374,0.1122 -0.039,0.2357 -0.0203,0.3573 0.0561,0.2807 0.17995,0.5446 0.38579,0.7879 0.70174,0.8888 1.35452,1.8055 1.95334,2.7411 0.44911,0.7018 0.74936,1.4667 0.91778,2.262 0.0281,0.1216 0.0487,0.2426 0.0487,0.3736 0,0.3368 -0.10367,0.6655 -0.27209,0.9462 -0.14034,0.2339 -0.30954,0.4577 -0.48731,0.6823 -0.14971,0.1777 -0.20517,0.413 -0.15838,0.6375 l 0.0366,0.1016 c -0.7111,0.3742 -1.39497,0.7882 -2.08735,1.2467 l -0.86093,0.5685 c -0.2152,0.1497 -0.43898,0.2707 -0.68225,0.3736 -0.39297,0.1778 -0.81508,0.2721 -1.25484,0.2721 -0.32748,0 -0.66464,-0.054 -0.98276,-0.1665 -0.17777,-0.056 -0.34538,-0.1614 -0.46701,-0.2924 l -0.23148,-0.2436 c -0.0187,-0.037 -0.056,-0.063 -0.0934,-0.081 -0.14971,-0.075 -0.32703,-0.1024 -0.49544,-0.065 -0.14035,0.028 -0.23395,0.1561 -0.21524,0.2964 0.0655,0.5988 0.42914,1.1244 0.96246,1.4051 0.8608,0.4679 1.9072,0.4403 2.74929,-0.065 l 0.5726,-0.3492 1.39292,-0.7472 2.20917,-1.1777 2.18887,-1.133 4.85695,-2.4244 c -0.0187,0.131 -0.0394,0.2738 -0.0487,0.4142 -0.009,0.1497 -0.0636,0.2979 -0.1665,0.4101 -0.0748,0.103 -0.15256,0.2139 -0.22741,0.3168 -0.13099,0.2152 -0.23378,0.4309 -0.30864,0.6741 -0.0468,0.1497 -0.0439,0.3104 0.0122,0.4508 l 0.065,0.1584 c -0.10293,0.084 -0.196,0.1672 -0.28021,0.2233 -0.36491,0.2433 -0.72062,0.4978 -1.07617,0.7879 -0.41168,0.3087 -0.8248,0.6187 -1.28327,0.9462 -0.2152,0.1497 -0.42926,0.2966 -0.65382,0.4183 -0.24326,0.1403 -0.51366,0.2152 -0.77565,0.2152 -0.0281,0 -0.0503,0 -0.069,0 -0.17777,0 -0.35422,-0.01 -0.53199,-0.045 -0.23391,-0.056 -0.4561,-0.1411 -0.66194,-0.2721 -0.12164,-0.075 -0.22443,-0.1679 -0.30864,-0.2802 -0.0655,-0.075 -0.1432,-0.14 -0.22741,-0.1868 -0.11228,-0.056 -0.2345,-0.1019 -0.36549,-0.1299 -0.12164,-0.028 -0.25887,-0.029 -0.38986,0.01 -0.0561,0.019 -0.11318,0.037 -0.17868,0.065 -0.0468,0.019 -0.0853,0.066 -0.0853,0.1218 -0.009,0.084 0.002,0.1676 0.0203,0.2518 0.16842,0.5801 0.56192,1.0578 1.10459,1.3198 0.36491,0.1778 0.75506,0.2724 1.15738,0.3005 0.66432,0.047 1.32785,-0.1418 1.85182,-0.5442 l 11.40731,-8.4468 -0.58884,-0.6457 -4.79197,3.5249 c -0.16842,-0.2432 -0.33514,-0.4755 -0.50356,-0.7188 -0.14971,-0.2245 -0.33833,-0.4411 -0.54417,-0.6375 -0.25263,-0.2527 -0.4409,-0.5716 -0.51575,-0.9178 -0.15906,-0.7205 -0.45489,-1.3923 -0.88529,-1.9818 -0.30877,-0.421 -0.73176,-0.7497 -1.2183,-0.9462 -0.0936,-0.037 -0.18664,-0.093 -0.28021,-0.1584 -0.0561,-0.047 -0.11159,-0.1132 -0.15838,-0.1787 -0.18713,-0.3087 -0.29239,-0.6625 -0.29239,-1.0274 0,-0.1123 0.01,-0.2329 0.0284,-0.3452 l 0.14213,-0.9178 c 0.11228,-0.8795 0.22583,-1.7603 0.20711,-1.5919 0.0281,-0.2619 0.0556,-0.5217 0.065,-0.7837 0,-0.038 0,-0.077 0,-0.1056 0,-0.393 -0.0858,-0.7872 -0.23554,-1.1615 -0.0187,-0.056 -0.045,-0.1091 -0.0731,-0.1746 -0.0561,-0.1497 -0.13103,-0.2913 -0.21524,-0.4223 -0.0748,-0.1123 -0.16228,-0.2358 -0.25584,-0.3574 -0.0842,-0.1123 -0.17729,-0.2029 -0.28021,-0.2964 l -0.12183,-0.1056 c 0.37426,0.056 0.75876,0.096 1.13302,0.1056 l 0.11371,0 0.33706,1.3645 0.12995,0.5076 0.15838,0.5888 0.11371,0.4589 0.10152,0.4548 c 0.0936,0.262 0.14213,0.5437 0.14213,0.8244 0,0.1123 0.0182,0.2342 0.065,0.3371 0.0655,0.1965 0.15698,0.3745 0.2599,0.5523 0.0749,0.1123 0.16105,0.2151 0.26397,0.3086 0.0468,0.047 0.0941,0.083 0.15025,0.1015 0.0374,0.01 0.0641,0.029 0.10153,0.029 0.0655,0.01 0.12254,0 0.17868,-0.016 0.18713,-0.066 0.35315,-0.2068 0.44671,-0.3939 l 0.0487,-0.093 7.51283,3.9107 c -0.12163,0.2246 -0.15926,0.4865 -0.12183,0.7391 0.0187,0.131 0.077,0.2516 0.17056,0.3452 0.0655,0.065 0.15539,0.096 0.2396,0.077 0.30876,-0.065 0.58287,-0.2457 0.75128,-0.5076 l 0.0366,-0.065 0.77565,0.077 -0.44671,-0.5929 c 0.10292,-0.2152 0.15838,-0.4471 0.15838,-0.6903 0,-0.047 10e-4,-0.093 -0.008,-0.1584 -0.009,-0.094 -0.0563,-0.1891 -0.12183,-0.264 -0.0748,-0.075 -0.18947,-0.1093 -0.29239,-0.081 -0.26198,0.047 -0.49635,0.1852 -0.67413,0.3817 l -0.12183,0.13 -7.73618,-4.0326 c 0,-0.019 0,-0.046 0,-0.065 0,-0.1871 -0.0583,-0.366 -0.17056,-0.5157 -0.0748,-0.094 -0.13755,-0.1935 -0.20305,-0.2965 -0.0748,-0.1216 -0.12465,-0.2523 -0.13401,-0.402 l -0.0731,-0.5929 -0.15025,-1.2873 c -0.0561,-0.3088 -0.10029,-0.6212 -0.10965,-0.93 l -0.0122,-0.2518 c 0,-0.019 0,-0.026 0,-0.045 0,-0.2059 -0.0445,-0.3949 -0.13807,-0.5726 -0.17778,-0.3556 -0.43034,-0.664 -0.7391,-0.9259 l -0.3858,-0.3168 -0.56041,-0.4792 -0.49544,-0.4102 c -0.41169,-0.2994 -0.83205,-0.5987 -1.32795,-0.9543 -0.1497,-0.1123 -0.29047,-0.2085 -0.45889,-0.3208 -0.34619,-0.2339 -0.71038,-0.4091 -1.11271,-0.5401 -0.55203,-0.1778 -1.12551,-0.2984 -1.70561,-0.3452 -0.40233,-0.028 -0.77588,-0.1609 -1.11271,-0.3574 -0.15906,-0.093 -0.30071,-0.1979 -0.42235,-0.3289 -0.29005,-0.2714 -0.4649,-0.6357 -0.51168,-1.0193 -0.0281,-0.2433 -0.0657,-0.4755 -0.12183,-0.7188 -0.10292,-0.5146 -0.30126,-1.0007 -0.5726,-1.4498 l -0.20305,-0.337 -0.48732,0 z m 0.9056,9.32 c -0.003,0.01 -0.005,0.014 -0.008,0.02 l 0.54417,0.2233 -1.46195,2.8793 -1.26297,2.5259 -0.0284,-0.3655 0.10153,-0.1381 c 0.16842,-0.2339 0.31253,-0.4771 0.4061,-0.7391 0.20584,-0.5146 0.42962,-1.0038 0.68224,-1.4903 0.11228,-0.234 0.21348,-0.4934 0.28833,-0.7554 0.21312,-0.7413 0.45371,-1.445 0.73098,-2.1401 l -0.008,0 0.0162,-0.016 z m 4.12596,3.4802 -0.008,0.195 c 0.009,1.235 0.23561,2.4606 0.66601,3.6021 0.14034,0.3649 0.40226,0.6725 0.7391,0.869 0.43975,0.2714 0.86027,0.6004 1.23453,0.9747 0.14035,0.1497 0.29701,0.2901 0.44672,0.4304 0.65495,0.5801 1.18798,1.2921 1.5716,2.0874 l -3.99195,1.7584 -0.0934,-0.264 c -0.18713,-0.524 -0.49638,-0.989 -0.88935,-1.3726 -0.0842,-0.075 -0.13314,-0.1704 -0.17057,-0.264 l -0.065,-0.2599 c -0.12164,-0.4584 -0.22443,-0.9169 -0.30864,-1.3848 -0.0842,-0.4397 -0.18823,-0.8415 -0.30051,-1.2345 -0.11228,-0.3743 -0.24986,-0.7219 -0.41828,-1.068 -0.27134,-0.524 -0.66431,-0.9733 -1.16956,-1.2914 l 0.13807,-0.1137 c 0.95436,-0.8234 1.82403,-1.7097 2.61934,-2.6641 z"
       id="path12" />
  </g>
</svg>
