<?xml version="1.0" encoding="UTF-8" standalone="no"?>
<!-- Created with Inkscape (http://www.inkscape.org/) -->

<svg
   xmlns:dc="http://purl.org/dc/elements/1.1/"
   xmlns:cc="http://creativecommons.org/ns#"
   xmlns:rdf="http://www.w3.org/1999/02/22-rdf-syntax-ns#"
   xmlns:svg="http://www.w3.org/2000/svg"
   xmlns="http://www.w3.org/2000/svg"
   xmlns:sodipodi="http://sodipodi.sourceforge.net/DTD/sodipodi-0.dtd"
   xmlns:inkscape="http://www.inkscape.org/namespaces/inkscape"
   width="64"
   height="64"
   id="svg2"
   inkscape:label="Pozadí"
   version="1.1"
   inkscape:version="0.48.3.1 r9886"
   sodipodi:docname="ski.svg">
  <defs
     id="defs3" />
  <sodipodi:namedview
     id="base"
     pagecolor="#ffffff"
     bordercolor="#666666"
     borderopacity="1.0"
     inkscape:pageopacity="0.0"
     inkscape:pageshadow="2"
     inkscape:zoom="1.979899"
     inkscape:cx="9.0153919"
     inkscape:cy="-33.397605"
     inkscape:document-units="px"
     inkscape:current-layer="layer1"
     showgrid="true"
     inkscape:window-width="1600"
     inkscape:window-height="1147"
     inkscape:window-x="0"
     inkscape:window-y="0"
     inkscape:window-maximized="1"
     inkscape:snap-grids="false">
    <inkscape:grid
       type="xygrid"
       id="grid2984"
       empspacing="4"
       visible="true"
       enabled="true"
       snapvisiblegridlinesonly="true"
       spacingx="5.3333px"
       spacingy="5.3333px" />
  </sodipodi:namedview>
  <metadata
     id="metadata6">
    <rdf:RDF>
      <cc:Work
         rdf:about="">
        <dc:format>image/svg+xml</dc:format>
        <dc:type
           rdf:resource="http://purl.org/dc/dcmitype/StillImage" />
        <dc:title></dc:title>
      </cc:Work>
    </rdf:RDF>
  </metadata>
  <g
     inkscape:label="Vrstva 1"
     inkscape:groupmode="layer"
     id="layer1"
     transform="translate(0,-988.36218)">
    <path
       inkscape:connector-curvature="0"
       d="m 37.170172,1005.4046 c -0.623705,0 -1.189979,0.3704 -1.44262,0.9389 -0.04737,0.095 -0.08016,0.1978 -0.09595,0.3084 -0.05526,0.3395 -0.07881,0.6967 -0.07881,1.052 0,0.6868 0.102087,1.3732 0.315252,2.0285 0.03948,0.1737 0.173444,0.3067 0.339239,0.3461 0.276325,0.032 0.537874,0.041 0.798409,0.041 l 0.198746,0 c 0.244745,-0.01 0.442038,0.187 0.442038,0.4318 0,0.047 -0.0013,0.087 -0.01713,0.1268 l -1.507727,3.7042 c -0.52107,-0.1579 -1.073967,-0.2467 -1.634512,-0.2467 -0.181585,0 -0.372491,0.019 -0.561971,0.034 -0.34738,0.016 -0.652571,0.2348 -0.770996,0.5585 l -0.04797,0 c -0.50528,0 -0.987369,0.2381 -1.295274,0.6408 l -1.487167,2.1965 -0.661343,-0.6854 1.004008,-2.916 c 0.213166,-0.529 0.315252,-1.0809 0.315252,-1.6414 0,-0.8211 -0.220265,-1.6206 -0.65449,-2.3233 l -2.820133,5.2497 0.07881,0.079 c -3.286864,0.9598 -8.978677,5.8135 -10.437577,8.5357 0.576335,0.6948 1.255908,1.2866 2.021724,1.7682 1.40531,0.8763 2.931513,1.5556 4.502619,1.9977 l -1.192475,1.6585 c -0.150005,0.2369 -0.380248,0.4193 -0.640783,0.514 -0.450015,0.1263 -0.915135,0.1953 -1.380941,0.1953 -0.14211,0 -0.283836,-0.01 -0.418051,-0.024 -1.902696,-0.3473 -3.594282,-1.4111 -4.739058,-2.9743 -0.03947,-0.063 -0.09447,-0.1274 -0.157626,-0.1748 -0.181585,-0.1421 -0.400507,-0.2227 -0.637357,-0.2227 -0.66318,0 -1.14716,0.6239 -0.997155,1.2713 0.12632,0.4263 0.317225,0.8306 0.561971,1.2096 0.45791,0.7263 1.106177,1.3117 1.864098,1.7065 2.060595,1.2237 4.413142,1.8617 6.805328,1.8538 l 6.709381,0 c 0.07895,0 0.151678,-0.01 0.222733,-0.024 0.04737,-0.01 0.08388,-0.015 0.123359,-0.031 0.228955,-0.1026 0.380358,-0.3333 0.380358,-0.586 0,-0.047 -0.0092,-0.093 -0.01713,-0.1405 -0.0079,-0.024 -0.01266,-0.046 -0.02056,-0.062 -0.244745,-0.3947 -0.560984,-0.7345 -0.932049,-1.0108 -0.07895,-0.055 -0.157489,-0.1045 -0.236439,-0.1439 -1.413205,-0.6869 -2.971591,-1.0171 -4.550591,-0.9698 l 1.027994,-1.6413 c 0.907926,0.1658 1.829969,0.2525 2.737894,0.2604 l 1.312408,-0.034 c 0.12632,0 0.253133,-0.01 0.308398,-0.01 l 10.663737,-0.038 1.302128,1.2987 c -2.389823,0.1714 -7.072608,0.2987 -7.072608,0.5928 0,0.4816 0.134572,0.9498 0.387212,1.3604 0.04737,0.095 0.119796,0.1791 0.198746,0.2501 0.497385,0.4974 1.145351,0.8236 1.840111,0.9184 0.09474,0.01 0.180434,0.014 0.267279,0.014 l 0.01713,0 7.470099,-0.027 0.02056,0.021 3.464344,0 c 0.702655,-0.055 1.375512,-0.3173 1.936057,-0.7436 0.552651,-0.4579 0.866943,-1.1515 0.866943,-1.8778 0,-1.3185 -1.048308,-2.4061 -2.374669,-2.4535 l -0.0069,-5.2976 c 0,-0.9553 -0.76831,-1.7236 -1.723606,-1.7236 l -4.437512,0 c 0.355275,-0.7185 0.537984,-1.4995 0.537984,-2.289 0,-0.7263 -0.149923,-1.4453 -0.442038,-2.1005 -0.355275,-0.7659 -0.686865,-1.5927 -0.986875,-2.4295 -0.292116,-1.1132 -0.773628,-2.1315 -1.428914,-3.0395 -0.686865,-1.0895 -1.089538,-2.3385 -1.168488,-3.6254 -0.09474,-0.8132 -0.719569,-1.4763 -1.52486,-1.6105 -0.134215,-0.024 -0.259849,-0.04 -0.394064,-0.048 l -0.04797,0 z m -3.484903,10.3108 c 0.185656,0 0.374985,0.033 0.558544,0.096 l 2.011444,0.6853 c 0.134215,0.047 0.270129,0.072 0.404344,0.072 0.450016,0 0.850139,-0.246 1.055409,-0.6408 l 0.435185,1.2096 -2.953773,0 c -0.450016,0 -0.859678,0.2286 -1.096529,0.5997 l -1.43234,2.265 -1.644792,-1.7099 1.237021,-1.8196 c 0.33159,-0.4855 0.868519,-0.758 1.425487,-0.7572 z"
       id="path5473" />
  </g>
</svg>
