<?xml version="1.0" encoding="UTF-8" standalone="no"?>
<svg
   xmlns:dc="http://purl.org/dc/elements/1.1/"
   xmlns:cc="http://creativecommons.org/ns#"
   xmlns:rdf="http://www.w3.org/1999/02/22-rdf-syntax-ns#"
   xmlns:svg="http://www.w3.org/2000/svg"
   xmlns="http://www.w3.org/2000/svg"
   xmlns:sodipodi="http://sodipodi.sourceforge.net/DTD/sodipodi-0.dtd"
   xmlns:inkscape="http://www.inkscape.org/namespaces/inkscape"
   version="1.1"
   height="64"
   width="64"
   id="svg4267"
   inkscape:version="0.48.3.1 r9886"
   sodipodi:docname="Zeichen_237.svg">
  <metadata
     id="metadata4279">
    <rdf:RDF>
      <cc:Work
         rdf:about="">
        <dc:format>image/svg+xml</dc:format>
        <dc:type
           rdf:resource="http://purl.org/dc/dcmitype/StillImage" />
        <dc:title></dc:title>
      </cc:Work>
    </rdf:RDF>
  </metadata>
  <defs
     id="defs4277" />
  <sodipodi:namedview
     pagecolor="#ffffff"
     bordercolor="#666666"
     borderopacity="1"
     objecttolerance="10"
     gridtolerance="10"
     guidetolerance="10"
     inkscape:pageopacity="0"
     inkscape:pageshadow="2"
     inkscape:window-width="1600"
     inkscape:window-height="1147"
     id="namedview4275"
     showgrid="false"
     inkscape:zoom="3.6828072"
     inkscape:cx="120.50599"
     inkscape:cy="33.277971"
     inkscape:window-x="0"
     inkscape:window-y="0"
     inkscape:window-maximized="1"
     inkscape:current-layer="svg4267" />
  <g
     transform="matrix(0.06655577,0,0,0.06655577,-1.3987244,11.736577)"
     id="BikeSymbol">
    <circle
       sodipodi:ry="161"
       sodipodi:rx="161"
       sodipodi:cy="409"
       sodipodi:cx="215"
       r="161"
       cy="409"
       cx="215"
       style="fill:none;stroke:#ffffff;stroke-width:40px"
       id="FrontWheel"
       d="m 376,409 c 0,88.91784 -72.08216,161 -161,161 -88.91784,0 -161,-72.08216 -161,-161 0,-88.91784 72.08216,-161 161,-161 88.91784,0 161,72.08216 161,161 z" />
    <circle
       sodipodi:ry="161"
       sodipodi:rx="161"
       sodipodi:cy="406"
       sodipodi:cx="790"
       r="161"
       cy="406"
       cx="790"
       style="fill:none;stroke:#ffffff;stroke-width:40px"
       id="RearWheel"
       d="m 951,406 c 0,88.91784 -72.08216,161 -161,161 -88.91784,0 -161,-72.08216 -161,-161 0,-88.91784 72.08216,-161 161,-161 88.91784,0 161,72.08216 161,161 z" />
    <path
       inkscape:connector-curvature="0"
       style="fill:#ffffff;fill-rule:evenodd;stroke:none"
       id="Frame"
       d="M 429.48437,15.467118 C 296.9179,16.75919 319.39993,1.7711686 248.07762,230.98455 189.97511,414.12586 196.30387,394.15363 196,407 c -0.21296,9.98022 7.84333,17.89312 17.96694,18.57043 21.0536,-2.12877 12.19798,2.27698 85.19054,-224.38965 266.71215,281.35562 166.64844,235.73116 310.18316,241.44498 188.64235,-1.8089 203.97493,9.81974 206.21452,-17.83058 -0.25842,-9.38905 -4.65145,-14.98802 -134.11696,-303.11983 l 12.40388,-34.110675 42.63834,-0.775242 -1.55048,-35.661158 -158.92473,0 c -14.0405,19.208788 5.68512,19.12265 76.74902,34.885915 l -12.40388,34.88591 -317.07421,0.77525 c 21.36224,-74.595562 9.30291,-69.944107 105.43299,-69.771832 l 0.77524,-36.4364 z M 314.11415,159.91012 624.37752,159.36001 534.70921,400.30922 314.11415,159.91012 z m 347.67101,14.30292 -88.01798,231.04719 192.53932,0.55011 -104.52134,-231.5973 z" />
  </g>
</svg>
