<?xml version="1.0" encoding="UTF-8" standalone="no"?>
<!-- Created with Inkscape (http://www.inkscape.org/) -->

<svg
   xmlns:dc="http://purl.org/dc/elements/1.1/"
   xmlns:cc="http://creativecommons.org/ns#"
   xmlns:rdf="http://www.w3.org/1999/02/22-rdf-syntax-ns#"
   xmlns:svg="http://www.w3.org/2000/svg"
   xmlns="http://www.w3.org/2000/svg"
   xmlns:sodipodi="http://sodipodi.sourceforge.net/DTD/sodipodi-0.dtd"
   xmlns:inkscape="http://www.inkscape.org/namespaces/inkscape"
   width="256"
   height="256"
   id="svg2"
   inkscape:label="Pozadí"
   version="1.1"
   inkscape:version="0.48.3.1 r9886"
   sodipodi:docname="logo6.svg">
  <defs
     id="defs3" />
  <sodipodi:namedview
     id="base"
     pagecolor="#ffffff"
     bordercolor="#666666"
     borderopacity="1.0"
     inkscape:pageopacity="0.0"
     inkscape:pageshadow="2"
     inkscape:zoom="2.8"
     inkscape:cx="95.090087"
     inkscape:cy="131.9785"
     inkscape:document-units="px"
     inkscape:current-layer="layer1"
     showgrid="true"
     inkscape:snap-grids="false"
     inkscape:object-paths="false"
     showguides="true"
     inkscape:guide-bbox="true"
     inkscape:snap-to-guides="false"
     inkscape:window-width="1600"
     inkscape:window-height="1147"
     inkscape:window-x="0"
     inkscape:window-y="0"
     inkscape:window-maximized="1"
     inkscape:snap-nodes="true">
    <inkscape:grid
       type="xygrid"
       id="grid2984"
       empspacing="4"
       visible="true"
       enabled="true"
       snapvisiblegridlinesonly="true"
       spacingx="12.8px"
       spacingy="12.8px"
       color="#00e900"
       opacity="0.22352941"
       empcolor="#00e205"
       empopacity="0.29019608" />
    <inkscape:grid
       type="xygrid"
       id="grid2986"
       empspacing="4"
       visible="true"
       enabled="true"
       snapvisiblegridlinesonly="true"
       spacingx="21.3333px"
       spacingy="21.3333px"
       color="#f600ff"
       opacity="0.29803922"
       empcolor="#ff00ff"
       empopacity="0.42352941"
       dotted="false" />
    <inkscape:grid
       type="xygrid"
       id="grid2988"
       empspacing="8"
       visible="true"
       enabled="true"
       snapvisiblegridlinesonly="true"
       spacingx="4px"
       spacingy="4px"
       empcolor="#0000ff"
       empopacity="0.29411765" />
  </sodipodi:namedview>
  <metadata
     id="metadata6">
    <rdf:RDF>
      <cc:Work
         rdf:about="">
        <dc:format>image/svg+xml</dc:format>
        <dc:type
           rdf:resource="http://purl.org/dc/dcmitype/StillImage" />
        <dc:title></dc:title>
      </cc:Work>
    </rdf:RDF>
  </metadata>
  <g
     inkscape:label="Vrstva 1"
     inkscape:groupmode="layer"
     id="layer1"
     transform="translate(0,-796.36218)">
    <path
       sodipodi:type="arc"
       style="fill:#000000;fill-opacity:1;stroke:none"
       id="path3841"
       sodipodi:cx="127.9998"
       sodipodi:cy="128.0002"
       sodipodi:rx="127.9998"
       sodipodi:ry="127.9998"
       d="m 255.9996,128.0002 a 127.9998,127.9998 0 1 1 -255.9996,0 127.9998,127.9998 0 1 1 255.9996,0 z"
       transform="translate(0,796.36218)" />
    <path
       style="fill:#ffffff;fill-opacity:1;stroke:none"
       d="m 158.39027,795.28504 -7.8125,1.75 c 0,0 -28.38627,55.01044 -26.70791,84.50415 1.80024,31.63556 35.80097,55.2562 38.74517,86.80587 2.67258,28.639 -19.98369,83.94444 -19.98369,83.94444 l 62.46875,-13.8437 c 0,0 11.17205,-47.76609 5.09678,-70.54678 -8.98212,-33.68063 -49.57946,-52.99383 -58.47219,-86.69817 -7.32809,-27.77419 6.66559,-85.91581 6.66559,-85.91581 z m -22.8125,0.3125 c 0,0 -54.036325,52.06218 -65.489388,86.31338 -9.134338,27.31689 9.434297,59.0874 0.317901,86.41028 -9.331173,27.96659 -53.368691,70.5308 -53.368691,70.5308 l 62.5,13.7813 c 0,0 35.428998,-53.55975 38.510208,-84.29846 2.93685,-29.29851 -23.869188,-56.84201 -20.027718,-86.03569 4.189338,-31.83741 45.370188,-84.98286 45.370188,-84.98286 z"
       id="path3014-3"
       inkscape:connector-curvature="0"
       sodipodi:nodetypes="ccssccssccssccsscc" />
  </g>
</svg>
