<?xml version="1.0" encoding="UTF-8" standalone="no"?>
<!-- Created with Inkscape (http://www.inkscape.org/) -->

<svg
   xmlns:dc="http://purl.org/dc/elements/1.1/"
   xmlns:cc="http://creativecommons.org/ns#"
   xmlns:rdf="http://www.w3.org/1999/02/22-rdf-syntax-ns#"
   xmlns:svg="http://www.w3.org/2000/svg"
   xmlns="http://www.w3.org/2000/svg"
   xmlns:sodipodi="http://sodipodi.sourceforge.net/DTD/sodipodi-0.dtd"
   xmlns:inkscape="http://www.inkscape.org/namespaces/inkscape"
   width="64"
   height="64"
   id="svg2"
   inkscape:label="Pozadí"
   version="1.1"
   inkscape:version="0.48.3.1 r9886"
   sodipodi:docname="logo14.svg">
  <defs
     id="defs3" />
  <sodipodi:namedview
     id="base"
     pagecolor="#ffffff"
     bordercolor="#666666"
     borderopacity="1.0"
     inkscape:pageopacity="0.0"
     inkscape:pageshadow="2"
     inkscape:zoom="5.6"
     inkscape:cx="24.052565"
     inkscape:cy="23.928906"
     inkscape:document-units="px"
     inkscape:current-layer="layer1"
     showgrid="true"
     inkscape:window-width="1600"
     inkscape:window-height="1147"
     inkscape:window-x="0"
     inkscape:window-y="0"
     inkscape:window-maximized="1">
    <inkscape:grid
       type="xygrid"
       id="grid2984"
       empspacing="4"
       visible="true"
       enabled="true"
       snapvisiblegridlinesonly="true"
       spacingx="5.3333px"
       spacingy="5.3333px" />
  </sodipodi:namedview>
  <metadata
     id="metadata6">
    <rdf:RDF>
      <cc:Work
         rdf:about="">
        <dc:format>image/svg+xml</dc:format>
        <dc:type
           rdf:resource="http://purl.org/dc/dcmitype/StillImage" />
        <dc:title></dc:title>
      </cc:Work>
    </rdf:RDF>
  </metadata>
  <g
     inkscape:label="Vrstva 1"
     inkscape:groupmode="layer"
     id="layer1"
     transform="translate(0,-988.36218)">
    <path
       style="fill:#bff000;fill-opacity:0;stroke:none"
       d="m 10.6666,1013.2513 14.222133,0 0,-14.22212 14.222134,0 0,14.22212 14.222133,0 0,14.2221 -14.222133,0 0,14.2222 -14.222134,0 0,-14.2222 -14.222133,0 z"
       id="path2988"
       inkscape:connector-curvature="0" />
    <path
       style="fill:#77aa00;stroke:none;stroke-width:1px;stroke-linecap:butt;stroke-linejoin:miter;stroke-opacity:1;fill-opacity:1"
       d="M 21.34375 0 C 10.67715 0 0 10.67715 0 21.34375 L 0 48 C -5.3776092e-16 48 16.01045 37.3333 21.34375 32 C 26.67705 26.6667 21.32295 21.3333 26.65625 16 C 31.98955 10.6667 53.34375 0 53.34375 0 L 21.34375 0 z M 64 16 C 64 16 47.98955 26.6667 42.65625 32 C 37.32295 37.3333 42.67705 42.6667 37.34375 48 C 32.01045 53.3333 10.65625 64 10.65625 64 L 42.65625 64 C 53.32285 64 64 53.32285 64 42.65625 L 64 16 z "
       transform="translate(0,988.36218)"
       id="path4349" />
  </g>
</svg>
