<?xml version="1.0" encoding="UTF-8" standalone="no"?>
<!-- Created with Inkscape (http://www.inkscape.org/) -->

<svg
   xmlns:dc="http://purl.org/dc/elements/1.1/"
   xmlns:cc="http://creativecommons.org/ns#"
   xmlns:rdf="http://www.w3.org/1999/02/22-rdf-syntax-ns#"
   xmlns:svg="http://www.w3.org/2000/svg"
   xmlns="http://www.w3.org/2000/svg"
   xmlns:xlink="http://www.w3.org/1999/xlink"
   xmlns:sodipodi="http://sodipodi.sourceforge.net/DTD/sodipodi-0.dtd"
   xmlns:inkscape="http://www.inkscape.org/namespaces/inkscape"
   width="632.28259"
   height="183.11882"
   id="svg2"
   inkscape:label="Pozadí"
   version="1.1"
   inkscape:version="0.48.3.1 r9886"
   sodipodi:docname="map1eu_logo_baner.svg"
   inkscape:export-filename="/home/klinger/current/projects/devel/my-map/map/image/logo_final.jpg.png"
   inkscape:export-xdpi="225"
   inkscape:export-ydpi="225">
  <defs
     id="defs3">
    <linearGradient
       inkscape:collect="always"
       id="linearGradient5697">
      <stop
         style="stop-color:#cccccc;stop-opacity:1;"
         offset="0"
         id="stop5699" />
      <stop
         style="stop-color:#cccccc;stop-opacity:0;"
         offset="1"
         id="stop5701" />
    </linearGradient>
    <linearGradient
       id="linearGradient5275">
      <stop
         style="stop-color:#999999;stop-opacity:1;"
         offset="0"
         id="stop5277" />
      <stop
         id="stop5283"
         offset="0.5"
         style="stop-color:#999999;stop-opacity:0.78169012;" />
      <stop
         style="stop-color:#999999;stop-opacity:0;"
         offset="1"
         id="stop5279" />
    </linearGradient>
    <linearGradient
       inkscape:collect="always"
       xlink:href="#linearGradient5697"
       id="linearGradient5703"
       x1="250.92552"
       y1="1053.1691"
       x2="373.47656"
       y2="1053.1691"
       gradientUnits="userSpaceOnUse" />
    <linearGradient
       inkscape:collect="always"
       xlink:href="#linearGradient5697"
       id="linearGradient5903"
       gradientUnits="userSpaceOnUse"
       x1="250.92552"
       y1="1053.1691"
       x2="373.47656"
       y2="1053.1691" />
    <linearGradient
       inkscape:collect="always"
       xlink:href="#linearGradient5697"
       id="linearGradient5966"
       gradientUnits="userSpaceOnUse"
       x1="250.92552"
       y1="1053.1691"
       x2="373.47656"
       y2="1053.1691"
       gradientTransform="matrix(3.1522752,0,0,3.1522752,-558.44768,-2295.7008)" />
    <linearGradient
       inkscape:collect="always"
       xlink:href="#linearGradient5697"
       id="linearGradient5987"
       gradientUnits="userSpaceOnUse"
       x1="250.92552"
       y1="1053.1691"
       x2="373.47656"
       y2="1053.1691"
       gradientTransform="matrix(3.1522752,0,0,3.1522752,-558.44768,-2295.7008)" />
    <linearGradient
       inkscape:collect="always"
       xlink:href="#linearGradient5697"
       id="linearGradient5993"
       gradientUnits="userSpaceOnUse"
       gradientTransform="matrix(3.1522752,0,0,3.1522752,-558.44767,-2295.7011)"
       x1="250.92552"
       y1="1053.1691"
       x2="373.47656"
       y2="1053.1691" />
    <linearGradient
       inkscape:collect="always"
       xlink:href="#linearGradient5697"
       id="linearGradient5995"
       gradientUnits="userSpaceOnUse"
       x1="250.92552"
       y1="1053.1691"
       x2="373.47656"
       y2="1053.1691" />
  </defs>
  <sodipodi:namedview
     id="base"
     pagecolor="#ffffff"
     bordercolor="#666666"
     borderopacity="1.0"
     inkscape:pageopacity="0.0"
     inkscape:pageshadow="2"
     inkscape:zoom="1.4142136"
     inkscape:cx="316.1413"
     inkscape:cy="40.558715"
     inkscape:document-units="px"
     inkscape:current-layer="layer1"
     showgrid="true"
     inkscape:window-width="1400"
     inkscape:window-height="997"
     inkscape:window-x="0"
     inkscape:window-y="0"
     inkscape:window-maximized="1"
     inkscape:snap-grids="false"
     fit-margin-top="0"
     fit-margin-left="0"
     fit-margin-right="0"
     fit-margin-bottom="0"
     inkscape:snap-to-guides="false">
    <inkscape:grid
       type="xygrid"
       id="grid2984"
       empspacing="4"
       visible="true"
       enabled="true"
       snapvisiblegridlinesonly="true"
       spacingx="5.3333px"
       spacingy="5.3333px"
       originx="13.421636px"
       originy="103.33567px" />
  </sodipodi:namedview>
  <metadata
     id="metadata6">
    <rdf:RDF>
      <cc:Work
         rdf:about="">
        <dc:format>image/svg+xml</dc:format>
        <dc:type
           rdf:resource="http://purl.org/dc/dcmitype/StillImage" />
        <dc:title />
      </cc:Work>
    </rdf:RDF>
  </metadata>
  <g
     inkscape:label="Vrstva 1"
     inkscape:groupmode="layer"
     id="layer1"
     transform="translate(13.421636,-972.57903)">
    <path
       inkscape:connector-curvature="0"
       id="path4154"
       d="m 385.5759,972.57908 c -0.0561,0.09 -0.13888,0.17356 -0.25,0.25 -0.47915,0.33414 -0.89819,0.0895 -1.46875,0.21875 -0.94883,0.2112 -1.70699,0.11557 -2.34375,0.84375 -0.46023,0.53273 -0.13009,1.18944 -0.625,1.6875 -0.50436,0.50121 -1.09802,0.27167 -1.6875,0.65625 -0.43501,0.2774 -0.58814,0.62858 -0.875,0.9375 -0.10403,0.11663 -0.23918,0.25233 -0.40625,0.34375 -0.73133,0.41925 -1.504,-0.16116 -2.125,0.40625 -0.36566,0.32468 -0.22151,0.79456 -0.625,1.0625 -0.3499,0.23012 -0.70629,0.008 -1.0625,0.21875 -0.59578,0.37827 -0.0951,1.25564 -0.65625,1.6875 -0.72502,0.5611 -1.4141,-0.36691 -2.3125,-0.21875 -0.70296,0.11348 -1.25221,0.12667 -1.71875,0.65625 -0.65567,0.74709 0.74078,1.86927 0,2.53125 -0.39088,0.34675 -0.74564,0.31141 -1.25,0.4375 -1.12851,0.2774 -1.8623,-0.13746 -2.96875,0.21875 -0.69981,0.22696 -1.19547,0.32047 -1.71875,0.84375 -0.52328,0.52328 -0.30156,1.18944 -0.84375,1.6875 -0.41295,0.37197 -0.79265,0.38831 -1.28125,0.65625 -0.94253,0.51382 -1.25649,1.267 -2.3125,1.46875 -0.81644,0.15761 -1.31802,-0.4205 -2.125,-0.21875 -0.64622,0.16077 -1.09966,0.31417 -1.5,0.84375 -0.5548,0.72502 -0.13364,1.60297 -0.21875,2.34375 0,0 -0.10869,1.56953 -0.1875,2.5625 -0.0851,0.99612 -0.638,1.62655 -0.21875,2.53125 0.18283,0.37512 0.31896,0.59472 0.65625,0.84375 0.59263,0.44762 1.31362,-0.23518 1.90625,0.21875 0.69035,0.52012 0.77316,1.27073 0.625,2.12497 -0.11033,0.6589 -0.45917,0.9203 -0.84375,1.4688 -0.43501,0.6273 -1.19929,0.7371 -1.28125,1.5 -0.11663,1.0465 1.51222,0.929 1.90625,1.9062 0.36251,0.9205 0,1.5696 0,2.5625 0,0.993 -0.76285,1.8977 0,2.5313 0.70296,0.5832 1.47372,-0.4899 2.34375,-0.2188 0.95829,0.2932 1.05829,1.1923 1.90625,1.7188 0.69035,0.4318 1.11503,0.6451 1.90625,0.8437 1.36809,0.3405 2.2099,0.037 3.59375,-0.2187 1.54461,-0.2869 2.37164,-0.7359 3.84375,-1.2813 1.25461,-0.4634 2.08763,-0.443 3.15625,-1.25 0.56426,-0.4224 0.78004,-0.7832 1.28125,-1.2812 0.4098,-0.4161 0.53922,-0.8009 1.0625,-1.0625 0.52328,-0.2617 0.97672,0.046 1.5,-0.2188 0.74078,-0.3688 0.86857,-0.9498 1.25,-1.6875 0.36566,-0.6935 -0.0215,-1.5185 0.65625,-1.9062 0.96775,-0.5517 1.41259,1.0551 2.125,1.9062 0.26794,0.3216 0.37912,0.5128 0.625,0.8438 l 0.4375,0 c 0.32956,0.3028 0.62753,0.5749 0.84375,1.0625 0.29316,0.6903 -0.0492,1.2064 0.21875,1.9062 0.29947,0.7755 0.57829,1.2557 1.28125,1.6875 0.58002,0.3594 1.16422,0.012 1.6875,0.4375 0.66513,0.5548 0.35075,1.3054 0.625,2.125 0.36882,1.0939 0.67792,1.6593 1.0625,2.75 0.25533,0.7377 0.25591,1.2317 0.65625,1.9063 0.47284,0.807 1.02237,1.0568 1.6875,1.7187 0.4161,0.413 0.85445,0.4859 1.0625,1.0313 0.30577,0.8101 -0.76055,1.2739 -0.625,2.125 0.11979,0.7723 0.67504,1.0252 1.03125,1.7187 0.29001,0.5611 0.45766,0.8698 0.65625,1.4688 0.26164,0.8038 -0.1236,1.4945 0.4375,2.125 0.94568,1.0718 2.19414,-0.3571 3.59375,-0.625 0.83535,-0.1608 1.65531,0.2654 2.125,-0.4375 0.36566,-0.5517 -0.0946,-1.0318 0,-1.6875 0.082,-0.5958 0.0971,-0.9988 0.4375,-1.5 0.39088,-0.5926 0.77525,-0.9081 1.46875,-1.0625 0.74394,-0.1608 1.15601,0.3145 1.90625,0.4375 0.73448,0.1229 1.18438,0.4173 1.90625,0.2187 1.07493,-0.29 1.37982,-1.1415 1.90625,-2.125 0.36251,-0.6935 0.45478,-1.1402 0.625,-1.9062 0.19859,-0.8921 0.0422,-1.4485 0.21875,-2.3438 0.12609,-0.5894 0.28934,-0.9136 0.4375,-1.5 0.2049,-0.8196 0.34608,-1.2521 0.4375,-2.0937 0.10087,-0.9867 -0.11979,-1.5759 0,-2.5625 0.11979,-1.0151 -0.0748,-1.7842 0.625,-2.5313 0.65252,-0.7092 1.60927,-0.2508 2.34375,-0.875 0.40034,-0.3467 0.35515,-0.845 0.84375,-1.0625 0.71557,-0.3215 1.19068,0.9778 1.90625,0.6563 0.67143,-0.2995 0.6294,-0.9751 0.84375,-1.6875 0.20805,-0.7187 -0.20681,-1.3228 0.21875,-1.9375 0.38143,-0.5454 1.09678,-0.289 1.46875,-0.8438 0.45708,-0.6872 0.4823,-1.4535 0,-2.125 -0.50436,-0.7029 -1.44726,-0.089 -2.125,-0.625 -0.60839,-0.48542 -0.51716,-1.12321 -1.0625,-1.68747 -0.4886,-0.51382 -0.7784,-0.88597 -1.46875,-1.0625 -0.81644,-0.2049 -1.36845,0.79083 -2.125,0.40625 -0.79437,-0.4098 -0.82168,-1.23606 -0.84375,-2.125 -0.0252,-0.68089 0.45984,-1.00976 0.40625,-1.6875 -0.0756,-0.84796 -0.64955,-1.15916 -1.0625,-1.90625 l 1.0625,-0.84375 c 0.0851,-0.50121 0.18695,-0.88722 0.25,-1.28125 0.0599,-0.32153 0.11185,-0.64955 0.1875,-1.0625 l 0.84375,-1.6875 c 0.74394,-0.25218 1.36091,-0.0951 1.90625,-0.65625 0.44132,-0.44762 0.25276,-0.98015 0.65625,-1.46875 0.63361,-0.77231 1.46769,-0.54553 2.3125,-1.0625 0.71872,-0.43186 1.14188,-0.68547 1.71875,-1.28125 0.37197,-0.37827 0.42765,-0.73466 0.84375,-1.0625 0.54534,-0.43817 1.03813,-0.34445 1.6875,-0.625 0.67459,-0.29631 1.09487,-0.40243 1.6875,-0.84375 0.70296,-0.52643 0.8128,-1.17656 1.5,-1.71875 0.52958,-0.4098 1.32032,-0.20069 1.5,-0.84375 0.13555,-0.50436 -0.21369,-0.80841 -0.4375,-1.28125 -0.19859,-0.43817 -0.53016,-0.59596 -0.65625,-1.0625 -0.17022,-0.64306 -0.0965,-1.10118 0.21875,-1.6875 0.44762,-0.85111 1.27704,-0.82102 2.125,-1.28125 0.0288,-0.0155 0.0642,-0.0179 0.0937,-0.0313 l -41.03125,0 z m 54.3125,0 c 0.40618,0.4661 1.13934,0.64402 1.0625,1.3125 -0.12924,1.16319 -2.05144,-0.28752 -2.96875,0.4375 -0.22381,0.17653 -0.37076,0.34527 -0.5,0.53125 -0.10718,0.15761 -0.2019,0.33266 -0.34375,0.53125 -0.49491,0.6998 -0.43204,1.33569 -1.0625,1.90625 -0.60839,0.54534 -1.32308,0.27004 -1.90625,0.84375 -0.52328,0.52328 -0.32047,1.16422 -0.84375,1.6875 -0.74394,0.74078 -1.68302,0.26688 -2.5625,0.84375 -0.68089,0.45393 -0.74057,1.11227 -1.46875,1.5 -0.74078,0.40349 -1.46617,-0.0921 -2.125,0.4375 -0.51697,0.4161 -0.44972,0.93286 -0.84375,1.46875 -0.4886,0.65883 -1.23521,0.72454 -1.5,1.5 -0.30262,0.87318 0.0908,1.45508 0.4375,2.3125 0.29316,0.72187 0.59912,1.08829 1.0625,1.71875 0.51697,0.70611 1.27961,0.82693 1.46875,1.6875 0.2049,0.94568 -0.77125,1.376 -0.84375,2.34375 -0.0788,1.20102 0.3646,1.8623 0.84375,2.96875 0.21751,0.51067 0.237,0.88434 0.65625,1.25 0.51067,0.45077 1.14216,0.0435 1.6875,0.4375 0.47915,0.35621 0.3646,0.92189 0.84375,1.28125 0.85742,0.64302 1.70029,-0.23327 2.75,0 0.51067,0.11033 0.83047,0.14776 1.28125,0.40625 0.7597,0.43817 0.72797,1.23957 1.46875,1.71877 0.58948,0.3846 1.0221,0.521 1.71875,0.625 1.16949,0.1734 1.84969,-0.2404 2.96875,-0.625 1.22624,-0.4224 1.70784,-1.2289 2.96875,-1.5 1.05286,-0.22068 1.69084,0.1765 2.75,0 0.85742,-0.1356 1.28649,-0.41697 2.125,-0.62502 0.82274,-0.2049 1.28649,-0.31456 2.125,-0.4375 1.07177,-0.15446 1.67192,-0.19038 2.75,-0.21875 0.58632,0 0.91998,-0.041 1.5,0 0.57687,0.041 0.88558,0.2156 1.46875,0.21875 0.002,0.002 0.0313,0 0.0313,0 0.24903,0.003 0.46369,-0.0522 0.6875,-0.15625 0.85742,-0.39719 1.55623,-1.31165 2.28125,-0.6875 0.23012,0.19544 0.2807,0.44793 0.34375,0.6875 0.0599,0.20805 0.0984,0.40777 0.28125,0.59375 0.65883,0.67462 1.42013,0.45162 2.34375,0.62502 0.65252,0.1229 1.03813,0.086 1.6875,0.2187 1.02449,0.2112 1.79334,0.1345 2.5625,0.8438 0.44132,0.4035 0.75864,0.6918 0.84375,1.2812 0.18598,1.2168 -1.74251,-0.99 -2.96875,-1.0625 -1.1821,-0.073 -1.88122,0.1679 -2.96875,0.625 -0.99612,0.4193 -1.42644,0.9232 -2.34375,1.5 -0.65883,0.413 -0.95932,0.7851 -1.6875,1.0625 -0.48545,0.186 -0.89955,0.2996 -1.3125,0.3438 l -0.0313,0 c -0.51382,0.054 -1.0321,0 -1.65625,-0.125 -1.09384,-0.2238 -1.46578,-0.9408 -2.53125,-1.2813 -0.80068,-0.2616 -1.28649,-0.3524 -2.125,-0.4375 -0.8259,-0.082 -1.30856,-0.1166 -2.125,0 -0.85742,0.123 -1.28334,0.4892 -2.125,0.6563 -0.90155,0.1765 -1.43617,-0.062 -2.3125,0.1875 -0.60839,0.1734 -0.89161,0.4892 -1.5,0.6562 -0.57056,0.1545 -0.93259,0.064 -1.5,0.2188 -0.60524,0.1671 -1.09048,0.1175 -1.46875,0.625 -0.43817,0.5958 -0.24273,1.2033 0,1.9062 0.2837,0.8354 0.85406,1.0571 1.46875,1.6875 0.77231,0.7976 1.37476,1.1211 2.125,1.9375 0.44762,0.4729 0.81662,0.6511 1.0625,1.25 0.145,0.3468 0.14103,0.6662 0.0937,0.9688 -0.0378,0.3625 -0.13788,0.7055 -0.0937,1.1562 0.0788,0.8417 0.78425,1.3559 0.4375,2.125 -0.29631,0.6462 -0.87585,0.7126 -1.5,1.0625 -0.77231,0.4382 -1.23921,0.8974 -2.125,0.8438 -1.11591,-0.069 -1.48976,-0.9152 -2.3125,-1.6875 -0.63676,-0.6021 -0.78128,-1.1705 -1.5,-1.6875 -0.65883,-0.4792 -1.09296,-0.8721 -1.90625,-0.8438 -0.85427,0.031 -1.17177,0.5994 -1.90625,1.0313 -0.67143,0.3972 -1.23672,0.5487 -1.6875,1.0625 -1.48157,1.6959 -0.84833,1.9291 -2.125,3.625 -0.44132,0.6021 0.001,1.1875 0.21875,1.9062 0.2049,0.7093 0.59787,0.9877 0.84375,1.6875 0.0785,0.2325 0.13189,0.4562 0.1875,0.6563 l 0,0.031 c 0.145,0.5359 0.20614,0.9911 0.21875,1.6563 0.0378,1.0907 0.11703,1.798 -0.40625,2.75 -0.56426,1.0308 -1.25622,1.446 -2.34375,1.9062 -0.69665,0.2995 -1.31677,-0.045 -1.90625,0.4375 -0.79437,0.6462 0.0654,1.7779 -0.625,2.5313 l -0.21875,0.2187 c -0.66287,0.5221 -1.44699,0.345 -2.34375,0.625 -0.8322,0.2585 -1.28334,0.8549 -2.125,0.6563 -0.57687,-0.1387 -1.05744,-0.2921 -1.28125,-0.8438 -0.15761,-0.3782 0.13555,-0.6716 0,-1.0625 -0.25849,-0.7376 -0.93411,-0.8607 -1.6875,-1.0625 -1.04971,-0.2868 -1.66877,0.2802 -2.75,0.4063 -0.98666,0.1166 -1.56323,0.1872 -2.5625,0.2187 -0.58002,0.032 -0.95466,-0.1923 -1.5,0 -0.94883,0.3405 -0.60818,1.5986 -1.46875,2.125 -0.99927,0.6053 -1.80871,0.096 -2.96875,0.2188 -1.16319,0.1261 -1.94426,-0.1549 -2.96875,0.4062 -0.57371,0.309 -0.7296,0.741 -1.28125,1.0625 -0.81959,0.4697 -1.39492,0.6973 -2.34375,0.6563 -1.07177,-0.044 -1.59818,-0.5266 -2.53125,-1.0625 -0.52013,-0.2932 -0.77689,-0.5285 -1.28125,-0.8438 -0.72502,-0.4476 -1.09612,-0.804 -1.90625,-1.0625 -1.42168,-0.4444 -2.37821,-0.2412 -3.8125,0.1875 -0.77231,0.2333 -1.34199,0.2887 -1.90625,0.875 -0.33729,0.3499 -0.25618,0.7473 -0.625,1.0625 -0.52013,0.4445 -1.05362,0.5576 -1.71875,0.4063 -0.92362,-0.2144 -0.67753,-1.383 -1.46875,-1.9063 -0.64937,-0.4381 -1.21878,-0.3034 -1.9375,-0.625 -0.33414,-0.1481 -0.50961,-0.2862 -0.84375,-0.4375 -0.4098,-0.1828 -0.75673,-0.1191 -1.0625,-0.4375 -0.46969,-0.476 0.20338,-1.1453 -0.1875,-1.6875 -0.49806,-0.7029 -1.60172,0.062 -2.125,-0.625 -0.46023,-0.5958 -0.0202,-1.1843 -0.21875,-1.9062 -0.16392,-0.6053 -0.84223,-0.9011 -0.65625,-1.5 0.16707,-0.5044 0.71575,-0.4497 1.0625,-0.8438 0.44762,-0.4949 0.49673,-0.9452 0.875,-1.5 0.23642,-0.3436 0.31608,-0.5663 0.625,-0.8437 0.69981,-0.6273 1.75112,0.1095 2.34375,-0.625 0.43186,-0.5296 0.67735,-1.0634 0.40625,-1.6875 -0.26479,-0.6116 -1.04635,-0.3517 -1.46875,-0.875 -0.22381,-0.29 -0.32717,-0.4907 -0.4375,-0.8438 -0.29316,-0.9614 0.49424,-1.5256 0.4375,-2.5312 -0.0378,-0.7597 -0.0435,-1.2506 -0.4375,-1.9063 -0.29947,-0.5012 -0.47933,-0.9332 -1.0625,-1.0625 -0.84796,-0.1891 -1.11694,0.791 -1.6875,1.4688 -0.38143,0.4571 -0.36776,0.9219 -0.84375,1.2812 -0.85742,0.6462 -1.71578,-0.1765 -2.78125,0 -1.03395,0.1703 -1.6959,0.1976 -2.53125,0.8438 -0.9047,0.7092 -1.12173,1.4781 -1.5,2.5625 -0.4161,1.1821 -0.59854,1.9486 -0.40625,3.1875 0.11033,0.7754 0.26249,1.2096 0.625,1.9062 0.38143,0.7345 0.91559,0.9499 1.28125,1.6875 0.46338,0.9142 0.25618,1.5761 0.625,2.5313 0.27425,0.6903 0.54086,1.0568 0.875,1.7187 0.57687,1.1569 1.32059,1.6827 1.46875,2.9688 0.10087,0.8259 0.22887,1.4189 -0.21875,2.125 -0.37197,0.6052 -0.96754,0.5644 -1.46875,1.0625 -0.38143,0.3719 -0.34542,1.0057 -0.875,1.0625 -0.52328,0.06 -0.60885,-0.5598 -1.03125,-0.875 -0.4823,-0.3531 -0.72645,-0.6515 -1.28125,-0.8438 -0.70926,-0.2395 -1.16862,-0.057 -1.90625,0 -0.58632,0.047 -1.05238,-0.1626 -1.5,0.2188 -0.45708,0.3909 0.054,1.1154 -0.40625,1.5 -0.64306,0.5453 -1.28334,-0.4753 -2.125,-0.4375 -0.86372,0.038 -1.32117,0.3315 -2.125,0.6562 -0.68404,0.2743 -1.05704,0.4592 -1.6875,0.8438 -0.81013,0.4917 -1.10242,0.9864 -1.90625,1.4687 -0.92677,0.5517 -1.49703,0.9144 -2.5625,1.0625 -0.57687,0.079 -1.05868,-0.3782 -1.5,0 -0.44762,0.3815 -0.0204,0.9389 -0.1875,1.5 -0.24588,0.8165 -0.64955,1.1592 -1.0625,1.9063 -0.49806,0.9078 -1.15831,1.3129 -1.28125,2.3437 -0.0788,0.662 0.0454,1.0413 0.21875,1.6875 0.19544,0.7913 1.01713,1.1088 0.84375,1.9063 -0.28055,1.2956 -2.08229,0.1591 -3.40625,0.1875 -0.65883,0 -1.04128,-0.1545 -1.6875,0 -1.09384,0.2553 -1.26882,1.3783 -2.34375,1.7187 -1.03079,0.3247 -1.75388,-0.3972 -2.75,0 -0.5548,0.2207 -0.94711,0.3457 -1.28125,0.8438 -0.42556,0.6178 -0.0457,1.1686 -0.1875,1.9062 -0.16707,0.848 -0.29059,1.3401 -0.65625,2.125 -0.37827,0.8102 -0.5247,1.4303 -1.28125,1.9063 -0.44447,0.2805 -0.74564,0.283 -1.25,0.4375 -0.8984,0.2837 -2.00015,-0.2545 -2.34375,0.625 -0.24588,0.6336 0.42804,1.0097 0.4375,1.6875 0,0.5075 0.15637,0.9471 -0.21875,1.2812 -0.53273,0.4697 -1.01894,-0.5304 -1.71875,-0.625 -0.74394,-0.098 -1.15916,0.1778 -1.90625,0.2188 -0.74394,0.044 -1.16231,0.06 -1.90625,0 -0.58317,-0.047 -0.93602,0.027 -1.46875,-0.2188 -0.63991,-0.2963 -0.81471,-0.7548 -1.28125,-1.2812 -0.3499,-0.4004 -0.37406,-0.8072 -0.84375,-1.0625 -0.57687,-0.3216 -1.11036,-0.2617 -1.71875,0 -0.7597,0.3278 -1.23109,0.8647 -1.25,1.6875 -0.0189,0.7849 0.75988,0.9969 1.0625,1.7187 0.23327,0.5548 0.31483,0.873 0.40625,1.4688 0.0946,0.6557 0.46023,1.2396 0,1.7187 -0.40664,0.4193 -0.89188,0.1305 -1.46875,0.2188 -0.49806,0.076 -0.78004,0.1686 -1.28125,0.1875 -0.67143,0.032 -1.11667,0.099 -1.71875,-0.1875 -0.37512,-0.1797 -0.48124,-0.4577 -0.84375,-0.6563 -0.87948,-0.4886 -1.5572,-0.6679 -2.53125,-0.4062 -0.90786,0.2427 -1.03307,1.1062 -1.90625,1.4687 -1.29243,0.5485 -2.25061,-0.2868 -3.625,0 -0.76916,0.1639 -1.89364,-0.1599 -1.90625,0.625 -0.006,0.5328 0.49385,0.6685 0.84375,1.0625 0.31523,0.3468 0.80907,0.4053 0.84375,0.875 0.0284,0.3688 -0.34951,0.475 -0.40625,0.8438 -0.12294,0.7282 0.20069,1.3218 0.84375,1.6875 0.57371,0.3278 1.02552,-0.057 1.6875,0 0.83535,0.076 1.28965,0.2988 2.125,0.4375 0.57371,0.095 0.93259,0.083 1.5,0.2187 0.86688,0.2112 1.40628,0.3142 2.125,0.8438 0.75655,0.5611 0.61764,1.4996 1.46875,1.9062 0.60208,0.29 1.2333,-0.2383 1.71875,0.2188 0.60524,0.5642 -0.28055,1.3183 0,2.0937 0.22381,0.6116 0.57444,0.9219 1,1.2813 0.15131,0.1261 0.29853,0.2799 0.46875,0.4375 0.46654,0.4476 0.7296,0.7252 1.28125,1.0625 0.53589,0.3278 1.01167,0.1868 1.46875,0.625 0.78492,0.7534 0.27358,1.6751 0.4375,2.75 0.16392,1.0749 0.41228,1.6905 0.4375,2.7812 0.0158,0.911 -0.10212,1.4047 -0.21875,2.3125 -0.17338,1.3366 -0.27798,2.1107 -0.65625,3.4063 -0.37512,1.283 -0.8402,1.914 -1.25,3.1875 -0.29316,0.8952 -0.11091,1.5746 -0.65625,2.3437 -0.66198,0.9394 -1.4185,1.1914 -2.53125,1.4688 -0.9646,0.2396 -1.56953,-0.047 -2.5625,0 -0.91416,0.041 -1.48976,0.6159 -2.3125,0.2187 -0.52643,-0.2553 -0.52346,-0.8323 -1.0625,-1.0625 -0.95829,-0.4129 -1.54432,0.6231 -2.5625,0.8438 -1.3807,0.29 -2.19729,0.4362 -3.59375,0.2187 -1.21047,-0.1923 -1.83393,-0.5928 -2.96875,-1.0625 -0.92677,-0.3782 -1.35078,-0.9521 -2.34375,-1.0625 -0.91731,-0.104 -1.42013,0.3587 -2.34375,0.4375 -1.48472,0.1324 -2.32147,-0.1872 -3.8125,-0.2187 -0.91101,-0.031 -1.45796,0.208 -2.34375,0 -0.8984,-0.2112 -1.19823,-1.0688 -2.125,-1.0625 -0.70296,0 -1.139,0.1805 -1.6875,0.625 -0.72187,0.5831 -0.25867,1.6648 -1.0625,2.125 -0.71872,0.4098 -1.30226,-0.104 -2.125,0 -0.93307,0.1135 -1.66601,-0.04 -2.34375,0.625 -0.73448,0.7156 -0.83305,1.5601 -0.625,2.5625 0.17653,0.8795 0.81156,1.1434 1.28125,1.9062 0.44132,0.7282 0.9175,1.0678 1.0625,1.9063 0.15761,0.9331 -0.32293,1.48 -0.5625,2.3437 0.45708,0 0.75564,0.186 1.1875,0 0.81959,-0.353 0.19438,-1.504 0.84375,-2.125 0.3436,-0.3341 0.58651,-0.5777 1.0625,-0.625 0.66513,-0.069 1.09651,0.3079 1.5,0.8438 0.36251,0.4791 -0.10127,1.1472 0.40625,1.4687 0.49806,0.3121 0.93259,-0.323 1.5,-0.1875 0.36251,0.082 0.48439,0.3023 0.84375,0.4063 0.72187,0.2017 1.2096,0.049 1.90625,-0.2188 0.77546,-0.2931 1.02867,-1.748 1.6875,-1.25 0.35621,0.268 0.16956,0.7063 0.4375,1.0625 0.45078,0.5863 1.22412,0.2701 1.6875,0.8438 0.62415,0.7786 0.85551,1.7621 0.21875,2.5312 -0.44762,0.5454 -1.06335,0.3253 -1.6875,0.6563 -0.6273,0.3341 -1.10912,0.4667 -1.5,1.0625 -0.59263,0.8984 -0.0473,1.6751 0,2.75 0.0441,0.993 0.4331,1.5603 0.21875,2.5312 -0.13555,0.6179 -0.34445,0.9358 -0.625,1.5 -0.1387,0.2869 -0.23342,0.5262 -0.34375,0.75 -0.12609,0.2491 -0.26358,0.4571 -0.5,0.7188 -0.3499,0.394 -0.80401,0.4116 -1.0625,0.875 -0.31523,0.58 -0.31523,1.1075 0,1.6875 0.25849,0.4634 0.68107,0.4781 1.0625,0.8437 0.46654,0.4476 1.16337,0.6445 1.0625,1.2813 -0.10403,0.6588 -1.02085,0.3804 -1.5,0.8437 -0.29631,0.2869 -0.47054,0.4592 -0.625,0.8438 -0.20805,0.5359 -0.10718,0.9294 0,1.5 0.11979,0.6178 0.14585,1.0621 0.625,1.4687 0.34045,0.2837 0.80401,0.072 1.0625,0.4375 0.4823,0.6715 -1.06965,0.7296 -1.6875,1.2813 -0.43501,0.3877 -0.75042,0.5332 -1.0625,1.0312 -0.78807,1.2672 0.10554,2.3559 0.1875,3.8438 l 0,-0.4375 c 0.68089,-0.038 1.1009,0.1538 1.71875,0.4375 0.64622,0.2963 1.15667,0.4257 1.46875,1.0625 0.29316,0.5958 -0.0977,1.0318 0,1.6875 0.0883,0.5958 0.14749,0.9423 0.4375,1.4687 0.51067,0.9331 1.41889,0.9276 2.125,1.7188 0.47915,0.5296 0.35954,1.3521 1.0625,1.4687 0.69981,0.1167 0.93917,-0.5833 1.46875,-1.0625 0.56741,-0.5106 0.62873,-1.0715 1.28125,-1.4687 0.72187,-0.4382 1.30226,-0.2515 2.125,-0.4375 0.99927,-0.2207 1.51937,-0.4611 2.53125,-0.625 1.7968,-0.2837 2.86548,0.05 4.6875,0 1.57299,-0.044 2.46142,-0.089 4.03125,-0.2188 1.49418,-0.1229 2.9803,0.8358 3.8125,-0.4062 0.29631,-0.435 0.25782,-0.7895 0.4375,-1.2813 0.29631,-0.8416 0.25743,-1.4567 0.84375,-2.125 0.51067,-0.5895 0.95302,-0.8008 1.6875,-1.0625 0.86057,-0.3089 1.43589,-0.1052 2.34375,-0.2187 0.58002,-0.069 0.9896,0.1217 1.46875,-0.2188 0.57371,-0.4098 0.43559,-1.0129 0.65625,-1.6875 0.18598,-0.5705 0.33375,-0.8729 0.40625,-1.4687 0.063,-0.4949 -0.23957,-0.8494 0,-1.2813 0.37197,-0.6683 1.16547,-0.2609 1.90625,-0.4375 0.66513,-0.1576 1.17341,-0.012 1.71875,-0.4062 0.47599,-0.3562 0.40243,-0.8746 0.84375,-1.2813 0.59893,-0.5516 1.46178,-0.1534 1.90625,-0.8437 0.49175,-0.766 0.44953,-1.7259 -0.21875,-2.3438 -0.45078,-0.4066 -0.99906,-0.056 -1.46875,-0.4375 -0.77861,-0.6367 -0.52892,-1.5288 -0.4375,-2.5312 0.0378,-0.4193 0.11157,-0.6559 0.21875,-1.0625 0.12924,-0.476 0.27989,-0.7843 0.4375,-1.1563 0.0662,-0.1607 0.115,-0.3326 0.1875,-0.5312 l 0.21875,0 c 0.16392,-0.993 0.10651,-1.6137 0.4375,-2.5625 0.41925,-1.1916 0.73551,-1.921 1.6875,-2.75 0.89525,-0.7786 1.68453,-0.7643 2.75,-1.2813 1.5982,-0.7786 2.60957,-1.0626 4.03125,-2.125 0.70611,-0.5264 0.95905,-1.0243 1.71875,-1.4687 1.0371,-0.6147 2.09242,-0.024 2.96875,-0.8438 0.84481,-0.788 1.02467,-1.6306 1.0625,-2.7812 0.0158,-0.5611 -0.1919,-0.9652 -0.40625,-1.375 -0.20805,-0.4098 -0.40913,-0.8108 -0.4375,-1.375 -0.0567,-1.1853 -0.15361,-2.0767 0.625,-2.9688 0.65883,-0.7502 1.38546,-0.7693 2.34375,-1.0625 1.26721,-0.3908 2.04474,-0.4911 3.375,-0.4375 1.00242,0.041 1.6641,-0.023 2.5625,0.4375 0.67459,0.3499 0.82253,0.8809 1.46875,1.2813 0.82905,0.5043 1.39807,0.6357 2.34375,0.8437 0.81013,0.1766 1.30226,0.3354 2.125,0.2188 0.98666,-0.1356 1.47687,-0.5645 2.34375,-1.0625 0.97721,-0.5611 1.33214,-1.1671 2.3125,-1.7188 0.94253,-0.5232 1.54432,-0.6873 2.5625,-1.0625 0.98036,-0.3688 1.78416,-0.1124 2.53125,-0.8437 0.47599,-0.4634 0.66722,-0.8225 0.84375,-1.4688 0.16707,-0.643 -0.39088,-1.186 0,-1.7187 0.49175,-0.6683 1.29595,-0.2632 2.125,-0.1875 0.86372,0.082 1.30856,0.3444 2.125,0.625 0.66828,0.2301 1.06308,0.3791 1.71875,0.625 0.91416,0.3341 1.5528,0.2448 2.3125,0.8437 0.51382,0.4004 0.68107,0.758 1.0625,1.2813 0.71241,0.9898 0.90422,1.6845 1.5,2.75 0.5611,1.0024 0.75949,1.6578 1.46875,2.5625 0.63991,0.8322 1.32308,1.0299 1.90625,1.9062 0.18283,0.2774 0.28701,0.5569 0.34375,0.8438 0.1387,0.7092 0.0631,1.4113 0.71875,1.9062 0.80383,0.6053 1.79965,-0.2245 2.5625,0.4375 0.61469,0.5359 0.29525,1.3073 0.84375,1.9063 0.621,0.6872 1.30856,0.6275 2.125,1.0625 0.75655,0.394 1.15601,0.6527 1.90625,1.0625 0.9047,0.5012 1.36339,0.9629 2.34375,1.2812 1.34287,0.435 2.50937,-0.6859 3.59375,0.2188 0.88579,0.7345 0.22715,1.9493 1.0625,2.75 0.47284,0.4634 0.8727,0.6168 1.5,0.8437 0.93623,0.3373 1.54459,0.083 2.53125,0.2188 0.50436,0.069 0.88091,-0.09 1.28125,0.2187 0.64622,0.5107 -0.30262,1.3527 0,2.125 0.46338,1.22 1.76649,1.0489 2.75,1.9063 0.61785,0.539 0.94205,0.8698 1.5,1.4687 0.51697,0.5643 0.90955,0.8191 1.25,1.5 0.37827,0.7534 0.35869,1.2865 0.4375,2.125 0.0662,0.7408 0.56426,1.4271 0,1.9063 -0.38458,0.3278 -0.85281,-0.1151 -1.25,0.1875 -0.54534,0.4129 -0.28304,1.0567 -0.4375,1.7187 -0.19229,0.8259 -0.66762,1.3149 -0.4375,2.125 0.29947,1.0182 1.06899,1.6276 2.125,1.6875 0,0 0.90422,-1.439 1.5,-2.3437 0.48545,-0.7471 0.78662,-1.1434 1.25,-1.9063 0.44447,-0.7313 0.30911,-1.509 1.0625,-1.9062 0.44132,-0.2396 0.83047,0 1.28125,-0.2188 1.26091,-0.6367 1.24448,-2.4337 0.4375,-3.5937 -0.41295,-0.5832 -0.86954,-0.7347 -1.5,-1.0625 -0.70296,-0.3594 -1.49961,0.046 -1.90625,-0.625 -0.22066,-0.3594 -0.21875,-0.637 -0.21875,-1.0625 0,-0.4224 0.0517,-0.6496 0.21875,-1.0625 0.52013,-0.268 0.7914,-0.5424 1.0625,-1.0625 0.29947,-0.5927 -0.31083,-1.3058 0.21875,-1.7188 0.32784,-0.2585 0.63694,-0.2221 1.0625,-0.1875 0.55165,0.05 0.7677,0.3634 1.25,0.625 0.85742,0.4571 1.73727,0.3986 2.125,1.2813 0.26479,0.6084 -0.37197,1.1421 0,1.6875 0.2774,0.3972 0.59596,0.5304 1.0625,0.625 0.95199,0.1891 1.37791,-0.919 2.125,-1.25 -0.0883,-0.7471 0.1217,-1.238 -0.21875,-1.9063 -0.49491,-0.9614 -1.38888,-0.942 -2.3125,-1.5 -0.97721,-0.5989 -1.57269,-0.901 -2.5625,-1.5 -0.66513,-0.4035 -1.02237,-0.6558 -1.6875,-1.0625 -1.30504,-0.7817 -2.00034,-1.3167 -3.40625,-1.9062 -0.95829,-0.4067 -2.20341,0.146 -2.53125,-0.8438 -0.25218,-0.7439 0.73533,-1.1276 0.625,-1.9062 -0.0788,-0.5485 -0.24357,-0.8778 -0.625,-1.2813 -0.71241,-0.7439 -1.55062,-0.4547 -2.5625,-0.625 -1.3807,-0.2332 -2.23512,0.1375 -3.59375,-0.2187 -0.86688,-0.227 -1.41259,-0.3047 -2.125,-0.8438 -0.50436,-0.3845 -0.7888,-0.8178 -1,-1.2812 -0.23327,-0.5107 -0.38803,-1.0602 -0.6875,-1.6875 -0.47284,-0.9678 -0.58939,-1.6105 -1.09375,-2.5625 -0.5611,-1.056 -1.02237,-1.5415 -1.6875,-2.5313 -0.8984,-1.3334 -0.88452,-2.678 -2.3125,-3.4062 -0.90155,-0.4539 -1.67356,0.063 -2.5625,-0.4063 -0.57687,-0.3057 -0.89352,-0.5487 -1.28125,-1.0625 -1.04971,-1.3838 0,-2.7318 0,-4.4687 0,-0.993 -0.63361,-1.7684 0,-2.5313 0.5485,-0.6683 1.38422,-0.2212 2.125,-0.6562 0.81013,-0.4697 0.78252,-1.6182 1.71875,-1.6875 0.73763,-0.057 1.17368,0.3078 1.6875,0.8437 0.9709,1.0214 -0.29822,2.3105 0.21875,3.625 0.23642,0.6179 0.32047,1.0527 0.84375,1.4688 0.78176,0.6178 1.74949,-0.4023 2.53125,0.2187 0.52328,0.4161 0.254,1.2071 0.875,1.4688 0.91416,0.3909 1.09927,-2.2738 1.90625,-1.6875 0.67774,0.4854 -0.31523,1.359 0,2.125 0.24588,0.5958 0.76934,0.7075 1.0625,1.2812 0.34675,0.6778 0.0879,1.2128 0.40625,1.9063 0.79122,1.7337 2.39837,1.7759 4.03125,2.75 0.73448,0.4318 1.18411,0.6464 1.9375,1.0625 0.91101,0.498 1.30692,1.0322 2.3125,1.2812 0.95829,0.2428 1.65149,-0.4035 2.5625,0 0.90786,0.4067 1.06335,1.1277 1.6875,1.9063 0.81644,1.0245 0.79034,2.0565 1.90625,2.75 l 0.90625,-1.625 -0.0625,0.1562 c 0.50121,-0.7439 0.64764,-1.2726 1.28125,-1.9062 -0.63361,0.6336 -1.31759,2.2216 -1.8125,2.9687 l -0.3125,0.4063 c 0.80068,0.498 1.46111,0.3189 2.34375,0.6562 1.13797,0.435 1.63725,0.9833 2.75,1.4688 0.64937,0.2805 1.06965,0.3221 1.6875,0.6562 0.41925,0.2175 0.80347,0.3576 1.125,0.5625 l -0.28125,-0.5625 c 0.0189,-0.2072 0.0397,-0.4129 0.0313,-0.5937 0.008,0.1808 0.0189,0.3865 0,0.5937 l 0.25,0.5625 c 0.32153,0.2112 0.58581,0.4807 0.78125,0.9063 0.4161,0.9078 -0.15282,1.5695 -0.1875,2.5625 -0.0284,0.829 0,1.2678 0,2.0937 0,1.2452 0.0883,1.9518 0,3.1875 -0.0473,0.7503 -0.46778,1.2283 -0.21875,1.9375 0.31523,0.889 1.50276,0.6177 1.90625,1.4688 0.28686,0.5989 0.0548,1.035 0.21875,1.6875 0.1324,0.5359 0.0947,1.0217 0.34375,1.4062 0.0693,0.1041 0.17092,0.2211 0.28125,0.3125 0.53589,0.4035 1.06965,-0.071 1.6875,0.1875 0.70296,0.2932 1.02401,0.6792 1.5,1.2813 0.29001,0.3814 0.37912,0.6464 0.625,1.0625 0.58948,0.9866 0.55747,1.9005 1.5,2.5625 0.64622,0.4508 1.20014,0.2782 1.90625,0.625 0.43501,0.2112 0.60227,0.4611 1.0625,0.625 1.00558,0.3751 1.66877,-0.1497 2.75,-0.1875 0.91101,-0.031 1.4485,-0.1072 2.34375,0 0.75655,0.091 1.18438,0.1604 1.90625,0.4062 0.87318,0.2995 1.65216,0.265 2.125,1.0625 0.33729,0.5769 -0.33578,1.2777 0.1875,1.6875 0.33099,0.2585 0.63694,0.2188 1.0625,0.2188 0.42556,0 0.6401,-0.2566 1.0625,-0.2188 0.88579,0.079 0.88024,1.2321 1.71875,1.5 0.63361,0.1986 1.1264,0.3531 1.6875,0 0.66513,-0.4192 0.81386,-1.1402 0.65625,-1.9062 -0.11979,-0.5863 -0.48097,-0.8337 -0.875,-1.2813 -0.4224,-0.4791 -0.71096,-0.7 -1.25,-1.0625 -0.75339,-0.5232 -1.29595,-0.6527 -2.125,-1.0625 l 3.1875,0.6563 c 0.41925,-0.2459 0.84184,-0.2307 1.0625,-0.6563 0.33414,-0.6588 -0.37064,-1.1421 -0.875,-1.6875 -0.57056,-0.6273 -1.17807,-0.6275 -1.90625,-1.0625 -0.67774,-0.3972 -0.91204,-1.0467 -1.6875,-1.0625 -0.63361,0 -0.86954,0.6692 -1.5,0.625 -0.70611,-0.054 -1.30168,-0.3721 -1.46875,-1.0625 -0.18914,-0.7597 1.1287,-0.9089 1.0625,-1.6875 -0.0662,-0.7597 -0.75797,-0.9202 -1.28125,-1.4687 -0.61785,-0.6431 -1.0665,-0.9922 -1.6875,-1.5313 0,-0.4728 -0.0252,-0.7677 0,-1.25 0.0473,-1.2514 -0.85151,-3.1213 0.40625,-3.1875 0.98981,-0.054 0.89285,1.3764 1.71875,1.9375 0.46023,0.3121 0.85912,0.231 1.25,0.625 0.39403,0.3941 0.11406,1.1773 0.65625,1.2813 0.52328,0.098 0.62749,-0.5411 1.0625,-0.8438 0.69981,-0.4886 1.68244,-0.2397 1.90625,-1.0625 0.15761,-0.5831 -0.52892,-0.9073 -0.4375,-1.5 0.0914,-0.5895 0.37406,-0.9093 0.84375,-1.2812 0.72818,-0.5769 1.43905,-0.2329 2.34375,-0.4063 0.82905,-0.1576 1.28019,-0.5257 2.125,-0.4375 0.69981,0.076 1.0003,0.458 1.6875,0.625 0.81013,0.1986 1.45987,-0.273 2.125,0.2188 0.59263,0.4381 0.24797,1.2806 0.84375,1.7187 0.66828,0.4949 1.2928,0.2222 2.125,0.1875 1.1033,-0.044 1.74415,-0.253 2.78125,-0.625 1.04656,-0.3751 1.66122,-0.5877 2.53125,-1.2812 0.45708,-0.3657 0.52661,-0.8229 1.0625,-1.0625 0.60524,-0.268 1.02552,0 1.6875,0 0.91101,0 1.43589,0.066 2.34375,0 0.66198,-0.047 1.04732,-0.244 1.71875,-0.2188 0.49806,0.032 0.75825,0.1368 1.25,0.2188 l 0.2187,-0.8438 c -0.3499,-0.2112 0.19544,-0.6937 0,-1.0625 -0.30892,-0.6052 -1.02867,-0.2139 -1.6875,-0.4062 -0.75339,-0.2175 -1.19068,-0.3316 -1.90625,-0.6563 -0.60524,-0.2774 -0.98618,-0.415 -1.5,-0.8437 -0.49175,-0.4193 -0.73466,-0.7202 -1.0625,-1.2813 -0.29631,-0.5106 -0.28755,-1.0051 -0.28125,-1.5 0.003,-0.4949 0.009,-0.9959 -0.34375,-1.4687 -0.38773,-0.517 -0.95972,-0.5077 -1.28125,-1.0625 -0.54219,-0.9331 0.001,-1.6972 0.21875,-2.75 0.2837,-1.3082 0.13697,-2.4909 1.28125,-3.1875 0.51382,-0.3152 1.00852,-0.05 1.46875,-0.4375 0.37197,-0.3058 0.47972,-0.5805 0.65625,-1.0313 0.2711,-0.6966 0.2219,-1.1872 0.21875,-1.9375 -0.0126,-1.0024 -0.41859,-1.5225 -0.4375,-2.5312 -0.0347,-1.1695 -0.4609,-2.2154 0.4375,-2.9688 0.63991,-0.5422 1.26785,-0.2704 2.09375,-0.4375 0.82274,-0.1639 2.125,-0.4062 2.125,-0.4062 0.0347,-0.6778 0.0872,-1.1829 0.125,-1.7188 0.0214,10e-4 0.0698,-0.014 0.0937,0 l -0.0937,-0.125 c 0.0221,-0.3373 0.0496,-0.6994 0.0937,-1.125 0.0693,-0.7471 -0.17528,-1.2695 0.21875,-1.9062 0.44762,-0.725 1.29471,-0.4699 1.90625,-1.0625 0.55165,-0.5454 0.52031,-1.1577 1.0625,-1.7188 0.49175,-0.5169 1.07787,-0.4698 1.46875,-1.0625 0.34045,-0.5043 -0.007,-1.0621 0.4375,-1.4687 0.49175,-0.4508 1.17053,-0.6443 1.6875,-0.2188 0.2837,0.2365 0.17901,0.5758 0.4375,0.8438 0.41925,0.4287 0.94232,0.1412 1.46875,0.4375 0.60524,0.3436 0.67286,0.9376 1.28125,1.2812 0.52328,0.2963 0.91368,0.2361 1.5,0.4063 0.8259,0.2396 1.25812,0.5903 2.125,0.625 0.85111,0.041 1.2584,-0.3117 2.09375,-0.4063 1.15373,-0.1324 2.79825,-1.1411 3,0 0.16392,0.9835 -1.09584,1.1579 -1.9375,1.6875 -0.47284,0.29 -0.7614,0.3946 -1.25,0.6563 -0.58948,0.3121 -1.02085,0.3709 -1.5,0.8437 -0.46969,0.4697 -1.04865,0.832 -0.84375,1.4688 0.21751,0.6714 0.994,0.4892 1.6875,0.6562 0.80698,0.1986 1.32432,-0.024 2.125,0.1875 0.60524,0.1703 1.09966,0.1677 1.5,0.6563 0.47599,0.58 0.0391,1.1781 0.21875,1.9062 0.19859,0.8669 0.14394,1.5702 0.84375,2.125 0.77861,0.6179 1.64546,0.679 2.53125,0.2188 0.91731,-0.4823 0.32926,-1.934 1.28125,-2.3438 0.93938,-0.4066 1.67356,1.142 2.5625,0.625 0.46023,-0.2648 0.50646,-0.6495 0.84375,-1.0625 0.4886,-0.5895 0.49976,-1.3048 1.25,-1.4687 0.58317,-0.1293 0.9452,0.1761 1.5,0.4062 0.61785,0.2522 0.83802,0.7647 1.5,0.875 0.58317,0.098 0.95493,0.065 1.46875,-0.2187 0.621,-0.3405 1.10978,-0.7876 1.0625,-1.5 -0.0599,-0.8921 -1.03307,-1.0672 -1.90625,-1.25 -0.47915,-0.104 -0.79265,-0.031 -1.28125,0 -1.00558,0.054 -1.52883,0.5512 -2.53125,0.4062 -0.69981,-0.1008 -1.13873,-0.2278 -1.71875,-0.625 -0.63046,-0.435 -0.80238,-0.8853 -1.25,-1.5 -0.46338,-0.6273 -0.45726,-1.202 -1.0625,-1.6875 -0.55795,-0.435 -1.5488,0.037 -1.6875,-0.6562 -0.17022,-0.7975 1.15943,-0.4623 1.875,-0.8438 0.69035,-0.3719 1.15449,-0.5234 1.71875,-1.0625 0.51067,-0.4949 0.47933,-1.0621 1.0625,-1.4687 0.88264,-0.6179 1.67507,-0.1337 2.75,-0.2188 0.99297,-0.079 1.56953,-0.096 2.5625,-0.2187 0.99612,-0.123 1.65807,0.1044 2.53125,-0.4063 0.59893,-0.3562 0.70438,-0.8809 1.28125,-1.2812 0.45393,-0.3152 0.75167,-0.4643 1.28125,-0.625 0.87003,-0.2585 1.67259,-0.6431 2.3125,0 0.63991,0.6462 0.12924,1.4109 0,2.3125 -0.0946,0.6777 -0.25179,1.0536 -0.40625,1.7187 -0.2837,1.2326 -0.56483,1.8954 -0.65625,3.1563 -0.0504,0.7439 0.23327,1.2282 0,1.9375 -0.22381,0.6746 -0.45411,1.1031 -1.0625,1.4687 -0.64306,0.3878 -1.58472,-0.4621 -1.90625,0.2188 -0.20805,0.4539 -0.008,0.8305 0.21875,1.2812 0.29631,0.5737 0.73906,0.7032 1.28125,1.0625 0.82905,0.5548 1.35736,0.7192 2.3125,1.0313 0.64306,0.2175 1.11036,0.1286 1.71875,0.4375 0.68404,0.3404 0.82569,0.8683 1.46875,1.2812 1.1033,0.6998 2.18192,0.224 3.1875,1.0625 0.63676,0.5296 0.76112,1.0413 1.28125,1.6875 0.40034,0.5076 0.63064,0.8021 1.0625,1.2813 0.51382,0.5705 0.86433,0.858 1.375,1.375 0.041,0.038 0.0654,0.056 0.0937,0.094 0.85427,0.8858 0.97442,1.915 2.125,2.3437 0.39403,0.145 0.6464,0.1274 1.0625,0.2188 0.60839,0.1355 1.0458,0.2331 1.53125,0.375 l 0.59375,-0.1563 c 0.66198,-0.4161 0.94987,-0.8323 1.6875,-1.0625 0.87318,-0.2711 1.43905,-0.032 2.34375,0 1.41852,0.035 2.30735,-0.2793 3.625,0.2188 1.26091,0.4823 1.75703,1.1951 2.75,2.125 1.33341,1.2451 1.26655,2.9538 2.96875,3.5937 1.64864,0.6179 2.71608,-0.7668 4.46875,-0.625 2.51236,0.2049 4.24473,0.6651 5.9375,2.5313 0.47599,0.5264 0.49852,1.0303 1.03125,1.5 1.09384,0.952 2.18441,0.683 3.625,0.8437 1.31135,0.1419 2.0886,-0.1229 3.40625,0 1.33972,0.1198 2.03528,0.5683 3.375,0.625 1.07808,0.041 1.69084,-0.4236 2.75,-0.2187 1.09699,0.2112 1.49703,0.9723 2.5625,1.2812 1.27982,0.3689 2.0886,0.3953 3.40625,0.2188 0.35498,-0.051 0.59495,-0.12 0.90625,-0.1875 0.0536,0 0.0651,-0.028 0.125,-0.031 l -0.28125,-0.125 c -0.30892,-0.3468 -0.61885,-0.7276 -0.96875,-1.1563 -0.68404,-0.8164 -1.05677,-1.2991 -1.71875,-2.125 -1.06862,-1.3271 -1.5017,-2.2055 -2.75,-3.375 -1.11906,-1.056 -2.39313,-1.0292 -3.1875,-2.3437 -0.90786,-1.491 0.25888,-2.8517 -0.40625,-4.4688 -0.40349,-0.9992 -0.82541,-1.474 -1.5,-2.3125 -0.66198,-0.8227 -0.90383,-1.5721 -1.90625,-1.9062 -0.70296,-0.2364 -1.30732,0.4382 -1.90625,0 -0.87318,-0.6336 -0.0145,-1.7284 0.21875,-2.7813 0.31838,-1.409 1.15983,-1.9627 1.46875,-3.375 0.145,-0.6525 -0.11854,-1.1419 0.21875,-1.7187 0.58002,-0.9678 1.71605,-0.3993 2.75,-0.8438 0.98666,-0.4192 1.65628,-0.7267 2.375,-1.25 0.42808,-0.312 1.37945,-0.4674 1.125,-1.125 0,0 1.42774,-0.8716 0.75,-1.625 -1.06862,-1.1852 2.55468,0.6513 2.375,-0.9375 1.45821,0.1513 2.04525,0.8014 2.59375,-0.2187 0.70472,-0.072 2.68772,0.9978 2.5,-2.2188 1.92516,-2.2548 4.9434,0.6363 6.84375,0.7813 0.92362,0.1198 -2.90155,-4.0833 -2,-3.8438 1.14743,0.3026 -0.84942,-3.0101 -1.375,-4.6875 0.82044,-0.6524 -0.0333,-4.4397 -2,-5.25 -0.22277,-0.3349 -2.03375,-1.6501 -2.0625,-2.6562 -0.61677,-2.1291 -1.58735,-3.3551 -2.65625,-4.0313 0.57687,-0.6619 -1.15964,-2.3961 -0.40625,-2.8437 1.99854,-1.1821 3.66156,0.2478 5.9375,-0.2188 1.35863,-0.2805 2.04131,-0.8166 3.40625,-1.0625 1.14112,-0.2049 1.85284,-0.5213 2.96875,-0.2187 -0.19544,-3.7096 2.70571,0.7715 -1.21875,-5.9063 1.07177,0.2869 3.06556,-1.8989 4.15625,-1.6562 6.35899,-0.7209 9.66989,3.8858 11.34375,3.7187 l 7.90625,3.375 c -0.0902,-0.032 4.93166,-3.8728 4.8125,-3.9375 -0.0791,-0.044 0.12924,-0.435 0,-0.5 -0.0769,-0.038 0.15671,-0.4514 0.0313,-0.5 -0.0769,-0.032 0.0722,-0.2809 0,-0.3125 -0.0728,-0.032 0.91657,-3.4053 0.84375,-3.4375 -0.0703,-0.032 -0.96348,-6.9678 -1.03125,-7 -0.0687,-0.032 -0.27194,1.8659 -0.15625,-2.5 0.14627,-5.5155 -3.21875,-6.0937 -3.21875,-6.0937 -8.74192,13.371 -17.55362,-0.1302 -17.0625,-3 0.75803,-4.4277 11.97844,-2.1967 10.21875,-8.2188 -1.61378,-5.5224 -5.92907,-9.7191 -6,-9.75 -0.0709,-0.031 -0.17592,-0.083 -0.25,-4.1562 -0.0794,-4.364 -1.01598,-5.9704 -1.09375,-6 -0.0654,-0.027 -3.65161,-19.13048 -7.3125,-27.56252 l -153.0625,0 z m 95.125,130.71872 1.0625,0.5313 c 0.0347,0 0.031,-0.025 0.0625,-0.031 -0.4224,-0.2049 -0.82238,-0.3802 -1.125,-0.5 z m -140.75,-129.28122 c -0.14303,0.16096 -0.2707,0.33187 -0.40625,0.53125 -0.004,0.007 -0.0266,-0.006 -0.0313,0 0.13086,-0.19248 0.29923,-0.3751 0.4375,-0.53125 z m 63.4375,0.875 c 0.064,0.0948 0.1511,0.19456 0.25,0.28125 -0.007,-0.006 -0.0244,0.006 -0.0313,0 -0.10383,-0.0898 -0.15209,-0.182 -0.21875,-0.28125 z m 2.34375,0.90625 c 0.006,0.007 0.0255,-0.007 0.0313,0 0.14816,0.17416 0.1706,0.38644 0.15625,0.59375 0.007,-0.20766 -0.0393,-0.41959 -0.1875,-0.59375 z m 2.09375,2 c 0.0867,0.0149 0.16686,0.0635 0.25,0.125 -0.16628,-0.12294 -0.35374,-0.12966 -0.53125,-0.0937 0.0892,-0.0183 0.19456,-0.0462 0.28125,-0.0313 z m -68.4375,0.0625 c 0.0602,0.0806 0.11842,0.17801 0.15625,0.28125 0.0624,0.17548 0.10174,0.3785 0.15625,0.5625 -0.0563,-0.19197 -0.1218,-0.37954 -0.1875,-0.5625 -0.0402,-0.10888 -0.0607,-0.19743 -0.125,-0.28125 z m -4,1.28125 c 0.16077,-0.005 0.34527,0.0215 0.53125,0.0625 -0.37197,-0.082 -0.66889,-0.0523 -0.96875,0.0313 0.14973,-0.0418 0.27673,-0.0886 0.4375,-0.0937 z m 73.28125,0.3125 c -0.0254,0.19453 -0.0672,0.40225 -0.15625,0.59375 -0.0442,0.0975 -0.11006,0.15814 -0.1875,0.21875 0.0681,-0.0577 0.11645,-0.13009 0.15625,-0.21875 0.089,-0.1915 0.15471,-0.39911 0.1875,-0.59375 z m -75.65625,0.875 c 0.005,-0.006 0.0259,0.006 0.0313,0 -0.12475,0.12985 -0.26326,0.28175 -0.375,0.4375 0.11624,-0.16367 0.21372,-0.30215 0.34375,-0.4375 z m 6.59375,0.15625 c -0.0744,0.0775 -0.17131,0.16083 -0.28125,0.21875 -0.0851,0.0445 -0.16883,0.0729 -0.25,0.0937 0.0809,-0.0208 0.16528,-0.0805 0.25,-0.125 0.10994,-0.0579 0.20679,-0.11003 0.28125,-0.1875 z m 67.25,0.375 c 0.004,-0.006 0.0271,0.006 0.0313,0 -0.038,0.0645 -0.0625,0.15228 -0.0625,0.25 0,0.0973 0.003,0.17517 0.0313,0.25 -0.028,-0.0747 -0.0625,-0.15267 -0.0625,-0.25 0,-0.0977 0.0243,-0.18552 0.0625,-0.25 z m 7.15625,3.84375 c 0.006,0.006 0.0252,-0.006 0.0313,0 0.10718,0.10875 0.18542,0.22704 0.25,0.34375 0.12917,0.23343 0.186,0.46168 0.1875,0.71875 -0.008,-0.24174 -0.0635,-0.49847 -0.1875,-0.71875 -0.067,-0.11909 -0.1721,-0.23263 -0.28125,-0.34375 z m 0.15625,2.34375 c -0.10859,0.27568 -0.21857,0.56624 -0.34375,0.84375 -0.0824,0.18086 -0.17603,0.32987 -0.28125,0.46875 0.096,-0.13075 0.17376,-0.30131 0.25,-0.46875 0.12924,-0.28292 0.26275,-0.56167 0.375,-0.84375 z m -166.875,0.65625 c -0.10895,0.01 -0.20087,0.0646 -0.28125,0.1875 -0.29947,0.46654 0.41695,0.77058 0.625,1.28125 0.19859,0.48545 0.0529,0.92189 0.4375,1.28125 0.54219,0.50752 1.24742,0.34675 1.90625,0 0.41295,-0.22066 0.74918,-0.38667 0.84375,-0.84375 0.11663,-0.58632 -0.33939,-0.96287 -0.84375,-1.28125 -0.49806,-0.30892 -0.91998,-0.13679 -1.5,-0.21875 -0.43501,-0.0638 -0.86065,-0.43506 -1.1875,-0.40625 z m 163.3125,2.75 c 0.005,-0.006 0.0261,0.006 0.0313,0 -0.2774,0.30892 -0.46991,0.57949 -0.65625,0.84375 0.18244,-0.26637 0.34918,-0.53483 0.625,-0.84375 z m -75.0625,4.4375 c -0.005,0.0773 -0.006,0.16528 -0.0313,0.25 -0.0298,0.10222 -0.0926,0.15482 -0.15625,0.21875 0.0559,-0.061 0.0978,-0.15661 0.125,-0.25 0.0219,-0.0747 0.0561,-0.14989 0.0625,-0.21875 z m 67.8125,0.5625 c 0.006,-0.005 0.0256,0.005 0.0313,0 -0.13056,0.1201 -0.24743,0.23364 -0.34375,0.375 0.0958,-0.1385 0.18276,-0.25704 0.3125,-0.375 z m -0.5625,0.84375 c -0.0778,0.16542 -0.14388,0.33896 -0.21875,0.53125 -0.0749,0.19386 -0.12811,0.36045 -0.15625,0.53125 0.0273,-0.17076 0.0509,-0.36864 0.125,-0.5625 0.072,-0.18303 0.17646,-0.34335 0.25,-0.5 z m -129.03125,0.78125 c -0.26755,0.003 -0.55977,0.0538 -0.875,0.15625 -0.46023,0.14816 -0.7914,0.22466 -1.0625,0.625 -0.3436,0.50752 -0.29001,1.08308 0,1.59375 0.0662,0.11033 0.13364,0.23972 0.21875,0.34375 0.6273,0.77227 1.67671,0.64147 2.5625,0.1875 0.74078,-0.37827 1.44544,-0.88367 1.25,-1.6875 -0.14816,-0.63046 -0.63846,-0.84184 -1.25,-1.0625 -0.3105,-0.11348 -0.5762,-0.15901 -0.84375,-0.15625 z m 94.0625,1.625 c -0.93578,0.15811 -2.12991,1.30862 -1.5625,1.93752 0.40349,0.4476 0.91052,0.5134 1.5,0.4062 0.46969,-0.085 0.82608,-0.2026 1.0625,-0.625 0.28055,-0.51064 0.15007,-1.0492 -0.21875,-1.49997 -0.18047,-0.21751 -0.46932,-0.27145 -0.78125,-0.21875 z m -32.9375,1.50002 c -0.13102,0.2157 -0.26964,0.4293 -0.4375,0.6562 -0.10764,0.1461 -0.23749,0.2653 -0.34375,0.375 0.11161,-0.1135 0.19981,-0.2221 0.3125,-0.375 0.16341,-0.2199 0.3401,-0.4471 0.46875,-0.6562 z m -1.125,1.3437 c -0.23681,0.1864 -0.49727,0.3747 -0.8125,0.5938 -0.0867,0.061 -0.18738,0.083 -0.28125,0.125 0.0937,-0.042 0.19496,-0.095 0.28125,-0.1563 0.31365,-0.2191 0.57529,-0.3761 0.8125,-0.5625 z m -67.21875,3.5 c -0.37266,-0.011 -0.66058,0.068 -1.0625,0.25 -0.48545,0.2175 -1.00261,0.3142 -1.0625,0.8438 -0.0567,0.5264 0.3583,0.8544 0.84375,1.0625 0.53904,0.2301 0.9108,-0.039 1.46875,-0.2188 0.73763,-0.2458 1.83223,-0.2589 1.71875,-1.0312 -0.10403,-0.6588 -0.84433,-0.7647 -1.5,-0.875 -0.14343,-0.024 -0.28203,-0.028 -0.40625,-0.031 z m 113.9375,0.4688 c -0.40664,0.072 -0.52852,0.3507 -0.84375,0.625 -0.57056,0.5012 -0.69493,0.1413 -1.28125,1.5 -0.0315,0.079 0.6213,0.387 0.6875,0.4375 1.26406,1.0308 0.47606,0.5682 1.4375,0.625 0.78176,0.047 1.41134,-0.054 1.90625,-0.6563 0.32784,-0.4066 0.62664,-0.7645 0.4375,-1.25 -0.18914,-0.4476 -0.6401,-0.4261 -1.0625,-0.6562 -0.4886,-0.2711 -0.73906,-0.7259 -1.28125,-0.625 z m 22.21875,0.5312 c 0.10718,0.2885 0.22896,0.5858 0.3125,0.9688 0.0816,0.3652 0.15653,0.6686 0.21875,0.9687 0.0622,0.3002 0.11171,0.5971 0.0937,0.9063 0.0136,-0.3136 -0.0248,-0.5994 -0.0937,-0.9063 -0.0689,-0.3068 -0.16843,-0.6347 -0.25,-1 -0.0835,-0.383 -0.17407,-0.649 -0.28125,-0.9375 z m -18.4375,2.5938 c -0.25696,0.019 -0.50279,0.215 -0.8125,0.2812 -1.00242,0.2144 -1.51622,0.4611 -2.53125,0.625 -0.98351,0.1639 -1.61051,-0.056 -2.5625,0.2188 -0.61154,0.1734 -1.29222,0.02 -1.46875,0.625 -0.15446,0.5327 0.38227,0.7832 0.625,1.2812 0.34045,0.662 0.19753,1.3219 0.84375,1.6875 0.57056,0.3279 1.11667,0.2711 1.71875,0 0.54219,-0.2364 0.60857,-0.6905 1.0625,-1.0625 0.59578,-0.4949 0.97509,-0.7189 1.6875,-1.0625 0.63361,-0.3089 1.2714,-0.051 1.6875,-0.625 0.43186,-0.6052 0.6935,-1.6414 0,-1.9062 -0.0977,-0.037 -0.16435,-0.069 -0.25,-0.063 z m -127.46875,0.5625 c -0.23453,0.027 -0.44258,0.131 -0.65625,0.3437 -0.59893,0.599 0.004,1.4032 -0.4375,2.125 -0.30577,0.4981 -0.56759,0.7536 -1.0625,1.0625 -0.37827,0.2333 -0.64325,0.2581 -1.0625,0.4063 -0.56741,0.1986 -0.89188,0.2578 -1.46875,0.4375 -0.64306,0.1954 -1.14243,0.1882 -1.65625,0.4687 0.24903,-0.29 0.5288,-0.6068 0.8125,-0.9062 0.57687,-0.5958 1.10184,-0.8711 1.25,-1.6875 0.10087,-0.5737 0.13088,-0.977 -0.1875,-1.4688 -0.63361,-0.9709 -1.92823,-0.4381 -3,0 -0.65883,0.2711 -0.98015,0.5424 -1.46875,1.0625 -0.58002,0.6242 -1.03098,1.0552 -1.0625,1.9063 -0.0221,0.7092 0.0828,1.2336 0.625,1.6875 0.3436,0.2837 0.62433,0.3713 1.0625,0.4375 0.39088,0.057 0.71314,-0.058 1,-0.1875 -0.30577,0.394 -0.4963,0.8417 -0.5625,1.4375 -0.0883,0.7565 -0.13594,1.3672 0.40625,1.9062 0.70611,0.6967 1.85324,-0.6998 2.5625,0 0.53904,0.5359 0.009,1.3039 0.4375,1.9375 0.39719,0.5864 1.13461,0.4008 1.46875,1.0313 0.34675,0.6588 0,1.1935 0,1.9375 0,0.829 -0.64937,1.5768 0,2.0937 0.51697,0.4161 1.02552,-0.047 1.6875,0 0.58317,0.044 1.04607,-0.1532 1.5,0.2188 0.52958,0.4287 0.19162,1.082 0.4375,1.7187 0.19544,0.5202 0.59032,0.6952 0.625,1.25 0.0599,1.0529 -1.37352,0.9953 -1.90625,1.9063 -0.35936,0.6084 -0.83278,1.0315 -0.65625,1.7187 0.2711,1.0687 1.68426,0.6881 2.78125,0.625 1.04656,-0.054 1.63285,-0.2984 2.53125,-0.8437 0.64622,-0.3972 0.84433,-1.6722 1.5,-1.2813 0.44762,0.268 0.25809,0.7801 0.40625,1.2813 0.33414,1.138 -0.0436,2.0136 0.65625,2.9687 0.0284,0.038 0.0341,0.062 0.0625,0.094 0.48545,0.5579 1.17107,0.557 1.625,1.1875 0.59578,0.8322 0.98436,1.5761 0.625,2.5312 -0.33099,0.8858 -1.04253,1.1281 -1.90625,1.5 -1.14743,0.4886 -1.98648,0.5498 -3.1875,0.2188 -0.71241,-0.1955 -0.99715,-1.1335 -1.6875,-0.875 -0.74078,0.2742 -0.48315,1.162 -0.625,1.9375 -0.17653,0.9772 0.0441,1.5383 0,2.5312 -0.0378,0.9961 0.35496,1.7461 -0.21875,2.5625 -0.53589,0.7503 -1.47248,0.4069 -2.125,1.0625 -0.92362,0.9236 -2.04286,2.2926 -1.0625,3.1563 0.621,0.5516 1.2928,0.1809 2.125,0.2187 0.66198,0.032 1.02552,-0.035 1.6875,0 0.74709,0.038 1.16547,0.1211 1.90625,0.2188 0.58317,0.072 0.91998,0.1273 1.5,0.2187 0,0 1.3439,-0.1832 1.6875,0.4063 0.29001,0.5075 0.24121,1.1059 -0.1875,1.5 -0.37197,0.3373 -0.78004,0.1651 -1.28125,0.2187 -0.82274,0.082 -1.32117,-0.2017 -2.125,0 -0.71872,0.1797 -1.06965,0.4371 -1.6875,0.8438 -0.63361,0.4224 -0.87585,0.8431 -1.5,1.2812 -0.69665,0.4918 -1.24112,0.4985 -1.90625,1.0313 -0.68404,0.5516 -0.99564,0.9969 -1.5,1.7187 -0.4886,0.6967 -1.32729,1.0961 -1.0625,1.9063 0.32784,1.0276 1.72839,0.4741 2.78125,0.2187 1.15688,-0.2805 1.34915,-1.5233 2.53125,-1.7187 1.08438,-0.1797 1.64986,0.7445 2.75,0.6562 0.4224,-0.035 0.67162,-0.061 1.0625,-0.2187 0.87003,-0.3436 0.98427,-1.1107 1.71875,-1.6875 0.76285,-0.5958 1.1604,-1.3128 2.125,-1.2813 0.73763,0.032 0.96248,0.6956 1.6875,0.8438 0.81644,0.1639 1.31802,-0.01 2.125,-0.2188 1.28613,-0.3436 1.68577,-1.325 2.96875,-1.6875 1.44059,-0.4003 2.32147,0 3.8125,0 1.49103,0 2.33408,0.1608 3.8125,0 1.25776,-0.1355 2.04322,-0.07 3.1875,-0.625 1.05601,-0.5106 1.32241,-1.3262 2.34375,-1.9062 0.31838,-0.186 0.58211,-0.1759 0.84375,-0.4375 0.58632,-0.5832 -1.4315,0.4508 -2.125,0 -0.50121,-0.3247 -0.79016,-0.6855 -0.84375,-1.2813 -0.0693,-0.8763 0.79389,-1.1642 1.5,-1.6875 0.59263,-0.4444 1.05389,-0.4591 1.6875,-0.8437 0.60839,-0.3688 1.19423,-0.4163 1.5,-1.0625 0.31208,-0.6809 -0.0895,-1.1655 -0.21875,-1.9063 -0.12294,-0.7534 0.029,-1.3041 -0.4375,-1.9062 -0.76916,-0.9898 -2.14094,0.2497 -3.1875,-0.4375 -0.49175,-0.3216 -0.86075,-0.5172 -1.0625,-1.0625 -0.23642,-0.6273 0.51506,-1.0917 0.21875,-1.6875 -0.26164,-0.5328 -0.87776,-0.4369 -1.28125,-0.875 -0.71557,-0.7692 -0.0588,-1.8409 -0.84375,-2.5313 -0.64937,-0.5705 -1.60487,0.065 -2.125,-0.625 -0.33414,-0.4381 -0.10636,-0.9208 -0.0937,-1.4062 0.003,-0.1734 -0.0399,-0.3516 -0.125,-0.5313 -0.51067,-1.078 -1.5572,-0.9908 -2.53125,-1.6875 -0.67459,-0.4791 -0.994,-0.8273 -1.6875,-1.2812 -0.40349,-0.2617 -0.76619,-0.2436 -1.0625,-0.625 -0.51067,-0.6494 0.21751,-1.3243 0,-2.125 -0.29316,-1.0844 -0.92438,-1.5431 -1.71875,-2.3438 -0.66198,-0.6714 -1.00155,-1.1913 -1.90625,-1.4687 -0.94883,-0.2963 -1.53513,0.2345 -2.53125,0.2187 -0.83535,0 -1.39682,0.1816 -2.125,-0.2187 -0.51067,-0.2837 -0.95532,-0.4857 -1.0625,-1.0625 -0.17338,-0.9489 1.48509,-0.5594 2.125,-1.2813 0.44447,-0.498 0.34569,-1.0242 0.84375,-1.4687 0.70611,-0.6305 1.59666,-0.073 2.34375,-0.6563 1.09384,-0.8542 0.89543,-1.9974 1.0625,-3.375 0.17653,-1.3996 0.83096,-2.6824 -0.21875,-3.625 -1.11275,-1.0024 -2.33724,0.1885 -3.8125,0.4375 -1.16949,0.1986 -1.78665,0.6881 -2.96875,0.625 -0.50121,-0.032 -0.96917,0.1785 -1.28125,-0.2187 -0.37197,-0.476 0.069,-0.9739 0.40625,-1.4688 0.43501,-0.6462 1.23015,-0.4541 1.71875,-1.0625 0.39403,-0.4917 0.80783,-0.8979 0.625,-1.5 -0.1324,-0.4507 -0.40874,-0.6703 -0.84375,-0.8437 -0.63361,-0.249 -1.00661,0.3839 -1.6875,0.4375 -0.74709,0.057 -1.18726,-0.1778 -1.9375,-0.2188 -0.66198,-0.032 -1.02867,0 -1.6875,0 -0.67577,0 -1.29358,-0.3068 -1.84375,-0.3437 -0.0825,-0.01 -0.17182,-0.01 -0.25,0 z m 146.15625,1 c -0.10205,0.195 -0.21896,0.3964 -0.375,0.625 -0.10366,0.1513 -0.22533,0.2424 -0.34375,0.3437 0.11215,-0.098 0.2132,-0.1995 0.3125,-0.3437 0.15761,-0.2286 0.30459,-0.43 0.40625,-0.625 z m -13.125,2.9375 c 0.29159,0.083 0.52107,0.1592 0.75,0.2187 -0.22893,-0.06 -0.45841,-0.1039 -0.75,-0.1875 l 0,-0.031 z m -25.1875,0.4375 c -0.28095,0.042 -0.57841,0.1699 -0.90625,0.2187 -0.76916,0.1167 -1.29471,0.1333 -1.90625,0.625 -0.67143,0.5328 -1.31468,1.0898 -1.0625,1.9063 0.18914,0.6147 0.99782,0.4699 1.25,1.0625 0.24273,0.5296 -0.39403,1.0807 0,1.5 0.35621,0.3625 0.81156,0.3953 1.28125,0.2187 0.73763,-0.2742 0.237,-1.2723 0.65625,-1.9375 0.38143,-0.5926 0.92847,-0.6227 1.25,-1.25 0.38143,-0.7408 0.84921,-1.5828 0.21875,-2.125 -0.25061,-0.2159 -0.5003,-0.2605 -0.78125,-0.2187 z m 34.71875,2.8437 c 0.23491,0.2 0.46314,0.4262 0.75,0.6563 -0.006,0.01 0.005,0.025 0,0.031 -0.28586,-0.232 -0.5145,-0.4802 -0.75,-0.6875 z m -43,2.375 c -0.21278,-0.022 -0.4432,0.034 -0.6875,0.094 -0.9709,0.2364 -0.81662,1.3416 -1.0625,2.3125 -0.15761,0.6493 -0.72942,1.2932 -0.21875,1.7187 0.45393,0.372 0.98618,0.065 1.5,-0.2187 0.81013,-0.4508 0.86733,-1.214 1.03125,-2.125 0.10087,-0.5706 0.40664,-1.0495 0,-1.4688 -0.17495,-0.1828 -0.34972,-0.2904 -0.5625,-0.3125 z m -106,2.0313 c -0.13821,0.019 -0.25679,0.094 -0.375,0.1875 -0.39719,0.3089 -0.45832,0.8055 -0.21875,1.25 0.32153,0.5832 1.31553,0.7735 1.6875,0.2187 0.22696,-0.3436 0.19859,-0.7 0,-1.0625 -0.22224,-0.3948 -0.67913,-0.6506 -1.09375,-0.5937 z m 148.34375,0.1875 c -0.005,0.2012 0.0247,0.3992 0.0625,0.625 0.0205,0.1233 0.0287,0.2371 0.0625,0.3437 -0.0338,-0.1066 -0.0733,-0.2204 -0.0937,-0.3437 -0.0382,-0.2258 -0.0362,-0.4238 -0.0313,-0.625 z m 0.25,1.2812 c 0.26184,0.568 0.68586,0.9617 0.875,1.6875 0.12609,0.4823 0.0787,0.8837 0.0625,1.2813 0.0165,-0.3976 0.0323,-0.799 -0.0937,-1.2813 -0.18914,-0.7258 -0.58191,-1.1195 -0.84375,-1.6875 z m -62.875,1.8438 c -0.11506,0 -0.24891,0.025 -0.375,0.063 -0.50752,0.1481 -0.41504,0.7286 -0.84375,1.0312 -0.56741,0.3941 -1.00976,0.3461 -1.6875,0.4375 -0.82274,0.1104 -1.51031,-0.5579 -2.125,0 -0.66828,0.6116 -0.47284,1.5683 0,2.3438 0.44762,0.725 1.17807,0.6306 1.90625,1.0625 0.41925,0.2427 0.6464,0.3917 1.0625,0.625 0.4886,0.2679 0.74852,0.7794 1.28125,0.625 0.59578,-0.1797 0.40434,-0.8793 0.625,-1.4688 0.18283,-0.4886 0.21369,-0.8084 0.4375,-1.2812 0.20175,-0.4382 0.46423,-0.6023 0.625,-1.0625 0.23957,-0.703 0.50436,-1.3609 0,-1.9063 -0.27425,-0.286 -0.56108,-0.4601 -0.90625,-0.4687 z m -84.6875,0.4062 c -0.28415,0.057 -0.54719,0.4109 -0.78125,0.6875 -0.28055,0.3468 -0.65213,0.6906 -0.40625,1.0625 0.28686,0.435 0.91586,-0.012 1.25,-0.4062 0.32153,-0.3877 0.64746,-1.0165 0.21875,-1.2813 -0.10245,-0.063 -0.18653,-0.082 -0.28125,-0.063 z m 1.34375,2.625 c -1.63288,0.2333 0.40625,1.0405 0.40625,1.0625 l 0.4375,-0.4375 c -0.0599,-0.4098 -0.43395,-0.6817 -0.84375,-0.625 z m 147.875,0.9688 c 0.0821,0.1575 0.17728,0.3035 0.28125,0.4375 -0.0837,-0.1073 -0.18223,-0.2208 -0.25,-0.3438 -0.0151,-0.027 -0.0168,-0.066 -0.0313,-0.094 z m -51.6875,0.2812 c -0.18076,0.019 -0.34424,0.093 -0.46875,0.2188 -0.29001,0.3026 -0.37636,0.6716 -0.21875,1.0625 0.22381,0.5579 0.99879,0.7842 1.5,0.4375 0.29947,-0.2112 0.41571,-0.4781 0.40625,-0.8438 -0.0236,-0.5319 -0.67646,-0.9322 -1.21875,-0.875 z m 48.75,0.094 c 0.30065,-0.01 0.16158,0.084 0.3125,0.125 -0.41362,-0.014 -0.81496,-0.035 -1.1875,-0.031 0.46496,-0.07 0.72468,-0.09 0.875,-0.094 z m -151.625,0.063 c -0.23118,0.01 -0.45999,0.04 -0.75,0.063 -1.10014,0.088 -1.68768,0.3536 -2.75,0.6562 -1.43744,0.4035 -2.55665,0.1783 -3.59375,1.25 -0.41295,0.4319 -0.80907,0.6855 -0.84375,1.2813 -0.063,1.0087 1.83211,0.5259 2.09375,1.5 0.11348,0.4003 0.1387,0.6716 0,1.0625 -0.23327,0.6714 -0.75949,0.9963 -1.46875,1.0625 -0.73763,0.066 -1.07281,-0.4621 -1.6875,-0.875 -0.44132,-0.2932 -0.58966,-0.5979 -1.0625,-0.8438 -0.95514,-0.498 -1.84502,-0.7328 -2.78125,-0.1875 -0.55795,0.3247 -0.99027,0.6038 -1.03125,1.25 -0.0347,0.5548 0.26564,0.862 0.625,1.2813 0.59578,0.7092 2.16283,0.1389 2.125,1.0625 -0.0221,0.4823 -0.3095,0.7252 -0.65625,1.0625 -0.621,0.6021 -1.77537,-0.1757 -2.09375,0.625 -0.15446,0.3846 -0.15446,0.6811 0,1.0625 0.31838,0.8007 1.28992,0.341 2.09375,0.6562 0.86372,0.3373 2.2574,0.1484 2.125,1.0625 -0.0977,0.6399 -0.78977,0.6118 -1.25,1.0625 -0.54534,0.5296 -0.67286,1.0117 -1.28125,1.4688 -0.71872,0.5327 -1.40943,0.311 -2.125,0.8437 -0.61154,0.4571 -0.82732,0.8822 -1.28125,1.5 -0.57371,0.7755 -1.52082,1.1888 -1.28125,2.125 0.16707,0.6809 0.80841,0.7299 1.28125,1.25 0.43501,0.4792 0.52977,0.9125 1.0625,1.2813 0.82905,0.5674 1.55062,0.4312 2.5625,0.4375 1.26406,0 1.95496,-0.3568 3.1875,-0.6563 1.16949,-0.2868 1.85942,-0.3047 2.9375,-0.8437 1.01188,-0.4949 1.33187,-1.1895 2.34375,-1.6875 1.15373,-0.5674 1.91398,-0.6799 3.1875,-0.8438 1.23569,-0.1607 2.09997,0.599 3.1875,0 1.16949,-0.6462 1.22727,-1.7485 1.6875,-3 0.41925,-1.1096 0.48918,-1.7961 0.65625,-2.9687 0.12924,-0.9079 0.17174,-1.3984 0.1875,-2.3125 0.009,-0.848 -0.29701,-1.4407 -0.28125,-2.1563 l 0.0937,0.031 c -0.0315,-0.031 -0.0622,-0.037 -0.0937,-0.063 0.009,-0.1797 0.0339,-0.3889 0.0937,-0.5938 0.22696,-0.7471 0.52661,-1.1201 1.0625,-1.6875 0.61469,-0.6493 1.72972,-0.4049 1.90625,-1.2812 0.17338,-0.8795 -0.78634,-1.1592 -1.28125,-1.9063 -0.49806,-0.7471 -0.69808,-1.2253 -1.28125,-1.9062 -0.38143,-0.4445 -0.51085,-0.8545 -1.0625,-1.0625 -0.10048,-0.038 -0.19031,-0.061 -0.28125,-0.063 -0.63659,-0.012 -1.08799,0.7684 -1.84375,0.7187 -0.22381,0 -0.38912,-0.081 -0.5625,-0.1562 -0.35621,-0.1639 -0.64901,-0.4212 -1.125,-0.5 -0.28528,-0.046 -0.51882,-0.068 -0.75,-0.063 z m 149.28125,0.7187 0.0313,0 c -0.30824,0.5069 -0.0736,0.9635 0.0313,1.4688 -0.11364,-0.5053 -0.37074,-0.9619 -0.0625,-1.4688 z m -64.125,1.2188 c -0.2112,0.01 -0.41722,0.072 -0.59375,0.25 -0.35305,0.3593 -0.47436,0.8683 -0.1875,1.2812 0.29631,0.4067 0.75825,0.071 1.25,0.1875 0.50752,0.1293 0.76112,0.3745 1.28125,0.4375 0.33099,0.044 0.54428,0.1419 0.84375,0 0.69665,-0.3215 0.20844,-1.4397 -0.40625,-1.9062 -0.45708,-0.3562 -0.91998,-0.2314 -1.5,-0.2188 -0.25533,0 -0.4763,-0.04 -0.6875,-0.031 z m 64.21875,0.7812 c -0.009,0.1028 -0.0239,0.2054 -0.0625,0.3125 -0.041,0.1175 -0.10428,0.2151 -0.15625,0.3125 0.052,-0.097 0.084,-0.195 0.125,-0.3125 0.0386,-0.1071 0.0846,-0.2097 0.0937,-0.3125 z m -1.78125,2.2188 c 0.005,-0.01 0.0258,0.01 0.0313,0 -0.58002,0.6588 -0.91998,1.0631 -1.5,1.7187 0.58002,-0.6556 0.88873,-1.0599 1.46875,-1.7187 z m 20.375,0.6562 c 0.006,0.01 0.0254,-0.01 0.0313,0 0.18914,0.1907 0.32027,0.3699 0.4375,0.5625 -0.11723,-0.1926 -0.27961,-0.3718 -0.46875,-0.5625 z m -24.0625,5.625 c 0.0997,0.1584 0.21084,0.3319 0.3125,0.5313 0.44447,0.8637 0.58211,1.3763 0.84375,2.3125 -0.25849,-0.9362 -0.43053,-1.4488 -0.875,-2.3125 -0.10166,-0.1994 -0.18151,-0.3729 -0.28125,-0.5313 z m 30.28125,4.6563 c 0.004,0.097 0.0149,0.1966 -0.0313,0.3125 -0.0397,0.098 -0.0974,0.1496 -0.15625,0.2187 0.048,-0.067 0.0903,-0.1328 0.125,-0.2187 0.0461,-0.1159 0.0664,-0.2153 0.0625,-0.3125 z m -28.5625,0.063 c -0.0279,0.084 -0.0631,0.1641 -0.125,0.25 -0.005,0.01 -0.0264,-0.01 -0.0313,0 0.0619,-0.086 0.12829,-0.1657 0.15625,-0.25 z m 25.25,2.3437 c 0.0761,0.2266 0.12843,0.4621 0.0937,0.6875 -0.0197,0.1238 -0.0564,0.2375 -0.0937,0.3438 0.0374,-0.1063 0.0428,-0.22 0.0625,-0.3438 0.0347,-0.2254 0.0136,-0.4609 -0.0625,-0.6875 z m -0.90625,2.6563 c -0.0323,0.1065 -0.0495,0.2196 -0.0625,0.3437 -0.0315,0.331 0,0.5128 0,0.8438 l -0.0313,0 -0.40625,0.2187 -0.21875,0 c -0.41295,0.8291 -0.66874,1.2771 -1.03125,2.125 -0.28843,0.6691 -0.29335,1.2288 -0.53125,1.7813 0.23672,-0.5525 0.2092,-1.1122 0.5,-1.7813 0.36251,-0.8479 0.64955,-1.2959 1.0625,-2.125 l 0.625,-0.2187 c 0,-0.331 -0.0315,-0.5128 0,-0.8438 0.013,-0.1241 0.0614,-0.2372 0.0937,-0.3437 z m -23.5625,4.375 c 0.0513,0.072 0.10452,0.1366 0.15625,0.2187 0.52013,0.8543 1.14131,1.3477 1.0625,2.3438 -0.0165,0.2128 -0.0649,0.3945 -0.125,0.5625 0.0601,-0.168 0.0772,-0.3497 0.0937,-0.5625 0.0788,-0.9961 -0.54237,-1.4895 -1.0625,-2.3438 -0.047,-0.078 -0.0746,-0.1498 -0.125,-0.2187 z m 0.53125,4 c -0.12043,0.1432 -0.23788,0.3056 -0.375,0.4687 -0.005,0.01 -0.026,-0.01 -0.0313,0 0.13712,-0.1631 0.28582,-0.3255 0.40625,-0.4687 z m -84.78125,0.5 -0.0625,0.094 c -1.1159,0.123 -1.61632,0.2093 -2.4375,0.25 0.85947,-0.069 1.56938,-0.2233 2.5,-0.3437 z m 80.46875,3.0625 c -0.0441,0.093 -0.0654,0.1677 -0.0937,0.2812 -0.0664,0.268 -0.0295,0.5049 0.0625,0.7188 -0.10501,-0.2169 -0.16133,-0.446 -0.0937,-0.7188 0.0284,-0.1135 0.0809,-0.1884 0.125,-0.2812 z m -21.34375,1.3437 3.0625,0.5938 c -0.0948,0.019 -0.17368,0.059 -0.28125,0.063 -0.58948,0.032 -0.92944,-0.099 -1.5,-0.2188 -0.55559,-0.1182 -0.88893,-0.2536 -1.40625,-0.4062 l 0.125,-0.031 z m 22.125,0.7813 c 0.11668,0.2075 0.20563,0.4508 0.1875,0.7187 -0.0158,0.2034 -0.0548,0.3916 -0.0937,0.5625 0.0389,-0.1709 0.0467,-0.3591 0.0625,-0.5625 0.0181,-0.2679 -0.0396,-0.5112 -0.15625,-0.7187 z m -0.3125,2.1875 c -0.10117,0.1433 -0.20347,0.2893 -0.34375,0.4375 -0.006,0.01 -0.025,-0.01 -0.0313,0 0.14028,-0.1482 0.27383,-0.2942 0.375,-0.4375 z m -1.53125,1 0.3125,0.063 -0.15625,0.094 c -0.0579,-0.051 -0.10395,-0.1074 -0.15625,-0.1562 z m -0.1875,0.5625 c -0.0339,0.1655 -0.0832,0.4153 -0.21875,0.8125 -0.0662,0.1994 -0.13374,0.3504 -0.15625,0.4687 0.0225,-0.1183 0.0588,-0.2693 0.125,-0.4687 0.13555,-0.3972 0.21611,-0.647 0.25,-0.8125 z m -0.3125,1.75 c 0.0289,0.066 0.0614,0.1507 0.0937,0.25 0.0331,0.099 0.0439,0.2319 0.0625,0.375 -0.0186,-0.1431 -0.0607,-0.2757 -0.0937,-0.375 -0.0366,-0.1124 -0.0405,-0.1769 -0.0625,-0.25 z m 83.65625,3.375 c -0.0269,0.083 -0.0558,0.1657 -0.0625,0.25 0.004,-0.041 -0.008,-0.085 0,-0.125 0.007,-0.042 0.0489,-0.083 0.0625,-0.125 z m -80.09375,0.9375 c -0.0567,0.083 -0.10081,0.1657 -0.1875,0.25 -0.006,0.01 -0.0251,-0.01 -0.0313,0 0.0867,-0.084 0.16201,-0.1669 0.21875,-0.25 z m -4.59375,4.2812 c -0.11629,0.2142 -0.25124,0.4256 -0.46875,0.625 -0.007,0.01 -0.0242,-0.01 -0.0313,0 0.21751,-0.1994 0.38346,-0.4108 0.5,-0.625 z m 36.59375,0.4063 c 0.0229,0.3901 0.042,0.7832 0.0625,1.2812 0.0142,0.3405 0.0378,0.6327 0.0625,0.9063 -0.0325,-0.2736 -0.0796,-0.5658 -0.0937,-0.9063 -0.0221,-0.498 -0.008,-0.8911 -0.0313,-1.2812 z m 0.15625,3 c -0.0129,0.1893 -0.041,0.4035 -0.0937,0.625 -0.0299,0.1261 -0.0808,0.2363 -0.125,0.3437 0.0442,-0.1074 0.0638,-0.2176 0.0937,-0.3437 0.0528,-0.2215 0.11214,-0.4357 0.125,-0.625 z m -73.71875,4.9687 c 0.1388,-0.016 0.27425,0 0.40625,0 -0.264,0.01 -0.52379,0 -0.84375,0.094 0.14805,-0.043 0.3076,-0.079 0.4375,-0.094 z m 32.75,0.1563 c -0.12502,0.024 -0.2457,0.073 -0.375,0.094 -0.19229,0.032 -0.36706,0.034 -0.5625,0.063 0.32707,-0.045 0.63164,-0.096 0.9375,-0.1562 z m -8.78125,3.3437 c 0.11742,0.2554 0.21983,0.4875 0.34375,0.6875 -0.11287,-0.1822 -0.23652,-0.398 -0.34375,-0.625 l 0,-0.063 z m 52.71875,0.5 c 0.21011,0.017 0.41503,0.037 0.625,0.094 -9.5e-4,0.01 0.001,0.021 0,0.031 -0.20249,-0.053 -0.42135,-0.1077 -0.625,-0.125 z m -50.65625,6.0938 c 0.006,0.062 0.039,0.1197 0.0625,0.1875 0.0315,0.09 0.0457,0.1826 0.0937,0.25 -0.0481,-0.067 -0.0935,-0.1598 -0.125,-0.25 -0.0235,-0.068 -0.0256,-0.1253 -0.0313,-0.1875 z m -49.625,8.25 c -0.47636,0.1348 -0.45202,1.158 -1.03125,1.5 -0.51382,0.3058 -0.99879,0.097 -1.5,0.4375 -0.69981,0.4791 -0.95532,1.0583 -1.0625,1.9062 -0.0946,0.7534 -0.0763,1.3389 0.4375,1.9063 0.36566,0.4098 0.93792,0.1648 1.25,0.625 0.42556,0.6147 -0.6317,1.2852 -0.21875,1.9062 0.35621,0.5233 0.8727,0.7729 1.5,0.6563 0.52328,-0.098 0.71575,-0.4403 1.0625,-0.8438 0.58002,-0.6809 0.66722,-1.2549 0.84375,-2.125 0.22696,-1.0528 0.0756,-1.7094 0,-2.7812 -0.0473,-0.7471 0.0867,-1.2096 -0.1875,-1.9063 -0.22381,-0.5579 -0.28552,-1.152 -0.875,-1.2812 -0.0918,-0.021 -0.1507,-0.019 -0.21875,0 z m 84.875,6.8125 c 0.008,-0.01 0.0235,0.01 0.0313,0 -0.0788,0.068 -0.15153,0.1433 -0.1875,0.2187 0.036,-0.075 0.0774,-0.1509 0.15625,-0.2187 z m 0.0625,1.8125 c -0.003,0.098 0.004,0.2152 -0.0313,0.3125 -0.0804,0.2269 -0.1578,0.3934 -0.25,0.5625 0.0922,-0.1691 0.13837,-0.3356 0.21875,-0.5625 0.0351,-0.097 0.0593,-0.215 0.0625,-0.3125 z m -84.53125,2 c -0.49622,0.099 -0.71214,0.6038 -1.25,0.8437 -0.79437,0.3531 -1.27389,0.5021 -2.125,0.625 -0.9047,0.1387 -1.67574,-0.6493 -2.3125,0 -0.4161,0.435 -0.74958,0.9894 -0.4375,1.5 0.2711,0.4476 0.97863,0.012 1.28125,0.4375 0.40349,0.5517 -0.48478,1.0098 -0.4375,1.6875 0.0378,0.3405 0.058,0.5443 0.21875,0.8438 0.32784,0.58 1.24494,0.2133 1.46875,0.8437 0.17338,0.4729 -0.11185,0.7832 -0.1875,1.2813 0.16707,0.5769 0.14652,0.6432 0.1875,1.0625 0.0567,0.4949 0.1324,0.8052 0,1.2812 -0.1324,0.4634 -0.5525,0.5834 -0.625,1.0625 -0.063,0.4161 0.017,0.6906 0.21875,1.0625 0.25218,0.4603 0.80717,0.3804 1.0625,0.8438 0.2049,0.3688 -0.0271,0.722 0.21875,1.0625 0.4823,0.6746 1.32775,0.3089 2.09375,0 0.92677,-0.3688 0.83611,-1.4397 1.71875,-1.9063 0.53273,-0.2837 1.05265,-0.012 1.46875,-0.4375 0.57687,-0.5958 0.0536,-1.2959 0,-2.125 -0.0441,-0.7471 -0.19696,-1.1591 -0.1875,-1.9062 0.0126,-0.6652 0.14337,-1.0224 0.1875,-1.6875 0.0977,-1.1537 0.22381,-1.8308 0,-2.9688 -0.17968,-0.952 -0.2259,-1.6029 -0.84375,-2.3437 -0.46023,-0.5485 -0.75003,-1.0404 -1.46875,-1.0625 -0.0839,0 -0.17911,-0.014 -0.25,0 z m 169.625,1.5312 0.40625,0.3125 c 0.0504,-0.032 0.0777,-0.034 0.125,-0.063 -0.17022,-0.076 -0.35787,-0.1743 -0.53125,-0.25 z m -110.15625,1.5313 c 0.0682,0.05 0.11586,0.1018 0.1875,0.1562 -0.0215,0.03 -0.0418,0.063 -0.0625,0.094 l -0.125,-0.25 z m -92.46875,5.5937 c -0.40152,0.029 -0.77569,0.1514 -1.125,0.4688 -0.35936,0.3215 -0.7193,0.5833 -0.65625,1.0625 0.0693,0.5926 0.78319,0.5285 1.28125,0.8437 0.4098,0.2585 0.59912,0.4832 1.0625,0.625 0.5548,0.1703 0.98618,0.2711 1.5,0 0.52958,-0.2774 0.78701,-0.6542 0.84375,-1.25 0.0536,-0.5201 -0.0687,-0.9029 -0.4375,-1.2812 -0.4161,-0.4287 -0.86982,-0.3902 -1.46875,-0.4375 -0.20963,-0.017 -0.40407,-0.024 -0.59375,-0.031 -0.14226,-0.01 -0.27241,-0.01 -0.40625,0 z m 211.03125,3.6563 c -0.0855,0.01 -0.18668,0.043 -0.28125,0.094 l 0.8125,0.3437 c -0.10403,-0.1513 -0.20532,-0.2707 -0.3125,-0.4062 -0.0804,-0.016 -0.13324,-0.04 -0.21875,-0.031 z m -217.71875,0.4062 c -0.56777,0.02 -1.25,0.4375 -1.25,0.4375 -0.22066,0.6463 -0.0606,1.2242 0.4375,1.6875 0.5485,0.5107 1.34515,0.7168 1.90625,0.2188 0.33099,-0.2995 0.46587,-0.6181 0.4375,-1.0625 -0.041,-0.6998 -0.59721,-1.1394 -1.28125,-1.2813 -0.0741,-0.016 -0.16889,0 -0.25,0 z m 70.90625,4.875 c -0.48825,0.056 -0.72042,0.6378 -1.25,0.875 -0.86688,0.3783 -1.40752,0.5242 -2.34375,0.625 -0.66198,0.072 -1.05362,0.044 -1.71875,0 -0.66513,-0.041 -1.03813,-0.077 -1.6875,-0.2187 -0.77231,-0.1671 -1.12133,-0.6755 -1.90625,-0.625 -0.52013,0.035 -0.73933,0.3429 -1.25,0.4375 -0.64937,0.1166 -1.05362,-0.044 -1.71875,0 -0.66513,0.041 -1.14216,-0.1971 -1.6875,0.1875 -0.70611,0.5012 -0.7981,1.2707 -0.65625,2.125 0.0977,0.5485 0.30004,0.8557 0.65625,1.2812 0.69035,0.8196 1.6297,0.4794 2.53125,1.0625 0.74394,0.476 0.84242,1.4656 1.71875,1.4688 0.66828,0 0.8509,-1.0991 1.46875,-0.8438 0.63046,0.2585 -0.10784,1.3058 0.4375,1.7188 0.52328,0.4003 1.11694,-0.3279 1.6875,0 0.52013,0.2963 0.41504,0.837 0.84375,1.25 0.99297,0.9457 2.18317,0.2634 3.40625,0.875 0.42871,0.2143 0.59912,0.5241 1.0625,0.625 0.766,0.1734 1.4145,-0.023 1.90625,-0.625 0.57056,-0.7093 0.58002,-1.644 0,-2.3438 -0.46023,-0.5453 -1.26482,-0.114 -1.71875,-0.6562 -0.33414,-0.4004 -0.49451,-0.7331 -0.40625,-1.25 0.0914,-0.5233 0.50646,-0.6559 0.84375,-1.0625 0.49175,-0.5895 1.05744,-0.7687 1.28125,-1.5 0.21435,-0.7156 0.0587,-1.2065 -0.21875,-1.9063 -0.25849,-0.662 -0.36269,-1.3363 -1.0625,-1.4687 -0.0816,-0.015 -0.149,-0.039 -0.21875,-0.031 z m 34.03125,1.6875 c -0.52692,0 -0.96199,0.092 -1.5625,0.25 -0.60524,0.1703 -0.977,0.2247 -1.46875,0.625 -0.72187,0.5863 -1.44708,1.2802 -1.0625,2.125 0.22381,0.4792 0.60857,0.5727 1.0625,0.8438 0.60839,0.3656 1.15477,0.1584 1.6875,0.625 0.89525,0.7817 0.0229,1.9818 0.625,3 0.26479,0.4539 0.39585,0.8292 0.875,1.0625 0.6872,0.331 1.20014,-0.7275 1.90625,-0.4375 0.71872,0.2963 0.75042,0.9719 1.0625,1.6875 0.21435,0.4791 -0.0792,1.0858 0.40625,1.2812 0.6273,0.2585 -0.20241,-1.4605 0.4375,-1.6875 0.40034,-0.1418 0.67477,0.027 1.0625,0.1875 0.75339,0.3153 0.75634,1.9004 1.46875,1.5 0.65252,-0.3593 0.0315,-1.1591 0,-1.9062 -0.0378,-0.9142 -0.0454,-1.4485 -0.21875,-2.3438 -0.16707,-0.8479 -1.2523,-1.5323 -0.625,-2.125 0.4823,-0.4539 1.29031,0.5265 1.6875,0 0.44762,-0.5926 -0.43395,-1.0728 -0.84375,-1.6875 -0.4823,-0.7376 -0.67438,-1.3029 -1.46875,-1.6875 -0.68089,-0.3246 -1.17177,-0.055 -1.90625,-0.2187 -1.04656,-0.2459 -1.49388,-0.9396 -2.5625,-1.0625 -0.20805,-0.024 -0.38686,-0.03 -0.5625,-0.031 z m 13.375,0 c -0.12254,0.01 -0.20796,0.096 -0.28125,0.25 -0.18598,0.3783 -0.0303,0.7284 0.21875,1.0625 0.35305,0.4855 0.92025,0.1541 1.46875,0.4063 0.64306,0.3026 0.93574,1.5006 1.5,1.0625 0.39719,-0.3089 0.37952,-0.8053 0.21875,-1.2813 -0.24273,-0.6998 -1.03155,-0.5884 -1.71875,-0.8437 -0.48466,-0.175 -1.03862,-0.6786 -1.40625,-0.6563 z m 105.15625,6.1875 c 0.009,0.069 0.0155,0.1119 0.0313,0.1875 l 0,-0.1875 -0.0313,0 z m -103,0.75 c -0.30616,-0.014 -0.60939,0.192 -0.96875,0.3125 -0.73448,0.2428 -2.01849,0.3533 -1.6875,1.0625 0.28055,0.6053 1.06335,0.4363 1.6875,0.2188 0.72502,-0.249 1.93692,-1.106 1.28125,-1.5 -0.10718,-0.065 -0.21045,-0.089 -0.3125,-0.094 z m -84.34375,0.7188 -0.65625,0.4375 c 0.28686,-0.063 0.5044,-0.1709 0.71875,-0.2813 -0.0252,-0.054 -0.0341,-0.096 -0.0625,-0.1562 z m 87.40625,2.6562 c -0.1387,-0.017 -0.28016,0.021 -0.40625,0.125 -0.41925,0.3279 0.32362,0.9617 0.84375,1.0625 0.44447,0.085 0.9963,-0.012 1.0625,-0.4375 0.082,-0.476 -0.58335,-0.5241 -1.0625,-0.625 -0.15761,-0.036 -0.2988,-0.108 -0.4375,-0.125 z m -8,4.5313 c -0.31208,-0.032 -0.60363,0.029 -0.90625,0.25 -0.38773,0.2868 -0.53043,0.5896 -0.625,1.0625 -0.12924,0.6966 0.0954,1.2209 0.625,1.6875 0.51067,0.4508 1.02237,0.2925 1.6875,0.4375 0.98666,0.2143 1.5979,0.1601 2.5625,0.4375 0.68404,0.1954 1.05704,0.3161 1.6875,0.625 0.80068,0.4003 1.10845,0.9439 1.9375,1.2812 0.77861,0.3184 1.2584,0.3149 2.09375,0.4063 0.99297,0.104 1.9415,0.7723 2.5625,0 0.4224,-0.5233 0.27892,-1.0224 0.1875,-1.6875 -0.0599,-0.517 -0.14146,-0.8273 -0.40625,-1.2813 -0.34675,-0.6084 -0.6571,-0.9565 -1.28125,-1.2812 -0.95199,-0.4949 -1.67192,0 -2.75,0 -0.75024,0 -1.17177,-0.095 -1.90625,0 -0.4224,0.054 -0.63694,0.2313 -1.0625,0.2187 -0.52328,-0.032 -0.80841,-0.1919 -1.28125,-0.4062 -0.92677,-0.4161 -1.14779,-1.2415 -2.125,-1.5 -0.35936,-0.093 -0.68792,-0.2181 -1,-0.25 z"
       style="fill:url(#linearGradient5993);fill-opacity:1;overflow:visible" />
    <path
       style="fill:url(#linearGradient5987);fill-opacity:1;overflow:visible"
       inkscape:connector-curvature="0"
       id="path4272"
       d="m 288.58859,1111.1931 c 0.0158,-0.072 0.0441,-0.1355 0.0662,-0.2049 -0.0252,0 -0.041,0 -0.0662,0 v 0.208" />
    <path
       style="fill:url(#linearGradient5966);fill-opacity:1;overflow:visible"
       inkscape:connector-curvature="0"
       id="path4372"
       d="m 284.98239,1131.3551 c 0.51697,0.3026 0.89209,-0.5548 1.48472,-0.4224 0.74393,0.1607 0.77546,0.9047 1.27352,1.4815 l 0.2112,2.7614 c -0.082,0.993 -0.17338,1.551 -0.2112,2.5439 -0.0378,0.9142 -0.60209,1.6518 0,2.3359 0.55164,0.6367 1.29243,0.2616 2.11833,0.4255 0.82904,0.1639 1.28928,0.5548 2.12463,0.4224 0.8385,-0.1261 1.13482,-0.7092 1.91028,-1.0591 0.62415,-0.2838 0.9772,-0.5801 1.64549,-0.6273 -0.1986,-1.2799 -0.87318,-2.2602 -0.16392,-3.4045 0.31207,-0.4981 0.6273,-0.6714 1.06231,-1.0592 0.61785,-0.5516 2.18138,-0.6021 1.69908,-1.2735 -0.25849,-0.3657 -0.72187,-0.1418 -1.06232,-0.4255 -0.47914,-0.4067 -0.51697,-0.8669 -0.63676,-1.4848 -0.10717,-0.5705 -0.20805,-0.9488 0,-1.4847 0.15447,-0.3846 0.34045,-0.5642 0.63676,-0.8511 0.47915,-0.4634 1.38385,-0.1891 1.48788,-0.848 0.10087,-0.6367 -0.59578,-0.8259 -1.06232,-1.2735 -0.38142,-0.3656 -0.80383,-0.3846 -1.06232,-0.8479 -0.31522,-0.5801 -0.31522,-1.1191 0,-1.6991 0.25849,-0.4634 0.71242,-0.454 1.06232,-0.848 0.44447,-0.498 0.5548,-0.8889 0.84796,-1.4879 0.28056,-0.5642 0.50121,-0.8668 0.63676,-1.4847 0.21436,-0.9709 -0.16707,-1.5509 -0.2112,-2.5439 -0.0473,-1.0749 -0.59263,-1.8598 0,-2.7582 0.39088,-0.5958 0.85742,-0.7313 1.48472,-1.0655 0.62415,-0.331 1.2483,-0.088 1.69593,-0.6336 0.63676,-0.7691 0.41294,-1.7716 -0.21121,-2.5502 -0.46338,-0.5737 -1.2483,-0.2585 -1.69907,-0.8448 -0.26795,-0.3562 -0.0662,-0.7944 -0.42241,-1.0623 -0.65882,-0.4981 -0.92361,0.9804 -1.69907,1.2735 -0.69666,0.268 -1.18526,0.4161 -1.90713,0.2144 -0.35936,-0.1041 -0.4886,-0.3436 -0.85112,-0.4256 -0.5674,-0.1355 -0.98666,0.5233 -1.48472,0.2112 -0.50751,-0.3215 -0.0599,-1.0056 -0.4224,-1.4847 -0.40349,-0.5359 -0.82275,-0.9173 -1.48788,-0.848 -0.47599,0.047 -0.71241,0.2995 -1.05601,0.6336 -0.64937,0.621 -0.0347,1.7716 -0.85426,2.1247 -0.45393,0.1954 -0.77546,0 -1.27037,0 v 0.208 c -0.19544,0.9079 -0.74394,1.4658 -0.42241,2.3359 0.29947,0.829 1.42483,0.6493 1.69278,1.4847 0.26163,0.8038 -0.20805,1.3082 -0.42241,2.1246 -0.26479,1.0119 -0.42556,1.5888 -0.84796,2.5439 -0.63361,1.4311 -1.8693,1.8567 -2.12148,3.3982 -0.11033,0.6525 0.31522,1.1159 0,1.699 -0.25534,0.4634 -0.73133,0.4319 -1.06232,0.848 -0.39403,0.4917 -0.47915,0.8732 -0.63676,1.4847 -0.24272,0.9615 -0.0756,1.5541 0,2.5471 0.0473,0.6619 -0.36566,1.3617 0.21436,1.6959" />
    <g
       style="fill:url(#linearGradient5995);fill-opacity:1;overflow:visible"
       id="Layer_7"
       transform="matrix(3.1522752,0,0,3.1522752,-661.66159,865.56469)" />
    <text
       sodipodi:linespacing="125%"
       id="text7047"
       y="1053.1743"
       x="78.768158"
       style="font-size:28.85380363px;font-style:normal;font-variant:normal;font-weight:normal;font-stretch:normal;line-height:125%;letter-spacing:0px;word-spacing:0px;fill:#000000;fill-opacity:1;stroke:none;font-family:Liberation Sans;-inkscape-font-specification:Sans"
       xml:space="preserve"
       transform="scale(1.0075882,0.99246895)"><tspan
         style="font-size:13.63943005px;fill:#999999;fill-opacity:1"
         y="1053.1743"
         x="78.768158"
         id="tspan7049"
         sodipodi:role="line">One map for the whole of Europe</tspan></text>
    <text
       sodipodi:linespacing="125%"
       id="text7051"
       y="1034.4144"
       x="76.781212"
       style="font-size:28.99873543px;font-style:normal;font-variant:normal;font-weight:normal;font-stretch:normal;line-height:125%;letter-spacing:0px;word-spacing:0px;fill:#999999;fill-opacity:1;stroke:none;font-family:Liberation Sans;-inkscape-font-specification:Sans"
       xml:space="preserve"
       transform="scale(1.0015042,0.99849806)"><tspan
         style="font-size:46.51881027px;font-weight:bold;fill:#999999;fill-opacity:1;-inkscape-font-specification:Liberation Sans Bold"
         y="1034.4144"
         x="76.781212"
         id="tspan7053"
         sodipodi:role="line">MAP1.EU</tspan></text>
    <path
       style="fill:#77aa33;fill-opacity:1;stroke:none"
       d="m 10.680596,984.87114 c -5.3336015,0 -10.66720305,5.3336 -10.66720305,10.66721 l 0,53.26465 53.33601605,0.072 c 5.3336,-2e-4 10.667202,-5.3338 10.667202,-10.6674 l 0,-53.4075 z"
       id="path4012"
       inkscape:connector-curvature="0"
       sodipodi:nodetypes="ccccccc" />
    <path
       style="fill:#ffffff;fill-opacity:1;stroke:none"
       d="m 0.01339295,1032.8021 c 0,0 8.00040225,0 16.00080405,-8.0004 8.000402,-8.0004 8.000402,-24.0012 16.000806,-32.00162 8.000402,-8.00041 16.000804,-8.00041 16.000804,-8.00041 l 16.000804,0 0,16.00083 c 0,0 -8.000402,0 -16.000804,8.0004 -8.000402,8.0004 -8.000402,24.0012 -16.000804,32.0016 -8.000404,8.0005 -16.000806,8.0005 -16.000806,8.0005 l -16.00080405,0 0,-16.0009"
       id="path4522"
       inkscape:connector-curvature="0"
       sodipodi:nodetypes="czzccczzccc" />
    <text
       xml:space="preserve"
       style="font-size:20px;font-style:normal;font-variant:normal;font-weight:bold;font-stretch:normal;line-height:125%;letter-spacing:0px;word-spacing:0px;fill:#999999;fill-opacity:1;stroke:none;font-family:Liberation Sans;-inkscape-font-specification:Sans Bold"
       x="0.013392076"
       y="1068.7236"
       id="text3316"
       sodipodi:linespacing="125%"><tspan
         sodipodi:role="line"
         id="tspan3318"
         x="0.013392076"
         y="1068.7236"
         style="font-size:13px;font-style:normal;font-weight:normal;fill:#999999;fill-opacity:1;-inkscape-font-specification:Liberation Sans">Map data © OpenStreetMap contributors</tspan></text>
    <text
       xml:space="preserve"
       style="font-size:20px;font-style:normal;font-variant:normal;font-weight:bold;font-stretch:normal;line-height:125%;letter-spacing:0px;word-spacing:0px;fill:#999999;fill-opacity:1;stroke:none;font-family:Liberation Sans;-inkscape-font-specification:Sans Bold"
       x="-0.12104506"
       y="1084.8126"
       id="text3316-1"
       sodipodi:linespacing="125%"><tspan
         sodipodi:role="line"
         id="tspan3318-3"
         x="-0.12104506"
         y="1084.8126"
         style="font-size:13px;font-style:normal;font-weight:normal;fill:#999999;fill-opacity:1;-inkscape-font-specification:Liberation Sans">Facebook: http://facebook.com/Map1eu</tspan></text>
    <text
       xml:space="preserve"
       style="font-size:20px;font-style:normal;font-variant:normal;font-weight:bold;font-stretch:normal;line-height:125%;letter-spacing:0px;word-spacing:0px;fill:#999999;fill-opacity:1;stroke:none;font-family:Liberation Sans;-inkscape-font-specification:Sans Bold"
       x="-1.1676407"
       y="1101.0762"
       id="text3316-1-9"
       sodipodi:linespacing="125%"><tspan
         sodipodi:role="line"
         id="tspan3318-3-3"
         x="-1.1676407"
         y="1101.0762"
         style="font-size:13px;font-style:normal;font-weight:normal;fill:#999999;fill-opacity:1;-inkscape-font-specification:Liberation Sans">Twitter: http://twitter.com/map1eu</tspan></text>
    <text
       xml:space="preserve"
       style="font-size:20px;font-style:normal;font-variant:normal;font-weight:bold;font-stretch:normal;line-height:125%;letter-spacing:0px;word-spacing:0px;fill:#000000;fill-opacity:1;stroke:none;font-family:Liberation Sans;-inkscape-font-specification:Sans Bold"
       x="65.053825"
       y="164.73404"
       id="text4130"
       sodipodi:linespacing="125%"
       transform="translate(-13.421636,972.57903)"><tspan
         sodipodi:role="line"
         id="tspan4132"></tspan></text>
    <text
       xml:space="preserve"
       style="font-size:20px;font-style:normal;font-variant:normal;font-weight:bold;font-stretch:normal;line-height:125%;letter-spacing:0px;word-spacing:0px;fill:#999999;fill-opacity:1;stroke:none;font-family:Liberation Sans;-inkscape-font-specification:Sans Bold"
       x="-1.057864"
       y="1118.0466"
       id="text3316-1-9-8"
       sodipodi:linespacing="125%"><tspan
         sodipodi:role="line"
         id="tspan3318-3-3-0"
         x="-1.057864"
         y="1118.0466"
         style="font-size:13px;font-style:normal;font-weight:normal;fill:#999999;fill-opacity:1;-inkscape-font-specification:Liberation Sans">Github: http://github.com/bigr/map1</tspan></text>
    <text
       xml:space="preserve"
       style="font-size:20px;font-style:normal;font-variant:normal;font-weight:bold;font-stretch:normal;line-height:125%;letter-spacing:0px;word-spacing:0px;fill:#777777;fill-opacity:1;stroke:none;font-family:Liberation Sans;-inkscape-font-specification:Sans Bold"
       x="-0.43918809"
       y="1135.0172"
       id="text3316-1-9-8-5"
       sodipodi:linespacing="125%"><tspan
         sodipodi:role="line"
         id="tspan3318-3-3-0-5"
         x="-0.43918809"
         y="1135.0172"
         style="font-size:13px;font-style:normal;font-weight:normal;fill:#777777;fill-opacity:1;-inkscape-font-specification:Liberation Sans">Donation: http://map1.eu/donation.html</tspan></text>
  </g>
</svg>
