<?xml version="1.0" encoding="UTF-8" standalone="no"?>
<svg
   xmlns:dc="http://purl.org/dc/elements/1.1/"
   xmlns:cc="http://creativecommons.org/ns#"
   xmlns:rdf="http://www.w3.org/1999/02/22-rdf-syntax-ns#"
   xmlns:svg="http://www.w3.org/2000/svg"
   xmlns="http://www.w3.org/2000/svg"
   xmlns:sodipodi="http://sodipodi.sourceforge.net/DTD/sodipodi-0.dtd"
   xmlns:inkscape="http://www.inkscape.org/namespaces/inkscape"
   width="64"
   height="64"
   version="1.1"
   id="svg4449"
   inkscape:version="0.48.3.1 r9886"
   sodipodi:docname="Zeichen_251.svg">
  <metadata
     id="metadata4463">
    <rdf:RDF>
      <cc:Work
         rdf:about="">
        <dc:format>image/svg+xml</dc:format>
        <dc:type
           rdf:resource="http://purl.org/dc/dcmitype/StillImage" />
        <dc:title></dc:title>
      </cc:Work>
    </rdf:RDF>
  </metadata>
  <defs
     id="defs4461" />
  <sodipodi:namedview
     pagecolor="#ffffff"
     bordercolor="#666666"
     borderopacity="1"
     objecttolerance="10"
     gridtolerance="10"
     guidetolerance="10"
     inkscape:pageopacity="0"
     inkscape:pageshadow="2"
     inkscape:window-width="1600"
     inkscape:window-height="1147"
     id="namedview4459"
     showgrid="false"
     inkscape:zoom="7.3656143"
     inkscape:cx="59.734228"
     inkscape:cy="29.573293"
     inkscape:window-x="0"
     inkscape:window-y="0"
     inkscape:window-maximized="1"
     inkscape:current-layer="svg4449" />
  <path
     d="M 0.29657786,34.704693 C 0.13677473,22.924922 -0.50243763,33.061003 6.5973851,15.596809 11.733913,3.7257232 6.5288981,6.9217849 33.101868,6.4880337 56.752724,6.967443 51.981461,3.5430912 57.414766,16.144706 c 6.803045,16.140111 6.277978,7.693377 6.23232,18.217551 -0.251119,11.55148 4.017909,8.583709 -31.777985,8.971802 C -3.6528413,42.854651 0.54769667,45.868079 0.29657786,34.704693 z M 7.4877163,23.335845 12.350296,12.103971 c 0.907242,-1.995143 0.617793,-1.700621 2.739482,-1.712176 l 33.996626,-0.0037 c 1.840413,0.0068 1.570411,-0.112736 2.328559,1.643689 L 56.250486,23.19887 7.4877163,23.335845 z M 4.0100971,44.62263 13.103654,44.602338 C 13.075752,56.01938 14.021887,55.382705 9.0629186,55.456265 3.1578141,55.433436 4.0912669,56.029527 4.0100971,44.62263 z m 46.8299129,0.08117 9.108776,0 C 59.887909,56.138598 60.7199,55.357339 55.565616,55.387778 50.236309,55.316754 50.91357,56.158891 50.84001,44.7038 z"
     id="Car"
     style="fill:#ffffff;fill-rule:evenodd;stroke:none;fill-opacity:1"
     inkscape:connector-curvature="0" />
  <circle
     d="m 216.5,412 c 0,36.72694 -29.77306,66.5 -66.5,66.5 -36.72694,0 -66.5,-29.77306 -66.5,-66.5 0,-36.72694 29.77306,-66.5 66.5,-66.5 36.72694,0 66.5,29.77306 66.5,66.5 z"
     id="LeftLamp"
     cx="150"
     cy="412"
     r="66.5"
     style="fill:#000000;fill-opacity:1;stroke:none"
     sodipodi:cx="150"
     sodipodi:cy="412"
     sodipodi:rx="66.5"
     sodipodi:ry="66.5"
     transform="matrix(0.06677486,0,0,0.06677486,-1.4840851,4.2279615)" />
  <circle
     d="m 916.5,412 c 0,36.72694 -29.77306,66.5 -66.5,66.5 -36.72694,0 -66.5,-29.77306 -66.5,-66.5 0,-36.72694 29.77306,-66.5 66.5,-66.5 36.72694,0 66.5,29.77306 66.5,66.5 z"
     id="RightLamp"
     cx="850"
     cy="412"
     r="66.5"
     style="fill:#000000;fill-opacity:1;stroke:none"
     sodipodi:cx="850"
     sodipodi:cy="412"
     sodipodi:rx="66.5"
     sodipodi:ry="66.5"
     transform="matrix(0.06677486,0,0,0.06677486,-1.4840851,4.2279615)" />
</svg>
