<?xml version="1.0" encoding="UTF-8" standalone="no"?>
<!-- Created with Inkscape (http://www.inkscape.org/) -->

<svg
   xmlns:dc="http://purl.org/dc/elements/1.1/"
   xmlns:cc="http://creativecommons.org/ns#"
   xmlns:rdf="http://www.w3.org/1999/02/22-rdf-syntax-ns#"
   xmlns:svg="http://www.w3.org/2000/svg"
   xmlns="http://www.w3.org/2000/svg"
   xmlns:sodipodi="http://sodipodi.sourceforge.net/DTD/sodipodi-0.dtd"
   xmlns:inkscape="http://www.inkscape.org/namespaces/inkscape"
   width="32"
   height="32"
   id="svg2"
   inkscape:label="Pozadí"
   version="1.1"
   inkscape:version="0.48.3.1 r9886"
   sodipodi:docname="hotel.svg">
  <defs
     id="defs3" />
  <sodipodi:namedview
     id="base"
     pagecolor="#ffffff"
     bordercolor="#666666"
     borderopacity="1.0"
     inkscape:pageopacity="0.0"
     inkscape:pageshadow="2"
     inkscape:zoom="7.919596"
     inkscape:cx="40.847193"
     inkscape:cy="15.550487"
     inkscape:document-units="px"
     inkscape:current-layer="layer1"
     showgrid="true"
     inkscape:window-width="1600"
     inkscape:window-height="1147"
     inkscape:window-x="0"
     inkscape:window-y="0"
     inkscape:window-maximized="1"
     inkscape:snap-grids="false">
    <inkscape:grid
       type="xygrid"
       id="grid2984"
       empspacing="4"
       visible="true"
       enabled="true"
       snapvisiblegridlinesonly="true"
       spacingx="4px"
       spacingy="4px" />
  </sodipodi:namedview>
  <metadata
     id="metadata6">
    <rdf:RDF>
      <cc:Work
         rdf:about="">
        <dc:format>image/svg+xml</dc:format>
        <dc:type
           rdf:resource="http://purl.org/dc/dcmitype/StillImage" />
        <dc:title></dc:title>
      </cc:Work>
    </rdf:RDF>
  </metadata>
  <g
     inkscape:label="Vrstva 1"
     inkscape:groupmode="layer"
     id="layer1"
     transform="translate(0,-1020.3622)">
    <path
       inkscape:connector-curvature="0"
       style="fill:#000000;fill-opacity:1;stroke:#000000;stroke-width:0.00791165px;stroke-linecap:butt;stroke-linejoin:miter;stroke-opacity:1"
       d="m 15.783627,1025.7259 -9.9686832,7.975 19.9373662,0 -9.968683,-7.975 z m -9.9686832,8.8611 0,6.6458 2.2152632,0 0,-6.6458 -2.2152632,0 z m 4.4305262,0 0,6.6458 2.215262,0 0,-6.6458 -2.215262,0 z m 4.430525,0 0,6.6458 2.215264,0 0,-6.6458 -2.215264,0 z m 4.430527,0 0,6.6458 2.215262,0 0,-6.6458 -2.215262,0 z m 4.430525,0 0,6.6458 2.215263,0 0,-6.6458 -2.215263,0 z m -17.7221032,7.7534 0,1.1076 19.9373662,0 0,-1.1076 -19.9373662,0 z m 0,2.2153 0,1.1076 19.9373662,0 0,-1.1076 -19.9373662,0 z"
       id="path3013" />
  </g>
</svg>
