<?xml version="1.0" encoding="UTF-8" standalone="no"?>
<!-- Created with Inkscape (http://www.inkscape.org/) -->

<svg
   xmlns:dc="http://purl.org/dc/elements/1.1/"
   xmlns:cc="http://creativecommons.org/ns#"
   xmlns:rdf="http://www.w3.org/1999/02/22-rdf-syntax-ns#"
   xmlns:svg="http://www.w3.org/2000/svg"
   xmlns="http://www.w3.org/2000/svg"
   xmlns:sodipodi="http://sodipodi.sourceforge.net/DTD/sodipodi-0.dtd"
   xmlns:inkscape="http://www.inkscape.org/namespaces/inkscape"
   width="32"
   height="32"
   id="svg2"
   inkscape:label="Pozadí"
   version="1.1"
   inkscape:version="0.48.3.1 r9886"
   sodipodi:docname="city.svg">
  <defs
     id="defs3" />
  <sodipodi:namedview
     id="base"
     pagecolor="#ffffff"
     bordercolor="#666666"
     borderopacity="1.0"
     inkscape:pageopacity="0.0"
     inkscape:pageshadow="2"
     inkscape:zoom="11.2"
     inkscape:cx="20.186112"
     inkscape:cy="12.720361"
     inkscape:document-units="px"
     inkscape:current-layer="layer1"
     showgrid="true"
     inkscape:window-width="1600"
     inkscape:window-height="1147"
     inkscape:window-x="0"
     inkscape:window-y="0"
     inkscape:window-maximized="1">
    <inkscape:grid
       type="xygrid"
       id="grid2984"
       empspacing="4"
       visible="true"
       enabled="true"
       snapvisiblegridlinesonly="true"
       spacingx="4px"
       spacingy="4px" />
  </sodipodi:namedview>
  <metadata
     id="metadata6">
    <rdf:RDF>
      <cc:Work
         rdf:about="">
        <dc:format>image/svg+xml</dc:format>
        <dc:type
           rdf:resource="http://purl.org/dc/dcmitype/StillImage" />
        <dc:title></dc:title>
      </cc:Work>
    </rdf:RDF>
  </metadata>
  <g
     inkscape:label="Vrstva 1"
     inkscape:groupmode="layer"
     id="layer1"
     transform="translate(0,-1020.3622)">
    <path
       style="fill:#bbaaaa;fill-opacity:0.46666667;stroke:none"
       d="m 4,4 c -2.5361507,1.5674273 -4.47757118,5.0570738 -4,8 0.30204253,1.86127 4,0 4,4 0,2.981424 -4.94280904,5.171573 -4,8 0.94280904,2.828427 5.5813431,2.256731 8,4 1.5296929,1.10254 2.182802,3.496665 4,4 4.097422,1.13492 5.098332,-3.315009 8,-4 2.595331,-0.612674 5.898119,1.641099 8,0 4.333139,-3.383213 4,-10.037152 4,-16 C 32,8 28,8 28,4 28,0 22.942926,-0.47757118 20,0 18.13873,0.30204253 17.742084,3.2784052 16,4 12.304482,5.5307337 7.4026032,1.8970756 4,4 z"
       id="path3762"
       inkscape:connector-curvature="0"
       transform="translate(0,1020.3622)"
       sodipodi:nodetypes="aasaasaassaaa" />
    <rect
       style="fill:#bbaaaa;fill-opacity:1;stroke:#998888;stroke-opacity:1"
       id="rect3873"
       width="12"
       height="12"
       x="12"
       y="8"
       transform="translate(0,1020.3622)" />
  </g>
</svg>
