<?xml version="1.0" encoding="UTF-8" standalone="no"?>
<!-- Created with Inkscape (http://www.inkscape.org/) -->

<svg
   xmlns:dc="http://purl.org/dc/elements/1.1/"
   xmlns:cc="http://creativecommons.org/ns#"
   xmlns:rdf="http://www.w3.org/1999/02/22-rdf-syntax-ns#"
   xmlns:svg="http://www.w3.org/2000/svg"
   xmlns="http://www.w3.org/2000/svg"
   xmlns:sodipodi="http://sodipodi.sourceforge.net/DTD/sodipodi-0.dtd"
   xmlns:inkscape="http://www.inkscape.org/namespaces/inkscape"
   width="32"
   height="32"
   id="svg2"
   inkscape:label="Pozadí"
   version="1.1"
   inkscape:version="0.48.3.1 r9886"
   sodipodi:docname="peak.svg">
  <defs
     id="defs3" />
  <sodipodi:namedview
     id="base"
     pagecolor="#ffffff"
     bordercolor="#666666"
     borderopacity="1.0"
     inkscape:pageopacity="0.0"
     inkscape:pageshadow="2"
     inkscape:zoom="11.2"
     inkscape:cx="35.264652"
     inkscape:cy="-0.29740594"
     inkscape:document-units="px"
     inkscape:current-layer="layer1"
     showgrid="true"
     inkscape:window-width="1600"
     inkscape:window-height="1147"
     inkscape:window-x="0"
     inkscape:window-y="0"
     inkscape:window-maximized="1"
     inkscape:snap-grids="false">
    <inkscape:grid
       type="xygrid"
       id="grid2984"
       empspacing="4"
       visible="true"
       enabled="true"
       snapvisiblegridlinesonly="true"
       spacingx="4px"
       spacingy="4px" />
  </sodipodi:namedview>
  <metadata
     id="metadata6">
    <rdf:RDF>
      <cc:Work
         rdf:about="">
        <dc:format>image/svg+xml</dc:format>
        <dc:type
           rdf:resource="http://purl.org/dc/dcmitype/StillImage" />
        <dc:title></dc:title>
      </cc:Work>
    </rdf:RDF>
  </metadata>
  <g
     inkscape:label="Vrstva 1"
     inkscape:groupmode="layer"
     id="layer1"
     transform="translate(0,-1020.3622)">
    <path
       style="fill:#000000;fill-opacity:1;stroke:#000000;stroke-width:0.61067146;stroke-linejoin:round;stroke-miterlimit:4;stroke-opacity:1;stroke-dasharray:none;stroke-dashoffset:0"
       d="m 19.930672,1025.5229 c -0.213757,0 -0.427178,0.018 -0.63949,0.042 -0.208922,0.025 -0.417394,0.056 -0.622628,0.1026 -0.109025,0.025 -0.217902,0.052 -0.32547,0.084 -0.119885,0.035 -0.236816,0.079 -0.349951,0.1309 -0.142645,0.065 -0.281031,0.1394 -0.421108,0.21 -0.344731,0.1722 -0.706325,0.3102 -1.076953,0.4156 -0.583572,0.1662 -1.186349,0.255 -1.790048,0.3068 -0.340136,0.029 -0.681208,0.046 -1.022408,0.056 -0.25181,0.01 -0.504462,0.01 -0.755151,-0.021 -0.287255,-0.031 -0.570492,-0.091 -0.852395,-0.1521 -0.37441,-0.083 -0.749223,-0.1658 -1.126871,-0.2335 -0.289195,-0.052 -0.580461,-0.093 -0.873487,-0.1151 -0.2211309,-0.017 -0.4428569,-0.026 -0.6645949,-0.029 -0.46882,-0.01 -0.939401,0.026 -1.399817,0.1163 -0.3995,0.078 -0.790234,0.2018 -1.1624868,0.3666 -0.4110641,0.1824 -0.7972073,0.4202 -1.1463751,0.7034 -0.4168328,0.3376 -0.7805208,0.7382 -1.0904038,1.1753 -0.3960644,0.5585 -0.706371,1.1744 -0.9527929,1.8122 -0.077638,0.2003 -0.147978,0.4033 -0.2145362,0.6076 -0.062213,0.1887 -0.1204525,0.3789 -0.1700562,0.5714 -0.045655,0.1764 -0.088291,0.3536 -0.1294574,0.5311 -0.065735,0.2847 -0.1222259,0.5718 -0.1589273,0.8617 -0.049171,0.3833 -0.067497,0.7699 -0.081028,1.1559 -0.00883,0.2634 -0.014464,0.5269 -0.022762,0.7904 -0.014821,0.4964 -0.034531,0.9927 -0.062461,1.4886 -0.020117,0.3592 -0.042882,0.7183 -0.067584,1.0773 -0.033118,0.4694 -0.0711,0.9387 -0.1279149,1.406 -0.054976,0.4504 -0.1297286,0.8996 -0.2485445,1.3379 -0.033632,0.1253 -0.072337,0.2492 -0.1056828,0.3746 -0.1100809,0.4066 -0.1928903,0.8213 -0.2342426,1.2409 -0.024661,0.2472 -0.034612,0.4958 -0.031735,0.7442 6.107e-4,0.073 4.519e-4,0.1473 0.00154,0.2207 0.00153,0.011 0.00573,-0.01 0.00631,-0.01 0.023296,-0.099 0.045307,-0.1975 0.074744,-0.2943 0.053345,-0.1769 0.1171145,-0.3502 0.1803154,-0.5238 0.057238,-0.156 0.1162828,-0.3114 0.1684085,-0.4693 0.072595,-0.2172 0.133908,-0.4382 0.1820546,-0.6621 0.054671,-0.2522 0.09418,-0.5074 0.1306397,-0.7627 0.013528,-0.092 0.028337,-0.1838 0.043764,-0.2754 0.021405,-0.1492 0.03928,-0.2987 0.057784,-0.4482 0.057424,-0.4727 0.1123135,-0.9458 0.1636697,-1.4192 0.061031,-0.567 0.1229099,-1.1339 0.1909338,-1.7002 0.021845,-0.1821 0.045183,-0.364 0.069663,-0.5459 0.013307,-0.1031 0.027573,-0.2061 0.039334,-0.3094 4.763e-4,-0.01 -5.497e-4,-0.015 0.00637,-0.017 0.011007,7e-4 0.01863,0.011 0.026192,0.018 0.041361,0.045 0.065898,0.1023 0.1041243,0.1499 0.00723,0.01 0.013067,0.019 0.023329,0.022 0.00892,0 0.013249,0.011 0.017749,0.018 0.020827,0.039 0.032566,0.082 0.044981,0.1233 0.037291,0.1345 0.063323,0.2717 0.086409,0.4094 0.00707,0.046 0.014734,0.092 0.026728,0.1374 0.022353,0.087 0.050174,0.1719 0.087808,0.2529 0.060777,0.1374 0.1085655,0.2815 0.1285389,0.4308 0.025346,0.184 0.011203,0.3709 -0.012905,0.5542 -0.013339,0.098 -0.029454,0.1954 -0.042581,0.2935 -0.018942,0.1367 -0.036451,0.2734 -0.050399,0.4107 -0.038265,0.3534 -0.076671,0.7068 -0.1198321,1.0595 -0.00983,0.076 -0.018435,0.1535 -0.031761,0.2297 -0.022332,0.1101 -0.038602,0.2214 -0.056218,0.3324 -0.033352,0.1971 -0.076432,0.3924 -0.1215382,0.5872 -0.086061,0.3675 -0.1823453,0.7329 -0.2876727,1.0954 -0.062828,0.2157 -0.1303184,0.4304 -0.2040009,0.6426 -0.126216,0.3641 -0.2641569,0.7241 -0.4093306,1.081 -0.097047,0.2377 -0.1973592,0.4742 -0.3030603,0.708 -0.096331,0.2087 -0.1968426,0.4155 -0.2969965,0.6224 -0.1492297,0.3068 -0.2991154,0.6131 -0.4532171,0.9175 -0.034741,0.068 -0.070484,0.1369 -0.1078666,0.2042 -0.065905,0.1222 -0.1310159,0.2451 -0.1869644,0.3723 -0.014365,0.035 -0.030614,0.07 -0.037499,0.1075 -0.00131,0.01 -0.00163,0.018 0.00741,0.021 0.033929,0.015 0.070461,0.024 0.1059906,0.035 0.1724462,0.048 0.3465438,0.091 0.5208893,0.1321 0.133334,0.031 0.2666447,0.062 0.4015885,0.085 0.176164,0.029 0.3544178,0.042 0.5324213,0.056 0.1843409,0.013 0.3688076,0.025 0.5533269,0.035 0.1076223,0.01 0.2168128,0.01 0.3225054,-0.018 0.077642,-0.017 0.1528241,-0.05 0.2117552,-0.1037 0.035556,-0.032 0.068626,-0.071 0.079634,-0.1182 0.012795,-0.055 0.00286,-0.1108 -0.00839,-0.1644 -0.02032,-0.094 -0.054574,-0.1853 -0.077302,-0.2793 -0.014489,-0.059 -0.019942,-0.1184 -0.01679,-0.1783 0.00839,-0.1807 0.04448,-0.3587 0.088038,-0.5338 0.066225,-0.2619 0.1521233,-0.5184 0.2453793,-0.7719 0.1050058,-0.2843 0.2209552,-0.5644 0.3422598,-0.8422 0.06555,-0.1576 0.1250096,-0.3176 0.1850145,-0.4773 0.049884,-0.133 0.098272,-0.2664 0.1478122,-0.3994 0.058003,-0.1514 0.1221404,-0.3006 0.1942113,-0.4457 0.026769,-0.052 0.052915,-0.1049 0.086766,-0.1528 0.00666,-0.01 0.012364,-0.018 0.022506,-0.022 0.00679,0 0.00918,0.012 0.012989,0.019 0.024208,0.054 0.040999,0.1099 0.059306,0.1656 0.056127,0.1785 0.1075928,0.3584 0.158971,0.5382 0.034277,0.1277 0.062174,0.257 0.087877,0.3868 0.017494,0.094 0.034761,0.1875 0.056164,0.2805 0.059181,0.2614 0.1369642,0.518 0.2158093,0.7741 0.053177,0.1711 0.1083597,0.3417 0.1542627,0.5149 0.051778,0.1927 0.092144,0.3888 0.1117415,0.5875 0.013789,0.1364 0.02014,0.2735 0.018918,0.4107 -0.00146,0.2324 -0.012082,0.4648 -0.027914,0.6967 -0.00916,0.1336 -0.021445,0.2671 -0.036834,0.4001 -0.00159,0.015 -0.00323,0.029 -0.00477,0.044 0.057496,0.01 0.1149937,0.018 0.1728951,0.024 0.1572688,0.018 0.3148872,0.033 0.4722678,0.05 0.2886425,0.032 0.5766755,0.068 0.8643203,0.1088 0.236363,0.032 0.472945,0.063 0.710843,0.081 0.146343,0.011 0.293887,0.017 0.440034,4e-4 0.09959,-0.011 0.197662,-0.037 0.289238,-0.078 0.122,-0.053 0.229229,-0.1384 0.311601,-0.2426 0.05028,-0.065 0.09292,-0.1385 0.109241,-0.2198 0.0082,-0.041 0.0077,-0.085 -0.007,-0.1246 -0.02393,-0.068 -0.06025,-0.1307 -0.09773,-0.192 -0.07056,-0.1129 -0.150562,-0.2201 -0.239564,-0.3189 -0.05271,-0.059 -0.112009,-0.1109 -0.168594,-0.166 -0.08249,-0.08 -0.166174,-0.1578 -0.239566,-0.2459 -0.05736,-0.069 -0.103684,-0.1456 -0.141138,-0.2266 -0.05349,-0.1151 -0.0973,-0.2345 -0.143236,-0.3529 -0.137005,-0.354 -0.262874,-0.7127 -0.362555,-1.0791 -0.09353,-0.3417 -0.163076,-0.69 -0.20714,-1.0415 -0.05084,-0.4003 -0.07013,-0.8042 -0.07527,-1.2076 -0.003,-0.2299 -0.0048,-0.4601 0.0078,-0.6897 0.0093,-0.1698 0.02952,-0.3391 0.06416,-0.5056 0.01864,-0.088 0.03789,-0.1768 0.06215,-0.2639 0.03172,-0.1142 0.08261,-0.2218 0.131539,-0.3294 0.03271,-0.069 0.06493,-0.1402 0.113744,-0.2002 0.03654,-0.045 0.08574,-0.079 0.139297,-0.1009 0.07842,-0.032 0.161756,-0.051 0.244352,-0.069 0.08702,-0.019 0.17525,-0.036 0.260275,-0.063 0.05613,-0.018 0.110051,-0.046 0.153002,-0.087 0.05861,-0.056 0.100945,-0.1249 0.142183,-0.1936 0.05877,-0.099 0.112048,-0.2023 0.169091,-0.3027 0.04981,-0.085 0.103897,-0.1705 0.17861,-0.2357 0.0679,-0.059 0.153244,-0.095 0.239429,-0.12 0.134445,-0.038 0.275828,-0.04 0.414472,-0.033 0.1566449,0.01 0.3122749,0.028 0.4676939,0.048 0.271839,0.032 0.547081,0.051 0.820233,0.024 0.17521,-0.017 0.348108,-0.053 0.517326,-0.101 0.247935,-0.07 0.492725,-0.1508 0.736638,-0.2337 0.344115,-0.1175 0.685916,-0.2419 1.026393,-0.3698 0.343529,-0.1273 0.688147,-0.252 1.037459,-0.3626 0.22012,-0.069 0.442242,-0.1332 0.66864,-0.1784 0.09392,-0.018 0.188797,-0.035 0.284857,-0.034 0.110111,-2e-4 0.219348,0.015 0.328878,0.025 0.08637,0.01 0.173069,0.012 0.259693,0.01 0.0376,0 0.07437,-0.011 0.111555,-0.016 0.0051,6e-4 0.01713,-0.01 0.01777,-8e-4 -0.01135,0.065 -0.02196,0.1297 -0.03035,0.1949 -0.04166,0.3019 -0.07616,0.6047 -0.119086,0.9065 -0.0053,0.032 -0.0099,0.063 -0.01263,0.095 -0.01797,0.1863 -0.03233,0.373 -0.04604,0.5596 -0.01737,0.2441 -0.02829,0.4892 -0.01469,0.7337 0.0151,0.2808 0.05787,0.5591 0.103331,0.8364 0.02184,0.1347 0.04765,0.2689 0.06478,0.4044 0.02481,0.1892 0.03953,0.38 0.04387,0.5709 0.0034,0.1235 0.0059,0.2479 -0.01247,0.3704 -0.01705,0.1158 -0.04444,0.2298 -0.06577,0.3448 -0.06762,0.3533 -0.121901,0.7088 -0.174007,1.0646 -0.04192,0.2871 -0.07997,0.5748 -0.124447,0.8615 -0.06179,0.4008 -0.130807,0.801 -0.225038,1.1955 -0.04723,0.1967 -0.100647,0.3918 -0.162653,0.5843 -0.03008,0.093 -0.06939,0.1821 -0.117577,0.2667 -0.07055,0.1248 -0.15263,0.2429 -0.229717,0.3639 -0.0691,0.1081 -0.13896,0.2159 -0.201824,0.3277 -0.01898,0.035 -0.03951,0.071 -0.05043,0.1099 -0.0035,0.012 -0.0036,0.026 0.0049,0.035 0.01827,0.024 0.04543,0.039 0.07106,0.052 0.07367,0.038 0.152892,0.065 0.23233,0.089 0.08111,0.025 0.163783,0.043 0.247144,0.058 0.20956,0.038 0.42055,0.069 0.631779,0.095 0.09761,0.012 0.195285,0.024 0.293379,0.03 0.127897,0.01 0.256012,0.01 0.384016,0.01 0.26327,0 0.526523,-0.01 0.789476,-0.024 0.09434,-0.01 0.188943,-0.01 0.282681,-0.022 0.158264,-0.024 0.316733,-0.046 0.474284,-0.075 0.04113,-0.01 0.0829,-0.015 0.122444,-0.029 0.0071,0 0.01737,-0.01 0.01835,-0.015 -0.0025,-0.028 -0.01234,-0.055 -0.02018,-0.082 -0.03395,-0.1052 -0.07341,-0.2087 -0.116491,-0.3105 -0.01617,-0.036 -0.03122,-0.074 -0.05258,-0.1075 -0.05565,-0.079 -0.115808,-0.1556 -0.175154,-0.2323 -0.108991,-0.1392 -0.218809,-0.2777 -0.332314,-0.4132 -0.02018,-0.023 -0.0392,-0.048 -0.06171,-0.069 -0.03572,-0.028 -0.06274,-0.067 -0.08815,-0.1049 -0.0359,-0.055 -0.068,-0.1144 -0.08864,-0.1776 -0.02206,-0.073 -0.0175,-0.1519 -0.0045,-0.2265 0.02035,-0.1123 0.05818,-0.2204 0.09851,-0.327 0.07149,-0.1854 0.154324,-0.3661 0.238536,-0.5461 0.108275,-0.2303 0.223135,-0.4578 0.317954,-0.6942 0.105182,-0.2604 0.18485,-0.53 0.270815,-0.7972 0.09925,-0.3107 0.197502,-0.6217 0.301068,-0.931 0.0833,-0.2484 0.173283,-0.4945 0.264782,-0.74 0.01901,-0.049 0.03681,-0.1 0.05789,-0.1485 0.0029,0 0.0085,0 0.01167,0 0.02675,0.017 0.04819,0.04 0.07046,0.062 0.07781,0.082 0.148886,0.1693 0.217239,0.259 0.0989,0.1314 0.190684,0.2682 0.279168,0.4069 0.153073,0.2413 0.294863,0.4898 0.421277,0.7462 0.132738,0.2652 0.273831,0.5263 0.428605,0.7794 0.07967,0.131 0.164709,0.259 0.240315,0.3924 0.08269,0.1433 0.153975,0.2929 0.217314,0.4457 0.06727,0.1629 0.130665,0.3275 0.188067,0.494 0.100529,0.2911 0.18068,0.5892 0.23755,0.8919 0.06985,0.3689 0.106085,0.7433 0.12717,1.1179 0.0071,0.1081 0.01386,0.2163 0.02612,0.324 0.0021,0.012 0.0022,0.025 0.0069,0.036 0.0075,0.01 0.01787,0.01 0.02658,0.01 0.08522,0.011 0.171186,0.015 0.25691,0.021 0.120274,0.01 0.240478,0.013 0.360532,0.023 0.147775,0.012 0.295392,0.025 0.442699,0.041 0.223284,0.022 0.448259,0.038 0.672609,0.024 0.172333,-0.011 0.344119,-0.042 0.506136,-0.1025 0.148707,-0.055 0.28853,-0.1314 0.420031,-0.2194 0.09747,-0.068 0.189195,-0.1441 0.279701,-0.2212 0.101294,-0.088 0.201235,-0.177 0.293669,-0.274 0.0371,-0.039 0.07418,-0.078 0.111282,-0.1176 -0.131522,-0.1532 -0.262275,-0.307 -0.394495,-0.4594 -0.198339,-0.2276 -0.403461,-0.4504 -0.631335,-0.6489 -0.06887,-0.061 -0.140639,-0.1182 -0.211513,-0.1767 -0.08732,-0.074 -0.173749,-0.1496 -0.244029,-0.24 -0.04555,-0.059 -0.08246,-0.1259 -0.100783,-0.1985 -0.01384,-0.067 -0.0192,-0.1361 -0.02498,-0.2045 -0.0088,-0.1098 -0.0121,-0.2197 -0.01592,-0.3297 -0.0075,-0.1905 -0.02565,-0.381 -0.06298,-0.5681 -0.0452,-0.2287 -0.114521,-0.4518 -0.187977,-0.6728 -0.06563,-0.1961 -0.140876,-0.389 -0.223892,-0.5784 -0.169115,-0.3854 -0.36075,-0.7603 -0.546723,-1.1377 -0.146161,-0.2965 -0.29197,-0.5931 -0.430234,-0.8934 -0.124188,-0.2705 -0.241254,-0.545 -0.331581,-0.8288 -0.07358,-0.229 -0.1305,-0.4629 -0.186645,-0.6967 -0.05185,-0.2055 -0.110361,-0.4093 -0.170064,-0.6127 -0.0464,-0.158 -0.0953,-0.3152 -0.144941,-0.4723 -0.06783,-0.2179 -0.136017,-0.4358 -0.192598,-0.6569 -0.04336,-0.1697 -0.07705,-0.3425 -0.08803,-0.5175 -0.01302,-0.1997 -0.002,-0.3997 0.0081,-0.5992 0.01003,-0.1805 0.02075,-0.3615 0.04312,-0.5408 0.01793,-0.1385 0.04369,-0.2781 0.102371,-0.4056 0.03702,-0.082 0.08931,-0.1591 0.160348,-0.2155 0.05758,-0.046 0.124463,-0.08 0.193895,-0.1041 0.06663,-0.02 0.136453,-0.027 0.205591,-0.034 0.169288,-0.014 0.339453,-0.014 0.509091,-0.01 0.172506,0.01 0.345039,0.021 0.515462,0.049 0.117358,0.021 0.23467,0.045 0.353872,0.052 0.104406,0.01 0.209133,0 0.313487,0 0.151471,-0.01 0.301828,-0.032 0.45159,-0.056 0.161618,-0.027 0.322766,-0.058 0.481421,-0.099 0.05008,-0.014 0.100896,-0.027 0.148066,-0.049 0.01231,-0.01 0.02467,-0.014 0.02991,-0.027 0.01511,-0.032 0.01764,-0.069 0.02015,-0.1045 0.0046,-0.099 -0.0043,-0.1982 -0.01414,-0.2968 -0.01211,-0.1228 -0.03416,-0.2445 -0.04218,-0.3677 -0.0024,-0.049 -0.0041,-0.099 0.01595,-0.1444 0.0068,-0.018 0.01541,-0.038 0.03528,-0.044 0.0258,-0.01 0.0535,-0.01 0.08007,0 0.05584,0 0.111499,0.01 0.166137,0.02 0.116461,0.025 0.228196,0.069 0.338269,0.1144 0.204614,0.085 0.403668,0.1832 0.604245,0.2775 0.188192,0.088 0.378109,0.1742 0.576407,0.2372 0.129041,0.042 0.260831,0.074 0.389899,0.1159 0.168359,0.054 0.33606,0.1172 0.483001,0.217 0.114996,0.077 0.212703,0.177 0.298849,0.2851 0.08328,0.1046 0.158793,0.2152 0.231723,0.3273 0.302316,0.467 0.527709,0.979 0.719335,1.5001 0.154978,0.4229 0.288862,0.8534 0.41375,1.2859 0.102939,0.3566 0.198792,0.7151 0.292436,1.0742 0.191623,0.7292 0.382923,1.4585 0.574985,2.1876 0.05831,0.2142 0.120609,0.4272 0.175911,0.642 0.115647,0.4465 0.217674,0.8962 0.311448,1.3476 0.08595,0.4164 0.165127,0.8342 0.23037,1.2543 0.0311,0.2016 0.05734,0.4039 0.08349,0.6062 0.0388,0.3085 0.07506,0.6176 0.09586,0.928 0.01078,0.1713 0.01795,0.3433 0.007,0.5148 -0.0047,0.073 -0.01401,0.1454 -0.0298,0.2168 -0.01486,0.077 -0.02931,0.155 -0.03041,0.2339 5.26e-4,0.029 0.0012,0.061 0.01609,0.086 0.0069,0.012 0.02005,0.019 0.03348,0.023 0.05438,0.016 0.112655,0.01 0.167471,0 0.108961,-0.023 0.213192,-0.063 0.317846,-0.1009 0.08576,-0.029 0.17261,-0.056 0.26151,-0.075 0.02477,-0.01 0.05004,-0.01 0.07537,-0.01 0.02316,0 0.04688,0 0.06956,-0.01 0.0056,0 0,-0.01 -3.17e-4,-0.014 -0.01907,-0.062 -0.0434,-0.1224 -0.05771,-0.1857 -0.0315,-0.1336 -0.04661,-0.2706 -0.05892,-0.4072 -0.019,-0.2191 -0.02587,-0.439 -0.03189,-0.6589 -0.03218,-1.0619 -0.09006,-2.1232 -0.177532,-3.182 -0.06811,-0.8203 -0.153661,-1.6392 -0.26614,-2.4546 -0.03495,-0.2544 -0.0737,-0.5083 -0.113803,-0.7619 -0.09955,-0.6356 -0.203493,-1.2706 -0.317354,-1.9037 -0.07464,-0.417 -0.153363,-0.8333 -0.232389,-1.2495 -0.03877,-0.2061 -0.07809,-0.4121 -0.115187,-0.6186 -1.22e-4,-0.01 -0.0032,-0.011 -0.0016,-0.015 0.01529,-0.012 0.03428,-0.018 0.05198,-0.025 0.0754,-0.028 0.153178,-0.05 0.231195,-0.07 0.135353,-0.033 0.27294,-0.057 0.41007,-0.082 0.166729,-0.031 0.335241,-0.055 0.498061,-0.1031 0.09131,-0.027 0.179934,-0.065 0.260133,-0.1161 0.05319,-0.038 0.0967,-0.087 0.13429,-0.1401 0.0257,-0.038 0.05008,-0.077 0.06159,-0.1219 0.0023,-0.012 0.0074,-0.028 -0.0026,-0.039 -0.01592,-0.016 -0.03903,-0.022 -0.06016,-0.029 -0.07086,-0.02 -0.144296,-0.03 -0.217196,-0.041 -0.210587,-0.03 -0.422901,-0.047 -0.633767,-0.074 -0.163056,-0.022 -0.326203,-0.045 -0.48564,-0.086 -0.123615,-0.032 -0.246665,-0.075 -0.350997,-0.1504 -0.04959,-0.034 -0.09508,-0.075 -0.128691,-0.1254 -0.04659,-0.069 -0.07716,-0.1479 -0.107421,-0.2257 -0.0444,-0.1175 -0.08493,-0.2364 -0.12776,-0.3545 -0.07396,-0.2064 -0.149571,-0.4122 -0.223919,-0.6184 -0.125012,-0.3458 -0.24962,-0.6917 -0.380244,-1.0354 -0.121894,-0.3204 -0.247401,-0.6396 -0.386797,-0.9527 -0.04807,-0.1086 -0.09981,-0.2156 -0.145079,-0.3253 -0.0037,-0.01 -0.0056,-0.02 -0.01041,-0.03 -0.0391,-0.089 -0.08293,-0.1764 -0.125782,-0.2639 -0.102418,-0.2066 -0.206695,-0.4123 -0.314796,-0.616 -0.145187,-0.2708 -0.304109,-0.5343 -0.472674,-0.7912 -0.175456,-0.2662 -0.361266,-0.526 -0.563308,-0.7729 -0.08662,-0.1057 -0.177247,-0.2081 -0.271809,-0.3067 -0.202029,-0.2128 -0.417571,-0.4144 -0.657476,-0.584 -0.208148,-0.1482 -0.433428,-0.2709 -0.665874,-0.3764 -0.203593,-0.093 -0.412179,-0.1738 -0.622346,-0.2501 -0.12434,-0.045 -0.251269,-0.084 -0.381849,-0.1064 -0.155549,-0.027 -0.313252,-0.038 -0.470545,-0.05 -0.230578,-0.016 -0.46129,-0.031 -0.691466,-0.052 -0.03754,0 -0.07465,-0.01 -0.111282,-0.018 -0.133217,-0.031 -0.261038,-0.083 -0.381228,-0.148 -0.06361,-0.034 -0.122889,-0.075 -0.185683,-0.1106 -0.180742,-0.1042 -0.3696,-0.1943 -0.560282,-0.279 -0.271639,-0.1196 -0.548654,-0.2271 -0.830611,-0.3199 -0.162631,-0.053 -0.327034,-0.1017 -0.494556,-0.1357 -0.07998,-0.016 -0.161114,-0.027 -0.242729,-0.03 -0.04828,0 -0.09662,0 -0.144952,0 z"
       id="path3093"
       inkscape:connector-curvature="0" />
  </g>
</svg>
