<?xml version="1.0" encoding="UTF-8" standalone="no"?>
<svg
   xmlns:dc="http://purl.org/dc/elements/1.1/"
   xmlns:cc="http://creativecommons.org/ns#"
   xmlns:rdf="http://www.w3.org/1999/02/22-rdf-syntax-ns#"
   xmlns:svg="http://www.w3.org/2000/svg"
   xmlns="http://www.w3.org/2000/svg"
   xmlns:sodipodi="http://sodipodi.sourceforge.net/DTD/sodipodi-0.dtd"
   xmlns:inkscape="http://www.inkscape.org/namespaces/inkscape"
   width="2520"
   height="2520"
   viewBox="0 0 26880 26880"
   id="svg3064"
   version="1.1"
   inkscape:version="0.48.4 r9939"
   sodipodi:docname="archeological_site.svg">
  <metadata
     id="metadata3072">
    <rdf:RDF>
      <cc:Work
         rdf:about="">
        <dc:format>image/svg+xml</dc:format>
        <dc:type
           rdf:resource="http://purl.org/dc/dcmitype/StillImage" />
        <dc:title></dc:title>
      </cc:Work>
    </rdf:RDF>
  </metadata>
  <defs
     id="defs3070">
    <inkscape:perspective
       sodipodi:type="inkscape:persp3d"
       inkscape:vp_x="0 : 225.5 : 1"
       inkscape:vp_y="0 : 1000 : 0"
       inkscape:vp_z="301 : 225.5 : 1"
       inkscape:persp3d-origin="150.5 : 150.33333 : 1"
       id="perspective2486" />
    <inkscape:perspective
       id="perspective13"
       inkscape:persp3d-origin="300.5 : 250.33333 : 1"
       inkscape:vp_z="601 : 375.5 : 1"
       inkscape:vp_y="0 : 1000 : 0"
       inkscape:vp_x="0 : 375.5 : 1"
       sodipodi:type="inkscape:persp3d" />
    <inkscape:perspective
       id="perspective9"
       inkscape:persp3d-origin="372.04724 : 350.78739 : 1"
       inkscape:vp_z="744.09448 : 526.18109 : 1"
       inkscape:vp_y="0 : 1000 : 0"
       inkscape:vp_x="0 : 526.18109 : 1"
       sodipodi:type="inkscape:persp3d" />
  </defs>
  <sodipodi:namedview
     pagecolor="#ffffff"
     bordercolor="#666666"
     borderopacity="1"
     objecttolerance="6"
     gridtolerance="6"
     guidetolerance="6"
     inkscape:pageopacity="0"
     inkscape:pageshadow="2"
     inkscape:window-width="1400"
     inkscape:window-height="997"
     id="namedview3068"
     showgrid="true"
     inkscape:snap-grids="true"
     inkscape:zoom="0.19"
     inkscape:cx="526.61644"
     inkscape:cy="1716.0417"
     inkscape:window-x="0"
     inkscape:window-y="0"
     inkscape:window-maximized="1"
     inkscape:current-layer="g4212"
     showguides="true"
     inkscape:guide-bbox="true"
     inkscape:snap-to-guides="false">
    <inkscape:grid
       type="xygrid"
       id="grid3074"
       empspacing="2"
       visible="true"
       enabled="true"
       snapvisiblegridlinesonly="true"
       dotted="false"
       spacingx="315px"
       spacingy="315px"
       color="#00009b"
       opacity="0.1372549"
       empcolor="#00009b"
       empopacity="0.29411765" />
    <inkscape:grid
       type="xygrid"
       id="grid5379"
       empspacing="3"
       visible="true"
       enabled="true"
       snapvisiblegridlinesonly="true"
       color="#9b0000"
       opacity="0.11764706"
       empcolor="#9b0000"
       empopacity="0.39215686"
       spacingx="280px"
       spacingy="280px" />
    <inkscape:grid
       type="xygrid"
       id="grid5381"
       empspacing="2"
       visible="true"
       enabled="true"
       snapvisiblegridlinesonly="true"
       spacingx="252px"
       spacingy="252px"
       empcolor="#009b00"
       empopacity="0.23529412"
       color="#009b00"
       opacity="0.09803922" />
    <inkscape:grid
       type="xygrid"
       id="grid5383"
       empspacing="2"
       visible="true"
       enabled="true"
       snapvisiblegridlinesonly="true"
       spacingx="180px"
       spacingy="180px"
       color="#009b9b"
       opacity="0.07843137"
       empcolor="#009b9b"
       empopacity="0.15686275" />
    <inkscape:grid
       type="xygrid"
       id="grid3019"
       empspacing="5"
       visible="true"
       enabled="true"
       snapvisiblegridlinesonly="true"
       color="#9b0000"
       opacity="0.09803922"
       empcolor="#0000ff"
       empopacity="0"
       dotted="true"
       spacingx="140px"
       spacingy="140px" />
    <inkscape:grid
       type="xygrid"
       id="grid3013"
       empspacing="5"
       visible="true"
       enabled="false"
       snapvisiblegridlinesonly="true"
       spacingx="210px"
       spacingy="210px"
       color="#ff00ff"
       opacity="0.29411765" />
  </sodipodi:namedview>
  <g
     id="g4212">
    <path
       style="fill:#000000;fill-opacity:1;stroke:none"
       d="M 13470.129,37.805507 C 11041.222,61.880366 8595.5008,-8.0349846 6181.7148,282.34215 6437.6161,1003.7223 7769.485,1463.4451 7769.485,2252.1638 c 0,150.8563 -107.2509,219.3117 -365.734,460.3559 C 5332.0044,787.87552 2684.7521,2171.8724 2205.5693,4360.5255 c -286.7733,1969.9469 647.5708,3866.0476 548.1703,5833.8635 -474.7749,1894.182 253.5949,3873.241 1135.8791,5541.21 1284.2683,2450.454 3056.6352,4668.983 5254.944,6361.206 1116.8013,811.187 -2131.957,2391.669 -1791.6057,1633.824 -1006.0416,926.322 -181.5824,1781.381 1194.5697,2395.579 2240.8193,868.071 4666.2933,586.877 7014.0763,612.734 1537.801,-9.506 3184.465,-276.42 4464.911,-1175.228 1535.885,-1595.279 -2022.344,-3216.718 -1300.423,-2620.644 -1335.028,-530.175 1217.586,-2305.719 1129.647,-2106.454 2057.401,-2096.395 3825.819,-4602.269 4613.796,-7459.827 485.731,-1439.29 -46.313,-5827.007 15.767,-4374.1169 69.132,-1640.1806 892.92,-3283.1126 460.41,-4924.7437 C 24203.393,2292.9921 21724.44,1493.3661 20100.65,2590.297 c -1333.908,597.5421 -258.541,-699.4015 159.455,-686.8281 404.492,-584.5579 1751.32,-1915.140568 158.847,-1728.96809 C 18113.511,-47.196276 15784.185,75.888774 13470.129,37.805507 z M 4513.1063,3581.2979 C 5816.2605,3168.5264 7679.0325,4157.7025 7480.7488,5509.1429 6709.1012,6647.9312 5410.7694,7253.3286 4254.5644,7902.2171 3758.3179,6879.8172 3986.581,3718.9081 3985.3618,4871.3398 c -9.9096,-798.7221 37.2972,-1134.6936 527.7445,-1290.0419 z m 17611.0277,0 c 1477.514,425.1336 1650.757,1743.9712 1512.603,2260.8261 -228.827,893.9266 -378.829,2916.327 -1538.594,1514.0465 -862.866,-567.7492 -1997.522,-3592.6738 -2058.96,-2385.3515 230.488,-957.2927 1065.389,-1347.2731 2084.951,-1389.5211 z"
       id="path8938"
       inkscape:connector-curvature="0"
       sodipodi:nodetypes="cccccccccccccccccccccscccsccccc" />
  </g>
</svg>
