<?xml version="1.0" encoding="UTF-8" standalone="no"?>
<svg
   xmlns:dc="http://purl.org/dc/elements/1.1/"
   xmlns:cc="http://creativecommons.org/ns#"
   xmlns:rdf="http://www.w3.org/1999/02/22-rdf-syntax-ns#"
   xmlns:svg="http://www.w3.org/2000/svg"
   xmlns="http://www.w3.org/2000/svg"
   xmlns:sodipodi="http://sodipodi.sourceforge.net/DTD/sodipodi-0.dtd"
   xmlns:inkscape="http://www.inkscape.org/namespaces/inkscape"
   width="2520"
   height="2520"
   viewBox="0 0 26880 26880"
   id="svg3064"
   version="1.1"
   inkscape:version="0.48.3.1 r9886"
   sodipodi:docname="fuel.svg">
  <metadata
     id="metadata3072">
    <rdf:RDF>
      <cc:Work
         rdf:about="">
        <dc:format>image/svg+xml</dc:format>
        <dc:type
           rdf:resource="http://purl.org/dc/dcmitype/StillImage" />
        <dc:title></dc:title>
      </cc:Work>
    </rdf:RDF>
  </metadata>
  <defs
     id="defs3070" />
  <sodipodi:namedview
     pagecolor="#ffffff"
     bordercolor="#666666"
     borderopacity="1"
     objecttolerance="6"
     gridtolerance="6"
     guidetolerance="6"
     inkscape:pageopacity="0"
     inkscape:pageshadow="2"
     inkscape:window-width="1600"
     inkscape:window-height="1147"
     id="namedview3068"
     showgrid="true"
     inkscape:snap-grids="false"
     inkscape:zoom="0.2"
     inkscape:cx="906.56025"
     inkscape:cy="1009.7388"
     inkscape:window-x="0"
     inkscape:window-y="0"
     inkscape:window-maximized="1"
     inkscape:current-layer="svg3064"
     showguides="true"
     inkscape:guide-bbox="true"
     inkscape:snap-to-guides="false"
     inkscape:object-paths="true">
    <inkscape:grid
       type="xygrid"
       id="grid3074"
       empspacing="2"
       visible="true"
       enabled="true"
       snapvisiblegridlinesonly="true"
       dotted="false"
       spacingx="315px"
       spacingy="315px"
       color="#00009b"
       opacity="0.1372549"
       empcolor="#00009b"
       empopacity="0.29411765" />
    <inkscape:grid
       type="xygrid"
       id="grid5379"
       empspacing="3"
       visible="true"
       enabled="true"
       snapvisiblegridlinesonly="true"
       color="#9b0000"
       opacity="0.11764706"
       empcolor="#9b0000"
       empopacity="0.39215686"
       spacingx="280px"
       spacingy="280px" />
    <inkscape:grid
       type="xygrid"
       id="grid5381"
       empspacing="2"
       visible="true"
       enabled="true"
       snapvisiblegridlinesonly="true"
       spacingx="252px"
       spacingy="252px"
       empcolor="#009b00"
       empopacity="0.23529412"
       color="#009b00"
       opacity="0.09803922" />
    <inkscape:grid
       type="xygrid"
       id="grid5383"
       empspacing="2"
       visible="true"
       enabled="true"
       snapvisiblegridlinesonly="true"
       spacingx="180px"
       spacingy="180px"
       color="#009b9b"
       opacity="0.07843137"
       empcolor="#009b9b"
       empopacity="0.15686275" />
    <inkscape:grid
       type="xygrid"
       id="grid3019"
       empspacing="5"
       visible="true"
       enabled="true"
       snapvisiblegridlinesonly="true"
       color="#9b0000"
       opacity="0.09803922"
       empcolor="#0000ff"
       empopacity="0"
       dotted="true"
       spacingx="140px"
       spacingy="140px" />
    <inkscape:grid
       type="xygrid"
       id="grid3013"
       empspacing="5"
       visible="true"
       enabled="false"
       snapvisiblegridlinesonly="true"
       spacingx="210px"
       spacingy="210px"
       color="#ff00ff"
       opacity="0.29411765" />
  </sodipodi:namedview>
  <g
     style="fill:#000000;stroke:none"
     transform="matrix(4.6595242,0,0,-4.6595242,-950.58328,27486.162)"
     id="g5310">
    <path
       inkscape:connector-curvature="0"
       d="m 2600,5595 c 0,-237 -3,-305 -12,-305 -7,0 -63,-5 -125,-10 -140,-12 -299,-49 -398,-91 -11,-4 -49,-20 -85,-35 -304,-124 -635,-421 -789,-706 -33,-63 -80,-169 -88,-202 -35,-143 -41,-258 -23,-421 37,-323 180,-591 420,-785 77,-62 83,-66 116,-87 28,-18 244,-126 279,-140 27,-10 103,-36 115,-38 19,-5 100,-27 120,-35 59,-20 254,-55 418,-75 l 52,-7 0,-515 0,-516 -82,6 c -76,5 -198,30 -223,45 -5,4 -12,7 -15,8 -71,14 -269,163 -285,215 -4,11 -10,19 -14,19 -12,0 -75,133 -95,200 l -17,55 -410,-3 -410,-2 6,-63 c 17,-165 65,-343 132,-487 26,-54 99,-185 115,-205 4,-5 27,-35 51,-65 72,-93 202,-215 327,-306 60,-44 244,-154 257,-154 5,0 25,-9 44,-19 34,-18 167,-63 264,-90 62,-17 188,-31 276,-31 l 79,0 0,-325 0,-325 375,0 375,0 2,332 3,333 85,6 c 121,9 341,58 430,96 8,3 18,7 22,7 3,1 10,4 14,8 4,5 13,8 20,8 16,0 162,70 249,119 39,22 77,44 85,48 8,4 20,12 27,17 7,6 36,27 64,46 70,47 221,181 267,237 20,24 47,57 60,71 36,42 132,200 162,267 104,232 133,496 79,720 -11,44 -21,89 -24,100 -7,28 -110,235 -132,264 -193,254 -402,410 -708,524 -138,51 -348,95 -495,102 -58,3 -129,8 -158,11 l -52,5 2,502 3,502 58,-2 c 154,-5 367,-94 455,-188 66,-71 103,-148 110,-230 l 5,-65 431,0 432,0 -4,38 c -4,47 -29,151 -52,222 -141,430 -441,791 -800,962 -133,63 -169,78 -235,94 -5,2 -44,12 -86,23 -42,11 -123,25 -180,31 -57,6 -112,13 -121,16 -17,5 -18,28 -18,290 l 0,284 -375,0 -375,0 0,-305 z m 0,-1585 0,-450 -57,0 c -52,1 -84,6 -159,23 -30,7 -158,59 -164,66 -3,3 -18,13 -35,21 -54,28 -151,128 -186,192 -32,59 -34,69 -34,158 0,69 6,111 20,154 56,167 269,281 528,285 l 87,1 0,-450 z m 975,-1485 c 219,-17 399,-118 472,-266 46,-93 48,-281 3,-367 -80,-153 -329,-259 -612,-261 l -88,-1 0,448 c 0,247 3,452 7,456 4,4 37,4 73,2 36,-3 101,-8 145,-11 z"
       id="path5312"
       style="stroke:none" />
  </g>
</svg>
