<?xml version="1.0" encoding="UTF-8" standalone="no"?>
<svg
   xmlns:dc="http://purl.org/dc/elements/1.1/"
   xmlns:cc="http://creativecommons.org/ns#"
   xmlns:rdf="http://www.w3.org/1999/02/22-rdf-syntax-ns#"
   xmlns:svg="http://www.w3.org/2000/svg"
   xmlns="http://www.w3.org/2000/svg"
   xmlns:sodipodi="http://sodipodi.sourceforge.net/DTD/sodipodi-0.dtd"
   xmlns:inkscape="http://www.inkscape.org/namespaces/inkscape"
   width="2520"
   height="2520"
   viewBox="0 0 26880 26880"
   id="svg3064"
   version="1.1"
   inkscape:version="0.48.4 r9939"
   sodipodi:docname="bakery.svg">
  <metadata
     id="metadata3072">
    <rdf:RDF>
      <cc:Work
         rdf:about="">
        <dc:format>image/svg+xml</dc:format>
        <dc:type
           rdf:resource="http://purl.org/dc/dcmitype/StillImage" />
        <dc:title></dc:title>
      </cc:Work>
    </rdf:RDF>
  </metadata>
  <defs
     id="defs3070">
    <inkscape:perspective
       sodipodi:type="inkscape:persp3d"
       inkscape:vp_x="0 : 225.5 : 1"
       inkscape:vp_y="0 : 1000 : 0"
       inkscape:vp_z="301 : 225.5 : 1"
       inkscape:persp3d-origin="150.5 : 150.33333 : 1"
       id="perspective2486" />
    <inkscape:perspective
       id="perspective13"
       inkscape:persp3d-origin="300.5 : 250.33333 : 1"
       inkscape:vp_z="601 : 375.5 : 1"
       inkscape:vp_y="0 : 1000 : 0"
       inkscape:vp_x="0 : 375.5 : 1"
       sodipodi:type="inkscape:persp3d" />
    <inkscape:perspective
       id="perspective9"
       inkscape:persp3d-origin="372.04724 : 350.78739 : 1"
       inkscape:vp_z="744.09448 : 526.18109 : 1"
       inkscape:vp_y="0 : 1000 : 0"
       inkscape:vp_x="0 : 526.18109 : 1"
       sodipodi:type="inkscape:persp3d" />
  </defs>
  <sodipodi:namedview
     pagecolor="#ffffff"
     bordercolor="#666666"
     borderopacity="1"
     objecttolerance="6"
     gridtolerance="6"
     guidetolerance="6"
     inkscape:pageopacity="0"
     inkscape:pageshadow="2"
     inkscape:window-width="1600"
     inkscape:window-height="1147"
     id="namedview3068"
     showgrid="true"
     inkscape:snap-grids="false"
     inkscape:zoom="0.22627418"
     inkscape:cx="536.73546"
     inkscape:cy="725.81386"
     inkscape:window-x="0"
     inkscape:window-y="0"
     inkscape:window-maximized="1"
     inkscape:current-layer="g3324"
     showguides="true"
     inkscape:guide-bbox="true"
     inkscape:snap-to-guides="false">
    <inkscape:grid
       type="xygrid"
       id="grid3074"
       empspacing="2"
       visible="true"
       enabled="true"
       snapvisiblegridlinesonly="true"
       dotted="false"
       spacingx="315px"
       spacingy="315px"
       color="#00009b"
       opacity="0.1372549"
       empcolor="#00009b"
       empopacity="0.29411765" />
    <inkscape:grid
       type="xygrid"
       id="grid5379"
       empspacing="3"
       visible="true"
       enabled="true"
       snapvisiblegridlinesonly="true"
       color="#9b0000"
       opacity="0.11764706"
       empcolor="#9b0000"
       empopacity="0.39215686"
       spacingx="280px"
       spacingy="280px" />
    <inkscape:grid
       type="xygrid"
       id="grid5381"
       empspacing="2"
       visible="true"
       enabled="true"
       snapvisiblegridlinesonly="true"
       spacingx="252px"
       spacingy="252px"
       empcolor="#009b00"
       empopacity="0.23529412"
       color="#009b00"
       opacity="0.09803922" />
    <inkscape:grid
       type="xygrid"
       id="grid5383"
       empspacing="2"
       visible="true"
       enabled="true"
       snapvisiblegridlinesonly="true"
       spacingx="180px"
       spacingy="180px"
       color="#009b9b"
       opacity="0.07843137"
       empcolor="#009b9b"
       empopacity="0.15686275" />
    <inkscape:grid
       type="xygrid"
       id="grid3019"
       empspacing="5"
       visible="true"
       enabled="true"
       snapvisiblegridlinesonly="true"
       color="#9b0000"
       opacity="0.09803922"
       empcolor="#0000ff"
       empopacity="0"
       dotted="true"
       spacingx="140px"
       spacingy="140px" />
    <inkscape:grid
       type="xygrid"
       id="grid3013"
       empspacing="5"
       visible="true"
       enabled="false"
       snapvisiblegridlinesonly="true"
       spacingx="210px"
       spacingy="210px"
       color="#ff00ff"
       opacity="0.29411765" />
  </sodipodi:namedview>
  <g
     id="g4212">
    <text
       sodipodi:linespacing="125%"
       id="text2998"
       y="4924.4893"
       x="9930.1055"
       style="font-size:6048.16699219px;font-style:normal;font-variant:normal;font-weight:normal;font-stretch:normal;line-height:125%;letter-spacing:0px;word-spacing:0px;fill:#000000;fill-opacity:1;stroke:none;font-family:Liberation Sans;-inkscape-font-specification:Sans"
       xml:space="preserve"><tspan
         y="4924.4893"
         x="9930.1055"
         id="tspan3000"
         sodipodi:role="line" /></text>
    <g
       id="g4445"
       transform="matrix(10.666667,0,0,10.666667,-20763.958,4280.9699)">
      <g
         id="g3324"
         transform="matrix(4.8314063,0,0,4.8314063,1656.0154,-384.07686)"
         style="fill:#000000;fill-opacity:1">
        <g
           id="g3338"
           transform="matrix(1.4525761,-0.25342377,0.25342377,1.4525761,-177.93469,-155.4323)"
           style="fill:#000000;fill-opacity:1" />
        <path
           inkscape:connector-curvature="0"
           style="fill:#000000;fill-opacity:1;fill-rule:evenodd;stroke:none"
           d="m 220.69011,54.826697 c -22.83723,0.280927 -45.72327,5.686235 -66.86434,16.415598 -0.23792,0.109397 -0.45884,0.237381 -0.6959,0.347839 -0.31226,0.160377 -0.63737,0.279864 -0.94883,0.442897 l 0,0.03187 C 62.825632,114.49686 37.240739,226.67353 78.769337,309.3481 136.44615,430.05187 284.0096,471.31897 402.27408,433.20859 510.71845,403.2686 601.12774,296.51434 578.67085,175.9356 c -0.13967,-0.74975 -0.23101,-1.49487 -0.37971,-2.24566 l -0.0632,0 C 565.58834,89.900205 479.61323,39.608302 400.43956,59.318278 371.97972,66.40463 346.62971,78.180802 323.99151,93.224905 295.10052,67.600397 258.0235,54.367604 220.69011,54.82691 z m 219.15963,21.286509 c 2.81835,-0.198083 5.47371,1.600694 6.26258,4.428119 l 6.26265,22.393595 c 0.0425,0.13117 0.094,0.27774 0.12638,0.41103 0.79191,3.26214 -1.22927,6.54611 -4.49136,7.33802 -3.26209,0.7919 -6.54612,-1.22923 -7.33802,-4.49137 l -6.26259,-22.39354 c -0.90156,-3.231394 0.97533,-6.562999 4.20668,-7.464512 0.40412,-0.112583 0.83093,-0.193303 1.23357,-0.221449 z M 263.86417,90.251548 c 3.3539,-0.139666 6.1861,2.465831 6.32583,5.819794 0.13967,3.353909 -2.46583,6.186108 -5.8198,6.325828 l -23.18427,1.77127 c -3.3452,0.25331 -6.26237,-2.2532 -6.51563,-5.598396 -0.25331,-3.345198 2.25315,-6.26237 5.59835,-6.51563 l 23.18433,-1.771268 c 0.13648,-0.01593 0.27402,-0.02655 0.41103,-0.03187 z M 151.2321,101.60649 c 0.4036,0.005 0.79292,0.0659 1.20193,0.15826 l 22.70986,5.0923 c 0.13489,0.0266 0.24641,0.06 0.37971,0.0951 3.24737,0.85032 5.21513,4.18554 4.36486,7.43292 -0.85031,3.24732 -4.18552,5.18348 -7.43291,4.33316 l -22.67821,-5.12395 c -3.27233,-0.73917 -5.32543,-3.97078 -4.58627,-7.24307 0.64683,-2.86332 3.21648,-4.80182 6.04119,-4.74441 z m 214.69989,6.70538 c 1.95114,0.0107 3.86505,0.97463 5.02907,2.72015 1.86239,2.7928 1.11648,6.55094 -1.67637,8.41339 l -18.91437,13.56896 c -2.7263,1.95491 -6.49008,1.33468 -8.44499,-1.39168 -1.95491,-2.72637 -1.33463,-6.52174 1.39168,-8.47664 l 18.88271,-13.56901 c 0.10885,-0.0839 0.20178,-0.14497 0.31651,-0.22145 1.04733,-0.69838 2.24528,-1.05079 3.41599,-1.04378 z m 167.19264,14.01179 c 3.35391,-0.13967 6.18611,2.46588 6.32583,5.81979 0.13968,3.35397 -2.46582,6.18611 -5.81979,6.32589 l -23.18428,1.77122 c -3.34519,0.2533 -6.26236,-2.25315 -6.51562,-5.59835 -0.25331,-3.34525 2.25315,-6.26237 5.59834,-6.51568 l 23.18433,-1.77122 c 0.13648,-0.0159 0.27402,-0.0266 0.41103,-0.0319 z m -310.88465,6.73708 c 16.05416,0.0664 32.19304,4.74733 45.38807,13.60059 -36.6802,40.81727 -68.02451,98.71223 -88.43578,144.35663 -5.66538,12.08621 -4.37938,26.27473 3.38433,37.13282 7.7637,10.8581 20.79582,16.69749 34.06477,15.24534 13.26896,-1.45213 24.72145,-9.95517 29.95301,-22.23541 19.00266,-42.49441 47.39219,-92.89869 77.17569,-125.63207 27.40794,29.16759 57.89921,76.63057 70.66033,113.8345 4.13397,12.66834 14.76838,22.11293 27.83378,24.73415 13.06546,2.62126 26.53458,-1.98895 35.23507,-12.08238 8.70053,-10.09343 11.28738,-24.09051 6.76867,-36.62678 -15.79178,-46.03977 -50.21819,-100.80291 -82.45802,-136.16484 11.54019,-6.11671 23.64258,-11.03955 36.46863,-14.23318 4.74256,-1.18065 9.57476,-1.80924 14.42299,-1.92937 33.93754,-0.84119 68.29673,23.18677 72.77907,56.67977 l 0.15826,1.13863 0.22144,1.13868 c 14.97517,75.76979 -49.86472,153.80238 -124.71441,174.46734 l -0.75914,0.22145 -0.75909,0.22145 C 294.33123,390.4146 183.65489,357.55919 145.09606,276.86468 l -0.15824,-0.3165 -0.15827,-0.34785 c -23.63577,-47.0537 -7.30056,-116.12306 39.9478,-137.90392 l 0.82239,-0.37969 0.82233,-0.44291 c 10.94269,-5.72159 23.38109,-8.46496 35.86769,-8.41339 z M 113.5616,169.7993 c 1.87159,0.0801 3.68731,1.04005 4.80766,2.72015 1.86246,2.7928 1.11648,6.58259 -1.67638,8.44499 l -18.882697,13.56899 c -2.726316,1.95486 -6.521738,1.30305 -8.476635,-1.42331 -1.954908,-2.72637 -1.334645,-6.5218 1.391663,-8.47666 l 18.882709,-13.53734 c 0.10887,-0.0838 0.23366,-0.17685 0.34784,-0.25331 0.87278,-0.58204 1.83897,-0.92354 2.81505,-1.01213 0.26818,-0.0265 0.52309,-0.0425 0.79074,-0.0319 z m 279.2553,19.00924 c 2.59101,0.0265 4.97197,1.72103 5.75654,4.33323 0.96567,3.21493 -0.86524,6.62535 -4.08016,7.59101 l -22.014,7.43291 c -3.1784,1.07352 -6.64409,-0.61713 -7.71756,-3.79553 -1.07352,-3.1784 0.64873,-6.61244 3.82712,-7.6859 l 22.014,-7.46452 c 0.12852,-0.0478 0.24801,-0.0871 0.3797,-0.1264 0.6028,-0.18108 1.23655,-0.29048 1.83447,-0.28464 z m -111.9362,3.57409 c 3.35397,-0.13967 6.18617,2.46588 6.32589,5.81978 0.13966,3.35397 -2.46589,6.18613 -5.8198,6.32589 l -23.18427,1.77122 c -3.3452,0.25331 -6.26238,-2.2532 -6.51562,-5.59834 -0.25333,-3.3452 2.25314,-6.26237 5.59834,-6.51568 l 23.18432,-1.77122 c 0.13649,-0.0159 0.2735,-0.0265 0.41103,-0.0319 z m 256.00782,2.40386 c 1.1697,-0.0265 2.3577,0.30004 3.41598,0.98048 l 19.57855,12.55687 c 0.11841,0.0701 0.23472,0.14338 0.34784,0.22145 2.76061,1.90981 3.45969,5.68443 1.54987,8.44499 -1.90988,2.76062 -5.71608,3.45969 -8.47671,1.54988 l -19.54688,-12.55688 c -2.82207,-1.81397 -3.64848,-5.59128 -1.83452,-8.4134 1.13375,-1.76377 3.01631,-2.73878 4.96581,-2.78334 z m -127.49781,62.49955 c 0.40359,0.005 0.79285,0.0659 1.20187,0.15825 l 22.67822,5.12391 c 0.13489,0.0265 0.27829,0.0265 0.41104,0.0632 3.24738,0.85031 5.18355,4.18558 4.33323,7.4329 -0.85028,3.24739 -4.15389,5.18355 -7.40127,4.33324 l -22.67823,-5.09231 c -3.27235,-0.73923 -5.32544,-4.00243 -4.58627,-7.27477 0.64682,-2.86328 3.21647,-4.80177 6.04124,-4.74442 z m -193.25522,5.34535 c 1.1697,-0.0265 2.35771,0.26871 3.41599,0.94888 l 19.57854,12.55682 c 0.11843,0.0701 0.23472,0.14338 0.34784,0.22146 2.76061,1.90981 3.42805,5.71607 1.51822,8.47663 -1.90987,2.76062 -5.68443,3.4597 -8.44505,1.54988 l -19.57854,-12.58847 c -2.82206,-1.81397 -3.61683,-5.55973 -1.80285,-8.38179 1.13368,-1.76379 3.01632,-2.73881 4.9658,-2.78341 z m -102.0362,1.39168 c 3.35395,-0.13968 6.18611,2.46588 6.32588,5.81979 0.13967,3.35396 -2.46589,6.18611 -5.81979,6.32589 l -23.184332,1.77122 c -3.345197,0.2533 -6.262308,-2.25321 -6.515626,-5.59836 -0.253306,-3.34525 2.253199,-6.26237 5.598396,-6.51568 l 23.184322,-1.77121 c 0.13649,-0.0159 0.27403,-0.0265 0.41104,-0.0319 z m 420.9547,15.05558 c 1.95115,0.0107 3.86505,0.97457 5.02907,2.72009 1.86245,2.79281 1.08482,6.551 -1.70798,8.4134 l -18.88269,13.569 c -2.72637,1.9549 -6.52179,1.33463 -8.47665,-1.39167 -1.95491,-2.72637 -1.33468,-6.5218 1.39167,-8.4767 l 18.91436,-13.56895 c 0.10887,-0.0838 0.2018,-0.14498 0.3165,-0.22144 1.04728,-0.69839 2.24529,-1.0508 3.41594,-1.04379 z m -396.6001,40.80184 c 2.58841,0.0766 4.92911,1.83421 5.66165,4.45972 l 6.26258,22.39353 c 0.0425,0.13118 0.094,0.24588 0.12639,0.37972 0.7919,3.26208 -1.22922,6.5461 -4.49131,7.33801 -3.26215,0.7919 -6.54611,-1.19763 -7.33802,-4.45972 l -6.26263,-22.39359 c -0.90157,-3.23135 1.00697,-6.59454 4.23837,-7.49611 0.60582,-0.16888 1.20553,-0.23897 1.80287,-0.22145 z m 336.02997,13.85359 c 3.35147,-0.14815 6.1775,2.46834 6.32583,5.8198 l 1.04378,23.21597 c 0.0107,0.13701 0.0319,0.27351 0.0319,0.41104 0.0371,3.35667 -2.68452,6.10152 -6.04119,6.13609 -3.35667,0.0371 -6.10152,-2.65293 -6.13609,-6.00959 l -1.04379,-23.21592 c -0.14815,-3.35147 2.46833,-6.20916 5.81981,-6.35749 z M 198.9924,379.97619 c 0.40361,0.005 0.82452,0.0659 1.23354,0.15826 l 22.67823,5.12395 c 0.13488,0.0265 0.27827,0.0599 0.41103,0.095 3.24738,0.85033 5.18354,4.15389 4.33322,7.40127 -0.85026,3.24739 -4.18553,5.18354 -7.43285,4.33323 l -22.67825,-5.0923 c -3.27234,-0.73923 -5.32548,-4.00249 -4.58625,-7.27478 0.6468,-2.86327 3.21641,-4.80182 6.04119,-4.74441 z m 212.10626,10.37441 c 3.35397,-0.13966 6.18612,2.46589 6.32588,5.8198 0.13968,3.35396 -2.46586,6.18616 -5.81978,6.32588 l -23.18433,1.77121 c -3.34519,0.25331 -6.26236,-2.25313 -6.51563,-5.59833 -0.25331,-3.34521 2.25321,-6.26238 5.59841,-6.51569 l 23.18427,-1.77122 c 0.13647,-0.0159 0.27401,-0.0265 0.41102,-0.0319 z m -122.08921,5.88305 c 1.16969,-0.0265 2.35771,0.26871 3.41599,0.94892 l 19.57855,12.55682 c 0.11842,0.0701 0.23472,0.1434 0.34784,0.22145 2.76061,1.90983 3.42804,5.71603 1.51821,8.47665 -1.90982,2.76063 -5.68437,3.4597 -8.44498,1.54982 l -19.57859,-12.58847 c -2.82207,-1.81391 -3.61685,-5.55969 -1.80287,-8.38175 1.13373,-1.76378 3.01637,-2.73878 4.9658,-2.78339 z"
           id="path7165"
           sodipodi:nodetypes="ccsccccsccccccccssccsccsccsccccccssccsccsccsccsccsccsccccccsscccssccssccccccccccccccsccsccssccsccsccsccsccsccccccssccsccccssccsccccssccsccsccsccccsccsccsccccssccsccccssccccccssccsccsccsccccccssccsc" />
      </g>
    </g>
  </g>
</svg>
