<?xml version="1.0" encoding="UTF-8" standalone="no"?>
<svg
   xmlns:dc="http://purl.org/dc/elements/1.1/"
   xmlns:cc="http://creativecommons.org/ns#"
   xmlns:rdf="http://www.w3.org/1999/02/22-rdf-syntax-ns#"
   xmlns:svg="http://www.w3.org/2000/svg"
   xmlns="http://www.w3.org/2000/svg"
   xmlns:sodipodi="http://sodipodi.sourceforge.net/DTD/sodipodi-0.dtd"
   xmlns:inkscape="http://www.inkscape.org/namespaces/inkscape"
   width="2520"
   height="2520"
   viewBox="0 0 26880 26880"
   id="svg3064"
   version="1.1"
   inkscape:version="0.48.4 r9939"
   sodipodi:docname="bank.svg">
  <metadata
     id="metadata3072">
    <rdf:RDF>
      <cc:Work
         rdf:about="">
        <dc:format>image/svg+xml</dc:format>
        <dc:type
           rdf:resource="http://purl.org/dc/dcmitype/StillImage" />
        <dc:title />
      </cc:Work>
    </rdf:RDF>
  </metadata>
  <defs
     id="defs3070" />
  <sodipodi:namedview
     pagecolor="#ffffff"
     bordercolor="#666666"
     borderopacity="1"
     objecttolerance="6"
     gridtolerance="6"
     guidetolerance="6"
     inkscape:pageopacity="0"
     inkscape:pageshadow="2"
     inkscape:window-width="1600"
     inkscape:window-height="1147"
     id="namedview3068"
     showgrid="true"
     inkscape:snap-grids="true"
     inkscape:zoom="0.2"
     inkscape:cx="1.56025"
     inkscape:cy="1009.7388"
     inkscape:window-x="0"
     inkscape:window-y="0"
     inkscape:window-maximized="1"
     inkscape:current-layer="svg3064"
     showguides="true"
     inkscape:guide-bbox="true"
     inkscape:snap-to-guides="false"
     inkscape:object-paths="true">
    <inkscape:grid
       type="xygrid"
       id="grid3074"
       empspacing="2"
       visible="true"
       enabled="true"
       snapvisiblegridlinesonly="true"
       dotted="false"
       spacingx="315px"
       spacingy="315px"
       color="#00009b"
       opacity="0.1372549"
       empcolor="#00009b"
       empopacity="0.29411765" />
    <inkscape:grid
       type="xygrid"
       id="grid5379"
       empspacing="3"
       visible="true"
       enabled="true"
       snapvisiblegridlinesonly="true"
       color="#9b0000"
       opacity="0.11764706"
       empcolor="#9b0000"
       empopacity="0.39215686"
       spacingx="280px"
       spacingy="280px" />
    <inkscape:grid
       type="xygrid"
       id="grid5381"
       empspacing="2"
       visible="true"
       enabled="true"
       snapvisiblegridlinesonly="true"
       spacingx="252px"
       spacingy="252px"
       empcolor="#009b00"
       empopacity="0.23529412"
       color="#009b00"
       opacity="0.09803922" />
    <inkscape:grid
       type="xygrid"
       id="grid5383"
       empspacing="2"
       visible="true"
       enabled="true"
       snapvisiblegridlinesonly="true"
       spacingx="180px"
       spacingy="180px"
       color="#009b9b"
       opacity="0.07843137"
       empcolor="#009b9b"
       empopacity="0.15686275" />
    <inkscape:grid
       type="xygrid"
       id="grid3019"
       empspacing="5"
       visible="true"
       enabled="true"
       snapvisiblegridlinesonly="true"
       color="#9b0000"
       opacity="0.09803922"
       empcolor="#0000ff"
       empopacity="0"
       dotted="true"
       spacingx="140px"
       spacingy="140px" />
    <inkscape:grid
       type="xygrid"
       id="grid3013"
       empspacing="5"
       visible="true"
       enabled="false"
       snapvisiblegridlinesonly="true"
       spacingx="210px"
       spacingy="210px"
       color="#ff00ff"
       opacity="0.29411765" />
  </sodipodi:namedview>
  <g
     style="fill:#000000;stroke:none"
     transform="matrix(3.2013742,0,0,-3.2013742,4033.2912,23180.305)"
     id="g5310">
    <path
       style="stroke:none"
       d="M 0 0 L 0 2520 L 2520 2520 L 2520 0 L 0 0 z M 280 280 L 2240 280 L 2240 2240 L 280 2240 L 280 280 z M 1158.4688 402.40625 L 1158.4688 493.9375 C 1158.4688 565.06813 1157.5762 585.46875 1154.875 585.46875 C 1152.7741 585.46875 1135.9206 586.96812 1117.3125 588.46875 C 1075.2946 592.07028 1027.5877 603.17583 997.875 615.78125 C 994.57354 616.9818 983.17959 621.77937 972.375 626.28125 C 881.13583 663.49736 781.78234 752.6509 735.5625 838.1875 C 725.65825 857.09563 711.55728 888.87688 709.15625 898.78125 C 698.65174 941.69966 696.87893 976.26646 702.28125 1025.1875 C 713.38601 1122.1291 756.31283 1202.5562 828.34375 1260.7812 C 851.45367 1279.3893 853.252 1280.541 863.15625 1286.8438 C 871.55986 1292.246 936.33924 1324.6732 946.84375 1328.875 C 954.94729 1331.8763 977.77334 1339.7122 981.375 1340.3125 C 987.07743 1341.8131 1011.4036 1348.3803 1017.4062 1350.7812 C 1035.1138 1356.7839 1093.6538 1367.2786 1142.875 1373.2812 L 1158.4688 1375.4062 L 1158.4688 1530 L 1158.4688 1684.8438 L 1133.8438 1683.0625 C 1111.034 1681.5619 1074.4095 1674.0331 1066.9062 1669.5312 C 1065.4056 1668.3307 1063.3066 1667.4251 1062.4062 1667.125 C 1041.0972 1662.9232 981.70833 1618.2004 976.90625 1602.5938 C 975.70583 1599.2923 973.88805 1596.9062 972.6875 1596.9062 C 969.08597 1596.9062 950.15889 1556.9835 944.15625 1536.875 L 939.0625 1520.375 L 816.03125 1521.2812 L 692.96875 1521.8438 L 694.78125 1540.7812 C 699.88344 1590.3026 714.29762 1643.7189 734.40625 1686.9375 C 742.2096 1703.1444 764.07294 1742.4661 768.875 1748.4688 C 770.07551 1749.9694 777.01565 1758.9649 784.21875 1767.9688 C 805.82803 1795.8806 844.7964 1832.5008 882.3125 1859.8125 C 900.32022 1873.0182 955.59827 1906.0625 959.5 1906.0625 C 961.00063 1906.0625 966.98507 1908.7487 972.6875 1911.75 C 982.89194 1917.1524 1022.7938 1930.6465 1051.9062 1938.75 C 1070.5143 1943.8522 1108.3074 1948.0625 1134.7188 1948.0625 L 1158.4688 1948.0625 L 1158.4688 2045.5938 L 1158.4688 2143.1562 L 1271.0312 2143.1562 L 1383.5625 2143.1562 L 1384.1562 2043.4688 L 1385.0625 1943.5625 L 1410.5625 1941.75 C 1446.878 1939.0488 1512.9135 1924.3736 1539.625 1912.9688 C 1542.0261 1912.0683 1545.0182 1910.8438 1546.2188 1910.8438 C 1547.1191 1910.5437 1549.2369 1909.6381 1550.4375 1908.4375 C 1551.6381 1906.9369 1554.3366 1906.0625 1556.4375 1906.0625 C 1561.2396 1906.0625 1605.0451 1885.0187 1631.1562 1870.3125 C 1642.8613 1863.7096 1654.2553 1857.1068 1656.6562 1855.9062 C 1659.0572 1854.7058 1662.6803 1852.3131 1664.7812 1850.8125 C 1666.882 1849.0117 1675.5964 1842.7338 1684 1837.0312 C 1705.0089 1822.9252 1750.319 1782.6822 1764.125 1765.875 C 1770.1276 1758.6719 1778.2233 1748.7642 1782.125 1744.5625 C 1792.9296 1731.9571 1821.7462 1684.5462 1830.75 1664.4375 C 1861.9635 1594.8076 1870.6444 1515.5725 1854.4375 1448.3438 C 1851.136 1435.1381 1848.1817 1421.6451 1847.2812 1418.3438 C 1845.1805 1409.9401 1814.2592 1347.7662 1807.6562 1339.0625 C 1749.7315 1262.8297 1686.9956 1216.0583 1595.1562 1181.8438 C 1553.7385 1166.5372 1490.7127 1153.3509 1446.5938 1151.25 C 1429.1862 1150.3497 1407.8599 1148.8066 1399.1562 1147.9062 L 1383.5625 1146.4375 L 1384.1562 995.75 L 1385.0625 845.09375 L 1402.4688 845.6875 C 1448.6885 847.18813 1512.6199 873.91291 1539.0312 902.125 C 1558.8397 923.4341 1569.9303 946.54569 1572.0312 971.15625 L 1573.5312 990.65625 L 1702.875 990.65625 L 1832.5625 990.65625 L 1831.3438 979.25 C 1830.1432 965.14396 1822.653 933.9341 1815.75 912.625 C 1773.4319 783.56958 1683.4024 675.19702 1575.6562 623.875 C 1535.7391 604.96687 1524.9022 600.48945 1505.0938 595.6875 C 1503.5931 595.08722 1491.9179 592.08257 1479.3125 588.78125 C 1466.7071 585.47979 1442.3885 581.26958 1425.2812 579.46875 C 1408.174 577.66792 1391.6387 575.5566 1388.9375 574.65625 C 1383.8353 573.15562 1383.5625 566.25862 1383.5625 487.625 L 1383.5625 402.40625 L 1271.0312 402.40625 L 1158.4688 402.40625 z M 1158.4688 834.5625 L 1158.4688 969.625 L 1158.4688 1104.7188 L 1141.3438 1104.7188 C 1125.7369 1104.4187 1116.1347 1102.8835 1093.625 1097.7812 C 1084.6211 1095.6805 1046.2069 1080.1008 1044.4062 1078 C 1043.5058 1077.0995 1039.0084 1074.0574 1033.9062 1071.6562 C 1017.6993 1063.2528 988.56701 1033.2707 978.0625 1014.0625 C 968.45847 996.35493 967.875 993.36784 967.875 966.65625 C 967.875 945.94743 969.67333 933.31174 973.875 920.40625 C 990.68222 870.28479 1054.5792 836.10667 1132.3125 834.90625 L 1158.4688 834.5625 z M 1396.1875 1411.625 C 1399.5818 1411.6508 1403.5107 1411.8065 1407.5625 1412.0312 C 1418.3671 1412.9317 1437.8568 1414.412 1451.0625 1415.3125 C 1516.7908 1420.4147 1570.8406 1450.7685 1592.75 1495.1875 C 1606.556 1523.0995 1607.162 1579.5014 1593.6562 1605.3125 C 1569.6458 1651.2322 1494.9052 1683.056 1409.9688 1683.6562 L 1383.5625 1683.9375 L 1383.5625 1549.5 C 1383.5625 1475.3681 1384.4557 1413.8254 1385.6562 1412.625 C 1386.2565 1412.0247 1389.0233 1411.7312 1393 1411.6562 C 1393.9942 1411.6374 1395.0561 1411.6164 1396.1875 1411.625 z "
       transform="matrix(3.3319025,0,0,-3.3319025,-1259.8625,7240.7359)"
       id="path5312" />
  </g>
</svg>
