<?xml version="1.0" encoding="UTF-8" standalone="no"?>
<svg
   xmlns:dc="http://purl.org/dc/elements/1.1/"
   xmlns:cc="http://creativecommons.org/ns#"
   xmlns:rdf="http://www.w3.org/1999/02/22-rdf-syntax-ns#"
   xmlns:svg="http://www.w3.org/2000/svg"
   xmlns="http://www.w3.org/2000/svg"
   xmlns:sodipodi="http://sodipodi.sourceforge.net/DTD/sodipodi-0.dtd"
   xmlns:inkscape="http://www.inkscape.org/namespaces/inkscape"
   width="2520"
   height="2520"
   viewBox="0 0 26880 26880"
   id="svg3064"
   version="1.1"
   inkscape:version="0.48.4 r9939"
   sodipodi:docname="bicycle.svg">
  <metadata
     id="metadata3072">
    <rdf:RDF>
      <cc:Work
         rdf:about="">
        <dc:format>image/svg+xml</dc:format>
        <dc:type
           rdf:resource="http://purl.org/dc/dcmitype/StillImage" />
        <dc:title></dc:title>
      </cc:Work>
    </rdf:RDF>
  </metadata>
  <defs
     id="defs3070">
    <marker
       inkscape:stockid="Arrow2Send"
       orient="auto"
       refY="0.0"
       refX="0.0"
       id="Arrow2Send"
       style="overflow:visible;">
      <path
         id="path6226"
         style="fill-rule:evenodd;stroke-width:0.62500000;stroke-linejoin:round;"
         d="M 8.7185878,4.0337352 L -2.2072895,0.016013256 L 8.7185884,-4.0017078 C 6.9730900,-1.6296469 6.9831476,1.6157441 8.7185878,4.0337352 z "
         transform="scale(0.3) rotate(180) translate(-2.3,0)" />
    </marker>
  </defs>
  <sodipodi:namedview
     pagecolor="#ffffff"
     bordercolor="#666666"
     borderopacity="1"
     objecttolerance="6"
     gridtolerance="6"
     guidetolerance="6"
     inkscape:pageopacity="0"
     inkscape:pageshadow="2"
     inkscape:window-width="1400"
     inkscape:window-height="997"
     id="namedview3068"
     showgrid="true"
     inkscape:snap-grids="true"
     inkscape:zoom="0.24"
     inkscape:cx="980.67083"
     inkscape:cy="1189.4635"
     inkscape:window-x="0"
     inkscape:window-y="0"
     inkscape:window-maximized="1"
     inkscape:current-layer="svg3064"
     showguides="true"
     inkscape:guide-bbox="true"
     inkscape:snap-to-guides="false"
     inkscape:object-paths="true">
    <inkscape:grid
       type="xygrid"
       id="grid3074"
       empspacing="2"
       visible="true"
       enabled="true"
       snapvisiblegridlinesonly="true"
       dotted="false"
       spacingx="315px"
       spacingy="315px"
       color="#00009b"
       opacity="0.1372549"
       empcolor="#00009b"
       empopacity="0.29411765" />
    <inkscape:grid
       type="xygrid"
       id="grid5379"
       empspacing="3"
       visible="true"
       enabled="true"
       snapvisiblegridlinesonly="true"
       color="#9b0000"
       opacity="0.11764706"
       empcolor="#9b0000"
       empopacity="0.39215686"
       spacingx="280px"
       spacingy="280px" />
    <inkscape:grid
       type="xygrid"
       id="grid5381"
       empspacing="2"
       visible="true"
       enabled="true"
       snapvisiblegridlinesonly="true"
       spacingx="252px"
       spacingy="252px"
       empcolor="#009b00"
       empopacity="0.23529412"
       color="#009b00"
       opacity="0.09803922" />
    <inkscape:grid
       type="xygrid"
       id="grid5383"
       empspacing="2"
       visible="true"
       enabled="true"
       snapvisiblegridlinesonly="true"
       spacingx="180px"
       spacingy="180px"
       color="#009b9b"
       opacity="0.07843137"
       empcolor="#009b9b"
       empopacity="0.15686275" />
    <inkscape:grid
       type="xygrid"
       id="grid3019"
       empspacing="5"
       visible="true"
       enabled="true"
       snapvisiblegridlinesonly="true"
       color="#9b0000"
       opacity="0.09803922"
       empcolor="#0000ff"
       empopacity="0"
       dotted="true"
       spacingx="140px"
       spacingy="140px" />
    <inkscape:grid
       type="xygrid"
       id="grid3013"
       empspacing="5"
       visible="true"
       enabled="false"
       snapvisiblegridlinesonly="true"
       spacingx="210px"
       spacingy="210px"
       color="#ff00ff"
       opacity="0.29411765" />
  </sodipodi:namedview>
  <g
     id="g2319"
     transform="matrix(10.666667,0,0,10.666667,20899.107,12370.398)"
     style="stroke:#000000;stroke-opacity:1;fill:#000000;fill-opacity:1">
    <path
       inkscape:connector-curvature="0"
       id="path2323"
       style="fill:#000000;stroke:#000000;stroke-opacity:1;fill-opacity:1"
       d="" />
  </g>
  <g
     id="g2325"
     transform="matrix(10.666667,0,0,10.666667,20899.107,12370.398)"
     style="stroke:#000000;stroke-opacity:1;fill:#000000;fill-opacity:1">
    <path
       inkscape:connector-curvature="0"
       id="path2329"
       style="fill:#000000;stroke:#000000;stroke-opacity:1;fill-opacity:1"
       d="" />
  </g>
  <path
     style="font-size:12px;font-style:normal;font-variant:normal;font-weight:normal;font-stretch:normal;text-indent:0;text-align:start;text-decoration:none;line-height:normal;letter-spacing:normal;word-spacing:normal;text-transform:none;direction:ltr;block-progression:tb;writing-mode:lr-tb;text-anchor:start;baseline-shift:baseline;color:#000000;fill:#000000;fill-opacity:1;stroke:none;stroke-width:26;marker:none;visibility:visible;display:inline;overflow:visible;enable-background:accumulate;font-family:Sans;-inkscape-font-specification:Sans"
     d="m 16571.371,5420.9303 4.944,1209.6347 1893.341,3.2607 c 225.94,0.5259 343.016,318.5599 -98.612,442.1109 -193.478,53.5658 -407.783,283.165 -479.909,568.6599 -72.131,285.5001 -18.412,571.1421 87.109,834.9108 24.066,60.1663 72.663,250.1104 141.339,507.8467 l -8595.6328,42.737 -507.852,-1242.5052 c 546.3288,-124.2557 1882.2118,-441.6534 2069.1958,-619.6117 216.25,-196.939 0,-493.0576 -167.634,-493.0576 l -4485.1837,0 c 55.4801,990.8012 831.424,1205.6008 1250.7255,1270.4477 l 494.6985,1212.9164 c -53.6815,44.5252 -98.6063,99.5635 -131.4821,161.0708 L 6540.9489,12113.345 c -543.8622,-219.271 -1136.315,-340.213 -1756.9258,-340.213 -2602.4133,0 -4726.778553,2122.725 -4726.778553,4725.139 0,2602.391 2124.365253,4726.778 4726.778553,4726.778 2446.9698,0 4469.1162,-1877.248 4702.1234,-4264.951 l 1393.7105,0 c 101.672,145.872 243.194,267.519 412.527,351.714 l -555.518,1293.453 -849.6993,8.22 c -176.6331,-4.734 -340.3176,156.247 -338.5558,332.938 1.7882,176.691 168.6231,334.359 345.1299,326.118 l 1906.4892,-18.081 c 176.707,5.301 340.975,-155.307 339.65,-332.087 -1.315,-176.781 -167.976,-334.911 -344.584,-326.964 l -542.356,4.943 499.631,-1161.97 c 32.517,2.472 65.362,3.262 98.611,3.262 631.293,0 1143.894,-451.537 1143.894,-1009.12 0,-34.853 -2.683,-69.606 -6.574,-103.545 l 0,-1.63 6064.604,-4113.747 c 50.977,176.586 101.935,351.741 151.203,522.642 -1078.941,867.282 -1771.715,2196.648 -1771.715,3683.143 0,2602.392 2122.74,4726.777 4725.133,4726.777 2602.393,0 4726.779,-2124.385 4726.779,-4726.777 0,-2602.414 -2124.386,-4725.138 -4726.779,-4725.138 -638.687,0 -1247.975,128.494 -1804.591,359.934 -56.91,-196.876 -102.819,-352.551 -161.065,-553.871 -219.128,-757.379 -441.47,-1526.3899 -629.468,-2154.6589 -185.226,-618.9543 -356.369,-1001.0831 -412.527,-1275.3757 -43.768,-213.7898 225.765,-194.4408 511.139,-432.2498 215.504,-179.5887 399.316,-483.4069 455.253,-792.1792 46.629,-271.5473 -11.776,-544.1094 -138.056,-767.5237 -438.713,-670.2376 -866.897,-657.4102 -1433.154,-657.4102 z m 1855.538,4644.5977 c 98.753,333.343 201.924,683.259 310.623,1056.789 l -4601.871,3121.058 c 113.606,-80.509 166.079,-237.777 123.573,-370.376 -42.5,-132.591 -176.623,-230.051 -315.862,-229.513 l -1908.131,18.075 c -176.748,-4.891 -340.67,156.132 -338.908,332.944 1.787,176.807 168.864,334.543 345.483,326.113 l 537.429,-4.945 -460.187,1071.579 -2156.305,-5279.003 z m -9739.5316,340.212 2228.6206,5449.93 c -6.533,8.253 -13.464,16.225 -19.723,24.656 l -1428.2258,0 C 9291.3637,14540.051 8549.8209,13373.384 7490.8909,12629.427 z m 13470.3336,2632.928 c 1875.613,0 3382.375,1505.106 3382.375,3380.734 0,1875.607 -1506.762,3382.371 -3382.375,3382.371 -1875.612,0 -3380.733,-1506.764 -3380.733,-3382.371 0,-863.195 319.453,-1647.764 846.417,-2243.415 54.944,185.332 112.98,378.484 154.492,514.427 59.798,195.802 89.144,306.179 139.702,430.598 l 21.363,50.952 31.23,47.66 c 21.957,35.147 236.783,641.899 820.116,1142.252 l 4.944,3.313 3.314,4.944 c 419.222,347.239 780.739,471.506 1009.119,544.01 240.543,73.95 570.379,36.82 729.725,-210.372 126.46,-181.381 14.289,-549.211 -225.161,-723.15 -94.272,-65.894 -364.872,-281.608 -698.495,-573.589 -297.571,-265.672 -322.236,-468.555 -499.632,-780.677 4.523,10.087 -44.625,-131.745 -100.257,-313.916 -57.095,-186.967 -131.803,-437.34 -216.946,-728.079 -18.939,-64.667 -47.387,-163.191 -67.387,-231.739 433.381,-200.842 916.75,-313.91 1428.226,-313.91 z m -17373.7038,78.889 c 391.9689,0 766.6507,66.204 1115.9511,187.362 l -1539.9859,2858.094 c -88.7714,163.846 -84.3063,374.344 11.3233,534.279 95.6347,159.94 278.9575,263.49 465.3044,262.828 l 3295.2656,0 c -223.0829,1655.28 -1628.7625,2920.541 -3347.8585,2920.541 -1875.628,0 -3382.3805,-1506.762 -3382.3805,-3382.37 0,-1875.628 1506.7525,-3380.734 3382.3805,-3380.734 z m 2065.9087,700.143 c 646.2658,497.747 1104.0862,1224.807 1257.2943,2062.626 l -2366.6764,0 z m 7256.1671,445.397 -1397.001,948.311 386.23,-900.651 852.993,-6.575 c 54.912,-0.527 109.692,-14.563 157.778,-41.085 z"
     id="path596"
     inkscape:connector-curvature="0"
     sodipodi:nodetypes="ccccccccccscccccssscccccsccscccssccccsssscsccsccsccccsccscccccccccccssssccccccccccccccscssccsccsssccccccccc" />
</svg>
