<?xml version="1.0" encoding="UTF-8" standalone="no"?>
<svg
   xmlns:dc="http://purl.org/dc/elements/1.1/"
   xmlns:cc="http://creativecommons.org/ns#"
   xmlns:rdf="http://www.w3.org/1999/02/22-rdf-syntax-ns#"
   xmlns:svg="http://www.w3.org/2000/svg"
   xmlns="http://www.w3.org/2000/svg"
   xmlns:sodipodi="http://sodipodi.sourceforge.net/DTD/sodipodi-0.dtd"
   xmlns:inkscape="http://www.inkscape.org/namespaces/inkscape"
   width="2520"
   height="2520"
   viewBox="0 0 26880 26880"
   id="svg3064"
   version="1.1"
   inkscape:version="0.48.4 r9939"
   sodipodi:docname="studio.svg">
  <metadata
     id="metadata3072">
    <rdf:RDF>
      <cc:Work
         rdf:about="">
        <dc:format>image/svg+xml</dc:format>
        <dc:type
           rdf:resource="http://purl.org/dc/dcmitype/StillImage" />
        <dc:title></dc:title>
      </cc:Work>
    </rdf:RDF>
  </metadata>
  <defs
     id="defs3070" />
  <sodipodi:namedview
     pagecolor="#ffffff"
     bordercolor="#666666"
     borderopacity="1"
     objecttolerance="6"
     gridtolerance="6"
     guidetolerance="6"
     inkscape:pageopacity="0"
     inkscape:pageshadow="2"
     inkscape:window-width="1600"
     inkscape:window-height="1147"
     id="namedview3068"
     showgrid="true"
     inkscape:snap-grids="true"
     inkscape:zoom="0.1767767"
     inkscape:cx="89.520554"
     inkscape:cy="39.980038"
     inkscape:window-x="0"
     inkscape:window-y="0"
     inkscape:window-maximized="1"
     inkscape:current-layer="svg3064"
     showguides="true"
     inkscape:guide-bbox="true"
     inkscape:snap-to-guides="false"
     inkscape:object-paths="true">
    <inkscape:grid
       type="xygrid"
       id="grid3074"
       empspacing="2"
       visible="true"
       enabled="true"
       snapvisiblegridlinesonly="true"
       dotted="false"
       spacingx="315px"
       spacingy="315px"
       color="#00009b"
       opacity="0.1372549"
       empcolor="#00009b"
       empopacity="0.29411765" />
    <inkscape:grid
       type="xygrid"
       id="grid5379"
       empspacing="3"
       visible="true"
       enabled="true"
       snapvisiblegridlinesonly="true"
       color="#9b0000"
       opacity="0.11764706"
       empcolor="#9b0000"
       empopacity="0.39215686"
       spacingx="280px"
       spacingy="280px" />
    <inkscape:grid
       type="xygrid"
       id="grid5381"
       empspacing="2"
       visible="true"
       enabled="true"
       snapvisiblegridlinesonly="true"
       spacingx="252px"
       spacingy="252px"
       empcolor="#009b00"
       empopacity="0.23529412"
       color="#009b00"
       opacity="0.09803922" />
    <inkscape:grid
       type="xygrid"
       id="grid5383"
       empspacing="2"
       visible="true"
       enabled="true"
       snapvisiblegridlinesonly="true"
       spacingx="180px"
       spacingy="180px"
       color="#009b9b"
       opacity="0.07843137"
       empcolor="#009b9b"
       empopacity="0.15686275" />
    <inkscape:grid
       type="xygrid"
       id="grid3019"
       empspacing="5"
       visible="true"
       enabled="true"
       snapvisiblegridlinesonly="true"
       color="#9b0000"
       opacity="0.09803922"
       empcolor="#0000ff"
       empopacity="0"
       dotted="true"
       spacingx="140px"
       spacingy="140px" />
    <inkscape:grid
       type="xygrid"
       id="grid3013"
       empspacing="5"
       visible="true"
       enabled="false"
       snapvisiblegridlinesonly="true"
       spacingx="210px"
       spacingy="210px"
       color="#ff00ff"
       opacity="0.29411765" />
  </sodipodi:namedview>
  <g
     style="font-size:9526.18164062px;font-style:normal;font-variant:normal;font-weight:normal;font-stretch:normal;line-height:125%;letter-spacing:0px;word-spacing:0px;fill:#ffffff;fill-opacity:1;stroke:none;font-family:Liberation Sans;-inkscape-font-specification:Liberation Sans"
     id="text7810"
     transform="translate(-120.67956,2956.6492)" />
  <path
     style="fill:#000000;fill-opacity:1;fill-rule:nonzero;stroke:none"
     d="M 1248.7812 277.1875 C 1016.8216 277.13018 828.74482 465.13415 828.6875 697.09375 C 828.63018 929.05334 1016.6341 1117.1302 1248.5938 1117.1875 C 1480.5534 1117.2448 1668.6305 929.24085 1668.6875 697.28125 L 1668.6875 697.21875 C 1668.7008 465.29027 1480.7098 277.24481 1248.7812 277.1875 z M 685.875 996.9375 C 413.38238 996.9375 190.875 1219.4449 190.875 1491.9375 C 190.875 1764.4301 413.38238 1986.9375 685.875 1986.9375 C 958.3676 1986.9375 1180.875 1764.4301 1180.875 1491.9375 C 1180.875 1219.4449 958.3676 996.9375 685.875 996.9375 z M 1861.0938 1012.125 C 1588.6011 1012.125 1366.0938 1234.6324 1366.0938 1507.125 C 1366.0938 1779.6176 1588.6011 2002.125 1861.0938 2002.125 C 2133.5864 2002.125 2356.0938 1779.6176 2356.0938 1507.125 C 2356.0938 1234.6324 2133.5864 1012.125 1861.0938 1012.125 z M 685.875 1146.9375 C 877.30161 1146.9375 1030.875 1300.5109 1030.875 1491.9375 C 1030.875 1683.3641 877.30161 1836.9375 685.875 1836.9375 C 494.44839 1836.9375 340.875 1683.3641 340.875 1491.9375 C 340.875 1300.5109 494.44839 1146.9375 685.875 1146.9375 z M 1861.0938 1162.125 C 2052.5204 1162.125 2206.0938 1315.6985 2206.0938 1507.125 C 2206.0938 1698.5516 2052.5204 1852.125 1861.0938 1852.125 C 1669.6671 1852.125 1516.0938 1698.5516 1516.0938 1507.125 C 1516.0938 1315.6985 1669.6671 1162.125 1861.0938 1162.125 z M 685.875 1359.7188 C 612.84893 1359.7188 553.65625 1418.9115 553.65625 1491.9375 C 553.65625 1564.9635 612.84893 1624.1562 685.875 1624.1562 C 758.90108 1624.1562 818.09375 1564.9635 818.09375 1491.9375 C 818.09375 1418.9115 758.90107 1359.7188 685.875 1359.7188 z M 1861.0938 1374.9062 C 1788.0677 1374.9062 1728.875 1434.099 1728.875 1507.125 C 1728.875 1580.151 1788.0677 1639.3438 1861.0938 1639.3438 C 1934.1198 1639.3438 1993.3125 1580.151 1993.3125 1507.125 C 1993.3125 1434.099 1934.1198 1374.9062 1861.0938 1374.9062 z "
     transform="scale(10.666667,10.666667)"
     id="path8634" />
</svg>
