<?xml version="1.0" encoding="UTF-8" standalone="no"?>
<svg
   xmlns:dc="http://purl.org/dc/elements/1.1/"
   xmlns:cc="http://creativecommons.org/ns#"
   xmlns:rdf="http://www.w3.org/1999/02/22-rdf-syntax-ns#"
   xmlns:svg="http://www.w3.org/2000/svg"
   xmlns="http://www.w3.org/2000/svg"
   xmlns:sodipodi="http://sodipodi.sourceforge.net/DTD/sodipodi-0.dtd"
   xmlns:inkscape="http://www.inkscape.org/namespaces/inkscape"
   width="2520"
   height="2520"
   viewBox="0 0 26880 26880"
   id="svg3064"
   version="1.1"
   inkscape:version="0.48.3.1 r9886"
   sodipodi:docname="bus_stop.svg">
  <metadata
     id="metadata3072">
    <rdf:RDF>
      <cc:Work
         rdf:about="">
        <dc:format>image/svg+xml</dc:format>
        <dc:type
           rdf:resource="http://purl.org/dc/dcmitype/StillImage" />
        <dc:title />
      </cc:Work>
    </rdf:RDF>
  </metadata>
  <defs
     id="defs3070">
    <marker
       inkscape:stockid="Arrow2Send"
       orient="auto"
       refY="0.0"
       refX="0.0"
       id="Arrow2Send"
       style="overflow:visible;">
      <path
         id="path4937"
         style="fill-rule:evenodd;stroke-width:0.62500000;stroke-linejoin:round;"
         d="M 8.7185878,4.0337352 L -2.2072895,0.016013256 L 8.7185884,-4.0017078 C 6.9730900,-1.6296469 6.9831476,1.6157441 8.7185878,4.0337352 z "
         transform="scale(0.3) rotate(180) translate(-2.3,0)" />
    </marker>
    <marker
       inkscape:stockid="Tail"
       orient="auto"
       refY="0.0"
       refX="0.0"
       id="Tail"
       style="overflow:visible">
      <g
         id="g4940"
         transform="scale(-1.2)">
        <path
           id="path4942"
           d="M -3.8048674,-3.9585227 L 0.54352094,0"
           style="fill:none;fill-rule:evenodd;stroke:#000000;stroke-width:0.8;stroke-linecap:round" />
        <path
           id="path4944"
           d="M -1.2866832,-3.9585227 L 3.0617053,0"
           style="fill:none;fill-rule:evenodd;stroke:#000000;stroke-width:0.8;stroke-linecap:round" />
        <path
           id="path4946"
           d="M 1.3053582,-3.9585227 L 5.6537466,0"
           style="fill:none;fill-rule:evenodd;stroke:#000000;stroke-width:0.8;stroke-linecap:round" />
        <path
           id="path4948"
           d="M -3.8048674,4.1775838 L 0.54352094,0.21974226"
           style="fill:none;fill-rule:evenodd;stroke:#000000;stroke-width:0.8;stroke-linecap:round" />
        <path
           id="path4950"
           d="M -1.2866832,4.1775838 L 3.0617053,0.21974226"
           style="fill:none;fill-rule:evenodd;stroke:#000000;stroke-width:0.8;stroke-linecap:round" />
        <path
           id="path4952"
           d="M 1.3053582,4.1775838 L 5.6537466,0.21974226"
           style="fill:none;fill-rule:evenodd;stroke:#000000;stroke-width:0.8;stroke-linecap:round" />
      </g>
    </marker>
    <marker
       inkscape:stockid="Arrow1Lstart"
       orient="auto"
       refY="0.0"
       refX="0.0"
       id="Arrow1Lstart"
       style="overflow:visible">
      <path
         id="path4904"
         d="M 0.0,0.0 L 5.0,-5.0 L -12.5,0.0 L 5.0,5.0 L 0.0,0.0 z "
         style="fill-rule:evenodd;stroke:#000000;stroke-width:1.0pt"
         transform="scale(0.8) translate(12.5,0)" />
    </marker>
    <clipPath
       id="clip0">
      <rect
         y="0"
         x="0"
         width="233"
         height="233"
         id="rect4533" />
    </clipPath>
  </defs>
  <sodipodi:namedview
     pagecolor="#ffffff"
     bordercolor="#666666"
     borderopacity="1"
     objecttolerance="6"
     gridtolerance="6"
     guidetolerance="6"
     inkscape:pageopacity="0"
     inkscape:pageshadow="2"
     inkscape:window-width="1600"
     inkscape:window-height="1147"
     id="namedview3068"
     showgrid="true"
     inkscape:snap-grids="false"
     inkscape:zoom="0.16"
     inkscape:cx="2129.7719"
     inkscape:cy="1895.6184"
     inkscape:window-x="0"
     inkscape:window-y="0"
     inkscape:window-maximized="1"
     inkscape:current-layer="surface0"
     showguides="true"
     inkscape:guide-bbox="true"
     inkscape:snap-to-guides="false"
     inkscape:object-paths="true">
    <inkscape:grid
       type="xygrid"
       id="grid3074"
       empspacing="2"
       visible="true"
       enabled="true"
       snapvisiblegridlinesonly="true"
       dotted="false"
       spacingx="315px"
       spacingy="315px"
       color="#00009b"
       opacity="0.1372549"
       empcolor="#00009b"
       empopacity="0.29411765" />
    <inkscape:grid
       type="xygrid"
       id="grid5379"
       empspacing="3"
       visible="true"
       enabled="true"
       snapvisiblegridlinesonly="true"
       color="#9b0000"
       opacity="0.11764706"
       empcolor="#9b0000"
       empopacity="0.39215686"
       spacingx="280px"
       spacingy="280px" />
    <inkscape:grid
       type="xygrid"
       id="grid5381"
       empspacing="2"
       visible="true"
       enabled="true"
       snapvisiblegridlinesonly="true"
       spacingx="252px"
       spacingy="252px"
       empcolor="#009b00"
       empopacity="0.23529412"
       color="#009b00"
       opacity="0.09803922" />
    <inkscape:grid
       type="xygrid"
       id="grid5383"
       empspacing="2"
       visible="true"
       enabled="true"
       snapvisiblegridlinesonly="true"
       spacingx="180px"
       spacingy="180px"
       color="#009b9b"
       opacity="0.07843137"
       empcolor="#009b9b"
       empopacity="0.15686275" />
    <inkscape:grid
       type="xygrid"
       id="grid3019"
       empspacing="5"
       visible="true"
       enabled="true"
       snapvisiblegridlinesonly="true"
       color="#9b0000"
       opacity="0.09803922"
       empcolor="#0000ff"
       empopacity="0"
       dotted="true"
       spacingx="140px"
       spacingy="140px" />
    <inkscape:grid
       type="xygrid"
       id="grid3013"
       empspacing="5"
       visible="true"
       enabled="false"
       snapvisiblegridlinesonly="true"
       spacingx="210px"
       spacingy="210px"
       color="#ff00ff"
       opacity="0.29411765" />
  </sodipodi:namedview>
  <g
     transform="matrix(128.05184,0,0,128.05184,-2243.5294,-2187.0589)"
     id="surface0"
     clip-path="url(#clip0)">
    <path
       style="fill:#000000;stroke:none"
       d="M 1204.6562 277.46875 C 1206.9185 277.46875 1209.1849 277.48319 1211.4688 277.5 C 1034.9003 279.04427 796.08615 328.78416 696.34375 370.34375 C 595.01763 412.56302 527.45098 454.79798 506.34375 560.34375 L 430.34375 1145.4688 L 430.34375 1951.7188 L 561.21875 1951.7188 L 561.21875 2078.1562 C 561.21875 2232.3207 786.84375 2232.3207 786.84375 2078.1562 L 786.84375 1951.7188 L 1203.3125 1951.7188 L 1204.6562 1951.7188 L 1637.6562 1951.7188 L 1637.6562 2078.1562 C 1637.6562 2232.3207 1863.25 2232.3207 1863.25 2078.1562 L 1863.25 1951.7188 L 1994.125 1951.7188 L 1994.125 1145.4688 L 1918.1562 560.34375 C 1897.0492 454.79798 1829.482 412.56302 1728.1562 370.34375 C 1628.4133 328.78416 1389.5682 279.04427 1213 277.5 C 1215.2855 277.48319 1217.5796 277.46875 1219.8438 277.46875 L 1204.6562 277.46875 z M 890.53125 425.25 L 1204.6562 425.25 L 1533.9375 425.25 C 1597.2683 425.25 1597.2683 520.21875 1533.9375 520.21875 L 1203.875 520.21875 L 890.53125 520.21875 C 827.20043 520.21875 827.20043 425.25 890.53125 425.25 z M 719.8125 616.125 L 1203.875 616.125 L 1704.6875 616.125 C 1771.5861 616.125 1789.0653 650.12604 1797.1875 701.6875 L 1856.3125 1126.0625 C 1861.8273 1166.7399 1850.0747 1207.125 1793.875 1207.125 L 1204.6562 1207.125 L 630.625 1207.125 C 574.42539 1207.125 562.64157 1166.7399 568.15625 1126.0625 L 627.3125 701.6875 C 635.43477 650.12604 652.91387 616.125 719.8125 616.125 z M 674.125 1482.5312 C 733.88801 1482.5312 782.34375 1530.9869 782.34375 1590.75 C 782.34375 1650.513 733.88801 1698.9688 674.125 1698.9688 C 614.36199 1698.9688 565.90625 1650.513 565.90625 1590.75 C 565.90625 1530.9869 614.36199 1482.5312 674.125 1482.5312 z M 1750.375 1482.5312 C 1810.138 1482.5312 1858.5938 1530.987 1858.5938 1590.75 C 1858.5938 1650.513 1810.138 1698.9688 1750.375 1698.9688 C 1690.612 1698.9688 1642.1562 1650.513 1642.1562 1590.75 C 1642.1562 1530.987 1690.612 1482.5312 1750.375 1482.5312 z "
       transform="matrix(0.0832996,0,0,0.0832996,17.520478,17.07948)"
       id="path2115" />
    <g
       id="g2119"
       transform="matrix(0.36691001,0,0,0.36691001,53.369119,40.19262)">
      <g
         id="g2121">
        <path
           d=""
           id="path2125"
           style="fill:#ffffff;stroke:none"
           inkscape:connector-curvature="0" />
      </g>
      <g
         id="g2127">
        <path
           d=""
           id="path2131"
           style="fill:#ffffff;stroke:none"
           inkscape:connector-curvature="0" />
      </g>
    </g>
  </g>
</svg>
