<?xml version="1.0" encoding="UTF-8" standalone="no"?>
<svg
   xmlns:dc="http://purl.org/dc/elements/1.1/"
   xmlns:cc="http://creativecommons.org/ns#"
   xmlns:rdf="http://www.w3.org/1999/02/22-rdf-syntax-ns#"
   xmlns:svg="http://www.w3.org/2000/svg"
   xmlns="http://www.w3.org/2000/svg"
   xmlns:sodipodi="http://sodipodi.sourceforge.net/DTD/sodipodi-0.dtd"
   xmlns:inkscape="http://www.inkscape.org/namespaces/inkscape"
   width="2520"
   height="2520"
   viewBox="0 0 26880 26880"
   id="svg3064"
   version="1.1"
   inkscape:version="0.48.4 r9939"
   sodipodi:docname="butcher.svg">
  <metadata
     id="metadata3072">
    <rdf:RDF>
      <cc:Work
         rdf:about="">
        <dc:format>image/svg+xml</dc:format>
        <dc:type
           rdf:resource="http://purl.org/dc/dcmitype/StillImage" />
        <dc:title></dc:title>
      </cc:Work>
    </rdf:RDF>
  </metadata>
  <defs
     id="defs3070">
    <inkscape:perspective
       sodipodi:type="inkscape:persp3d"
       inkscape:vp_x="0 : 225.5 : 1"
       inkscape:vp_y="0 : 1000 : 0"
       inkscape:vp_z="301 : 225.5 : 1"
       inkscape:persp3d-origin="150.5 : 150.33333 : 1"
       id="perspective2486" />
    <inkscape:perspective
       id="perspective13"
       inkscape:persp3d-origin="300.5 : 250.33333 : 1"
       inkscape:vp_z="601 : 375.5 : 1"
       inkscape:vp_y="0 : 1000 : 0"
       inkscape:vp_x="0 : 375.5 : 1"
       sodipodi:type="inkscape:persp3d" />
    <inkscape:perspective
       id="perspective9"
       inkscape:persp3d-origin="372.04724 : 350.78739 : 1"
       inkscape:vp_z="744.09448 : 526.18109 : 1"
       inkscape:vp_y="0 : 1000 : 0"
       inkscape:vp_x="0 : 526.18109 : 1"
       sodipodi:type="inkscape:persp3d" />
    <clipPath
       id="clipoutline1"
       clipPathUnits="userSpaceOnUse">
      <path
         inkscape:connector-curvature="0"
         d="m 22.42,17.2 12.96,12.95 -2.5,8.78 -8.78,2.5 -12.96,-12.96 -5.86,5.86 14.89,21.46 17.56,-3.34 61.63,65.62 c 9.44,9.51 22.17,-4.75 13.34,-12.87 L 46.85,42.92 50.86,25.16 28.72,10.89 22.42,17.2 z m 81.06,91.97 c 1.68,-1.68 4.4,-1.68 6.08,0 1.68,1.68 1.68,4.4 0,6.08 -1.68,1.67 -4.4,1.67 -6.08,0 -1.68,-1.68 -1.68,-4.4 0,-6.08 z"
         id="outline1" />
    </clipPath>
  </defs>
  <sodipodi:namedview
     pagecolor="#ffffff"
     bordercolor="#666666"
     borderopacity="1"
     objecttolerance="6"
     gridtolerance="6"
     guidetolerance="6"
     inkscape:pageopacity="0"
     inkscape:pageshadow="2"
     inkscape:window-width="1600"
     inkscape:window-height="1147"
     id="namedview3068"
     showgrid="true"
     inkscape:snap-grids="false"
     inkscape:zoom="0.11313709"
     inkscape:cx="1180.0548"
     inkscape:cy="4075.6741"
     inkscape:window-x="0"
     inkscape:window-y="0"
     inkscape:window-maximized="1"
     inkscape:current-layer="g6443"
     showguides="true"
     inkscape:guide-bbox="true"
     inkscape:snap-to-guides="false">
    <inkscape:grid
       type="xygrid"
       id="grid3074"
       empspacing="2"
       visible="true"
       enabled="true"
       snapvisiblegridlinesonly="true"
       dotted="false"
       spacingx="315px"
       spacingy="315px"
       color="#00009b"
       opacity="0.1372549"
       empcolor="#00009b"
       empopacity="0.29411765" />
    <inkscape:grid
       type="xygrid"
       id="grid5379"
       empspacing="3"
       visible="true"
       enabled="true"
       snapvisiblegridlinesonly="true"
       color="#9b0000"
       opacity="0.11764706"
       empcolor="#9b0000"
       empopacity="0.39215686"
       spacingx="280px"
       spacingy="280px" />
    <inkscape:grid
       type="xygrid"
       id="grid5381"
       empspacing="2"
       visible="true"
       enabled="true"
       snapvisiblegridlinesonly="true"
       spacingx="252px"
       spacingy="252px"
       empcolor="#009b00"
       empopacity="0.23529412"
       color="#009b00"
       opacity="0.09803922" />
    <inkscape:grid
       type="xygrid"
       id="grid5383"
       empspacing="2"
       visible="true"
       enabled="true"
       snapvisiblegridlinesonly="true"
       spacingx="180px"
       spacingy="180px"
       color="#009b9b"
       opacity="0.07843137"
       empcolor="#009b9b"
       empopacity="0.15686275" />
    <inkscape:grid
       type="xygrid"
       id="grid3019"
       empspacing="5"
       visible="true"
       enabled="true"
       snapvisiblegridlinesonly="true"
       color="#9b0000"
       opacity="0.09803922"
       empcolor="#0000ff"
       empopacity="0"
       dotted="true"
       spacingx="140px"
       spacingy="140px" />
    <inkscape:grid
       type="xygrid"
       id="grid3013"
       empspacing="5"
       visible="true"
       enabled="false"
       snapvisiblegridlinesonly="true"
       spacingx="210px"
       spacingy="210px"
       color="#ff00ff"
       opacity="0.29411765" />
  </sodipodi:namedview>
  <g
     id="g4212">
    <text
       sodipodi:linespacing="125%"
       id="text2998"
       y="4924.4893"
       x="9930.1055"
       style="font-size:6048.16699219px;font-style:normal;font-variant:normal;font-weight:normal;font-stretch:normal;line-height:125%;letter-spacing:0px;word-spacing:0px;fill:#000000;fill-opacity:1;stroke:none;font-family:Liberation Sans;-inkscape-font-specification:Sans"
       xml:space="preserve"><tspan
         y="4924.4893"
         x="9930.1055"
         id="tspan3000"
         sodipodi:role="line" /></text>
    <g
       id="g4445"
       transform="matrix(10.666667,0,0,10.666667,-20763.958,4280.9699)">
      <g
         id="g3324"
         transform="matrix(4.8314063,0,0,4.8314063,1656.0154,-384.07686)"
         style="fill:#000000;fill-opacity:1">
        <g
           id="g19987"
           transform="matrix(0.20697907,0,0,0.20697907,303.00686,245.89345)"
           style="fill:#000000;fill-opacity:1;stroke:#000000;stroke-opacity:1">
          <g
             id="g2319"
             transform="matrix(4.0193763,0,0,4.0193763,2426.0211,-1127.3128)"
             style="fill:#000000;fill-opacity:1">
            <path
               inkscape:connector-curvature="0"
               id="path2323"
               style="fill:#000000;fill-opacity:1;stroke:none"
               d="" />
          </g>
          <g
             id="g2325"
             transform="matrix(4.0193763,0,0,4.0193763,2426.0211,-1127.3128)"
             style="fill:#000000;fill-opacity:1">
            <path
               inkscape:connector-curvature="0"
               id="path2329"
               style="fill:#000000;fill-opacity:1;stroke:none"
               d="" />
          </g>
          <g
             transform="matrix(4.0193763,0,0,4.0193763,-439.25405,-1002.0722)"
             id="g13"
             style="fill:#000000;fill-opacity:1" />
          <g
             id="g6443"
             transform="matrix(7.4587621,0,0,7.4587621,-1921.7122,-2158.8568)"
             style="fill:#000000;fill-opacity:1">
            <path
               inkscape:connector-curvature="0"
               sodipodi:nodetypes="ccccssccccccscccczzsssccccccccccccccccccccccccccccccccccccccccccccccccccccczzccssssssssssssssssssssssssssssss"
               style="fill:#000000;fill-opacity:1;stroke:none"
               id="path3"
               d="m 395.74852,160.42106 c -2.65041,-0.018 -5.88168,0.56756 -8.12137,1.88598 -3.34508,1.65746 -7.37778,4.27579 -9.65223,6.456 -3.3476,3.27094 -5.9274,6.84536 -8.46323,9.66016 -1.25409,1.39859 -2.75679,1.53369 -3.5962,2.29772 -0.41469,0.38326 -0.75774,0.65468 -0.94246,0.78537 -0.0314,0.0239 -4.76837,3.3444 -0.0786,0.0394 -4.39837,3.4406 -7.26385,2.98713 -13.32677,9.00561 -0.54534,-0.009 -0.92424,1.3162 -1.4784,1.3162 -21.08458,0.0289 -39.9497,6.147 -57.76459,11.74141 -19.63949,6.2202 -38.39685,13.61155 -57.33264,17.27833 -8.6957,1.70898 -18.501,2.17895 -28.74485,2.98444 -10.23758,0.82936 -20.96206,1.9603 -31.49368,5.65472 -9.36549,3.28475 -17.29623,7.01123 -25.79968,12.33045 -3.72459,2.35237 -6.99992,5.18443 -10.13138,7.50036 -3.04474,2.33101 -5.97265,3.96553 -7.06841,4.20177 l -4.83007,3.22005 c 0,0 -4.35088,3.32482 -6.60809,5.26017 l -9.08811,7.79224 c -9.13335,7.83102 -12.11123,27.64089 -12.106203,38.70404 0,9.5e-4 0,0.009 0,0.0394 0,0.0301 0,0.10178 0,0.15707 0.07917,16.95288 5.578703,32.98558 14.372423,47.24053 8.83394,14.31524 20.97432,26.96612 34.753,37.61962 27.68428,21.23537 62.44639,35.05427 95.26641,35.18496 6.41121,-0.003 12.77434,-0.54034 18.96689,-1.72784 5.79043,-1.06307 10.82221,-3.82228 14.64731,-7.34328 2.40513,-2.20912 6.89249,-4.69656 8.48209,-7.30403 2.7834,-1.26037 2.92443,-3.01144 5.06569,-5.26203 3.16037,-3.27723 5.22937,-6.89405 7.61818,-11.34872 3.94198,-7.44917 8.74472,-15.39531 12.56605,-23.95404 4.35792,-9.87441 5.92521,-20.29073 7.42183,-30.04073 1.4476,-9.74876 2.80757,-18.87171 5.53691,-25.91749 2.78088,-7.29207 7.61221,-13.42809 13.62633,-19.94862 5.96635,-6.51424 13.05958,-13.25185 19.12396,-21.95132 4.72106,-6.85355 10.29349,-12.91634 15.15781,-20.53766 4.27999,-6.65372 7.68996,-12.33375 8.41628,-22.19937 l 10.4623,-6.07178 3.78501,-2.50808 c 1.31692,-1.30186 2.37845,-1.33487 4.0447,-1.86892 2.46295,-0.80296 5.56116,-0.7598 10.51973,-1.17699 4.84045,-0.45364 12.11834,-2.70711 17.95025,-7.41561 2.40512,-1.95653 4.4399,-4.1713 6.00814,-6.68954 1.56071,-2.48683 2.80175,-6.34328 2.78917,-9.50741 0.009,-2.57982 -0.56578,-5.40449 -1.5962,-7.39747 -1.84093,-3.51723 -4.7446,-6.77271 -7.22766,-8.55332 -3.76479,-2.63133 -7.59824,-4.46597 -11.3869,-5.82561 -1.64993,-0.58181 -3.91805,-0.18038 -5.40963,-0.61014 -0.83063,-1.84345 -1.41717,-3.5295 -2.74666,-5.14424 -1.2679,-1.51295 -2.43329,-3.72263 -4.40868,-4.71661 -3.12016,-2.44641 -3.49933,-2.98994 -7.17783,-3.33502 z m -0.81409,12.71503 c 2.97321,-0.20225 5.62799,2.18505 7.53963,9.03185 8.9973,2.02314 33.06569,9.24485 17.51395,21.83352 -9.57032,7.74824 -23.40806,0.6396 -33.30006,10.68116 l -15.78611,8.28574 c -0.009,-0.30033 -0.0242,-0.59782 -0.0393,-0.90319 -3.99098,1.44887 -8.08845,3.20214 -12.21265,3.96617 -0.59311,-4.19706 -1.52396,-8.28137 -2.63101,-12.29118 -3.06863,1.21514 -6.80545,2.28074 -9.8565,2.82737 1.16613,-5.68237 2.46577,-10.03337 5.37984,-14.37243 l 19.51666,-8.36429 c 6.39184,-2.7782 16.27731,-20.17787 23.87551,-20.69472 z m -246.2947,89.65096 c 17.17025,0.0339 35.09259,5.90416 48.77201,11.07384 11.11468,4.22472 20.29857,8.13966 28.66631,13.58704 8.37024,5.43735 15.78014,12.4027 23.36501,22.30475 11.88122,15.52413 24.2415,34.91887 29.25534,55.17285 1.20511,4.91961 2.00021,11.14671 2.00273,17.67101 -0.0164,7.19784 -1.31505,4.32091 -4.18138,10.89925 -2.77459,6.51676 -2.9397,7.1572 -9.47779,12.7451 -4.43107,4.41483 -4.9735,6.40786 -17.90507,6.41036 -30.11706,-0.0503 -63.40738,-13.08314 -89.57242,-33.2215 -26.06703,-20.14464 -45.34745,-47.63887 -45.43415,-77.55613 -0.003,-9.7098 6.67745,-20.35239 11.10379,-24.45501 4.42633,-4.10261 2.43274,-3.04448 6.40394,-5.44574 3.97118,-2.40126 5.56293,-3.36374 7.60086,-4.59602 4.24122,-2.35284 5.17732,-4.29524 9.40082,-4.5898 z m 22.23885,41.84648 c 5.73712,1.07565 4.47086,2.5068 10.28203,4.10593 5.39889,1.48569 10.25878,6.47731 12.1798,9.39947 1.91047,2.90614 3.68058,7.03617 3.73054,11.11155 0.0204,1.6649 -0.35249,4.98108 -1.29588,6.63335 -1.28079,2.24322 -5.97311,4.87488 -8.02505,5.67202 -2.07227,0.80504 -4.89418,2.55546 -6.90978,2.54938 -5.47886,-0.0166 -8.57942,-2.16672 -11.27484,-3.04257 -3.70218,-1.20298 -3.26529,-0.65833 -4.82075,-1.23457 -1.65488,-0.61308 -3.15622,-1.58025 -4.74666,-2.34506 -1.51444,-0.72824 -3.12782,-1.26755 -4.5663,-2.13627 -1.22137,-0.73761 0.0714,0.6819 -3.41018,-2.58708 -3.56121,-3.34383 -6.51492,-8.71766 -6.55634,-12.73888 -0.0239,-2.32215 1.25951,-6.40248 2.57132,-8.02662 1.32204,-1.63677 5.56701,-5.40973 7.35749,-6.29721 3.57902,-1.77403 5.26215,-2.98005 9.52815,-2.18021 0,0 3.97096,0.74451 5.95645,1.11677 z m -3.3505,11.40218 c -2.40511,0.0134 -4.72646,0.38546 -6.55791,0.98173 -1.83913,0.59877 -3.08054,1.44746 -3.45566,1.96344 -0.26072,0.35862 -0.24843,0.44109 -0.27489,0.66758 -0.0364,0.31172 0.30127,1.76773 2.63102,4.04469 2.89054,2.82507 6.80631,4.53717 10.64188,5.81181 2.48054,0.82433 6.98129,2.09671 10.32772,2.08124 1.2742,-0.007 2.33316,-0.17469 2.94517,-0.43195 0.63461,-0.26677 0.78993,-0.46458 0.98173,-0.78538 0.0924,-0.15441 0.13645,-0.32311 0.15707,-0.74611 0.0498,-1.02123 -0.80656,-3.36609 -2.23833,-5.49764 -1.41961,-2.11348 -3.30843,-4.09568 -4.28031,-4.9479 -2.11097,-1.85106 -6.52194,-3.1658 -10.87749,-3.14151 z" />
          </g>
        </g>
      </g>
    </g>
  </g>
</svg>
