<?xml version="1.0" encoding="UTF-8" standalone="no"?>
<svg
   xmlns:dc="http://purl.org/dc/elements/1.1/"
   xmlns:cc="http://creativecommons.org/ns#"
   xmlns:rdf="http://www.w3.org/1999/02/22-rdf-syntax-ns#"
   xmlns:svg="http://www.w3.org/2000/svg"
   xmlns="http://www.w3.org/2000/svg"
   xmlns:sodipodi="http://sodipodi.sourceforge.net/DTD/sodipodi-0.dtd"
   xmlns:inkscape="http://www.inkscape.org/namespaces/inkscape"
   width="2520"
   height="2520"
   viewBox="0 0 26880 26880"
   id="svg3064"
   version="1.1"
   inkscape:version="0.48.4 r9939"
   sodipodi:docname="car_wash.svg">
  <metadata
     id="metadata3072">
    <rdf:RDF>
      <cc:Work
         rdf:about="">
        <dc:format>image/svg+xml</dc:format>
        <dc:type
           rdf:resource="http://purl.org/dc/dcmitype/StillImage" />
        <dc:title></dc:title>
      </cc:Work>
    </rdf:RDF>
  </metadata>
  <defs
     id="defs3070">
    <inkscape:perspective
       sodipodi:type="inkscape:persp3d"
       inkscape:vp_x="0 : 225.5 : 1"
       inkscape:vp_y="0 : 1000 : 0"
       inkscape:vp_z="301 : 225.5 : 1"
       inkscape:persp3d-origin="150.5 : 150.33333 : 1"
       id="perspective2486" />
    <inkscape:perspective
       id="perspective13"
       inkscape:persp3d-origin="300.5 : 250.33333 : 1"
       inkscape:vp_z="601 : 375.5 : 1"
       inkscape:vp_y="0 : 1000 : 0"
       inkscape:vp_x="0 : 375.5 : 1"
       sodipodi:type="inkscape:persp3d" />
    <inkscape:perspective
       id="perspective9"
       inkscape:persp3d-origin="372.04724 : 350.78739 : 1"
       inkscape:vp_z="744.09448 : 526.18109 : 1"
       inkscape:vp_y="0 : 1000 : 0"
       inkscape:vp_x="0 : 526.18109 : 1"
       sodipodi:type="inkscape:persp3d" />
  </defs>
  <sodipodi:namedview
     pagecolor="#ffffff"
     bordercolor="#666666"
     borderopacity="1"
     objecttolerance="6"
     gridtolerance="6"
     guidetolerance="6"
     inkscape:pageopacity="0"
     inkscape:pageshadow="2"
     inkscape:window-width="1600"
     inkscape:window-height="1147"
     id="namedview3068"
     showgrid="true"
     inkscape:snap-grids="true"
     inkscape:zoom="0.17153603"
     inkscape:cx="1570.0862"
     inkscape:cy="1853.9898"
     inkscape:window-x="0"
     inkscape:window-y="0"
     inkscape:window-maximized="1"
     inkscape:current-layer="g3324"
     showguides="true"
     inkscape:guide-bbox="true"
     inkscape:snap-to-guides="false">
    <inkscape:grid
       type="xygrid"
       id="grid3074"
       empspacing="2"
       visible="true"
       enabled="true"
       snapvisiblegridlinesonly="true"
       dotted="false"
       spacingx="315px"
       spacingy="315px"
       color="#00009b"
       opacity="0.1372549"
       empcolor="#00009b"
       empopacity="0.29411765" />
    <inkscape:grid
       type="xygrid"
       id="grid5379"
       empspacing="3"
       visible="true"
       enabled="true"
       snapvisiblegridlinesonly="true"
       color="#9b0000"
       opacity="0.11764706"
       empcolor="#9b0000"
       empopacity="0.39215686"
       spacingx="280px"
       spacingy="280px" />
    <inkscape:grid
       type="xygrid"
       id="grid5381"
       empspacing="2"
       visible="true"
       enabled="true"
       snapvisiblegridlinesonly="true"
       spacingx="252px"
       spacingy="252px"
       empcolor="#009b00"
       empopacity="0.23529412"
       color="#009b00"
       opacity="0.09803922" />
    <inkscape:grid
       type="xygrid"
       id="grid5383"
       empspacing="2"
       visible="true"
       enabled="true"
       snapvisiblegridlinesonly="true"
       spacingx="180px"
       spacingy="180px"
       color="#009b9b"
       opacity="0.07843137"
       empcolor="#009b9b"
       empopacity="0.15686275" />
    <inkscape:grid
       type="xygrid"
       id="grid3019"
       empspacing="5"
       visible="true"
       enabled="true"
       snapvisiblegridlinesonly="true"
       color="#9b0000"
       opacity="0.09803922"
       empcolor="#0000ff"
       empopacity="0"
       dotted="true"
       spacingx="140px"
       spacingy="140px" />
    <inkscape:grid
       type="xygrid"
       id="grid3013"
       empspacing="5"
       visible="true"
       enabled="false"
       snapvisiblegridlinesonly="true"
       spacingx="210px"
       spacingy="210px"
       color="#ff00ff"
       opacity="0.29411765" />
  </sodipodi:namedview>
  <g
     id="g4212">
    <text
       sodipodi:linespacing="125%"
       id="text2998"
       y="4924.4893"
       x="9930.1055"
       style="font-size:6048.16699219px;font-style:normal;font-variant:normal;font-weight:normal;font-stretch:normal;line-height:125%;letter-spacing:0px;word-spacing:0px;fill:#000000;fill-opacity:1;stroke:none;font-family:Liberation Sans;-inkscape-font-specification:Sans"
       xml:space="preserve"><tspan
         y="4924.4893"
         x="9930.1055"
         id="tspan3000"
         sodipodi:role="line" /></text>
    <g
       id="g4445"
       transform="matrix(10.666667,0,0,10.666667,-20763.958,4280.9699)">
      <g
         id="g3324"
         transform="matrix(4.8314063,0,0,4.8314063,1656.0154,-384.07686)"
         style="fill:#000000;fill-opacity:1">
        <path
           style="fill:#000000;fill-opacity:1;stroke:none"
           d="M 1096.6875 2.09375 L 1096.6875 165.40625 C 1096.6875 492.00669 525.15625 328.70588 525.15625 573.65625 L 600.84375 573.65625 L 594.90625 577.09375 L 585.84375 595.8125 L 585.53125 601.09375 L 585.53125 608.0625 L 591.59375 627.96875 L 607.875 640.8125 L 628.5625 642.3125 L 646.53125 632.0625 L 655.4375 613.34375 L 655.90625 608.0625 L 655.90625 601.09375 L 649.71875 581.1875 L 640.25 573.65625 L 760.5625 573.65625 L 754.625 577.09375 L 745.71875 595.8125 L 745.28125 601.09375 L 745.28125 608.0625 L 751.46875 627.96875 L 767.625 640.8125 L 788.3125 642.3125 L 806.28125 632.0625 L 815.34375 613.34375 L 815.625 608.0625 L 815.625 601.09375 L 809.59375 581.1875 L 800.03125 573.65625 L 920.46875 573.65625 L 914.53125 577.09375 L 905.46875 595.8125 L 905.15625 601.09375 L 905.15625 608.0625 L 911.21875 627.96875 L 927.5 640.8125 L 948.1875 642.3125 L 966.15625 632.0625 L 975.0625 613.34375 L 975.53125 608.0625 L 975.53125 601.09375 L 969.34375 581.1875 L 959.875 573.65625 L 1080.3438 573.65625 L 1074.4062 577.09375 L 1065.3438 595.8125 L 1064.9062 601.09375 L 1064.9062 608.0625 L 1071.0938 627.96875 L 1087.25 640.8125 L 1108.0938 642.3125 L 1126.0625 632.0625 L 1134.9688 613.34375 L 1135.4062 608.0625 L 1135.4062 601.09375 L 1129.2188 581.1875 L 1119.75 573.65625 L 1240.0938 573.65625 L 1234.1562 577.09375 L 1225.25 595.8125 L 1224.7812 601.09375 L 1224.7812 608.0625 L 1231 627.96875 L 1247.1562 640.8125 L 1267.8125 642.3125 L 1285.7812 632.0625 L 1294.8438 613.34375 L 1295.1562 608.0625 L 1295.1562 601.09375 L 1289.125 581.1875 L 1279.5625 573.65625 L 1399.9688 573.65625 L 1394.0312 577.09375 L 1385 595.8125 L 1384.6875 601.09375 L 1384.6875 608.0625 L 1390.7188 627.96875 L 1407.0312 640.8125 L 1427.7188 642.3125 L 1445.6875 632.0625 L 1454.5938 613.34375 L 1455.0312 608.0625 L 1455.0312 601.09375 L 1448.8438 581.1875 L 1439.375 573.65625 L 1559.7188 573.65625 L 1553.7812 577.09375 L 1544.875 595.8125 L 1544.4375 601.09375 L 1544.4375 608.0625 L 1550.625 627.96875 L 1566.7812 640.8125 L 1587.4375 642.3125 L 1605.4062 632.0625 L 1614.4688 613.34375 L 1614.9375 608.0625 L 1614.9375 601.09375 L 1608.75 581.1875 L 1599.2812 573.65625 L 1719.625 573.65625 L 1713.6875 577.09375 L 1704.75 595.8125 L 1704.3125 601.09375 L 1704.3125 608.0625 L 1710.5 627.96875 L 1726.6562 640.8125 L 1747.3438 642.3125 L 1765.3125 632.0625 L 1774.375 613.34375 L 1774.6562 608.0625 L 1774.6562 601.09375 L 1768.625 581.1875 L 1759.0625 573.65625 L 1879.5 573.65625 L 1873.5625 577.09375 L 1864.5 595.8125 L 1864.1875 601.09375 L 1864.1875 608.0625 L 1870.25 627.96875 L 1886.5625 640.8125 L 1907.2188 642.3125 L 1925.1875 632.0625 L 1934.0938 613.34375 L 1934.5625 608.0625 L 1934.5625 601.09375 L 1928.375 581.1875 L 1918.9062 573.65625 L 1994.8438 573.65625 C 1994.8438 328.70588 1423.3125 492.00669 1423.3125 165.40625 L 1423.3125 2.09375 L 1096.6875 2.09375 z M 612.875 714.5 L 594.90625 724.90625 L 585.84375 743.625 L 585.53125 748.90625 L 585.53125 819.28125 L 591.59375 839.0625 L 607.875 852.03125 L 628.5625 853.5625 L 646.53125 843.125 L 655.4375 824.40625 L 655.90625 819.28125 L 655.90625 748.90625 L 649.71875 729 L 633.5625 716.15625 L 612.875 714.5 z M 772.59375 714.5 L 754.625 724.90625 L 745.71875 743.625 L 745.28125 748.90625 L 745.28125 819.28125 L 751.46875 839.0625 L 767.625 852.03125 L 788.3125 853.5625 L 806.28125 843.125 L 815.34375 824.40625 L 815.625 819.28125 L 815.625 748.90625 L 809.59375 729 L 793.28125 716.15625 L 772.59375 714.5 z M 932.5 714.5 L 914.53125 724.90625 L 905.46875 743.625 L 905.15625 748.90625 L 905.15625 819.28125 L 911.21875 839.0625 L 927.5 852.03125 L 948.1875 853.5625 L 966.15625 843.125 L 975.0625 824.40625 L 975.53125 819.28125 L 975.53125 748.90625 L 969.34375 729 L 953.1875 716.15625 L 932.5 714.5 z M 1092.375 714.5 L 1074.4062 724.90625 L 1065.3438 743.625 L 1064.9062 748.90625 L 1064.9062 819.28125 L 1071.0938 839.0625 L 1087.25 852.03125 L 1108.0938 853.5625 L 1126.0625 843.125 L 1134.9688 824.40625 L 1135.4062 819.28125 L 1135.4062 748.90625 L 1129.2188 729 L 1113.0625 716.15625 L 1092.375 714.5 z M 1252.125 714.5 L 1234.1562 724.90625 L 1225.25 743.625 L 1224.7812 748.90625 L 1224.7812 819.28125 L 1231 839.0625 L 1247.1562 852.03125 L 1267.8125 853.5625 L 1285.7812 843.125 L 1294.8438 824.40625 L 1295.1562 819.28125 L 1295.1562 748.90625 L 1289.125 729 L 1272.8125 716.15625 L 1252.125 714.5 z M 1412 714.5 L 1394.0312 724.90625 L 1385 743.625 L 1384.6875 748.90625 L 1384.6875 819.28125 L 1390.7188 839.0625 L 1407.0312 852.03125 L 1427.7188 853.5625 L 1445.6875 843.125 L 1454.5938 824.40625 L 1455.0312 819.28125 L 1455.0312 748.90625 L 1448.8438 729 L 1432.6875 716.15625 L 1412 714.5 z M 1571.75 714.5 L 1553.7812 724.90625 L 1544.875 743.625 L 1544.4375 748.90625 L 1544.4375 819.28125 L 1550.625 839.0625 L 1566.7812 852.03125 L 1587.4375 853.5625 L 1605.4062 843.125 L 1614.4688 824.40625 L 1614.9375 819.28125 L 1614.9375 748.90625 L 1608.75 729 L 1592.5938 716.15625 L 1571.75 714.5 z M 1731.625 714.5 L 1713.6875 724.90625 L 1704.75 743.625 L 1704.3125 748.90625 L 1704.3125 819.28125 L 1710.5 839.0625 L 1726.6562 852.03125 L 1747.3438 853.5625 L 1765.3125 843.125 L 1774.375 824.40625 L 1774.6562 819.28125 L 1774.6562 748.90625 L 1768.625 729 L 1752.3125 716.15625 L 1731.625 714.5 z M 1891.5312 714.5 L 1873.5625 724.90625 L 1864.5 743.625 L 1864.1875 748.90625 L 1864.1875 819.28125 L 1870.25 839.0625 L 1886.5625 852.03125 L 1907.2188 853.5625 L 1925.1875 843.125 L 1934.0938 824.40625 L 1934.5625 819.28125 L 1934.5625 748.90625 L 1928.375 729 L 1912.2188 716.15625 L 1891.5312 714.5 z M 612.875 925.71875 L 594.90625 936 L 585.84375 954.71875 L 585.53125 960 L 585.53125 1030.3438 L 591.59375 1050.125 L 607.875 1063.125 L 628.5625 1064.625 L 646.53125 1054.2188 L 655.4375 1035.625 L 655.90625 1030.3438 L 655.90625 960 L 649.71875 940.21875 L 633.5625 927.21875 L 612.875 925.71875 z M 772.59375 925.71875 L 754.625 936 L 745.71875 954.71875 L 745.28125 960 L 745.28125 1030.3438 L 751.46875 1050.125 L 767.625 1063.125 L 788.3125 1064.625 L 806.28125 1054.2188 L 815.34375 1035.625 L 815.625 1030.3438 L 815.625 960 L 809.59375 940.21875 L 793.28125 927.21875 L 772.59375 925.71875 z M 932.5 925.71875 L 914.53125 936 L 905.46875 954.71875 L 905.15625 960 L 905.15625 1030.3438 L 911.21875 1050.125 L 927.5 1063.125 L 948.1875 1064.625 L 966.15625 1054.2188 L 975.0625 1035.625 L 975.53125 1030.3438 L 975.53125 960 L 969.34375 940.21875 L 953.1875 927.21875 L 932.5 925.71875 z M 1092.375 925.71875 L 1074.4062 936 L 1065.3438 954.71875 L 1064.9062 960 L 1064.9062 1030.3438 L 1071.0938 1050.125 L 1087.25 1063.125 L 1108.0938 1064.625 L 1126.0625 1054.2188 L 1134.9688 1035.625 L 1135.4062 1030.3438 L 1135.4062 960 L 1129.2188 940.21875 L 1113.0625 927.21875 L 1092.375 925.71875 z M 1252.125 925.71875 L 1234.1562 936 L 1225.25 954.71875 L 1224.7812 960 L 1224.7812 1030.3438 L 1231 1050.125 L 1247.1562 1063.125 L 1267.8125 1064.625 L 1285.7812 1054.2188 L 1294.8438 1035.625 L 1295.1562 1030.3438 L 1295.1562 960 L 1289.125 940.21875 L 1272.8125 927.21875 L 1252.125 925.71875 z M 1412 925.71875 L 1394.0312 936 L 1385 954.71875 L 1384.6875 960 L 1384.6875 1030.3438 L 1390.7188 1050.125 L 1407.0312 1063.125 L 1427.7188 1064.625 L 1445.6875 1054.2188 L 1454.5938 1035.625 L 1455.0312 1030.3438 L 1455.0312 960 L 1448.8438 940.21875 L 1432.6875 927.21875 L 1412 925.71875 z M 1571.75 925.71875 L 1553.7812 936 L 1544.875 954.71875 L 1544.4375 960 L 1544.4375 1030.3438 L 1550.625 1050.125 L 1566.7812 1063.125 L 1587.4375 1064.625 L 1605.4062 1054.2188 L 1614.4688 1035.625 L 1614.9375 1030.3438 L 1614.9375 960 L 1608.75 940.21875 L 1592.5938 927.21875 L 1571.75 925.71875 z M 1731.625 925.71875 L 1713.6875 936 L 1704.75 954.71875 L 1704.3125 960 L 1704.3125 1030.3438 L 1710.5 1050.125 L 1726.6562 1063.125 L 1747.3438 1064.625 L 1765.3125 1054.2188 L 1774.375 1035.625 L 1774.6562 1030.3438 L 1774.6562 960 L 1768.625 940.21875 L 1752.3125 927.21875 L 1731.625 925.71875 z M 1891.5312 925.71875 L 1873.5625 936 L 1864.5 954.71875 L 1864.1875 960 L 1864.1875 1030.3438 L 1870.25 1050.125 L 1886.5625 1063.125 L 1907.2188 1064.625 L 1925.1875 1054.2188 L 1934.0938 1035.625 L 1934.5625 1030.3438 L 1934.5625 960 L 1928.375 940.21875 L 1912.2188 927.21875 L 1891.5312 925.71875 z M 881.65625 1093.125 C 773.06802 1093.125 715.43683 1151.8326 688.84375 1220.5312 L 547.59375 1581.3438 C 491.63312 1588.4485 392.59375 1653.4595 392.59375 1776.6562 L 392.59375 2235.6562 L 530 2235.6562 L 530 2382.3125 C 530 2562.8615 788.0312 2560.7384 788.03125 2382.3125 L 788.03125 2235.6562 L 1252.2812 2235.6562 L 1252.5625 2235.6562 L 1716.6875 2235.6562 L 1716.6875 2382.3125 C 1716.6875 2560.7385 1974.875 2562.8614 1974.875 2382.3125 L 1974.875 2235.6562 L 2112.125 2235.6562 L 2112.125 1776.6562 C 2112.125 1653.4596 2012.9606 1588.4485 1957 1581.3438 L 1815.7188 1220.5312 C 1789.1257 1151.8326 1731.5257 1093.125 1622.9375 1093.125 C 1622.9375 1093.125 881.24916 1093.6401 881.65625 1093.125 z M 880 1224.5625 L 1252.0312 1224.5625 L 1252.2812 1224.5625 L 1252.5625 1224.5625 L 1624.5938 1224.5625 C 1671.1315 1224.9925 1691.0785 1253.798 1704.375 1293.6875 L 1810.75 1572.75 L 1252.5625 1572.75 L 1252.2812 1572.75 L 1252.0312 1572.75 L 693.84375 1572.75 L 800.21875 1293.6875 C 813.51526 1253.798 833.46215 1224.9924 880 1224.5625 z M 663.09375 1711.8125 C 728.93364 1711.8125 782.34375 1766.2502 782.34375 1833.4375 C 782.34375 1900.6248 728.93369 1955.1875 663.09375 1955.1875 C 597.24492 1955.1875 543.84375 1900.6248 543.84375 1833.4375 C 543.84375 1766.2502 597.24497 1711.8125 663.09375 1711.8125 z M 1841.5 1711.8125 C 1907.3399 1711.8125 1960.75 1766.2502 1960.75 1833.4375 C 1960.75 1900.6248 1907.3399 1955.1875 1841.5 1955.1875 C 1775.6557 1955.1875 1722.3751 1900.6248 1722.375 1833.4375 C 1722.375 1766.2502 1775.6557 1711.8125 1841.5 1711.8125 z "
           transform="matrix(0.20697907,0,0,0.20697907,60.149278,-3.5732982)"
           id="path3326" />
        <g
           id="g3328"
           style="fill:#000000;fill-opacity:1">
          <g
             id="g3332"
             style="fill:#000000;fill-opacity:1">
            <g
               id="g3334"
               style="fill:#000000;fill-opacity:1">
              <path
                 inkscape:connector-curvature="0"
                 id="path3338"
                 style="fill:#000000;fill-opacity:1;stroke:none"
                 d="" />
            </g>
            <g
               id="g3340"
               style="fill:#000000;fill-opacity:1">
              <path
                 inkscape:connector-curvature="0"
                 id="path3344"
                 style="fill:#000000;fill-opacity:1;stroke:none"
                 d="" />
            </g>
          </g>
        </g>
      </g>
    </g>
  </g>
</svg>
