<?xml version="1.0" encoding="UTF-8" standalone="no"?>
<svg
   xmlns:dc="http://purl.org/dc/elements/1.1/"
   xmlns:cc="http://creativecommons.org/ns#"
   xmlns:rdf="http://www.w3.org/1999/02/22-rdf-syntax-ns#"
   xmlns:svg="http://www.w3.org/2000/svg"
   xmlns="http://www.w3.org/2000/svg"
   xmlns:sodipodi="http://sodipodi.sourceforge.net/DTD/sodipodi-0.dtd"
   xmlns:inkscape="http://www.inkscape.org/namespaces/inkscape"
   width="2520"
   height="2520"
   viewBox="0 0 26880 26880"
   id="svg3064"
   version="1.1"
   inkscape:version="0.48.4 r9939"
   sodipodi:docname="car_rental.svg">
  <metadata
     id="metadata3072">
    <rdf:RDF>
      <cc:Work
         rdf:about="">
        <dc:format>image/svg+xml</dc:format>
        <dc:type
           rdf:resource="http://purl.org/dc/dcmitype/StillImage" />
        <dc:title></dc:title>
      </cc:Work>
    </rdf:RDF>
  </metadata>
  <defs
     id="defs3070">
    <marker
       inkscape:stockid="Arrow2Send"
       orient="auto"
       refY="0.0"
       refX="0.0"
       id="Arrow2Send"
       style="overflow:visible;">
      <path
         id="path4937"
         style="fill-rule:evenodd;stroke-width:0.62500000;stroke-linejoin:round;"
         d="M 8.7185878,4.0337352 L -2.2072895,0.016013256 L 8.7185884,-4.0017078 C 6.9730900,-1.6296469 6.9831476,1.6157441 8.7185878,4.0337352 z "
         transform="scale(0.3) rotate(180) translate(-2.3,0)" />
    </marker>
    <marker
       inkscape:stockid="Tail"
       orient="auto"
       refY="0.0"
       refX="0.0"
       id="Tail"
       style="overflow:visible">
      <g
         id="g4940"
         transform="scale(-1.2)">
        <path
           id="path4942"
           d="M -3.8048674,-3.9585227 L 0.54352094,0"
           style="fill:none;fill-rule:evenodd;stroke:#000000;stroke-width:0.8;stroke-linecap:round" />
        <path
           id="path4944"
           d="M -1.2866832,-3.9585227 L 3.0617053,0"
           style="fill:none;fill-rule:evenodd;stroke:#000000;stroke-width:0.8;stroke-linecap:round" />
        <path
           id="path4946"
           d="M 1.3053582,-3.9585227 L 5.6537466,0"
           style="fill:none;fill-rule:evenodd;stroke:#000000;stroke-width:0.8;stroke-linecap:round" />
        <path
           id="path4948"
           d="M -3.8048674,4.1775838 L 0.54352094,0.21974226"
           style="fill:none;fill-rule:evenodd;stroke:#000000;stroke-width:0.8;stroke-linecap:round" />
        <path
           id="path4950"
           d="M -1.2866832,4.1775838 L 3.0617053,0.21974226"
           style="fill:none;fill-rule:evenodd;stroke:#000000;stroke-width:0.8;stroke-linecap:round" />
        <path
           id="path4952"
           d="M 1.3053582,4.1775838 L 5.6537466,0.21974226"
           style="fill:none;fill-rule:evenodd;stroke:#000000;stroke-width:0.8;stroke-linecap:round" />
      </g>
    </marker>
    <marker
       inkscape:stockid="Arrow1Lstart"
       orient="auto"
       refY="0.0"
       refX="0.0"
       id="Arrow1Lstart"
       style="overflow:visible">
      <path
         id="path4904"
         d="M 0.0,0.0 L 5.0,-5.0 L -12.5,0.0 L 5.0,5.0 L 0.0,0.0 z "
         style="fill-rule:evenodd;stroke:#000000;stroke-width:1.0pt"
         transform="scale(0.8) translate(12.5,0)" />
    </marker>
    <clipPath
       id="clip0">
      <rect
         y="0"
         x="0"
         width="233"
         height="233"
         id="rect4533" />
    </clipPath>
  </defs>
  <sodipodi:namedview
     pagecolor="#ffffff"
     bordercolor="#666666"
     borderopacity="1"
     objecttolerance="6"
     gridtolerance="6"
     guidetolerance="6"
     inkscape:pageopacity="0"
     inkscape:pageshadow="2"
     inkscape:window-width="1600"
     inkscape:window-height="1147"
     id="namedview3068"
     showgrid="true"
     inkscape:snap-grids="false"
     inkscape:zoom="0.22627417"
     inkscape:cx="261.38785"
     inkscape:cy="1335.0142"
     inkscape:window-x="0"
     inkscape:window-y="0"
     inkscape:window-maximized="1"
     inkscape:current-layer="surface0"
     showguides="true"
     inkscape:guide-bbox="true"
     inkscape:snap-to-guides="false"
     inkscape:object-paths="true">
    <inkscape:grid
       type="xygrid"
       id="grid3074"
       empspacing="2"
       visible="true"
       enabled="true"
       snapvisiblegridlinesonly="true"
       dotted="false"
       spacingx="315px"
       spacingy="315px"
       color="#00009b"
       opacity="0.1372549"
       empcolor="#00009b"
       empopacity="0.29411765" />
    <inkscape:grid
       type="xygrid"
       id="grid5379"
       empspacing="3"
       visible="true"
       enabled="true"
       snapvisiblegridlinesonly="true"
       color="#9b0000"
       opacity="0.11764706"
       empcolor="#9b0000"
       empopacity="0.39215686"
       spacingx="280px"
       spacingy="280px" />
    <inkscape:grid
       type="xygrid"
       id="grid5381"
       empspacing="2"
       visible="true"
       enabled="true"
       snapvisiblegridlinesonly="true"
       spacingx="252px"
       spacingy="252px"
       empcolor="#009b00"
       empopacity="0.23529412"
       color="#009b00"
       opacity="0.09803922" />
    <inkscape:grid
       type="xygrid"
       id="grid5383"
       empspacing="2"
       visible="true"
       enabled="true"
       snapvisiblegridlinesonly="true"
       spacingx="180px"
       spacingy="180px"
       color="#009b9b"
       opacity="0.07843137"
       empcolor="#009b9b"
       empopacity="0.15686275" />
    <inkscape:grid
       type="xygrid"
       id="grid3019"
       empspacing="5"
       visible="true"
       enabled="true"
       snapvisiblegridlinesonly="true"
       color="#9b0000"
       opacity="0.09803922"
       empcolor="#0000ff"
       empopacity="0"
       dotted="true"
       spacingx="140px"
       spacingy="140px" />
    <inkscape:grid
       type="xygrid"
       id="grid3013"
       empspacing="5"
       visible="true"
       enabled="false"
       snapvisiblegridlinesonly="true"
       spacingx="210px"
       spacingy="210px"
       color="#ff00ff"
       opacity="0.29411765" />
  </sodipodi:namedview>
  <g
     transform="matrix(128.05184,0,0,128.05184,-2243.5294,-2187.0589)"
     id="surface0"
     clip-path="url(#clip0)">
    <g
       id="g2297"
       transform="matrix(0.44085013,0,0,0.44085013,43.729545,17.602209)">
      <g
         id="g2299">
        <path
           inkscape:connector-curvature="0"
           d="m 214.064,176.821 41.43,0 c 22.548,0 34.512,12.316 40.034,26.725 l 29.335,75.669 c 11.62,1.49 32.218,15.146 32.218,40.985 l 0,96.245 -28.527,0 0,30.769 c 0,37.87 -53.599,37.424 -53.599,0 l 0,-30.769 -96.389,0 -0.054,0 0.056,0 -0.052,0 -96.389,0 0,30.769 c 0,37.424 -53.599,37.87 -53.599,0 l 0,-30.769 -28.528,0 0,-96.245 c 0,-25.839 20.577,-39.495 32.197,-40.985 l 29.335,-75.669 c 5.522,-14.409 17.487,-26.725 40.035,-26.725 l 41.911,0 70.586,0 z"
           id="path2301"
           style="fill:#000000;stroke:none" />
        <g
           id="g2303">
          <g
             id="g2305">
            <path
               inkscape:connector-curvature="0"
               d="m 101.99,148.102 c 40.486,0 73.305,-33.154 73.305,-74.049 C 175.295,33.154 142.476,0 101.99,0 61.506,0 28.684,33.154 28.684,74.053 c 0,40.895 32.822,74.049 73.306,74.049 z"
               id="path2307"
               style="fill:#000000;stroke:none" />
            <path
               inkscape:connector-curvature="0"
               d="M 101.99,74.053"
               id="path2309"
               style="fill:#000000;stroke:none" />
          </g>
          <path
             inkscape:connector-curvature="0"
             d="m 156.681,37.263 156.553,0 25.144,25.4 c 4.626,4.673 4.508,7.909 0,12.461 l -30.599,30.908 -18.027,-18.207 -18.028,18.207 -17.792,-17.969 -17.314,17.49 -18.028,-18.207 -23.485,23.72 -38.424,0 0,-73.803 z"
             id="path2311"
             style="fill:#000000;stroke:none" />
        </g>
      </g>
      <g
         id="g2313">
        <path
           inkscape:connector-curvature="0"
           d="m 178.512,278.445 -0.054,0 -115.89,0 22.087,-59.56 c 2.761,-8.367 6.904,-14.409 16.568,-14.499 l 77.235,0 0.054,0 0.054,0 77.274,0 c 9.663,0.09 13.805,6.132 16.566,14.499 l 22.086,59.56 -115.926,0 -0.054,0 z"
           id="path2315"
           style="fill:#ffffff;stroke:none" />
        <g
           id="g2317">
          <g
             id="g2319">
            <path
               inkscape:connector-curvature="0"
               d="m 56.18,358.445 c -13.672,0 -24.758,-11.426 -24.758,-25.519 0,-14.092 11.086,-25.517 24.758,-25.517 13.673,0 24.757,11.425 24.757,25.517 0,14.093 -11.084,25.519 -24.757,25.519 z"
               id="path2321"
               style="fill:#ffffff;stroke:none" />
            <path
               inkscape:connector-curvature="0"
               d="M 56.18,332.926"
               id="path2323"
               style="fill:#ffffff;stroke:none" />
          </g>
          <g
             id="g2325">
            <path
               inkscape:connector-curvature="0"
               d="m 300.881,358.445 c 13.673,0 24.757,-11.426 24.757,-25.519 0,-14.092 -11.084,-25.517 -24.757,-25.517 -13.672,0 -24.758,11.425 -24.758,25.517 0,14.093 11.086,25.519 24.758,25.519 z"
               id="path2327"
               style="fill:#ffffff;stroke:none" />
            <path
               inkscape:connector-curvature="0"
               d="M 300.881,332.926"
               id="path2329"
               style="fill:#ffffff;stroke:none" />
          </g>
        </g>
        <g
           id="g2331">
          <path
             inkscape:connector-curvature="0"
             d="m 69.789,93.342 c 10.745,0 19.457,-8.802 19.457,-19.656 0,-10.855 -8.712,-19.656 -19.457,-19.656 -10.745,0 -19.457,8.801 -19.457,19.656 0,10.854 8.712,19.656 19.457,19.656 z"
             id="path2333"
             style="fill:#ffffff;stroke:none" />
          <path
             inkscape:connector-curvature="0"
             d="M 69.789,73.686"
             id="path2335"
             style="fill:#ffffff;stroke:none" />
        </g>
      </g>
    </g>
  </g>
</svg>
