<?xml version="1.0" encoding="UTF-8" standalone="no"?>
<svg
   xmlns:dc="http://purl.org/dc/elements/1.1/"
   xmlns:cc="http://creativecommons.org/ns#"
   xmlns:rdf="http://www.w3.org/1999/02/22-rdf-syntax-ns#"
   xmlns:svg="http://www.w3.org/2000/svg"
   xmlns="http://www.w3.org/2000/svg"
   xmlns:sodipodi="http://sodipodi.sourceforge.net/DTD/sodipodi-0.dtd"
   xmlns:inkscape="http://www.inkscape.org/namespaces/inkscape"
   width="2520"
   height="2520"
   viewBox="0 0 26880 26880"
   id="svg3064"
   version="1.1"
   inkscape:version="0.48.4 r9939"
   sodipodi:docname="car_sharing.svg">
  <metadata
     id="metadata3072">
    <rdf:RDF>
      <cc:Work
         rdf:about="">
        <dc:format>image/svg+xml</dc:format>
        <dc:type
           rdf:resource="http://purl.org/dc/dcmitype/StillImage" />
        <dc:title></dc:title>
      </cc:Work>
    </rdf:RDF>
  </metadata>
  <defs
     id="defs3070">
    <marker
       inkscape:stockid="Arrow2Send"
       orient="auto"
       refY="0.0"
       refX="0.0"
       id="Arrow2Send"
       style="overflow:visible;">
      <path
         id="path4937"
         style="fill-rule:evenodd;stroke-width:0.62500000;stroke-linejoin:round;"
         d="M 8.7185878,4.0337352 L -2.2072895,0.016013256 L 8.7185884,-4.0017078 C 6.9730900,-1.6296469 6.9831476,1.6157441 8.7185878,4.0337352 z "
         transform="scale(0.3) rotate(180) translate(-2.3,0)" />
    </marker>
    <marker
       inkscape:stockid="Tail"
       orient="auto"
       refY="0.0"
       refX="0.0"
       id="Tail"
       style="overflow:visible">
      <g
         id="g4940"
         transform="scale(-1.2)">
        <path
           id="path4942"
           d="M -3.8048674,-3.9585227 L 0.54352094,0"
           style="fill:none;fill-rule:evenodd;stroke:#000000;stroke-width:0.8;stroke-linecap:round" />
        <path
           id="path4944"
           d="M -1.2866832,-3.9585227 L 3.0617053,0"
           style="fill:none;fill-rule:evenodd;stroke:#000000;stroke-width:0.8;stroke-linecap:round" />
        <path
           id="path4946"
           d="M 1.3053582,-3.9585227 L 5.6537466,0"
           style="fill:none;fill-rule:evenodd;stroke:#000000;stroke-width:0.8;stroke-linecap:round" />
        <path
           id="path4948"
           d="M -3.8048674,4.1775838 L 0.54352094,0.21974226"
           style="fill:none;fill-rule:evenodd;stroke:#000000;stroke-width:0.8;stroke-linecap:round" />
        <path
           id="path4950"
           d="M -1.2866832,4.1775838 L 3.0617053,0.21974226"
           style="fill:none;fill-rule:evenodd;stroke:#000000;stroke-width:0.8;stroke-linecap:round" />
        <path
           id="path4952"
           d="M 1.3053582,4.1775838 L 5.6537466,0.21974226"
           style="fill:none;fill-rule:evenodd;stroke:#000000;stroke-width:0.8;stroke-linecap:round" />
      </g>
    </marker>
    <marker
       inkscape:stockid="Arrow1Lstart"
       orient="auto"
       refY="0.0"
       refX="0.0"
       id="Arrow1Lstart"
       style="overflow:visible">
      <path
         id="path4904"
         d="M 0.0,0.0 L 5.0,-5.0 L -12.5,0.0 L 5.0,5.0 L 0.0,0.0 z "
         style="fill-rule:evenodd;stroke:#000000;stroke-width:1.0pt"
         transform="scale(0.8) translate(12.5,0)" />
    </marker>
    <clipPath
       id="clip0">
      <rect
         y="0"
         x="0"
         width="233"
         height="233"
         id="rect4533" />
    </clipPath>
  </defs>
  <sodipodi:namedview
     pagecolor="#ffffff"
     bordercolor="#666666"
     borderopacity="1"
     objecttolerance="6"
     gridtolerance="6"
     guidetolerance="6"
     inkscape:pageopacity="0"
     inkscape:pageshadow="2"
     inkscape:window-width="1600"
     inkscape:window-height="1147"
     id="namedview3068"
     showgrid="true"
     inkscape:snap-grids="false"
     inkscape:zoom="0.22627417"
     inkscape:cx="261.38785"
     inkscape:cy="1335.0142"
     inkscape:window-x="0"
     inkscape:window-y="0"
     inkscape:window-maximized="1"
     inkscape:current-layer="g2299"
     showguides="true"
     inkscape:guide-bbox="true"
     inkscape:snap-to-guides="false"
     inkscape:object-paths="true">
    <inkscape:grid
       type="xygrid"
       id="grid3074"
       empspacing="2"
       visible="true"
       enabled="true"
       snapvisiblegridlinesonly="true"
       dotted="false"
       spacingx="315px"
       spacingy="315px"
       color="#00009b"
       opacity="0.1372549"
       empcolor="#00009b"
       empopacity="0.29411765" />
    <inkscape:grid
       type="xygrid"
       id="grid5379"
       empspacing="3"
       visible="true"
       enabled="true"
       snapvisiblegridlinesonly="true"
       color="#9b0000"
       opacity="0.11764706"
       empcolor="#9b0000"
       empopacity="0.39215686"
       spacingx="280px"
       spacingy="280px" />
    <inkscape:grid
       type="xygrid"
       id="grid5381"
       empspacing="2"
       visible="true"
       enabled="true"
       snapvisiblegridlinesonly="true"
       spacingx="252px"
       spacingy="252px"
       empcolor="#009b00"
       empopacity="0.23529412"
       color="#009b00"
       opacity="0.09803922" />
    <inkscape:grid
       type="xygrid"
       id="grid5383"
       empspacing="2"
       visible="true"
       enabled="true"
       snapvisiblegridlinesonly="true"
       spacingx="180px"
       spacingy="180px"
       color="#009b9b"
       opacity="0.07843137"
       empcolor="#009b9b"
       empopacity="0.15686275" />
    <inkscape:grid
       type="xygrid"
       id="grid3019"
       empspacing="5"
       visible="true"
       enabled="true"
       snapvisiblegridlinesonly="true"
       color="#9b0000"
       opacity="0.09803922"
       empcolor="#0000ff"
       empopacity="0"
       dotted="true"
       spacingx="140px"
       spacingy="140px" />
    <inkscape:grid
       type="xygrid"
       id="grid3013"
       empspacing="5"
       visible="true"
       enabled="false"
       snapvisiblegridlinesonly="true"
       spacingx="210px"
       spacingy="210px"
       color="#ff00ff"
       opacity="0.29411765" />
  </sodipodi:namedview>
  <g
     transform="matrix(128.05184,0,0,128.05184,-2243.5294,-2187.0589)"
     id="surface0"
     clip-path="url(#clip0)">
    <g
       id="g2297"
       transform="matrix(0.44085013,0,0,0.44085013,43.729545,17.602209)">
      <g
         id="g2299">
        <path
           id="path2301"
           d="m 114.25827,228.01871 c -18.715624,0 -28.643828,10.2175 -33.227284,22.17749 l -24.33038,62.82312 c -9.644965,1.23678 -26.742623,12.55823 -26.742623,34.00543 l 0,79.89076 23.681876,0 0,25.54948 c 0,31.43332 44.484599,31.06316 44.484643,0 l 0,-25.54948 80.020358,0 0.0281,0 80.02039,0 0,25.54948 c 0,31.06316 44.48439,31.43332 44.48466,0 l 0,-25.54948 23.68184,0 0,-79.89076 c 0,-21.4472 -17.09751,-32.76865 -26.74266,-34.00543 L 275.26093,250.1962 c -4.58345,-11.95999 -14.51156,-22.17749 -33.22733,-22.17749 l -34.3944,0 -58.56936,0 -34.80949,0 z m -0.28555,22.87779 64.12007,0 0.0516,0 0.0281,0 64.14599,0 c 8.02061,0.0744 11.45572,5.09063 13.74743,12.0355 l 18.33848,49.43885 -96.2319,0 -0.0281,0 -0.0516,0 -96.206093,0 18.338583,-49.43885 c 2.29172,-6.94487 5.726,-11.96079 13.74744,-12.0355 z m -37.377473,85.51942 c 11.349077,0 20.54334,9.469 20.54334,21.16584 0,11.69767 -9.194263,21.19179 -20.54334,21.19179 -11.348189,0 -20.543332,-9.49412 -20.543332,-21.19179 0,-11.69684 9.195143,-21.16584 20.543332,-21.16584 z m 203.124783,0 c 11.34902,0 20.54339,9.469 20.54335,21.16584 0,11.69767 -9.19433,21.19179 -20.54335,21.19179 -11.34824,0 -20.56933,-9.49412 -20.56933,-21.19179 0,-11.69684 9.22109,-21.16584 20.56933,-21.16584 z"
           style="fill:#000000;fill-opacity:1;stroke:none"
           inkscape:connector-curvature="0" />
        <g
           transform="matrix(0.88022582,0,0,0.88022582,-10.882065,-38.63118)"
           id="g8776"
           style="fill:#000000;fill-opacity:1">
          <path
             style="font-size:40px;font-style:normal;font-variant:normal;font-weight:normal;font-stretch:normal;text-align:start;line-height:125%;writing-mode:lr-tb;text-anchor:start;fill:#000000;fill-opacity:1;stroke:none;font-family:NPSPICT3;-inkscape-font-specification:NPSPICT3"
             d="m 117.84375,42.625 c -10.57662,3.9e-4 -19.790529,3.83221 -27.625,11.46875 -7.83376,7.63729 -11.749626,16.915957 -11.75,27.875 3.7e-4,10.97169 3.916241,20.3009 11.75,27.9375 7.83447,7.63723 17.04838,11.43781 27.625,11.4375 0.38998,1e-5 0.77047,-0.0216 1.15625,-0.0312 0.39015,0.01 0.79305,0.0313 1.1875,0.0312 10.57662,3.1e-4 19.75928,-3.80027 27.59375,-11.4375 7.83376,-7.6366 11.74963,-16.96581 11.75,-27.9375 -3.6e-4,-10.959043 -3.91624,-20.23771 -11.75,-27.875 -7.83447,-7.63654 -17.01713,-11.46836 -27.59375,-11.46875 -0.39434,1.4e-5 -0.79747,0.02135 -1.1875,0.03125 -0.38566,-0.0097 -0.76638,-0.03124 -1.15625,-0.03125 z M 87.875,130.15625 c -11.35344,2.9e-4 -17.609638,5.8771 -18.78125,17.625 l 0,138.03125 0,2.96875 L 119,287.3125 l 49.9375,1.46875 0,-2.96875 0,-138.03125 c -1.1716,-11.7479 -7.42781,-17.62471 -18.78125,-17.625 l -62.28125,0 z"
             id="flowRoot3192"
             sodipodi:nodetypes="ccssssssscssccccccccccc"
             inkscape:connector-curvature="0" />
          <path
             style="font-size:medium;font-style:normal;font-variant:normal;font-weight:normal;font-stretch:normal;text-indent:0;text-align:start;text-decoration:none;line-height:normal;letter-spacing:normal;word-spacing:normal;text-transform:none;direction:ltr;block-progression:tb;writing-mode:lr-tb;text-anchor:start;baseline-shift:baseline;color:#000000;fill:#000000;fill-opacity:1;fill-rule:evenodd;stroke:none;stroke-width:67.0968399;marker:none;visibility:visible;display:inline;overflow:visible;enable-background:accumulate;font-family:Sans;-inkscape-font-specification:Sans"
             d="M 77.5625,130.78125 A 33.551775,33.551775 0 0 0 44.8125,165.125 L 45.5,243.34375 A 33.551775,33.551775 0 1 0 112.59375,242.75 l -0.6875,-78.25 A 33.551775,33.551775 0 0 0 77.5625,130.78125 z"
             id="path3239"
             inkscape:connector-curvature="0" />
          <path
             style="font-size:medium;font-style:normal;font-variant:normal;font-weight:normal;font-stretch:normal;text-indent:0;text-align:start;text-decoration:none;line-height:normal;letter-spacing:normal;word-spacing:normal;text-transform:none;direction:ltr;block-progression:tb;writing-mode:lr-tb;text-anchor:start;baseline-shift:baseline;color:#000000;fill:#000000;fill-opacity:1;fill-rule:evenodd;stroke:none;stroke-width:67.0968399;marker:none;visibility:visible;display:inline;overflow:visible;enable-background:accumulate;font-family:Sans;-inkscape-font-specification:Sans"
             d="m 153.5625,130.78125 a 33.551775,33.551775 0 0 0 -32.75,34.34375 L 121.5,243.34375 A 33.551775,33.551775 0 1 0 188.59375,242.75 l -0.6875,-78.25 A 33.551775,33.551775 0 0 0 153.5625,130.78125 z"
             id="path8774"
             inkscape:connector-curvature="0" />
        </g>
        <g
           id="g8789"
           transform="matrix(0.88022582,0,0,0.88022582,165.16312,-38.63118)"
           style="fill:#000000;fill-opacity:1">
          <path
             sodipodi:nodetypes="ccssssssscssccccccccccc"
             id="path8791"
             d="m 117.84375,42.625 c -10.57662,3.9e-4 -19.790529,3.83221 -27.625,11.46875 -7.83376,7.63729 -11.749626,16.915957 -11.75,27.875 3.7e-4,10.97169 3.916241,20.3009 11.75,27.9375 7.83447,7.63723 17.04838,11.43781 27.625,11.4375 0.38998,1e-5 0.77047,-0.0216 1.15625,-0.0312 0.39015,0.01 0.79305,0.0313 1.1875,0.0312 10.57662,3.1e-4 19.75928,-3.80027 27.59375,-11.4375 7.83376,-7.6366 11.74963,-16.96581 11.75,-27.9375 -3.6e-4,-10.959043 -3.91624,-20.23771 -11.75,-27.875 -7.83447,-7.63654 -17.01713,-11.46836 -27.59375,-11.46875 -0.39434,1.4e-5 -0.79747,0.02135 -1.1875,0.03125 -0.38566,-0.0097 -0.76638,-0.03124 -1.15625,-0.03125 z M 87.875,130.15625 c -11.35344,2.9e-4 -17.609638,5.8771 -18.78125,17.625 l 0,138.03125 0,2.96875 L 119,287.3125 l 49.9375,1.46875 0,-2.96875 0,-138.03125 c -1.1716,-11.7479 -7.42781,-17.62471 -18.78125,-17.625 l -62.28125,0 z"
             style="font-size:40px;font-style:normal;font-variant:normal;font-weight:normal;font-stretch:normal;text-align:start;line-height:125%;writing-mode:lr-tb;text-anchor:start;fill:#000000;fill-opacity:1;stroke:none;font-family:NPSPICT3;-inkscape-font-specification:NPSPICT3"
             inkscape:connector-curvature="0" />
          <path
             style="font-size:medium;font-style:normal;font-variant:normal;font-weight:normal;font-stretch:normal;text-indent:0;text-align:start;text-decoration:none;line-height:normal;letter-spacing:normal;word-spacing:normal;text-transform:none;direction:ltr;block-progression:tb;writing-mode:lr-tb;text-anchor:start;baseline-shift:baseline;color:#000000;fill:#000000;fill-opacity:1;fill-rule:evenodd;stroke:none;stroke-width:67.0968399;marker:none;visibility:visible;display:inline;overflow:visible;enable-background:accumulate;font-family:Sans;-inkscape-font-specification:Sans"
             d="M 77.5625,130.78125 A 33.551775,33.551775 0 0 0 44.8125,165.125 L 45.5,243.34375 A 33.551775,33.551775 0 1 0 112.59375,242.75 l -0.6875,-78.25 A 33.551775,33.551775 0 0 0 77.5625,130.78125 z"
             id="path8793"
             inkscape:connector-curvature="0" />
          <path
             style="font-size:medium;font-style:normal;font-variant:normal;font-weight:normal;font-stretch:normal;text-indent:0;text-align:start;text-decoration:none;line-height:normal;letter-spacing:normal;word-spacing:normal;text-transform:none;direction:ltr;block-progression:tb;writing-mode:lr-tb;text-anchor:start;baseline-shift:baseline;color:#000000;fill:#000000;fill-opacity:1;fill-rule:evenodd;stroke:none;stroke-width:67.0968399;marker:none;visibility:visible;display:inline;overflow:visible;enable-background:accumulate;font-family:Sans;-inkscape-font-specification:Sans"
             d="m 153.5625,130.78125 a 33.551775,33.551775 0 0 0 -32.75,34.34375 L 121.5,243.34375 A 33.551775,33.551775 0 1 0 188.59375,242.75 l -0.6875,-78.25 A 33.551775,33.551775 0 0 0 153.5625,130.78125 z"
             id="path8795"
             inkscape:connector-curvature="0" />
        </g>
      </g>
    </g>
  </g>
</svg>
