<?xml version="1.0" encoding="UTF-8" standalone="no"?>
<!-- Created with Inkscape (http://www.inkscape.org/) -->

<svg
   xmlns:dc="http://purl.org/dc/elements/1.1/"
   xmlns:cc="http://creativecommons.org/ns#"
   xmlns:rdf="http://www.w3.org/1999/02/22-rdf-syntax-ns#"
   xmlns:svg="http://www.w3.org/2000/svg"
   xmlns="http://www.w3.org/2000/svg"
   xmlns:xlink="http://www.w3.org/1999/xlink"
   xmlns:sodipodi="http://sodipodi.sourceforge.net/DTD/sodipodi-0.dtd"
   xmlns:inkscape="http://www.inkscape.org/namespaces/inkscape"
   width="256"
   height="256"
   id="svg2"
   inkscape:label="Pozadí"
   version="1.1"
   inkscape:version="0.48.3.1 r9886"
   sodipodi:docname="cemetery-jewish.svg">
  <defs
     id="defs3">
    <inkscape:path-effect
       effect="spiro"
       id="path-effect3001"
       is_visible="true" />
    <linearGradient
       inkscape:collect="always"
       id="linearGradient3766">
      <stop
         style="stop-color:#000000;stop-opacity:1;"
         offset="0"
         id="stop3768" />
      <stop
         style="stop-color:#000000;stop-opacity:0;"
         offset="1"
         id="stop3770" />
    </linearGradient>
    <radialGradient
       inkscape:collect="always"
       xlink:href="#linearGradient3766"
       id="radialGradient3772"
       cx="128"
       cy="127.99653"
       fx="128"
       fy="127.99653"
       r="128"
       gradientTransform="matrix(1,0,0,0.50002713,0,63.994792)"
       gradientUnits="userSpaceOnUse" />
  </defs>
  <sodipodi:namedview
     id="base"
     pagecolor="#ffffff"
     bordercolor="#666666"
     borderopacity="1.0"
     inkscape:pageopacity="0.0"
     inkscape:pageshadow="2"
     inkscape:zoom="2.56"
     inkscape:cx="78.408294"
     inkscape:cy="119.61034"
     inkscape:document-units="px"
     inkscape:current-layer="layer1"
     showgrid="true"
     inkscape:window-width="1600"
     inkscape:window-height="1147"
     inkscape:window-x="0"
     inkscape:window-y="0"
     inkscape:window-maximized="1"
     inkscape:snap-grids="false"
     inkscape:snap-to-guides="false">
    <inkscape:grid
       type="xygrid"
       id="grid2984"
       empspacing="4"
       visible="true"
       enabled="true"
       snapvisiblegridlinesonly="true"
       originx="0px"
       spacingx="8px"
       spacingy="8px"
       dotted="false" />
  </sodipodi:namedview>
  <metadata
     id="metadata6">
    <rdf:RDF>
      <cc:Work
         rdf:about="">
        <dc:format>image/svg+xml</dc:format>
        <dc:type
           rdf:resource="http://purl.org/dc/dcmitype/StillImage" />
        <dc:title></dc:title>
      </cc:Work>
    </rdf:RDF>
  </metadata>
  <g
     inkscape:label="Vrstva 1"
     inkscape:groupmode="layer"
     id="layer1"
     transform="translate(0,-796.36215)">
    <path
       style="fill:#000000;fill-opacity:1;stroke:none"
       d="M 96 0 C 48 0 48 0 48 176 C 8 176 0 216 0 256 L 256 256 C 256 217.25 248 176 208 176 C 208 0 208 0 160 0 L 96 0 z M 128.03125 24.46875 L 133.59375 33.9375 L 148 58.53125 L 184.9375 58.53125 L 196.0625 58.53125 L 190.5 68.0625 L 172.0625 99.53125 L 191 131.875 L 196.5625 141.34375 L 185.4375 141.34375 L 147.59375 141.34375 L 133.09375 166.09375 L 127.5625 175.59375 L 122 166.09375 L 107.5 141.34375 L 70.65625 141.34375 L 59.53125 141.34375 L 65.09375 131.875 L 83.53125 100.40625 L 64.59375 68.0625 L 59.03125 58.53125 L 70.15625 58.53125 L 108.09375 58.53125 L 122.5 33.9375 L 128.03125 24.46875 z M 128.03125 49.75 L 122.875 58.53125 L 133.1875 58.53125 L 128.03125 49.75 z M 81.28125 71.21875 L 90.96875 87.75 L 100.65625 71.21875 L 81.28125 71.21875 z M 115.4375 71.21875 L 98.34375 100.375 L 114.96875 128.71875 L 140.15625 128.71875 L 157.25 99.59375 L 140.625 71.21875 L 115.4375 71.21875 z M 155.4375 71.21875 L 164.65625 86.90625 L 173.84375 71.21875 L 155.4375 71.21875 z M 164.625 112.21875 L 154.96875 128.71875 L 174.3125 128.71875 L 164.625 112.21875 z M 90.9375 113.03125 L 81.75 128.71875 L 100.125 128.71875 L 90.9375 113.03125 z M 122.34375 141.34375 L 127.5625 150.25 L 132.78125 141.34375 L 122.34375 141.34375 z "
       transform="translate(0,796.36215)"
       id="path7157" />
    <g
       id="g16521"
       style="fill:none;stroke:#003ad1;stroke-opacity:1"
       transform="matrix(0.06820884,0,0,0.06820884,-136.05817,694.14895)" />
  </g>
</svg>
