<?xml version="1.0" encoding="UTF-8" standalone="no"?>
<!-- Created with Inkscape (http://www.inkscape.org/) -->

<svg
   xmlns:dc="http://purl.org/dc/elements/1.1/"
   xmlns:cc="http://creativecommons.org/ns#"
   xmlns:rdf="http://www.w3.org/1999/02/22-rdf-syntax-ns#"
   xmlns:svg="http://www.w3.org/2000/svg"
   xmlns="http://www.w3.org/2000/svg"
   xmlns:xlink="http://www.w3.org/1999/xlink"
   xmlns:sodipodi="http://sodipodi.sourceforge.net/DTD/sodipodi-0.dtd"
   xmlns:inkscape="http://www.inkscape.org/namespaces/inkscape"
   width="256"
   height="256"
   id="svg2"
   inkscape:label="Pozadí"
   version="1.1"
   inkscape:version="0.48.3.1 r9886"
   sodipodi:docname="cemetery-muslim.svg">
  <defs
     id="defs3">
    <inkscape:path-effect
       effect="spiro"
       id="path-effect3001"
       is_visible="true" />
    <linearGradient
       inkscape:collect="always"
       id="linearGradient3766">
      <stop
         style="stop-color:#000000;stop-opacity:1;"
         offset="0"
         id="stop3768" />
      <stop
         style="stop-color:#000000;stop-opacity:0;"
         offset="1"
         id="stop3770" />
    </linearGradient>
    <radialGradient
       inkscape:collect="always"
       xlink:href="#linearGradient3766"
       id="radialGradient3772"
       cx="128"
       cy="127.99653"
       fx="128"
       fy="127.99653"
       r="128"
       gradientTransform="matrix(1,0,0,0.50002713,0,63.994792)"
       gradientUnits="userSpaceOnUse" />
  </defs>
  <sodipodi:namedview
     id="base"
     pagecolor="#ffffff"
     bordercolor="#666666"
     borderopacity="1.0"
     inkscape:pageopacity="0.0"
     inkscape:pageshadow="2"
     inkscape:zoom="2.56"
     inkscape:cx="80.137449"
     inkscape:cy="119.61034"
     inkscape:document-units="px"
     inkscape:current-layer="layer1"
     showgrid="true"
     inkscape:window-width="1600"
     inkscape:window-height="1147"
     inkscape:window-x="0"
     inkscape:window-y="0"
     inkscape:window-maximized="1"
     inkscape:snap-grids="false"
     inkscape:snap-to-guides="false">
    <inkscape:grid
       type="xygrid"
       id="grid2984"
       empspacing="4"
       visible="true"
       enabled="true"
       snapvisiblegridlinesonly="true"
       originx="0px"
       spacingx="8px"
       spacingy="8px"
       dotted="false" />
  </sodipodi:namedview>
  <metadata
     id="metadata6">
    <rdf:RDF>
      <cc:Work
         rdf:about="">
        <dc:format>image/svg+xml</dc:format>
        <dc:type
           rdf:resource="http://purl.org/dc/dcmitype/StillImage" />
        <dc:title></dc:title>
      </cc:Work>
    </rdf:RDF>
  </metadata>
  <g
     inkscape:label="Vrstva 1"
     inkscape:groupmode="layer"
     id="layer1"
     transform="translate(0,-796.36215)">
    <path
       style="fill:#000000;fill-opacity:1;stroke:none"
       d="M 96 0 C 48 0 48 0 48 176 C 0 176 0 216 0 256 L 256 256 C 256 217.25 256 176 208 176 C 208 0 208 0 160 0 L 96 0 z M 136.875 30.25 C 143.08821 30.25 149.12367 31.02025 154.875 32.5 C 123.81782 40.49065 100.875 68.6987 100.875 102.25 C 100.875 135.8013 123.81782 164.00934 154.875 172 C 149.12367 173.47975 143.08821 174.25 136.875 174.25 C 97.1105 174.25 64.875 142.0145 64.875 102.25 C 64.875 62.4855 97.1105 30.25 136.875 30.25 z M 156.53125 71.5 L 171.09375 86.90625 L 192.03125 83.65625 L 181.875 102.25 L 191.4375 121.15625 L 170.625 117.25 L 155.5625 132.21875 L 152.875 111.1875 L 134 101.5 L 153.15625 92.4375 L 156.53125 71.5 z "
       transform="translate(0,796.36215)"
       id="path7157" />
    
  </g>
</svg>
