<?xml version="1.0" encoding="UTF-8" standalone="no"?>
<svg
   xmlns:dc="http://purl.org/dc/elements/1.1/"
   xmlns:cc="http://creativecommons.org/ns#"
   xmlns:rdf="http://www.w3.org/1999/02/22-rdf-syntax-ns#"
   xmlns:svg="http://www.w3.org/2000/svg"
   xmlns="http://www.w3.org/2000/svg"
   xmlns:sodipodi="http://sodipodi.sourceforge.net/DTD/sodipodi-0.dtd"
   xmlns:inkscape="http://www.inkscape.org/namespaces/inkscape"
   width="2520"
   height="2520"
   viewBox="0 0 26880 26880"
   id="svg3064"
   version="1.1"
   inkscape:version="0.48.4 r9939"
   sodipodi:docname="cinema.svg">
  <metadata
     id="metadata3072">
    <rdf:RDF>
      <cc:Work
         rdf:about="">
        <dc:format>image/svg+xml</dc:format>
        <dc:type
           rdf:resource="http://purl.org/dc/dcmitype/StillImage" />
        <dc:title></dc:title>
      </cc:Work>
    </rdf:RDF>
  </metadata>
  <defs
     id="defs3070">
    <inkscape:perspective
       sodipodi:type="inkscape:persp3d"
       inkscape:vp_x="0 : 225.5 : 1"
       inkscape:vp_y="0 : 1000 : 0"
       inkscape:vp_z="301 : 225.5 : 1"
       inkscape:persp3d-origin="150.5 : 150.33333 : 1"
       id="perspective2486" />
    <inkscape:perspective
       id="perspective13"
       inkscape:persp3d-origin="300.5 : 250.33333 : 1"
       inkscape:vp_z="601 : 375.5 : 1"
       inkscape:vp_y="0 : 1000 : 0"
       inkscape:vp_x="0 : 375.5 : 1"
       sodipodi:type="inkscape:persp3d" />
    <inkscape:perspective
       id="perspective9"
       inkscape:persp3d-origin="372.04724 : 350.78739 : 1"
       inkscape:vp_z="744.09448 : 526.18109 : 1"
       inkscape:vp_y="0 : 1000 : 0"
       inkscape:vp_x="0 : 526.18109 : 1"
       sodipodi:type="inkscape:persp3d" />
  </defs>
  <sodipodi:namedview
     pagecolor="#ffffff"
     bordercolor="#666666"
     borderopacity="1"
     objecttolerance="6"
     gridtolerance="6"
     guidetolerance="6"
     inkscape:pageopacity="0"
     inkscape:pageshadow="2"
     inkscape:window-width="1600"
     inkscape:window-height="1147"
     id="namedview3068"
     showgrid="true"
     inkscape:snap-grids="true"
     inkscape:zoom="0.16"
     inkscape:cx="829.35306"
     inkscape:cy="967.71411"
     inkscape:window-x="0"
     inkscape:window-y="0"
     inkscape:window-maximized="1"
     inkscape:current-layer="g3324"
     showguides="true"
     inkscape:guide-bbox="true"
     inkscape:snap-to-guides="false">
    <inkscape:grid
       type="xygrid"
       id="grid3074"
       empspacing="2"
       visible="true"
       enabled="true"
       snapvisiblegridlinesonly="true"
       dotted="false"
       spacingx="315px"
       spacingy="315px"
       color="#00009b"
       opacity="0.1372549"
       empcolor="#00009b"
       empopacity="0.29411765" />
    <inkscape:grid
       type="xygrid"
       id="grid5379"
       empspacing="3"
       visible="true"
       enabled="true"
       snapvisiblegridlinesonly="true"
       color="#9b0000"
       opacity="0.11764706"
       empcolor="#9b0000"
       empopacity="0.39215686"
       spacingx="280px"
       spacingy="280px" />
    <inkscape:grid
       type="xygrid"
       id="grid5381"
       empspacing="2"
       visible="true"
       enabled="true"
       snapvisiblegridlinesonly="true"
       spacingx="252px"
       spacingy="252px"
       empcolor="#009b00"
       empopacity="0.23529412"
       color="#009b00"
       opacity="0.09803922" />
    <inkscape:grid
       type="xygrid"
       id="grid5383"
       empspacing="2"
       visible="true"
       enabled="true"
       snapvisiblegridlinesonly="true"
       spacingx="180px"
       spacingy="180px"
       color="#009b9b"
       opacity="0.07843137"
       empcolor="#009b9b"
       empopacity="0.15686275" />
    <inkscape:grid
       type="xygrid"
       id="grid3019"
       empspacing="5"
       visible="true"
       enabled="true"
       snapvisiblegridlinesonly="true"
       color="#9b0000"
       opacity="0.09803922"
       empcolor="#0000ff"
       empopacity="0"
       dotted="true"
       spacingx="140px"
       spacingy="140px" />
    <inkscape:grid
       type="xygrid"
       id="grid3013"
       empspacing="5"
       visible="true"
       enabled="false"
       snapvisiblegridlinesonly="true"
       spacingx="210px"
       spacingy="210px"
       color="#ff00ff"
       opacity="0.29411765" />
  </sodipodi:namedview>
  <g
     id="g4212">
    <text
       sodipodi:linespacing="125%"
       id="text2998"
       y="4924.4893"
       x="9930.1055"
       style="font-size:6048.16699219px;font-style:normal;font-variant:normal;font-weight:normal;font-stretch:normal;line-height:125%;letter-spacing:0px;word-spacing:0px;fill:#000000;fill-opacity:1;stroke:none;font-family:Liberation Sans;-inkscape-font-specification:Sans"
       xml:space="preserve"><tspan
         y="4924.4893"
         x="9930.1055"
         id="tspan3000"
         sodipodi:role="line" /></text>
    <g
       id="g4445"
       transform="matrix(10.666667,0,0,10.666667,-20763.958,4280.9699)">
      <g
         id="g3324"
         transform="matrix(4.8314063,0,0,4.8314063,1656.0154,-384.07686)"
         style="fill:#000000;fill-opacity:1">
        <path
           style="font-size:medium;font-style:normal;font-variant:normal;font-weight:normal;font-stretch:normal;text-indent:0;text-align:start;text-decoration:none;line-height:normal;letter-spacing:normal;word-spacing:normal;text-transform:none;direction:ltr;block-progression:tb;writing-mode:lr-tb;text-anchor:start;baseline-shift:baseline;color:#000000;fill:#150b0b;fill-opacity:1;fill-rule:nonzero;stroke:none;stroke-width:42.06031418;marker:none;visibility:visible;display:inline;overflow:visible;enable-background:accumulate;font-family:Sans;-inkscape-font-specification:Sans"
           d="M 1455.4062 10.84375 L 1391.2812 38.71875 L 1403.625 66.3125 L 1313.75 105.34375 L 1301.4062 77.75 L 312.6875 507.125 L 325.03125 534.75 L 235.15625 573.78125 L 222.8125 546.15625 L 167.625 570.125 L 209.09375 662.90625 L 572.03125 1475.0625 L 583.1875 1500.0312 L 593.8125 1523.7812 L 613.5 1567.8438 L 624.65625 1592.7812 L 987.59375 2404.9688 L 1029.0625 2497.7188 L 1122.25 2457.25 L 2223.625 1978.9375 L 2316.8125 1938.4688 L 2275.375 1845.6875 L 1901.2812 1008.5625 L 1877.0625 954.34375 L 1870.9688 940.75 L 1859.8125 915.8125 L 1496.875 103.625 L 1455.4062 10.84375 z M 1351.9062 277.34375 L 1643.0938 928.9375 L 728.125 1326.3125 L 436.9375 674.71875 L 1351.9062 277.34375 z M 1512.125 309.0625 L 1562.75 422.375 L 1472.875 461.4375 L 1422.2188 348.09375 L 1512.125 309.0625 z M 1671.25 665.125 L 1721.875 778.46875 L 1632 817.5 L 1581.3438 704.15625 L 1671.25 665.125 z M 433.5 777.46875 L 484.15625 890.8125 L 394.28125 929.84375 L 343.625 816.53125 L 433.5 777.46875 z M 1830.375 1021.2188 L 1881 1134.5625 L 1791.125 1173.5938 L 1740.4688 1060.25 L 1830.375 1021.2188 z M 592.625 1133.5625 L 643.28125 1246.9062 L 553.40625 1285.9375 L 502.75 1172.5938 L 592.625 1133.5625 z M 1756.3125 1182.2812 L 2047.5 1833.875 L 1132.5312 2231.25 L 841.34375 1579.6562 L 1756.3125 1182.2812 z M 1989.5 1377.3125 L 2040.1562 1490.625 L 1950.25 1529.6562 L 1899.625 1416.3438 L 1989.5 1377.3125 z M 751.75 1489.6562 L 802.40625 1602.9688 L 712.53125 1642.0312 L 661.875 1528.6875 L 751.75 1489.6562 z M 2148.625 1733.375 L 2199.2812 1846.7188 L 2109.375 1885.75 L 2058.75 1772.4062 L 2148.625 1733.375 z M 910.875 1845.7188 L 961.53125 1959.0625 L 871.65625 1998.0938 L 821 1884.75 L 910.875 1845.7188 z M 1070.0312 2201.8125 L 1120.6562 2315.1562 L 1030.7812 2354.1875 L 980.125 2240.8438 L 1070.0312 2201.8125 z "
           transform="matrix(0.20697907,0,0,0.20697907,60.149278,-3.5732982)"
           id="rect3589" />
        <g
           id="g4616"
           transform="matrix(19.382847,-8.4178197,8.5389964,19.107782,-74.929193,-34.143703)"
           style="fill:#ffffff;fill-opacity:1">
          <g
             transform="translate(11.517858,-1.7812501)"
             id="g4598"
             style="fill:#ffffff;fill-opacity:1" />
        </g>
      </g>
    </g>
  </g>
</svg>
