<?xml version="1.0" encoding="UTF-8" standalone="no"?>
<svg
   xmlns:dc="http://purl.org/dc/elements/1.1/"
   xmlns:cc="http://creativecommons.org/ns#"
   xmlns:rdf="http://www.w3.org/1999/02/22-rdf-syntax-ns#"
   xmlns:svg="http://www.w3.org/2000/svg"
   xmlns="http://www.w3.org/2000/svg"
   xmlns:sodipodi="http://sodipodi.sourceforge.net/DTD/sodipodi-0.dtd"
   xmlns:inkscape="http://www.inkscape.org/namespaces/inkscape"
   width="2520"
   height="2520"
   viewBox="0 0 26880 26880"
   id="svg3064"
   version="1.1"
   inkscape:version="0.48.4 r9939"
   sodipodi:docname="convenience.svg">
  <metadata
     id="metadata3072">
    <rdf:RDF>
      <cc:Work
         rdf:about="">
        <dc:format>image/svg+xml</dc:format>
        <dc:type
           rdf:resource="http://purl.org/dc/dcmitype/StillImage" />
        <dc:title></dc:title>
      </cc:Work>
    </rdf:RDF>
  </metadata>
  <defs
     id="defs3070">
    <inkscape:perspective
       sodipodi:type="inkscape:persp3d"
       inkscape:vp_x="0 : 225.5 : 1"
       inkscape:vp_y="0 : 1000 : 0"
       inkscape:vp_z="301 : 225.5 : 1"
       inkscape:persp3d-origin="150.5 : 150.33333 : 1"
       id="perspective2486" />
    <inkscape:perspective
       id="perspective13"
       inkscape:persp3d-origin="300.5 : 250.33333 : 1"
       inkscape:vp_z="601 : 375.5 : 1"
       inkscape:vp_y="0 : 1000 : 0"
       inkscape:vp_x="0 : 375.5 : 1"
       sodipodi:type="inkscape:persp3d" />
    <inkscape:perspective
       id="perspective9"
       inkscape:persp3d-origin="372.04724 : 350.78739 : 1"
       inkscape:vp_z="744.09448 : 526.18109 : 1"
       inkscape:vp_y="0 : 1000 : 0"
       inkscape:vp_x="0 : 526.18109 : 1"
       sodipodi:type="inkscape:persp3d" />
  </defs>
  <sodipodi:namedview
     pagecolor="#ffffff"
     bordercolor="#666666"
     borderopacity="1"
     objecttolerance="6"
     gridtolerance="6"
     guidetolerance="6"
     inkscape:pageopacity="0"
     inkscape:pageshadow="2"
     inkscape:window-width="1600"
     inkscape:window-height="1147"
     id="namedview3068"
     showgrid="true"
     inkscape:snap-grids="false"
     inkscape:zoom="0.11313709"
     inkscape:cx="-1738.6016"
     inkscape:cy="838.62809"
     inkscape:window-x="0"
     inkscape:window-y="0"
     inkscape:window-maximized="1"
     inkscape:current-layer="g3324"
     showguides="true"
     inkscape:guide-bbox="true"
     inkscape:snap-to-guides="false">
    <inkscape:grid
       type="xygrid"
       id="grid3074"
       empspacing="2"
       visible="true"
       enabled="true"
       snapvisiblegridlinesonly="true"
       dotted="false"
       spacingx="315px"
       spacingy="315px"
       color="#00009b"
       opacity="0.1372549"
       empcolor="#00009b"
       empopacity="0.29411765" />
    <inkscape:grid
       type="xygrid"
       id="grid5379"
       empspacing="3"
       visible="true"
       enabled="true"
       snapvisiblegridlinesonly="true"
       color="#9b0000"
       opacity="0.11764706"
       empcolor="#9b0000"
       empopacity="0.39215686"
       spacingx="280px"
       spacingy="280px" />
    <inkscape:grid
       type="xygrid"
       id="grid5381"
       empspacing="2"
       visible="true"
       enabled="true"
       snapvisiblegridlinesonly="true"
       spacingx="252px"
       spacingy="252px"
       empcolor="#009b00"
       empopacity="0.23529412"
       color="#009b00"
       opacity="0.09803922" />
    <inkscape:grid
       type="xygrid"
       id="grid5383"
       empspacing="2"
       visible="true"
       enabled="true"
       snapvisiblegridlinesonly="true"
       spacingx="180px"
       spacingy="180px"
       color="#009b9b"
       opacity="0.07843137"
       empcolor="#009b9b"
       empopacity="0.15686275" />
    <inkscape:grid
       type="xygrid"
       id="grid3019"
       empspacing="5"
       visible="true"
       enabled="true"
       snapvisiblegridlinesonly="true"
       color="#9b0000"
       opacity="0.09803922"
       empcolor="#0000ff"
       empopacity="0"
       dotted="true"
       spacingx="140px"
       spacingy="140px" />
    <inkscape:grid
       type="xygrid"
       id="grid3013"
       empspacing="5"
       visible="true"
       enabled="false"
       snapvisiblegridlinesonly="true"
       spacingx="210px"
       spacingy="210px"
       color="#ff00ff"
       opacity="0.29411765" />
  </sodipodi:namedview>
  <g
     id="g4212">
    <text
       sodipodi:linespacing="125%"
       id="text2998"
       y="4924.4893"
       x="9930.1055"
       style="font-size:6048.16699219px;font-style:normal;font-variant:normal;font-weight:normal;font-stretch:normal;line-height:125%;letter-spacing:0px;word-spacing:0px;fill:#000000;fill-opacity:1;stroke:none;font-family:Liberation Sans;-inkscape-font-specification:Sans"
       xml:space="preserve"><tspan
         y="4924.4893"
         x="9930.1055"
         id="tspan3000"
         sodipodi:role="line" /></text>
    <g
       id="g4445"
       transform="matrix(10.666667,0,0,10.666667,-20763.958,4280.9699)">
      <g
         id="g3324"
         transform="matrix(4.8314063,0,0,4.8314063,1656.0154,-384.07686)"
         style="fill:#000000;fill-opacity:1">
        <g
           id="g10747"
           transform="matrix(1.0687222,0,0,1.0687222,42.497782,46.426945)"
           style="stroke:#000000;stroke-opacity:1">
          <path
             style="font-size:medium;font-style:normal;font-variant:normal;font-weight:normal;font-stretch:normal;text-indent:0;text-align:start;text-decoration:none;line-height:normal;letter-spacing:normal;word-spacing:normal;text-transform:none;direction:ltr;block-progression:tb;writing-mode:lr-tb;text-anchor:start;baseline-shift:baseline;color:#000000;fill:#000000;fill-opacity:1;stroke:none;stroke-width:44.13441086;marker:none;visibility:visible;display:inline;overflow:visible;enable-background:accumulate;font-family:Sans;-inkscape-font-specification:Sans"
             d="m 1519.9688,220.5 a 100.01,100.01 0 0 0 -89.25,65.0625 l -243.5313,654.34375 a 100.01,100.01 0 0 0 -5.375,22.40625 l -856.28125,0 A 100.01,100.01 0 0 0 228.25,1085.2188 l 225.03125,959.875 A 100.01,100.01 0 0 0 551.125,2122.25 l 1493.3125,-6.6562 a 100.01,100.01 0 0 0 96.8437,-76.875 l 225.0313,-953.3438 a 100.01,100.01 0 0 0 -97.2813,-123.0625 l -795.9374,0 215.9687,-580.59375 a 100.01,100.01 0 0 0 -58.7187,-128.625 l -71.125,-26.40625 a 100.01,100.01 0 0 0 -39.25,-6.1875 z m -1068.25005,941.9062 175.875,0 0,195.2813 -128.71875,0 a 60.04385,60.04385 0 0 0 -1.34375,0.063 l -45.8125,-195.3438 z m 295.8125,0 274.59375,0 0,195.2813 -274.59375,0 0,-195.2813 z m 394.68755,0 292.7187,0 0,195.2813 -292.7187,0 0,-195.2813 z m 412.6562,0 283.7812,0 0,195.2813 -283.7812,0 0,-195.2813 z m 403.75,0 184.0938,0 -46.125,195.2813 -137.9688,0 0,-195.2813 z m -1432.9375,315.375 101.90625,0 0,238.3438 -45.96875,0 -55.9375,-238.3438 z m 221.84375,0 274.59375,0 0,238.3438 -274.59375,0 0,-238.3438 z m 394.68755,0 292.7187,0 0,238.3438 -292.7187,0 0,-238.3438 z m 412.6562,0 283.7812,0 0,238.3438 -283.7812,0 0,-238.3438 z m 403.75,0 109.5938,0 -56.3126,238.3438 -53.2812,0 0,-238.3438 z m -1348.875,358.2813 17.84375,0 0,76.0937 -17.84375,-76.0937 z m 137.78125,0 274.59375,0 0,84.0625 -274.59375,1.2188 0,-85.2813 z m 394.68755,0 292.7187,0 0,82.2187 -292.7187,1.3126 0,-83.5313 z m 412.6562,0 283.7812,0 0,80.4375 -283.7812,1.25 0,-81.6875 z m 403.75,0 24.9688,0 -18.875,79.875 -6.0938,0.031 0,-79.9063 z"
             transform="matrix(0.22067206,0,0,0.22067206,-23.649203,-69.85467)"
             id="path3264"
             inkscape:connector-curvature="0" />
        </g>
      </g>
    </g>
  </g>
</svg>
