<?xml version="1.0" encoding="UTF-8" standalone="no"?>
<svg
   xmlns:dc="http://purl.org/dc/elements/1.1/"
   xmlns:cc="http://creativecommons.org/ns#"
   xmlns:rdf="http://www.w3.org/1999/02/22-rdf-syntax-ns#"
   xmlns:svg="http://www.w3.org/2000/svg"
   xmlns="http://www.w3.org/2000/svg"
   xmlns:sodipodi="http://sodipodi.sourceforge.net/DTD/sodipodi-0.dtd"
   xmlns:inkscape="http://www.inkscape.org/namespaces/inkscape"
   width="2520"
   height="2520"
   viewBox="0 0 26880 26880"
   id="svg3064"
   version="1.1"
   inkscape:version="0.48.4 r9939"
   sodipodi:docname="courthouse.svg">
  <metadata
     id="metadata3072">
    <rdf:RDF>
      <cc:Work
         rdf:about="">
        <dc:format>image/svg+xml</dc:format>
        <dc:type
           rdf:resource="http://purl.org/dc/dcmitype/StillImage" />
        <dc:title />
      </cc:Work>
    </rdf:RDF>
  </metadata>
  <defs
     id="defs3070">
    <inkscape:perspective
       sodipodi:type="inkscape:persp3d"
       inkscape:vp_x="0 : 225.5 : 1"
       inkscape:vp_y="0 : 1000 : 0"
       inkscape:vp_z="301 : 225.5 : 1"
       inkscape:persp3d-origin="150.5 : 150.33333 : 1"
       id="perspective2486" />
    <inkscape:perspective
       id="perspective13"
       inkscape:persp3d-origin="300.5 : 250.33333 : 1"
       inkscape:vp_z="601 : 375.5 : 1"
       inkscape:vp_y="0 : 1000 : 0"
       inkscape:vp_x="0 : 375.5 : 1"
       sodipodi:type="inkscape:persp3d" />
    <inkscape:perspective
       id="perspective9"
       inkscape:persp3d-origin="372.04724 : 350.78739 : 1"
       inkscape:vp_z="744.09448 : 526.18109 : 1"
       inkscape:vp_y="0 : 1000 : 0"
       inkscape:vp_x="0 : 526.18109 : 1"
       sodipodi:type="inkscape:persp3d" />
  </defs>
  <sodipodi:namedview
     pagecolor="#ffffff"
     bordercolor="#666666"
     borderopacity="1"
     objecttolerance="6"
     gridtolerance="6"
     guidetolerance="6"
     inkscape:pageopacity="0"
     inkscape:pageshadow="2"
     inkscape:window-width="1600"
     inkscape:window-height="1147"
     id="namedview3068"
     showgrid="true"
     inkscape:snap-grids="true"
     inkscape:zoom="0.16"
     inkscape:cx="534.55825"
     inkscape:cy="865.82271"
     inkscape:window-x="0"
     inkscape:window-y="0"
     inkscape:window-maximized="1"
     inkscape:current-layer="g3324"
     showguides="true"
     inkscape:guide-bbox="true"
     inkscape:snap-to-guides="false">
    <inkscape:grid
       type="xygrid"
       id="grid3074"
       empspacing="2"
       visible="true"
       enabled="true"
       snapvisiblegridlinesonly="true"
       dotted="false"
       spacingx="315px"
       spacingy="315px"
       color="#00009b"
       opacity="0.1372549"
       empcolor="#00009b"
       empopacity="0.29411765" />
    <inkscape:grid
       type="xygrid"
       id="grid5379"
       empspacing="3"
       visible="true"
       enabled="true"
       snapvisiblegridlinesonly="true"
       color="#9b0000"
       opacity="0.11764706"
       empcolor="#9b0000"
       empopacity="0.39215686"
       spacingx="280px"
       spacingy="280px" />
    <inkscape:grid
       type="xygrid"
       id="grid5381"
       empspacing="2"
       visible="true"
       enabled="true"
       snapvisiblegridlinesonly="true"
       spacingx="252px"
       spacingy="252px"
       empcolor="#009b00"
       empopacity="0.23529412"
       color="#009b00"
       opacity="0.09803922" />
    <inkscape:grid
       type="xygrid"
       id="grid5383"
       empspacing="2"
       visible="true"
       enabled="true"
       snapvisiblegridlinesonly="true"
       spacingx="180px"
       spacingy="180px"
       color="#009b9b"
       opacity="0.07843137"
       empcolor="#009b9b"
       empopacity="0.15686275" />
    <inkscape:grid
       type="xygrid"
       id="grid3019"
       empspacing="5"
       visible="true"
       enabled="true"
       snapvisiblegridlinesonly="true"
       color="#9b0000"
       opacity="0.09803922"
       empcolor="#0000ff"
       empopacity="0"
       dotted="true"
       spacingx="140px"
       spacingy="140px" />
    <inkscape:grid
       type="xygrid"
       id="grid3013"
       empspacing="5"
       visible="true"
       enabled="false"
       snapvisiblegridlinesonly="true"
       spacingx="210px"
       spacingy="210px"
       color="#ff00ff"
       opacity="0.29411765" />
  </sodipodi:namedview>
  <g
     id="g4212">
    <text
       sodipodi:linespacing="125%"
       id="text2998"
       y="4924.4893"
       x="9930.1055"
       style="font-size:6048.16699219px;font-style:normal;font-variant:normal;font-weight:normal;font-stretch:normal;line-height:125%;letter-spacing:0px;word-spacing:0px;fill:#000000;fill-opacity:1;stroke:none;font-family:Liberation Sans;-inkscape-font-specification:Sans"
       xml:space="preserve"><tspan
         y="4924.4893"
         x="9930.1055"
         id="tspan3000"
         sodipodi:role="line" /></text>
    <g
       id="g4445"
       transform="matrix(10.666667,0,0,10.666667,-20763.958,4280.9699)">
      <g
         id="g3324"
         transform="matrix(4.8314063,0,0,4.8314063,1656.0154,-384.07686)"
         style="fill:#000000;fill-opacity:1">
        <path
           style="font-size:medium;font-style:normal;font-variant:normal;font-weight:normal;font-stretch:normal;text-indent:0;text-align:start;text-decoration:none;line-height:normal;letter-spacing:normal;word-spacing:normal;text-transform:none;direction:ltr;block-progression:tb;writing-mode:lr-tb;text-anchor:start;baseline-shift:baseline;color:#000000;fill:#000000;fill-opacity:1;stroke:none;stroke-width:373.33334351;marker:none;visibility:visible;display:inline;overflow:visible;enable-background:accumulate;font-family:Sans;-inkscape-font-specification:Sans"
           d="M 8.75 5.25 L 8.75 2525.25 L 2528.75 2525.25 L 2528.75 5.25 L 8.75 5.25 z M 288.75 285.25 L 2248.75 285.25 L 2248.75 2245.25 L 288.75 2245.25 L 288.75 285.25 z M 1261.6875 451.875 C 1244.138 451.875 1227.5452 526.33836 1212.5938 640 C 1129.3015 652.05286 1052.4303 676.91063 985.53125 721.75 C 899.80819 777.57468 816.59412 808.52797 736.40625 809 C 734.43426 809.15509 732.42086 809.21892 730.375 809.28125 C 724.03706 806.94768 717.2531 805.8016 710.5 805.90625 C 706.68348 805.98162 702.87469 806.4498 699.15625 807.3125 C 630.90993 797.57731 542.99489 754.96244 503.90625 716.84375 C 535.09651 759.62184 572.8659 846.53077 635.28125 900.84375 L 386.59375 1499.2188 C 379.79219 1515.6268 381.58207 1535.3498 391.25 1550.25 C 400.91789 1565.1502 418.18198 1574.807 435.9375 1575.2812 C 486.65949 1644.835 590.11374 1692.5312 709.4375 1692.5312 C 828.78136 1692.5312 932.19344 1644.8228 982.90625 1575.25 C 1000.5836 1574.7468 1017.7753 1565.124 1027.4375 1550.3125 C 1037.0998 1535.5009 1038.9753 1515.9125 1032.3125 1499.5312 L 804.28125 942.1875 C 884.83423 930.66489 933.84482 901.95528 985.53125 874.6875 C 1056.094 848.62168 1118.2935 803.73437 1195.5312 792.6875 C 1162.7165 1130.069 1140.8241 1615.2265 1138.8438 1750.625 L 842.28125 1750.625 L 842.28125 1959.1562 L 1254.5938 1959.1562 L 1270 1959.1562 L 1682.25 1959.1562 L 1682.25 1750.625 L 1391.875 1750.625 C 1391.875 1620.6371 1366.3974 1132.2747 1330.6562 792.9375 C 1407.1292 804.38383 1468.9417 848.80812 1539 874.6875 C 1590.6993 901.96224 1639.7543 930.67078 1720.3438 942.1875 L 1492.2812 1499.5312 C 1485.6031 1515.9103 1487.4705 1535.4915 1497.125 1550.3125 C 1506.7796 1565.1335 1523.9755 1574.7699 1541.6562 1575.2812 C 1592.3743 1644.843 1695.7927 1692.5312 1815.125 1692.5312 C 1934.469 1692.5312 2037.9433 1644.8228 2088.6562 1575.25 C 2106.3793 1574.73 2123.5816 1565.0393 2133.2188 1550.1562 C 2142.8559 1535.2732 2144.6522 1515.6032 2137.875 1499.2188 L 1889.2188 900.84375 C 1951.6539 846.53285 1989.4294 759.62948 2020.625 716.84375 C 1981.504 754.99423 1893.4891 797.68639 1825.2188 807.375 C 1820.8487 806.34741 1816.3639 805.84407 1811.875 805.90625 C 1805.8787 806.06472 1799.9088 807.2049 1794.2812 809.28125 C 1792.2029 809.22231 1790.1273 809.1575 1788.125 809 C 1707.9375 808.52797 1624.7231 777.57463 1539 721.75 C 1472.1938 676.97296 1395.4716 652.16526 1312.3125 640.09375 C 1296.4089 526.43322 1279.169 451.875 1261.6875 451.875 z M 1813.5 1005.125 L 2004.6562 1465.25 L 1625.1875 1465.25 L 1813.5 1005.125 z M 711.15625 1005.25 L 899.4375 1465.25 L 519.9375 1465.25 L 711.15625 1005.25 z "
           transform="matrix(0.20697907,0,0,0.20697907,60.149278,-3.5732982)"
           id="path2999" />
        <g
           id="layer1"
           transform="matrix(3.494293,0,0,3.494293,148.03933,-3186.2339)"
           style="stroke:#000000;stroke-opacity:1;stroke-width:11.84669214;stroke-miterlimit:4;stroke-dasharray:none" />
      </g>
    </g>
  </g>
</svg>
