<?xml version="1.0" encoding="UTF-8" standalone="no"?>
<svg
   xmlns:dc="http://purl.org/dc/elements/1.1/"
   xmlns:cc="http://creativecommons.org/ns#"
   xmlns:rdf="http://www.w3.org/1999/02/22-rdf-syntax-ns#"
   xmlns:svg="http://www.w3.org/2000/svg"
   xmlns="http://www.w3.org/2000/svg"
   xmlns:sodipodi="http://sodipodi.sourceforge.net/DTD/sodipodi-0.dtd"
   xmlns:inkscape="http://www.inkscape.org/namespaces/inkscape"
   width="2520"
   height="2520"
   viewBox="0 0 26880 26880"
   id="svg3064"
   version="1.1"
   inkscape:version="0.48.4 r9939"
   sodipodi:docname="dam.svg">
  <metadata
     id="metadata3072">
    <rdf:RDF>
      <cc:Work
         rdf:about="">
        <dc:format>image/svg+xml</dc:format>
        <dc:type
           rdf:resource="http://purl.org/dc/dcmitype/StillImage" />
        <dc:title />
      </cc:Work>
    </rdf:RDF>
  </metadata>
  <defs
     id="defs3070" />
  <sodipodi:namedview
     pagecolor="#ffffff"
     bordercolor="#666666"
     borderopacity="1"
     objecttolerance="6"
     gridtolerance="6"
     guidetolerance="6"
     inkscape:pageopacity="0"
     inkscape:pageshadow="2"
     inkscape:window-width="1600"
     inkscape:window-height="1147"
     id="namedview3068"
     showgrid="true"
     inkscape:snap-grids="true"
     inkscape:zoom="0.14928528"
     inkscape:cx="-1092.596"
     inkscape:cy="1625.5192"
     inkscape:window-x="0"
     inkscape:window-y="0"
     inkscape:window-maximized="1"
     inkscape:current-layer="svg3064"
     showguides="true"
     inkscape:guide-bbox="true"
     inkscape:snap-to-guides="true"
     inkscape:object-paths="true">
    <inkscape:grid
       type="xygrid"
       id="grid3074"
       empspacing="2"
       visible="true"
       enabled="true"
       snapvisiblegridlinesonly="true"
       dotted="false"
       spacingx="315px"
       spacingy="315px"
       color="#00009b"
       opacity="0.1372549"
       empcolor="#00009b"
       empopacity="0.29411765" />
    <inkscape:grid
       type="xygrid"
       id="grid5379"
       empspacing="3"
       visible="true"
       enabled="true"
       snapvisiblegridlinesonly="true"
       color="#9b0000"
       opacity="0.11764706"
       empcolor="#9b0000"
       empopacity="0.39215686"
       spacingx="280px"
       spacingy="280px" />
    <inkscape:grid
       type="xygrid"
       id="grid5381"
       empspacing="2"
       visible="true"
       enabled="true"
       snapvisiblegridlinesonly="true"
       spacingx="252px"
       spacingy="252px"
       empcolor="#009b00"
       empopacity="0.23529412"
       color="#009b00"
       opacity="0.09803922" />
    <inkscape:grid
       type="xygrid"
       id="grid5383"
       empspacing="2"
       visible="true"
       enabled="true"
       snapvisiblegridlinesonly="true"
       spacingx="180px"
       spacingy="180px"
       color="#009b9b"
       opacity="0.07843137"
       empcolor="#009b9b"
       empopacity="0.15686275" />
    <inkscape:grid
       type="xygrid"
       id="grid3019"
       empspacing="5"
       visible="true"
       enabled="true"
       snapvisiblegridlinesonly="true"
       color="#9b0000"
       opacity="0.09803922"
       empcolor="#0000ff"
       empopacity="0"
       dotted="true"
       spacingx="140px"
       spacingy="140px" />
    <inkscape:grid
       type="xygrid"
       id="grid3013"
       empspacing="5"
       visible="true"
       enabled="false"
       snapvisiblegridlinesonly="true"
       spacingx="210px"
       spacingy="210px"
       color="#ff00ff"
       opacity="0.29411765" />
    <sodipodi:guide
       orientation="0,1"
       position="451.42857,771.42857"
       id="guide5329" />
  </sodipodi:namedview>
  <g
     id="g3338"
     transform="matrix(71.122021,-13.595361,12.408307,77.925983,-10997.585,-5827.762)"
     style="fill:#000000;fill-opacity:1;stroke:none" />
  <path
     style="fill:#000000;fill-opacity:1;stroke:none"
     d="M 1112.5625 201.46875 L 975.3125 202.125 L 975.3125 2219.0625 L 1625.5938 2219.0625 L 1207.6562 270.8125 C 1192.0637 230.27987 1155.0594 201.46875 1112.5625 201.46875 z M 8.25 368.9375 L 8.25 552.1875 L 862.1875 552.1875 L 862.1875 368.9375 L 8.25 368.9375 z M 8.25 647 L 8.25 830.21875 L 862.1875 830.21875 L 862.1875 647 L 8.25 647 z M 8.25 925.03125 L 8.25 1107.5938 L 862.1875 1107.5938 L 862.1875 925.03125 L 8.25 925.03125 z M 8.25 1202.375 L 8.25 1385.625 L 862.1875 1385.625 L 862.1875 1202.375 L 8.25 1202.375 z M 8.25 1480.75 L 8.25 1664 L 862.1875 1664 L 862.1875 1480.75 L 8.25 1480.75 z M 1931.9375 1737.0312 C 1897.3893 1737.0312 1865.288 1745.3948 1835.9375 1760.4688 C 1807.8102 1774.2033 1776.0126 1782.5625 1742.6875 1782.5625 C 1709.6683 1782.5625 1678.1765 1774.2033 1649.4375 1760.4688 L 1683.6875 1926.625 C 1702.643 1932.3197 1722.5092 1935 1742.6875 1935 C 1776.3184 1935 1807.8102 1927.2968 1835.9375 1913.5625 C 1864.9823 1898.4878 1897.3893 1890.0938 1931.9375 1890.0938 C 1966.1793 1890.0938 1998.2748 1898.4878 2027.625 1913.5625 C 2055.7525 1927.2968 2087.856 1935 2120.875 1935 C 2153.8942 1935 2185.3862 1927.2968 2214.125 1913.5625 C 2242.8642 1898.4878 2275.876 1890.0938 2309.8125 1890.0938 C 2343.7492 1890.0938 2376.4617 1898.4878 2405.8125 1913.5625 C 2433.9398 1927.2968 2465.7375 1935 2499.0625 1935 L 2499.0625 1782.5625 C 2465.4318 1782.5625 2433.9398 1774.2033 2405.8125 1760.4688 C 2376.7672 1745.3948 2344.0545 1737.0312 2309.8125 1737.0312 C 2275.5701 1737.0312 2242.8642 1745.3948 2214.125 1760.4688 C 2185.3862 1774.2033 2153.8942 1782.5625 2120.875 1782.5625 C 2087.856 1782.5625 2055.7525 1774.2033 2027.625 1760.4688 C 1998.2748 1745.3948 1965.8738 1737.0312 1931.9375 1737.0312 z M 8.25 1758.7812 L 8.25 1942.0312 L 862.1875 1942.0312 L 862.1875 1758.7812 L 8.25 1758.7812 z M 1931.9375 2018.0625 C 1897.3893 2018.0625 1865.288 2026.4572 1835.9375 2041.5312 C 1807.8102 2055.2657 1776.0126 2063.625 1742.6875 2063.625 C 1730.1525 2063.625 1717.629 2062.2734 1705.0938 2059.5938 L 1737.1875 2216.0312 L 1742.6875 2216.0312 C 1776.3184 2216.0312 1807.8102 2208.3281 1835.9375 2194.5938 C 1864.9823 2179.5191 1897.3893 2171.1562 1931.9375 2171.1562 C 1966.1793 2171.1562 1998.2748 2179.5191 2027.625 2194.5938 C 2055.7525 2208.3281 2087.856 2216.0312 2120.875 2216.0312 C 2153.8942 2216.0312 2185.3862 2208.3281 2214.125 2194.5938 C 2242.8642 2179.5191 2275.876 2171.1562 2309.8125 2171.1562 C 2343.7492 2171.1562 2376.4617 2179.5191 2405.8125 2194.5938 C 2433.9398 2208.3281 2465.7375 2216.0312 2499.0625 2216.0312 L 2499.0625 2063.625 C 2465.4318 2063.625 2433.9398 2055.2657 2405.8125 2041.5312 C 2376.7672 2026.4572 2344.0545 2018.0625 2309.8125 2018.0625 C 2275.5701 2018.0625 2242.8642 2026.4572 2214.125 2041.5312 C 2185.3862 2055.2657 2153.8942 2063.625 2120.875 2063.625 C 2087.856 2063.625 2055.7525 2055.2657 2027.625 2041.5312 C 1998.2748 2026.4572 1965.8738 2018.0625 1931.9375 2018.0625 z M 8.25 2036.1562 L 8.25 2219.4062 L 862.1875 2219.4062 L 862.1875 2036.1562 L 8.25 2036.1562 z "
     transform="scale(10.666667,10.666667)"
     id="rect2311" />
</svg>
