<?xml version="1.0" encoding="UTF-8" standalone="no"?>
<svg
   xmlns:dc="http://purl.org/dc/elements/1.1/"
   xmlns:cc="http://creativecommons.org/ns#"
   xmlns:rdf="http://www.w3.org/1999/02/22-rdf-syntax-ns#"
   xmlns:svg="http://www.w3.org/2000/svg"
   xmlns="http://www.w3.org/2000/svg"
   xmlns:sodipodi="http://sodipodi.sourceforge.net/DTD/sodipodi-0.dtd"
   xmlns:inkscape="http://www.inkscape.org/namespaces/inkscape"
   width="2520"
   height="2520"
   viewBox="0 0 26880 26880"
   id="svg3064"
   version="1.1"
   inkscape:version="0.48.3.1 r9886"
   sodipodi:docname="drinking-water.svg">
  <metadata
     id="metadata3072">
    <rdf:RDF>
      <cc:Work
         rdf:about="">
        <dc:format>image/svg+xml</dc:format>
        <dc:type
           rdf:resource="http://purl.org/dc/dcmitype/StillImage" />
        <dc:title></dc:title>
      </cc:Work>
    </rdf:RDF>
  </metadata>
  <defs
     id="defs3070">
    <marker
       inkscape:stockid="Arrow2Send"
       orient="auto"
       refY="0.0"
       refX="0.0"
       id="Arrow2Send"
       style="overflow:visible;">
      <path
         id="path4937"
         style="fill-rule:evenodd;stroke-width:0.62500000;stroke-linejoin:round;"
         d="M 8.7185878,4.0337352 L -2.2072895,0.016013256 L 8.7185884,-4.0017078 C 6.9730900,-1.6296469 6.9831476,1.6157441 8.7185878,4.0337352 z "
         transform="scale(0.3) rotate(180) translate(-2.3,0)" />
    </marker>
    <marker
       inkscape:stockid="Tail"
       orient="auto"
       refY="0.0"
       refX="0.0"
       id="Tail"
       style="overflow:visible">
      <g
         id="g4940"
         transform="scale(-1.2)">
        <path
           id="path4942"
           d="M -3.8048674,-3.9585227 L 0.54352094,0"
           style="fill:none;fill-rule:evenodd;stroke:#000000;stroke-width:0.8;stroke-linecap:round" />
        <path
           id="path4944"
           d="M -1.2866832,-3.9585227 L 3.0617053,0"
           style="fill:none;fill-rule:evenodd;stroke:#000000;stroke-width:0.8;stroke-linecap:round" />
        <path
           id="path4946"
           d="M 1.3053582,-3.9585227 L 5.6537466,0"
           style="fill:none;fill-rule:evenodd;stroke:#000000;stroke-width:0.8;stroke-linecap:round" />
        <path
           id="path4948"
           d="M -3.8048674,4.1775838 L 0.54352094,0.21974226"
           style="fill:none;fill-rule:evenodd;stroke:#000000;stroke-width:0.8;stroke-linecap:round" />
        <path
           id="path4950"
           d="M -1.2866832,4.1775838 L 3.0617053,0.21974226"
           style="fill:none;fill-rule:evenodd;stroke:#000000;stroke-width:0.8;stroke-linecap:round" />
        <path
           id="path4952"
           d="M 1.3053582,4.1775838 L 5.6537466,0.21974226"
           style="fill:none;fill-rule:evenodd;stroke:#000000;stroke-width:0.8;stroke-linecap:round" />
      </g>
    </marker>
    <marker
       inkscape:stockid="Arrow1Lstart"
       orient="auto"
       refY="0.0"
       refX="0.0"
       id="Arrow1Lstart"
       style="overflow:visible">
      <path
         id="path4904"
         d="M 0.0,0.0 L 5.0,-5.0 L -12.5,0.0 L 5.0,5.0 L 0.0,0.0 z "
         style="fill-rule:evenodd;stroke:#000000;stroke-width:1.0pt"
         transform="scale(0.8) translate(12.5,0)" />
    </marker>
    <clipPath
       id="clip0">
      <rect
         y="0"
         x="0"
         width="233"
         height="233"
         id="rect4533" />
    </clipPath>
  </defs>
  <sodipodi:namedview
     pagecolor="#ffffff"
     bordercolor="#666666"
     borderopacity="1"
     objecttolerance="6"
     gridtolerance="6"
     guidetolerance="6"
     inkscape:pageopacity="0"
     inkscape:pageshadow="2"
     inkscape:window-width="1600"
     inkscape:window-height="1147"
     id="namedview3068"
     showgrid="true"
     inkscape:snap-grids="false"
     inkscape:zoom="0.34"
     inkscape:cx="1169.7573"
     inkscape:cy="1178.083"
     inkscape:window-x="0"
     inkscape:window-y="0"
     inkscape:window-maximized="1"
     inkscape:current-layer="surface0"
     showguides="true"
     inkscape:guide-bbox="true"
     inkscape:snap-to-guides="false"
     inkscape:object-paths="true">
    <inkscape:grid
       type="xygrid"
       id="grid3074"
       empspacing="2"
       visible="true"
       enabled="true"
       snapvisiblegridlinesonly="true"
       dotted="false"
       spacingx="315px"
       spacingy="315px"
       color="#00009b"
       opacity="0.1372549"
       empcolor="#00009b"
       empopacity="0.29411765" />
    <inkscape:grid
       type="xygrid"
       id="grid5379"
       empspacing="3"
       visible="true"
       enabled="true"
       snapvisiblegridlinesonly="true"
       color="#9b0000"
       opacity="0.11764706"
       empcolor="#9b0000"
       empopacity="0.39215686"
       spacingx="280px"
       spacingy="280px" />
    <inkscape:grid
       type="xygrid"
       id="grid5381"
       empspacing="2"
       visible="true"
       enabled="true"
       snapvisiblegridlinesonly="true"
       spacingx="252px"
       spacingy="252px"
       empcolor="#009b00"
       empopacity="0.23529412"
       color="#009b00"
       opacity="0.09803922" />
    <inkscape:grid
       type="xygrid"
       id="grid5383"
       empspacing="2"
       visible="true"
       enabled="true"
       snapvisiblegridlinesonly="true"
       spacingx="180px"
       spacingy="180px"
       color="#009b9b"
       opacity="0.07843137"
       empcolor="#009b9b"
       empopacity="0.15686275" />
    <inkscape:grid
       type="xygrid"
       id="grid3019"
       empspacing="5"
       visible="true"
       enabled="true"
       snapvisiblegridlinesonly="true"
       color="#9b0000"
       opacity="0.09803922"
       empcolor="#0000ff"
       empopacity="0"
       dotted="true"
       spacingx="140px"
       spacingy="140px" />
    <inkscape:grid
       type="xygrid"
       id="grid3013"
       empspacing="5"
       visible="true"
       enabled="false"
       snapvisiblegridlinesonly="true"
       spacingx="210px"
       spacingy="210px"
       color="#ff00ff"
       opacity="0.29411765" />
  </sodipodi:namedview>
  <g
     transform="matrix(128.05184,0,0,128.05184,-2243.5294,-2187.0589)"
     id="surface0"
     clip-path="url(#clip0)">
    <path
       style="font-size:medium;font-style:normal;font-variant:normal;font-weight:normal;font-stretch:normal;text-indent:0;text-align:start;text-decoration:none;line-height:normal;letter-spacing:normal;word-spacing:normal;text-transform:none;direction:ltr;block-progression:tb;writing-mode:lr-tb;text-anchor:start;baseline-shift:baseline;color:#000000;fill:#000000;fill-opacity:1;stroke:none;stroke-width:560;marker:none;visibility:visible;display:inline;overflow:visible;enable-background:accumulate;font-family:Sans;-inkscape-font-specification:Sans"
       d="m 1332.9375,-0.71875 c -99.1311,0 -184.886,57.185553 -226.1563,140.34375 L 577.34375,98.8125 492.9375,386.46875 l 612.1563,-26.1875 c 25.4579,53.30204 69.0804,96.26991 122.8437,120.90625 l 0,238.8125 -60.0625,0 c -46.6043,0 -228.24555,25.2617 -298.90625,36 -21.3595,36.78334 -22.93031,28.48854 -22.875,84 54.70199,39.19117 122.71711,60 99.1875,140 0,0 -281.27295,-0.47023 -449.40625,0 -0.24058,6.7e-4 -0.54067,-6.7e-4 -0.78125,0 l 0,0.0313 c -95.98321,0.23181 -190.79786,43.0494 -250.75,94.4376 -60.11497,51.5271 -94.41622,106.9571 -120.3125,158.75 C 72.238695,1336.804 51.550709,1435.2893 35.9375,1528.9689 4.7111064,1716.3269 5.875,1890 5.875,1890 l 458.94117,5.8824 c 0,0 -2.10426,-145.7399 14.70037,-215.8824 16.66251,-69.5493 22.30047,-161.2672 84.00552,-197.4228 117.25006,-68.7019 224.66264,-41.7866 405.29044,44.1287 227.0588,107.9999 467.2585,108.8217 703.0625,13.2941 189,-76.5664 191.2237,-79.9652 851.0625,-79.4062 L 2526.4062,980 l -788.1874,0 c -44.1179,-80 26.8087,-104.32038 77.6562,-140 -1.2493,-57.6731 0.1885,-53.35433 -20.0625,-84 -73.6215,-11.24356 -225.5305,-36 -279.3437,-36 l -63.5313,0 0,-246.3125 c 46.9232,-25.41287 84.8676,-65.25997 107.9063,-113.59375 l 612.0937,29.3125 L 2085.2812,98.8125 1561.75,140 l -2.4688,0 C 1518.083,56.638864 1432.2173,-0.71875 1332.9375,-0.71875 z M 179.5625,1979 c 0,0 -180.9208335,212.1725 -173.34375,338.8125 4.916494,82.1721 55.821746,198.2669 137.875,204.875 86.12883,6.9365 161.3058,-104.1815 177.3125,-189.0937 C 344.98822,2208.4965 179.5625,1979 179.5625,1979 z"
       transform="matrix(0.0832996,0,0,0.0832996,17.520478,17.07948)"
       id="path6789"
       inkscape:connector-curvature="0"
       sodipodi:nodetypes="sccccccsccccccsssccaasscccccscccccccscsssc" />
    <rect
       style="fill:none;stroke:none"
       id="rect6809"
       width="127.42878"
       height="40.914806"
       x="50.350323"
       y="11.150509" />
    <rect
       style="fill:none;stroke:none"
       id="rect6811"
       width="100.98851"
       height="61.053707"
       x="48.831329"
       y="14.335493" />
    <rect
       style="fill:none;stroke:none"
       id="rect6813"
       width="154.59425"
       height="72.715652"
       x="54.270302"
       y="14.335492" />
    <rect
       style="fill:none;stroke:none"
       id="rect6815"
       width="139.94333"
       height="59.975712"
       x="58.827282"
       y="17.079479" />
  </g>
</svg>
