<?xml version="1.0" encoding="UTF-8" standalone="no"?>
<svg
   xmlns:dc="http://purl.org/dc/elements/1.1/"
   xmlns:cc="http://creativecommons.org/ns#"
   xmlns:rdf="http://www.w3.org/1999/02/22-rdf-syntax-ns#"
   xmlns:svg="http://www.w3.org/2000/svg"
   xmlns="http://www.w3.org/2000/svg"
   xmlns:sodipodi="http://sodipodi.sourceforge.net/DTD/sodipodi-0.dtd"
   xmlns:inkscape="http://www.inkscape.org/namespaces/inkscape"
   width="2520"
   height="2520"
   viewBox="0 0 26880 26880"
   id="svg3064"
   version="1.1"
   inkscape:version="0.48.4 r9939"
   sodipodi:docname="school.svg">
  <metadata
     id="metadata3072">
    <rdf:RDF>
      <cc:Work
         rdf:about="">
        <dc:format>image/svg+xml</dc:format>
        <dc:type
           rdf:resource="http://purl.org/dc/dcmitype/StillImage" />
        <dc:title></dc:title>
      </cc:Work>
    </rdf:RDF>
  </metadata>
  <defs
     id="defs3070" />
  <sodipodi:namedview
     pagecolor="#ffffff"
     bordercolor="#666666"
     borderopacity="1"
     objecttolerance="6"
     gridtolerance="6"
     guidetolerance="6"
     inkscape:pageopacity="0"
     inkscape:pageshadow="2"
     inkscape:window-width="1600"
     inkscape:window-height="1147"
     id="namedview3068"
     showgrid="true"
     inkscape:snap-grids="true"
     inkscape:zoom="0.1767767"
     inkscape:cx="89.520554"
     inkscape:cy="39.980038"
     inkscape:window-x="0"
     inkscape:window-y="0"
     inkscape:window-maximized="1"
     inkscape:current-layer="svg3064"
     showguides="true"
     inkscape:guide-bbox="true"
     inkscape:snap-to-guides="false"
     inkscape:object-paths="true">
    <inkscape:grid
       type="xygrid"
       id="grid3074"
       empspacing="2"
       visible="true"
       enabled="true"
       snapvisiblegridlinesonly="true"
       dotted="false"
       spacingx="315px"
       spacingy="315px"
       color="#00009b"
       opacity="0.1372549"
       empcolor="#00009b"
       empopacity="0.29411765" />
    <inkscape:grid
       type="xygrid"
       id="grid5379"
       empspacing="3"
       visible="true"
       enabled="true"
       snapvisiblegridlinesonly="true"
       color="#9b0000"
       opacity="0.11764706"
       empcolor="#9b0000"
       empopacity="0.39215686"
       spacingx="280px"
       spacingy="280px" />
    <inkscape:grid
       type="xygrid"
       id="grid5381"
       empspacing="2"
       visible="true"
       enabled="true"
       snapvisiblegridlinesonly="true"
       spacingx="252px"
       spacingy="252px"
       empcolor="#009b00"
       empopacity="0.23529412"
       color="#009b00"
       opacity="0.09803922" />
    <inkscape:grid
       type="xygrid"
       id="grid5383"
       empspacing="2"
       visible="true"
       enabled="true"
       snapvisiblegridlinesonly="true"
       spacingx="180px"
       spacingy="180px"
       color="#009b9b"
       opacity="0.07843137"
       empcolor="#009b9b"
       empopacity="0.15686275" />
    <inkscape:grid
       type="xygrid"
       id="grid3019"
       empspacing="5"
       visible="true"
       enabled="true"
       snapvisiblegridlinesonly="true"
       color="#9b0000"
       opacity="0.09803922"
       empcolor="#0000ff"
       empopacity="0"
       dotted="true"
       spacingx="140px"
       spacingy="140px" />
    <inkscape:grid
       type="xygrid"
       id="grid3013"
       empspacing="5"
       visible="true"
       enabled="false"
       snapvisiblegridlinesonly="true"
       spacingx="210px"
       spacingy="210px"
       color="#ff00ff"
       opacity="0.29411765" />
  </sodipodi:namedview>
  <path
     style="fill:#ffffff;fill-opacity:1;stroke:none"
     d="M 12532.752,25515.518 C 10555.356,25324.794 8604.4322,24396.938 7156.8704,22958.758 5767.2361,21578.13 4890.122,19830.022 4604.0129,17870.855 c -95.5362,-654.196 -95.9063,-1813.692 -0.7893,-2472.019 514.7151,-3562.451 3111.5747,-6475.562 6588.3694,-7390.717 782.963,-206.09 1314.602,-269.935 2247.752,-269.935 1209.32,0 2020.294,141.153 3087.699,537.424 2482.491,921.617 4431.871,2895.876 5321.474,5389.389 679.194,1903.748 674.47,4113.226 -12.807,5989.449 -463.768,1266.057 -1141.465,2330.969 -2081.845,3271.35 -1918.985,1918.986 -4516.613,2850.577 -7221.114,2589.722 l 0,0 z"
     id="path3060"
     inkscape:connector-curvature="0" />
  <path
     style="fill:#000000;fill-opacity:1;fill-rule:nonzero;stroke:none"
     d="M 948.96875 7.5625 C 847.32007 7.5625 793.42498 63.04277 768.53125 128 L 636.375 469.21875 C 583.99079 475.93585 491.125 537.42129 491.125 653.90625 L 491.125 1087.8125 L 619.75 1087.8125 L 619.75 1226.5625 C 619.75 1281.3971 644.66103 1318.4179 678.5 1337.8125 L 520.53125 1337.8125 L 520.53125 2523.5625 L 2101.5312 2523.5625 L 2101.5312 1337.8125 L 1913.5625 1337.8125 C 1947.4014 1318.4179 1972.3121 1281.3971 1972.3125 1226.5625 L 1972.3125 1087.8125 L 2100.9375 1087.8125 L 2100.9375 653.90625 C 2100.9375 537.42129 2008.0727 475.93585 1955.6875 469.21875 L 1823.4062 128 C 1798.5125 63.04277 1744.5867 7.5625 1642.9375 7.5625 L 1456.1562 7.5625 L 1138.0312 7.5625 L 948.96875 7.5625 z M 947.4375 131.8125 L 1295.6875 131.8125 L 1295.9688 131.8125 L 1296.0938 131.8125 L 1644.5 131.8125 C 1688.0615 132.21822 1706.7096 159.46816 1719.1562 197.1875 L 1818.75 465.6875 L 1296.0938 465.6875 L 1295.9688 465.6875 L 1295.6875 465.6875 L 773.15625 465.6875 L 872.75 197.1875 C 885.19682 159.46816 903.87106 132.21822 947.4375 131.8125 z M 744.4375 596.28125 C 806.07692 596.28125 856 647.72201 856 711.25 C 856 774.7827 806.07692 826.34375 744.4375 826.34375 C 682.80289 826.34375 632.84375 774.7827 632.84375 711.25 C 632.84375 647.72201 682.80289 596.28125 744.4375 596.28125 z M 1847.6562 596.28125 C 1909.2955 596.28125 1959.219 647.72201 1959.2188 711.25 C 1959.2188 774.7827 1909.2955 826.34375 1847.6562 826.34375 C 1786.0215 826.34375 1735.9375 774.7827 1735.9375 711.25 C 1735.9375 647.72201 1786.0215 596.28125 1847.6562 596.28125 z M 861.34375 1087.8125 L 1295.9688 1087.8125 L 1296.0938 1087.8125 L 1730.7188 1087.8125 L 1730.7188 1226.5625 C 1730.7188 1281.1941 1756.0515 1318.3454 1790.3125 1337.8125 L 801.75 1337.8125 C 836.01121 1318.3454 861.34375 1281.1941 861.34375 1226.5625 L 861.34375 1087.8125 z M 787.25 1592.5312 L 894.59375 1592.5312 L 894.59375 2183.5 L 1025.0938 2183.5 L 1025.0938 2286.4062 L 640.46875 2286.4062 L 640.46875 2183.5 L 781.3125 2183.5 L 781.3125 1710.2188 L 644.90625 1814.1562 L 644.90625 1705.3125 L 787.25 1592.5312 z M 1730.7812 1592.5312 L 1838.125 1592.5312 L 1838.125 2183.5 L 1968.625 2183.5 L 1968.625 2286.4062 L 1584.0312 2286.4062 L 1584.0312 2183.5 L 1724.875 2183.5 L 1724.875 1710.2188 L 1588.4375 1814.1562 L 1588.4375 1705.3125 L 1730.7812 1592.5312 z M 1245.2188 1694.9688 L 1336.3438 1694.9688 L 1336.3438 1895.875 L 1498.8438 1895.875 L 1498.8438 2006.2188 L 1336.3438 2006.2188 L 1336.3438 2207.125 L 1245.2188 2207.125 L 1245.2188 2006.2188 L 1084.1875 2006.2188 L 1084.1875 1895.875 L 1245.2188 1895.875 L 1245.2188 1694.9688 z "
     transform="scale(10.666667,10.666667)"
     id="rect7800" />
  <g
     style="font-size:9526.18164061999959813px;font-style:normal;font-variant:normal;font-weight:normal;font-stretch:normal;line-height:125%;letter-spacing:0px;word-spacing:0px;fill:#ffffff;fill-opacity:1;stroke:none;font-family:Liberation Sans;-inkscape-font-specification:Liberation Sans"
     id="text7810" />
</svg>
