<?xml version="1.0" encoding="UTF-8" standalone="no"?>
<svg
   xmlns:dc="http://purl.org/dc/elements/1.1/"
   xmlns:cc="http://creativecommons.org/ns#"
   xmlns:rdf="http://www.w3.org/1999/02/22-rdf-syntax-ns#"
   xmlns:svg="http://www.w3.org/2000/svg"
   xmlns="http://www.w3.org/2000/svg"
   xmlns:sodipodi="http://sodipodi.sourceforge.net/DTD/sodipodi-0.dtd"
   xmlns:inkscape="http://www.inkscape.org/namespaces/inkscape"
   width="2520"
   height="2520"
   viewBox="0 0 26880 26880"
   id="svg3064"
   version="1.1"
   inkscape:version="0.48.4 r9939"
   sodipodi:docname="dry_cleaning.svg">
  <metadata
     id="metadata3072">
    <rdf:RDF>
      <cc:Work
         rdf:about="">
        <dc:format>image/svg+xml</dc:format>
        <dc:type
           rdf:resource="http://purl.org/dc/dcmitype/StillImage" />
        <dc:title></dc:title>
      </cc:Work>
    </rdf:RDF>
  </metadata>
  <defs
     id="defs3070">
    <inkscape:perspective
       sodipodi:type="inkscape:persp3d"
       inkscape:vp_x="0 : 225.5 : 1"
       inkscape:vp_y="0 : 1000 : 0"
       inkscape:vp_z="301 : 225.5 : 1"
       inkscape:persp3d-origin="150.5 : 150.33333 : 1"
       id="perspective2486" />
    <inkscape:perspective
       id="perspective13"
       inkscape:persp3d-origin="300.5 : 250.33333 : 1"
       inkscape:vp_z="601 : 375.5 : 1"
       inkscape:vp_y="0 : 1000 : 0"
       inkscape:vp_x="0 : 375.5 : 1"
       sodipodi:type="inkscape:persp3d" />
    <inkscape:perspective
       id="perspective9"
       inkscape:persp3d-origin="372.04724 : 350.78739 : 1"
       inkscape:vp_z="744.09448 : 526.18109 : 1"
       inkscape:vp_y="0 : 1000 : 0"
       inkscape:vp_x="0 : 526.18109 : 1"
       sodipodi:type="inkscape:persp3d" />
    <clipPath
       id="clipoutline1"
       clipPathUnits="userSpaceOnUse">
      <path
         inkscape:connector-curvature="0"
         d="m 22.42,17.2 12.96,12.95 -2.5,8.78 -8.78,2.5 -12.96,-12.96 -5.86,5.86 14.89,21.46 17.56,-3.34 61.63,65.62 c 9.44,9.51 22.17,-4.75 13.34,-12.87 L 46.85,42.92 50.86,25.16 28.72,10.89 22.42,17.2 z m 81.06,91.97 c 1.68,-1.68 4.4,-1.68 6.08,0 1.68,1.68 1.68,4.4 0,6.08 -1.68,1.67 -4.4,1.67 -6.08,0 -1.68,-1.68 -1.68,-4.4 0,-6.08 z"
         id="outline1" />
    </clipPath>
  </defs>
  <sodipodi:namedview
     pagecolor="#ffffff"
     bordercolor="#666666"
     borderopacity="1"
     objecttolerance="6"
     gridtolerance="6"
     guidetolerance="6"
     inkscape:pageopacity="0"
     inkscape:pageshadow="2"
     inkscape:window-width="1600"
     inkscape:window-height="1147"
     id="namedview3068"
     showgrid="true"
     inkscape:snap-grids="false"
     inkscape:zoom="0.11313709"
     inkscape:cx="-1035.6751"
     inkscape:cy="2103.073"
     inkscape:window-x="0"
     inkscape:window-y="0"
     inkscape:window-maximized="1"
     inkscape:current-layer="g1970"
     showguides="true"
     inkscape:guide-bbox="true"
     inkscape:snap-to-guides="false">
    <inkscape:grid
       type="xygrid"
       id="grid3074"
       empspacing="2"
       visible="true"
       enabled="true"
       snapvisiblegridlinesonly="true"
       dotted="false"
       spacingx="315px"
       spacingy="315px"
       color="#00009b"
       opacity="0.1372549"
       empcolor="#00009b"
       empopacity="0.29411765" />
    <inkscape:grid
       type="xygrid"
       id="grid5379"
       empspacing="3"
       visible="true"
       enabled="true"
       snapvisiblegridlinesonly="true"
       color="#9b0000"
       opacity="0.11764706"
       empcolor="#9b0000"
       empopacity="0.39215686"
       spacingx="280px"
       spacingy="280px" />
    <inkscape:grid
       type="xygrid"
       id="grid5381"
       empspacing="2"
       visible="true"
       enabled="true"
       snapvisiblegridlinesonly="true"
       spacingx="252px"
       spacingy="252px"
       empcolor="#009b00"
       empopacity="0.23529412"
       color="#009b00"
       opacity="0.09803922" />
    <inkscape:grid
       type="xygrid"
       id="grid5383"
       empspacing="2"
       visible="true"
       enabled="true"
       snapvisiblegridlinesonly="true"
       spacingx="180px"
       spacingy="180px"
       color="#009b9b"
       opacity="0.07843137"
       empcolor="#009b9b"
       empopacity="0.15686275" />
    <inkscape:grid
       type="xygrid"
       id="grid3019"
       empspacing="5"
       visible="true"
       enabled="true"
       snapvisiblegridlinesonly="true"
       color="#9b0000"
       opacity="0.09803922"
       empcolor="#0000ff"
       empopacity="0"
       dotted="true"
       spacingx="140px"
       spacingy="140px" />
    <inkscape:grid
       type="xygrid"
       id="grid3013"
       empspacing="5"
       visible="true"
       enabled="false"
       snapvisiblegridlinesonly="true"
       spacingx="210px"
       spacingy="210px"
       color="#ff00ff"
       opacity="0.29411765" />
  </sodipodi:namedview>
  <g
     id="g4212">
    <text
       sodipodi:linespacing="125%"
       id="text2998"
       y="4924.4893"
       x="9930.1055"
       style="font-size:6048.16699219px;font-style:normal;font-variant:normal;font-weight:normal;font-stretch:normal;line-height:125%;letter-spacing:0px;word-spacing:0px;fill:#000000;fill-opacity:1;stroke:none;font-family:Liberation Sans;-inkscape-font-specification:Sans"
       xml:space="preserve"><tspan
         y="4924.4893"
         x="9930.1055"
         id="tspan3000"
         sodipodi:role="line" /></text>
    <g
       id="g4445"
       transform="matrix(10.666667,0,0,10.666667,-20763.958,4280.9699)">
      <g
         id="g3324"
         transform="matrix(4.8314063,0,0,4.8314063,1656.0154,-384.07686)"
         style="fill:#000000;fill-opacity:1">
        <g
           id="g19987"
           transform="matrix(0.20697907,0,0,0.20697907,303.00686,245.89345)"
           style="fill:#000000;fill-opacity:1;stroke:#000000;stroke-opacity:1">
          <g
             id="g2319"
             transform="matrix(4.0193763,0,0,4.0193763,2426.0211,-1127.3128)"
             style="fill:#000000;fill-opacity:1">
            <path
               inkscape:connector-curvature="0"
               id="path2323"
               style="fill:#000000;fill-opacity:1;stroke:none"
               d="" />
          </g>
          <g
             id="g2325"
             transform="matrix(4.0193763,0,0,4.0193763,2426.0211,-1127.3128)"
             style="fill:#000000;fill-opacity:1">
            <path
               inkscape:connector-curvature="0"
               id="path2329"
               style="fill:#000000;fill-opacity:1;stroke:none"
               d="" />
          </g>
          <g
             transform="matrix(4.0193763,0,0,4.0193763,-439.25405,-1002.0722)"
             id="g13"
             style="fill:#000000;fill-opacity:1" />
          <g
             id="g6443"
             transform="matrix(7.4587621,0,0,7.4587621,-1921.7122,-2158.8568)"
             style="fill:#000000;fill-opacity:1">
            <g
               id="g3338"
               transform="matrix(0.18734045,-0.03268436,0.03268436,0.18734045,202.39815,222.51218)"
               style="fill:#000000;fill-opacity:1;stroke:#000000;stroke-opacity:1" />
            <g
               id="g7010"
               transform="matrix(0.17833861,0,0,0.14132023,215.67304,227.85008)"
               style="fill:none;stroke:#000000;stroke-opacity:1">
              <g
                 id="g1970"
                 transform="matrix(0.75177497,0,0,0.94870001,-240.34299,-204.12185)"
                 style="fill:none;fill-opacity:1;stroke:#000000;stroke-width:30;stroke-linecap:round;stroke-linejoin:round;stroke-miterlimit:4;stroke-opacity:1;stroke-dasharray:none">
                <g
                   id="g3219"
                   transform="matrix(10.50823,0,0,10.50823,-809.67733,-5105.3162)"
                   style="fill:#000000;fill-opacity:1;stroke:#ffffff;stroke-opacity:1">
                  <path
                     style="fill:#000000;fill-opacity:1;fill-rule:evenodd;stroke:#ffffff;stroke-width:21.01646042;stroke-linecap:butt;stroke-linejoin:miter;stroke-miterlimit:4;stroke-opacity:1;stroke-dasharray:none"
                     d="M 1099.4375 3.0625 L 1099.4375 166.375 C 1099.4375 492.97539 527.90625 329.67463 527.90625 574.625 L 603.59375 574.625 L 597.65625 578.0625 L 588.59375 596.78125 L 588.28125 602.0625 L 588.28125 609.03125 L 594.34375 628.9375 L 610.625 641.78125 L 631.3125 643.28125 L 649.28125 633.03125 L 658.1875 614.3125 L 658.65625 609.03125 L 658.65625 602.0625 L 652.46875 582.15625 L 643 574.625 L 763.3125 574.625 L 757.375 578.0625 L 748.46875 596.78125 L 748.03125 602.0625 L 748.03125 609.03125 L 754.21875 628.9375 L 770.375 641.78125 L 791.0625 643.28125 L 809.03125 633.03125 L 818.09375 614.3125 L 818.375 609.03125 L 818.375 602.0625 L 812.34375 582.15625 L 802.78125 574.625 L 923.21875 574.625 L 917.28125 578.0625 L 908.21875 596.78125 L 907.90625 602.0625 L 907.90625 609.03125 L 913.96875 628.9375 L 930.25 641.78125 L 950.9375 643.28125 L 968.90625 633.03125 L 977.8125 614.3125 L 978.28125 609.03125 L 978.28125 602.0625 L 972.09375 582.15625 L 962.625 574.625 L 1083.0938 574.625 L 1077.1562 578.0625 L 1068.0938 596.78125 L 1067.6562 602.0625 L 1067.6562 609.03125 L 1073.8438 628.9375 L 1090 641.78125 L 1110.8438 643.28125 L 1128.8125 633.03125 L 1137.7188 614.3125 L 1138.1562 609.03125 L 1138.1562 602.0625 L 1131.9688 582.15625 L 1122.5 574.625 L 1242.8438 574.625 L 1236.9062 578.0625 L 1228 596.78125 L 1227.5312 602.0625 L 1227.5312 609.03125 L 1233.75 628.9375 L 1249.9062 641.78125 L 1270.5625 643.28125 L 1288.5312 633.03125 L 1297.5938 614.3125 L 1297.9062 609.03125 L 1297.9062 602.0625 L 1291.875 582.15625 L 1282.3125 574.625 L 1402.7188 574.625 L 1396.7812 578.0625 L 1387.75 596.78125 L 1387.4375 602.0625 L 1387.4375 609.03125 L 1393.4688 628.9375 L 1409.7812 641.78125 L 1430.4688 643.28125 L 1448.4375 633.03125 L 1457.3438 614.3125 L 1457.7812 609.03125 L 1457.7812 602.0625 L 1451.5938 582.15625 L 1442.125 574.625 L 1562.4688 574.625 L 1556.5312 578.0625 L 1547.625 596.78125 L 1547.1875 602.0625 L 1547.1875 609.03125 L 1553.375 628.9375 L 1569.5312 641.78125 L 1590.1875 643.28125 L 1608.1562 633.03125 L 1617.2188 614.3125 L 1617.6875 609.03125 L 1617.6875 602.0625 L 1611.5 582.15625 L 1602.0312 574.625 L 1722.375 574.625 L 1716.4375 578.0625 L 1707.5 596.78125 L 1707.0625 602.0625 L 1707.0625 609.03125 L 1713.25 628.9375 L 1729.4062 641.78125 L 1750.0938 643.28125 L 1768.0625 633.03125 L 1777.125 614.3125 L 1777.4062 609.03125 L 1777.4062 602.0625 L 1771.375 582.15625 L 1761.8125 574.625 L 1882.25 574.625 L 1876.3125 578.0625 L 1867.25 596.78125 L 1866.9375 602.0625 L 1866.9375 609.03125 L 1873 628.9375 L 1889.3125 641.78125 L 1909.9688 643.28125 L 1927.9375 633.03125 L 1936.8438 614.3125 L 1937.3125 609.03125 L 1937.3125 602.0625 L 1931.125 582.15625 L 1921.6562 574.625 L 1997.5938 574.625 C 1997.5938 329.67463 1426.0625 492.97539 1426.0625 166.375 L 1426.0625 3.0625 L 1099.4375 3.0625 z M 615.625 715.46875 L 597.65625 725.875 L 588.59375 744.59375 L 588.28125 749.875 L 588.28125 820.25 L 594.34375 840.03125 L 610.625 853 L 631.3125 854.53125 L 649.28125 844.09375 L 658.1875 825.375 L 658.65625 820.25 L 658.65625 749.875 L 652.46875 729.96875 L 636.3125 717.125 L 615.625 715.46875 z M 775.34375 715.46875 L 757.375 725.875 L 748.46875 744.59375 L 748.03125 749.875 L 748.03125 820.25 L 754.21875 840.03125 L 770.375 853 L 791.0625 854.53125 L 809.03125 844.09375 L 818.09375 825.375 L 818.375 820.25 L 818.375 749.875 L 812.34375 729.96875 L 796.03125 717.125 L 775.34375 715.46875 z M 935.25 715.46875 L 917.28125 725.875 L 908.21875 744.59375 L 907.90625 749.875 L 907.90625 820.25 L 913.96875 840.03125 L 930.25 853 L 950.9375 854.53125 L 968.90625 844.09375 L 977.8125 825.375 L 978.28125 820.25 L 978.28125 749.875 L 972.09375 729.96875 L 955.9375 717.125 L 935.25 715.46875 z M 1095.125 715.46875 L 1077.1562 725.875 L 1068.0938 744.59375 L 1067.6562 749.875 L 1067.6562 820.25 L 1073.8438 840.03125 L 1090 853 L 1110.8438 854.53125 L 1128.8125 844.09375 L 1137.7188 825.375 L 1138.1562 820.25 L 1138.1562 749.875 L 1131.9688 729.96875 L 1115.8125 717.125 L 1095.125 715.46875 z M 1254.875 715.46875 L 1236.9062 725.875 L 1228 744.59375 L 1227.5312 749.875 L 1227.5312 820.25 L 1233.75 840.03125 L 1249.9062 853 L 1270.5625 854.53125 L 1288.5312 844.09375 L 1297.5938 825.375 L 1297.9062 820.25 L 1297.9062 749.875 L 1291.875 729.96875 L 1275.5625 717.125 L 1254.875 715.46875 z M 1414.75 715.46875 L 1396.7812 725.875 L 1387.75 744.59375 L 1387.4375 749.875 L 1387.4375 820.25 L 1393.4688 840.03125 L 1409.7812 853 L 1430.4688 854.53125 L 1448.4375 844.09375 L 1457.3438 825.375 L 1457.7812 820.25 L 1457.7812 749.875 L 1451.5938 729.96875 L 1435.4375 717.125 L 1414.75 715.46875 z M 1574.5 715.46875 L 1556.5312 725.875 L 1547.625 744.59375 L 1547.1875 749.875 L 1547.1875 820.25 L 1553.375 840.03125 L 1569.5312 853 L 1590.1875 854.53125 L 1608.1562 844.09375 L 1617.2188 825.375 L 1617.6875 820.25 L 1617.6875 749.875 L 1611.5 729.96875 L 1595.3438 717.125 L 1574.5 715.46875 z M 1734.375 715.46875 L 1716.4375 725.875 L 1707.5 744.59375 L 1707.0625 749.875 L 1707.0625 820.25 L 1713.25 840.03125 L 1729.4062 853 L 1750.0938 854.53125 L 1768.0625 844.09375 L 1777.125 825.375 L 1777.4062 820.25 L 1777.4062 749.875 L 1771.375 729.96875 L 1755.0625 717.125 L 1734.375 715.46875 z M 1894.2812 715.46875 L 1876.3125 725.875 L 1867.25 744.59375 L 1866.9375 749.875 L 1866.9375 820.25 L 1873 840.03125 L 1889.3125 853 L 1909.9688 854.53125 L 1927.9375 844.09375 L 1936.8438 825.375 L 1937.3125 820.25 L 1937.3125 749.875 L 1931.125 729.96875 L 1914.9688 717.125 L 1894.2812 715.46875 z M 615.625 926.6875 L 597.65625 936.96875 L 588.59375 955.6875 L 588.28125 960.96875 L 588.28125 1031.3125 L 594.34375 1051.0938 L 610.625 1064.0938 L 631.3125 1065.5938 L 649.28125 1055.1875 L 658.1875 1036.5938 L 658.65625 1031.3125 L 658.65625 960.96875 L 652.46875 941.1875 L 636.3125 928.1875 L 615.625 926.6875 z M 775.34375 926.6875 L 757.375 936.96875 L 748.46875 955.6875 L 748.03125 960.96875 L 748.03125 1031.3125 L 754.21875 1051.0938 L 770.375 1064.0938 L 791.0625 1065.5938 L 809.03125 1055.1875 L 818.09375 1036.5938 L 818.375 1031.3125 L 818.375 960.96875 L 812.34375 941.1875 L 796.03125 928.1875 L 775.34375 926.6875 z M 935.25 926.6875 L 917.28125 936.96875 L 908.21875 955.6875 L 907.90625 960.96875 L 907.90625 1031.3125 L 913.96875 1051.0938 L 930.25 1064.0938 L 950.9375 1065.5938 L 968.90625 1055.1875 L 977.8125 1036.5938 L 978.28125 1031.3125 L 978.28125 960.96875 L 972.09375 941.1875 L 955.9375 928.1875 L 935.25 926.6875 z M 1095.125 926.6875 L 1077.1562 936.96875 L 1068.0938 955.6875 L 1067.6562 960.96875 L 1067.6562 1031.3125 L 1073.8438 1051.0938 L 1090 1064.0938 L 1110.8438 1065.5938 L 1128.8125 1055.1875 L 1137.7188 1036.5938 L 1138.1562 1031.3125 L 1138.1562 960.96875 L 1131.9688 941.1875 L 1115.8125 928.1875 L 1095.125 926.6875 z M 1254.875 926.6875 L 1236.9062 936.96875 L 1228 955.6875 L 1227.5312 960.96875 L 1227.5312 1031.3125 L 1233.75 1051.0938 L 1249.9062 1064.0938 L 1270.5625 1065.5938 L 1288.5312 1055.1875 L 1297.5938 1036.5938 L 1297.9062 1031.3125 L 1297.9062 960.96875 L 1291.875 941.1875 L 1275.5625 928.1875 L 1254.875 926.6875 z M 1414.75 926.6875 L 1396.7812 936.96875 L 1387.75 955.6875 L 1387.4375 960.96875 L 1387.4375 1031.3125 L 1393.4688 1051.0938 L 1409.7812 1064.0938 L 1430.4688 1065.5938 L 1448.4375 1055.1875 L 1457.3438 1036.5938 L 1457.7812 1031.3125 L 1457.7812 960.96875 L 1451.5938 941.1875 L 1435.4375 928.1875 L 1414.75 926.6875 z M 1574.5 926.6875 L 1556.5312 936.96875 L 1547.625 955.6875 L 1547.1875 960.96875 L 1547.1875 1031.3125 L 1553.375 1051.0938 L 1569.5312 1064.0938 L 1590.1875 1065.5938 L 1608.1562 1055.1875 L 1617.2188 1036.5938 L 1617.6875 1031.3125 L 1617.6875 960.96875 L 1611.5 941.1875 L 1595.3438 928.1875 L 1574.5 926.6875 z M 1734.375 926.6875 L 1716.4375 936.96875 L 1707.5 955.6875 L 1707.0625 960.96875 L 1707.0625 1031.3125 L 1713.25 1051.0938 L 1729.4062 1064.0938 L 1750.0938 1065.5938 L 1768.0625 1055.1875 L 1777.125 1036.5938 L 1777.4062 1031.3125 L 1777.4062 960.96875 L 1771.375 941.1875 L 1755.0625 928.1875 L 1734.375 926.6875 z M 1894.2812 926.6875 L 1876.3125 936.96875 L 1867.25 955.6875 L 1866.9375 960.96875 L 1866.9375 1031.3125 L 1873 1051.0938 L 1889.3125 1064.0938 L 1909.9688 1065.5938 L 1927.9375 1055.1875 L 1936.8438 1036.5938 L 1937.3125 1031.3125 L 1937.3125 960.96875 L 1931.125 941.1875 L 1914.9688 928.1875 L 1894.2812 926.6875 z M 1419.0312 1174.4062 C 1338.7892 1192.4938 1251.9782 1202.7022 1135.375 1177.1562 C 918.00869 1295.7683 698.52241 1281.8378 441.40625 1419.5 C 464.63427 1528.0417 499.32983 1634.9366 573.59375 1736.1875 C 650.80655 1703.6205 725.71825 1667.2334 824.1875 1670.0938 L 826.9375 2490.75 C 1106.5768 2529.2082 1392.6786 2556.3679 1730.2188 2493.5 L 1735.7188 1667.3438 C 1814.0664 1669.2703 1895.1325 1687.5172 1980.8125 1733.4375 C 2051.4326 1648.6779 2093.7737 1543.7195 2113 1422.25 C 1881.681 1305.9196 1665.2246 1287.7519 1419.0312 1174.4062 z "
                     transform="matrix(0.0951635,0,0,0.0951635,25.607801,435.33285)"
                     id="path2427" />
                  <path
                     inkscape:connector-curvature="0"
                     sodipodi:nodetypes="cc"
                     id="path3199"
                     d="m 71.282759,569.10701 c 2.214678,10.74851 6.083496,20.78686 13.627586,29.35172"
                     style="fill:#000000;fill-opacity:1;fill-rule:evenodd;stroke:#ffffff;stroke-width:1px;stroke-linecap:butt;stroke-linejoin:miter;stroke-opacity:1" />
                  <path
                     inkscape:connector-curvature="0"
                     sodipodi:nodetypes="cc"
                     id="path3203"
                     d="m 105.35172,668.16908 c 28.12874,4.60443 56.25747,5.59295 84.38621,-0.26207"
                     style="fill:#000000;fill-opacity:1;fill-rule:evenodd;stroke:#ffffff;stroke-width:1px;stroke-linecap:butt;stroke-linejoin:miter;stroke-opacity:1" />
                  <path
                     inkscape:connector-curvature="0"
                     sodipodi:nodetypes="czc"
                     id="path3205"
                     d="m 133.3931,547.61736 c -0.22816,2.3247 1.69237,12.73282 13.88965,13.36551 11.93593,0.61914 14.27527,-11.53603 13.88966,-13.10345"
                     style="fill:#000000;fill-opacity:1;fill-rule:evenodd;stroke:#ffffff;stroke-width:1px;stroke-linecap:butt;stroke-linejoin:miter;stroke-opacity:1" />
                  <path
                     inkscape:connector-curvature="0"
                     style="fill:#000000;fill-opacity:1;fill-rule:evenodd;stroke:#ffffff;stroke-width:1px;stroke-linecap:butt;stroke-linejoin:miter;stroke-opacity:1"
                     d="m 128.21194,550.41871 c -0.22816,2.3247 4.57424,15.11165 18.34482,15.46206 14.03248,0.35707 19.77872,-14.68086 19.39311,-16.24828"
                     id="path3207"
                     sodipodi:nodetypes="czc" />
                  <path
                     inkscape:connector-curvature="0"
                     sodipodi:nodetypes="cc"
                     id="path3209"
                     d="m 134.52279,552.33459 c 8.53814,2.23324 16.08174,1.75419 25.31809,-0.20185"
                     style="fill:#000000;fill-opacity:1;fill-rule:evenodd;stroke:#ffffff;stroke-width:1px;stroke-linecap:butt;stroke-linejoin:miter;stroke-opacity:1" />
                  <path
                     inkscape:connector-curvature="0"
                     sodipodi:nodetypes="cc"
                     id="path3213"
                     d="m 104.16182,558.28077 c 2.57594,9.88539 6.83803,21.48891 -0.26207,35.37931"
                     style="fill:#000000;fill-opacity:1;fill-rule:evenodd;stroke:#ffffff;stroke-width:1px;stroke-linecap:butt;stroke-linejoin:miter;stroke-opacity:1" />
                  <path
                     inkscape:connector-curvature="0"
                     style="fill:#000000;fill-opacity:1;fill-rule:evenodd;stroke:#ffffff;stroke-width:1px;stroke-linecap:butt;stroke-linejoin:miter;stroke-opacity:1"
                     d="m 190.37521,558.48262 c -2.57594,9.88539 -6.83803,21.48891 0.26207,35.37931"
                     id="path3215"
                     sodipodi:nodetypes="cc" />
                  <path
                     inkscape:connector-curvature="0"
                     style="fill:#000000;fill-opacity:1;fill-rule:evenodd;stroke:#ffffff;stroke-width:1px;stroke-linecap:butt;stroke-linejoin:miter;stroke-opacity:1"
                     d="m 223.28276,568.84494 c -2.21468,10.74851 -6.0835,20.78686 -13.62759,29.35172"
                     id="path3217"
                     sodipodi:nodetypes="cc" />
                </g>
                <g
                   transform="matrix(4.8314065,0,0,4.8314065,-1703.4798,-1489.211)"
                   id="g3328"
                   style="fill:#000000;fill-opacity:1">
                  <g
                     id="g3332"
                     style="fill:#000000;fill-opacity:1">
                    <g
                       id="g3334"
                       style="fill:#000000;fill-opacity:1">
                      <path
                         inkscape:connector-curvature="0"
                         id="path3338"
                         style="fill:#000000;fill-opacity:1;stroke:none"
                         d="" />
                    </g>
                    <g
                       id="g3340"
                       style="fill:#000000;fill-opacity:1">
                      <path
                         inkscape:connector-curvature="0"
                         id="path3344"
                         style="fill:#000000;fill-opacity:1;stroke:none"
                         d="" />
                    </g>
                  </g>
                </g>
              </g>
              <g
                 style="fill:none;fill-opacity:1;stroke:#000000;stroke-width:40;stroke-linecap:round;stroke-linejoin:round;stroke-miterlimit:4;stroke-opacity:1;stroke-dasharray:none"
                 transform="matrix(0.75177497,0,0,0.94870001,-240.34299,-204.12185)"
                 id="g7850">
                <path
                   inkscape:connector-curvature="0"
                   d="m 248.185,169.031 199.764,120.064 0,52.717 -198.805,-65.43 -50.317,0 L 0,341.812 0,289.095 196.91,169.031 l 51.275,0 z"
                   id="path7852"
                   style="fill:none;fill-opacity:1;stroke:none;stroke-width:40;stroke-linecap:round;stroke-linejoin:round;stroke-miterlimit:4;stroke-opacity:1;stroke-dasharray:none"
                   sodipodi:nodetypes="ccccccccc" />
              </g>
            </g>
            <g
               id="g4243"
               transform="matrix(0.27366934,0,0,0.18486525,172.62925,206.71382)"
               style="fill:#000000;fill-opacity:1;stroke:none" />
            <g
               transform="matrix(3.4614719,0,0,3.4614719,-792.24329,12.045283)"
               style="font-size:10px;font-style:normal;font-variant:normal;font-weight:bold;font-stretch:normal;text-align:start;line-height:125%;writing-mode:lr-tb;text-anchor:start;fill:#000000;fill-opacity:1;stroke:none;font-family:Bitstream Charter;-inkscape-font-specification:Bitstream Charter Bold;stroke-opacity:1"
               id="flowRoot6831" />
          </g>
        </g>
      </g>
    </g>
  </g>
</svg>
