<?xml version="1.0" encoding="UTF-8" standalone="no"?>
<svg
   xmlns:dc="http://purl.org/dc/elements/1.1/"
   xmlns:cc="http://creativecommons.org/ns#"
   xmlns:rdf="http://www.w3.org/1999/02/22-rdf-syntax-ns#"
   xmlns:svg="http://www.w3.org/2000/svg"
   xmlns="http://www.w3.org/2000/svg"
   xmlns:sodipodi="http://sodipodi.sourceforge.net/DTD/sodipodi-0.dtd"
   xmlns:inkscape="http://www.inkscape.org/namespaces/inkscape"
   width="2520"
   height="2520"
   viewBox="0 0 26880 26880"
   id="svg3064"
   version="1.1"
   inkscape:version="0.48.4 r9939"
   sodipodi:docname="electronics.svg">
  <metadata
     id="metadata3072">
    <rdf:RDF>
      <cc:Work
         rdf:about="">
        <dc:format>image/svg+xml</dc:format>
        <dc:type
           rdf:resource="http://purl.org/dc/dcmitype/StillImage" />
        <dc:title></dc:title>
      </cc:Work>
    </rdf:RDF>
  </metadata>
  <defs
     id="defs3070" />
  <sodipodi:namedview
     pagecolor="#ffffff"
     bordercolor="#666666"
     borderopacity="1"
     objecttolerance="6"
     gridtolerance="6"
     guidetolerance="6"
     inkscape:pageopacity="0"
     inkscape:pageshadow="2"
     inkscape:window-width="1600"
     inkscape:window-height="1147"
     id="namedview3068"
     showgrid="true"
     inkscape:snap-grids="true"
     inkscape:zoom="0.25000001"
     inkscape:cx="534.46721"
     inkscape:cy="1438.5736"
     inkscape:window-x="0"
     inkscape:window-y="0"
     inkscape:window-maximized="1"
     inkscape:current-layer="svg3064"
     showguides="true"
     inkscape:guide-bbox="true"
     inkscape:snap-to-guides="false"
     inkscape:object-paths="true">
    <inkscape:grid
       type="xygrid"
       id="grid3074"
       empspacing="2"
       visible="true"
       enabled="true"
       snapvisiblegridlinesonly="true"
       dotted="false"
       spacingx="315px"
       spacingy="315px"
       color="#00009b"
       opacity="0.1372549"
       empcolor="#00009b"
       empopacity="0.29411765" />
    <inkscape:grid
       type="xygrid"
       id="grid5379"
       empspacing="3"
       visible="true"
       enabled="true"
       snapvisiblegridlinesonly="true"
       color="#9b0000"
       opacity="0.11764706"
       empcolor="#9b0000"
       empopacity="0.39215686"
       spacingx="280px"
       spacingy="280px" />
    <inkscape:grid
       type="xygrid"
       id="grid5381"
       empspacing="2"
       visible="true"
       enabled="true"
       snapvisiblegridlinesonly="true"
       spacingx="252px"
       spacingy="252px"
       empcolor="#009b00"
       empopacity="0.23529412"
       color="#009b00"
       opacity="0.09803922" />
    <inkscape:grid
       type="xygrid"
       id="grid5383"
       empspacing="2"
       visible="true"
       enabled="true"
       snapvisiblegridlinesonly="true"
       spacingx="180px"
       spacingy="180px"
       color="#009b9b"
       opacity="0.07843137"
       empcolor="#009b9b"
       empopacity="0.15686275" />
    <inkscape:grid
       type="xygrid"
       id="grid3019"
       empspacing="5"
       visible="true"
       enabled="true"
       snapvisiblegridlinesonly="true"
       color="#9b0000"
       opacity="0.09803922"
       empcolor="#0000ff"
       empopacity="0"
       dotted="true"
       spacingx="140px"
       spacingy="140px" />
    <inkscape:grid
       type="xygrid"
       id="grid3013"
       empspacing="5"
       visible="true"
       enabled="false"
       snapvisiblegridlinesonly="true"
       spacingx="210px"
       spacingy="210px"
       color="#ff00ff"
       opacity="0.29411765" />
  </sodipodi:namedview>
  <path
     style="fill:#000000;fill-opacity:1;stroke:#000000;stroke-width:1px;stroke-linecap:butt;stroke-linejoin:miter;stroke-opacity:1"
     d="M 700 0 L 700 468.8125 L 923.25 468.8125 L 923.25 0 L 700 0 z M 1146.5 0 L 1146.5 468.8125 L 1369.75 468.8125 L 1369.75 0 L 1146.5 0 z M 1590.75 0 L 1590.75 468.8125 L 1814 468.8125 L 1814 0 L 1590.75 0 z M 630 630 L 630 1890 L 1890 1890 L 1890 630 L 630 630 z M 0.46875 703 L 0.46875 926.25 L 469.28125 926.25 L 469.28125 703 L 0.46875 703 z M 2050.7188 707 L 2050.7188 930.25 L 2519.5312 930.25 L 2519.5312 707 L 2050.7188 707 z M 840 980 L 1680 980 L 1680 1540 L 840 1540 L 840 980 z M 0.46875 1149.5 L 0.46875 1372.75 L 469.28125 1372.75 L 469.28125 1149.5 L 0.46875 1149.5 z M 2050.7188 1153.5 L 2050.7188 1376.75 L 2519.5312 1376.75 L 2519.5312 1153.5 L 2050.7188 1153.5 z M 0.46875 1593.75 L 0.46875 1817 L 469.28125 1817 L 469.28125 1593.75 L 0.46875 1593.75 z M 2050.7188 1597.75 L 2050.7188 1821 L 2519.5312 1821 L 2519.5312 1597.75 L 2050.7188 1597.75 z M 699 2058.2188 L 699 2527.0625 L 922.25 2527.0625 L 922.25 2058.2188 L 699 2058.2188 z M 1145.5 2058.2188 L 1145.5 2527.0625 L 1368.75 2527.0625 L 1368.75 2058.2188 L 1145.5 2058.2188 z M 1589.75 2058.2188 L 1589.75 2527.0625 L 1813 2527.0625 L 1813 2058.2188 L 1589.75 2058.2188 z "
     transform="scale(10.666667,10.666667)"
     id="path3903" />
</svg>
