<?xml version="1.0" encoding="UTF-8" standalone="no"?>
<svg
   xmlns:dc="http://purl.org/dc/elements/1.1/"
   xmlns:cc="http://creativecommons.org/ns#"
   xmlns:rdf="http://www.w3.org/1999/02/22-rdf-syntax-ns#"
   xmlns:svg="http://www.w3.org/2000/svg"
   xmlns="http://www.w3.org/2000/svg"
   xmlns:sodipodi="http://sodipodi.sourceforge.net/DTD/sodipodi-0.dtd"
   xmlns:inkscape="http://www.inkscape.org/namespaces/inkscape"
   width="2520"
   height="2520"
   viewBox="0 0 26880 26880"
   id="svg3064"
   version="1.1"
   inkscape:version="0.48.4 r9939"
   sodipodi:docname="ferry_terminal.svg">
  <metadata
     id="metadata3072">
    <rdf:RDF>
      <cc:Work
         rdf:about="">
        <dc:format>image/svg+xml</dc:format>
        <dc:type
           rdf:resource="http://purl.org/dc/dcmitype/StillImage" />
        <dc:title />
      </cc:Work>
    </rdf:RDF>
  </metadata>
  <defs
     id="defs3070" />
  <sodipodi:namedview
     pagecolor="#ffffff"
     bordercolor="#666666"
     borderopacity="1"
     objecttolerance="6"
     gridtolerance="6"
     guidetolerance="6"
     inkscape:pageopacity="0"
     inkscape:pageshadow="2"
     inkscape:window-width="1600"
     inkscape:window-height="1147"
     id="namedview3068"
     showgrid="true"
     inkscape:snap-grids="true"
     inkscape:zoom="0.24258858"
     inkscape:cx="262.49208"
     inkscape:cy="1273.9414"
     inkscape:window-x="0"
     inkscape:window-y="0"
     inkscape:window-maximized="1"
     inkscape:current-layer="svg3064"
     showguides="true"
     inkscape:guide-bbox="true"
     inkscape:snap-to-guides="false">
    <inkscape:grid
       type="xygrid"
       id="grid3074"
       empspacing="2"
       visible="true"
       enabled="true"
       snapvisiblegridlinesonly="true"
       dotted="false"
       spacingx="315px"
       spacingy="315px"
       color="#00009b"
       opacity="0.1372549"
       empcolor="#00009b"
       empopacity="0.29411765" />
    <inkscape:grid
       type="xygrid"
       id="grid5379"
       empspacing="3"
       visible="true"
       enabled="true"
       snapvisiblegridlinesonly="true"
       color="#9b0000"
       opacity="0.11764706"
       empcolor="#9b0000"
       empopacity="0.39215686"
       spacingx="280px"
       spacingy="280px" />
    <inkscape:grid
       type="xygrid"
       id="grid5381"
       empspacing="2"
       visible="true"
       enabled="true"
       snapvisiblegridlinesonly="true"
       spacingx="252px"
       spacingy="252px"
       empcolor="#009b00"
       empopacity="0.23529412"
       color="#009b00"
       opacity="0.09803922" />
    <inkscape:grid
       type="xygrid"
       id="grid5383"
       empspacing="2"
       visible="true"
       enabled="true"
       snapvisiblegridlinesonly="true"
       spacingx="180px"
       spacingy="180px"
       color="#009b9b"
       opacity="0.07843137"
       empcolor="#009b9b"
       empopacity="0.15686275" />
    <inkscape:grid
       type="xygrid"
       id="grid3019"
       empspacing="5"
       visible="true"
       enabled="true"
       snapvisiblegridlinesonly="true"
       color="#9b0000"
       opacity="0.09803922"
       empcolor="#0000ff"
       empopacity="0"
       dotted="true"
       spacingx="140px"
       spacingy="140px" />
    <inkscape:grid
       type="xygrid"
       id="grid3013"
       empspacing="5"
       visible="true"
       enabled="false"
       snapvisiblegridlinesonly="true"
       spacingx="210px"
       spacingy="210px"
       color="#ff00ff"
       opacity="0.29411765" />
  </sodipodi:namedview>
  <g
     id="g2266"
     transform="matrix(58.819251,0,0,58.819251,637.54181,68.208966)">
    <g
       id="g2268">
      <path
         style="fill:#000000;stroke:none"
         id="path2270"
         d="m 250.512,449.131 c 22.483,-9.733 32.974,-8.416 51.478,1.264 18.504,9.682 37.007,9.682 58.833,-1.451 21.822,-11.133 39.584,-4.786 49.439,1.187 8.25,5 16.5,7 28.844,7 l 0,-44.53 c -18.594,0.03 -26.57,-6.292 -26.57,-6.292 -19.214,-11.861 -36.828,-9.514 -61.024,3.072 -13.802,7.176 -35.689,5.288 -51.184,-2.79 -21.351,-11.132 -33.439,-8.41 -55.816,1.54 -17.337,7.708 -32.984,7.703 -50.25,0 -22.363,-9.979 -33.895,-12.672 -55.246,-1.54 -15.494,8.078 -37.702,9.966 -51.504,2.79 -24.197,-12.586 -41.49,-14.933 -60.705,-3.072 0,0 -8.295,6.292 -26.57,6.292 l 0,44.53 c 11.525,0 20.525,-2.25 28.275,-7 9.836,-6.028 28.184,-12.32 50.01,-1.187 21.825,11.133 40.329,11.133 58.833,1.451 18.504,-9.68 28.759,-11.425 51.242,-1.692 21.824,11.133 43.41,10.108 61.915,0.428 z"
         inkscape:connector-curvature="0" />
      <path
         style="fill:#000000;stroke:none"
         id="path2272"
         d="m 250.012,383.131 c 17.75,-9 33.71,-8.486 52.214,1.195 18.504,9.68 37.008,9.68 58.833,-1.453 21.824,-11.133 40.145,-5.507 50.292,-0.042 8.911,4.8 15.161,7.3 27.993,8.229 l 0,-43.429 c -16.332,-0.392 -26.569,-6.293 -26.569,-6.293 -37.763,-20.599 -54.191,4.482 -74.49,4.482 l 0,-100.412 31.314,-72.123 c 4.745,-11.132 0,-21.297 -11.387,-26.137 l -18.978,-7.745 0,-62.44 -36.559,0 0,-32.898 -51.217,0 0,-44.065 -31.786,0 -31.786,0 0,44.065 -51.216,0 0,32.898 -36.559,0 0,62.44 -18.978,7.745 C 69.745,151.988 65,162.153 69.745,173.285 l 31.314,72.123 0,100.412 0.011,0 c -20.297,0 -37.558,-24.689 -74.489,-4.09 l -0.012,0 c 0,0 -10.557,5.901 -26.569,6.292 l 0,43.038 c 12.512,-0.929 18.512,-2.929 27.992,-8.229 10.067,-5.627 28.469,-11.091 50.293,0.042 21.826,11.133 40.329,11.133 58.833,1.453 18.505,-9.681 34.636,-10.166 51.953,-1.453 21.825,11.133 38.941,11.258 60.941,0.258 z"
         inkscape:connector-curvature="0" />
    </g>
    <path
       style="fill:#ffffff;stroke:none"
       id="path2274"
       d="m 219.672,70.187 -55.984,0 0,32.413 -36.533,0 0,25.186 92.517,-38.155 92.518,38.155 0,-25.186 -36.534,0 0,-32.413 -55.984,0 z"
       inkscape:connector-curvature="0" />
  </g>
</svg>
