<?xml version="1.0" encoding="UTF-8" standalone="no"?>
<svg
   xmlns:dc="http://purl.org/dc/elements/1.1/"
   xmlns:cc="http://creativecommons.org/ns#"
   xmlns:rdf="http://www.w3.org/1999/02/22-rdf-syntax-ns#"
   xmlns:svg="http://www.w3.org/2000/svg"
   xmlns="http://www.w3.org/2000/svg"
   xmlns:sodipodi="http://sodipodi.sourceforge.net/DTD/sodipodi-0.dtd"
   xmlns:inkscape="http://www.inkscape.org/namespaces/inkscape"
   width="2520"
   height="2520"
   viewBox="0 0 26880 26880"
   id="svg3064"
   version="1.1"
   inkscape:version="0.48.4 r9939"
   sodipodi:docname="florist.svg">
  <metadata
     id="metadata3072">
    <rdf:RDF>
      <cc:Work
         rdf:about="">
        <dc:format>image/svg+xml</dc:format>
        <dc:type
           rdf:resource="http://purl.org/dc/dcmitype/StillImage" />
        <dc:title></dc:title>
      </cc:Work>
    </rdf:RDF>
  </metadata>
  <defs
     id="defs3070">
    <inkscape:perspective
       sodipodi:type="inkscape:persp3d"
       inkscape:vp_x="0 : 225.5 : 1"
       inkscape:vp_y="0 : 1000 : 0"
       inkscape:vp_z="301 : 225.5 : 1"
       inkscape:persp3d-origin="150.5 : 150.33333 : 1"
       id="perspective2486" />
    <inkscape:perspective
       id="perspective13"
       inkscape:persp3d-origin="300.5 : 250.33333 : 1"
       inkscape:vp_z="601 : 375.5 : 1"
       inkscape:vp_y="0 : 1000 : 0"
       inkscape:vp_x="0 : 375.5 : 1"
       sodipodi:type="inkscape:persp3d" />
    <inkscape:perspective
       id="perspective9"
       inkscape:persp3d-origin="372.04724 : 350.78739 : 1"
       inkscape:vp_z="744.09448 : 526.18109 : 1"
       inkscape:vp_y="0 : 1000 : 0"
       inkscape:vp_x="0 : 526.18109 : 1"
       sodipodi:type="inkscape:persp3d" />
    <clipPath
       id="clipoutline1"
       clipPathUnits="userSpaceOnUse">
      <path
         inkscape:connector-curvature="0"
         d="m 22.42,17.2 12.96,12.95 -2.5,8.78 -8.78,2.5 -12.96,-12.96 -5.86,5.86 14.89,21.46 17.56,-3.34 61.63,65.62 c 9.44,9.51 22.17,-4.75 13.34,-12.87 L 46.85,42.92 50.86,25.16 28.72,10.89 22.42,17.2 z m 81.06,91.97 c 1.68,-1.68 4.4,-1.68 6.08,0 1.68,1.68 1.68,4.4 0,6.08 -1.68,1.67 -4.4,1.67 -6.08,0 -1.68,-1.68 -1.68,-4.4 0,-6.08 z"
         id="outline1" />
    </clipPath>
  </defs>
  <sodipodi:namedview
     pagecolor="#ffffff"
     bordercolor="#666666"
     borderopacity="1"
     objecttolerance="6"
     gridtolerance="6"
     guidetolerance="6"
     inkscape:pageopacity="0"
     inkscape:pageshadow="2"
     inkscape:window-width="1600"
     inkscape:window-height="1147"
     id="namedview3068"
     showgrid="true"
     inkscape:snap-grids="false"
     inkscape:zoom="0.080000004"
     inkscape:cx="-1382.0123"
     inkscape:cy="1261.4711"
     inkscape:window-x="0"
     inkscape:window-y="0"
     inkscape:window-maximized="1"
     inkscape:current-layer="g6443"
     showguides="true"
     inkscape:guide-bbox="true"
     inkscape:snap-to-guides="false">
    <inkscape:grid
       type="xygrid"
       id="grid3074"
       empspacing="2"
       visible="true"
       enabled="true"
       snapvisiblegridlinesonly="true"
       dotted="false"
       spacingx="315px"
       spacingy="315px"
       color="#00009b"
       opacity="0.1372549"
       empcolor="#00009b"
       empopacity="0.29411765" />
    <inkscape:grid
       type="xygrid"
       id="grid5379"
       empspacing="3"
       visible="true"
       enabled="true"
       snapvisiblegridlinesonly="true"
       color="#9b0000"
       opacity="0.11764706"
       empcolor="#9b0000"
       empopacity="0.39215686"
       spacingx="280px"
       spacingy="280px" />
    <inkscape:grid
       type="xygrid"
       id="grid5381"
       empspacing="2"
       visible="true"
       enabled="true"
       snapvisiblegridlinesonly="true"
       spacingx="252px"
       spacingy="252px"
       empcolor="#009b00"
       empopacity="0.23529412"
       color="#009b00"
       opacity="0.09803922" />
    <inkscape:grid
       type="xygrid"
       id="grid5383"
       empspacing="2"
       visible="true"
       enabled="true"
       snapvisiblegridlinesonly="true"
       spacingx="180px"
       spacingy="180px"
       color="#009b9b"
       opacity="0.07843137"
       empcolor="#009b9b"
       empopacity="0.15686275" />
    <inkscape:grid
       type="xygrid"
       id="grid3019"
       empspacing="5"
       visible="true"
       enabled="true"
       snapvisiblegridlinesonly="true"
       color="#9b0000"
       opacity="0.09803922"
       empcolor="#0000ff"
       empopacity="0"
       dotted="true"
       spacingx="140px"
       spacingy="140px" />
    <inkscape:grid
       type="xygrid"
       id="grid3013"
       empspacing="5"
       visible="true"
       enabled="false"
       snapvisiblegridlinesonly="true"
       spacingx="210px"
       spacingy="210px"
       color="#ff00ff"
       opacity="0.29411765" />
  </sodipodi:namedview>
  <g
     id="g4212">
    <text
       sodipodi:linespacing="125%"
       id="text2998"
       y="4924.4893"
       x="9930.1055"
       style="font-size:6048.16699219px;font-style:normal;font-variant:normal;font-weight:normal;font-stretch:normal;line-height:125%;letter-spacing:0px;word-spacing:0px;fill:#000000;fill-opacity:1;stroke:none;font-family:Liberation Sans;-inkscape-font-specification:Sans"
       xml:space="preserve"><tspan
         y="4924.4893"
         x="9930.1055"
         id="tspan3000"
         sodipodi:role="line" /></text>
    <g
       id="g4445"
       transform="matrix(10.666667,0,0,10.666667,-20763.958,4280.9699)">
      <g
         id="g3324"
         transform="matrix(4.8314063,0,0,4.8314063,1656.0154,-384.07686)"
         style="fill:#000000;fill-opacity:1">
        <g
           id="g19987"
           transform="matrix(0.20697907,0,0,0.20697907,303.00686,245.89345)"
           style="fill:#000000;fill-opacity:1;stroke:#000000;stroke-opacity:1">
          <g
             id="g2319"
             transform="matrix(4.0193763,0,0,4.0193763,2426.0211,-1127.3128)"
             style="fill:#000000;fill-opacity:1">
            <path
               inkscape:connector-curvature="0"
               id="path2323"
               style="fill:#000000;fill-opacity:1;stroke:none"
               d="" />
          </g>
          <g
             id="g2325"
             transform="matrix(4.0193763,0,0,4.0193763,2426.0211,-1127.3128)"
             style="fill:#000000;fill-opacity:1">
            <path
               inkscape:connector-curvature="0"
               id="path2329"
               style="fill:#000000;fill-opacity:1;stroke:none"
               d="" />
          </g>
          <g
             transform="matrix(4.0193763,0,0,4.0193763,-439.25405,-1002.0722)"
             id="g13"
             style="fill:#000000;fill-opacity:1" />
          <g
             id="g6443"
             transform="matrix(7.4587621,0,0,7.4587621,-1921.7122,-2158.8568)"
             style="fill:#000000;fill-opacity:1">
            <path
               style="fill:#000000;fill-opacity:1;stroke:none"
               d="m 231.76714,127.44496 c -5.76206,-0.0266 -11.14645,2.79664 -14.75407,9.89921 -20.88806,-3.5273 -25.86074,23.28611 -17.99816,38.55459 5.97698,11.60675 26.08724,31.98714 42.50706,37.43112 -1.92747,1.83064 -3.59284,3.92276 -4.94509,6.21746 -9.61215,-14.39195 -35.26707,-28.21537 -48.23273,-30.7038 -2.10826,-0.40462 -4.32701,-0.59678 -6.57841,-0.58204 -15.7598,0.10313 -33.10224,10.26305 -25.09095,27.47325 -15.66711,14.25812 2.35924,34.72205 19.22542,37.95901 13.52699,2.59616 44.45112,-1.15745 57.93792,-11.97922 0.66802,2.26217 1.61622,4.40662 2.80191,6.39795 -0.54542,-0.0421 -1.10267,-0.0624 -1.66942,-0.0587 -17.21125,0.11443 -43.808,20.90954 -51.86935,32.95075 -9.5542,14.27109 -9.25138,40.41301 12.43042,39.64648 7.02496,19.98511 32.88968,11.36087 42.44389,-2.9102 7.68265,-11.47553 16.30175,-41.54325 11.50999,-58.15449 2.22831,1.01333 4.61032,1.75463 7.10179,2.18378 -6.34855,16.04046 -4.8231,43.291 -0.42412,55.16307 5.96699,16.10401 27.32498,31.18087 39.40734,13.16135 20.31144,6.01659 28.47715,-20.00054 22.51012,-36.10461 -4.29543,-11.59253 -20.22153,-32.52119 -35.18417,-40.9775 1.92385,-2.05594 3.54204,-4.38902 4.78717,-6.93487 10.85062,13.38457 43.00907,21.75532 57.32881,20.87678 17.14172,-1.0517 37.7513,-17.13646 23.99905,-33.9163 11.2731,-17.14824 -9.52647,-32.08321 -26.42196,-32.04385 -0.54502,0.001 -1.08414,0.0168 -1.61978,0.0496 -13.17124,0.80811 -40.3629,11.22623 -51.74754,24.26075 -0.95504,-3.01146 -2.4066,-5.80831 -4.25927,-8.29747 17.14358,0.81744 43.29677,-26.83463 49.81189,-41.02714 7.16484,-15.60804 2.71331,-41.37176 -18.57117,-37.16943 -3.55486,-6.54424 -8.84413,-9.22694 -14.52395,-9.27656 -10.47622,-0.0915 -22.27231,8.77519 -26.9183,18.89603 -5.73311,12.48911 -9.45947,43.30329 -2.2334,59.01628 -3.18112,-1.27589 -6.64488,-2.01125 -10.27372,-2.08904 7.04839,-15.76926 1.86864,-47.25874 -4.53449,-59.69305 -4.97558,-9.6621 -16.02239,-18.17354 -25.95273,-18.21925 z m 77.6461,139.76659 c 0.94815,1.18704 1.89889,2.37291 2.84704,3.55994 10.64589,12.45186 17.78152,29.43453 13.48171,45.83687 -1.41524,6.2029 -3.06586,8.36869 -14.51493,19.55027 -9.26752,41.35456 -31.7598,72.21541 -47.14535,111.66619 -0.26378,3.32394 19.57748,8.90593 22.38378,10.93245 4.84706,1.97617 9.70769,3.92347 14.54651,5.91967 16.53569,-42.2834 36.92695,-84.24752 46.57231,-128.68526 3.57706,-17.16185 6.48597,-37.62429 -2.08902,-53.7057 -1.92477,-3.13106 -3.49176,-5.75478 -6.36184,-7.85531 -8.49581,-0.81071 -21.56216,-4.83842 -29.72021,-7.21912 z"
               id="path3737"
               inkscape:connector-curvature="0" />
          </g>
        </g>
      </g>
    </g>
  </g>
</svg>
