<?xml version="1.0" encoding="UTF-8" standalone="no"?>
<svg
   xmlns:dc="http://purl.org/dc/elements/1.1/"
   xmlns:cc="http://creativecommons.org/ns#"
   xmlns:rdf="http://www.w3.org/1999/02/22-rdf-syntax-ns#"
   xmlns:svg="http://www.w3.org/2000/svg"
   xmlns="http://www.w3.org/2000/svg"
   xmlns:sodipodi="http://sodipodi.sourceforge.net/DTD/sodipodi-0.dtd"
   xmlns:inkscape="http://www.inkscape.org/namespaces/inkscape"
   width="2520"
   height="2520"
   viewBox="0 0 26880 26880"
   id="svg3064"
   version="1.1"
   inkscape:version="0.48.4 r9939"
   sodipodi:docname="fuel.svg">
  <metadata
     id="metadata3072">
    <rdf:RDF>
      <cc:Work
         rdf:about="">
        <dc:format>image/svg+xml</dc:format>
        <dc:type
           rdf:resource="http://purl.org/dc/dcmitype/StillImage" />
        <dc:title />
      </cc:Work>
    </rdf:RDF>
  </metadata>
  <defs
     id="defs3070" />
  <sodipodi:namedview
     pagecolor="#ffffff"
     bordercolor="#666666"
     borderopacity="1"
     objecttolerance="6"
     gridtolerance="6"
     guidetolerance="6"
     inkscape:pageopacity="0"
     inkscape:pageshadow="2"
     inkscape:window-width="1600"
     inkscape:window-height="1147"
     id="namedview3068"
     showgrid="true"
     inkscape:snap-grids="false"
     inkscape:zoom="0.14142136"
     inkscape:cx="898.00215"
     inkscape:cy="-5.4342578"
     inkscape:window-x="0"
     inkscape:window-y="0"
     inkscape:window-maximized="1"
     inkscape:current-layer="svg3064"
     showguides="true"
     inkscape:guide-bbox="true"
     inkscape:snap-to-guides="false"
     inkscape:object-paths="true">
    <inkscape:grid
       type="xygrid"
       id="grid3074"
       empspacing="2"
       visible="true"
       enabled="true"
       snapvisiblegridlinesonly="true"
       dotted="false"
       spacingx="315px"
       spacingy="315px"
       color="#00009b"
       opacity="0.1372549"
       empcolor="#00009b"
       empopacity="0.29411765" />
    <inkscape:grid
       type="xygrid"
       id="grid5379"
       empspacing="3"
       visible="true"
       enabled="true"
       snapvisiblegridlinesonly="true"
       color="#9b0000"
       opacity="0.11764706"
       empcolor="#9b0000"
       empopacity="0.39215686"
       spacingx="280px"
       spacingy="280px" />
    <inkscape:grid
       type="xygrid"
       id="grid5381"
       empspacing="2"
       visible="true"
       enabled="true"
       snapvisiblegridlinesonly="true"
       spacingx="252px"
       spacingy="252px"
       empcolor="#009b00"
       empopacity="0.23529412"
       color="#009b00"
       opacity="0.09803922" />
    <inkscape:grid
       type="xygrid"
       id="grid5383"
       empspacing="2"
       visible="true"
       enabled="true"
       snapvisiblegridlinesonly="true"
       spacingx="180px"
       spacingy="180px"
       color="#009b9b"
       opacity="0.07843137"
       empcolor="#009b9b"
       empopacity="0.15686275" />
    <inkscape:grid
       type="xygrid"
       id="grid3019"
       empspacing="5"
       visible="true"
       enabled="true"
       snapvisiblegridlinesonly="true"
       color="#9b0000"
       opacity="0.09803922"
       empcolor="#0000ff"
       empopacity="0"
       dotted="true"
       spacingx="140px"
       spacingy="140px" />
    <inkscape:grid
       type="xygrid"
       id="grid3013"
       empspacing="5"
       visible="true"
       enabled="false"
       snapvisiblegridlinesonly="true"
       spacingx="210px"
       spacingy="210px"
       color="#ff00ff"
       opacity="0.29411765" />
  </sodipodi:namedview>
  <g
     id="g2319"
     transform="matrix(48.705743,0,0,48.705743,41122.68,-216.246)"
     style="fill:#000000;fill-opacity:1">
    <path
       inkscape:connector-curvature="0"
       id="path2323"
       style="fill:#000000;fill-opacity:1;stroke:none"
       d="" />
  </g>
  <g
     id="g2325"
     transform="matrix(48.705743,0,0,48.705743,41122.68,-216.246)"
     style="fill:#000000;fill-opacity:1">
    <path
       inkscape:connector-curvature="0"
       id="path2329"
       style="fill:#000000;fill-opacity:1;stroke:none"
       d="" />
  </g>
  <path
     style="fill:#000000;fill-opacity:1;fill-rule:evenodd;stroke:none"
     d="m 10843.281,-35.537165 c -641.301,0 -1280.6048,463.633965 -1280.6048,1205.062565 l -0.5174,1258.8738 c -108.6885,-13.5175 -218.4687,-22.2857 -328.0419,-21.7315 -235.2228,0.042 -472.2029,48.2968 -682.4721,155.2249 -221.2803,111.1748 -410.3661,278.2614 -568.6405,467.2269 -198.9924,236.5927 -355.5532,505.2764 -492.0629,781.816 -161.0862,327.6103 -292.6394,669.6358 -409.2762,1015.1708 -4.6083,18.3728 -0.1627,37.6405 -1.5523,56.3983 2.6708,1300.0284 28.3247,2599.6948 62.0899,3899.2491 -261.3771,1063.9687 -593.8773,2110.1833 -991.887,3130.8853 -387.1334,994.912 -836.02,1965.08 -1319.4116,2916.677 -546.1446,1076.429 -1133.9607,2130.73 -1706.9562,3192.975 -476.5594,883.332 -941.6915,1773.513 -1365.9791,2683.321 -193.4752,414.479 -378.7399,832.587 -553.6354,1255.252 -106.6397,566.795 -117.6347,1155.115 -2.0696,1721.443 92.5351,456.27 266.451,896.298 516.3815,1289.401 277.7773,438.226 647.3544,817.167 1077.7781,1106.755 519.216,350.216 1126.5186,571.305 1750.9367,627.108 459.762,41.436 927.8711,-6.792 1367.5312,-147.463 378.2229,-120.592 734.8507,-307.897 1050.3551,-548.46 367.6623,-279.606 680.0229,-627.746 932.9015,-1013.621 196.6754,-299.369 358.7414,-620.915 491.0281,-953.598 16.6194,-47.998 25.9224,-98.157 37.7714,-147.463 65.6209,-305.64 77.492,-622.17 39.841,-932.384 -6.3598,-194.139 -6.3683,-388.398 -8.7961,-582.611 -9.5558,-1085.92 -13.6865,-2172.221 -18.6269,-3258.169 -11.0926,-2611.727 -17.5801,-5223.489 -20.6967,-7835.236 -1.0676,-1042.61 -1.4779,-2085.1721 0,-3127.7814 379.8443,2.2548 760.0237,4.5099 1139.868,6.7264 l -10.3483,16837.761 1318.3765,0 11.901,1885.464 12103.918,-7.243 9.315,-1878.221 1134.177,9.313 0,-24088.83237 c 0,-513.80365 -297.875,-959.289795 -857.878,-959.289795 l -12424.717,0 z m 2024.649,2634.166365 7930.957,0 c 439.126,0 784.405,178.8552 784.403,784.4031 l 0,6265.9112 c 0,424.4115 -226.659,732.1435 -710.928,732.1435 l -7983.217,-21.214 c -461.049,0 -857.876,-340.4 -857.876,-836.1443 l 40.359,-6161.9105 c 0,-493.2132 341.817,-763.189 796.302,-763.189 z M 7260.1737,12867.79 c 0.7762,27.795 1.2937,55.508 2.0698,83.303 63.2723,2311.957 -140.3373,4563.936 -200.7576,6876.464 -31.9164,1214.254 10.1427,2324.402 -96.7569,3534.47 -153.5899,441.652 -224.805,802.471 -527.2472,1161.083 -216.2032,256.292 -478.2977,497.938 -777.1592,652.979 -341.8843,178.794 -670.1026,266.564 -1056.0467,243.186 -363.2853,-21.023 -657.3611,-96.28 -965.4988,-288.719 -344.5465,-214.313 -566.9862,-416.767 -766.2935,-769.399 -197.2357,-346.992 -293.4369,-591.689 -337.8727,-987.747 -21.6108,-189.737 -27.3038,-380.993 -19.1445,-571.744 822.8949,-1716.706 1673.2097,-3420.375 2532.2354,-5119.319 799.7073,-1580.677 1402.2257,-3239.263 2212.4719,-4814.557 z"
     id="path1897"
     inkscape:connector-curvature="0" />
</svg>
