<?xml version="1.0" encoding="UTF-8" standalone="no"?>
<svg
   xmlns:dc="http://purl.org/dc/elements/1.1/"
   xmlns:cc="http://creativecommons.org/ns#"
   xmlns:rdf="http://www.w3.org/1999/02/22-rdf-syntax-ns#"
   xmlns:svg="http://www.w3.org/2000/svg"
   xmlns="http://www.w3.org/2000/svg"
   xmlns:sodipodi="http://sodipodi.sourceforge.net/DTD/sodipodi-0.dtd"
   xmlns:inkscape="http://www.inkscape.org/namespaces/inkscape"
   width="2520"
   height="2520"
   viewBox="0 0 26880 26880"
   id="svg3064"
   version="1.1"
   inkscape:version="0.48.4 r9939"
   sodipodi:docname="furniture.svg">
  <metadata
     id="metadata3072">
    <rdf:RDF>
      <cc:Work
         rdf:about="">
        <dc:format>image/svg+xml</dc:format>
        <dc:type
           rdf:resource="http://purl.org/dc/dcmitype/StillImage" />
        <dc:title></dc:title>
      </cc:Work>
    </rdf:RDF>
  </metadata>
  <defs
     id="defs3070" />
  <sodipodi:namedview
     pagecolor="#ffffff"
     bordercolor="#666666"
     borderopacity="1"
     objecttolerance="6"
     gridtolerance="6"
     guidetolerance="6"
     inkscape:pageopacity="0"
     inkscape:pageshadow="2"
     inkscape:window-width="1600"
     inkscape:window-height="1147"
     id="namedview3068"
     showgrid="true"
     inkscape:snap-grids="false"
     inkscape:zoom="0.25000001"
     inkscape:cx="538.46721"
     inkscape:cy="1438.5736"
     inkscape:window-x="0"
     inkscape:window-y="0"
     inkscape:window-maximized="1"
     inkscape:current-layer="svg3064"
     showguides="true"
     inkscape:guide-bbox="true"
     inkscape:snap-to-guides="false"
     inkscape:object-paths="true">
    <inkscape:grid
       type="xygrid"
       id="grid3074"
       empspacing="2"
       visible="true"
       enabled="true"
       snapvisiblegridlinesonly="true"
       dotted="false"
       spacingx="315px"
       spacingy="315px"
       color="#00009b"
       opacity="0.1372549"
       empcolor="#00009b"
       empopacity="0.29411765" />
    <inkscape:grid
       type="xygrid"
       id="grid5379"
       empspacing="3"
       visible="true"
       enabled="true"
       snapvisiblegridlinesonly="true"
       color="#9b0000"
       opacity="0.11764706"
       empcolor="#9b0000"
       empopacity="0.39215686"
       spacingx="280px"
       spacingy="280px" />
    <inkscape:grid
       type="xygrid"
       id="grid5381"
       empspacing="2"
       visible="true"
       enabled="true"
       snapvisiblegridlinesonly="true"
       spacingx="252px"
       spacingy="252px"
       empcolor="#009b00"
       empopacity="0.23529412"
       color="#009b00"
       opacity="0.09803922" />
    <inkscape:grid
       type="xygrid"
       id="grid5383"
       empspacing="2"
       visible="true"
       enabled="true"
       snapvisiblegridlinesonly="true"
       spacingx="180px"
       spacingy="180px"
       color="#009b9b"
       opacity="0.07843137"
       empcolor="#009b9b"
       empopacity="0.15686275" />
    <inkscape:grid
       type="xygrid"
       id="grid3019"
       empspacing="5"
       visible="true"
       enabled="true"
       snapvisiblegridlinesonly="true"
       color="#9b0000"
       opacity="0.09803922"
       empcolor="#0000ff"
       empopacity="0"
       dotted="true"
       spacingx="140px"
       spacingy="140px" />
    <inkscape:grid
       type="xygrid"
       id="grid3013"
       empspacing="5"
       visible="true"
       enabled="false"
       snapvisiblegridlinesonly="true"
       spacingx="210px"
       spacingy="210px"
       color="#ff00ff"
       opacity="0.29411765" />
  </sodipodi:namedview>
  <path
     style="fill:#000000;fill-opacity:1;stroke:none"
     d="M 5590.452,4814.4 C 2981.8,4833.8296 2374.9499,7522.9317 1857.0705,9065.4028 c 1214.5572,30.2693 2519.7451,486.2465 2945.0406,1487.7842 l 819.8746,1760.851 c 3967.4003,-753.248 11713.5393,-864.502 15680.9403,0 l 850.066,-1730.659 c 468.295,-1043.9852 1605.829,-1499.6779 2914.85,-1427.0653 -27.192,-2035.8911 -1101.81,-4342.378 -3674.005,-4311.3864 L 5652.1775,4814.4 c -20.7898,-0.1803 -41.1848,-0.1535 -61.7255,0 z m 19165.072,6113.165 c -690.362,12.093 -1382.028,332.223 -1721.937,1035.913 l -1184.19,2581.062 c -4207.014,-1184.399 -12293.9317,-1323.975 -16743.6908,0 L 4012.7637,12054.725 C 3376.2043,10795.014 1444.8855,10677.422 521.92288,11745.763 -401.03972,12814.102 115.68253,14365.79 1614.1944,15030.292 l 394.506,3339.882 c 128.547,907.561 1160.6063,1442.249 2094.9741,1427.065 l 18504.8785,0 c 1230.659,9.628 2268.505,-636.04 2368.042,-1427.065 l 394.841,-3339.882 c 1829.569,-852.892 1836.721,-2125.761 1098.31,-3290.569 -334.903,-528.291 -1023.86,-824.251 -1714.222,-812.158 z m -401.215,9837.824 c -267.628,384.426 -890.768,503.578 -1336.155,531.375 l -1350.914,-15.431 15.097,1017.128 c 8.756,411.084 367.755,757.28 804.442,756.807 l 1047.655,0 c 501.483,-11.499 797.377,-416.33 804.779,-802.096 z m -21738.4184,45.287 0,1381.778 c 18.7761,481.602 332.5177,868.161 850.4019,862.814 l 1001.6962,0 c 436.202,-3.382 839.4079,-336.174 834.9705,-711.184 l 0,-1062.751 -1411.6335,0 c -355.7051,39.956 -906.7665,-98.264 -1275.4351,-470.657 z"
     id="path3852"
     inkscape:connector-curvature="0"
     sodipodi:nodetypes="sccccccccssccccsccccccsscccccccccccccccc" />
</svg>
