<?xml version="1.0" encoding="UTF-8" standalone="no"?>
<svg
   xmlns:dc="http://purl.org/dc/elements/1.1/"
   xmlns:cc="http://creativecommons.org/ns#"
   xmlns:rdf="http://www.w3.org/1999/02/22-rdf-syntax-ns#"
   xmlns:svg="http://www.w3.org/2000/svg"
   xmlns="http://www.w3.org/2000/svg"
   xmlns:sodipodi="http://sodipodi.sourceforge.net/DTD/sodipodi-0.dtd"
   xmlns:inkscape="http://www.inkscape.org/namespaces/inkscape"
   width="2520"
   height="2520"
   viewBox="0 0 26880 26880"
   id="svg3064"
   version="1.1"
   inkscape:version="0.48.4 r9939"
   sodipodi:docname="garden_centre.svg">
  <metadata
     id="metadata3072">
    <rdf:RDF>
      <cc:Work
         rdf:about="">
        <dc:format>image/svg+xml</dc:format>
        <dc:type
           rdf:resource="http://purl.org/dc/dcmitype/StillImage" />
        <dc:title></dc:title>
      </cc:Work>
    </rdf:RDF>
  </metadata>
  <defs
     id="defs3070">
    <inkscape:perspective
       sodipodi:type="inkscape:persp3d"
       inkscape:vp_x="0 : 225.5 : 1"
       inkscape:vp_y="0 : 1000 : 0"
       inkscape:vp_z="301 : 225.5 : 1"
       inkscape:persp3d-origin="150.5 : 150.33333 : 1"
       id="perspective2486" />
    <inkscape:perspective
       id="perspective13"
       inkscape:persp3d-origin="300.5 : 250.33333 : 1"
       inkscape:vp_z="601 : 375.5 : 1"
       inkscape:vp_y="0 : 1000 : 0"
       inkscape:vp_x="0 : 375.5 : 1"
       sodipodi:type="inkscape:persp3d" />
    <inkscape:perspective
       id="perspective9"
       inkscape:persp3d-origin="372.04724 : 350.78739 : 1"
       inkscape:vp_z="744.09448 : 526.18109 : 1"
       inkscape:vp_y="0 : 1000 : 0"
       inkscape:vp_x="0 : 526.18109 : 1"
       sodipodi:type="inkscape:persp3d" />
    <clipPath
       id="clipoutline1"
       clipPathUnits="userSpaceOnUse">
      <path
         inkscape:connector-curvature="0"
         d="m 22.42,17.2 12.96,12.95 -2.5,8.78 -8.78,2.5 -12.96,-12.96 -5.86,5.86 14.89,21.46 17.56,-3.34 61.63,65.62 c 9.44,9.51 22.17,-4.75 13.34,-12.87 L 46.85,42.92 50.86,25.16 28.72,10.89 22.42,17.2 z m 81.06,91.97 c 1.68,-1.68 4.4,-1.68 6.08,0 1.68,1.68 1.68,4.4 0,6.08 -1.68,1.67 -4.4,1.67 -6.08,0 -1.68,-1.68 -1.68,-4.4 0,-6.08 z"
         id="outline1" />
    </clipPath>
  </defs>
  <sodipodi:namedview
     pagecolor="#ffffff"
     bordercolor="#666666"
     borderopacity="1"
     objecttolerance="6"
     gridtolerance="6"
     guidetolerance="6"
     inkscape:pageopacity="0"
     inkscape:pageshadow="2"
     inkscape:window-width="1600"
     inkscape:window-height="1147"
     id="namedview3068"
     showgrid="true"
     inkscape:snap-grids="false"
     inkscape:zoom="0.16000001"
     inkscape:cx="579.88776"
     inkscape:cy="1926.1581"
     inkscape:window-x="0"
     inkscape:window-y="0"
     inkscape:window-maximized="1"
     inkscape:current-layer="g7010"
     showguides="true"
     inkscape:guide-bbox="true"
     inkscape:snap-to-guides="false">
    <inkscape:grid
       type="xygrid"
       id="grid3074"
       empspacing="2"
       visible="true"
       enabled="true"
       snapvisiblegridlinesonly="true"
       dotted="false"
       spacingx="315px"
       spacingy="315px"
       color="#00009b"
       opacity="0.1372549"
       empcolor="#00009b"
       empopacity="0.29411765" />
    <inkscape:grid
       type="xygrid"
       id="grid5379"
       empspacing="3"
       visible="true"
       enabled="true"
       snapvisiblegridlinesonly="true"
       color="#9b0000"
       opacity="0.11764706"
       empcolor="#9b0000"
       empopacity="0.39215686"
       spacingx="280px"
       spacingy="280px" />
    <inkscape:grid
       type="xygrid"
       id="grid5381"
       empspacing="2"
       visible="true"
       enabled="true"
       snapvisiblegridlinesonly="true"
       spacingx="252px"
       spacingy="252px"
       empcolor="#009b00"
       empopacity="0.23529412"
       color="#009b00"
       opacity="0.09803922" />
    <inkscape:grid
       type="xygrid"
       id="grid5383"
       empspacing="2"
       visible="true"
       enabled="true"
       snapvisiblegridlinesonly="true"
       spacingx="180px"
       spacingy="180px"
       color="#009b9b"
       opacity="0.07843137"
       empcolor="#009b9b"
       empopacity="0.15686275" />
    <inkscape:grid
       type="xygrid"
       id="grid3019"
       empspacing="5"
       visible="true"
       enabled="true"
       snapvisiblegridlinesonly="true"
       color="#9b0000"
       opacity="0.09803922"
       empcolor="#0000ff"
       empopacity="0"
       dotted="true"
       spacingx="140px"
       spacingy="140px" />
    <inkscape:grid
       type="xygrid"
       id="grid3013"
       empspacing="5"
       visible="true"
       enabled="false"
       snapvisiblegridlinesonly="true"
       spacingx="210px"
       spacingy="210px"
       color="#ff00ff"
       opacity="0.29411765" />
  </sodipodi:namedview>
  <g
     id="g4212">
    <text
       sodipodi:linespacing="125%"
       id="text2998"
       y="4924.4893"
       x="9930.1055"
       style="font-size:6048.16699219px;font-style:normal;font-variant:normal;font-weight:normal;font-stretch:normal;line-height:125%;letter-spacing:0px;word-spacing:0px;fill:#000000;fill-opacity:1;stroke:none;font-family:Liberation Sans;-inkscape-font-specification:Sans"
       xml:space="preserve"><tspan
         y="4924.4893"
         x="9930.1055"
         id="tspan3000"
         sodipodi:role="line" /></text>
    <g
       id="g4445"
       transform="matrix(10.666667,0,0,10.666667,-20763.958,4280.9699)">
      <g
         id="g3324"
         transform="matrix(4.8314063,0,0,4.8314063,1656.0154,-384.07686)"
         style="fill:#000000;fill-opacity:1">
        <g
           id="g19987"
           transform="matrix(0.20697907,0,0,0.20697907,303.00686,245.89345)"
           style="fill:#000000;fill-opacity:1;stroke:#000000;stroke-opacity:1">
          <g
             id="g2319"
             transform="matrix(4.0193763,0,0,4.0193763,2426.0211,-1127.3128)"
             style="fill:#000000;fill-opacity:1">
            <path
               inkscape:connector-curvature="0"
               id="path2323"
               style="fill:#000000;fill-opacity:1;stroke:none"
               d="" />
          </g>
          <g
             id="g2325"
             transform="matrix(4.0193763,0,0,4.0193763,2426.0211,-1127.3128)"
             style="fill:#000000;fill-opacity:1">
            <path
               inkscape:connector-curvature="0"
               id="path2329"
               style="fill:#000000;fill-opacity:1;stroke:none"
               d="" />
          </g>
          <g
             transform="matrix(4.0193763,0,0,4.0193763,-439.25405,-1002.0722)"
             id="g13"
             style="fill:#000000;fill-opacity:1" />
          <g
             id="g6443"
             transform="matrix(7.4587621,0,0,7.4587621,-1921.7122,-2158.8568)"
             style="fill:#000000;fill-opacity:1">
            <g
               id="g3338"
               transform="matrix(0.18734045,-0.03268436,0.03268436,0.18734045,202.39815,222.51218)"
               style="fill:#000000;fill-opacity:1;stroke:#000000;stroke-opacity:1" />
            <g
               id="g7010"
               transform="matrix(0.17833861,0,0,0.14132023,215.67304,227.85008)"
               style="fill:none;stroke:#000000;stroke-opacity:1">
              <g
                 id="g7201"
                 transform="matrix(3.6419036,0,0,4.5958886,-794.18619,-1077.9041)"
                 style="fill:none;stroke:#000000;stroke-opacity:1">
                <path
                   style="font-size:medium;font-style:normal;font-variant:normal;font-weight:normal;font-stretch:normal;text-indent:0;text-align:start;text-decoration:none;line-height:normal;letter-spacing:normal;word-spacing:normal;text-transform:none;direction:ltr;block-progression:tb;writing-mode:lr-tb;text-anchor:start;baseline-shift:baseline;color:#000000;fill:#000000;fill-opacity:1;stroke:none;stroke-width:17.27817917;marker:none;visibility:visible;display:inline;overflow:visible;enable-background:accumulate;font-family:Sans;-inkscape-font-specification:Sans"
                   d="m 998.4605,857.79235 c -3.8255,0.23046 -14.57724,0.34895 -17.27859,3.0674 -2.70136,2.71845 -4.35884,6.4495 -4.56516,10.27635 -3.34335,62.78022 -15.70721,124.18188 -31.78125,185.3126 -16.28475,0.2089 -18.32591,-0.3783 -32.523,0.3951 -34.18111,1.8617 -62.05514,5.1415 -82.6875,8.8437 -10.31618,1.8511 -18.76709,3.7426 -25.625,5.8125 -6.85791,2.0699 -11.59848,3.1162 -17.65625,8.4062 -3.32444,2.9319 -5.31893,7.3175 -5.34375,11.75 l -1.625,195.7813 -162.34375,-151 c 12.88856,-26.937 19.73758,-64.3644 15.03125,-110.5937 -0.39051,-3.9383 -2.32608,-7.7027 -5.30199,-10.3117 -2.9759,-2.6089 -6.96123,-4.0353 -10.91676,-3.9071 -1.53187,0.071 -3.05314,0.3668 -4.5,0.875 -41.10088,13.8331 -81.74985,46.4485 -114.8125,80.1875 -16.53133,16.8695 -31.01803,34.0444 -42.3125,49.625 -11.29447,15.5806 -19.39756,28.9699 -23.28125,41.4063 -1.71744,5.4617 -0.1657,11.8188 3.875,15.875 -0.49522,0.8833 -0.98128,1.7702 -1.46875,2.6562 0.89479,-0.5531 1.79773,-1.0762 2.71875,-1.5625 1.71881,1.3974 3.73517,2.4271 5.875,3 34.88746,9.1333 73.8533,8.7332 107.0625,-4.4375 l 229.0625,245.5312 -0.5,61.3126 c -0.0387,4.8158 2.26834,9.5963 6.0625,12.5624 18.00929,14.0727 45.52248,22.489 79.75,29.2813 34.22752,6.7923 74.77585,10.9656 115.9375,11.7187 41.1616,0.7534 82.9065,-1.9 119.625,-9.0312 36.7185,-7.1312 68.5924,-18.2701 90.25,-37.8438 3.2294,-2.9252 5.1585,-7.2366 5.1875,-11.5937 l 1.4531,-118.5156 c 6.6883,-5.8811 12.6711,-11.6828 18.5937,-16.3126 20.4346,-14.7617 99.7049,-75.9304 115.7743,-103.884 17.2376,-20.9717 35.62,-43.2758 43.7546,-76.002 8.183,-48.5204 -6.2126,-90.9155 -29.9202,-116.3795 -30.2837,-31.4461 -34.8743,-37.1768 -95.2499,-35.9065 -25.9861,1.0998 -53.4592,18.6657 -75.875,35.25 -48.3781,-6.6802 -81.2959,-9.5417 -122.3153,-11.5201 6.7739,-59.61481 11.0572,-117.72966 26.9403,-174.32365 1.2256,-4.32772 0.4862,-9.17169 -1.9747,-12.93672 -2.4608,-3.76502 -6.6008,-6.38637 -11.0565,-7.00078 l -62.9139,-5.7387 c -1.0341,-0.1449 -2.0826,-0.18684 -3.125,-0.125 z m 252.352,236.98885 c 0.5718,0.01 1.1248,0.053 1.6875,0.094 0.094,8e-4 0.1875,8e-4 0.2812,0 24.8203,1.3534 50.514,16.9084 55.8438,39.7812 0.039,0.1569 0.081,0.3132 0.125,0.4688 5.4582,20.7251 4.6958,38.0447 -3.3125,57.3125 -10.9726,19.2519 -35.7596,42.4112 -54.3437,57.4375 -0.2231,0.1609 -0.4419,0.3277 -0.6563,0.5 -15.6941,14.0328 -35.0609,29.3906 -54.375,46.0938 l 1.4687,-175.1876 c 16.3457,-13.2529 36.659,-26.7198 53.2813,-26.5 z m -101.875,3.4376 c 0.1247,0.015 0.2503,0.047 0.375,0.062 -0.028,0.1135 -0.036,0.2329 -0.063,0.3438 -0.1018,-0.1371 -0.2062,-0.2718 -0.3125,-0.4062 z"
                   transform="matrix(0.54736632,0,0,0.54736632,-192.64335,-325.54069)"
                   id="path7174"
                   inkscape:connector-curvature="0"
                   sodipodi:nodetypes="cscccsscccccsccsscccccccccssscccccccccccscccccccccccccccccccc" />
                <g
                   transform="translate(21.699573,30.379402)"
                   id="g7197"
                   style="fill:none;stroke:#000000;stroke-opacity:1" />
              </g>
              <path
                 style="fill:#000000;fill-opacity:1;fill-rule:nonzero;stroke:none"
                 d=""
                 id="path5292"
                 inkscape:connector-curvature="0"
                 transform="matrix(0.75177497,0,0,0.94870001,-646.74101,-707.63343)" />
            </g>
            <g
               id="g4243"
               transform="matrix(0.27366934,0,0,0.18486525,172.62925,206.71382)"
               style="fill:#000000;fill-opacity:1;stroke:none" />
            <g
               transform="matrix(3.4614719,0,0,3.4614719,-792.24329,12.045283)"
               style="font-size:10px;font-style:normal;font-variant:normal;font-weight:bold;font-stretch:normal;text-align:start;line-height:125%;writing-mode:lr-tb;text-anchor:start;fill:#000000;fill-opacity:1;stroke:none;font-family:Bitstream Charter;-inkscape-font-specification:Bitstream Charter Bold;stroke-opacity:1"
               id="flowRoot6831" />
          </g>
        </g>
      </g>
    </g>
  </g>
</svg>
