<?xml version="1.0" encoding="UTF-8" standalone="no"?>
<svg
   xmlns:dc="http://purl.org/dc/elements/1.1/"
   xmlns:cc="http://creativecommons.org/ns#"
   xmlns:rdf="http://www.w3.org/1999/02/22-rdf-syntax-ns#"
   xmlns:svg="http://www.w3.org/2000/svg"
   xmlns="http://www.w3.org/2000/svg"
   xmlns:sodipodi="http://sodipodi.sourceforge.net/DTD/sodipodi-0.dtd"
   xmlns:inkscape="http://www.inkscape.org/namespaces/inkscape"
   width="2520"
   height="2520"
   viewBox="0 0 26880 26880"
   id="svg3064"
   version="1.1"
   inkscape:version="0.48.4 r9939"
   sodipodi:docname="greengrocer.svg">
  <metadata
     id="metadata3072">
    <rdf:RDF>
      <cc:Work
         rdf:about="">
        <dc:format>image/svg+xml</dc:format>
        <dc:type
           rdf:resource="http://purl.org/dc/dcmitype/StillImage" />
        <dc:title></dc:title>
      </cc:Work>
    </rdf:RDF>
  </metadata>
  <defs
     id="defs3070">
    <inkscape:perspective
       sodipodi:type="inkscape:persp3d"
       inkscape:vp_x="0 : 225.5 : 1"
       inkscape:vp_y="0 : 1000 : 0"
       inkscape:vp_z="301 : 225.5 : 1"
       inkscape:persp3d-origin="150.5 : 150.33333 : 1"
       id="perspective2486" />
    <inkscape:perspective
       id="perspective13"
       inkscape:persp3d-origin="300.5 : 250.33333 : 1"
       inkscape:vp_z="601 : 375.5 : 1"
       inkscape:vp_y="0 : 1000 : 0"
       inkscape:vp_x="0 : 375.5 : 1"
       sodipodi:type="inkscape:persp3d" />
    <inkscape:perspective
       id="perspective9"
       inkscape:persp3d-origin="372.04724 : 350.78739 : 1"
       inkscape:vp_z="744.09448 : 526.18109 : 1"
       inkscape:vp_y="0 : 1000 : 0"
       inkscape:vp_x="0 : 526.18109 : 1"
       sodipodi:type="inkscape:persp3d" />
    <clipPath
       id="clipoutline1"
       clipPathUnits="userSpaceOnUse">
      <path
         inkscape:connector-curvature="0"
         d="m 22.42,17.2 12.96,12.95 -2.5,8.78 -8.78,2.5 -12.96,-12.96 -5.86,5.86 14.89,21.46 17.56,-3.34 61.63,65.62 c 9.44,9.51 22.17,-4.75 13.34,-12.87 L 46.85,42.92 50.86,25.16 28.72,10.89 22.42,17.2 z m 81.06,91.97 c 1.68,-1.68 4.4,-1.68 6.08,0 1.68,1.68 1.68,4.4 0,6.08 -1.68,1.67 -4.4,1.67 -6.08,0 -1.68,-1.68 -1.68,-4.4 0,-6.08 z"
         id="outline1" />
    </clipPath>
  </defs>
  <sodipodi:namedview
     pagecolor="#ffffff"
     bordercolor="#666666"
     borderopacity="1"
     objecttolerance="6"
     gridtolerance="6"
     guidetolerance="6"
     inkscape:pageopacity="0"
     inkscape:pageshadow="2"
     inkscape:window-width="1600"
     inkscape:window-height="1147"
     id="namedview3068"
     showgrid="true"
     inkscape:snap-grids="false"
     inkscape:zoom="0.11313709"
     inkscape:cx="-297.34761"
     inkscape:cy="1424.3146"
     inkscape:window-x="0"
     inkscape:window-y="0"
     inkscape:window-maximized="1"
     inkscape:current-layer="g7010"
     showguides="true"
     inkscape:guide-bbox="true"
     inkscape:snap-to-guides="false">
    <inkscape:grid
       type="xygrid"
       id="grid3074"
       empspacing="2"
       visible="true"
       enabled="true"
       snapvisiblegridlinesonly="true"
       dotted="false"
       spacingx="315px"
       spacingy="315px"
       color="#00009b"
       opacity="0.1372549"
       empcolor="#00009b"
       empopacity="0.29411765" />
    <inkscape:grid
       type="xygrid"
       id="grid5379"
       empspacing="3"
       visible="true"
       enabled="true"
       snapvisiblegridlinesonly="true"
       color="#9b0000"
       opacity="0.11764706"
       empcolor="#9b0000"
       empopacity="0.39215686"
       spacingx="280px"
       spacingy="280px" />
    <inkscape:grid
       type="xygrid"
       id="grid5381"
       empspacing="2"
       visible="true"
       enabled="true"
       snapvisiblegridlinesonly="true"
       spacingx="252px"
       spacingy="252px"
       empcolor="#009b00"
       empopacity="0.23529412"
       color="#009b00"
       opacity="0.09803922" />
    <inkscape:grid
       type="xygrid"
       id="grid5383"
       empspacing="2"
       visible="true"
       enabled="true"
       snapvisiblegridlinesonly="true"
       spacingx="180px"
       spacingy="180px"
       color="#009b9b"
       opacity="0.07843137"
       empcolor="#009b9b"
       empopacity="0.15686275" />
    <inkscape:grid
       type="xygrid"
       id="grid3019"
       empspacing="5"
       visible="true"
       enabled="true"
       snapvisiblegridlinesonly="true"
       color="#9b0000"
       opacity="0.09803922"
       empcolor="#0000ff"
       empopacity="0"
       dotted="true"
       spacingx="140px"
       spacingy="140px" />
    <inkscape:grid
       type="xygrid"
       id="grid3013"
       empspacing="5"
       visible="true"
       enabled="false"
       snapvisiblegridlinesonly="true"
       spacingx="210px"
       spacingy="210px"
       color="#ff00ff"
       opacity="0.29411765" />
  </sodipodi:namedview>
  <g
     id="g4212">
    <text
       sodipodi:linespacing="125%"
       id="text2998"
       y="4924.4893"
       x="9930.1055"
       style="font-size:6048.16699219px;font-style:normal;font-variant:normal;font-weight:normal;font-stretch:normal;line-height:125%;letter-spacing:0px;word-spacing:0px;fill:#000000;fill-opacity:1;stroke:none;font-family:Liberation Sans;-inkscape-font-specification:Sans"
       xml:space="preserve"><tspan
         y="4924.4893"
         x="9930.1055"
         id="tspan3000"
         sodipodi:role="line" /></text>
    <g
       id="g4445"
       transform="matrix(10.666667,0,0,10.666667,-20763.958,4280.9699)">
      <g
         id="g3324"
         transform="matrix(4.8314063,0,0,4.8314063,1656.0154,-384.07686)"
         style="fill:#000000;fill-opacity:1">
        <g
           id="g19987"
           transform="matrix(0.20697907,0,0,0.20697907,303.00686,245.89345)"
           style="fill:#000000;fill-opacity:1;stroke:#000000;stroke-opacity:1">
          <g
             id="g2319"
             transform="matrix(4.0193763,0,0,4.0193763,2426.0211,-1127.3128)"
             style="fill:#000000;fill-opacity:1">
            <path
               inkscape:connector-curvature="0"
               id="path2323"
               style="fill:#000000;fill-opacity:1;stroke:none"
               d="" />
          </g>
          <g
             id="g2325"
             transform="matrix(4.0193763,0,0,4.0193763,2426.0211,-1127.3128)"
             style="fill:#000000;fill-opacity:1">
            <path
               inkscape:connector-curvature="0"
               id="path2329"
               style="fill:#000000;fill-opacity:1;stroke:none"
               d="" />
          </g>
          <g
             transform="matrix(4.0193763,0,0,4.0193763,-439.25405,-1002.0722)"
             id="g13"
             style="fill:#000000;fill-opacity:1" />
          <g
             id="g6443"
             transform="matrix(7.4587621,0,0,7.4587621,-1921.7122,-2158.8568)"
             style="fill:#000000;fill-opacity:1">
            <g
               id="g3338"
               transform="matrix(0.18734045,-0.03268436,0.03268436,0.18734045,202.39815,222.51218)"
               style="fill:#000000;fill-opacity:1;stroke:#000000;stroke-opacity:1" />
            <g
               id="g7010"
               transform="matrix(0.17833861,0,0,0.14132023,215.67304,227.85008)"
               style="fill:none;stroke:#000000;stroke-opacity:1">
              <g
                 transform="matrix(3.9808497,0,0,5.0236204,-819.7721,-969.6986)"
                 id="g8499"
                 style="fill:#000000;fill-opacity:1">
                <path
                   style="fill:#000000;fill-opacity:1;stroke-width:5.29526758"
                   d="M 518.84375 14.4375 C 496.46135 14.508727 473.18947 15.33834 449 17.03125 C 449 17.03125 567.89748 609.62456 1083.8125 482.125 C 1083.8649 482.47966 1069.4508 12.685321 518.84375 14.4375 z M 1223.8438 109.53125 C 1193.3875 110.078 1177.6929 127.98131 1198.375 180.0625 C 1261.4062 338.78614 1267.125 947.21875 1267.125 947.21875 L 1410.375 180.0625 C 1410.375 180.0625 1286.2065 108.41171 1223.8438 109.53125 z M 2091.125 212.71875 C 1539.8093 214.16097 1480.9695 703.97979 1481.0625 703.59375 C 2069.0895 905.77284 2269.2188 227.5 2269.2188 227.5 C 2204.7828 217.1835 2145.5467 212.57638 2091.125 212.71875 z M 888.5625 905.34375 C 576.61579 905.34375 323.6875 1157.1934 323.6875 1468.5938 C 323.6875 1480.6128 323.67356 1490.4649 325.3125 1501.9375 L 328.03125 1501.9375 C 336.77236 1622.6735 375.56257 1775.0983 467.34375 1963.0312 C 467.34375 1963.0312 626.34716 2265.1419 752 2403.9062 L 763.46875 2414.8438 C 825.20252 2477.1238 910.4247 2515.3438 1004.9375 2515.3438 C 1119.664 2515.3438 1221.2662 2459.6305 1283 2373.3125 L 1284.6562 2373.3125 C 1346.39 2459.6305 1447.992 2515.3438 1562.7188 2515.3438 C 1656.1384 2515.3438 1742.469 2476.5776 1803.6562 2414.8438 L 1815.125 2403.9062 C 1941.8706 2265.1419 2099.75 1963.0312 2099.75 1963.0312 C 2191.5317 1775.0983 2230.3225 1623.7661 2240.1562 1501.9375 L 2241.25 1501.9375 C 2241.7963 1489.9185 2241.7812 1480.0664 2241.7812 1468.5938 C 2241.7812 1157.1934 1988.8543 905.34375 1678 905.34375 C 1523.9393 905.34375 1385.1773 966.00901 1283.5625 1066.5312 C 1180.855 966.00901 1042.0774 905.34375 888.5625 905.34375 z "
                   transform="matrix(0.18884787,0,0,0.18884787,43.465868,52.166595)"
                   id="path6571" />
              </g>
            </g>
            <g
               id="g4243"
               transform="matrix(0.27366934,0,0,0.18486525,172.62925,206.71382)"
               style="fill:#000000;fill-opacity:1;stroke:none" />
            <g
               transform="matrix(3.4614719,0,0,3.4614719,-792.24329,12.045283)"
               style="font-size:10px;font-style:normal;font-variant:normal;font-weight:bold;font-stretch:normal;text-align:start;line-height:125%;writing-mode:lr-tb;text-anchor:start;fill:#000000;fill-opacity:1;stroke:none;font-family:Bitstream Charter;-inkscape-font-specification:Bitstream Charter Bold;stroke-opacity:1"
               id="flowRoot6831" />
          </g>
        </g>
      </g>
    </g>
  </g>
</svg>
