<?xml version="1.0" encoding="UTF-8" standalone="no"?>
<svg
   xmlns:dc="http://purl.org/dc/elements/1.1/"
   xmlns:cc="http://creativecommons.org/ns#"
   xmlns:rdf="http://www.w3.org/1999/02/22-rdf-syntax-ns#"
   xmlns:svg="http://www.w3.org/2000/svg"
   xmlns="http://www.w3.org/2000/svg"
   xmlns:sodipodi="http://sodipodi.sourceforge.net/DTD/sodipodi-0.dtd"
   xmlns:inkscape="http://www.inkscape.org/namespaces/inkscape"
   width="2520"
   height="2520"
   viewBox="0 0 26880 26880"
   id="svg3064"
   version="1.1"
   inkscape:version="0.48.4 r9939"
   sodipodi:docname="hairdresser.svg">
  <metadata
     id="metadata3072">
    <rdf:RDF>
      <cc:Work
         rdf:about="">
        <dc:format>image/svg+xml</dc:format>
        <dc:type
           rdf:resource="http://purl.org/dc/dcmitype/StillImage" />
        <dc:title></dc:title>
      </cc:Work>
    </rdf:RDF>
  </metadata>
  <defs
     id="defs3070">
    <inkscape:perspective
       sodipodi:type="inkscape:persp3d"
       inkscape:vp_x="0 : 225.5 : 1"
       inkscape:vp_y="0 : 1000 : 0"
       inkscape:vp_z="301 : 225.5 : 1"
       inkscape:persp3d-origin="150.5 : 150.33333 : 1"
       id="perspective2486" />
    <inkscape:perspective
       id="perspective13"
       inkscape:persp3d-origin="300.5 : 250.33333 : 1"
       inkscape:vp_z="601 : 375.5 : 1"
       inkscape:vp_y="0 : 1000 : 0"
       inkscape:vp_x="0 : 375.5 : 1"
       sodipodi:type="inkscape:persp3d" />
    <inkscape:perspective
       id="perspective9"
       inkscape:persp3d-origin="372.04724 : 350.78739 : 1"
       inkscape:vp_z="744.09448 : 526.18109 : 1"
       inkscape:vp_y="0 : 1000 : 0"
       inkscape:vp_x="0 : 526.18109 : 1"
       sodipodi:type="inkscape:persp3d" />
  </defs>
  <sodipodi:namedview
     pagecolor="#ffffff"
     bordercolor="#666666"
     borderopacity="1"
     objecttolerance="6"
     gridtolerance="6"
     guidetolerance="6"
     inkscape:pageopacity="0"
     inkscape:pageshadow="2"
     inkscape:window-width="1600"
     inkscape:window-height="1147"
     id="namedview3068"
     showgrid="true"
     inkscape:snap-grids="false"
     inkscape:zoom="0.080000004"
     inkscape:cx="1425.4051"
     inkscape:cy="-1692.6407"
     inkscape:window-x="0"
     inkscape:window-y="0"
     inkscape:window-maximized="1"
     inkscape:current-layer="g3324"
     showguides="true"
     inkscape:guide-bbox="true"
     inkscape:snap-to-guides="false">
    <inkscape:grid
       type="xygrid"
       id="grid3074"
       empspacing="2"
       visible="true"
       enabled="true"
       snapvisiblegridlinesonly="true"
       dotted="false"
       spacingx="315px"
       spacingy="315px"
       color="#00009b"
       opacity="0.1372549"
       empcolor="#00009b"
       empopacity="0.29411765" />
    <inkscape:grid
       type="xygrid"
       id="grid5379"
       empspacing="3"
       visible="true"
       enabled="true"
       snapvisiblegridlinesonly="true"
       color="#9b0000"
       opacity="0.11764706"
       empcolor="#9b0000"
       empopacity="0.39215686"
       spacingx="280px"
       spacingy="280px" />
    <inkscape:grid
       type="xygrid"
       id="grid5381"
       empspacing="2"
       visible="true"
       enabled="true"
       snapvisiblegridlinesonly="true"
       spacingx="252px"
       spacingy="252px"
       empcolor="#009b00"
       empopacity="0.23529412"
       color="#009b00"
       opacity="0.09803922" />
    <inkscape:grid
       type="xygrid"
       id="grid5383"
       empspacing="2"
       visible="true"
       enabled="true"
       snapvisiblegridlinesonly="true"
       spacingx="180px"
       spacingy="180px"
       color="#009b9b"
       opacity="0.07843137"
       empcolor="#009b9b"
       empopacity="0.15686275" />
    <inkscape:grid
       type="xygrid"
       id="grid3019"
       empspacing="5"
       visible="true"
       enabled="true"
       snapvisiblegridlinesonly="true"
       color="#9b0000"
       opacity="0.09803922"
       empcolor="#0000ff"
       empopacity="0"
       dotted="true"
       spacingx="140px"
       spacingy="140px" />
    <inkscape:grid
       type="xygrid"
       id="grid3013"
       empspacing="5"
       visible="true"
       enabled="false"
       snapvisiblegridlinesonly="true"
       spacingx="210px"
       spacingy="210px"
       color="#ff00ff"
       opacity="0.29411765" />
  </sodipodi:namedview>
  <g
     id="g4212">
    <text
       sodipodi:linespacing="125%"
       id="text2998"
       y="4924.4893"
       x="9930.1055"
       style="font-size:6048.16699219px;font-style:normal;font-variant:normal;font-weight:normal;font-stretch:normal;line-height:125%;letter-spacing:0px;word-spacing:0px;fill:#000000;fill-opacity:1;stroke:none;font-family:Liberation Sans;-inkscape-font-specification:Sans"
       xml:space="preserve"><tspan
         y="4924.4893"
         x="9930.1055"
         id="tspan3000"
         sodipodi:role="line" /></text>
    <g
       id="g4445"
       transform="matrix(10.666667,0,0,10.666667,-20763.958,4280.9699)">
      <g
         id="g3324"
         transform="matrix(4.8314063,0,0,4.8314063,1656.0154,-384.07686)"
         style="fill:#000000;fill-opacity:1">
        <path
           style="font-size:medium;font-style:normal;font-variant:normal;font-weight:normal;font-stretch:normal;text-indent:0;text-align:start;text-decoration:none;line-height:normal;letter-spacing:normal;word-spacing:normal;text-transform:none;direction:ltr;block-progression:tb;writing-mode:lr-tb;text-anchor:start;baseline-shift:baseline;color:#000000;fill:#000000;fill-opacity:1;fill-rule:evenodd;stroke:none;stroke-width:24.83748817;marker:none;visibility:visible;display:inline;overflow:visible;enable-background:accumulate;font-family:Sans;-inkscape-font-specification:Sans"
           d="M 1482.3125 -15.125 C 1479.5934 -15.126787 1477.1508 -14.936417 1474.8438 -14.71875 C 1454.9134 -12.838396 1439.0044 0.043433485 1432.1562 8.9375 C 1425.3082 17.831567 1423.3785 24.002098 1421.875 28.71875 C 1418.868 38.152055 1418.7531 43.025294 1418.375 47.9375 C 1417.6189 57.761912 1417.8634 66.393133 1418.375 76.84375 C 1419.3982 97.744984 1421.9996 124.70703 1425.75 157.375 C 1433.2508 222.71095 1445.4818 309.7673 1459.6875 402.03125 C 1488.0989 586.55909 1523.2017 787.40205 1546.0312 875.28125 C 1577.7469 997.36596 1577.3199 998.78686 1581.75 1025.25 C 1586.1801 1051.7131 1594.5424 1098.1434 1641.3125 1293.9688 C 1649.6006 1328.6708 1657.9008 1362.9889 1666.2188 1396.875 L 1550.5 1819.9688 C 1537.9078 1814.7281 1524.6714 1809.6121 1509.75 1805.4375 C 1441.2601 1786.2757 1342.7884 1784.3774 1251.125 1849.0938 C 1161.3393 1912.4842 1119.1321 2001.939 1110.25 2087.3438 C 1101.3679 2172.7484 1121.168 2254.4766 1145 2321.3438 C 1216.1732 2521.0399 1457.5735 2573.5516 1583.5 2437.9688 C 1614.9852 2404.0692 1630.9431 2362.0651 1656.25 2297.2812 C 1681.5569 2232.4975 1709.9864 2148.4213 1740.6562 2048.75 C 1757.1984 1994.9911 1774.3968 1936.5585 1792.0312 1874.4688 C 1809.014 1934.1105 1825.5721 1990.2607 1841.5312 2042.125 C 1872.2012 2141.7963 1900.6306 2225.7161 1925.9375 2290.5 C 1951.2444 2355.2839 1967.2023 2397.2568 1998.6875 2431.1562 C 2124.614 2566.7392 2366.0143 2514.2588 2437.1875 2314.5625 C 2461.0195 2247.6954 2480.8196 2165.9672 2471.9375 2080.5625 C 2463.0554 1995.1578 2420.8482 1905.6718 2331.0625 1842.2812 C 2239.3991 1777.565 2140.9274 1779.4632 2072.4375 1798.625 C 2057.5904 1802.7789 2044.2299 1807.9754 2031.6875 1813.1875 L 1917.6875 1396.4062 C 1925.4302 1364.8042 1933.1593 1332.868 1940.875 1300.5625 C 1987.6451 1104.7371 1996.0074 1058.4944 2000.4375 1032.0312 C 2004.8676 1005.5682 2004.4407 1004.1472 2036.1562 882.0625 C 2058.9859 794.1833 2094.0886 593.34034 2122.5 408.8125 C 2136.7057 316.54855 2148.9367 229.3047 2156.4375 163.96875 C 2160.1879 131.30078 2162.7893 104.33873 2163.8125 83.4375 C 2164.3241 72.986883 2164.5686 64.543162 2163.8125 54.71875 C 2163.4344 49.806544 2163.3194 44.964555 2160.3125 35.53125 C 2158.809 30.814598 2156.8794 24.612817 2150.0312 15.71875 C 2143.1832 6.8246834 2127.274 -6.057146 2107.3438 -7.9375 C 2101.1914 -8.5179646 2094.0306 -8.8058059 2083.5 -6.1875 C 2072.9694 -3.5691941 2056.1357 3.4215247 2044.875 21.5625 C 2041.8742 26.439856 2039.589 31.753388 2038.0938 37.28125 L 1792 936.96875 L 1544.0938 30.65625 C 1542.5984 25.128388 1540.3133 19.846106 1537.3125 14.96875 C 1526.0518 -3.1722253 1509.2181 -10.381694 1498.6875 -13 C 1492.1059 -14.636441 1486.8443 -15.122022 1482.3125 -15.125 z M 656.375 21.8125 C 636.57638 21.819554 618.1536 22.317441 601.21875 23.5 C 574.12297 25.392098 554.51855 23.660161 520.03125 42.5625 C 488.5714 59.805653 486.97149 72.708073 481.28125 82.875 C 475.59101 93.041917 471.60888 102.21382 467.46875 112.75 C 459.18864 133.82234 451 159.34936 441.96875 190.375 C 423.90634 252.42628 402.92522 336.14026 379.8125 435.65625 C 333.587 634.68825 279.3253 895.78465 228.78125 1158.4688 C 178.23711 1421.1528 131.48625 1685.08 100.21875 1889.6875 C 84.584976 1991.9913 72.778908 2079.3497 66.34375 2145.5938 C 63.126173 2178.7156 61.174703 2206.3459 60.9375 2229.8125 C 60.818744 2241.5458 61.058132 2252.2158 62.3125 2263.5312 C 63.567057 2274.8467 62.651675 2285.7953 76.40625 2308.875 C 102.31477 2352.3496 133.26875 2360.1505 162.8125 2370.4062 C 192.35629 2380.6621 224.87327 2387.6865 261.28125 2393.7188 C 334.09721 2405.7833 421.49575 2412.8871 507 2417.5938 C 678.0084 2427.0067 841.5 2426 841.5 2426 A 79.709346 79.709346 0 0 0 852.125 2267.3438 L 262.90625 2183.5 L 277.8125 2107.0312 L 874.78125 2118.3125 L 881 2038.9062 L 306.15625 1961.2812 L 324.5 1866.9375 L 912.09375 1878.0625 L 918.125 1798.6562 L 352.6875 1722.3125 L 371.34375 1626.4688 L 969.6875 1637.7812 L 975.6875 1558.375 L 399.71875 1480.5938 L 418.0625 1386.3438 L 1008.9688 1397.5312 L 1015 1318.125 L 446.3125 1241.3125 L 464.84375 1146.125 L 1053.2812 1157.25 L 1059.2812 1077.8438 L 493.09375 1001.1875 L 511.625 905.78125 L 1101 917 L 1107.0312 837.59375 L 539.875 760.78125 L 558.375 665.59375 L 1144.3438 676.71875 L 1150.375 597.3125 L 586.53125 520.96875 L 605.125 425.53125 L 1181.25 436.46875 L 1187.4688 357.0625 L 633.0625 282 L 646.75 211.625 L 1219.75 228.875 A 79.709346 79.709346 0 0 0 1231.9688 70.25 C 1231.9688 70.25 1082.4314 51.296999 923.34375 37.15625 C 843.79986 30.085876 762.01901 24.055769 693.5 22.3125 C 680.65266 21.985641 668.25417 21.808264 656.375 21.8125 z M 2181.2812 1971.9062 C 2224.2967 1972.0124 2302.1772 2044.315 2302.1562 2149.8125 L 2302.1562 2150.0312 L 2302.1562 2150.2188 C 2302.0508 2202.9344 2283.3168 2252.0859 2257.5312 2285.6562 C 2231.7137 2319.2684 2201.1188 2334.2055 2181.0938 2334.1562 C 2165.1629 2334.1191 2131.6909 2316.6859 2104.0625 2277.6875 C 2076.4341 2238.6891 2056.6604 2183.2881 2056.7188 2131 C 2056.8354 2026.4371 2130.0807 1971.7804 2181.2812 1971.9062 z M 1400.9062 1978.6875 C 1452.1069 1978.5615 1525.352 2033.0309 1525.4688 2137.5938 C 1525.5245 2189.8818 1505.7534 2245.2829 1478.125 2284.2812 C 1450.4966 2323.2797 1417.0245 2340.8983 1401.0938 2340.9375 C 1381.0686 2340.9872 1350.4739 2325.8621 1324.6562 2292.25 C 1298.8387 2258.6379 1280.0902 2209.6031 1280.0312 2156.8125 L 1280.0312 2156.4062 C 1280.0127 2050.9088 1357.8909 1978.7935 1400.9062 1978.6875 z "
           transform="matrix(0.20697907,0,0,0.20697907,60.149278,-3.5732982)"
           id="path3292" />
        <g
           id="g3380"
           transform="matrix(1.2851003,0,0,1.2851003,-119.23482,-100.435)"
           style="fill:#000000;fill-opacity:1;stroke:#000000;stroke-width:17.11567116;stroke-miterlimit:4;stroke-opacity:1;stroke-dasharray:none" />
      </g>
    </g>
  </g>
</svg>
