<?xml version="1.0" encoding="UTF-8" standalone="no"?>
<svg
   xmlns:dc="http://purl.org/dc/elements/1.1/"
   xmlns:cc="http://creativecommons.org/ns#"
   xmlns:rdf="http://www.w3.org/1999/02/22-rdf-syntax-ns#"
   xmlns:svg="http://www.w3.org/2000/svg"
   xmlns="http://www.w3.org/2000/svg"
   xmlns:sodipodi="http://sodipodi.sourceforge.net/DTD/sodipodi-0.dtd"
   xmlns:inkscape="http://www.inkscape.org/namespaces/inkscape"
   width="2520"
   height="2520"
   viewBox="0 0 26880 26880"
   id="svg3064"
   version="1.1"
   inkscape:version="0.48.4 r9939"
   sodipodi:docname="hifi.svg">
  <metadata
     id="metadata3072">
    <rdf:RDF>
      <cc:Work
         rdf:about="">
        <dc:format>image/svg+xml</dc:format>
        <dc:type
           rdf:resource="http://purl.org/dc/dcmitype/StillImage" />
        <dc:title></dc:title>
      </cc:Work>
    </rdf:RDF>
  </metadata>
  <defs
     id="defs3070">
    <inkscape:perspective
       sodipodi:type="inkscape:persp3d"
       inkscape:vp_x="0 : 225.5 : 1"
       inkscape:vp_y="0 : 1000 : 0"
       inkscape:vp_z="301 : 225.5 : 1"
       inkscape:persp3d-origin="150.5 : 150.33333 : 1"
       id="perspective2486" />
    <inkscape:perspective
       id="perspective13"
       inkscape:persp3d-origin="300.5 : 250.33333 : 1"
       inkscape:vp_z="601 : 375.5 : 1"
       inkscape:vp_y="0 : 1000 : 0"
       inkscape:vp_x="0 : 375.5 : 1"
       sodipodi:type="inkscape:persp3d" />
    <inkscape:perspective
       id="perspective9"
       inkscape:persp3d-origin="372.04724 : 350.78739 : 1"
       inkscape:vp_z="744.09448 : 526.18109 : 1"
       inkscape:vp_y="0 : 1000 : 0"
       inkscape:vp_x="0 : 526.18109 : 1"
       sodipodi:type="inkscape:persp3d" />
    <clipPath
       id="clipoutline1"
       clipPathUnits="userSpaceOnUse">
      <path
         inkscape:connector-curvature="0"
         d="m 22.42,17.2 12.96,12.95 -2.5,8.78 -8.78,2.5 -12.96,-12.96 -5.86,5.86 14.89,21.46 17.56,-3.34 61.63,65.62 c 9.44,9.51 22.17,-4.75 13.34,-12.87 L 46.85,42.92 50.86,25.16 28.72,10.89 22.42,17.2 z m 81.06,91.97 c 1.68,-1.68 4.4,-1.68 6.08,0 1.68,1.68 1.68,4.4 0,6.08 -1.68,1.67 -4.4,1.67 -6.08,0 -1.68,-1.68 -1.68,-4.4 0,-6.08 z"
         id="outline1" />
    </clipPath>
  </defs>
  <sodipodi:namedview
     pagecolor="#ffffff"
     bordercolor="#666666"
     borderopacity="1"
     objecttolerance="6"
     gridtolerance="6"
     guidetolerance="6"
     inkscape:pageopacity="0"
     inkscape:pageshadow="2"
     inkscape:window-width="1600"
     inkscape:window-height="1147"
     id="namedview3068"
     showgrid="true"
     inkscape:snap-grids="false"
     inkscape:zoom="0.11313709"
     inkscape:cx="-297.34761"
     inkscape:cy="1424.3146"
     inkscape:window-x="0"
     inkscape:window-y="0"
     inkscape:window-maximized="1"
     inkscape:current-layer="g7010"
     showguides="true"
     inkscape:guide-bbox="true"
     inkscape:snap-to-guides="false">
    <inkscape:grid
       type="xygrid"
       id="grid3074"
       empspacing="2"
       visible="true"
       enabled="true"
       snapvisiblegridlinesonly="true"
       dotted="false"
       spacingx="315px"
       spacingy="315px"
       color="#00009b"
       opacity="0.1372549"
       empcolor="#00009b"
       empopacity="0.29411765" />
    <inkscape:grid
       type="xygrid"
       id="grid5379"
       empspacing="3"
       visible="true"
       enabled="true"
       snapvisiblegridlinesonly="true"
       color="#9b0000"
       opacity="0.11764706"
       empcolor="#9b0000"
       empopacity="0.39215686"
       spacingx="280px"
       spacingy="280px" />
    <inkscape:grid
       type="xygrid"
       id="grid5381"
       empspacing="2"
       visible="true"
       enabled="true"
       snapvisiblegridlinesonly="true"
       spacingx="252px"
       spacingy="252px"
       empcolor="#009b00"
       empopacity="0.23529412"
       color="#009b00"
       opacity="0.09803922" />
    <inkscape:grid
       type="xygrid"
       id="grid5383"
       empspacing="2"
       visible="true"
       enabled="true"
       snapvisiblegridlinesonly="true"
       spacingx="180px"
       spacingy="180px"
       color="#009b9b"
       opacity="0.07843137"
       empcolor="#009b9b"
       empopacity="0.15686275" />
    <inkscape:grid
       type="xygrid"
       id="grid3019"
       empspacing="5"
       visible="true"
       enabled="true"
       snapvisiblegridlinesonly="true"
       color="#9b0000"
       opacity="0.09803922"
       empcolor="#0000ff"
       empopacity="0"
       dotted="true"
       spacingx="140px"
       spacingy="140px" />
    <inkscape:grid
       type="xygrid"
       id="grid3013"
       empspacing="5"
       visible="true"
       enabled="false"
       snapvisiblegridlinesonly="true"
       spacingx="210px"
       spacingy="210px"
       color="#ff00ff"
       opacity="0.29411765" />
  </sodipodi:namedview>
  <g
     id="g4212">
    <text
       sodipodi:linespacing="125%"
       id="text2998"
       y="4924.4893"
       x="9930.1055"
       style="font-size:6048.16699219px;font-style:normal;font-variant:normal;font-weight:normal;font-stretch:normal;line-height:125%;letter-spacing:0px;word-spacing:0px;fill:#000000;fill-opacity:1;stroke:none;font-family:Liberation Sans;-inkscape-font-specification:Sans"
       xml:space="preserve"><tspan
         y="4924.4893"
         x="9930.1055"
         id="tspan3000"
         sodipodi:role="line" /></text>
    <g
       id="g4445"
       transform="matrix(10.666667,0,0,10.666667,-20763.958,4280.9699)">
      <g
         id="g3324"
         transform="matrix(4.8314063,0,0,4.8314063,1656.0154,-384.07686)"
         style="fill:#000000;fill-opacity:1">
        <g
           id="g19987"
           transform="matrix(0.20697907,0,0,0.20697907,303.00686,245.89345)"
           style="fill:#000000;fill-opacity:1;stroke:#000000;stroke-opacity:1">
          <g
             id="g2319"
             transform="matrix(4.0193763,0,0,4.0193763,2426.0211,-1127.3128)"
             style="fill:#000000;fill-opacity:1">
            <path
               inkscape:connector-curvature="0"
               id="path2323"
               style="fill:#000000;fill-opacity:1;stroke:none"
               d="" />
          </g>
          <g
             id="g2325"
             transform="matrix(4.0193763,0,0,4.0193763,2426.0211,-1127.3128)"
             style="fill:#000000;fill-opacity:1">
            <path
               inkscape:connector-curvature="0"
               id="path2329"
               style="fill:#000000;fill-opacity:1;stroke:none"
               d="" />
          </g>
          <g
             transform="matrix(4.0193763,0,0,4.0193763,-439.25405,-1002.0722)"
             id="g13"
             style="fill:#000000;fill-opacity:1" />
          <g
             id="g6443"
             transform="matrix(7.4587621,0,0,7.4587621,-1921.7122,-2158.8568)"
             style="fill:#000000;fill-opacity:1">
            <g
               id="g3338"
               transform="matrix(0.18734045,-0.03268436,0.03268436,0.18734045,202.39815,222.51218)"
               style="fill:#000000;fill-opacity:1;stroke:#000000;stroke-opacity:1" />
            <g
               id="g7010"
               transform="matrix(0.17833861,0,0,0.14132023,215.67304,227.85008)"
               style="fill:none;stroke:#000000;stroke-opacity:1">
              <g
                 id="g4872"
                 transform="matrix(6.8086929,0,0,8.5922081,-1790.7725,-2869.2905)"
                 style="fill:#000000;fill-opacity:1">
                <path
                   style="fill:#000000;fill-opacity:1;stroke:none"
                   d="m 181.1602,313.80889 c -5.0243,0 -9.07212,4.04782 -9.07212,9.07213 l 0,49.44503 c 0,5.0243 4.04782,9.07213 9.07212,9.07213 l 8.31421,0 c -0.31442,0.89332 -0.48559,1.85562 -0.48559,2.85913 0,4.74356 3.81572,8.55929 8.55927,8.55929 l 31.39612,0 c 4.74356,0 8.56383,-3.81573 8.56383,-8.55929 0,-1.0034 -0.17124,-1.96592 -0.4856,-2.85913 l 147.11433,0 c -0.31443,0.89332 -0.48561,1.85562 -0.48561,2.85913 0,4.74356 3.81572,8.55929 8.55928,8.55929 l 31.39614,0 c 4.74356,0 8.56381,-3.81573 8.56381,-8.55929 0,-1.0034 -0.17125,-1.96592 -0.4856,-2.85913 l 8.17806,0 c 5.02429,0 9.07211,-4.04783 9.07211,-9.07213 l 0,-49.44503 c 0,-5.02431 -4.04782,-9.07213 -9.07211,-9.07213 l -258.70265,0 z m 226.57586,10.44269 c 14.18658,0 25.67782,11.49577 25.67782,25.68239 0,14.18659 -11.49124,25.67783 -25.67782,25.67783 -14.1866,0 -25.70508,-11.49124 -25.70508,-25.67783 0,-14.18662 11.51848,-25.68239 25.70508,-25.68239 z m -217.37669,2.73208 37.69988,0 c 3.59209,0 6.48979,2.8977 6.48979,6.4898 l 0,7.74691 c 0,3.59212 -2.8977,6.48981 -6.48979,6.48981 l -37.69988,0 c -3.59209,0 -6.4671,-2.89769 -6.4671,-6.48981 l 0,-7.74691 c 0,-3.5921 2.87501,-6.4898 6.4671,-6.4898 z m -9.19917,90.12658 c -5.0243,0 -9.07212,4.04782 -9.07212,9.07213 l 0,31.45966 c 0,5.02428 4.04782,9.07209 9.07212,9.07209 l 8.30966,0 c -0.31161,0.8898 -0.48104,1.84672 -0.48104,2.84553 0,4.74355 3.81572,8.56384 8.55927,8.56384 l 31.39612,0 c 4.74356,0 8.56383,-3.82029 8.56383,-8.56384 0,-0.99868 -0.16953,-1.9558 -0.48107,-2.84553 l 147.10525,0 c -0.31162,0.8898 -0.48106,1.84672 -0.48106,2.84553 0,4.74355 3.81572,8.56384 8.55928,8.56384 l 31.39614,0 c 4.74356,0 8.56381,-3.82029 8.56381,-8.56384 0,-0.99868 -0.16953,-1.9558 -0.48107,-2.84553 l 8.17353,0 c 5.02429,0 9.07211,-4.04781 9.07211,-9.07209 l 0,-31.45966 c 0,-5.02431 -4.04782,-9.07213 -9.07211,-9.07213 l -258.70265,0 z m 5.97697,15.14894 37.69986,0 c 3.59211,0 6.46711,2.89768 6.46711,6.48979 l 0,7.74693 c 0,3.59209 -2.875,6.48978 -6.46711,6.48978 l -37.69986,0 c -3.5921,0 -6.48981,-2.89769 -6.48981,-6.48978 l 0,-7.74693 c 0,-3.59211 2.89771,-6.48979 6.48981,-6.48979 z m 68.31086,0 37.69532,0 c 3.59211,0 6.47166,2.89768 6.47166,6.48979 l 0,7.74693 c 0,3.59209 -2.87955,6.48978 -6.47166,6.48978 l -37.69532,0 c -3.5921,0 -6.4898,-2.89769 -6.4898,-6.48978 l 0,-7.74693 c 0,-3.59211 2.8977,-6.48979 6.4898,-6.48979 z m 68.30632,0 37.69986,0 c 3.59213,0 6.46713,2.89768 6.46713,6.48979 l 0,7.74693 c 0,3.59209 -2.875,6.48978 -6.46713,6.48978 l -37.69986,0 c -3.59209,0 -6.48527,-2.89769 -6.48527,-6.48978 l 0,-7.74693 c 0,-3.59211 2.89318,-6.48979 6.48527,-6.48979 z m 68.31085,0 37.69986,0 c 3.59215,0 6.46713,2.89768 6.46713,6.48979 l 0,7.74693 c 0,3.59209 -2.87498,6.48978 -6.46713,6.48978 l -37.69986,0 c -3.59208,0 -6.48978,-2.89769 -6.48978,-6.48978 l 0,-7.74693 c 0,-3.59211 2.8977,-6.48979 6.48978,-6.48979 z"
                   id="rect4866"
                   inkscape:connector-curvature="0" />
              </g>
              <g
                 id="g4877"
                 transform="matrix(6.8086929,0,0,8.5922081,-1790.7725,-3426.5426)"
                 style="fill:#000000;fill-opacity:1" />
            </g>
            <g
               id="g4243"
               transform="matrix(0.27366934,0,0,0.18486525,172.62925,206.71382)"
               style="fill:#000000;fill-opacity:1;stroke:none" />
            <g
               transform="matrix(3.4614719,0,0,3.4614719,-792.24329,12.045283)"
               style="font-size:10px;font-style:normal;font-variant:normal;font-weight:bold;font-stretch:normal;text-align:start;line-height:125%;writing-mode:lr-tb;text-anchor:start;fill:#000000;fill-opacity:1;stroke:none;font-family:Bitstream Charter;-inkscape-font-specification:Bitstream Charter Bold;stroke-opacity:1"
               id="flowRoot6831" />
          </g>
        </g>
      </g>
    </g>
  </g>
</svg>
