<?xml version="1.0" encoding="UTF-8" standalone="no"?>
<svg
   xmlns:dc="http://purl.org/dc/elements/1.1/"
   xmlns:cc="http://creativecommons.org/ns#"
   xmlns:rdf="http://www.w3.org/1999/02/22-rdf-syntax-ns#"
   xmlns:svg="http://www.w3.org/2000/svg"
   xmlns="http://www.w3.org/2000/svg"
   xmlns:sodipodi="http://sodipodi.sourceforge.net/DTD/sodipodi-0.dtd"
   xmlns:inkscape="http://www.inkscape.org/namespaces/inkscape"
   width="2520"
   height="2520"
   viewBox="0 0 26880 26880"
   id="svg3064"
   version="1.1"
   inkscape:version="0.48.3.1 r9886"
   sodipodi:docname="hospital.svg">
  <metadata
     id="metadata3072">
    <rdf:RDF>
      <cc:Work
         rdf:about="">
        <dc:format>image/svg+xml</dc:format>
        <dc:type
           rdf:resource="http://purl.org/dc/dcmitype/StillImage" />
        <dc:title></dc:title>
      </cc:Work>
    </rdf:RDF>
  </metadata>
  <defs
     id="defs3070">
    <clipPath
       id="clip0">
      <rect
         y="0"
         x="0"
         width="233"
         height="233"
         id="rect4533" />
    </clipPath>
  </defs>
  <sodipodi:namedview
     pagecolor="#ffffff"
     bordercolor="#666666"
     borderopacity="1"
     objecttolerance="6"
     gridtolerance="6"
     guidetolerance="6"
     inkscape:pageopacity="0"
     inkscape:pageshadow="2"
     inkscape:window-width="1600"
     inkscape:window-height="1147"
     id="namedview3068"
     showgrid="true"
     inkscape:snap-grids="false"
     inkscape:zoom="0.34"
     inkscape:cx="1292.4874"
     inkscape:cy="1247.0657"
     inkscape:window-x="0"
     inkscape:window-y="0"
     inkscape:window-maximized="1"
     inkscape:current-layer="surface0"
     showguides="true"
     inkscape:guide-bbox="true"
     inkscape:snap-to-guides="false"
     inkscape:object-paths="true">
    <inkscape:grid
       type="xygrid"
       id="grid3074"
       empspacing="2"
       visible="true"
       enabled="true"
       snapvisiblegridlinesonly="true"
       dotted="false"
       spacingx="315px"
       spacingy="315px"
       color="#00009b"
       opacity="0.1372549"
       empcolor="#00009b"
       empopacity="0.29411765" />
    <inkscape:grid
       type="xygrid"
       id="grid5379"
       empspacing="3"
       visible="true"
       enabled="true"
       snapvisiblegridlinesonly="true"
       color="#9b0000"
       opacity="0.11764706"
       empcolor="#9b0000"
       empopacity="0.39215686"
       spacingx="280px"
       spacingy="280px" />
    <inkscape:grid
       type="xygrid"
       id="grid5381"
       empspacing="2"
       visible="true"
       enabled="true"
       snapvisiblegridlinesonly="true"
       spacingx="252px"
       spacingy="252px"
       empcolor="#009b00"
       empopacity="0.23529412"
       color="#009b00"
       opacity="0.09803922" />
    <inkscape:grid
       type="xygrid"
       id="grid5383"
       empspacing="2"
       visible="true"
       enabled="true"
       snapvisiblegridlinesonly="true"
       spacingx="180px"
       spacingy="180px"
       color="#009b9b"
       opacity="0.07843137"
       empcolor="#009b9b"
       empopacity="0.15686275" />
    <inkscape:grid
       type="xygrid"
       id="grid3019"
       empspacing="5"
       visible="true"
       enabled="true"
       snapvisiblegridlinesonly="true"
       color="#9b0000"
       opacity="0.09803922"
       empcolor="#0000ff"
       empopacity="0"
       dotted="true"
       spacingx="140px"
       spacingy="140px" />
    <inkscape:grid
       type="xygrid"
       id="grid3013"
       empspacing="5"
       visible="true"
       enabled="false"
       snapvisiblegridlinesonly="true"
       spacingx="210px"
       spacingy="210px"
       color="#ff00ff"
       opacity="0.29411765" />
  </sodipodi:namedview>
  <g
     transform="matrix(128.05184,0,0,128.05184,-2243.5294,-2187.0589)"
     id="surface0"
     clip-path="url(#clip0)">
    <path
       style="fill:#ffffff;fill-opacity:1;stroke:none"
       d="M 115.2073,216.43666 C 99.765149,214.94723 84.529729,207.70129 73.225231,196.47007 62.373108,185.68828 55.523428,172.03671 53.289106,156.73692 c -0.746075,-5.10884 -0.748965,-14.16374 -0.0062,-19.30483 4.019583,-27.82039 24.299336,-50.569862 51.450794,-57.716612 6.11442,-1.60942 10.26617,-2.10801 17.55346,-2.10801 9.44398,0 15.77716,1.10231 24.11288,4.19692 19.38661,7.19722 34.60997,22.614872 41.55719,42.087562 5.30405,14.86701 5.26715,32.12157 -0.10002,46.77363 -3.62172,9.88707 -8.91408,18.20332 -16.25783,25.54707 -14.986,14.98601 -35.27175,22.26112 -56.39212,20.22401 l 0,0 z"
       id="path3060"
       inkscape:connector-curvature="0" />
    <path
       style="fill:#000000;fill-opacity:1;fill-rule:nonzero;stroke:none"
       d="M 1257.7812 1.1875 L -2.21875 1009.1875 L -2.21875 2521.1875 L 2517.7812 2521.1875 L 2517.7812 1009.1875 L 1257.7812 1.1875 z M 1257.7812 721.1875 C 1721.7005 721.1875 2097.7812 1097.2683 2097.7812 1561.1875 C 2097.7812 2025.1067 1721.7005 2401.1875 1257.7812 2401.1875 C 793.86205 2401.1875 417.78125 2025.1067 417.78125 1561.1875 C 417.78125 1097.2683 793.86205 721.1875 1257.7812 721.1875 z M 1243.1562 958.59375 C 1169.9814 958.59299 1096.8 958.60223 1023.625 958.65625 C 1023.5537 1081.7869 1023.6345 1204.9287 1023.5625 1328.0625 C 899.26865 1328.1218 774.97815 1328.0337 650.6875 1328.0938 C 650.61547 1475.0689 650.6035 1622.0499 650.71875 1769.0312 C 775.0058 1769.0963 899.27221 1769.0217 1023.5625 1769.0938 C 1023.6217 1892.2218 1023.553 2015.3289 1023.625 2138.4688 C 1169.9749 2138.5415 1316.3 2138.5648 1462.6562 2138.4688 C 1462.7216 2015.3306 1462.6467 1892.2199 1462.7188 1769.0938 C 1587.0052 1769.0337 1711.2953 1769.0793 1835.5938 1769.0312 C 1835.6658 1622.05 1835.7138 1475.0687 1835.5938 1328.0938 C 1711.299 1328.0224 1587.0012 1328.1033 1462.7188 1328.0312 C 1462.6587 1204.8957 1462.7475 1081.7884 1462.6875 958.65625 C 1389.5093 958.61598 1316.3311 958.59451 1243.1562 958.59375 z "
       transform="matrix(0.0832996,0,0,0.0832996,17.520478,17.07948)"
       id="path4546" />
  </g>
</svg>
