<?xml version="1.0" encoding="UTF-8" standalone="no"?>
<svg
   xmlns:dc="http://purl.org/dc/elements/1.1/"
   xmlns:cc="http://creativecommons.org/ns#"
   xmlns:rdf="http://www.w3.org/1999/02/22-rdf-syntax-ns#"
   xmlns:svg="http://www.w3.org/2000/svg"
   xmlns="http://www.w3.org/2000/svg"
   xmlns:sodipodi="http://sodipodi.sourceforge.net/DTD/sodipodi-0.dtd"
   xmlns:inkscape="http://www.inkscape.org/namespaces/inkscape"
   width="2520"
   height="2520"
   viewBox="0 0 26880 26880"
   id="svg3064"
   version="1.1"
   inkscape:version="0.48.4 r9939"
   sodipodi:docname="information-guidepost.svg">
  <metadata
     id="metadata3072">
    <rdf:RDF>
      <cc:Work
         rdf:about="">
        <dc:format>image/svg+xml</dc:format>
        <dc:type
           rdf:resource="http://purl.org/dc/dcmitype/StillImage" />
        <dc:title />
      </cc:Work>
    </rdf:RDF>
  </metadata>
  <defs
     id="defs3070" />
  <sodipodi:namedview
     pagecolor="#ffffff"
     bordercolor="#666666"
     borderopacity="1"
     objecttolerance="6"
     gridtolerance="6"
     guidetolerance="6"
     inkscape:pageopacity="0"
     inkscape:pageshadow="2"
     inkscape:window-width="1600"
     inkscape:window-height="1147"
     id="namedview3068"
     showgrid="true"
     inkscape:snap-grids="true"
     inkscape:zoom="0.24748737"
     inkscape:cx="859.13733"
     inkscape:cy="1673.4064"
     inkscape:window-x="0"
     inkscape:window-y="0"
     inkscape:window-maximized="1"
     inkscape:current-layer="svg3064"
     showguides="true"
     inkscape:guide-bbox="true"
     inkscape:snap-to-guides="false"
     inkscape:object-paths="true">
    <inkscape:grid
       type="xygrid"
       id="grid3074"
       empspacing="2"
       visible="true"
       enabled="true"
       snapvisiblegridlinesonly="true"
       dotted="false"
       spacingx="315px"
       spacingy="315px"
       color="#00009b"
       opacity="0.1372549"
       empcolor="#00009b"
       empopacity="0.29411765" />
    <inkscape:grid
       type="xygrid"
       id="grid5379"
       empspacing="3"
       visible="true"
       enabled="true"
       snapvisiblegridlinesonly="true"
       color="#9b0000"
       opacity="0.11764706"
       empcolor="#9b0000"
       empopacity="0.39215686"
       spacingx="280px"
       spacingy="280px" />
    <inkscape:grid
       type="xygrid"
       id="grid5381"
       empspacing="2"
       visible="true"
       enabled="true"
       snapvisiblegridlinesonly="true"
       spacingx="252px"
       spacingy="252px"
       empcolor="#009b00"
       empopacity="0.23529412"
       color="#009b00"
       opacity="0.09803922" />
    <inkscape:grid
       type="xygrid"
       id="grid5383"
       empspacing="2"
       visible="true"
       enabled="true"
       snapvisiblegridlinesonly="true"
       spacingx="180px"
       spacingy="180px"
       color="#009b9b"
       opacity="0.07843137"
       empcolor="#009b9b"
       empopacity="0.15686275" />
    <inkscape:grid
       type="xygrid"
       id="grid3019"
       empspacing="5"
       visible="true"
       enabled="true"
       snapvisiblegridlinesonly="true"
       color="#9b0000"
       opacity="0.09803922"
       empcolor="#0000ff"
       empopacity="0"
       dotted="true"
       spacingx="140px"
       spacingy="140px" />
    <inkscape:grid
       type="xygrid"
       id="grid3013"
       empspacing="5"
       visible="true"
       enabled="false"
       snapvisiblegridlinesonly="true"
       spacingx="210px"
       spacingy="210px"
       color="#ff00ff"
       opacity="0.29411765" />
  </sodipodi:namedview>
  <path
     style="font-size:medium;font-style:normal;font-variant:normal;font-weight:normal;font-stretch:normal;text-indent:0;text-align:start;text-decoration:none;line-height:normal;letter-spacing:normal;word-spacing:normal;text-transform:none;direction:ltr;block-progression:tb;writing-mode:lr-tb;text-anchor:start;baseline-shift:baseline;color:#000000;fill:#000000;fill-opacity:1;stroke:none;stroke-width:1120;marker:none;visibility:visible;display:inline;overflow:visible;enable-background:accumulate;font-family:Sans;-inkscape-font-specification:Sans"
     d="m 1260,0 c -140,0 -138.125,223.42769 -138.125,223.42769 l -557.93752,-0.46875 c -34.02323,-0.0286 -64.9956,18.74755 -77.65625,39.8125 -10.68769,17.78231 -11.52678,35.94219 -11.53125,41.21875 l -0.0313,0 c 0,0 -0.10233,52.6201 -0.28125,222.60356 -0.0895,84.99174 -0.20052,64.46822 -0.3125,128.34372 -0.056,31.93775 -0.12874,58.60057 -0.1875,77.28125 -0.0294,9.34041 -0.0644,16.67925 -0.0937,21.65625 -0.004,0.67303 0.004,0.94625 0,1.53125 0.29107,-1.19011 0.78774,-2.92958 1.40625,-5.0625 -0.77683,3.03092 -1.24583,6.15647 -1.40625,9.28125 -0.0642,1.24991 -0.0988,2.49894 -0.0625,3.75 0,0 0.26816,20.36147 12.59375,39.65625 12.32561,19.29478 41.6194,37.36203 73.625,37.34375 l 561.87502,-0.375 -1.7812,314.95983 -687.93755,0.4063 c -5.83284,0 -11.66343,1.1208 -17.09375,3.25 -5.43032,2.1292 -9.6678,6.3563 -14.75,9.2187 -198.3606,111.7176 -270.25329,161.2923 -335.71875,202.0714 -29.181998,18.1777 -37.458187,37.4475 -47.34375,51.4688 -9.8855625,14.0213 -14.53125,39.3898 -14.53125,44.5625 0,5.1535 4.7245,30.6747 14.6875,44.6563 9.963281,13.9815 20.459936,29.8887 47.375,50.8437 75.21875,58.5624 115.21874,58.5624 335.5,196.9151 4.26582,3.8853 9.24503,6.9772 14.625,9.0626 5.37998,2.0853 11.13627,3.1515 16.90625,3.1562 l 683.8125,0.4688 L 1120,2520 l 280,0 6.25,-748.7411 549.812,0.4687 c 34.0233,0.024 64.9956,-18.7475 77.6562,-39.8124 10.6877,-17.7824 11.5269,-35.9422 11.5313,-41.2188 l 0.031,0 c 0,0 0.071,-58.3692 0.25,-228.3526 0.09,-84.9918 0.2004,-58.6022 0.3124,-122.4777 0.056,-31.9377 0.16,-58.6005 0.2188,-77.2813 0.029,-9.3404 0.033,-16.6792 0.063,-21.6562 0,-0.673 0,-0.915 0,-1.5 -0.2864,1.1713 -0.7414,2.8559 -1.3437,4.9375 0.6906,-2.7182 1.1165,-5.5148 1.3124,-8.3125 -0.01,0.096 0.017,0.1358 0.063,0.125 0,-0.1983 0,-0.6444 0,-0.8125 0.01,-0.5495 0.028,-0.9153 0.031,-1 0.033,-0.9798 0.028,-1.9576 0,-2.9375 0,0 -0.2682,-20.3615 -12.5938,-39.6562 -12.3255,-19.2948 -41.5881,-37.3621 -73.5937,-37.3438 l -560.062,0.375 -3.0625,-314.95988 690.3434,-0.40625 c 5.8328,-0.004 11.6634,-1.12075 17.0937,-3.25 5.4304,-2.12925 9.848,-6.00971 14.7187,-9.21875 220.9687,-145.5842 282.0152,-174.29323 335.75,-207.93747 29.14,-18.24504 37.4269,-37.44753 47.3126,-51.46875 9.8854,-14.02132 14.5312,-39.38973 14.5312,-44.5625 0,-5.15348 -4.6933,-30.67469 -14.6562,-44.65625 -9.9633,-13.98164 -17.3989,-34.56583 -47.375,-50.84375 -57.8842,-31.4329 -114.5939,-67.50001 -335.5,-191.16606 -4.2659,-3.8853 -9.245,-6.97716 -14.625,-9.0625 -5.38,-2.08535 -11.1675,-3.15155 -16.9376,-3.15625 L 1403.125,223.64644 C 1403.125,223.64644 1400,0 1260,0 z M 473.84373,759.62497 c 0.004,-0.21071 -0.006,-0.34105 0.0313,-0.875 0.007,-0.0957 -0.0167,-0.13578 -0.0625,-0.125 -0.002,0.19828 0.002,0.64441 0,0.8125 -0.007,0.58378 -0.0303,1.01713 -0.0313,1.0625 -9.4e-4,0.0227 0.014,8.7e-4 0.0313,-0.4375 0.003,-0.073 0.0292,-0.33196 0.0313,-0.4375 z"
     transform="scale(10.666667,10.666667)"
     id="path4621"
     inkscape:connector-curvature="0"
     sodipodi:nodetypes="scssccssscccscsccccssssscsccccccccsccsscccccccccsccccssscscscsccscccccccc" />
</svg>
