<?xml version="1.0" encoding="UTF-8" standalone="no"?>
<svg
   xmlns:dc="http://purl.org/dc/elements/1.1/"
   xmlns:cc="http://creativecommons.org/ns#"
   xmlns:rdf="http://www.w3.org/1999/02/22-rdf-syntax-ns#"
   xmlns:svg="http://www.w3.org/2000/svg"
   xmlns="http://www.w3.org/2000/svg"
   xmlns:sodipodi="http://sodipodi.sourceforge.net/DTD/sodipodi-0.dtd"
   xmlns:inkscape="http://www.inkscape.org/namespaces/inkscape"
   width="2520"
   height="2520"
   viewBox="0 0 26880 26880"
   id="svg3064"
   version="1.1"
   inkscape:version="0.48.3.1 r9886"
   sodipodi:docname="information-office.svg">
  <metadata
     id="metadata3072">
    <rdf:RDF>
      <cc:Work
         rdf:about="">
        <dc:format>image/svg+xml</dc:format>
        <dc:type
           rdf:resource="http://purl.org/dc/dcmitype/StillImage" />
        <dc:title></dc:title>
      </cc:Work>
    </rdf:RDF>
  </metadata>
  <defs
     id="defs3070" />
  <sodipodi:namedview
     pagecolor="#ffffff"
     bordercolor="#666666"
     borderopacity="1"
     objecttolerance="6"
     gridtolerance="6"
     guidetolerance="6"
     inkscape:pageopacity="0"
     inkscape:pageshadow="2"
     inkscape:window-width="1400"
     inkscape:window-height="997"
     id="namedview3068"
     showgrid="true"
     inkscape:snap-grids="true"
     inkscape:zoom="0.22627417"
     inkscape:cx="1350.9786"
     inkscape:cy="1038.7513"
     inkscape:window-x="0"
     inkscape:window-y="0"
     inkscape:window-maximized="1"
     inkscape:current-layer="svg3064"
     showguides="true"
     inkscape:guide-bbox="true"
     inkscape:snap-to-guides="true"
     inkscape:object-paths="true">
    <inkscape:grid
       type="xygrid"
       id="grid3074"
       empspacing="2"
       visible="true"
       enabled="true"
       snapvisiblegridlinesonly="true"
       dotted="false"
       spacingx="315px"
       spacingy="315px"
       color="#00009b"
       opacity="0.1372549"
       empcolor="#00009b"
       empopacity="0.29411765" />
    <inkscape:grid
       type="xygrid"
       id="grid5379"
       empspacing="3"
       visible="true"
       enabled="true"
       snapvisiblegridlinesonly="true"
       color="#9b0000"
       opacity="0.11764706"
       empcolor="#9b0000"
       empopacity="0.39215686"
       spacingx="280px"
       spacingy="280px" />
    <inkscape:grid
       type="xygrid"
       id="grid5381"
       empspacing="2"
       visible="true"
       enabled="true"
       snapvisiblegridlinesonly="true"
       spacingx="252px"
       spacingy="252px"
       empcolor="#009b00"
       empopacity="0.23529412"
       color="#009b00"
       opacity="0.09803922" />
    <inkscape:grid
       type="xygrid"
       id="grid5383"
       empspacing="2"
       visible="true"
       enabled="true"
       snapvisiblegridlinesonly="true"
       spacingx="180px"
       spacingy="180px"
       color="#009b9b"
       opacity="0.07843137"
       empcolor="#009b9b"
       empopacity="0.15686275" />
    <inkscape:grid
       type="xygrid"
       id="grid3019"
       empspacing="5"
       visible="true"
       enabled="true"
       snapvisiblegridlinesonly="true"
       color="#9b0000"
       opacity="0.09803922"
       empcolor="#0000ff"
       empopacity="0"
       dotted="true"
       spacingx="140px"
       spacingy="140px" />
    <inkscape:grid
       type="xygrid"
       id="grid3013"
       empspacing="5"
       visible="true"
       enabled="false"
       snapvisiblegridlinesonly="true"
       spacingx="210px"
       spacingy="210px"
       color="#ff00ff"
       opacity="0.29411765" />
    <sodipodi:guide
       orientation="0,1"
       position="451.42857,771.42857"
       id="guide5329" />
  </sodipodi:namedview>
  <text
     xml:space="preserve"
     style="font-size:12190.4765625px;font-style:italic;font-variant:normal;font-weight:normal;font-stretch:normal;line-height:125%;letter-spacing:0px;word-spacing:0px;fill:#000000;fill-opacity:1;stroke:none;font-family:Liberation Sans;-inkscape-font-specification:Sans Italic"
     x="12853.023"
     y="12657.778"
     id="text5331"
     sodipodi:linespacing="125%"><tspan
       sodipodi:role="line"
       id="tspan5333"
       x="12853.023"
       y="12657.778" /></text>
  <path
     style="fill:#ffffff;fill-opacity:1;stroke:none;stroke-width:309.35922240999997257;stroke-linecap:round;stroke-linejoin:round;stroke-miterlimit:4;stroke-opacity:1;stroke-dasharray:none"
     d="M 1174.9455,2392.0798 C 989.56463,2374.1994 806.66553,2287.2129 670.95661,2152.3836 540.67839,2022.9497 458.44895,1859.0646 431.62622,1675.3927 c -8.95652,-61.3309 -8.99122,-170.0337 -0.074,-231.7518 48.25454,-333.9798 291.71013,-607.084 617.65958,-692.87971 73.4028,-19.32094 123.244,-25.30642 210.7268,-25.30642 113.3737,0 189.4026,13.23306 289.4718,50.38344 232.7335,86.40162 415.4879,271.48839 498.8882,505.25529 63.6744,178.4763 63.2315,385.6149 -1.2007,561.5108 -43.4782,118.6929 -107.0123,218.5284 -195.173,306.6891 -179.9048,179.9049 -423.4324,267.2416 -676.9794,242.7864 l 0,0 z"
     id="path3060"
     inkscape:connector-curvature="0"
     transform="scale(10.666667,10.666667)" />
  <path
     style="fill:#000000;fill-opacity:1;stroke:none"
     d="M 1260,0 0,1008 l 0,1512 2520,0 0,-1512 z m 0,720 c 463.9192,0 840,376.0808 840,840 0,463.9192 -376.0808,840 -840,840 -463.91921,0 -840,-376.0808 -840,-840 0,-463.9192 376.08079,-840 840,-840 z m 0,288 c -77.3198,0 -140,64.9188 -140,145 0,80.0813 62.6802,145 140,145 77.3199,0 140,-64.9187 140,-145 0,-80.0813 -62.6801,-145 -140,-145 z m -140,384.6136 0,684 280,0 0,-684 z"
     transform="scale(10.666667,10.666667)"
     id="path3050"
     inkscape:connector-curvature="0"
     sodipodi:nodetypes="ccccccssssssssssccccc" />
</svg>
