<?xml version="1.0" encoding="UTF-8" standalone="no"?>
<svg
   xmlns:dc="http://purl.org/dc/elements/1.1/"
   xmlns:cc="http://creativecommons.org/ns#"
   xmlns:rdf="http://www.w3.org/1999/02/22-rdf-syntax-ns#"
   xmlns:svg="http://www.w3.org/2000/svg"
   xmlns="http://www.w3.org/2000/svg"
   xmlns:sodipodi="http://sodipodi.sourceforge.net/DTD/sodipodi-0.dtd"
   xmlns:inkscape="http://www.inkscape.org/namespaces/inkscape"
   width="2520"
   height="2520"
   viewBox="0 0 26880 26880"
   id="svg3064"
   version="1.1"
   inkscape:version="0.48.4 r9939"
   sodipodi:docname="jewelry.svg">
  <metadata
     id="metadata3072">
    <rdf:RDF>
      <cc:Work
         rdf:about="">
        <dc:format>image/svg+xml</dc:format>
        <dc:type
           rdf:resource="http://purl.org/dc/dcmitype/StillImage" />
        <dc:title></dc:title>
      </cc:Work>
    </rdf:RDF>
  </metadata>
  <defs
     id="defs3070">
    <inkscape:perspective
       sodipodi:type="inkscape:persp3d"
       inkscape:vp_x="0 : 225.5 : 1"
       inkscape:vp_y="0 : 1000 : 0"
       inkscape:vp_z="301 : 225.5 : 1"
       inkscape:persp3d-origin="150.5 : 150.33333 : 1"
       id="perspective2486" />
    <inkscape:perspective
       id="perspective13"
       inkscape:persp3d-origin="300.5 : 250.33333 : 1"
       inkscape:vp_z="601 : 375.5 : 1"
       inkscape:vp_y="0 : 1000 : 0"
       inkscape:vp_x="0 : 375.5 : 1"
       sodipodi:type="inkscape:persp3d" />
    <inkscape:perspective
       id="perspective9"
       inkscape:persp3d-origin="372.04724 : 350.78739 : 1"
       inkscape:vp_z="744.09448 : 526.18109 : 1"
       inkscape:vp_y="0 : 1000 : 0"
       inkscape:vp_x="0 : 526.18109 : 1"
       sodipodi:type="inkscape:persp3d" />
    <clipPath
       id="clipoutline1"
       clipPathUnits="userSpaceOnUse">
      <path
         inkscape:connector-curvature="0"
         d="m 22.42,17.2 12.96,12.95 -2.5,8.78 -8.78,2.5 -12.96,-12.96 -5.86,5.86 14.89,21.46 17.56,-3.34 61.63,65.62 c 9.44,9.51 22.17,-4.75 13.34,-12.87 L 46.85,42.92 50.86,25.16 28.72,10.89 22.42,17.2 z m 81.06,91.97 c 1.68,-1.68 4.4,-1.68 6.08,0 1.68,1.68 1.68,4.4 0,6.08 -1.68,1.67 -4.4,1.67 -6.08,0 -1.68,-1.68 -1.68,-4.4 0,-6.08 z"
         id="outline1" />
    </clipPath>
  </defs>
  <sodipodi:namedview
     pagecolor="#ffffff"
     bordercolor="#666666"
     borderopacity="1"
     objecttolerance="6"
     gridtolerance="6"
     guidetolerance="6"
     inkscape:pageopacity="0"
     inkscape:pageshadow="2"
     inkscape:window-width="1600"
     inkscape:window-height="1147"
     id="namedview3068"
     showgrid="true"
     inkscape:snap-grids="false"
     inkscape:zoom="0.22627418"
     inkscape:cx="503.12994"
     inkscape:cy="1339.7563"
     inkscape:window-x="0"
     inkscape:window-y="0"
     inkscape:window-maximized="1"
     inkscape:current-layer="g7010"
     showguides="true"
     inkscape:guide-bbox="true"
     inkscape:snap-to-guides="false">
    <inkscape:grid
       type="xygrid"
       id="grid3074"
       empspacing="2"
       visible="true"
       enabled="true"
       snapvisiblegridlinesonly="true"
       dotted="false"
       spacingx="315px"
       spacingy="315px"
       color="#00009b"
       opacity="0.1372549"
       empcolor="#00009b"
       empopacity="0.29411765" />
    <inkscape:grid
       type="xygrid"
       id="grid5379"
       empspacing="3"
       visible="true"
       enabled="true"
       snapvisiblegridlinesonly="true"
       color="#9b0000"
       opacity="0.11764706"
       empcolor="#9b0000"
       empopacity="0.39215686"
       spacingx="280px"
       spacingy="280px" />
    <inkscape:grid
       type="xygrid"
       id="grid5381"
       empspacing="2"
       visible="true"
       enabled="true"
       snapvisiblegridlinesonly="true"
       spacingx="252px"
       spacingy="252px"
       empcolor="#009b00"
       empopacity="0.23529412"
       color="#009b00"
       opacity="0.09803922" />
    <inkscape:grid
       type="xygrid"
       id="grid5383"
       empspacing="2"
       visible="true"
       enabled="true"
       snapvisiblegridlinesonly="true"
       spacingx="180px"
       spacingy="180px"
       color="#009b9b"
       opacity="0.07843137"
       empcolor="#009b9b"
       empopacity="0.15686275" />
    <inkscape:grid
       type="xygrid"
       id="grid3019"
       empspacing="5"
       visible="true"
       enabled="true"
       snapvisiblegridlinesonly="true"
       color="#9b0000"
       opacity="0.09803922"
       empcolor="#0000ff"
       empopacity="0"
       dotted="true"
       spacingx="140px"
       spacingy="140px" />
    <inkscape:grid
       type="xygrid"
       id="grid3013"
       empspacing="5"
       visible="true"
       enabled="false"
       snapvisiblegridlinesonly="true"
       spacingx="210px"
       spacingy="210px"
       color="#ff00ff"
       opacity="0.29411765" />
  </sodipodi:namedview>
  <g
     id="g4212">
    <text
       sodipodi:linespacing="125%"
       id="text2998"
       y="4924.4893"
       x="9930.1055"
       style="font-size:6048.16699219px;font-style:normal;font-variant:normal;font-weight:normal;font-stretch:normal;line-height:125%;letter-spacing:0px;word-spacing:0px;fill:#000000;fill-opacity:1;stroke:none;font-family:Liberation Sans;-inkscape-font-specification:Sans"
       xml:space="preserve"><tspan
         y="4924.4893"
         x="9930.1055"
         id="tspan3000"
         sodipodi:role="line" /></text>
    <g
       id="g4445"
       transform="matrix(10.666667,0,0,10.666667,-20763.958,4280.9699)">
      <g
         id="g3324"
         transform="matrix(4.8314063,0,0,4.8314063,1656.0154,-384.07686)"
         style="fill:#000000;fill-opacity:1">
        <g
           id="g19987"
           transform="matrix(0.20697907,0,0,0.20697907,303.00686,245.89345)"
           style="fill:#000000;fill-opacity:1;stroke:#000000;stroke-opacity:1">
          <g
             id="g2319"
             transform="matrix(4.0193763,0,0,4.0193763,2426.0211,-1127.3128)"
             style="fill:#000000;fill-opacity:1">
            <path
               inkscape:connector-curvature="0"
               id="path2323"
               style="fill:#000000;fill-opacity:1;stroke:none"
               d="" />
          </g>
          <g
             id="g2325"
             transform="matrix(4.0193763,0,0,4.0193763,2426.0211,-1127.3128)"
             style="fill:#000000;fill-opacity:1">
            <path
               inkscape:connector-curvature="0"
               id="path2329"
               style="fill:#000000;fill-opacity:1;stroke:none"
               d="" />
          </g>
          <g
             transform="matrix(4.0193763,0,0,4.0193763,-439.25405,-1002.0722)"
             id="g13"
             style="fill:#000000;fill-opacity:1" />
          <g
             id="g6443"
             transform="matrix(7.4587621,0,0,7.4587621,-1921.7122,-2158.8568)"
             style="fill:#000000;fill-opacity:1">
            <g
               id="g3338"
               transform="matrix(0.18734045,-0.03268436,0.03268436,0.18734045,202.39815,222.51218)"
               style="fill:#000000;fill-opacity:1;stroke:#000000;stroke-opacity:1" />
            <g
               id="g7010"
               transform="matrix(0.17833861,0,0,0.14132023,215.67304,227.85008)"
               style="fill:none;stroke:#000000;stroke-opacity:1">
              <g
                 id="g3709"
                 style="fill:none;stroke:#000000;stroke-width:1.00000334;stroke-linecap:butt;stroke-linejoin:round;stroke-miterlimit:4;stroke-opacity:1;stroke-dasharray:none"
                 transform="matrix(115.90157,0,0,146.26161,-630.38829,-779.07871)">
                <path
                   inkscape:connector-curvature="0"
                   id="path3700"
                   d="M 8,15 0.5,6 15.5,6 z"
                   style="fill:none;stroke:#000000;stroke-width:1.00000334;stroke-linejoin:round;stroke-miterlimit:4;stroke-opacity:1;stroke-dasharray:none" />
                <path
                   inkscape:connector-curvature="0"
                   id="path3702"
                   d="M 0.5,6 3,3 13,3 15.5,6 z"
                   style="fill:none;stroke:#000000;stroke-width:1.00000334;stroke-linejoin:round;stroke-miterlimit:4;stroke-opacity:1;stroke-dasharray:none" />
                <path
                   style="font-size:medium;font-style:normal;font-variant:normal;font-weight:normal;font-stretch:normal;text-indent:0;text-align:start;text-decoration:none;line-height:normal;letter-spacing:normal;word-spacing:normal;text-transform:none;direction:ltr;block-progression:tb;writing-mode:lr-tb;text-anchor:start;baseline-shift:baseline;color:#000000;fill:#000000;fill-opacity:1;stroke:none;stroke-width:1.00000334;marker:none;visibility:visible;display:inline;overflow:visible;enable-background:accumulate;font-family:Sans;-inkscape-font-specification:Sans"
                   d="m 794.96875,634.90625 a 17.931806,14.209637 0 0 0 -14.9375,6.34375 l -79.8125,95.78125 a 17.931806,14.209637 0 0 0 -0.0625,0.0937 17.931806,14.209637 0 0 0 -0.0625,0.0625 17.931806,14.209637 0 0 0 -0.78125,1.0625 17.931806,14.209637 0 0 0 -0.625,1.03125 17.931806,14.209637 0 0 0 -0.15625,0.34375 17.931806,14.209637 0 0 0 -0.25,0.5625 17.931806,14.209637 0 0 0 -0.34375,0.8125 17.931806,14.209637 0 0 0 -0.0313,0.0625 17.931806,14.209637 0 0 0 -0.34375,1.21875 17.931806,14.209637 0 0 0 -0.25,1.40625 17.931806,14.209637 0 0 0 -0.0625,1.21875 17.931806,14.209637 0 0 0 0,0.21875 17.931806,14.209637 0 0 0 0,0.15625 17.931806,14.209637 0 0 0 0.125,1.21875 17.931806,14.209637 0 0 0 0.3125,1.40625 17.931806,14.209637 0 0 0 0.40625,1.25 17.931806,14.209637 0 0 0 0.0625,0.125 17.931806,14.209637 0 0 0 0.28125,0.59375 17.931806,14.209637 0 0 0 0.40625,0.84375 17.931806,14.209637 0 0 0 0.0313,0.0625 17.931806,14.209637 0 0 0 0.71875,1.09375 17.931806,14.209637 0 0 0 0.625,0.8125 L 939.625,1040 a 17.931806,14.209637 0 0 0 10.6875,5.9375 15.962595,15.962595 0 0 0 8.78125,-0.031 15.962595,15.962595 0 0 0 0.0937,-0.031 17.931806,14.209637 0 0 0 10.375,-5.875 L 1208.9688,752.688 a 17.931806,14.209637 0 0 0 0.125,-0.15625 17.931806,14.209637 0 0 0 0.7812,-1.0625 17.931806,14.209637 0 0 0 0.094,-0.15625 17.931806,14.209637 0 0 0 0.6561,-1.15625 17.931806,14.209637 0 0 0 0.375,-0.84375 17.931806,14.209637 0 0 0 0.2189,-0.46875 17.931806,14.209637 0 0 0 0.062,-0.1875 17.931806,14.209637 0 0 0 0.3439,-1.21875 17.931806,14.209637 0 0 0 0.031,-0.15625 17.931806,14.209637 0 0 0 0.031,-0.125 17.931806,14.209637 0 0 0 0.1875,-1.3125 17.931806,14.209637 0 0 0 0.063,-1.21875 17.931806,14.209637 0 0 0 0,-0.1875 17.931806,14.209637 0 0 0 -0.125,-1.25 17.931806,14.209637 0 0 0 -0.031,-0.15625 17.931806,14.209637 0 0 0 -0.2812,-1.21875 17.931806,14.209637 0 0 0 -0.4688,-1.375 17.931806,14.209637 0 0 0 -0.4062,-0.90625 17.931806,14.209637 0 0 0 -0.3125,-0.59375 17.931806,14.209637 0 0 0 -0.7187,-1.09375 17.931806,14.209637 0 0 0 -0.125,-0.15625 17.931806,14.209637 0 0 0 -0.031,-0.0313 17.931806,14.209637 0 0 0 -0.8125,-1.03125 l -79.4688,-95.375 a 17.931806,14.209637 0 0 0 -14.9687,-6.34375 l -319.2188,0 z m 9.6875,28.375 26.21875,0 19.65625,67.375 -102.03125,0 56.15625,-67.375 z m 58.5,0 182.87495,0 -19.5937,67.375 -143.6875,0 -19.59375,-67.375 z m 215.15625,0 26.2187,0 56.125,67.375 -102,0 19.6563,-67.375 z M 748.5,759.0625 l 110.3125,0 59.40625,203.65625 L 748.5,759.0625 z m 142.53125,0 127.12495,0 -63.56245,218.21875 -63.5625,-218.21875 z m 159.34375,0 110.2812,0 L 991,962.6875 l 59.375,-203.625 z"
                   transform="matrix(0.03132646,0,0,0.03132646,-21.904058,-17.333699)"
                   id="path3706"
                   inkscape:connector-curvature="0" />
              </g>
            </g>
            <g
               id="g4243"
               transform="matrix(0.27366934,0,0,0.18486525,172.62925,206.71382)"
               style="fill:#000000;fill-opacity:1;stroke:none" />
            <g
               transform="matrix(3.4614719,0,0,3.4614719,-792.24329,12.045283)"
               style="font-size:10px;font-style:normal;font-variant:normal;font-weight:bold;font-stretch:normal;text-align:start;line-height:125%;writing-mode:lr-tb;text-anchor:start;fill:#000000;fill-opacity:1;stroke:none;font-family:Bitstream Charter;-inkscape-font-specification:Bitstream Charter Bold;stroke-opacity:1"
               id="flowRoot6831" />
          </g>
        </g>
      </g>
    </g>
  </g>
</svg>
