<?xml version="1.0" encoding="UTF-8" standalone="no"?>
<!-- Created with Inkscape (http://www.inkscape.org/) -->

<svg
   xmlns:dc="http://purl.org/dc/elements/1.1/"
   xmlns:cc="http://creativecommons.org/ns#"
   xmlns:rdf="http://www.w3.org/1999/02/22-rdf-syntax-ns#"
   xmlns:svg="http://www.w3.org/2000/svg"
   xmlns="http://www.w3.org/2000/svg"
   xmlns:xlink="http://www.w3.org/1999/xlink"
   xmlns:sodipodi="http://sodipodi.sourceforge.net/DTD/sodipodi-0.dtd"
   xmlns:inkscape="http://www.inkscape.org/namespaces/inkscape"
   width="256"
   height="256"
   id="svg2"
   inkscape:label="Pozadí"
   version="1.1"
   inkscape:version="0.48.3.1 r9886"
   sodipodi:docname="landuse-wetland.svg">
  <defs
     id="defs3">
    <inkscape:path-effect
       effect="spiro"
       id="path-effect3001"
       is_visible="true" />
    <linearGradient
       inkscape:collect="always"
       id="linearGradient3766">
      <stop
         style="stop-color:#000000;stop-opacity:1;"
         offset="0"
         id="stop3768" />
      <stop
         style="stop-color:#000000;stop-opacity:0;"
         offset="1"
         id="stop3770" />
    </linearGradient>
    <radialGradient
       inkscape:collect="always"
       xlink:href="#linearGradient3766"
       id="radialGradient3772"
       cx="128"
       cy="127.99653"
       fx="128"
       fy="127.99653"
       r="128"
       gradientTransform="matrix(1,0,0,0.50002713,0,63.994792)"
       gradientUnits="userSpaceOnUse" />
  </defs>
  <sodipodi:namedview
     id="base"
     pagecolor="#ffffff"
     bordercolor="#666666"
     borderopacity="1.0"
     inkscape:pageopacity="0.0"
     inkscape:pageshadow="2"
     inkscape:zoom="2.56"
     inkscape:cx="98.330258"
     inkscape:cy="170.13402"
     inkscape:document-units="px"
     inkscape:current-layer="layer1"
     showgrid="true"
     inkscape:window-width="1600"
     inkscape:window-height="1147"
     inkscape:window-x="0"
     inkscape:window-y="0"
     inkscape:window-maximized="1"
     inkscape:snap-grids="false"
     inkscape:snap-to-guides="false">
    <inkscape:grid
       type="xygrid"
       id="grid2984"
       empspacing="4"
       visible="true"
       enabled="true"
       snapvisiblegridlinesonly="true"
       originx="0px"
       spacingx="8px"
       spacingy="8px"
       dotted="false" />
  </sodipodi:namedview>
  <metadata
     id="metadata6">
    <rdf:RDF>
      <cc:Work
         rdf:about="">
        <dc:format>image/svg+xml</dc:format>
        <dc:type
           rdf:resource="http://purl.org/dc/dcmitype/StillImage" />
        <dc:title />
      </cc:Work>
    </rdf:RDF>
  </metadata>
  <g
     inkscape:label="Vrstva 1"
     inkscape:groupmode="layer"
     id="layer1"
     transform="translate(0,-796.36215)">
    <path
       style="fill:#000000;fill-opacity:1;stroke:none"
       d="m 71,808.36215 0,54 -21,-30 -12,12 24,33 c 0,0 -19.718751,7.94923 -30.390625,8 -10.671874,0.0508 -31.609375,-8 -31.609375,-8 l 0,15 c 0,0 21.247416,8.06203 32,8 10.752584,-0.062 19.347492,-6.5617 30.5,-8 11.152508,-1.4383 24.940328,-1.4617 35.9375,0 10.99717,1.4617 18.96121,7.89767 29.5625,8 10.60129,0.10233 32,-8 32,-8 l 0,-15 c 0,0 -20.93751,8.05077 -31.60938,8 -10.67187,-0.0508 -30.39062,-8 -30.39062,-8 l 24,-33 -12,-12 -21,30 0,-66 z"
       id="path7035"
       inkscape:connector-curvature="0"
       sodipodi:nodetypes="ccccczcczzzzcczcccccc" />
    <path
       style="fill:#000000;fill-opacity:1;stroke:none"
       d="m 158,1005.3621 c 0,0 -19.71875,7.9493 -30.39062,8 -10.67188,0.051 -31.60938,-8 -31.60938,-8 l 0,15 c 0,0 21.24742,8.0622 32,8.0002 10.75258,-0.062 19.34749,-6.5619 30.5,-8.0002 11.15251,-1.4383 24.94033,-1.4617 35.9375,0 10.99717,1.4617 18.96121,7.8978 29.5625,8.0002 10.60129,0.1023 32,-8.0002 32,-8.0002 l 0,-15 c 0,0 -20.93751,8.0508 -31.60938,8 -10.67187,-0.051 -30.39062,-8 -30.39062,-8 -17.60938,-3.7343 -17.79688,-3.3437 -36,0 z"
       id="path7035-0"
       inkscape:connector-curvature="0"
       sodipodi:nodetypes="czcczzzzcczcc" />
  </g>
</svg>
