<?xml version="1.0" encoding="UTF-8" standalone="no"?>
<svg
   xmlns:dc="http://purl.org/dc/elements/1.1/"
   xmlns:cc="http://creativecommons.org/ns#"
   xmlns:rdf="http://www.w3.org/1999/02/22-rdf-syntax-ns#"
   xmlns:svg="http://www.w3.org/2000/svg"
   xmlns="http://www.w3.org/2000/svg"
   xmlns:sodipodi="http://sodipodi.sourceforge.net/DTD/sodipodi-0.dtd"
   xmlns:inkscape="http://www.inkscape.org/namespaces/inkscape"
   width="2520"
   height="2520"
   viewBox="0 0 26880 26880"
   id="svg3064"
   version="1.1"
   inkscape:version="0.48.4 r9939"
   sodipodi:docname="library.svg">
  <metadata
     id="metadata3072">
    <rdf:RDF>
      <cc:Work
         rdf:about="">
        <dc:format>image/svg+xml</dc:format>
        <dc:type
           rdf:resource="http://purl.org/dc/dcmitype/StillImage" />
        <dc:title />
      </cc:Work>
    </rdf:RDF>
  </metadata>
  <defs
     id="defs3070">
    <inkscape:perspective
       sodipodi:type="inkscape:persp3d"
       inkscape:vp_x="0 : 225.5 : 1"
       inkscape:vp_y="0 : 1000 : 0"
       inkscape:vp_z="301 : 225.5 : 1"
       inkscape:persp3d-origin="150.5 : 150.33333 : 1"
       id="perspective2486" />
    <inkscape:perspective
       id="perspective13"
       inkscape:persp3d-origin="300.5 : 250.33333 : 1"
       inkscape:vp_z="601 : 375.5 : 1"
       inkscape:vp_y="0 : 1000 : 0"
       inkscape:vp_x="0 : 375.5 : 1"
       sodipodi:type="inkscape:persp3d" />
    <inkscape:perspective
       id="perspective9"
       inkscape:persp3d-origin="372.04724 : 350.78739 : 1"
       inkscape:vp_z="744.09448 : 526.18109 : 1"
       inkscape:vp_y="0 : 1000 : 0"
       inkscape:vp_x="0 : 526.18109 : 1"
       sodipodi:type="inkscape:persp3d" />
  </defs>
  <sodipodi:namedview
     pagecolor="#ffffff"
     bordercolor="#666666"
     borderopacity="1"
     objecttolerance="6"
     gridtolerance="6"
     guidetolerance="6"
     inkscape:pageopacity="0"
     inkscape:pageshadow="2"
     inkscape:window-width="1600"
     inkscape:window-height="1147"
     id="namedview3068"
     showgrid="true"
     inkscape:snap-grids="true"
     inkscape:zoom="0.16"
     inkscape:cx="638.5724"
     inkscape:cy="967.71411"
     inkscape:window-x="0"
     inkscape:window-y="0"
     inkscape:window-maximized="1"
     inkscape:current-layer="g3324"
     showguides="true"
     inkscape:guide-bbox="true"
     inkscape:snap-to-guides="false">
    <inkscape:grid
       type="xygrid"
       id="grid3074"
       empspacing="2"
       visible="true"
       enabled="true"
       snapvisiblegridlinesonly="true"
       dotted="false"
       spacingx="315px"
       spacingy="315px"
       color="#00009b"
       opacity="0.1372549"
       empcolor="#00009b"
       empopacity="0.29411765" />
    <inkscape:grid
       type="xygrid"
       id="grid5379"
       empspacing="3"
       visible="true"
       enabled="true"
       snapvisiblegridlinesonly="true"
       color="#9b0000"
       opacity="0.11764706"
       empcolor="#9b0000"
       empopacity="0.39215686"
       spacingx="280px"
       spacingy="280px" />
    <inkscape:grid
       type="xygrid"
       id="grid5381"
       empspacing="2"
       visible="true"
       enabled="true"
       snapvisiblegridlinesonly="true"
       spacingx="252px"
       spacingy="252px"
       empcolor="#009b00"
       empopacity="0.23529412"
       color="#009b00"
       opacity="0.09803922" />
    <inkscape:grid
       type="xygrid"
       id="grid5383"
       empspacing="2"
       visible="true"
       enabled="true"
       snapvisiblegridlinesonly="true"
       spacingx="180px"
       spacingy="180px"
       color="#009b9b"
       opacity="0.07843137"
       empcolor="#009b9b"
       empopacity="0.15686275" />
    <inkscape:grid
       type="xygrid"
       id="grid3019"
       empspacing="5"
       visible="true"
       enabled="true"
       snapvisiblegridlinesonly="true"
       color="#9b0000"
       opacity="0.09803922"
       empcolor="#0000ff"
       empopacity="0"
       dotted="true"
       spacingx="140px"
       spacingy="140px" />
    <inkscape:grid
       type="xygrid"
       id="grid3013"
       empspacing="5"
       visible="true"
       enabled="false"
       snapvisiblegridlinesonly="true"
       spacingx="210px"
       spacingy="210px"
       color="#ff00ff"
       opacity="0.29411765" />
  </sodipodi:namedview>
  <g
     id="g4212">
    <text
       sodipodi:linespacing="125%"
       id="text2998"
       y="4924.4893"
       x="9930.1055"
       style="font-size:6048.16699219px;font-style:normal;font-variant:normal;font-weight:normal;font-stretch:normal;line-height:125%;letter-spacing:0px;word-spacing:0px;fill:#000000;fill-opacity:1;stroke:none;font-family:Liberation Sans;-inkscape-font-specification:Sans"
       xml:space="preserve"><tspan
         y="4924.4893"
         x="9930.1055"
         id="tspan3000"
         sodipodi:role="line" /></text>
    <g
       id="g4445"
       transform="matrix(10.666667,0,0,10.666667,-20763.958,4280.9699)">
      <g
         id="g3324"
         transform="matrix(4.8314063,0,0,4.8314063,1656.0154,-384.07686)"
         style="fill:#000000;fill-opacity:1">
        <g
           id="layer1"
           transform="matrix(3.494293,0,0,3.494293,148.03933,-3186.2339)"
           style="stroke:#000000;stroke-opacity:1;stroke-width:11.84669214;stroke-miterlimit:4;stroke-dasharray:none" />
        <path
           style="fill:#000000;fill-opacity:1;stroke:none"
           d="M 2.5 0 L 2.5 2520 L 2522.5 2520 L 2522.5 0 L 2.5 0 z M 282.5 280 L 2242.5 280 L 2242.5 2240 L 282.5 2240 L 282.5 280 z M 1287.4062 458.125 L 565.25 856.5625 L 1299.875 1690.75 L 2003.3438 1286.0625 L 1287.4062 458.125 z M 525.78125 948.8125 L 522.65625 1258.5312 L 1251.0312 2081.875 L 1247.9375 1770.625 L 525.78125 948.8125 z M 1996.9062 1367.6562 A 26.48955 26.48955 0 0 0 1984.3438 1371.4688 L 1321.375 1759.875 A 26.48955 26.48955 0 0 0 1308.3125 1781.5938 L 1307.7188 1791.625 A 26.48955 26.48955 0 0 0 1347.5938 1815.9375 L 2010.1562 1427.7188 A 26.48955 26.48955 0 0 0 2023.0312 1407.3438 L 2024.25 1396.875 A 26.48955 26.48955 0 0 0 2004.75 1368.5625 A 26.48955 26.48955 0 0 0 1996.9062 1367.6562 z M 1997 1496.25 A 26.48955 26.48955 0 0 0 1984.3438 1499.875 L 1321.375 1888.5625 A 26.48955 26.48955 0 0 0 1308.2188 1910.2812 L 1307.7188 1920.3125 A 26.48955 26.48955 0 0 0 1347.5938 1944.3438 L 2010.1562 1556.125 A 26.48955 26.48955 0 0 0 2023.0312 1535.75 L 2024.25 1525.2812 A 26.48955 26.48955 0 0 0 2002.2188 1496.6562 A 26.48955 26.48955 0 0 0 1997 1496.25 z M 1997 1624.9375 A 26.48955 26.48955 0 0 0 1984.3438 1628.5625 L 1321.375 2017.1875 A 26.48955 26.48955 0 0 0 1308.3125 2038.6875 L 1307.7188 2049.0312 A 26.48955 26.48955 0 0 0 1347.5938 2073.0312 L 2010.1562 1684.8438 A 26.48955 26.48955 0 0 0 2023.0312 1664.4375 L 2024.25 1654 A 26.48955 26.48955 0 0 0 2002.2188 1625.3438 A 26.48955 26.48955 0 0 0 1997 1624.9375 z "
           transform="matrix(0.20697907,0,0,0.20697907,60.149278,-3.5732982)"
           id="path3012" />
      </g>
    </g>
  </g>
</svg>
