<?xml version="1.0" encoding="UTF-8" standalone="no"?>
<svg
   xmlns:dc="http://purl.org/dc/elements/1.1/"
   xmlns:cc="http://creativecommons.org/ns#"
   xmlns:rdf="http://www.w3.org/1999/02/22-rdf-syntax-ns#"
   xmlns:svg="http://www.w3.org/2000/svg"
   xmlns="http://www.w3.org/2000/svg"
   xmlns:sodipodi="http://sodipodi.sourceforge.net/DTD/sodipodi-0.dtd"
   xmlns:inkscape="http://www.inkscape.org/namespaces/inkscape"
   width="2520"
   height="2520"
   viewBox="0 0 26880 26880"
   id="svg3064"
   version="1.1"
   inkscape:version="0.48.4 r9939"
   sodipodi:docname="motorcycle_parking.svg">
  <metadata
     id="metadata3072">
    <rdf:RDF>
      <cc:Work
         rdf:about="">
        <dc:format>image/svg+xml</dc:format>
        <dc:type
           rdf:resource="http://purl.org/dc/dcmitype/StillImage" />
        <dc:title></dc:title>
      </cc:Work>
    </rdf:RDF>
  </metadata>
  <defs
     id="defs3070">
    <inkscape:perspective
       sodipodi:type="inkscape:persp3d"
       inkscape:vp_x="0 : 225.5 : 1"
       inkscape:vp_y="0 : 1000 : 0"
       inkscape:vp_z="301 : 225.5 : 1"
       inkscape:persp3d-origin="150.5 : 150.33333 : 1"
       id="perspective2486" />
    <inkscape:perspective
       id="perspective13"
       inkscape:persp3d-origin="300.5 : 250.33333 : 1"
       inkscape:vp_z="601 : 375.5 : 1"
       inkscape:vp_y="0 : 1000 : 0"
       inkscape:vp_x="0 : 375.5 : 1"
       sodipodi:type="inkscape:persp3d" />
    <inkscape:perspective
       id="perspective9"
       inkscape:persp3d-origin="372.04724 : 350.78739 : 1"
       inkscape:vp_z="744.09448 : 526.18109 : 1"
       inkscape:vp_y="0 : 1000 : 0"
       inkscape:vp_x="0 : 526.18109 : 1"
       sodipodi:type="inkscape:persp3d" />
  </defs>
  <sodipodi:namedview
     pagecolor="#ffffff"
     bordercolor="#666666"
     borderopacity="1"
     objecttolerance="6"
     gridtolerance="6"
     guidetolerance="6"
     inkscape:pageopacity="0"
     inkscape:pageshadow="2"
     inkscape:window-width="1600"
     inkscape:window-height="1147"
     id="namedview3068"
     showgrid="true"
     inkscape:snap-grids="true"
     inkscape:zoom="0.17153603"
     inkscape:cx="541.88143"
     inkscape:cy="1809.8707"
     inkscape:window-x="0"
     inkscape:window-y="0"
     inkscape:window-maximized="1"
     inkscape:current-layer="g4445"
     showguides="true"
     inkscape:guide-bbox="true"
     inkscape:snap-to-guides="false">
    <inkscape:grid
       type="xygrid"
       id="grid3074"
       empspacing="2"
       visible="true"
       enabled="true"
       snapvisiblegridlinesonly="true"
       dotted="false"
       spacingx="315px"
       spacingy="315px"
       color="#00009b"
       opacity="0.1372549"
       empcolor="#00009b"
       empopacity="0.29411765" />
    <inkscape:grid
       type="xygrid"
       id="grid5379"
       empspacing="3"
       visible="true"
       enabled="true"
       snapvisiblegridlinesonly="true"
       color="#9b0000"
       opacity="0.11764706"
       empcolor="#9b0000"
       empopacity="0.39215686"
       spacingx="280px"
       spacingy="280px" />
    <inkscape:grid
       type="xygrid"
       id="grid5381"
       empspacing="2"
       visible="true"
       enabled="true"
       snapvisiblegridlinesonly="true"
       spacingx="252px"
       spacingy="252px"
       empcolor="#009b00"
       empopacity="0.23529412"
       color="#009b00"
       opacity="0.09803922" />
    <inkscape:grid
       type="xygrid"
       id="grid5383"
       empspacing="2"
       visible="true"
       enabled="true"
       snapvisiblegridlinesonly="true"
       spacingx="180px"
       spacingy="180px"
       color="#009b9b"
       opacity="0.07843137"
       empcolor="#009b9b"
       empopacity="0.15686275" />
    <inkscape:grid
       type="xygrid"
       id="grid3019"
       empspacing="5"
       visible="true"
       enabled="true"
       snapvisiblegridlinesonly="true"
       color="#9b0000"
       opacity="0.09803922"
       empcolor="#0000ff"
       empopacity="0"
       dotted="true"
       spacingx="140px"
       spacingy="140px" />
    <inkscape:grid
       type="xygrid"
       id="grid3013"
       empspacing="5"
       visible="true"
       enabled="false"
       snapvisiblegridlinesonly="true"
       spacingx="210px"
       spacingy="210px"
       color="#ff00ff"
       opacity="0.29411765" />
  </sodipodi:namedview>
  <g
     id="g4212">
    <path
       inkscape:connector-curvature="0"
       id="path2996"
       d="m -7.8846092,16941.194 12701.1516092,0 0,-16934.8680396 -12701.1516092,0 z"
       style="fill:#000000;fill-opacity:1;stroke:#000000;stroke-width:7.12783289px;stroke-linecap:butt;stroke-linejoin:miter;stroke-opacity:1" />
    <text
       sodipodi:linespacing="125%"
       id="text2998"
       y="4924.4893"
       x="9930.1055"
       style="font-size:6048.16699219px;font-style:normal;font-variant:normal;font-weight:normal;font-stretch:normal;line-height:125%;letter-spacing:0px;word-spacing:0px;fill:#000000;fill-opacity:1;stroke:none;font-family:Liberation Sans;-inkscape-font-specification:Sans"
       xml:space="preserve"><tspan
         y="4924.4893"
         x="9930.1055"
         id="tspan3000"
         sodipodi:role="line" /></text>
    <g
       id="text3002"
       style="font-size:11576.77832031px;font-style:normal;font-variant:normal;font-weight:normal;font-stretch:normal;line-height:125%;letter-spacing:0px;word-spacing:0px;fill:#ffffff;fill-opacity:1;stroke:none;font-family:Liberation Sans;-inkscape-font-specification:Liberation Sans"
       transform="matrix(0.63001739,0,0,0.63001739,-2124.743,6.3259604)">
      <path
         id="path3775"
         style="font-size:23153.55664062px;font-weight:bold;font-stretch:condensed;fill:#ffffff;font-family:Liberation Sans Narrow;-inkscape-font-specification:Liberation Sans Narrow Bold Condensed"
         d="m 19164.357,10776.856 c -0.01,685.874 -94.224,1349.126 -282.636,1989.759 -188.436,633.113 -478.608,1194.616 -870.519,1684.511 -391.933,489.91 -889.372,881.832 -1492.319,1175.767 -595.429,286.41 -1303.903,429.613 -2125.425,429.607 l -3244.663,0 0,5607.502 -2735.9184,0 0,-15929.3757 5867.5274,0 c 836.595,0.016 1560.143,124.3757 2170.646,373.0798 610.484,241.1982 1115.46,584.1297 1514.93,1028.7957 406.985,444.695 708.463,976.0505 904.436,1594.0681 195.949,618.0435 293.929,1300.1381 293.941,2046.2861 m -2758.529,56.527 c 0,-821.517 -203.507,-1443.3164 -610.494,-1865.3987 -399.467,-429.5939 -1006.193,-644.3971 -1820.177,-644.4105 l -2826.362,0 0,5166.5892 2905.5,0 c 406.989,0 757.457,-64.056 1051.407,-192.192 293.933,-128.12 535.116,-309.007 723.548,-542.662 195.952,-233.637 339.155,-512.504 429.607,-836.603 97.972,-331.616 146.962,-693.39 146.971,-1085.323"
         inkscape:connector-curvature="0" />
    </g>
    <g
       id="g4445"
       transform="matrix(10.666667,0,0,10.666667,-20763.958,4280.9699)">
      <g
         id="g4480">
        <path
           inkscape:connector-curvature="0"
           id="path3206"
           style="fill:#010101;stroke:#ffffff;stroke-width:24.33899924;stroke-miterlimit:4;stroke-opacity:1;stroke-dasharray:none"
           d="m 2387.5473,2089.5191 c -73.5148,-19.5472 -190.5113,-123.6583 -225.4857,-200.6517 -55.9856,-123.25 -24.86,-315.5186 67.0511,-414.196 130.8798,-140.5133 395.0105,-144.7147 529.9024,-8.4268 145.8806,147.39 147.7876,383.1688 4.2619,526.6962 -100.3168,100.3152 -233.2079,134.4746 -375.7297,96.5783 z m 1596.7124,-3.5268 c -129.5231,-40.5232 -231.3068,-163.1107 -254.73,-306.7985 -23.8588,-146.354 86.6663,-337.3873 225.9804,-390.5913 105.9819,-40.4749 261.1575,-26.1395 343.5,31.7335 35.4781,24.9338 84.9045,74.3619 109.8399,109.8383 57.7202,82.1279 72.2008,237.5348 31.9529,342.9239 -68.1372,178.4142 -268.3442,271.774 -456.5432,212.8941 z m -770.7975,-250.9507 c -169.9103,-17.9213 -233.9308,-63.8497 -271.4733,-194.7551 -34.5342,-120.4158 -87.6492,-204.3355 -168.3131,-265.9258 -70.944,-54.1707 -189.0837,-98.5777 -262.2539,-98.5777 -49.2419,0 -75.301,-48.9392 -75.301,-141.4177 0,-82.3651 56.802,-140.76429 200.0541,-205.68149 114.6781,-51.9686 140.7705,-55.95671 153.2549,-23.4247 4.7879,12.47691 14.5653,22.6851 21.7279,22.6851 7.1609,0 117.4227,-78.26369 245.0237,-173.91942 312.3322,-234.13796 336.7549,-233.99881 514.8425,2.93243 58.6108,77.97488 110.0562,150.87285 114.3241,161.99303 7.2881,18.99358 -171.5996,161.11445 -200.8589,159.57485 -6.8266,-0.363 -61.587,-68.4138 -121.6907,-151.23421 -67.7529,-93.36283 -119.4736,-150.54465 -136.1108,-150.48719 -31.1406,0.15124 -380.1501,264.2231 -392.8342,297.2798 -9.8061,25.554 72.8632,117.7041 134.6182,150.0577 58.1238,30.451 95.7283,26.5476 121.7089,-12.6325 21.221,-32.0044 34.5963,-34.3228 224.9141,-38.9823 l 202.3515,-4.956 109.1669,-82.0037 c 60.0417,-45.1027 114.8082,-82.0053 121.7029,-82.0053 6.8948,0 36.0332,37.1037 64.7527,82.4514 l 52.2164,82.4529 183.411,0.7259 c 195.053,0.7712 229.9081,12.985 210.6089,73.7887 -7.97,25.1156 -27.4807,30.061 -141.1409,35.7715 -158.7446,7.976 -246.7554,42.9295 -333.7107,132.5296 -96.3739,99.3066 -130.7117,183.824 -130.8114,321.9659 l -0.1513,117.1869 -166.3578,-2.0342 c -91.4968,-1.119 -214.6772,-7.1306 -273.7372,-13.3598 z M 3092.0891,573.04267 c -15.2488,-39.73833 2.5453,-58.58364 70.8623,-75.05306 63.8664,-15.39565 67.3855,-19.06913 71.9769,-75.14077 5.7123,-69.75532 -14.6621,-87.95334 -84.2252,-75.22396 -55.1355,10.09036 -60.6361,-2.04619 -22.348,-49.31448 37.6271,-46.45163 83.4421,-66.04404 154.436,-66.04404 125.9508,0 202.7266,79.68234 193.8945,201.23541 l -4.6096,63.42465 -98.6002,0 c -85.4368,0 -108.8314,6.56208 -175.2428,49.15118 -87.0249,55.80847 -94.3597,57.67169 -106.1439,26.96507 z" />
      </g>
    </g>
  </g>
</svg>
