<?xml version="1.0" encoding="UTF-8" standalone="no"?>
<svg
   xmlns:dc="http://purl.org/dc/elements/1.1/"
   xmlns:cc="http://creativecommons.org/ns#"
   xmlns:rdf="http://www.w3.org/1999/02/22-rdf-syntax-ns#"
   xmlns:svg="http://www.w3.org/2000/svg"
   xmlns="http://www.w3.org/2000/svg"
   xmlns:sodipodi="http://sodipodi.sourceforge.net/DTD/sodipodi-0.dtd"
   xmlns:inkscape="http://www.inkscape.org/namespaces/inkscape"
   width="2520"
   height="2520"
   viewBox="0 0 26880 26880"
   id="svg3064"
   version="1.1"
   inkscape:version="0.48.4 r9939"
   sodipodi:docname="parking_entrance.svg">
  <metadata
     id="metadata3072">
    <rdf:RDF>
      <cc:Work
         rdf:about="">
        <dc:format>image/svg+xml</dc:format>
        <dc:type
           rdf:resource="http://purl.org/dc/dcmitype/StillImage" />
        <dc:title></dc:title>
      </cc:Work>
    </rdf:RDF>
  </metadata>
  <defs
     id="defs3070">
    <marker
       inkscape:stockid="Arrow2Send"
       orient="auto"
       refY="0.0"
       refX="0.0"
       id="Arrow2Send"
       style="overflow:visible;">
      <path
         id="path6226"
         style="fill-rule:evenodd;stroke-width:0.62500000;stroke-linejoin:round;"
         d="M 8.7185878,4.0337352 L -2.2072895,0.016013256 L 8.7185884,-4.0017078 C 6.9730900,-1.6296469 6.9831476,1.6157441 8.7185878,4.0337352 z "
         transform="scale(0.3) rotate(180) translate(-2.3,0)" />
    </marker>
  </defs>
  <sodipodi:namedview
     pagecolor="#ffffff"
     bordercolor="#666666"
     borderopacity="1"
     objecttolerance="6"
     gridtolerance="6"
     guidetolerance="6"
     inkscape:pageopacity="0"
     inkscape:pageshadow="2"
     inkscape:window-width="1400"
     inkscape:window-height="997"
     id="namedview3068"
     showgrid="true"
     inkscape:snap-grids="true"
     inkscape:zoom="0.27057957"
     inkscape:cx="980.67083"
     inkscape:cy="1189.4635"
     inkscape:window-x="0"
     inkscape:window-y="0"
     inkscape:window-maximized="1"
     inkscape:current-layer="svg3064"
     showguides="true"
     inkscape:guide-bbox="true"
     inkscape:snap-to-guides="false"
     inkscape:object-paths="true">
    <inkscape:grid
       type="xygrid"
       id="grid3074"
       empspacing="2"
       visible="true"
       enabled="true"
       snapvisiblegridlinesonly="true"
       dotted="false"
       spacingx="315px"
       spacingy="315px"
       color="#00009b"
       opacity="0.1372549"
       empcolor="#00009b"
       empopacity="0.29411765" />
    <inkscape:grid
       type="xygrid"
       id="grid5379"
       empspacing="3"
       visible="true"
       enabled="true"
       snapvisiblegridlinesonly="true"
       color="#9b0000"
       opacity="0.11764706"
       empcolor="#9b0000"
       empopacity="0.39215686"
       spacingx="280px"
       spacingy="280px" />
    <inkscape:grid
       type="xygrid"
       id="grid5381"
       empspacing="2"
       visible="true"
       enabled="true"
       snapvisiblegridlinesonly="true"
       spacingx="252px"
       spacingy="252px"
       empcolor="#009b00"
       empopacity="0.23529412"
       color="#009b00"
       opacity="0.09803922" />
    <inkscape:grid
       type="xygrid"
       id="grid5383"
       empspacing="2"
       visible="true"
       enabled="true"
       snapvisiblegridlinesonly="true"
       spacingx="180px"
       spacingy="180px"
       color="#009b9b"
       opacity="0.07843137"
       empcolor="#009b9b"
       empopacity="0.15686275" />
    <inkscape:grid
       type="xygrid"
       id="grid3019"
       empspacing="5"
       visible="true"
       enabled="true"
       snapvisiblegridlinesonly="true"
       color="#9b0000"
       opacity="0.09803922"
       empcolor="#0000ff"
       empopacity="0"
       dotted="true"
       spacingx="140px"
       spacingy="140px" />
    <inkscape:grid
       type="xygrid"
       id="grid3013"
       empspacing="5"
       visible="true"
       enabled="false"
       snapvisiblegridlinesonly="true"
       spacingx="210px"
       spacingy="210px"
       color="#ff00ff"
       opacity="0.29411765" />
  </sodipodi:namedview>
  <path
     style="fill:#000000;fill-opacity:1;stroke:#000000;stroke-width:0.68748802px;stroke-linecap:butt;stroke-linejoin:miter;stroke-opacity:1"
     d="M 1302.5312 3.25 L 1302.5312 1636.625 L 2527.5625 1636.625 L 2527.5625 3.25 L 1302.5312 3.25 z M 1609.5625 351.71875 L 1966.0938 351.71875 C 2016.9302 351.71978 2060.9022 359.26227 2098 374.375 C 2135.0966 389.03164 2165.7884 409.8857 2190.0625 436.90625 C 2214.7933 463.92856 2233.1228 496.22684 2245.0312 533.78125 C 2256.9384 571.33724 2262.8743 612.78458 2262.875 658.125 C 2262.875 699.80266 2257.1677 740.10257 2245.7188 779.03125 C 2234.2682 817.50292 2216.6273 851.60606 2192.8125 881.375 C 2168.9963 911.14476 2138.795 934.98263 2102.1562 952.84375 C 2065.9745 970.24788 2022.8893 978.93788 1972.9688 978.9375 L 1775.8125 978.9375 L 1775.8125 1319.6875 L 1609.5625 1319.6875 L 1609.5625 351.71875 z M 1775.8125 509.03125 L 1775.8125 822.96875 L 1952.375 822.96875 C 1977.1061 822.96875 1998.3879 819.09882 2016.25 811.3125 C 2034.1112 803.52716 2048.7684 792.54202 2060.2188 778.34375 C 2072.1258 764.14663 2080.8475 747.1942 2086.3438 727.5 C 2092.2972 707.34904 2095.2495 685.37868 2095.25 661.5625 C 2095.25 611.64228 2082.8872 573.83573 2058.1562 548.1875 C 2033.8822 522.08283 1997.0251 509.03207 1947.5625 509.03125 L 1775.8125 509.03125 z M 1242.0938 1249.7812 L 185.375 1738.2812 C 273.95851 1752.8386 356.76517 1783.8099 430.4375 1827.9688 L -2.28125 2260.6875 L 233.4375 2496.4062 L 666.28125 2063.5625 C 710.02331 2136.7234 740.2465 2218.7863 753.59375 2306.5 L 1037.5 1692.3438 L 1042.3438 1687.5 L 1040.5625 1685.7188 L 1242.0938 1249.7812 z "
     transform="scale(10.666667,10.666667)"
     id="path2996" />
  <g
     id="g7185" />
</svg>
