<?xml version="1.0" encoding="UTF-8" standalone="no"?>
<svg
   xmlns:dc="http://purl.org/dc/elements/1.1/"
   xmlns:cc="http://creativecommons.org/ns#"
   xmlns:rdf="http://www.w3.org/1999/02/22-rdf-syntax-ns#"
   xmlns:svg="http://www.w3.org/2000/svg"
   xmlns="http://www.w3.org/2000/svg"
   xmlns:sodipodi="http://sodipodi.sourceforge.net/DTD/sodipodi-0.dtd"
   xmlns:inkscape="http://www.inkscape.org/namespaces/inkscape"
   width="2520"
   height="2520"
   viewBox="0 0 26880 26880"
   id="svg3064"
   version="1.1"
   inkscape:version="0.48.3.1 r9886"
   sodipodi:docname="shelter.svg">
  <metadata
     id="metadata3072">
    <rdf:RDF>
      <cc:Work
         rdf:about="">
        <dc:format>image/svg+xml</dc:format>
        <dc:type
           rdf:resource="http://purl.org/dc/dcmitype/StillImage" />
        <dc:title></dc:title>
      </cc:Work>
    </rdf:RDF>
  </metadata>
  <defs
     id="defs3070">
    <clipPath
       id="clip0">
      <rect
         y="0"
         x="0"
         width="233"
         height="233"
         id="rect4533" />
    </clipPath>
  </defs>
  <sodipodi:namedview
     pagecolor="#ffffff"
     bordercolor="#666666"
     borderopacity="1"
     objecttolerance="6"
     gridtolerance="6"
     guidetolerance="6"
     inkscape:pageopacity="0"
     inkscape:pageshadow="2"
     inkscape:window-width="1600"
     inkscape:window-height="1147"
     id="namedview3068"
     showgrid="true"
     inkscape:snap-grids="false"
     inkscape:zoom="0.34"
     inkscape:cx="1292.4874"
     inkscape:cy="1247.0657"
     inkscape:window-x="0"
     inkscape:window-y="0"
     inkscape:window-maximized="1"
     inkscape:current-layer="surface0"
     showguides="true"
     inkscape:guide-bbox="true"
     inkscape:snap-to-guides="false"
     inkscape:object-paths="true">
    <inkscape:grid
       type="xygrid"
       id="grid3074"
       empspacing="2"
       visible="true"
       enabled="true"
       snapvisiblegridlinesonly="true"
       dotted="false"
       spacingx="315px"
       spacingy="315px"
       color="#00009b"
       opacity="0.1372549"
       empcolor="#00009b"
       empopacity="0.29411765" />
    <inkscape:grid
       type="xygrid"
       id="grid5379"
       empspacing="3"
       visible="true"
       enabled="true"
       snapvisiblegridlinesonly="true"
       color="#9b0000"
       opacity="0.11764706"
       empcolor="#9b0000"
       empopacity="0.39215686"
       spacingx="280px"
       spacingy="280px" />
    <inkscape:grid
       type="xygrid"
       id="grid5381"
       empspacing="2"
       visible="true"
       enabled="true"
       snapvisiblegridlinesonly="true"
       spacingx="252px"
       spacingy="252px"
       empcolor="#009b00"
       empopacity="0.23529412"
       color="#009b00"
       opacity="0.09803922" />
    <inkscape:grid
       type="xygrid"
       id="grid5383"
       empspacing="2"
       visible="true"
       enabled="true"
       snapvisiblegridlinesonly="true"
       spacingx="180px"
       spacingy="180px"
       color="#009b9b"
       opacity="0.07843137"
       empcolor="#009b9b"
       empopacity="0.15686275" />
    <inkscape:grid
       type="xygrid"
       id="grid3019"
       empspacing="5"
       visible="true"
       enabled="true"
       snapvisiblegridlinesonly="true"
       color="#9b0000"
       opacity="0.09803922"
       empcolor="#0000ff"
       empopacity="0"
       dotted="true"
       spacingx="140px"
       spacingy="140px" />
    <inkscape:grid
       type="xygrid"
       id="grid3013"
       empspacing="5"
       visible="true"
       enabled="false"
       snapvisiblegridlinesonly="true"
       spacingx="210px"
       spacingy="210px"
       color="#ff00ff"
       opacity="0.29411765" />
  </sodipodi:namedview>
  <g
     transform="matrix(128.05184,0,0,128.05184,-2243.5294,-2187.0589)"
     id="surface0"
     clip-path="url(#clip0)">
    <path
       inkscape:connector-curvature="0"
       style="fill:#000000;fill-rule:nonzero;stroke:none;fill-opacity:1"
       d="m 83.58419,17.074146 c 25.99561,-0.01935 51.99061,-0.01619 77.98736,-0.0019 0.0106,21.871555 -0.003,43.742171 0.007,65.614292 22.07588,0.01208 44.15161,-0.0019 66.22964,0.0089 0.0197,26.106632 0.0153,52.212702 0.003,78.320452 -22.07869,0.007 -44.15503,-0.003 -66.2316,0.007 -0.0135,21.87049 9.1e-4,43.74084 -0.009,65.61344 -25.99677,0.0182 -51.99173,0.015 -77.987365,0.002 -0.01165,-21.87291 0.0023,-43.7435 -0.008,-65.6143 -22.07724,-0.0134 -44.152964,8.9e-4 -66.229633,-0.009 -0.02083,-26.10779 -0.01643,-52.21376 -0.003,-78.320436 22.077323,-0.0091 44.153699,0.0023 66.231592,-0.0072 0.01221,-21.871844 -0.0019,-43.742155 0.009,-65.613435 z m 0,0"
       id="path4546" />
    <path
       inkscape:connector-curvature="0"
       style="fill:#ffffff;fill-opacity:1;fill-rule:nonzero;stroke:none"
       d="m 89.996479,23.417474 c -4.45e-4,21.807467 -0.0971,43.615446 0.122375,65.422881 2.061295,1.887226 4.123644,3.776864 6.188261,5.667741 0.178342,-23.697278 0.07743,-47.39354 0.089,-71.090622 -1.600085,1.4e-4 -4.799554,-1.33e-4 -6.399637,0 z m 19.218391,0 c -1.59916,6.35e-4 -4.79772,0.0021 -6.39686,0.0027 0.0133,26.041986 -0.12247,52.083218 0.12793,78.125026 2.06388,1.88687 4.12517,3.77776 6.19382,5.66774 0.18057,-27.932296 0.0501,-55.863384 0.0752,-83.795521 z m 6.42188,0 c 0.0387,30.275552 -0.14209,60.551785 0.12794,90.827156 2.05361,1.88604 4.11014,3.77245 6.16879,5.66221 0.22765,-32.163059 0.0668,-64.326345 0.10847,-96.489366 l -6.4052,0 z m 72.74893,65.610244 c -11.00617,0.0034 -22.0106,0.03457 -33.01612,0.143277 -1.90952,2.042103 -3.81697,4.08249 -5.72101,6.127884 23.91878,0.176683 47.83775,0.0767 71.75882,0.08816 0,-1.585184 0,-4.754861 0,-6.340046 -11.0069,-1.75e-4 -22.01552,-0.02272 -33.02169,-0.01929 z m -6.41076,12.696622 c -13.14337,-0.002 -26.28694,0.0275 -39.42966,0.15155 -1.90916,2.04464 -3.81789,4.08951 -5.72101,6.13889 28.19379,0.17889 56.38736,0.0496 84.58312,0.0744 0,-1.58426 -0.002,-4.75303 -0.003,-6.33728 -13.14393,0.007 -26.28628,-0.0259 -39.42966,-0.0275 z m -17.86946,12.70489 c -11.45993,0.009 -22.91934,0.0485 -34.37895,0.14878 -1.90835,2.03448 -3.81248,4.07187 -5.71543,6.11136 32.46447,0.22553 64.93006,0.0635 97.39629,0.10469 5e-5,-1.58603 -6e-5,-4.75678 0,-6.34281 -19.10069,0.0239 -38.20205,-0.038 -57.30191,-0.022 z m -91.658613,8.46992 c -16.232585,0.006 -32.464093,0.0367 -48.696756,0.0165 l 0,6.34556 c 30.560115,-0.0393 61.118137,0.1398 91.678059,-0.12674 1.90378,-2.03904 3.80792,-4.07644 5.71545,-6.11136 -16.23268,-0.11322 -32.464171,-0.13066 -48.696753,-0.12399 z m 50.729853,0.95887 c -0.13516,32.1442 -0.042,64.28861 -0.0613,96.43427 1.60081,5e-5 4.80159,-6e-5 6.40241,0 -0.0352,-30.28147 0.12916,-60.56147 -0.11681,-90.84093 -2.07943,-1.86264 -4.15004,-3.73456 -6.22441,-5.59334 z m -57.137834,11.74327 c -14.097294,0.006 -28.194219,0.0339 -42.291557,0.022 6.41e-4,1.58425 0.0021,4.75028 0.0027,6.33452 26.286757,-0.0144 52.572741,0.12295 78.859326,-0.12397 1.9046,-2.04921 3.81603,-4.09136 5.72379,-6.13616 -14.097414,-0.09 -28.197046,-0.10309 -42.29434,-0.0964 z m 69.942664,0.9561 c -0.10427,27.91128 -0.0374,55.82472 -0.0418,83.73766 1.5992,0 4.79767,-0.002 6.39686,-0.003 -0.0139,-26.04791 0.11739,-52.09596 -0.11403,-78.14155 -2.08359,-1.86398 -4.16229,-3.73442 -6.2411,-5.59336 z m -76.353426,11.74603 c -11.959828,0.001 -23.920888,0.0246 -35.880795,0.0193 1.43e-4,1.58518 0.0026,4.75485 0.0027,6.34003 22.012438,-8.8e-4 44.022611,0.0948 66.035015,-0.12122 1.904964,-2.04665 3.815146,-4.08984 5.723794,-6.13064 -11.960004,-0.0891 -23.920964,-0.10876 -35.880793,-0.10748 z m 89.183296,0.95886 c -0.10791,23.67676 -0.0497,47.35124 -0.0529,71.03001 1.60037,0 4.80209,0 6.40243,0 0.001,-21.8136 0.0854,-43.62569 -0.11403,-65.43666 -2.08231,-1.86514 -4.15946,-3.7326 -6.23554,-5.59335 z"
       id="path4550" />
  </g>
</svg>
