<?xml version="1.0" encoding="UTF-8" standalone="no"?>
<svg
   xmlns:dc="http://purl.org/dc/elements/1.1/"
   xmlns:cc="http://creativecommons.org/ns#"
   xmlns:rdf="http://www.w3.org/1999/02/22-rdf-syntax-ns#"
   xmlns:svg="http://www.w3.org/2000/svg"
   xmlns="http://www.w3.org/2000/svg"
   xmlns:sodipodi="http://sodipodi.sourceforge.net/DTD/sodipodi-0.dtd"
   xmlns:inkscape="http://www.inkscape.org/namespaces/inkscape"
   width="2520"
   height="2520"
   viewBox="0 0 26880 26880"
   id="svg3064"
   version="1.1"
   inkscape:version="0.48.3.1 r9886"
   sodipodi:docname="postoffice.svg">
  <metadata
     id="metadata3072">
    <rdf:RDF>
      <cc:Work
         rdf:about="">
        <dc:format>image/svg+xml</dc:format>
        <dc:type
           rdf:resource="http://purl.org/dc/dcmitype/StillImage" />
        <dc:title></dc:title>
      </cc:Work>
    </rdf:RDF>
  </metadata>
  <defs
     id="defs3070" />
  <sodipodi:namedview
     pagecolor="#ffffff"
     bordercolor="#666666"
     borderopacity="1"
     objecttolerance="6"
     gridtolerance="6"
     guidetolerance="6"
     inkscape:pageopacity="0"
     inkscape:pageshadow="2"
     inkscape:window-width="1600"
     inkscape:window-height="1147"
     id="namedview3068"
     showgrid="true"
     inkscape:snap-grids="true"
     inkscape:zoom="1.03"
     inkscape:cx="1126.4408"
     inkscape:cy="859.02743"
     inkscape:window-x="0"
     inkscape:window-y="0"
     inkscape:window-maximized="1"
     inkscape:current-layer="svg3064"
     showguides="true"
     inkscape:guide-bbox="true"
     inkscape:snap-to-guides="false"
     inkscape:object-paths="true">
    <inkscape:grid
       type="xygrid"
       id="grid3074"
       empspacing="2"
       visible="true"
       enabled="true"
       snapvisiblegridlinesonly="true"
       dotted="false"
       spacingx="315px"
       spacingy="315px"
       color="#00009b"
       opacity="0.1372549"
       empcolor="#00009b"
       empopacity="0.29411765" />
    <inkscape:grid
       type="xygrid"
       id="grid5379"
       empspacing="3"
       visible="true"
       enabled="true"
       snapvisiblegridlinesonly="true"
       color="#9b0000"
       opacity="0.11764706"
       empcolor="#9b0000"
       empopacity="0.39215686"
       spacingx="280px"
       spacingy="280px" />
    <inkscape:grid
       type="xygrid"
       id="grid5381"
       empspacing="2"
       visible="true"
       enabled="true"
       snapvisiblegridlinesonly="true"
       spacingx="252px"
       spacingy="252px"
       empcolor="#009b00"
       empopacity="0.23529412"
       color="#009b00"
       opacity="0.09803922" />
    <inkscape:grid
       type="xygrid"
       id="grid5383"
       empspacing="2"
       visible="true"
       enabled="true"
       snapvisiblegridlinesonly="true"
       spacingx="180px"
       spacingy="180px"
       color="#009b9b"
       opacity="0.07843137"
       empcolor="#009b9b"
       empopacity="0.15686275" />
    <inkscape:grid
       type="xygrid"
       id="grid3019"
       empspacing="5"
       visible="true"
       enabled="true"
       snapvisiblegridlinesonly="true"
       color="#9b0000"
       opacity="0.09803922"
       empcolor="#0000ff"
       empopacity="0"
       dotted="true"
       spacingx="140px"
       spacingy="140px" />
    <inkscape:grid
       type="xygrid"
       id="grid3013"
       empspacing="5"
       visible="true"
       enabled="false"
       snapvisiblegridlinesonly="true"
       spacingx="210px"
       spacingy="210px"
       color="#ff00ff"
       opacity="0.29411765" />
  </sodipodi:namedview>
  <path
     style="fill:#ffffff;fill-opacity:1;stroke:none"
     d="M 12532.752,25515.518 C 10555.356,25324.794 8604.4322,24396.938 7156.8704,22958.758 5767.2361,21578.13 4890.122,19830.022 4604.0129,17870.855 c -95.5362,-654.196 -95.9063,-1813.692 -0.7893,-2472.019 514.7151,-3562.451 3111.5747,-6475.562 6588.3694,-7390.717 782.963,-206.09 1314.602,-269.935 2247.752,-269.935 1209.32,0 2020.294,141.153 3087.699,537.424 2482.491,921.617 4431.871,2895.876 5321.474,5389.389 679.194,1903.748 674.47,4113.226 -12.807,5989.449 -463.768,1266.057 -1141.465,2330.969 -2081.845,3271.35 -1918.985,1918.986 -4516.613,2850.577 -7221.114,2589.722 l 0,0 z"
     id="path3060"
     inkscape:connector-curvature="0" />
  <path
     style="font-size:medium;font-style:normal;font-variant:normal;font-weight:normal;font-stretch:normal;text-indent:0;text-align:start;text-decoration:none;line-height:normal;letter-spacing:normal;word-spacing:normal;text-transform:none;direction:ltr;block-progression:tb;writing-mode:lr-tb;text-anchor:start;baseline-shift:baseline;color:#000000;fill:#000000;fill-opacity:1;stroke:none;stroke-width:373.33334351;marker:none;visibility:visible;display:inline;overflow:visible;enable-background:accumulate;font-family:Sans;-inkscape-font-specification:Sans"
     d="M 1260,0 0,1008 l 0,1512 2520,0 0,-1512 z m 0,720 c 463.9192,0 840,376.0808 840,840 0,463.9192 -376.0808,840 -840,840 -463.91923,0 -840,-376.0808 -840,-840 0,-463.9192 376.08077,-840 840,-840 z m -517.4375,447.0625 c -2.32343,0.011 -4.6325,0.1452 -6.9375,0.4375 l -49.9375,0 0,48.5 c -0.83961,5.6181 -0.83961,11.3507 0,16.9688 l 0,681.1562 0,57.4062 57.4375,0 1033.75,0 57.4375,0 0,-57.4062 0,-681.5 c 0.7703,-5.3857 0.7703,-10.8643 0,-16.25 l 0,-48.875 -50.4063,0 c -4.3584,-0.5016 -8.7665,-0.5016 -13.125,0 l -1021.43745,0 c -2.24365,-0.2849 -4.51965,-0.4189 -6.78125,-0.4375 z m 804.625,126.7187 L 1260,1512 968.65625,1294.8438 z M 1680,1366.25 l 0,456 -840,-2.25 0,-449.75 388.125,300.0937 c 4.6838,3.123 9.8308,5.5559 15.2188,7.1874 5.3878,1.6316 11.0267,2.4688 16.6562,2.4688 5.6295,0 11.2684,-0.8372 16.6562,-2.4688 5.388,-1.6315 10.535,-4.0644 15.2188,-7.1874 z"
     transform="scale(10.666667,10.666667)"
     id="path2999"
     inkscape:connector-curvature="0"
     sodipodi:nodetypes="ccccccsssssccccccccccccccccccccccccccccsccc" />
</svg>
