<?xml version="1.0" encoding="UTF-8" standalone="no"?>
<svg
   xmlns:dc="http://purl.org/dc/elements/1.1/"
   xmlns:cc="http://creativecommons.org/ns#"
   xmlns:rdf="http://www.w3.org/1999/02/22-rdf-syntax-ns#"
   xmlns:svg="http://www.w3.org/2000/svg"
   xmlns="http://www.w3.org/2000/svg"
   xmlns:sodipodi="http://sodipodi.sourceforge.net/DTD/sodipodi-0.dtd"
   xmlns:inkscape="http://www.inkscape.org/namespaces/inkscape"
   width="2520"
   height="2520"
   viewBox="0 0 26880 26880"
   id="svg3064"
   version="1.1"
   inkscape:version="0.48.4 r9939"
   sodipodi:docname="prison.svg">
  <metadata
     id="metadata3072">
    <rdf:RDF>
      <cc:Work
         rdf:about="">
        <dc:format>image/svg+xml</dc:format>
        <dc:type
           rdf:resource="http://purl.org/dc/dcmitype/StillImage" />
        <dc:title />
      </cc:Work>
    </rdf:RDF>
  </metadata>
  <defs
     id="defs3070">
    <inkscape:perspective
       sodipodi:type="inkscape:persp3d"
       inkscape:vp_x="0 : 225.5 : 1"
       inkscape:vp_y="0 : 1000 : 0"
       inkscape:vp_z="301 : 225.5 : 1"
       inkscape:persp3d-origin="150.5 : 150.33333 : 1"
       id="perspective2486" />
    <inkscape:perspective
       id="perspective13"
       inkscape:persp3d-origin="300.5 : 250.33333 : 1"
       inkscape:vp_z="601 : 375.5 : 1"
       inkscape:vp_y="0 : 1000 : 0"
       inkscape:vp_x="0 : 375.5 : 1"
       sodipodi:type="inkscape:persp3d" />
    <inkscape:perspective
       id="perspective9"
       inkscape:persp3d-origin="372.04724 : 350.78739 : 1"
       inkscape:vp_z="744.09448 : 526.18109 : 1"
       inkscape:vp_y="0 : 1000 : 0"
       inkscape:vp_x="0 : 526.18109 : 1"
       sodipodi:type="inkscape:persp3d" />
  </defs>
  <sodipodi:namedview
     pagecolor="#ffffff"
     bordercolor="#666666"
     borderopacity="1"
     objecttolerance="6"
     gridtolerance="6"
     guidetolerance="6"
     inkscape:pageopacity="0"
     inkscape:pageshadow="2"
     inkscape:window-width="1600"
     inkscape:window-height="1147"
     id="namedview3068"
     showgrid="true"
     inkscape:snap-grids="true"
     inkscape:zoom="0.22627417"
     inkscape:cx="1350.1068"
     inkscape:cy="1968.2337"
     inkscape:window-x="0"
     inkscape:window-y="0"
     inkscape:window-maximized="1"
     inkscape:current-layer="g3324"
     showguides="true"
     inkscape:guide-bbox="true"
     inkscape:snap-to-guides="false">
    <inkscape:grid
       type="xygrid"
       id="grid3074"
       empspacing="2"
       visible="true"
       enabled="true"
       snapvisiblegridlinesonly="true"
       dotted="false"
       spacingx="315px"
       spacingy="315px"
       color="#00009b"
       opacity="0.1372549"
       empcolor="#00009b"
       empopacity="0.29411765" />
    <inkscape:grid
       type="xygrid"
       id="grid5379"
       empspacing="3"
       visible="true"
       enabled="true"
       snapvisiblegridlinesonly="true"
       color="#9b0000"
       opacity="0.11764706"
       empcolor="#9b0000"
       empopacity="0.39215686"
       spacingx="280px"
       spacingy="280px" />
    <inkscape:grid
       type="xygrid"
       id="grid5381"
       empspacing="2"
       visible="true"
       enabled="true"
       snapvisiblegridlinesonly="true"
       spacingx="252px"
       spacingy="252px"
       empcolor="#009b00"
       empopacity="0.23529412"
       color="#009b00"
       opacity="0.09803922" />
    <inkscape:grid
       type="xygrid"
       id="grid5383"
       empspacing="2"
       visible="true"
       enabled="true"
       snapvisiblegridlinesonly="true"
       spacingx="180px"
       spacingy="180px"
       color="#009b9b"
       opacity="0.07843137"
       empcolor="#009b9b"
       empopacity="0.15686275" />
    <inkscape:grid
       type="xygrid"
       id="grid3019"
       empspacing="5"
       visible="true"
       enabled="true"
       snapvisiblegridlinesonly="true"
       color="#9b0000"
       opacity="0.09803922"
       empcolor="#0000ff"
       empopacity="0"
       dotted="true"
       spacingx="140px"
       spacingy="140px" />
    <inkscape:grid
       type="xygrid"
       id="grid3013"
       empspacing="5"
       visible="true"
       enabled="false"
       snapvisiblegridlinesonly="true"
       spacingx="210px"
       spacingy="210px"
       color="#ff00ff"
       opacity="0.29411765" />
  </sodipodi:namedview>
  <g
     id="g4212">
    <text
       sodipodi:linespacing="125%"
       id="text2998"
       y="4924.4893"
       x="9930.1055"
       style="font-size:6048.16699219px;font-style:normal;font-variant:normal;font-weight:normal;font-stretch:normal;line-height:125%;letter-spacing:0px;word-spacing:0px;fill:#000000;fill-opacity:1;stroke:none;font-family:Liberation Sans;-inkscape-font-specification:Sans"
       xml:space="preserve"><tspan
         y="4924.4893"
         x="9930.1055"
         id="tspan3000"
         sodipodi:role="line" /></text>
    <g
       id="g4445"
       transform="matrix(10.666667,0,0,10.666667,-20763.958,4280.9699)">
      <g
         id="g3324"
         transform="matrix(4.8314063,0,0,4.8314063,1656.0154,-384.07686)"
         style="fill:#000000;fill-opacity:1">
        <path
           style="font-size:medium;font-style:normal;font-variant:normal;font-weight:normal;font-stretch:normal;text-indent:0;text-align:start;text-decoration:none;line-height:normal;letter-spacing:normal;word-spacing:normal;text-transform:none;direction:ltr;block-progression:tb;writing-mode:lr-tb;text-anchor:start;baseline-shift:baseline;color:#000000;fill:#000000;fill-opacity:1;fill-rule:nonzero;stroke:none;stroke-width:24.83748817;marker:none;visibility:visible;display:inline;overflow:visible;enable-background:accumulate;font-family:Sans;-inkscape-font-specification:Sans"
           d="M -0.46875 2.90625 L -0.46875 2522.9062 L 2519.5312 2522.9062 L 2519.5312 2.90625 L -0.46875 2.90625 z M 279.53125 282.90625 L 2239.5312 282.90625 L 2239.5312 2242.9062 L 279.53125 2242.9062 L 279.53125 282.90625 z M 650.5625 546.90625 L 650.5625 647.71875 L 549.75 647.71875 L 549.75 798.96875 L 650.5625 798.96875 L 650.5625 1000.6562 L 549.75 1000.6562 L 549.75 1151.9062 L 650.5625 1151.9062 L 650.5625 1353.5625 L 549.75 1353.5625 L 549.75 1504.8125 L 650.5625 1504.8125 L 650.5625 1706.5 L 549.75 1706.5 L 549.75 1857.75 L 650.5625 1857.75 L 650.5625 1958.5938 L 801.8125 1958.5938 L 801.8125 1857.75 L 1003.5 1857.75 L 1003.5 1958.5938 L 1154.75 1958.5938 L 1154.75 1857.75 L 1356.4062 1857.75 L 1356.4062 1958.5938 L 1507.6562 1958.5938 L 1507.6562 1857.75 L 1709.3438 1857.75 L 1709.3438 1958.5938 L 1860.5938 1958.5938 L 1860.5938 1857.75 L 1961.4062 1857.75 L 1961.4062 1706.5 L 1860.5938 1706.5 L 1860.5938 1504.8125 L 1961.4062 1504.8125 L 1961.4062 1353.5625 L 1860.5938 1353.5625 L 1860.5938 1151.9062 L 1961.4062 1151.9062 L 1961.4062 1000.6562 L 1860.5938 1000.6562 L 1860.5938 798.96875 L 1961.4062 798.96875 L 1961.4062 647.71875 L 1860.5938 647.71875 L 1860.5938 546.90625 L 1709.3438 546.90625 L 1709.3438 647.71875 L 1507.6562 647.71875 L 1507.6562 546.90625 L 1356.4062 546.90625 L 1356.4062 647.71875 L 1154.75 647.71875 L 1154.75 546.90625 L 1003.5 546.90625 L 1003.5 647.71875 L 801.8125 647.71875 L 801.8125 546.90625 L 650.5625 546.90625 z M 801.8125 798.96875 L 1003.5 798.96875 L 1003.5 1000.6562 L 801.8125 1000.6562 L 801.8125 798.96875 z M 1154.75 798.96875 L 1356.4062 798.96875 L 1356.4062 1000.6562 L 1154.75 1000.6562 L 1154.75 798.96875 z M 1507.6562 798.96875 L 1709.3438 798.96875 L 1709.3438 1000.6562 L 1507.6562 1000.6562 L 1507.6562 798.96875 z M 801.8125 1151.9062 L 1003.5 1151.9062 L 1003.5 1353.5625 L 801.8125 1353.5625 L 801.8125 1151.9062 z M 1154.75 1151.9062 L 1356.4062 1151.9062 L 1356.4062 1353.5625 L 1154.75 1353.5625 L 1154.75 1151.9062 z M 1507.6562 1151.9062 L 1709.3438 1151.9062 L 1709.3438 1353.5625 L 1507.6562 1353.5625 L 1507.6562 1151.9062 z M 801.8125 1504.8125 L 1003.5 1504.8125 L 1003.5 1706.5 L 801.8125 1706.5 L 801.8125 1504.8125 z M 1154.75 1504.8125 L 1356.4062 1504.8125 L 1356.4062 1706.5 L 1154.75 1706.5 L 1154.75 1504.8125 z M 1507.6562 1504.8125 L 1709.3438 1504.8125 L 1709.3438 1706.5 L 1507.6562 1706.5 L 1507.6562 1504.8125 z "
           transform="matrix(0.20697907,0,0,0.20697907,60.149278,-3.5732982)"
           id="path3060" />
        <g
           id="layer1"
           transform="matrix(3.494293,0,0,3.494293,148.03933,-3186.2339)"
           style="stroke:#000000;stroke-opacity:1;stroke-width:7.10801528000000005;stroke-miterlimit:4;stroke-dasharray:none;stroke-linejoin:round;stroke-linecap:butt" />
      </g>
    </g>
  </g>
</svg>
