<?xml version="1.0" encoding="UTF-8" standalone="no"?>
<svg
   xmlns:dc="http://purl.org/dc/elements/1.1/"
   xmlns:cc="http://creativecommons.org/ns#"
   xmlns:rdf="http://www.w3.org/1999/02/22-rdf-syntax-ns#"
   xmlns:svg="http://www.w3.org/2000/svg"
   xmlns="http://www.w3.org/2000/svg"
   xmlns:sodipodi="http://sodipodi.sourceforge.net/DTD/sodipodi-0.dtd"
   xmlns:inkscape="http://www.inkscape.org/namespaces/inkscape"
   width="2520"
   height="2520"
   viewBox="0 0 26880 26880"
   id="svg3064"
   version="1.1"
   inkscape:version="0.48.4 r9939"
   sodipodi:docname="shower.svg">
  <metadata
     id="metadata3072">
    <rdf:RDF>
      <cc:Work
         rdf:about="">
        <dc:format>image/svg+xml</dc:format>
        <dc:type
           rdf:resource="http://purl.org/dc/dcmitype/StillImage" />
        <dc:title></dc:title>
      </cc:Work>
    </rdf:RDF>
  </metadata>
  <defs
     id="defs3070">
    <inkscape:perspective
       sodipodi:type="inkscape:persp3d"
       inkscape:vp_x="0 : 225.5 : 1"
       inkscape:vp_y="0 : 1000 : 0"
       inkscape:vp_z="301 : 225.5 : 1"
       inkscape:persp3d-origin="150.5 : 150.33333 : 1"
       id="perspective2486" />
    <inkscape:perspective
       id="perspective13"
       inkscape:persp3d-origin="300.5 : 250.33333 : 1"
       inkscape:vp_z="601 : 375.5 : 1"
       inkscape:vp_y="0 : 1000 : 0"
       inkscape:vp_x="0 : 375.5 : 1"
       sodipodi:type="inkscape:persp3d" />
    <inkscape:perspective
       id="perspective9"
       inkscape:persp3d-origin="372.04724 : 350.78739 : 1"
       inkscape:vp_z="744.09448 : 526.18109 : 1"
       inkscape:vp_y="0 : 1000 : 0"
       inkscape:vp_x="0 : 526.18109 : 1"
       sodipodi:type="inkscape:persp3d" />
  </defs>
  <sodipodi:namedview
     pagecolor="#ffffff"
     bordercolor="#666666"
     borderopacity="1"
     objecttolerance="6"
     gridtolerance="6"
     guidetolerance="6"
     inkscape:pageopacity="0"
     inkscape:pageshadow="2"
     inkscape:window-width="1600"
     inkscape:window-height="1147"
     id="namedview3068"
     showgrid="true"
     inkscape:snap-grids="true"
     inkscape:zoom="0.17153603"
     inkscape:cx="654.46115"
     inkscape:cy="1799.5835"
     inkscape:window-x="0"
     inkscape:window-y="0"
     inkscape:window-maximized="1"
     inkscape:current-layer="g4445"
     showguides="true"
     inkscape:guide-bbox="true"
     inkscape:snap-to-guides="false">
    <inkscape:grid
       type="xygrid"
       id="grid3074"
       empspacing="2"
       visible="true"
       enabled="true"
       snapvisiblegridlinesonly="true"
       dotted="false"
       spacingx="315px"
       spacingy="315px"
       color="#00009b"
       opacity="0.1372549"
       empcolor="#00009b"
       empopacity="0.29411765" />
    <inkscape:grid
       type="xygrid"
       id="grid5379"
       empspacing="3"
       visible="true"
       enabled="true"
       snapvisiblegridlinesonly="true"
       color="#9b0000"
       opacity="0.11764706"
       empcolor="#9b0000"
       empopacity="0.39215686"
       spacingx="280px"
       spacingy="280px" />
    <inkscape:grid
       type="xygrid"
       id="grid5381"
       empspacing="2"
       visible="true"
       enabled="true"
       snapvisiblegridlinesonly="true"
       spacingx="252px"
       spacingy="252px"
       empcolor="#009b00"
       empopacity="0.23529412"
       color="#009b00"
       opacity="0.09803922" />
    <inkscape:grid
       type="xygrid"
       id="grid5383"
       empspacing="2"
       visible="true"
       enabled="true"
       snapvisiblegridlinesonly="true"
       spacingx="180px"
       spacingy="180px"
       color="#009b9b"
       opacity="0.07843137"
       empcolor="#009b9b"
       empopacity="0.15686275" />
    <inkscape:grid
       type="xygrid"
       id="grid3019"
       empspacing="5"
       visible="true"
       enabled="true"
       snapvisiblegridlinesonly="true"
       color="#9b0000"
       opacity="0.09803922"
       empcolor="#0000ff"
       empopacity="0"
       dotted="true"
       spacingx="140px"
       spacingy="140px" />
    <inkscape:grid
       type="xygrid"
       id="grid3013"
       empspacing="5"
       visible="true"
       enabled="false"
       snapvisiblegridlinesonly="true"
       spacingx="210px"
       spacingy="210px"
       color="#ff00ff"
       opacity="0.29411765" />
  </sodipodi:namedview>
  <g
     id="g4212">
    <text
       sodipodi:linespacing="125%"
       id="text2998"
       y="4924.4893"
       x="9930.1055"
       style="font-size:6048.16699219px;font-style:normal;font-variant:normal;font-weight:normal;font-stretch:normal;line-height:125%;letter-spacing:0px;word-spacing:0px;fill:#000000;fill-opacity:1;stroke:none;font-family:Liberation Sans;-inkscape-font-specification:Sans"
       xml:space="preserve"><tspan
         y="4924.4893"
         x="9930.1055"
         id="tspan3000"
         sodipodi:role="line" /></text>
    <g
       id="g4445"
       transform="matrix(10.666667,0,0,10.666667,-20763.958,4280.9699)">
      <path
         style="font-size:medium;font-style:normal;font-variant:normal;font-weight:normal;font-stretch:normal;text-indent:0;text-align:start;text-decoration:none;line-height:normal;letter-spacing:normal;word-spacing:normal;text-transform:none;direction:ltr;block-progression:tb;writing-mode:lr-tb;text-anchor:start;baseline-shift:baseline;color:#000000;fill:#000000;fill-opacity:1;stroke:none;stroke-width:400;marker:none;visibility:visible;display:inline;overflow:visible;enable-background:accumulate;font-family:Sans;-inkscape-font-specification:Sans"
         d="M 1347.4375 21.53125 C 1113.747 21.53125 915.64915 144.24261 769.65625 297.1875 C 639.65319 433.38123 541.16649 597.86152 521.15625 782.5 C 87.450996 897.45545 87.4375 1388.6562 87.4375 1388.6562 L 1347.4375 1388.6562 C 1347.4375 1388.6562 1347.447 909.82791 930 787.0625 C 950.34357 723.94775 994.81065 640.62095 1059 573.375 C 1149.2572 478.81989 1266.1279 421.53125 1347.4375 421.53125 C 1438.2708 421.53125 1552.4582 473.11446 1639.1562 559.8125 C 1725.8544 646.51054 1777.4375 760.69789 1777.4375 851.53125 L 1777.4375 2525.8438 L 2177.4375 2525.8438 L 2177.4375 851.53125 C 2177.4374 627.36459 2071.552 426.52071 1922 276.96875 C 1772.448 127.41679 1571.6041 21.53124 1347.4375 21.53125 z M 239.15625 1424.9375 L 229.875 1425.3438 L 220.875 1427.4688 L 212.40625 1431.25 L 204.84375 1436.5938 L 198.375 1443.25 L 193.3125 1451 L 189.78125 1459.5625 L 187.9375 1468.6562 L 187.6875 1473.7812 L 187.6875 1571.5625 L 188.5625 1580.7812 L 191.15625 1589.6875 L 195.40625 1597.9375 L 201.09375 1605.2188 L 208.09375 1611.3125 L 216.09375 1615.9688 L 224.84375 1619.0312 L 234 1620.4062 L 243.28125 1620 L 252.28125 1617.875 L 260.75 1614.0938 L 268.3125 1608.75 L 274.78125 1602.0938 L 279.84375 1594.3438 L 283.375 1585.7812 L 285.21875 1576.6875 L 285.46875 1571.5625 L 285.46875 1473.7812 L 284.59375 1464.5312 L 282 1455.6562 L 277.75 1447.4062 L 272.0625 1440.125 L 265.0625 1434.0312 L 257.0625 1429.375 L 248.3125 1426.3125 L 239.15625 1424.9375 z M 401.375 1424.9375 L 392.09375 1425.3438 L 383.09375 1427.4688 L 374.625 1431.25 L 367.0625 1436.5938 L 360.59375 1443.25 L 355.53125 1451 L 352 1459.5625 L 350.15625 1468.6562 L 349.90625 1473.7812 L 349.90625 1571.5625 L 350.78125 1580.7812 L 353.375 1589.6875 L 357.625 1597.9375 L 363.3125 1605.2188 L 370.3125 1611.3125 L 378.3125 1615.9688 L 387.0625 1619.0312 L 396.21875 1620.4062 L 405.5 1620 L 414.5 1617.875 L 422.96875 1614.0938 L 430.53125 1608.75 L 437 1602.0938 L 442.0625 1594.3438 L 445.59375 1585.7812 L 447.4375 1576.6875 L 447.6875 1571.5625 L 447.6875 1473.7812 L 446.8125 1464.5312 L 444.21875 1455.6562 L 439.96875 1447.4062 L 434.28125 1440.125 L 427.28125 1434.0312 L 419.28125 1429.375 L 410.53125 1426.3125 L 401.375 1424.9375 z M 563.59375 1424.9375 L 554.3125 1425.3438 L 545.3125 1427.4688 L 536.84375 1431.25 L 529.25 1436.5938 L 522.8125 1443.25 L 517.75 1451 L 514.21875 1459.5625 L 512.375 1468.6562 L 512.125 1473.7812 L 512.125 1571.5625 L 513 1580.7812 L 515.59375 1589.6875 L 519.8125 1597.9375 L 525.53125 1605.2188 L 532.53125 1611.3125 L 540.53125 1615.9688 L 549.28125 1619.0312 L 558.4375 1620.4062 L 567.6875 1620 L 576.71875 1617.875 L 585.1875 1614.0938 L 592.75 1608.75 L 599.21875 1602.0938 L 604.28125 1594.3438 L 607.8125 1585.7812 L 609.625 1576.6875 L 609.90625 1571.5625 L 609.90625 1473.7812 L 609.03125 1464.5312 L 606.4375 1455.6562 L 602.1875 1447.4062 L 596.46875 1440.125 L 589.5 1434.0312 L 581.5 1429.375 L 572.75 1426.3125 L 563.59375 1424.9375 z M 725.78125 1424.9375 L 716.53125 1425.3438 L 707.53125 1427.4688 L 699.0625 1431.25 L 691.46875 1436.5938 L 685.03125 1443.25 L 679.96875 1451 L 676.4375 1459.5625 L 674.59375 1468.6562 L 674.34375 1473.7812 L 674.34375 1571.5625 L 675.21875 1580.7812 L 677.8125 1589.6875 L 682.03125 1597.9375 L 687.75 1605.2188 L 694.75 1611.3125 L 702.75 1615.9688 L 711.5 1619.0312 L 720.65625 1620.4062 L 729.90625 1620 L 738.9375 1617.875 L 747.375 1614.0938 L 754.96875 1608.75 L 761.40625 1602.0938 L 766.5 1594.3438 L 770 1585.7812 L 771.84375 1576.6875 L 772.125 1571.5625 L 772.125 1473.7812 L 771.25 1464.5312 L 768.65625 1455.6562 L 764.40625 1447.4062 L 758.6875 1440.125 L 751.71875 1434.0312 L 743.71875 1429.375 L 734.96875 1426.3125 L 725.78125 1424.9375 z M 888 1424.9375 L 878.75 1425.3438 L 869.75 1427.4688 L 861.28125 1431.25 L 853.6875 1436.5938 L 847.25 1443.25 L 842.1875 1451 L 838.65625 1459.5625 L 836.8125 1468.6562 L 836.53125 1473.7812 L 836.53125 1571.5625 L 837.4375 1580.7812 L 840.03125 1589.6875 L 844.25 1597.9375 L 849.96875 1605.2188 L 856.96875 1611.3125 L 864.96875 1615.9688 L 873.71875 1619.0312 L 882.875 1620.4062 L 892.125 1620 L 901.15625 1617.875 L 909.59375 1614.0938 L 917.1875 1608.75 L 923.625 1602.0938 L 928.71875 1594.3438 L 932.21875 1585.7812 L 934.0625 1576.6875 L 934.34375 1571.5625 L 934.34375 1473.7812 L 933.46875 1464.5312 L 930.875 1455.6562 L 926.625 1447.4062 L 920.90625 1440.125 L 913.9375 1434.0312 L 905.90625 1429.375 L 897.1875 1426.3125 L 888 1424.9375 z M 1050.2188 1424.9375 L 1040.9688 1425.3438 L 1031.9375 1427.4688 L 1023.5 1431.25 L 1015.9062 1436.5938 L 1009.4688 1443.25 L 1004.4062 1451 L 1000.875 1459.5625 L 999.03125 1468.6562 L 998.75 1473.7812 L 998.75 1571.5625 L 999.625 1580.7812 L 1002.25 1589.6875 L 1006.4688 1597.9375 L 1012.1875 1605.2188 L 1019.1875 1611.3125 L 1027.1875 1615.9688 L 1035.9375 1619.0312 L 1045.0938 1620.4062 L 1054.3438 1620 L 1063.375 1617.875 L 1071.8125 1614.0938 L 1079.4062 1608.75 L 1085.8438 1602.0938 L 1090.9375 1594.3438 L 1094.4375 1585.7812 L 1096.2812 1576.6875 L 1096.5625 1571.5625 L 1096.5625 1473.7812 L 1095.6875 1464.5312 L 1093.0625 1455.6562 L 1088.8438 1447.4062 L 1083.125 1440.125 L 1076.1562 1434.0312 L 1068.125 1429.375 L 1059.4062 1426.3125 L 1050.2188 1424.9375 z M 1212.4375 1424.9375 L 1203.1875 1425.3438 L 1194.1562 1427.4688 L 1185.7188 1431.25 L 1178.125 1436.5938 L 1171.6875 1443.25 L 1166.5938 1451 L 1163.0938 1459.5625 L 1161.25 1468.6562 L 1160.9688 1473.7812 L 1160.9688 1571.5625 L 1161.8438 1580.7812 L 1164.4688 1589.6875 L 1168.6875 1597.9375 L 1174.4062 1605.2188 L 1181.375 1611.3125 L 1189.4062 1615.9688 L 1198.1562 1619.0312 L 1207.3125 1620.4062 L 1216.5625 1620 L 1225.5938 1617.875 L 1234.0312 1614.0938 L 1241.625 1608.75 L 1248.0625 1602.0938 L 1253.1562 1594.3438 L 1256.6562 1585.7812 L 1258.5 1576.6875 L 1258.7812 1571.5625 L 1258.7812 1473.7812 L 1257.9062 1464.5312 L 1255.2812 1455.6562 L 1251.0625 1447.4062 L 1245.3438 1440.125 L 1238.375 1434.0312 L 1230.3438 1429.375 L 1221.5938 1426.3125 L 1212.4375 1424.9375 z M 239.15625 1718.3438 L 229.875 1718.7188 L 220.875 1720.8438 L 212.40625 1724.6562 L 204.84375 1729.9688 L 198.375 1736.625 L 193.3125 1744.375 L 189.78125 1752.9375 L 187.9375 1762.0312 L 187.6875 1767.1562 L 187.6875 1864.9688 L 188.5625 1874.1875 L 191.15625 1883.0625 L 195.40625 1891.3125 L 201.09375 1898.625 L 208.09375 1904.6875 L 216.09375 1909.375 L 224.84375 1912.4375 L 234 1913.7812 L 243.28125 1913.4062 L 252.28125 1911.25 L 260.75 1907.4688 L 268.3125 1902.1562 L 274.78125 1895.5 L 279.84375 1887.75 L 283.375 1879.1562 L 285.21875 1870.0938 L 285.46875 1864.9688 L 285.46875 1767.1562 L 284.59375 1757.9375 L 282 1749.0312 L 277.75 1740.8125 L 272.0625 1733.5 L 265.0625 1727.4062 L 257.0625 1722.75 L 248.3125 1719.6875 L 239.15625 1718.3438 z M 401.375 1718.3438 L 392.09375 1718.7188 L 383.09375 1720.8438 L 374.625 1724.6562 L 367.0625 1729.9688 L 360.59375 1736.625 L 355.53125 1744.375 L 352 1752.9375 L 350.15625 1762.0312 L 349.90625 1767.1562 L 349.90625 1864.9688 L 350.78125 1874.1875 L 353.375 1883.0625 L 357.625 1891.3125 L 363.3125 1898.625 L 370.3125 1904.6875 L 378.3125 1909.375 L 387.0625 1912.4375 L 396.21875 1913.7812 L 405.5 1913.4062 L 414.5 1911.25 L 422.96875 1907.4688 L 430.53125 1902.1562 L 437 1895.5 L 442.0625 1887.75 L 445.59375 1879.1562 L 447.4375 1870.0938 L 447.6875 1864.9688 L 447.6875 1767.1562 L 446.8125 1757.9375 L 444.21875 1749.0312 L 439.96875 1740.8125 L 434.28125 1733.5 L 427.28125 1727.4062 L 419.28125 1722.75 L 410.53125 1719.6875 L 401.375 1718.3438 z M 563.59375 1718.3438 L 554.3125 1718.7188 L 545.3125 1720.8438 L 536.84375 1724.6562 L 529.25 1729.9688 L 522.8125 1736.625 L 517.75 1744.375 L 514.21875 1752.9375 L 512.375 1762.0312 L 512.125 1767.1562 L 512.125 1864.9688 L 513 1874.1875 L 515.59375 1883.0625 L 519.8125 1891.3125 L 525.53125 1898.625 L 532.53125 1904.6875 L 540.53125 1909.375 L 549.28125 1912.4375 L 558.4375 1913.7812 L 567.6875 1913.4062 L 576.71875 1911.25 L 585.1875 1907.4688 L 592.75 1902.1562 L 599.21875 1895.5 L 604.28125 1887.75 L 607.8125 1879.1562 L 609.625 1870.0938 L 609.90625 1864.9688 L 609.90625 1767.1562 L 609.03125 1757.9375 L 606.4375 1749.0312 L 602.1875 1740.8125 L 596.46875 1733.5 L 589.5 1727.4062 L 581.5 1722.75 L 572.75 1719.6875 L 563.59375 1718.3438 z M 725.78125 1718.3438 L 716.53125 1718.7188 L 707.53125 1720.8438 L 699.0625 1724.6562 L 691.46875 1729.9688 L 685.03125 1736.625 L 679.96875 1744.375 L 676.4375 1752.9375 L 674.59375 1762.0312 L 674.34375 1767.1562 L 674.34375 1864.9688 L 675.21875 1874.1875 L 677.8125 1883.0625 L 682.03125 1891.3125 L 687.75 1898.625 L 694.75 1904.6875 L 702.75 1909.375 L 711.5 1912.4375 L 720.65625 1913.7812 L 729.90625 1913.4062 L 738.9375 1911.25 L 747.375 1907.4688 L 754.96875 1902.1562 L 761.40625 1895.5 L 766.5 1887.75 L 770 1879.1562 L 771.84375 1870.0938 L 772.125 1864.9688 L 772.125 1767.1562 L 771.25 1757.9375 L 768.65625 1749.0312 L 764.40625 1740.8125 L 758.6875 1733.5 L 751.71875 1727.4062 L 743.71875 1722.75 L 734.96875 1719.6875 L 725.78125 1718.3438 z M 888 1718.3438 L 878.75 1718.7188 L 869.75 1720.8438 L 861.28125 1724.6562 L 853.6875 1729.9688 L 847.25 1736.625 L 842.1875 1744.375 L 838.65625 1752.9375 L 836.8125 1762.0312 L 836.53125 1767.1562 L 836.53125 1864.9688 L 837.4375 1874.1875 L 840.03125 1883.0625 L 844.25 1891.3125 L 849.96875 1898.625 L 856.96875 1904.6875 L 864.96875 1909.375 L 873.71875 1912.4375 L 882.875 1913.7812 L 892.125 1913.4062 L 901.15625 1911.25 L 909.59375 1907.4688 L 917.1875 1902.1562 L 923.625 1895.5 L 928.71875 1887.75 L 932.21875 1879.1562 L 934.0625 1870.0938 L 934.34375 1864.9688 L 934.34375 1767.1562 L 933.46875 1757.9375 L 930.875 1749.0312 L 926.625 1740.8125 L 920.90625 1733.5 L 913.9375 1727.4062 L 905.90625 1722.75 L 897.1875 1719.6875 L 888 1718.3438 z M 1050.2188 1718.3438 L 1040.9688 1718.7188 L 1031.9375 1720.8438 L 1023.5 1724.6562 L 1015.9062 1729.9688 L 1009.4688 1736.625 L 1004.4062 1744.375 L 1000.875 1752.9375 L 999.03125 1762.0312 L 998.75 1767.1562 L 998.75 1864.9688 L 999.625 1874.1875 L 1002.25 1883.0625 L 1006.4688 1891.3125 L 1012.1875 1898.625 L 1019.1875 1904.6875 L 1027.1875 1909.375 L 1035.9375 1912.4375 L 1045.0938 1913.7812 L 1054.3438 1913.4062 L 1063.375 1911.25 L 1071.8125 1907.4688 L 1079.4062 1902.1562 L 1085.8438 1895.5 L 1090.9375 1887.75 L 1094.4375 1879.1562 L 1096.2812 1870.0938 L 1096.5625 1864.9688 L 1096.5625 1767.1562 L 1095.6875 1757.9375 L 1093.0625 1749.0312 L 1088.8438 1740.8125 L 1083.125 1733.5 L 1076.1562 1727.4062 L 1068.125 1722.75 L 1059.4062 1719.6875 L 1050.2188 1718.3438 z M 1212.4375 1718.3438 L 1203.1875 1718.7188 L 1194.1562 1720.8438 L 1185.7188 1724.6562 L 1178.125 1729.9688 L 1171.6875 1736.625 L 1166.5938 1744.375 L 1163.0938 1752.9375 L 1161.25 1762.0312 L 1160.9688 1767.1562 L 1160.9688 1864.9688 L 1161.8438 1874.1875 L 1164.4688 1883.0625 L 1168.6875 1891.3125 L 1174.4062 1898.625 L 1181.375 1904.6875 L 1189.4062 1909.375 L 1198.1562 1912.4375 L 1207.3125 1913.7812 L 1216.5625 1913.4062 L 1225.5938 1911.25 L 1234.0312 1907.4688 L 1241.625 1902.1562 L 1248.0625 1895.5 L 1253.1562 1887.75 L 1256.6562 1879.1562 L 1258.5 1870.0938 L 1258.7812 1864.9688 L 1258.7812 1767.1562 L 1257.9062 1757.9375 L 1255.2812 1749.0312 L 1251.0625 1740.8125 L 1245.3438 1733.5 L 1238.375 1727.4062 L 1230.3438 1722.75 L 1221.5938 1719.6875 L 1212.4375 1718.3438 z M 239.15625 2011.7188 L 229.875 2012.125 L 220.875 2014.25 L 212.40625 2018.0312 L 204.84375 2023.375 L 198.375 2030.0312 L 193.3125 2037.7812 L 189.78125 2046.3438 L 187.9375 2055.4375 L 187.6875 2060.5625 L 187.6875 2158.3438 L 188.5625 2167.5625 L 191.15625 2176.4688 L 195.40625 2184.7188 L 201.09375 2192 L 208.09375 2198.0938 L 216.09375 2202.75 L 224.84375 2205.8125 L 234 2207.1875 L 243.28125 2206.7812 L 252.28125 2204.6562 L 260.75 2200.875 L 268.3125 2195.5312 L 274.78125 2188.875 L 279.84375 2181.125 L 283.375 2172.5625 L 285.21875 2163.4688 L 285.46875 2158.3438 L 285.46875 2060.5625 L 284.59375 2051.3125 L 282 2042.4375 L 277.75 2034.1875 L 272.0625 2026.9062 L 265.0625 2020.8125 L 257.0625 2016.1562 L 248.3125 2013.0938 L 239.15625 2011.7188 z M 401.375 2011.7188 L 392.09375 2012.125 L 383.09375 2014.25 L 374.625 2018.0312 L 367.0625 2023.375 L 360.59375 2030.0312 L 355.53125 2037.7812 L 352 2046.3438 L 350.15625 2055.4375 L 349.90625 2060.5625 L 349.90625 2158.3438 L 350.78125 2167.5625 L 353.375 2176.4688 L 357.625 2184.7188 L 363.3125 2192 L 370.3125 2198.0938 L 378.3125 2202.75 L 387.0625 2205.8125 L 396.21875 2207.1875 L 405.5 2206.7812 L 414.5 2204.6562 L 422.96875 2200.875 L 430.53125 2195.5312 L 437 2188.875 L 442.0625 2181.125 L 445.59375 2172.5625 L 447.4375 2163.4688 L 447.6875 2158.3438 L 447.6875 2060.5625 L 446.8125 2051.3125 L 444.21875 2042.4375 L 439.96875 2034.1875 L 434.28125 2026.9062 L 427.28125 2020.8125 L 419.28125 2016.1562 L 410.53125 2013.0938 L 401.375 2011.7188 z M 563.59375 2011.7188 L 554.3125 2012.125 L 545.3125 2014.25 L 536.84375 2018.0312 L 529.25 2023.375 L 522.8125 2030.0312 L 517.75 2037.7812 L 514.21875 2046.3438 L 512.375 2055.4375 L 512.125 2060.5625 L 512.125 2158.3438 L 513 2167.5625 L 515.59375 2176.4688 L 519.8125 2184.7188 L 525.53125 2192 L 532.53125 2198.0938 L 540.53125 2202.75 L 549.28125 2205.8125 L 558.4375 2207.1875 L 567.6875 2206.7812 L 576.71875 2204.6562 L 585.1875 2200.875 L 592.75 2195.5312 L 599.21875 2188.875 L 604.28125 2181.125 L 607.8125 2172.5625 L 609.625 2163.4688 L 609.90625 2158.3438 L 609.90625 2060.5625 L 609.03125 2051.3125 L 606.4375 2042.4375 L 602.1875 2034.1875 L 596.46875 2026.9062 L 589.5 2020.8125 L 581.5 2016.1562 L 572.75 2013.0938 L 563.59375 2011.7188 z M 725.78125 2011.7188 L 716.53125 2012.125 L 707.53125 2014.25 L 699.0625 2018.0312 L 691.46875 2023.375 L 685.03125 2030.0312 L 679.96875 2037.7812 L 676.4375 2046.3438 L 674.59375 2055.4375 L 674.34375 2060.5625 L 674.34375 2158.3438 L 675.21875 2167.5625 L 677.8125 2176.4688 L 682.03125 2184.7188 L 687.75 2192 L 694.75 2198.0938 L 702.75 2202.75 L 711.5 2205.8125 L 720.65625 2207.1875 L 729.90625 2206.7812 L 738.9375 2204.6562 L 747.375 2200.875 L 754.96875 2195.5312 L 761.40625 2188.875 L 766.5 2181.125 L 770 2172.5625 L 771.84375 2163.4688 L 772.125 2158.3438 L 772.125 2060.5625 L 771.25 2051.3125 L 768.65625 2042.4375 L 764.40625 2034.1875 L 758.6875 2026.9062 L 751.71875 2020.8125 L 743.71875 2016.1562 L 734.96875 2013.0938 L 725.78125 2011.7188 z M 888 2011.7188 L 878.75 2012.125 L 869.75 2014.25 L 861.28125 2018.0312 L 853.6875 2023.375 L 847.25 2030.0312 L 842.1875 2037.7812 L 838.65625 2046.3438 L 836.8125 2055.4375 L 836.53125 2060.5625 L 836.53125 2158.3438 L 837.4375 2167.5625 L 840.03125 2176.4688 L 844.25 2184.7188 L 849.96875 2192 L 856.96875 2198.0938 L 864.96875 2202.75 L 873.71875 2205.8125 L 882.875 2207.1875 L 892.125 2206.7812 L 901.15625 2204.6562 L 909.59375 2200.875 L 917.1875 2195.5312 L 923.625 2188.875 L 928.71875 2181.125 L 932.21875 2172.5625 L 934.0625 2163.4688 L 934.34375 2158.3438 L 934.34375 2060.5625 L 933.46875 2051.3125 L 930.875 2042.4375 L 926.625 2034.1875 L 920.90625 2026.9062 L 913.9375 2020.8125 L 905.90625 2016.1562 L 897.1875 2013.0938 L 888 2011.7188 z M 1050.2188 2011.7188 L 1040.9688 2012.125 L 1031.9375 2014.25 L 1023.5 2018.0312 L 1015.9062 2023.375 L 1009.4688 2030.0312 L 1004.4062 2037.7812 L 1000.875 2046.3438 L 999.03125 2055.4375 L 998.75 2060.5625 L 998.75 2158.3438 L 999.625 2167.5625 L 1002.25 2176.4688 L 1006.4688 2184.7188 L 1012.1875 2192 L 1019.1875 2198.0938 L 1027.1875 2202.75 L 1035.9375 2205.8125 L 1045.0938 2207.1875 L 1054.3438 2206.7812 L 1063.375 2204.6562 L 1071.8125 2200.875 L 1079.4062 2195.5312 L 1085.8438 2188.875 L 1090.9375 2181.125 L 1094.4375 2172.5625 L 1096.2812 2163.4688 L 1096.5625 2158.3438 L 1096.5625 2060.5625 L 1095.6875 2051.3125 L 1093.0625 2042.4375 L 1088.8438 2034.1875 L 1083.125 2026.9062 L 1076.1562 2020.8125 L 1068.125 2016.1562 L 1059.4062 2013.0938 L 1050.2188 2011.7188 z M 1212.4375 2011.7188 L 1203.1875 2012.125 L 1194.1562 2014.25 L 1185.7188 2018.0312 L 1178.125 2023.375 L 1171.6875 2030.0312 L 1166.5938 2037.7812 L 1163.0938 2046.3438 L 1161.25 2055.4375 L 1160.9688 2060.5625 L 1160.9688 2158.3438 L 1161.8438 2167.5625 L 1164.4688 2176.4688 L 1168.6875 2184.7188 L 1174.4062 2192 L 1181.375 2198.0938 L 1189.4062 2202.75 L 1198.1562 2205.8125 L 1207.3125 2207.1875 L 1216.5625 2206.7812 L 1225.5938 2204.6562 L 1234.0312 2200.875 L 1241.625 2195.5312 L 1248.0625 2188.875 L 1253.1562 2181.125 L 1256.6562 2172.5625 L 1258.5 2163.4688 L 1258.7812 2158.3438 L 1258.7812 2060.5625 L 1257.9062 2051.3125 L 1255.2812 2042.4375 L 1251.0625 2034.1875 L 1245.3438 2026.9062 L 1238.375 2020.8125 L 1230.3438 2016.1562 L 1221.5938 2013.0938 L 1212.4375 2011.7188 z M 239.15625 2305.125 L 229.875 2305.5 L 220.875 2307.625 L 212.40625 2311.4375 L 204.84375 2316.75 L 198.375 2323.4062 L 193.3125 2331.1562 L 189.78125 2339.75 L 187.9375 2348.8125 L 187.6875 2353.9375 L 187.6875 2451.75 L 188.5625 2460.9688 L 191.15625 2469.8438 L 195.40625 2478.0938 L 201.09375 2485.4062 L 208.09375 2491.5 L 216.09375 2496.1562 L 224.84375 2499.2188 L 234 2500.5625 L 243.28125 2500.1875 L 252.28125 2498.0625 L 260.75 2494.25 L 268.3125 2488.9375 L 274.78125 2482.2812 L 279.84375 2474.5312 L 283.375 2465.9375 L 285.21875 2456.875 L 285.46875 2451.75 L 285.46875 2353.9375 L 284.59375 2344.7188 L 282 2335.8125 L 277.75 2327.5938 L 272.0625 2320.2812 L 265.0625 2314.1875 L 257.0625 2309.5312 L 248.3125 2306.4688 L 239.15625 2305.125 z M 401.375 2305.125 L 392.09375 2305.5 L 383.09375 2307.625 L 374.625 2311.4375 L 367.0625 2316.75 L 360.59375 2323.4062 L 355.53125 2331.1562 L 352 2339.75 L 350.15625 2348.8125 L 349.90625 2353.9375 L 349.90625 2451.75 L 350.78125 2460.9688 L 353.375 2469.8438 L 357.625 2478.0938 L 363.3125 2485.4062 L 370.3125 2491.5 L 378.3125 2496.1562 L 387.0625 2499.2188 L 396.21875 2500.5625 L 405.5 2500.1875 L 414.5 2498.0625 L 422.96875 2494.25 L 430.53125 2488.9375 L 437 2482.2812 L 442.0625 2474.5312 L 445.59375 2465.9375 L 447.4375 2456.875 L 447.6875 2451.75 L 447.6875 2353.9375 L 446.8125 2344.7188 L 444.21875 2335.8125 L 439.96875 2327.5938 L 434.28125 2320.2812 L 427.28125 2314.1875 L 419.28125 2309.5312 L 410.53125 2306.4688 L 401.375 2305.125 z M 563.59375 2305.125 L 554.3125 2305.5 L 545.3125 2307.625 L 536.84375 2311.4375 L 529.25 2316.75 L 522.8125 2323.4062 L 517.75 2331.1562 L 514.21875 2339.75 L 512.375 2348.8125 L 512.125 2353.9375 L 512.125 2451.75 L 513 2460.9688 L 515.59375 2469.8438 L 519.8125 2478.0938 L 525.53125 2485.4062 L 532.53125 2491.5 L 540.53125 2496.1562 L 549.28125 2499.2188 L 558.4375 2500.5625 L 567.6875 2500.1875 L 576.71875 2498.0625 L 585.1875 2494.25 L 592.75 2488.9375 L 599.21875 2482.2812 L 604.28125 2474.5312 L 607.8125 2465.9375 L 609.625 2456.875 L 609.90625 2451.75 L 609.90625 2353.9375 L 609.03125 2344.7188 L 606.4375 2335.8125 L 602.1875 2327.5938 L 596.46875 2320.2812 L 589.5 2314.1875 L 581.5 2309.5312 L 572.75 2306.4688 L 563.59375 2305.125 z M 725.78125 2305.125 L 716.53125 2305.5 L 707.53125 2307.625 L 699.0625 2311.4375 L 691.46875 2316.75 L 685.03125 2323.4062 L 679.96875 2331.1562 L 676.4375 2339.75 L 674.59375 2348.8125 L 674.34375 2353.9375 L 674.34375 2451.75 L 675.21875 2460.9688 L 677.8125 2469.8438 L 682.03125 2478.0938 L 687.75 2485.4062 L 694.75 2491.5 L 702.75 2496.1562 L 711.5 2499.2188 L 720.65625 2500.5625 L 729.90625 2500.1875 L 738.9375 2498.0625 L 747.375 2494.25 L 754.96875 2488.9375 L 761.40625 2482.2812 L 766.5 2474.5312 L 770 2465.9375 L 771.84375 2456.875 L 772.125 2451.75 L 772.125 2353.9375 L 771.25 2344.7188 L 768.65625 2335.8125 L 764.40625 2327.5938 L 758.6875 2320.2812 L 751.71875 2314.1875 L 743.71875 2309.5312 L 734.96875 2306.4688 L 725.78125 2305.125 z M 888 2305.125 L 878.75 2305.5 L 869.75 2307.625 L 861.28125 2311.4375 L 853.6875 2316.75 L 847.25 2323.4062 L 842.1875 2331.1562 L 838.65625 2339.75 L 836.8125 2348.8125 L 836.53125 2353.9375 L 836.53125 2451.75 L 837.4375 2460.9688 L 840.03125 2469.8438 L 844.25 2478.0938 L 849.96875 2485.4062 L 856.96875 2491.5 L 864.96875 2496.1562 L 873.71875 2499.2188 L 882.875 2500.5625 L 892.125 2500.1875 L 901.15625 2498.0625 L 909.59375 2494.25 L 917.1875 2488.9375 L 923.625 2482.2812 L 928.71875 2474.5312 L 932.21875 2465.9375 L 934.0625 2456.875 L 934.34375 2451.75 L 934.34375 2353.9375 L 933.46875 2344.7188 L 930.875 2335.8125 L 926.625 2327.5938 L 920.90625 2320.2812 L 913.9375 2314.1875 L 905.90625 2309.5312 L 897.1875 2306.4688 L 888 2305.125 z M 1050.2188 2305.125 L 1040.9688 2305.5 L 1031.9375 2307.625 L 1023.5 2311.4375 L 1015.9062 2316.75 L 1009.4688 2323.4062 L 1004.4062 2331.1562 L 1000.875 2339.75 L 999.03125 2348.8125 L 998.75 2353.9375 L 998.75 2451.75 L 999.625 2460.9688 L 1002.25 2469.8438 L 1006.4688 2478.0938 L 1012.1875 2485.4062 L 1019.1875 2491.5 L 1027.1875 2496.1562 L 1035.9375 2499.2188 L 1045.0938 2500.5625 L 1054.3438 2500.1875 L 1063.375 2498.0625 L 1071.8125 2494.25 L 1079.4062 2488.9375 L 1085.8438 2482.2812 L 1090.9375 2474.5312 L 1094.4375 2465.9375 L 1096.2812 2456.875 L 1096.5625 2451.75 L 1096.5625 2353.9375 L 1095.6875 2344.7188 L 1093.0625 2335.8125 L 1088.8438 2327.5938 L 1083.125 2320.2812 L 1076.1562 2314.1875 L 1068.125 2309.5312 L 1059.4062 2306.4688 L 1050.2188 2305.125 z M 1212.4375 2305.125 L 1203.1875 2305.5 L 1194.1562 2307.625 L 1185.7188 2311.4375 L 1178.125 2316.75 L 1171.6875 2323.4062 L 1166.5938 2331.1562 L 1163.0938 2339.75 L 1161.25 2348.8125 L 1160.9688 2353.9375 L 1160.9688 2451.75 L 1161.8438 2460.9688 L 1164.4688 2469.8438 L 1168.6875 2478.0938 L 1174.4062 2485.4062 L 1181.375 2491.5 L 1189.4062 2496.1562 L 1198.1562 2499.2188 L 1207.3125 2500.5625 L 1216.5625 2500.1875 L 1225.5938 2498.0625 L 1234.0312 2494.25 L 1241.625 2488.9375 L 1248.0625 2482.2812 L 1253.1562 2474.5312 L 1256.6562 2465.9375 L 1258.5 2456.875 L 1258.7812 2451.75 L 1258.7812 2353.9375 L 1257.9062 2344.7188 L 1255.2812 2335.8125 L 1251.0625 2327.5938 L 1245.3438 2320.2812 L 1238.375 2314.1875 L 1230.3438 2309.5312 L 1221.5938 2306.4688 L 1212.4375 2305.125 z "
         transform="translate(1946.621,-401.34092)"
         id="path4811" />
    </g>
  </g>
</svg>
