<?xml version="1.0" encoding="UTF-8" standalone="no"?>
<svg
   xmlns:dc="http://purl.org/dc/elements/1.1/"
   xmlns:cc="http://creativecommons.org/ns#"
   xmlns:rdf="http://www.w3.org/1999/02/22-rdf-syntax-ns#"
   xmlns:svg="http://www.w3.org/2000/svg"
   xmlns="http://www.w3.org/2000/svg"
   xmlns:sodipodi="http://sodipodi.sourceforge.net/DTD/sodipodi-0.dtd"
   xmlns:inkscape="http://www.inkscape.org/namespaces/inkscape"
   width="2520"
   height="2520"
   viewBox="0 0 26880 26880"
   id="svg3064"
   version="1.1"
   inkscape:version="0.48.4 r9939"
   sodipodi:docname="marketplace.svg">
  <metadata
     id="metadata3072">
    <rdf:RDF>
      <cc:Work
         rdf:about="">
        <dc:format>image/svg+xml</dc:format>
        <dc:type
           rdf:resource="http://purl.org/dc/dcmitype/StillImage" />
        <dc:title></dc:title>
      </cc:Work>
    </rdf:RDF>
  </metadata>
  <defs
     id="defs3070">
    <inkscape:perspective
       sodipodi:type="inkscape:persp3d"
       inkscape:vp_x="0 : 225.5 : 1"
       inkscape:vp_y="0 : 1000 : 0"
       inkscape:vp_z="301 : 225.5 : 1"
       inkscape:persp3d-origin="150.5 : 150.33333 : 1"
       id="perspective2486" />
    <inkscape:perspective
       id="perspective13"
       inkscape:persp3d-origin="300.5 : 250.33333 : 1"
       inkscape:vp_z="601 : 375.5 : 1"
       inkscape:vp_y="0 : 1000 : 0"
       inkscape:vp_x="0 : 375.5 : 1"
       sodipodi:type="inkscape:persp3d" />
    <inkscape:perspective
       id="perspective9"
       inkscape:persp3d-origin="372.04724 : 350.78739 : 1"
       inkscape:vp_z="744.09448 : 526.18109 : 1"
       inkscape:vp_y="0 : 1000 : 0"
       inkscape:vp_x="0 : 526.18109 : 1"
       sodipodi:type="inkscape:persp3d" />
  </defs>
  <sodipodi:namedview
     pagecolor="#ffffff"
     bordercolor="#666666"
     borderopacity="1"
     objecttolerance="6"
     gridtolerance="6"
     guidetolerance="6"
     inkscape:pageopacity="0"
     inkscape:pageshadow="2"
     inkscape:window-width="1600"
     inkscape:window-height="1147"
     id="namedview3068"
     showgrid="true"
     inkscape:snap-grids="true"
     inkscape:zoom="0.16"
     inkscape:cx="-492.6776"
     inkscape:cy="967.71411"
     inkscape:window-x="0"
     inkscape:window-y="0"
     inkscape:window-maximized="1"
     inkscape:current-layer="g3324"
     showguides="true"
     inkscape:guide-bbox="true"
     inkscape:snap-to-guides="false">
    <inkscape:grid
       type="xygrid"
       id="grid3074"
       empspacing="2"
       visible="true"
       enabled="true"
       snapvisiblegridlinesonly="true"
       dotted="false"
       spacingx="315px"
       spacingy="315px"
       color="#00009b"
       opacity="0.1372549"
       empcolor="#00009b"
       empopacity="0.29411765" />
    <inkscape:grid
       type="xygrid"
       id="grid5379"
       empspacing="3"
       visible="true"
       enabled="true"
       snapvisiblegridlinesonly="true"
       color="#9b0000"
       opacity="0.11764706"
       empcolor="#9b0000"
       empopacity="0.39215686"
       spacingx="280px"
       spacingy="280px" />
    <inkscape:grid
       type="xygrid"
       id="grid5381"
       empspacing="2"
       visible="true"
       enabled="true"
       snapvisiblegridlinesonly="true"
       spacingx="252px"
       spacingy="252px"
       empcolor="#009b00"
       empopacity="0.23529412"
       color="#009b00"
       opacity="0.09803922" />
    <inkscape:grid
       type="xygrid"
       id="grid5383"
       empspacing="2"
       visible="true"
       enabled="true"
       snapvisiblegridlinesonly="true"
       spacingx="180px"
       spacingy="180px"
       color="#009b9b"
       opacity="0.07843137"
       empcolor="#009b9b"
       empopacity="0.15686275" />
    <inkscape:grid
       type="xygrid"
       id="grid3019"
       empspacing="5"
       visible="true"
       enabled="true"
       snapvisiblegridlinesonly="true"
       color="#9b0000"
       opacity="0.09803922"
       empcolor="#0000ff"
       empopacity="0"
       dotted="true"
       spacingx="140px"
       spacingy="140px" />
    <inkscape:grid
       type="xygrid"
       id="grid3013"
       empspacing="5"
       visible="true"
       enabled="false"
       snapvisiblegridlinesonly="true"
       spacingx="210px"
       spacingy="210px"
       color="#ff00ff"
       opacity="0.29411765" />
  </sodipodi:namedview>
  <g
     id="g4212">
    <text
       sodipodi:linespacing="125%"
       id="text2998"
       y="4924.4893"
       x="9930.1055"
       style="font-size:6048.16699219px;font-style:normal;font-variant:normal;font-weight:normal;font-stretch:normal;line-height:125%;letter-spacing:0px;word-spacing:0px;fill:#000000;fill-opacity:1;stroke:none;font-family:Liberation Sans;-inkscape-font-specification:Sans"
       xml:space="preserve"><tspan
         y="4924.4893"
         x="9930.1055"
         id="tspan3000"
         sodipodi:role="line" /></text>
    <g
       id="g4445"
       transform="matrix(10.666667,0,0,10.666667,-20763.958,4280.9699)">
      <g
         id="g3324"
         transform="matrix(4.8314063,0,0,4.8314063,1656.0154,-384.07686)"
         style="fill:#000000;fill-opacity:1">
        <path
           style="font-size:medium;font-style:normal;font-variant:normal;font-weight:normal;font-stretch:normal;text-indent:0;text-align:start;text-decoration:none;line-height:normal;letter-spacing:normal;word-spacing:normal;text-transform:none;direction:ltr;block-progression:tb;writing-mode:lr-tb;text-anchor:start;baseline-shift:baseline;color:#000000;fill:#000000;fill-opacity:1;stroke:none;stroke-width:32.75748825;marker:none;visibility:visible;display:inline;overflow:visible;enable-background:accumulate;font-family:Sans;-inkscape-font-specification:Sans"
           d="m 566.72409,29.342842 a 16.380382,16.380382 0 0 0 -1.64291,0.0194 16.380382,16.380382 0 0 0 -7.31541,2.218557 l -49.81082,28.220303 a 16.380382,16.380382 0 0 0 -7.87166,10.497719 l -7.83933,33.407715 -412.852097,0 A 16.380382,16.380382 0 0 0 63.519156,124.13926 L 113.58222,319.5469 a 16.380382,16.380382 0 0 0 13.62181,12.16002 l 308.6252,43.02578 0,12.37993 -274.84234,0 a 16.380382,16.380382 0 0 0 -9.6698,2.87184 c -19.20755,6.53863 -33.26019,25.51845 -33.26542,47.66341 -0.006,27.4876 21.65415,50.15974 47.94153,50.16655 25.09405,0.006 45.71708,-20.69536 47.56638,-46.47976 a 16.01877,16.750155 0 0 0 0.37515,-3.65446 16.01877,16.750155 0 0 0 -0.37515,-3.7515 c -0.36094,-4.91064 -1.40787,-9.63665 -3.03354,-14.06812 l 158.43601,0 c -2.53907,6.08624 -3.95034,12.78885 -3.95202,19.80533 -0.006,27.48761 21.65415,50.15974 47.94153,50.16655 25.09406,0.006 45.71708,-20.70184 47.5664,-46.48621 a 16.01877,16.750155 0 0 0 0.37513,-3.64801 16.01877,16.750155 0 0 0 -0.37513,-3.75795 c -0.43244,-5.88346 -1.8488,-11.49692 -4.06844,-16.66182 a 16.380382,16.380382 0 0 0 12.13414,-15.79511 l 0,-44.09945 53.05778,-235.71037 a 16.380382,16.380382 0 0 0 0.38809,-3.44102 l 8.33091,-35.464574 43.56263,-24.688722 a 16.380382,16.380382 0 0 0 -7.19898,-30.736392 z m -466.20743,107.111668 34.94066,0 0,46.31157 -23.0717,0 -11.86896,-46.31157 z m 67.72097,0 54.99822,0 0,46.31157 -54.99822,0 0,-46.31157 z m 87.77853,0 59.06665,0 0,46.31157 -59.06665,0 0,-46.31157 z m 91.81461,0 57.02921,0 0,46.31157 -57.02921,0 0,-46.31157 z m 89.816,0 46.90663,0 -10.89875,46.41506 a 16.380382,16.380382 0 0 0 -2.13447,-0.10349 l -33.87341,0 0,-46.31157 z m -316.87203,79.05954 14.68258,0 0,46.97131 -2.64545,0 -12.03713,-46.97131 z m 47.46289,0 54.99822,0 0,46.97131 -54.99822,0 0,-46.97131 z m 87.77853,0 59.06665,0 0,46.97131 -59.06665,0 0,-46.97131 z m 91.81461,0 57.02921,0 0,46.97131 -57.02921,0 0,-46.97131 z m 89.816,0 28.34966,0 -11.03458,47.00366 a 16.380382,16.380382 0 0 0 -1.37769,-0.0324 l -15.93739,0 0,-46.97131 z m -269.40914,79.71927 54.99822,0 0,16.74591 -55.5286,-7.74232 a 16.390625,16.390625 0 0 0 0.53038,-4.0943 l 0,-4.90929 z m 87.77853,0 59.06665,0 0,29.55274 -59.06665,-8.2339 0,-21.31884 z m 91.81461,0 57.02921,0 0,42.0685 -57.02921,-7.94928 a 16.380382,16.380382 0 0 0 0,-0.0259 l 0,-34.09334 z m 89.816,0 9.63099,0 -9.63099,41.04008 0,-41.04008 z M 165.9932,421.04426 c 8.97344,0.002 15.91203,7.2528 15.91152,16.63595 -0.002,9.38451 -6.93679,16.64474 -15.91152,16.6424 -8.97474,-0.002 -15.91374,-7.25789 -15.91152,-16.6424 0.002,-9.3845 6.93678,-16.63826 15.91152,-16.63595 z m 246.95836,2.01805 c 8.97345,0.002 15.91203,7.25279 15.91152,16.63594 -0.002,9.38452 -6.93678,16.64474 -15.91152,16.6424 -8.97474,-0.002 -15.91373,-7.25788 -15.91152,-16.6424 0.002,-9.38449 6.93678,-16.63826 15.91152,-16.63594 z"
           id="path2492"
           inkscape:connector-curvature="0" />
      </g>
    </g>
  </g>
</svg>
