<?xml version="1.0" encoding="UTF-8" standalone="no"?>
<svg
   xmlns:dc="http://purl.org/dc/elements/1.1/"
   xmlns:cc="http://creativecommons.org/ns#"
   xmlns:rdf="http://www.w3.org/1999/02/22-rdf-syntax-ns#"
   xmlns:svg="http://www.w3.org/2000/svg"
   xmlns="http://www.w3.org/2000/svg"
   xmlns:sodipodi="http://sodipodi.sourceforge.net/DTD/sodipodi-0.dtd"
   xmlns:inkscape="http://www.inkscape.org/namespaces/inkscape"
   width="2520"
   height="2520"
   viewBox="0 0 26880 26880"
   id="svg3064"
   version="1.1"
   inkscape:version="0.48.4 r9939"
   sodipodi:docname="toilets.svg">
  <metadata
     id="metadata3072">
    <rdf:RDF>
      <cc:Work
         rdf:about="">
        <dc:format>image/svg+xml</dc:format>
        <dc:type
           rdf:resource="http://purl.org/dc/dcmitype/StillImage" />
        <dc:title></dc:title>
      </cc:Work>
    </rdf:RDF>
  </metadata>
  <defs
     id="defs3070">
    <inkscape:perspective
       sodipodi:type="inkscape:persp3d"
       inkscape:vp_x="0 : 225.5 : 1"
       inkscape:vp_y="0 : 1000 : 0"
       inkscape:vp_z="301 : 225.5 : 1"
       inkscape:persp3d-origin="150.5 : 150.33333 : 1"
       id="perspective2486" />
    <inkscape:perspective
       id="perspective13"
       inkscape:persp3d-origin="300.5 : 250.33333 : 1"
       inkscape:vp_z="601 : 375.5 : 1"
       inkscape:vp_y="0 : 1000 : 0"
       inkscape:vp_x="0 : 375.5 : 1"
       sodipodi:type="inkscape:persp3d" />
    <inkscape:perspective
       id="perspective9"
       inkscape:persp3d-origin="372.04724 : 350.78739 : 1"
       inkscape:vp_z="744.09448 : 526.18109 : 1"
       inkscape:vp_y="0 : 1000 : 0"
       inkscape:vp_x="0 : 526.18109 : 1"
       sodipodi:type="inkscape:persp3d" />
  </defs>
  <sodipodi:namedview
     pagecolor="#ffffff"
     bordercolor="#666666"
     borderopacity="1"
     objecttolerance="6"
     gridtolerance="6"
     guidetolerance="6"
     inkscape:pageopacity="0"
     inkscape:pageshadow="2"
     inkscape:window-width="1600"
     inkscape:window-height="1147"
     id="namedview3068"
     showgrid="true"
     inkscape:snap-grids="true"
     inkscape:zoom="0.12129429"
     inkscape:cx="-768.09345"
     inkscape:cy="2952.4183"
     inkscape:window-x="0"
     inkscape:window-y="0"
     inkscape:window-maximized="1"
     inkscape:current-layer="g4445"
     showguides="true"
     inkscape:guide-bbox="true"
     inkscape:snap-to-guides="false">
    <inkscape:grid
       type="xygrid"
       id="grid3074"
       empspacing="2"
       visible="true"
       enabled="true"
       snapvisiblegridlinesonly="true"
       dotted="false"
       spacingx="315px"
       spacingy="315px"
       color="#00009b"
       opacity="0.1372549"
       empcolor="#00009b"
       empopacity="0.29411765" />
    <inkscape:grid
       type="xygrid"
       id="grid5379"
       empspacing="3"
       visible="true"
       enabled="true"
       snapvisiblegridlinesonly="true"
       color="#9b0000"
       opacity="0.11764706"
       empcolor="#9b0000"
       empopacity="0.39215686"
       spacingx="280px"
       spacingy="280px" />
    <inkscape:grid
       type="xygrid"
       id="grid5381"
       empspacing="2"
       visible="true"
       enabled="true"
       snapvisiblegridlinesonly="true"
       spacingx="252px"
       spacingy="252px"
       empcolor="#009b00"
       empopacity="0.23529412"
       color="#009b00"
       opacity="0.09803922" />
    <inkscape:grid
       type="xygrid"
       id="grid5383"
       empspacing="2"
       visible="true"
       enabled="true"
       snapvisiblegridlinesonly="true"
       spacingx="180px"
       spacingy="180px"
       color="#009b9b"
       opacity="0.07843137"
       empcolor="#009b9b"
       empopacity="0.15686275" />
    <inkscape:grid
       type="xygrid"
       id="grid3019"
       empspacing="5"
       visible="true"
       enabled="true"
       snapvisiblegridlinesonly="true"
       color="#9b0000"
       opacity="0.09803922"
       empcolor="#0000ff"
       empopacity="0"
       dotted="true"
       spacingx="140px"
       spacingy="140px" />
    <inkscape:grid
       type="xygrid"
       id="grid3013"
       empspacing="5"
       visible="true"
       enabled="false"
       snapvisiblegridlinesonly="true"
       spacingx="210px"
       spacingy="210px"
       color="#ff00ff"
       opacity="0.29411765" />
  </sodipodi:namedview>
  <g
     id="g4212">
    <text
       sodipodi:linespacing="125%"
       id="text2998"
       y="4924.4893"
       x="9930.1055"
       style="font-size:6048.16699219px;font-style:normal;font-variant:normal;font-weight:normal;font-stretch:normal;line-height:125%;letter-spacing:0px;word-spacing:0px;fill:#000000;fill-opacity:1;stroke:none;font-family:Liberation Sans;-inkscape-font-specification:Sans"
       xml:space="preserve"><tspan
         y="4924.4893"
         x="9930.1055"
         id="tspan3000"
         sodipodi:role="line" /></text>
    <g
       id="g4445"
       transform="matrix(10.666667,0,0,10.666667,-20763.958,4280.9699)">
      <path
         inkscape:connector-curvature="0"
         style="font-size:40px;font-style:normal;font-variant:normal;font-weight:normal;font-stretch:normal;text-align:start;line-height:125%;writing-mode:lr-tb;text-anchor:start;fill:#000000;fill-opacity:1;stroke:none;font-family:NPSPICT3;-inkscape-font-specification:NPSPICT3"
         d="m 3167.1773,1930.1446 169.6223,0 0,-2137.5165 -169.6223,0 0,2137.5165 z m -510.0325,-1747.10189 -342.37,0 c -53.3836,0 -101.396,19.20697 -144.0373,57.61519 -32.0306,29.81815 -53.3516,62.88981 -63.9628,99.21486 l -147.2601,489.53249 c -4.2315,10.67749 -6.3473,20.28023 -6.3473,28.80743 0,49.08754 24.5105,73.6311 73.5322,73.63017 34.1782,9.3e-4 56.606,-19.20411 67.2828,-57.6152 l 134.37,-448.0298 73.5326,0 -220.7929,796.74735 214.4456,0 0,620.7768 c 0,55.4668 26.6583,83.2 79.9771,83.2004 53.3178,-4e-4 79.9766,-27.7336 79.9777,-83.2004 l 0,-623.902 80.075,0 0,627.1248 c -9e-4,53.3182 26.6579,79.9772 79.9772,79.9776 53.3173,-4e-4 79.9768,-26.6594 79.9776,-79.9776 l 0,-623.9996 214.3473,0 -223.9172,-796.74735 76.7547,0 134.3702,448.0298 c 10.6751,38.41109 33.0702,57.61613 67.1848,57.6152 49.0852,9.3e-4 73.6289,-24.54263 73.6298,-73.63017 0,-10.67566 -2.1167,-20.2784 -6.3474,-28.80743 l -147.26,-489.53249 c -10.6775,-34.17658 -35.1883,-67.24825 -73.5322,-99.21486 -46.9392,-38.40822 -98.1416,-57.61325 -153.6074,-57.61519 l 0,0 z m -163.1775,-35.25226 c 49.0208,0 90.6044,-17.05519 124.7513,-51.169806 34.1449,-34.111755 51.2177,-74.63769 51.2185,-121.57781 -8e-4,-49.08481 -17.0736,-90.684464 -51.2185,-124.800104 -34.1469,-34.11073 -75.7305,-51.16741 -124.7513,-51.16969 -46.9391,0 -87.4811,17.05896 -121.6262,51.16969 -34.1467,34.11564 -51.2193,75.715294 -51.2189,124.800104 -4e-4,46.94012 17.0722,87.466055 51.2189,121.57781 34.1451,34.114616 74.6871,51.171186 121.6262,51.169806 l 0,0 z m 1496.8046,-3.12521 c 46.9355,0 87.478,-17.07075 121.6262,-51.218521 34.143,-34.144012 51.2161,-74.686065 51.2185,-121.626185 0,-49.01985 -17.0755,-90.066304 -51.2185,-123.139894 -34.1482,-33.06972 -74.6907,-49.60532 -121.6262,-49.6076 -46.941,0 -87.4669,16.53788 -121.5778,49.6076 -34.1155,33.07359 -51.1721,74.120044 -51.1697,123.139894 0,46.94012 17.0542,87.482173 51.1697,121.626185 34.1109,34.147771 74.6368,51.220461 121.5778,51.218521 l 0,0 z m 227.2372,35.15529 -457.6,0 c -61.8487,0 -114.6459,21.87594 -158.3922,65.62222 -43.7504,43.75007 -65.6246,97.62155 -65.6227,161.61537 l 0,531.13214 c 0,51.23567 23.4675,76.85344 70.4076,76.85244 44.7878,10e-4 67.1829,-25.61677 67.1852,-76.85244 l 0,-518.3398 83.1999,0 0,1407.95414 c 0,63.9952 31.9951,95.9926 95.9923,95.9926 63.9929,0 95.9902,-31.9974 95.9926,-95.9926 l 0,-815.9846 83.1999,0 0,815.9846 c 0,63.9952 31.995,95.9926 95.9925,95.9926 66.1405,0 99.2122,-31.9974 99.215,-95.9926 l 0,-1407.95414 79.9776,0 0,518.3398 c 0,53.31918 22.3917,79.97804 67.1849,79.97714 44.8521,9e-4 67.2795,-26.65796 67.2823,-79.97714 l 0,-528.0075 c 0,-61.84534 -20.8026,-115.70025 -62.4,-161.56607 -41.6026,-45.86262 -95.474,-68.79479 -161.6149,-68.79616 l 0,0 z"
         id="flowRoot3192"
         sodipodi:nodetypes="ccccccccccssccccccsccccsccccccssccccccssssssscccsccssscccccsccsccccsccccsccccsccccc" />
    </g>
  </g>
</svg>
