<?xml version="1.0" encoding="UTF-8" standalone="no"?>
<svg
   xmlns:dc="http://purl.org/dc/elements/1.1/"
   xmlns:cc="http://creativecommons.org/ns#"
   xmlns:rdf="http://www.w3.org/1999/02/22-rdf-syntax-ns#"
   xmlns:svg="http://www.w3.org/2000/svg"
   xmlns="http://www.w3.org/2000/svg"
   xmlns:sodipodi="http://sodipodi.sourceforge.net/DTD/sodipodi-0.dtd"
   xmlns:inkscape="http://www.inkscape.org/namespaces/inkscape"
   width="2520"
   height="2520"
   viewBox="0 0 26880 26880"
   id="svg3064"
   version="1.1"
   inkscape:version="0.48.3.1 r9886"
   sodipodi:docname="tower-comunication.svg">
  <metadata
     id="metadata3072">
    <rdf:RDF>
      <cc:Work
         rdf:about="">
        <dc:format>image/svg+xml</dc:format>
        <dc:type
           rdf:resource="http://purl.org/dc/dcmitype/StillImage" />
        <dc:title />
      </cc:Work>
    </rdf:RDF>
  </metadata>
  <defs
     id="defs3070" />
  <sodipodi:namedview
     pagecolor="#ffffff"
     bordercolor="#666666"
     borderopacity="1"
     objecttolerance="6"
     gridtolerance="6"
     guidetolerance="6"
     inkscape:pageopacity="0"
     inkscape:pageshadow="2"
     inkscape:window-width="1600"
     inkscape:window-height="1147"
     id="namedview3068"
     showgrid="true"
     inkscape:snap-grids="true"
     inkscape:zoom="0.34307206"
     inkscape:cx="905.1446"
     inkscape:cy="1303.0798"
     inkscape:window-x="0"
     inkscape:window-y="0"
     inkscape:window-maximized="1"
     inkscape:current-layer="svg3064"
     showguides="true"
     inkscape:guide-bbox="true">
    <inkscape:grid
       type="xygrid"
       id="grid3074"
       empspacing="2"
       visible="true"
       enabled="true"
       snapvisiblegridlinesonly="true"
       dotted="false"
       spacingx="315px"
       spacingy="315px"
       color="#00009b"
       opacity="0.1372549"
       empcolor="#00009b"
       empopacity="0.29411765" />
    <inkscape:grid
       type="xygrid"
       id="grid5379"
       empspacing="3"
       visible="true"
       enabled="true"
       snapvisiblegridlinesonly="true"
       color="#9b0000"
       opacity="0.11764706"
       empcolor="#9b0000"
       empopacity="0.39215686"
       spacingx="280px"
       spacingy="280px" />
    <inkscape:grid
       type="xygrid"
       id="grid5381"
       empspacing="2"
       visible="true"
       enabled="true"
       snapvisiblegridlinesonly="true"
       spacingx="252px"
       spacingy="252px"
       empcolor="#009b00"
       empopacity="0.23529412"
       color="#009b00"
       opacity="0.09803922" />
    <inkscape:grid
       type="xygrid"
       id="grid5383"
       empspacing="2"
       visible="true"
       enabled="true"
       snapvisiblegridlinesonly="true"
       spacingx="180px"
       spacingy="180px"
       color="#009b9b"
       opacity="0.07843137"
       empcolor="#009b9b"
       empopacity="0.15686275" />
    <inkscape:grid
       type="xygrid"
       id="grid3019"
       empspacing="5"
       visible="true"
       enabled="true"
       snapvisiblegridlinesonly="true"
       color="#9b0000"
       opacity="0.09803922"
       empcolor="#0000ff"
       empopacity="0"
       dotted="true"
       spacingx="140px"
       spacingy="140px" />
    <sodipodi:guide
       orientation="-0.70710678,0.70710678"
       position="1260,1960"
       id="guide4370" />
    <sodipodi:guide
       orientation="0.70710678,0.70710678"
       position="1260,1960"
       id="guide4374" />
  </sodipodi:namedview>
  <path
     style="fill:#000000;fill-opacity:1;stroke:#000000;stroke-width:1px;stroke-linecap:butt;stroke-linejoin:miter;stroke-opacity:1"
     d="M 769.8125 27.15625 A 37.503753 37.503753 0 0 0 743.875 38.59375 C 456.17729 326.29134 456.17729 793.89613 743.875 1081.5938 A 37.503753 37.503753 0 0 0 770.78125 1092.9375 A 37.503753 37.503753 0 0 0 796.90625 1028.5625 C 537.86983 769.52603 537.86983 350.66154 796.90625 91.625 A 37.503753 37.503753 0 0 0 769.8125 27.15625 z M 1754.5938 27.15625 A 37.503753 37.503753 0 0 0 1728.4688 91.53125 C 1987.5052 350.56769 1987.5052 769.43216 1728.4688 1028.4688 A 37.503753 37.503753 0 1 0 1781.5 1081.5 C 2069.1977 793.80241 2069.1977 326.1976 1781.5 38.5 A 37.503753 37.503753 0 0 0 1754.5938 27.15625 z M 1260 64.125 C 1189.7107 64.125 1185.9062 140 1185.9062 140 L 1185.9062 801.40625 C 1123.4593 826.12158 1080 881.12966 1080 945 L 1080 2340 L 720 2340 L 720 2520 L 1800 2520 L 1800 2340 L 1440 2340 L 1440 945 C 1440 881.12966 1396.5407 826.12158 1334.0938 801.40625 L 1334.0938 140 C 1334.0938 140 1339.0338 64.125 1260 64.125 z M 868.8125 126.15625 A 37.503753 37.503753 0 0 0 842.875 137.59375 C 609.85078 370.61794 609.85078 749.56958 842.875 982.59375 A 37.503753 37.503753 0 0 0 869.78125 993.9375 A 37.503753 37.503753 0 0 0 895.90625 929.5625 C 691.54324 725.19946 691.54324 394.98804 895.90625 190.625 A 37.503753 37.503753 0 0 0 868.8125 126.15625 z M 1655.5938 126.15625 A 37.503753 37.503753 0 0 0 1629.4688 190.53125 C 1833.8318 394.89429 1833.8318 725.1057 1629.4688 929.46875 A 37.503753 37.503753 0 1 0 1682.5 982.5 C 1915.5242 749.4758 1915.5242 370.5242 1682.5 137.5 A 37.503753 37.503753 0 0 0 1655.5938 126.15625 z M 1556.5938 225.125 A 37.503753 37.503753 0 0 0 1530.4688 289.53125 C 1680.1583 439.22087 1680.1583 680.77912 1530.4688 830.46875 A 37.503753 37.503753 0 1 0 1583.5 883.5 C 1761.8508 705.14918 1761.8508 414.85081 1583.5 236.5 A 37.503753 37.503753 0 0 0 1556.5938 225.125 z M 967.8125 225.15625 A 37.503753 37.503753 0 0 0 941.875 236.59375 C 763.52417 414.94457 763.52417 705.24294 941.875 883.59375 A 37.503753 37.503753 0 0 0 968.78125 894.96875 A 37.503753 37.503753 0 0 0 994.90625 830.5625 C 845.21674 680.87287 845.21674 439.31463 994.90625 289.625 A 37.503753 37.503753 0 0 0 967.8125 225.15625 z M 1457.5938 324.125 A 37.503753 37.503753 0 0 0 1431.4688 388.53125 C 1526.4849 483.54746 1526.4849 636.45252 1431.4688 731.46875 A 37.503753 37.503753 0 1 0 1484.5 784.5 C 1608.1774 660.8226 1608.1774 459.17738 1484.5 335.5 A 37.503753 37.503753 0 0 0 1457.5938 324.125 z M 1066.8125 324.15625 A 37.503753 37.503753 0 0 0 1040.875 335.59375 C 917.19758 459.27116 917.19758 660.91637 1040.875 784.59375 A 37.503753 37.503753 0 0 0 1067.7812 795.96875 A 37.503753 37.503753 0 0 0 1093.9062 731.5625 C 998.89021 636.54629 998.89021 483.64123 1093.9062 388.625 A 37.503753 37.503753 0 0 0 1066.8125 324.15625 z "
     transform="scale(10.666667,10.666667)"
     id="path3040" />
</svg>
