<?xml version="1.0" encoding="UTF-8" standalone="no"?>
<svg
   xmlns:dc="http://purl.org/dc/elements/1.1/"
   xmlns:cc="http://creativecommons.org/ns#"
   xmlns:rdf="http://www.w3.org/1999/02/22-rdf-syntax-ns#"
   xmlns:svg="http://www.w3.org/2000/svg"
   xmlns="http://www.w3.org/2000/svg"
   xmlns:sodipodi="http://sodipodi.sourceforge.net/DTD/sodipodi-0.dtd"
   xmlns:inkscape="http://www.inkscape.org/namespaces/inkscape"
   width="2520"
   height="2520"
   viewBox="0 0 26880 26880"
   id="svg3064"
   version="1.1"
   inkscape:version="0.48.4 r9939"
   sodipodi:docname="toys.svg">
  <metadata
     id="metadata3072">
    <rdf:RDF>
      <cc:Work
         rdf:about="">
        <dc:format>image/svg+xml</dc:format>
        <dc:type
           rdf:resource="http://purl.org/dc/dcmitype/StillImage" />
        <dc:title />
      </cc:Work>
    </rdf:RDF>
  </metadata>
  <defs
     id="defs3070">
    <inkscape:perspective
       sodipodi:type="inkscape:persp3d"
       inkscape:vp_x="0 : 225.5 : 1"
       inkscape:vp_y="0 : 1000 : 0"
       inkscape:vp_z="301 : 225.5 : 1"
       inkscape:persp3d-origin="150.5 : 150.33333 : 1"
       id="perspective2486" />
    <inkscape:perspective
       id="perspective13"
       inkscape:persp3d-origin="300.5 : 250.33333 : 1"
       inkscape:vp_z="601 : 375.5 : 1"
       inkscape:vp_y="0 : 1000 : 0"
       inkscape:vp_x="0 : 375.5 : 1"
       sodipodi:type="inkscape:persp3d" />
    <inkscape:perspective
       id="perspective9"
       inkscape:persp3d-origin="372.04724 : 350.78739 : 1"
       inkscape:vp_z="744.09448 : 526.18109 : 1"
       inkscape:vp_y="0 : 1000 : 0"
       inkscape:vp_x="0 : 526.18109 : 1"
       sodipodi:type="inkscape:persp3d" />
    <clipPath
       id="clipoutline1"
       clipPathUnits="userSpaceOnUse">
      <path
         inkscape:connector-curvature="0"
         d="m 22.42,17.2 12.96,12.95 -2.5,8.78 -8.78,2.5 -12.96,-12.96 -5.86,5.86 14.89,21.46 17.56,-3.34 61.63,65.62 c 9.44,9.51 22.17,-4.75 13.34,-12.87 L 46.85,42.92 50.86,25.16 28.72,10.89 22.42,17.2 z m 81.06,91.97 c 1.68,-1.68 4.4,-1.68 6.08,0 1.68,1.68 1.68,4.4 0,6.08 -1.68,1.67 -4.4,1.67 -6.08,0 -1.68,-1.68 -1.68,-4.4 0,-6.08 z"
         id="outline1" />
    </clipPath>
  </defs>
  <sodipodi:namedview
     pagecolor="#ffffff"
     bordercolor="#666666"
     borderopacity="1"
     objecttolerance="6"
     gridtolerance="6"
     guidetolerance="6"
     inkscape:pageopacity="0"
     inkscape:pageshadow="2"
     inkscape:window-width="1600"
     inkscape:window-height="1147"
     id="namedview3068"
     showgrid="true"
     inkscape:snap-grids="false"
     inkscape:zoom="0.22627418"
     inkscape:cx="989.58686"
     inkscape:cy="1252.8967"
     inkscape:window-x="0"
     inkscape:window-y="0"
     inkscape:window-maximized="1"
     inkscape:current-layer="g6443"
     showguides="true"
     inkscape:guide-bbox="true"
     inkscape:snap-to-guides="false">
    <inkscape:grid
       type="xygrid"
       id="grid3074"
       empspacing="2"
       visible="true"
       enabled="true"
       snapvisiblegridlinesonly="true"
       dotted="false"
       spacingx="315px"
       spacingy="315px"
       color="#00009b"
       opacity="0.1372549"
       empcolor="#00009b"
       empopacity="0.29411765" />
    <inkscape:grid
       type="xygrid"
       id="grid5379"
       empspacing="3"
       visible="true"
       enabled="true"
       snapvisiblegridlinesonly="true"
       color="#9b0000"
       opacity="0.11764706"
       empcolor="#9b0000"
       empopacity="0.39215686"
       spacingx="280px"
       spacingy="280px" />
    <inkscape:grid
       type="xygrid"
       id="grid5381"
       empspacing="2"
       visible="true"
       enabled="true"
       snapvisiblegridlinesonly="true"
       spacingx="252px"
       spacingy="252px"
       empcolor="#009b00"
       empopacity="0.23529412"
       color="#009b00"
       opacity="0.09803922" />
    <inkscape:grid
       type="xygrid"
       id="grid5383"
       empspacing="2"
       visible="true"
       enabled="true"
       snapvisiblegridlinesonly="true"
       spacingx="180px"
       spacingy="180px"
       color="#009b9b"
       opacity="0.07843137"
       empcolor="#009b9b"
       empopacity="0.15686275" />
    <inkscape:grid
       type="xygrid"
       id="grid3019"
       empspacing="5"
       visible="true"
       enabled="true"
       snapvisiblegridlinesonly="true"
       color="#9b0000"
       opacity="0.09803922"
       empcolor="#0000ff"
       empopacity="0"
       dotted="true"
       spacingx="140px"
       spacingy="140px" />
    <inkscape:grid
       type="xygrid"
       id="grid3013"
       empspacing="5"
       visible="true"
       enabled="false"
       snapvisiblegridlinesonly="true"
       spacingx="210px"
       spacingy="210px"
       color="#ff00ff"
       opacity="0.29411765" />
  </sodipodi:namedview>
  <g
     id="g4212">
    <text
       sodipodi:linespacing="125%"
       id="text2998"
       y="4924.4893"
       x="9930.1055"
       style="font-size:6048.16699219px;font-style:normal;font-variant:normal;font-weight:normal;font-stretch:normal;line-height:125%;letter-spacing:0px;word-spacing:0px;fill:#000000;fill-opacity:1;stroke:none;font-family:Liberation Sans;-inkscape-font-specification:Sans"
       xml:space="preserve"><tspan
         y="4924.4893"
         x="9930.1055"
         id="tspan3000"
         sodipodi:role="line" /></text>
    <g
       id="g4445"
       transform="matrix(10.666667,0,0,10.666667,-20763.958,4280.9699)">
      <g
         id="g3324"
         transform="matrix(4.8314063,0,0,4.8314063,1656.0154,-384.07686)"
         style="fill:#000000;fill-opacity:1">
        <g
           id="g19987"
           transform="matrix(0.20697907,0,0,0.20697907,303.00686,245.89345)"
           style="fill:#000000;fill-opacity:1;stroke:#000000;stroke-opacity:1">
          <g
             id="g2319"
             transform="matrix(4.0193763,0,0,4.0193763,2426.0211,-1127.3128)"
             style="fill:#000000;fill-opacity:1">
            <path
               inkscape:connector-curvature="0"
               id="path2323"
               style="fill:#000000;fill-opacity:1;stroke:none"
               d="" />
          </g>
          <g
             id="g2325"
             transform="matrix(4.0193763,0,0,4.0193763,2426.0211,-1127.3128)"
             style="fill:#000000;fill-opacity:1">
            <path
               inkscape:connector-curvature="0"
               id="path2329"
               style="fill:#000000;fill-opacity:1;stroke:none"
               d="" />
          </g>
          <g
             transform="matrix(4.0193763,0,0,4.0193763,-439.25405,-1002.0722)"
             id="g13"
             style="fill:#000000;fill-opacity:1" />
          <g
             id="g6443"
             transform="matrix(7.4587621,0,0,7.4587621,-1921.7122,-2158.8568)"
             style="fill:#000000;fill-opacity:1">
            <path
               inkscape:connector-curvature="0"
               id="path2836"
               style="fill:#000000;stroke:#000000;stroke-width:0.24923706"
               d="" />
            <g
               id="g2830"
               transform="matrix(0.13411711,0,0,0.09579796,-124.98902,274.46046)"
               style="opacity:0.5;fill:#ffffff;fill-opacity:1;stroke:#ffffff;stroke-opacity:1">
              <path
                 inkscape:connector-curvature="0"
                 id="path2834"
                 style="fill:#ffffff;fill-opacity:1;stroke:#ffffff;stroke-width:42;stroke-opacity:1"
                 d="" />
            </g>
            <path
               inkscape:connector-curvature="0"
               style="fill:#ffffff;fill-opacity:1;fill-rule:evenodd;stroke:#ffffff;stroke-width:1.22529471;stroke-linecap:round;stroke-linejoin:round;stroke-miterlimit:4;stroke-opacity:1;stroke-dasharray:none"
               d="m -77.934689,315.55992 12.63788,-2.82861 c 5.78234,-0.88675 8.76183,0.3176 10.71211,2.28982 7.61034,-1.82859 10.68756,0.7817 13.23968,3.90618 l -1.65627,2.20931 c -2.04425,-2.83991 -5.44179,-5.51751 -10.67024,-4.43763 0.66615,3.43915 2.79497,6.21589 5.70667,8.57805 1.84681,4.46669 3.75497,11.03515 6.86056,14.79749 l -1.92577,2.9633 c -2.09784,-4.95338 -5.13978,-12.17047 -9.47972,-14.97317 -3.34199,-0.9504 -6.42759,-1.80804 -8.81512,-4.53867 l -1.59217,-0.51535 c -3.91315,3.61376 -9.90263,4.87409 -15.3787,4.96031 -3.71181,3.91716 -6.83692,9.41629 -12.03608,16.00975 l -3.61082,-1.61634 c 4.31847,-3.35499 7.61846,-10.72156 11.31392,-15.47097 -0.15921,-5.91032 -3.57775,-11.07598 -5.90865,-12.68864 -2.33089,-1.61266 -5.12963,1.75043 -7.81248,2.16334 -1.53898,0.24157 -2.69733,-1.98547 -1.80542,-3.098 0.9308,-1.16103 4.47084,-5.22886 7.58273,-6.86948 l 1.20361,-3.098 0.72216,2.9633 c 3.72095,2.42547 7.59878,4.14864 10.71212,9.29401 z"
               id="path2529"
               sodipodi:nodetypes="cccccccccccccccczczcccc" />
            <path
               style="fill:none;stroke:#ffffff;stroke-width:4.02211523;stroke-linecap:round;stroke-linejoin:miter;stroke-miterlimit:4;stroke-opacity:1;stroke-dasharray:none"
               d="m -34.951319,339.29004 c -9.18175,5.83968 -20.07918,9.22232 -31.76666,9.22232 -12.14571,0 -23.43819,-3.65308 -32.83865,-9.92045"
               id="path11229"
               inkscape:connector-curvature="0" />
            <path
               style="font-size:medium;font-style:normal;font-variant:normal;font-weight:normal;font-stretch:normal;text-indent:0;text-align:start;text-decoration:none;line-height:normal;letter-spacing:normal;word-spacing:normal;text-transform:none;direction:ltr;block-progression:tb;writing-mode:lr-tb;text-anchor:start;baseline-shift:baseline;color:#000000;fill:#000000;fill-opacity:1;stroke:none;stroke-width:6.70352507;marker:none;visibility:visible;display:inline;overflow:visible;enable-background:accumulate;font-family:Sans;-inkscape-font-specification:Sans"
               d="m 169.36129,171.2692 a 3.5381331,3.5381331 0 0 0 -0.31839,0.004 3.5381331,3.5381331 0 0 0 -3.06903,2.24649 l -5.27571,13.55412 c -15.52395,8.69981 -31.30986,27.12966 -35.82002,32.75542 -3.30213,4.11892 -2.6425,9.59049 -0.36262,13.68678 2.27505,4.08762 6.79331,7.52712 12.20534,6.69525 0.0106,-0.002 0.0203,0.002 0.031,0 7.59002,-1.17864 14.22483,-5.94846 20.21842,-9.06999 3.00097,-1.56293 5.78286,-2.71869 8.11478,-3.06902 2.33191,-0.35032 4.11685,-0.0732 6.13363,1.32225 4.73668,3.27713 11.41029,10.96942 16.72484,21.14265 5.16356,9.88417 9.11017,22.12903 9.66256,35.06382 -15.22769,19.9446 -28.98681,47.88076 -44.61582,64.57773 -9.46518,-4.79656 -18.60814,-10.14234 -27.38683,-15.99517 a 14.86016,14.86016 0 0 0 -8.41107,-2.60468 14.86016,14.86016 0 0 0 -8.07941,27.3426 c 46.91408,31.27801 103.34194,49.51122 163.89648,49.51122 58.26995,0 112.72975,-16.86832 158.55443,-46.01325 a 14.86016,14.86016 0 1 0 -15.92885,-25.06959 c -4.97321,3.16302 -10.05926,6.16491 -15.24783,8.99924 -13.66184,-16.93009 -22.74997,-47.434 -31.55699,-68.73463 a 3.5381331,3.5381331 0 0 0 -1.0569,-1.41512 c -12.30441,-9.98211 -21.19383,-21.3009 -24.8706,-34.90019 21.13802,-2.8786 34.60076,7.98935 43.31125,20.09016 a 3.5381331,3.5381331 0 0 0 5.70469,0.0663 l 7.84944,-10.45855 a 3.5381331,3.5381331 0 0 0 -0.0973,-4.38685 c -6.18436,-7.57131 -13.33788,-14.91145 -23.81368,-19.09517 -10.08981,-4.02955 -23.12403,-4.86933 -40.60488,-0.95962 -10.06241,-9.30267 -25.57652,-14.66206 -52.38124,-10.55142 a 3.5381331,3.5381331 0 0 0 -0.26091,0.031 l -57.55967,12.89521 c -14.67846,-22.93106 -32.74174,-31.70846 -49.24589,-42.31627 l -3.09998,-12.66525 a 3.5381331,3.5381331 0 0 0 -3.34321,-2.67987 z m 126.04667,100.90632 4.88214,1.58315 c 11.81406,13.0014 26.83921,17.31603 42.15265,21.6689 16.41109,10.87611 29.70961,37.90909 39.39758,60.13341 -33.20631,14.90169 -70.01556,23.18571 -108.83094,23.18571 -34.66012,0 -67.70775,-6.61938 -98.02302,-18.65292 20.06684,-26.58145 33.50853,-48.77755 48.48084,-64.89615 25.30218,-0.61653 52.81389,-6.43116 71.94075,-23.0221 z"
               id="path2529-4"
               inkscape:connector-curvature="0" />
          </g>
        </g>
      </g>
    </g>
  </g>
</svg>
