<?xml version="1.0" encoding="UTF-8" standalone="no"?>
<svg
   xmlns:dc="http://purl.org/dc/elements/1.1/"
   xmlns:cc="http://creativecommons.org/ns#"
   xmlns:rdf="http://www.w3.org/1999/02/22-rdf-syntax-ns#"
   xmlns:svg="http://www.w3.org/2000/svg"
   xmlns="http://www.w3.org/2000/svg"
   xmlns:sodipodi="http://sodipodi.sourceforge.net/DTD/sodipodi-0.dtd"
   xmlns:inkscape="http://www.inkscape.org/namespaces/inkscape"
   width="2520"
   height="2520"
   viewBox="0 0 26880 26880"
   id="svg3064"
   version="1.1"
   inkscape:version="0.48.4 r9939"
   sodipodi:docname="travel_agency.svg">
  <metadata
     id="metadata3072">
    <rdf:RDF>
      <cc:Work
         rdf:about="">
        <dc:format>image/svg+xml</dc:format>
        <dc:type
           rdf:resource="http://purl.org/dc/dcmitype/StillImage" />
        <dc:title></dc:title>
      </cc:Work>
    </rdf:RDF>
  </metadata>
  <defs
     id="defs3070">
    <inkscape:perspective
       sodipodi:type="inkscape:persp3d"
       inkscape:vp_x="0 : 225.5 : 1"
       inkscape:vp_y="0 : 1000 : 0"
       inkscape:vp_z="301 : 225.5 : 1"
       inkscape:persp3d-origin="150.5 : 150.33333 : 1"
       id="perspective2486" />
    <inkscape:perspective
       id="perspective13"
       inkscape:persp3d-origin="300.5 : 250.33333 : 1"
       inkscape:vp_z="601 : 375.5 : 1"
       inkscape:vp_y="0 : 1000 : 0"
       inkscape:vp_x="0 : 375.5 : 1"
       sodipodi:type="inkscape:persp3d" />
    <inkscape:perspective
       id="perspective9"
       inkscape:persp3d-origin="372.04724 : 350.78739 : 1"
       inkscape:vp_z="744.09448 : 526.18109 : 1"
       inkscape:vp_y="0 : 1000 : 0"
       inkscape:vp_x="0 : 526.18109 : 1"
       sodipodi:type="inkscape:persp3d" />
    <clipPath
       id="clipoutline1"
       clipPathUnits="userSpaceOnUse">
      <path
         inkscape:connector-curvature="0"
         d="m 22.42,17.2 12.96,12.95 -2.5,8.78 -8.78,2.5 -12.96,-12.96 -5.86,5.86 14.89,21.46 17.56,-3.34 61.63,65.62 c 9.44,9.51 22.17,-4.75 13.34,-12.87 L 46.85,42.92 50.86,25.16 28.72,10.89 22.42,17.2 z m 81.06,91.97 c 1.68,-1.68 4.4,-1.68 6.08,0 1.68,1.68 1.68,4.4 0,6.08 -1.68,1.67 -4.4,1.67 -6.08,0 -1.68,-1.68 -1.68,-4.4 0,-6.08 z"
         id="outline1" />
    </clipPath>
  </defs>
  <sodipodi:namedview
     pagecolor="#ffffff"
     bordercolor="#666666"
     borderopacity="1"
     objecttolerance="6"
     gridtolerance="6"
     guidetolerance="6"
     inkscape:pageopacity="0"
     inkscape:pageshadow="2"
     inkscape:window-width="1600"
     inkscape:window-height="1147"
     id="namedview3068"
     showgrid="true"
     inkscape:snap-grids="false"
     inkscape:zoom="0.22627418"
     inkscape:cx="330.00581"
     inkscape:cy="1771.2325"
     inkscape:window-x="0"
     inkscape:window-y="0"
     inkscape:window-maximized="1"
     inkscape:current-layer="g1970"
     showguides="true"
     inkscape:guide-bbox="true"
     inkscape:snap-to-guides="false">
    <inkscape:grid
       type="xygrid"
       id="grid3074"
       empspacing="2"
       visible="true"
       enabled="true"
       snapvisiblegridlinesonly="true"
       dotted="false"
       spacingx="315px"
       spacingy="315px"
       color="#00009b"
       opacity="0.1372549"
       empcolor="#00009b"
       empopacity="0.29411765" />
    <inkscape:grid
       type="xygrid"
       id="grid5379"
       empspacing="3"
       visible="true"
       enabled="true"
       snapvisiblegridlinesonly="true"
       color="#9b0000"
       opacity="0.11764706"
       empcolor="#9b0000"
       empopacity="0.39215686"
       spacingx="280px"
       spacingy="280px" />
    <inkscape:grid
       type="xygrid"
       id="grid5381"
       empspacing="2"
       visible="true"
       enabled="true"
       snapvisiblegridlinesonly="true"
       spacingx="252px"
       spacingy="252px"
       empcolor="#009b00"
       empopacity="0.23529412"
       color="#009b00"
       opacity="0.09803922" />
    <inkscape:grid
       type="xygrid"
       id="grid5383"
       empspacing="2"
       visible="true"
       enabled="true"
       snapvisiblegridlinesonly="true"
       spacingx="180px"
       spacingy="180px"
       color="#009b9b"
       opacity="0.07843137"
       empcolor="#009b9b"
       empopacity="0.15686275" />
    <inkscape:grid
       type="xygrid"
       id="grid3019"
       empspacing="5"
       visible="true"
       enabled="true"
       snapvisiblegridlinesonly="true"
       color="#9b0000"
       opacity="0.09803922"
       empcolor="#0000ff"
       empopacity="0"
       dotted="true"
       spacingx="140px"
       spacingy="140px" />
    <inkscape:grid
       type="xygrid"
       id="grid3013"
       empspacing="5"
       visible="true"
       enabled="false"
       snapvisiblegridlinesonly="true"
       spacingx="210px"
       spacingy="210px"
       color="#ff00ff"
       opacity="0.29411765" />
  </sodipodi:namedview>
  <g
     id="g4212">
    <text
       sodipodi:linespacing="125%"
       id="text2998"
       y="4924.4893"
       x="9930.1055"
       style="font-size:6048.16699219px;font-style:normal;font-variant:normal;font-weight:normal;font-stretch:normal;line-height:125%;letter-spacing:0px;word-spacing:0px;fill:#000000;fill-opacity:1;stroke:none;font-family:Liberation Sans;-inkscape-font-specification:Sans"
       xml:space="preserve"><tspan
         y="4924.4893"
         x="9930.1055"
         id="tspan3000"
         sodipodi:role="line" /></text>
    <g
       id="g4445"
       transform="matrix(10.666667,0,0,10.666667,-20763.958,4280.9699)">
      <g
         id="g3324"
         transform="matrix(4.8314063,0,0,4.8314063,1656.0154,-384.07686)"
         style="fill:#000000;fill-opacity:1">
        <g
           id="g19987"
           transform="matrix(0.20697907,0,0,0.20697907,303.00686,245.89345)"
           style="fill:#000000;fill-opacity:1;stroke:#000000;stroke-opacity:1">
          <g
             id="g2319"
             transform="matrix(4.0193763,0,0,4.0193763,2426.0211,-1127.3128)"
             style="fill:#000000;fill-opacity:1">
            <path
               inkscape:connector-curvature="0"
               id="path2323"
               style="fill:#000000;fill-opacity:1;stroke:none"
               d="" />
          </g>
          <g
             id="g2325"
             transform="matrix(4.0193763,0,0,4.0193763,2426.0211,-1127.3128)"
             style="fill:#000000;fill-opacity:1">
            <path
               inkscape:connector-curvature="0"
               id="path2329"
               style="fill:#000000;fill-opacity:1;stroke:none"
               d="" />
          </g>
          <g
             transform="matrix(4.0193763,0,0,4.0193763,-439.25405,-1002.0722)"
             id="g13"
             style="fill:#000000;fill-opacity:1" />
          <g
             id="g6443"
             transform="matrix(7.4587621,0,0,7.4587621,-1921.7122,-2158.8568)"
             style="fill:#000000;fill-opacity:1">
            <g
               id="g3338"
               transform="matrix(0.18734045,-0.03268436,0.03268436,0.18734045,202.39815,222.51218)"
               style="fill:#000000;fill-opacity:1;stroke:#000000;stroke-opacity:1" />
            <g
               id="g7010"
               transform="matrix(0.17833861,0,0,0.14132023,215.67304,227.85008)"
               style="fill:none;stroke:#000000;stroke-opacity:1">
              <g
                 id="g1970"
                 transform="matrix(0.75177497,0,0,0.94870001,-240.34299,-204.12185)"
                 style="fill:none;fill-opacity:1;stroke:#000000;stroke-width:30;stroke-linecap:round;stroke-linejoin:round;stroke-miterlimit:4;stroke-opacity:1;stroke-dasharray:none">
                <path
                   style="font-size:medium;font-style:normal;font-variant:normal;font-weight:normal;font-stretch:normal;text-indent:0;text-align:start;text-decoration:none;line-height:normal;letter-spacing:normal;word-spacing:normal;text-transform:none;direction:ltr;block-progression:tb;writing-mode:lr-tb;text-anchor:start;baseline-shift:baseline;color:#000000;fill:#000000;fill-opacity:1;stroke:none;stroke-width:30;marker:none;visibility:visible;display:inline;overflow:visible;enable-background:accumulate;font-family:Sans;-inkscape-font-specification:Sans"
                   d="m 585.76328,-339.76422 c -28.38603,-0.1778 -58.55356,11.73937 -81.72132,34.82554 l -0.0989,0.0989 -271.87671,271.876718 -614.09707,-148.899008 c -14.14345,-3.42388 -29.88295,1.08321 -40.1681,11.37768 l -106.05963,105.960668 c -9.49341,9.49443 -14.09542,23.64582 -11.97127,36.90321 2.1241,13.25736 10.96868,25.3095001 22.95319,31.3627801 L -38.623163,245.44347 -196.72323,403.54355 -339.98286,386.62546 c -12.74591,-1.47936 -26.06209,3.18193 -35.12236,12.26808 l -83.79898,83.79897 c -9.41873,9.40269 -14.05442,23.44634 -12.07022,36.6064 1.9844,13.15988 10.48813,25.15567 22.26065,31.36279 l 175.31498,92.1096 92.01067,175.21604 c 6.19068,11.80396 18.18435,20.36218 31.36277,22.35959 13.17825,1.9974 27.19588,-2.63092 36.6064,-12.07022 l 83.798992,-83.79881 c 9.112607,-9.13697 13.758679,-22.6135 12.169147,-35.41949 l -17.709579,-144.05097 158.199,-158.10006 241.5033,478.65323 c 6.05328,11.98443 18.10542,20.82916 31.36278,22.9532 13.25742,2.12437 27.40865,-2.47767 36.90321,-11.97112 L 538.76858,790.48308 c 10.33435,-10.33433 14.78648,-26.17837 11.27872,-40.36599 L 395.60787,130.38066 665.50586,-139.51733 c 24.96701,-24.91834 37.28151,-57.46079 35.91385,-87.65748 -1.36767,-30.19666 -14.76955,-56.94497 -34.23194,-76.7745 -1.21582,-1.23995 -2.39124,-2.56864 -3.66063,-3.75957 -19.04017,-17.86466 -44.01991,-30.0637 -72.1245,-31.85747 -1.87364,-0.11958 -3.74698,-0.18604 -5.63936,-0.19787 z m 654.85882,42.04789 0,434.4289 c -14.3963,1.90401 -28.4421,4.84781 -42.0478,8.70639 l -205.68851,-356.36823 -49.86385,28.88937 201.43416,348.84908 c -31.7767,16.4338 -59.7408,38.43287 -82.4139,64.60535 L 699.83673,22.342308 671.0463,72.206158 1029.1954,279.08178 c -15.0224,28.0958 -24.7378,58.99144 -27.999,91.71388 l -404.1544,0 0,2.37447 -3.16596,0 0,57.67981 408.70546,0 c 2.692,18.42534 7.4526,36.13406 14.049,53.12875 l -332.82144,192.2329 28.79044,49.86384 330.8427,-191.04566 c 20.7284,30.39498 48.0447,56.52716 80.0394,76.67557 l -206.38095,357.45653 49.86385,28.79028 208.2609,-360.62233 c 28.8169,10.86844 59.9557,17.45538 92.6043,18.79787 l 0,418.99471 57.6797,0 0,-1.286 2.5723,0 0,-421.17148 c 16.4981,-2.63043 32.5049,-6.68378 47.8851,-11.87233 l 199.9499,346.27689 49.8639,-28.88936 -197.0809,-341.23116 c 31.6725,-18.40069 59.0853,-42.45253 80.6331,-70.7394 l 359.5341,207.56802 28.7903,-49.86385 -358.6435,-207.17227 c 12.2725,-27.05787 19.6881,-56.35897 21.4689,-87.16281 l 409.9917,0 0,-6.62873 4.3533,0 0,-57.67981 -418.9948,0 c -3.1587,-15.18251 -7.7028,-29.90568 -13.5544,-44.02661 L 1883.7074,104.16256 1854.818,54.298708 1514.1805,250.88496 c -20.1868,-28.28866 -46.1238,-52.64185 -76.2797,-71.72875 l 212.5151,-367.94377 -49.8639,-28.79044 -214.1971,371.01079 c -27.0518,-10.27565 -56.2685,-16.78128 -86.7669,-18.69894 l 0,-429.4821 -1.3851,0 0,-2.96808 -57.5808,0 z M 88.608811,956.39894 c -194.409951,0.44989 -384.967491,41.96574 -568.190671,140.88516 l 53.42555,99.0353 c 354.667174,-191.48 738.14647,-148.9387 1147.4622,-0.6924 181.95068,72.5137 363.54001,100.7468 543.95111,101.0137 232.7131,0.3438 463.4875,-45.8437 690.6738,-103.5864 l -27.7021,-109.0273 c -397.2079,100.9554 -783.1061,160.112 -1166.95258,6.5294 l -0.7915,-0.3957 -0.79148,-0.2967 C 534.29441,1008.2292 308.94007,955.88922 88.608811,956.39894 z m 0,215.38426 c -194.409951,0.4499 -384.967491,42.0645 -568.190671,140.9842 l 53.42555,98.9363 c 354.667174,-191.4801 738.14647,-148.9394 1147.4622,-0.6927 181.95068,72.5134 363.54001,100.7475 543.95111,101.0137 232.7131,0.3444 463.4875,-45.8431 690.6738,-103.5861 l -27.7021,-108.9289 c -397.2079,100.9552 -783.1061,160.0133 -1166.95258,6.431 l -0.7915,-0.3958 -0.79148,-0.2966 C 534.29441,1223.6134 308.94007,1171.2735 88.608811,1171.7832 z m 22.557459,219.9351 c -194.409947,0.4499 -384.86855,42.0648 -568.09174,140.9842 l 53.42556,99.0353 c 354.667158,-191.4797 738.14643,-148.9387 1147.46219,-0.6927 181.95069,72.5135 363.44072,100.7478 543.85222,101.0137 232.7131,0.3442 463.5866,-45.8433 690.7729,-103.586 l -27.8012,-109.0277 c -397.2072,100.9551 -783.0075,160.0129 -1166.85369,6.4306 l -0.89043,-0.2966 -0.79148,-0.3957 C 556.8519,1443.5485 331.49753,1391.2085 111.16627,1391.7183 z"
                   id="path1972"
                   inkscape:connector-curvature="0" />
                <path
                   inkscape:connector-curvature="0"
                   d="m 248.185,169.031 199.764,120.064 0,52.717 -198.805,-65.43 -50.317,0 L 0,341.812 0,289.095 196.91,169.031 l 51.275,0 z"
                   id="path7842"
                   style="fill:none;fill-opacity:1;stroke:none;stroke-width:30;stroke-linecap:round;stroke-linejoin:round;stroke-miterlimit:4;stroke-opacity:1;stroke-dasharray:none"
                   sodipodi:nodetypes="ccccccccc" />
              </g>
              <g
                 style="fill:none;fill-opacity:1;stroke:#000000;stroke-width:40;stroke-linecap:round;stroke-linejoin:round;stroke-miterlimit:4;stroke-opacity:1;stroke-dasharray:none"
                 transform="matrix(0.75177497,0,0,0.94870001,-240.34299,-204.12185)"
                 id="g7850">
                <path
                   inkscape:connector-curvature="0"
                   d="m 248.185,169.031 199.764,120.064 0,52.717 -198.805,-65.43 -50.317,0 L 0,341.812 0,289.095 196.91,169.031 l 51.275,0 z"
                   id="path7852"
                   style="fill:none;fill-opacity:1;stroke:none;stroke-width:40;stroke-linecap:round;stroke-linejoin:round;stroke-miterlimit:4;stroke-opacity:1;stroke-dasharray:none"
                   sodipodi:nodetypes="ccccccccc" />
              </g>
            </g>
            <g
               id="g4243"
               transform="matrix(0.27366934,0,0,0.18486525,172.62925,206.71382)"
               style="fill:#000000;fill-opacity:1;stroke:none" />
            <g
               transform="matrix(3.4614719,0,0,3.4614719,-792.24329,12.045283)"
               style="font-size:10px;font-style:normal;font-variant:normal;font-weight:bold;font-stretch:normal;text-align:start;line-height:125%;writing-mode:lr-tb;text-anchor:start;fill:#000000;fill-opacity:1;stroke:none;font-family:Bitstream Charter;-inkscape-font-specification:Bitstream Charter Bold;stroke-opacity:1"
               id="flowRoot6831" />
          </g>
        </g>
      </g>
    </g>
  </g>
</svg>
