<?xml version="1.0" encoding="UTF-8" standalone="no"?>
<svg
   xmlns:dc="http://purl.org/dc/elements/1.1/"
   xmlns:cc="http://creativecommons.org/ns#"
   xmlns:rdf="http://www.w3.org/1999/02/22-rdf-syntax-ns#"
   xmlns:svg="http://www.w3.org/2000/svg"
   xmlns="http://www.w3.org/2000/svg"
   xmlns:sodipodi="http://sodipodi.sourceforge.net/DTD/sodipodi-0.dtd"
   xmlns:inkscape="http://www.inkscape.org/namespaces/inkscape"
   width="2520"
   height="2520"
   viewBox="0 0 26880 26880"
   id="svg3064"
   version="1.1"
   inkscape:version="0.48.4 r9939"
   sodipodi:docname="university.svg.2013_08_12_13_36_44.0.svg">
  <metadata
     id="metadata3072">
    <rdf:RDF>
      <cc:Work
         rdf:about="">
        <dc:format>image/svg+xml</dc:format>
        <dc:type
           rdf:resource="http://purl.org/dc/dcmitype/StillImage" />
        <dc:title></dc:title>
      </cc:Work>
    </rdf:RDF>
  </metadata>
  <defs
     id="defs3070">
    <inkscape:perspective
       sodipodi:type="inkscape:persp3d"
       inkscape:vp_x="0 : 225.5 : 1"
       inkscape:vp_y="0 : 1000 : 0"
       inkscape:vp_z="301 : 225.5 : 1"
       inkscape:persp3d-origin="150.5 : 150.33333 : 1"
       id="perspective2486" />
    <inkscape:perspective
       id="perspective13"
       inkscape:persp3d-origin="300.5 : 250.33333 : 1"
       inkscape:vp_z="601 : 375.5 : 1"
       inkscape:vp_y="0 : 1000 : 0"
       inkscape:vp_x="0 : 375.5 : 1"
       sodipodi:type="inkscape:persp3d" />
    <inkscape:perspective
       id="perspective9"
       inkscape:persp3d-origin="372.04724 : 350.78739 : 1"
       inkscape:vp_z="744.09448 : 526.18109 : 1"
       inkscape:vp_y="0 : 1000 : 0"
       inkscape:vp_x="0 : 526.18109 : 1"
       sodipodi:type="inkscape:persp3d" />
  </defs>
  <sodipodi:namedview
     pagecolor="#ffffff"
     bordercolor="#666666"
     borderopacity="1"
     objecttolerance="6"
     gridtolerance="6"
     guidetolerance="6"
     inkscape:pageopacity="0"
     inkscape:pageshadow="2"
     inkscape:window-width="1600"
     inkscape:window-height="1147"
     id="namedview3068"
     showgrid="true"
     inkscape:snap-grids="true"
     inkscape:zoom="0.11313709"
     inkscape:cx="-2363.7069"
     inkscape:cy="315.17565"
     inkscape:window-x="0"
     inkscape:window-y="0"
     inkscape:window-maximized="1"
     inkscape:current-layer="g3324"
     showguides="true"
     inkscape:guide-bbox="true"
     inkscape:snap-to-guides="false">
    <inkscape:grid
       type="xygrid"
       id="grid3074"
       empspacing="2"
       visible="true"
       enabled="true"
       snapvisiblegridlinesonly="true"
       dotted="false"
       spacingx="315px"
       spacingy="315px"
       color="#00009b"
       opacity="0.1372549"
       empcolor="#00009b"
       empopacity="0.29411765" />
    <inkscape:grid
       type="xygrid"
       id="grid5379"
       empspacing="3"
       visible="true"
       enabled="true"
       snapvisiblegridlinesonly="true"
       color="#9b0000"
       opacity="0.11764706"
       empcolor="#9b0000"
       empopacity="0.39215686"
       spacingx="280px"
       spacingy="280px" />
    <inkscape:grid
       type="xygrid"
       id="grid5381"
       empspacing="2"
       visible="true"
       enabled="true"
       snapvisiblegridlinesonly="true"
       spacingx="252px"
       spacingy="252px"
       empcolor="#009b00"
       empopacity="0.23529412"
       color="#009b00"
       opacity="0.09803922" />
    <inkscape:grid
       type="xygrid"
       id="grid5383"
       empspacing="2"
       visible="true"
       enabled="true"
       snapvisiblegridlinesonly="true"
       spacingx="180px"
       spacingy="180px"
       color="#009b9b"
       opacity="0.07843137"
       empcolor="#009b9b"
       empopacity="0.15686275" />
    <inkscape:grid
       type="xygrid"
       id="grid3019"
       empspacing="5"
       visible="true"
       enabled="true"
       snapvisiblegridlinesonly="true"
       color="#9b0000"
       opacity="0.09803922"
       empcolor="#0000ff"
       empopacity="0"
       dotted="true"
       spacingx="140px"
       spacingy="140px" />
    <inkscape:grid
       type="xygrid"
       id="grid3013"
       empspacing="5"
       visible="true"
       enabled="false"
       snapvisiblegridlinesonly="true"
       spacingx="210px"
       spacingy="210px"
       color="#ff00ff"
       opacity="0.29411765" />
  </sodipodi:namedview>
  <g
     id="g4212">
    <text
       sodipodi:linespacing="125%"
       id="text2998"
       y="4924.4893"
       x="9930.1055"
       style="font-size:6048.16699219px;font-style:normal;font-variant:normal;font-weight:normal;font-stretch:normal;line-height:125%;letter-spacing:0px;word-spacing:0px;fill:#000000;fill-opacity:1;stroke:none;font-family:Liberation Sans;-inkscape-font-specification:Sans"
       xml:space="preserve"><tspan
         y="4924.4893"
         x="9930.1055"
         id="tspan3000"
         sodipodi:role="line" /></text>
    <g
       id="g4445"
       transform="matrix(10.666667,0,0,10.666667,-20763.958,4280.9699)">
      <g
         id="g3324"
         transform="matrix(4.8314063,0,0,4.8314063,1656.0154,-384.07686)"
         style="fill:#000000;fill-opacity:1">
        <g
           id="layer1"
           transform="matrix(3.494293,0,0,3.494293,148.03933,-3186.2339)"
           style="stroke:#000000;stroke-opacity:1;stroke-width:11.84669214;stroke-miterlimit:4;stroke-dasharray:none" />
        <path
           style="fill:#000000;fill-opacity:1;fill-rule:evenodd;stroke:none"
           d="M 8.5625 3.75 L 8.5625 2523.75 L 2528.5625 2523.75 L 2528.5625 3.75 L 8.5625 3.75 z M 288.5625 283.75 L 2248.5625 283.75 L 2248.5625 2243.75 L 288.5625 2243.75 L 288.5625 283.75 z M 1267.4062 899.34375 L 403.28125 1177.5 L 1400.25 1345.9688 L 2186.9375 1079.4375 L 1267.4062 899.34375 z M 1845.3125 1280.4375 L 1409.4688 1436.9062 L 808.53125 1325.9688 L 682.15625 1568.4688 C 696.30903 1567.6342 869.91237 1496.8453 1089.875 1534.7812 C 1205.0836 1554.6506 1441.4375 1679.9062 1441.4375 1679.9062 C 1441.4375 1679.9062 1576.7046 1565.4421 1673.6875 1524.2188 C 1770.6701 1482.9948 1977.1562 1492.0938 1977.1562 1492.0938 L 1845.3125 1280.4375 z M 650.28125 1283.0312 C 633.25523 1303.4789 619.11806 1330.2825 603.46875 1362.3438 C 580.91821 1408.5431 559.15878 1464.7411 542.6875 1521.5312 C 523.49078 1587.7187 508.7662 1643.017 497.53125 1687.9375 C 463.34238 1690.9398 434.21744 1716.586 428 1751.7188 L 402.8125 1745.8125 L 362.4375 1915.4062 L 393.75 1922.8438 L 391.21875 1933.3438 L 417.6875 1939.7812 L 415.71875 1944.7188 L 446.125 1956.7188 C 446.125 1956.7188 447.2347 1955.3484 447.03125 1956.0312 L 477.40625 1968.2812 L 478.375 1965.8438 L 506.4375 1979.4062 L 593.28125 1799.0938 L 577.34375 1791.5 C 579.07562 1786.2089 580.34452 1781.3485 581 1777.125 C 584.93721 1751.7553 576.0547 1727.3681 559.21875 1710.4688 C 570.41993 1665.4348 585.43155 1608.9374 605.5 1539.75 C 620.896 1486.6667 641.55238 1433.2115 662.15625 1391 C 682.76007 1348.789 707.29138 1316.8912 712.90625 1312.875 C 726.06019 1303.4677 736.84905 1299.4044 743.78125 1297.5312 C 745.32672 1297.1133 746.47069 1296.9143 747.4375 1296.6875 L 650.28125 1283.0312 z "
           transform="matrix(0.20697907,0,0,0.20697907,60.149278,-3.5732982)"
           id="path2662" />
      </g>
    </g>
  </g>
</svg>
