<?xml version="1.0" encoding="UTF-8" standalone="no"?>
<svg
   xmlns:dc="http://purl.org/dc/elements/1.1/"
   xmlns:cc="http://creativecommons.org/ns#"
   xmlns:rdf="http://www.w3.org/1999/02/22-rdf-syntax-ns#"
   xmlns:svg="http://www.w3.org/2000/svg"
   xmlns="http://www.w3.org/2000/svg"
   xmlns:sodipodi="http://sodipodi.sourceforge.net/DTD/sodipodi-0.dtd"
   xmlns:inkscape="http://www.inkscape.org/namespaces/inkscape"
   width="2520"
   height="2520"
   viewBox="0 0 26880 26880"
   id="svg3064"
   version="1.1"
   inkscape:version="0.48.4 r9939"
   sodipodi:docname="variety_store.svg">
  <metadata
     id="metadata3072">
    <rdf:RDF>
      <cc:Work
         rdf:about="">
        <dc:format>image/svg+xml</dc:format>
        <dc:type
           rdf:resource="http://purl.org/dc/dcmitype/StillImage" />
        <dc:title></dc:title>
      </cc:Work>
    </rdf:RDF>
  </metadata>
  <defs
     id="defs3070">
    <inkscape:perspective
       sodipodi:type="inkscape:persp3d"
       inkscape:vp_x="0 : 225.5 : 1"
       inkscape:vp_y="0 : 1000 : 0"
       inkscape:vp_z="301 : 225.5 : 1"
       inkscape:persp3d-origin="150.5 : 150.33333 : 1"
       id="perspective2486" />
    <inkscape:perspective
       id="perspective13"
       inkscape:persp3d-origin="300.5 : 250.33333 : 1"
       inkscape:vp_z="601 : 375.5 : 1"
       inkscape:vp_y="0 : 1000 : 0"
       inkscape:vp_x="0 : 375.5 : 1"
       sodipodi:type="inkscape:persp3d" />
    <inkscape:perspective
       id="perspective9"
       inkscape:persp3d-origin="372.04724 : 350.78739 : 1"
       inkscape:vp_z="744.09448 : 526.18109 : 1"
       inkscape:vp_y="0 : 1000 : 0"
       inkscape:vp_x="0 : 526.18109 : 1"
       sodipodi:type="inkscape:persp3d" />
    <clipPath
       id="clipoutline1"
       clipPathUnits="userSpaceOnUse">
      <path
         inkscape:connector-curvature="0"
         d="m 22.42,17.2 12.96,12.95 -2.5,8.78 -8.78,2.5 -12.96,-12.96 -5.86,5.86 14.89,21.46 17.56,-3.34 61.63,65.62 c 9.44,9.51 22.17,-4.75 13.34,-12.87 L 46.85,42.92 50.86,25.16 28.72,10.89 22.42,17.2 z m 81.06,91.97 c 1.68,-1.68 4.4,-1.68 6.08,0 1.68,1.68 1.68,4.4 0,6.08 -1.68,1.67 -4.4,1.67 -6.08,0 -1.68,-1.68 -1.68,-4.4 0,-6.08 z"
         id="outline1" />
    </clipPath>
  </defs>
  <sodipodi:namedview
     pagecolor="#ffffff"
     bordercolor="#666666"
     borderopacity="1"
     objecttolerance="6"
     gridtolerance="6"
     guidetolerance="6"
     inkscape:pageopacity="0"
     inkscape:pageshadow="2"
     inkscape:window-width="1600"
     inkscape:window-height="1147"
     id="namedview3068"
     showgrid="true"
     inkscape:snap-grids="false"
     inkscape:zoom="0.11313709"
     inkscape:cx="-1035.6751"
     inkscape:cy="2103.073"
     inkscape:window-x="0"
     inkscape:window-y="0"
     inkscape:window-maximized="1"
     inkscape:current-layer="g1970"
     showguides="true"
     inkscape:guide-bbox="true"
     inkscape:snap-to-guides="false">
    <inkscape:grid
       type="xygrid"
       id="grid3074"
       empspacing="2"
       visible="true"
       enabled="true"
       snapvisiblegridlinesonly="true"
       dotted="false"
       spacingx="315px"
       spacingy="315px"
       color="#00009b"
       opacity="0.1372549"
       empcolor="#00009b"
       empopacity="0.29411765" />
    <inkscape:grid
       type="xygrid"
       id="grid5379"
       empspacing="3"
       visible="true"
       enabled="true"
       snapvisiblegridlinesonly="true"
       color="#9b0000"
       opacity="0.11764706"
       empcolor="#9b0000"
       empopacity="0.39215686"
       spacingx="280px"
       spacingy="280px" />
    <inkscape:grid
       type="xygrid"
       id="grid5381"
       empspacing="2"
       visible="true"
       enabled="true"
       snapvisiblegridlinesonly="true"
       spacingx="252px"
       spacingy="252px"
       empcolor="#009b00"
       empopacity="0.23529412"
       color="#009b00"
       opacity="0.09803922" />
    <inkscape:grid
       type="xygrid"
       id="grid5383"
       empspacing="2"
       visible="true"
       enabled="true"
       snapvisiblegridlinesonly="true"
       spacingx="180px"
       spacingy="180px"
       color="#009b9b"
       opacity="0.07843137"
       empcolor="#009b9b"
       empopacity="0.15686275" />
    <inkscape:grid
       type="xygrid"
       id="grid3019"
       empspacing="5"
       visible="true"
       enabled="true"
       snapvisiblegridlinesonly="true"
       color="#9b0000"
       opacity="0.09803922"
       empcolor="#0000ff"
       empopacity="0"
       dotted="true"
       spacingx="140px"
       spacingy="140px" />
    <inkscape:grid
       type="xygrid"
       id="grid3013"
       empspacing="5"
       visible="true"
       enabled="false"
       snapvisiblegridlinesonly="true"
       spacingx="210px"
       spacingy="210px"
       color="#ff00ff"
       opacity="0.29411765" />
  </sodipodi:namedview>
  <g
     id="g4212">
    <text
       sodipodi:linespacing="125%"
       id="text2998"
       y="4924.4893"
       x="9930.1055"
       style="font-size:6048.16699219px;font-style:normal;font-variant:normal;font-weight:normal;font-stretch:normal;line-height:125%;letter-spacing:0px;word-spacing:0px;fill:#000000;fill-opacity:1;stroke:none;font-family:Liberation Sans;-inkscape-font-specification:Sans"
       xml:space="preserve"><tspan
         y="4924.4893"
         x="9930.1055"
         id="tspan3000"
         sodipodi:role="line" /></text>
    <g
       id="g4445"
       transform="matrix(10.666667,0,0,10.666667,-20763.958,4280.9699)">
      <g
         id="g3324"
         transform="matrix(4.8314063,0,0,4.8314063,1656.0154,-384.07686)"
         style="fill:#000000;fill-opacity:1">
        <g
           id="g19987"
           transform="matrix(0.20697907,0,0,0.20697907,303.00686,245.89345)"
           style="fill:#000000;fill-opacity:1;stroke:#000000;stroke-opacity:1">
          <g
             id="g2319"
             transform="matrix(4.0193763,0,0,4.0193763,2426.0211,-1127.3128)"
             style="fill:#000000;fill-opacity:1">
            <path
               inkscape:connector-curvature="0"
               id="path2323"
               style="fill:#000000;fill-opacity:1;stroke:none"
               d="" />
          </g>
          <g
             id="g2325"
             transform="matrix(4.0193763,0,0,4.0193763,2426.0211,-1127.3128)"
             style="fill:#000000;fill-opacity:1">
            <path
               inkscape:connector-curvature="0"
               id="path2329"
               style="fill:#000000;fill-opacity:1;stroke:none"
               d="" />
          </g>
          <g
             transform="matrix(4.0193763,0,0,4.0193763,-439.25405,-1002.0722)"
             id="g13"
             style="fill:#000000;fill-opacity:1" />
          <g
             id="g6443"
             transform="matrix(7.4587621,0,0,7.4587621,-1921.7122,-2158.8568)"
             style="fill:#000000;fill-opacity:1">
            <g
               id="g3338"
               transform="matrix(0.18734045,-0.03268436,0.03268436,0.18734045,202.39815,222.51218)"
               style="fill:#000000;fill-opacity:1;stroke:#000000;stroke-opacity:1" />
            <g
               id="g7010"
               transform="matrix(0.17833861,0,0,0.14132023,215.67304,227.85008)"
               style="fill:none;stroke:#000000;stroke-opacity:1">
              <g
                 id="g1970"
                 transform="matrix(0.75177497,0,0,0.94870001,-240.34299,-204.12185)"
                 style="fill:none;fill-opacity:1;stroke:#000000;stroke-width:30;stroke-linecap:round;stroke-linejoin:round;stroke-miterlimit:4;stroke-opacity:1;stroke-dasharray:none">
                <path
                   style="fill:#000000;fill-opacity:1;stroke:none"
                   d="M 1767.0938 133.25 C 1655.1137 133.62749 1560.7146 163.31586 1488.3125 229.65625 C 1457.7422 331.88548 1489.2815 346.09906 1507.7812 378.8125 L 1645.6562 382.125 L 1652.0625 482.65625 C 1654.1981 508.62998 1650.3994 551.89751 1686.1875 544.21875 C 1665.1057 583.73791 1640.7699 570.36606 1619.6875 672.375 L 1611.5312 1040.5 L 1510.9688 2303.8125 C 1564.0464 2436.4377 1606.4691 2457.0739 1695.9062 2452.9688 L 2399.7188 2456.1875 C 2471.0752 2431.7705 2508.8892 2379.4263 2506.7812 2259.9375 C 2511.5408 2223.6117 2489.3546 2138.0321 2445.125 2083.2812 L 2448.3438 1332.4062 C 2451.773 1277.2429 2379.7432 1182.4532 2331.5625 1170.2188 L 2085.0625 1085.9062 L 1987.8125 709.71875 L 1987.8125 541 C 2017.9097 534.8512 2027.5111 479.61405 2036.4375 422.65625 L 2169.4688 417.8125 C 2169.4688 417.8125 2062.6761 332.73187 2039.6562 288 C 2016.6363 243.26844 2020.2188 171.3125 2020.2188 171.3125 C 1928.5571 146.49834 1843.7116 132.99165 1767.0938 133.25 z M 2068.9062 172.875 C 2068.9062 172.875 2061.4699 236.84317 2081.8438 276.71875 C 2102.2171 316.59432 2201.8438 388.53125 2201.8438 388.53125 L 2192.125 476.15625 L 2360.8125 641.53125 C 2360.8125 641.53125 2391.9602 640.6477 2401.2812 630.15625 C 2412.9099 617.06766 2409.4375 578.34375 2409.4375 578.34375 L 2245.5938 391.84375 L 2364.0312 349.65625 L 2364.0312 215.0625 L 2068.9062 172.875 z M 142.5625 426.21875 C 127.07601 426.26803 110.95556 426.82867 94.21875 428 C 94.21875 428 176.50477 838.03003 533.46875 749.8125 C 533.50473 750.05789 523.53005 425.00641 142.5625 426.21875 z M 630.34375 492 C 609.2709 492.3783 598.40871 504.77729 612.71875 540.8125 C 656.33033 650.63411 660.3125 1071.5938 660.3125 1071.5938 L 759.40625 540.8125 C 759.40625 540.8125 673.49279 491.22539 630.34375 492 z M 1230.4375 563.40625 C 848.97963 564.40413 808.24815 903.29835 808.3125 903.03125 C 1215.1711 1042.9199 1353.6562 573.625 1353.6562 573.625 C 1309.0727 566.48697 1268.0921 563.30774 1230.4375 563.40625 z M 398.375 1042.625 C 182.53764 1042.625 7.53125 1216.8844 7.53125 1432.3438 C 7.53125 1440.6598 7.5222875 1447.4683 8.65625 1455.4062 L 10.53125 1455.4062 C 16.579264 1538.944 43.433679 1644.4059 106.9375 1774.4375 C 106.9375 1774.4375 216.93522 1983.4883 303.875 2079.5 L 311.8125 2087.0625 C 354.52638 2130.1543 413.48116 2156.5938 478.875 2156.5938 C 558.25479 2156.5938 628.56735 2118.0363 671.28125 2058.3125 L 672.4375 2058.3125 C 715.1514 2118.0363 785.4325 2156.5938 864.8125 2156.5938 C 929.44995 2156.5938 989.19554 2129.7764 1031.5312 2087.0625 L 1039.4688 2079.5 C 1127.1646 1983.4883 1236.4062 1774.4375 1236.4062 1774.4375 C 1299.9104 1644.4059 1326.7273 1539.7 1333.5312 1455.4062 L 1334.3125 1455.4062 C 1334.6905 1447.0902 1334.6562 1440.2817 1334.6562 1432.3438 C 1334.6562 1216.8844 1159.6753 1042.625 944.59375 1042.625 C 837.99844 1042.625 741.964 1084.6045 671.65625 1154.1562 C 600.59246 1084.6045 504.59267 1042.625 398.375 1042.625 z "
                   transform="translate(-540.58467,-530.73846)"
                   id="path4072" />
                <g
                   transform="matrix(3.66382,0,0,3.6638199,-916.26739,-305.64745)"
                   id="g8499"
                   style="fill:#000000;fill-opacity:1;stroke:#000000;stroke-opacity:1" />
              </g>
              <g
                 style="fill:none;fill-opacity:1;stroke:#000000;stroke-width:40;stroke-linecap:round;stroke-linejoin:round;stroke-miterlimit:4;stroke-opacity:1;stroke-dasharray:none"
                 transform="matrix(0.75177497,0,0,0.94870001,-240.34299,-204.12185)"
                 id="g7850">
                <path
                   inkscape:connector-curvature="0"
                   d="m 248.185,169.031 199.764,120.064 0,52.717 -198.805,-65.43 -50.317,0 L 0,341.812 0,289.095 196.91,169.031 l 51.275,0 z"
                   id="path7852"
                   style="fill:none;fill-opacity:1;stroke:none;stroke-width:40;stroke-linecap:round;stroke-linejoin:round;stroke-miterlimit:4;stroke-opacity:1;stroke-dasharray:none"
                   sodipodi:nodetypes="ccccccccc" />
              </g>
            </g>
            <g
               id="g4243"
               transform="matrix(0.27366934,0,0,0.18486525,172.62925,206.71382)"
               style="fill:#000000;fill-opacity:1;stroke:none" />
            <g
               transform="matrix(3.4614719,0,0,3.4614719,-792.24329,12.045283)"
               style="font-size:10px;font-style:normal;font-variant:normal;font-weight:bold;font-stretch:normal;text-align:start;line-height:125%;writing-mode:lr-tb;text-anchor:start;fill:#000000;fill-opacity:1;stroke:none;font-family:Bitstream Charter;-inkscape-font-specification:Bitstream Charter Bold;stroke-opacity:1"
               id="flowRoot6831" />
          </g>
        </g>
      </g>
    </g>
  </g>
</svg>
