<?xml version="1.0" encoding="UTF-8" standalone="no"?>
<svg
   xmlns:dc="http://purl.org/dc/elements/1.1/"
   xmlns:cc="http://creativecommons.org/ns#"
   xmlns:rdf="http://www.w3.org/1999/02/22-rdf-syntax-ns#"
   xmlns:svg="http://www.w3.org/2000/svg"
   xmlns="http://www.w3.org/2000/svg"
   xmlns:sodipodi="http://sodipodi.sourceforge.net/DTD/sodipodi-0.dtd"
   xmlns:inkscape="http://www.inkscape.org/namespaces/inkscape"
   width="2520"
   height="2520"
   viewBox="0 0 26880 26880"
   id="svg3064"
   version="1.1"
   inkscape:version="0.48.3.1 r9886"
   sodipodi:docname="mill.svg">
  <metadata
     id="metadata3072">
    <rdf:RDF>
      <cc:Work
         rdf:about="">
        <dc:format>image/svg+xml</dc:format>
        <dc:type
           rdf:resource="http://purl.org/dc/dcmitype/StillImage" />
        <dc:title></dc:title>
      </cc:Work>
    </rdf:RDF>
  </metadata>
  <defs
     id="defs3070" />
  <sodipodi:namedview
     pagecolor="#ffffff"
     bordercolor="#666666"
     borderopacity="1"
     objecttolerance="6"
     gridtolerance="6"
     guidetolerance="6"
     inkscape:pageopacity="0"
     inkscape:pageshadow="2"
     inkscape:window-width="1600"
     inkscape:window-height="1147"
     id="namedview3068"
     showgrid="true"
     inkscape:snap-grids="true"
     inkscape:zoom="0.35"
     inkscape:cx="1260"
     inkscape:cy="1251.3907"
     inkscape:window-x="0"
     inkscape:window-y="0"
     inkscape:window-maximized="1"
     inkscape:current-layer="svg3064"
     showguides="true"
     inkscape:guide-bbox="true"
     inkscape:snap-to-guides="false"
     inkscape:object-paths="true">
    <inkscape:grid
       type="xygrid"
       id="grid3074"
       empspacing="2"
       visible="true"
       enabled="true"
       snapvisiblegridlinesonly="true"
       dotted="false"
       spacingx="315px"
       spacingy="315px"
       color="#00009b"
       opacity="0.1372549"
       empcolor="#00009b"
       empopacity="0.29411765" />
    <inkscape:grid
       type="xygrid"
       id="grid5379"
       empspacing="3"
       visible="true"
       enabled="true"
       snapvisiblegridlinesonly="true"
       color="#9b0000"
       opacity="0.11764706"
       empcolor="#9b0000"
       empopacity="0.39215686"
       spacingx="280px"
       spacingy="280px" />
    <inkscape:grid
       type="xygrid"
       id="grid5381"
       empspacing="2"
       visible="true"
       enabled="true"
       snapvisiblegridlinesonly="true"
       spacingx="252px"
       spacingy="252px"
       empcolor="#009b00"
       empopacity="0.23529412"
       color="#009b00"
       opacity="0.09803922" />
    <inkscape:grid
       type="xygrid"
       id="grid5383"
       empspacing="2"
       visible="true"
       enabled="true"
       snapvisiblegridlinesonly="true"
       spacingx="180px"
       spacingy="180px"
       color="#009b9b"
       opacity="0.07843137"
       empcolor="#009b9b"
       empopacity="0.15686275" />
    <inkscape:grid
       type="xygrid"
       id="grid3019"
       empspacing="5"
       visible="true"
       enabled="true"
       snapvisiblegridlinesonly="true"
       color="#9b0000"
       opacity="0.09803922"
       empcolor="#0000ff"
       empopacity="0"
       dotted="true"
       spacingx="140px"
       spacingy="140px" />
    <inkscape:grid
       type="xygrid"
       id="grid3013"
       empspacing="5"
       visible="true"
       enabled="false"
       snapvisiblegridlinesonly="true"
       spacingx="210px"
       spacingy="210px"
       color="#ff00ff"
       opacity="0.29411765" />
  </sodipodi:namedview>
  <path
     style="fill:#000000;fill-opacity:1;stroke:none"
     d="M 9961.452,457.95963 C 9047.3873,702.88251 8159.1559,1044.1874 7312.2027,1478.0616 c 0,0 3643.1143,2689.0536 6127.7773,11961.9414 C 10955.317,4167.1152 12765.82,16.76936 12765.82,16.76936 11815.4,64.499728 10875.517,213.03674 9961.452,457.95963 z M 13439.98,13440.003 c 4800,-8313.8434 9014.878,-9968.2143 9014.878,-9968.2143 -1411.597,-1276.5952 -3078.228,-2238.8245 -4889.59,-2823.00592 0,0 674.712,4477.37682 -4125.288,12791.22022 z m 0,0 c 9272.887,-2484.662 13423.233,-674.16 13423.233,-674.16 -95.459,-1900.84 -593.543,-3759.7126 -1461.292,-5453.617 0,0 -2689.054,3643.115 -11961.941,6127.777 z m 0,0 c 8313.844,4800 9968.214,9014.878 9968.214,9014.878 1276.595,-1411.597 2238.825,-3078.228 2823.007,-4889.59 0,0 -4477.377,674.712 -12791.221,-4125.288 z m 0,0 c 2484.663,9272.887 674.16,13423.234 674.16,13423.234 1900.84,-95.46 3759.713,-593.544 5453.617,-1461.293 0,0 -3643.114,-2689.054 -6127.777,-11961.941 z m 0,0 c -4799.9995,8313.844 -9014.8778,9968.214 -9014.8778,9968.214 1411.5969,1276.595 3078.2277,2238.825 4889.5901,2823.007 0,0 -674.7118,-4477.377 4125.2877,-12791.221 z m 0,0 c -9272.8879,2484.663 -13423.233887,674.16 -13423.233887,674.16 95.460877,1900.84 593.544407,3759.713 1461.292187,5453.617 0,0 2689.0538,-3643.114 11961.9417,-6127.777 z m 0,0 C 5126.1366,8640.0035 3471.7657,4425.1253 3471.7657,4425.1253 2195.1705,5836.7224 1232.9409,7503.353 648.75967,9314.7152 c 0,0 4477.37693,-674.7117 12791.22033,4125.2878 z"
     id="path4733"
     inkscape:connector-curvature="0" />
</svg>
