<?xml version="1.0" encoding="UTF-8" standalone="no"?>
<svg
   xmlns:dc="http://purl.org/dc/elements/1.1/"
   xmlns:cc="http://creativecommons.org/ns#"
   xmlns:rdf="http://www.w3.org/1999/02/22-rdf-syntax-ns#"
   xmlns:svg="http://www.w3.org/2000/svg"
   xmlns="http://www.w3.org/2000/svg"
   xmlns:sodipodi="http://sodipodi.sourceforge.net/DTD/sodipodi-0.dtd"
   xmlns:inkscape="http://www.inkscape.org/namespaces/inkscape"
   width="2520"
   height="2520"
   viewBox="0 0 26880 26880"
   id="svg3064"
   version="1.1"
   inkscape:version="0.48.3.1 r9886"
   sodipodi:docname="waterwell.svg">
  <metadata
     id="metadata3072">
    <rdf:RDF>
      <cc:Work
         rdf:about="">
        <dc:format>image/svg+xml</dc:format>
        <dc:type
           rdf:resource="http://purl.org/dc/dcmitype/StillImage" />
        <dc:title></dc:title>
      </cc:Work>
    </rdf:RDF>
  </metadata>
  <defs
     id="defs3070" />
  <sodipodi:namedview
     pagecolor="#ffffff"
     bordercolor="#666666"
     borderopacity="1"
     objecttolerance="6"
     gridtolerance="6"
     guidetolerance="6"
     inkscape:pageopacity="0"
     inkscape:pageshadow="2"
     inkscape:window-width="1600"
     inkscape:window-height="1147"
     id="namedview3068"
     showgrid="true"
     inkscape:snap-grids="false"
     inkscape:zoom="0.2"
     inkscape:cx="906.56025"
     inkscape:cy="1009.7388"
     inkscape:window-x="0"
     inkscape:window-y="0"
     inkscape:window-maximized="1"
     inkscape:current-layer="svg3064"
     showguides="true"
     inkscape:guide-bbox="true"
     inkscape:snap-to-guides="false"
     inkscape:object-paths="true">
    <inkscape:grid
       type="xygrid"
       id="grid3074"
       empspacing="2"
       visible="true"
       enabled="true"
       snapvisiblegridlinesonly="true"
       dotted="false"
       spacingx="315px"
       spacingy="315px"
       color="#00009b"
       opacity="0.1372549"
       empcolor="#00009b"
       empopacity="0.29411765" />
    <inkscape:grid
       type="xygrid"
       id="grid5379"
       empspacing="3"
       visible="true"
       enabled="true"
       snapvisiblegridlinesonly="true"
       color="#9b0000"
       opacity="0.11764706"
       empcolor="#9b0000"
       empopacity="0.39215686"
       spacingx="280px"
       spacingy="280px" />
    <inkscape:grid
       type="xygrid"
       id="grid5381"
       empspacing="2"
       visible="true"
       enabled="true"
       snapvisiblegridlinesonly="true"
       spacingx="252px"
       spacingy="252px"
       empcolor="#009b00"
       empopacity="0.23529412"
       color="#009b00"
       opacity="0.09803922" />
    <inkscape:grid
       type="xygrid"
       id="grid5383"
       empspacing="2"
       visible="true"
       enabled="true"
       snapvisiblegridlinesonly="true"
       spacingx="180px"
       spacingy="180px"
       color="#009b9b"
       opacity="0.07843137"
       empcolor="#009b9b"
       empopacity="0.15686275" />
    <inkscape:grid
       type="xygrid"
       id="grid3019"
       empspacing="5"
       visible="true"
       enabled="true"
       snapvisiblegridlinesonly="true"
       color="#9b0000"
       opacity="0.09803922"
       empcolor="#0000ff"
       empopacity="0"
       dotted="true"
       spacingx="140px"
       spacingy="140px" />
    <inkscape:grid
       type="xygrid"
       id="grid3013"
       empspacing="5"
       visible="true"
       enabled="false"
       snapvisiblegridlinesonly="true"
       spacingx="210px"
       spacingy="210px"
       color="#ff00ff"
       opacity="0.29411765" />
  </sodipodi:namedview>
  <path
     style="fill:#000000;fill-opacity:1;stroke:none"
     d="M 1478.4062,5.15625 C 1398.7047,20.435821 1208.7446,17.726213 1257.7188,140 c 66.2714,14.78124 -4.2582,95.5372 6.7812,144.4375 -0.749,132.852 10.0823,270.53836 1.5938,403.09375 -54.8294,-19.44342 -90.9916,-4.22641 -134.4376,0.75 -144.36483,-29.67838 -99.9101,85.28045 -39.7187,131.59375 -0.9419,99.30242 -1.8706,198.6038 -2.8125,297.9062 -205.78289,12.7595 -607.19132,77.4118 -725.71875,96.5313 -36.27661,60.1136 -23.32173,32.0601 -46.59375,156.5 -24.37344,77.3123 53.49052,64.6995 105.09375,62.6563 58.43217,9.8555 104.83017,-0.9052 90.0625,-66.3126 26.82141,-50.0629 103.47851,-15.358 151.5,-25.6562 l 333.71875,0 c 31.9578,33.9742 48.1353,-0.3542 86.375,81.375 66.3066,83.9899 26.7744,230.7035 40.0625,340.9375 -5.2372,145.0426 1.6302,296.8314 -46.2812,435.0313 -50.7867,10.3703 -77.9756,24.9906 -87.75005,41.1562 L 630,2240 l 0,280 1260,0 0,-280 -374.6562,0 c -5.383,-7.5612 -12.507,-15.647 -21.625,-24.25 -117.7158,-53.8271 -70.2012,-253.9025 -88.375,-366.9688 14.888,-134.9404 -24.789,-302.0731 27.0624,-418.375 3.094,-210.4617 7.6041,-420.9099 6.1563,-631.4062 18.9629,-61.58552 110.1798,-7.49584 118.0937,-62.65625 37.3596,-94.62744 31.3849,-205.14019 79.7188,-292.15625 94.297,76.79562 1.0271,290.03379 30.6562,408.90625 10.9821,317.69935 129.5305,625.11985 351.875,856.56245 42.3102,64.7851 -0.7323,207.4037 143.375,133.0626 41.399,-139.9457 -6.6292,-201.3281 -86.875,-303.7188 -193.9431,-178.342 -270.1883,-531.8998 -281.9374,-779.8125 -7.7465,-137.73626 8.176,-289.42058 -57.5938,-416.875 C 1759.8438,188.46071 1643.8584,5.9517932 1478.4062,5.15625 z m -34.5312,120.8125 c 182.1022,3.30952 194.7229,182.46138 70.2812,280.5625 -83.8877,78.1644 4.9283,322.63735 -148,284.5 -2.4249,-95.36529 9.3516,-232.52943 2.8126,-351.0625 36.2867,-94.98671 -72.0595,-208.82276 74.9062,-214 z M 379.15625,1570 c 0,0 -113.12954,188.4317 -117.59375,272.1562 -2.31382,43.3949 43.34144,129.1415 86.78125,130.3438 47.64213,1.3186 125.76196,-65.3087 125.46875,-145.7188 C 461.24582,1742.1361 379.15625,1570 379.15625,1570 z"
     transform="scale(10.666667,10.666667)"
     id="path4610"
     inkscape:connector-curvature="0"
     sodipodi:nodetypes="cccccccccccccccccccccccccccccccccccccccccsscc" />
</svg>
