<?xml version="1.0" encoding="UTF-8" standalone="no"?>
<svg
   xmlns:dc="http://purl.org/dc/elements/1.1/"
   xmlns:cc="http://creativecommons.org/ns#"
   xmlns:rdf="http://www.w3.org/1999/02/22-rdf-syntax-ns#"
   xmlns:svg="http://www.w3.org/2000/svg"
   xmlns="http://www.w3.org/2000/svg"
   xmlns:sodipodi="http://sodipodi.sourceforge.net/DTD/sodipodi-0.dtd"
   xmlns:inkscape="http://www.inkscape.org/namespaces/inkscape"
   width="2520"
   height="2520"
   viewBox="0 0 26880 26880"
   id="svg3064"
   version="1.1"
   inkscape:version="0.48.3.1 r9886"
   sodipodi:docname="watermill.svg">
  <metadata
     id="metadata3072">
    <rdf:RDF>
      <cc:Work
         rdf:about="">
        <dc:format>image/svg+xml</dc:format>
        <dc:type
           rdf:resource="http://purl.org/dc/dcmitype/StillImage" />
        <dc:title></dc:title>
      </cc:Work>
    </rdf:RDF>
  </metadata>
  <defs
     id="defs3070" />
  <sodipodi:namedview
     pagecolor="#ffffff"
     bordercolor="#666666"
     borderopacity="1"
     objecttolerance="6"
     gridtolerance="6"
     guidetolerance="6"
     inkscape:pageopacity="0"
     inkscape:pageshadow="2"
     inkscape:window-width="1600"
     inkscape:window-height="1147"
     id="namedview3068"
     showgrid="true"
     inkscape:snap-grids="false"
     inkscape:zoom="0.26"
     inkscape:cx="1346.4482"
     inkscape:cy="1203.1337"
     inkscape:window-x="0"
     inkscape:window-y="0"
     inkscape:window-maximized="1"
     inkscape:current-layer="svg3064"
     showguides="true"
     inkscape:guide-bbox="true"
     inkscape:snap-to-guides="false"
     inkscape:object-paths="true">
    <inkscape:grid
       type="xygrid"
       id="grid3074"
       empspacing="2"
       visible="true"
       enabled="true"
       snapvisiblegridlinesonly="true"
       dotted="false"
       spacingx="315px"
       spacingy="315px"
       color="#00009b"
       opacity="0.1372549"
       empcolor="#00009b"
       empopacity="0.29411765" />
    <inkscape:grid
       type="xygrid"
       id="grid5379"
       empspacing="3"
       visible="true"
       enabled="true"
       snapvisiblegridlinesonly="true"
       color="#9b0000"
       opacity="0.11764706"
       empcolor="#9b0000"
       empopacity="0.39215686"
       spacingx="280px"
       spacingy="280px" />
    <inkscape:grid
       type="xygrid"
       id="grid5381"
       empspacing="2"
       visible="true"
       enabled="true"
       snapvisiblegridlinesonly="true"
       spacingx="252px"
       spacingy="252px"
       empcolor="#009b00"
       empopacity="0.23529412"
       color="#009b00"
       opacity="0.09803922" />
    <inkscape:grid
       type="xygrid"
       id="grid5383"
       empspacing="2"
       visible="true"
       enabled="true"
       snapvisiblegridlinesonly="true"
       spacingx="180px"
       spacingy="180px"
       color="#009b9b"
       opacity="0.07843137"
       empcolor="#009b9b"
       empopacity="0.15686275" />
    <inkscape:grid
       type="xygrid"
       id="grid3019"
       empspacing="5"
       visible="true"
       enabled="true"
       snapvisiblegridlinesonly="true"
       color="#9b0000"
       opacity="0.09803922"
       empcolor="#0000ff"
       empopacity="0"
       dotted="true"
       spacingx="140px"
       spacingy="140px" />
    <inkscape:grid
       type="xygrid"
       id="grid3013"
       empspacing="5"
       visible="true"
       enabled="false"
       snapvisiblegridlinesonly="true"
       spacingx="210px"
       spacingy="210px"
       color="#ff00ff"
       opacity="0.29411765" />
  </sodipodi:namedview>
  <path
     style="font-size:medium;font-style:normal;font-variant:normal;font-weight:normal;font-stretch:normal;text-indent:0;text-align:start;text-decoration:none;line-height:normal;letter-spacing:normal;word-spacing:normal;text-transform:none;direction:ltr;block-progression:tb;writing-mode:lr-tb;text-anchor:start;baseline-shift:baseline;color:#000000;fill:#000000;fill-opacity:1;stroke:none;stroke-width:220.56555176;marker:none;visibility:visible;display:inline;overflow:visible;enable-background:accumulate;font-family:Sans;-inkscape-font-specification:Sans"
     d="M 1257.6875 -6.9375 C 292.90135 -3.5514189 0 846.9375 0 846.9375 L 0 1260 C 272.30769 565.38452 839.99516 279.98797 1257.6875 289.21875 C 1675.3798 298.44952 2239.9878 560.00721 2519.2188 1258.4688 L 2523.0625 839.21875 C 2523.0625 839.21875 2222.4736 -10.323581 1257.6875 -6.9375 z M 1266.9375 488.5 C 1094.3978 488.22783 919.56318 531.90127 759.71875 624.1875 C 497.68931 775.47029 328.66617 1026.8774 272.90625 1302.4688 L 272.78125 1302.6562 L 272.84375 1302.6875 C 225.57617 1536.6025 259.91422 1787.9827 388.3125 2010.375 C 539.59524 2272.4044 790.9711 2441.4277 1066.5625 2497.1875 L 1066.7812 2497.3125 L 1066.8125 2497.25 C 1300.7275 2544.5174 1552.0765 2510.1796 1774.4688 2381.7812 C 2036.4982 2230.4986 2205.5527 1979.1226 2261.3125 1703.5312 L 2261.4062 1703.3125 L 2261.375 1703.2812 C 2308.6425 1469.3663 2274.3045 1218.0172 2145.9062 995.625 C 1994.6235 733.59553 1743.2164 564.54107 1467.625 508.78125 L 1467.4375 508.6875 L 1467.4062 508.71875 C 1401.6177 495.42474 1334.453 488.6065 1266.9375 488.5 z M 1266.2812 651.0625 C 1307.1872 651.023 1347.9265 653.92957 1388.1875 659.71875 L 1069.0938 1268.0625 L 902.40625 733.59375 C 1019.3936 677.91453 1143.5634 651.18101 1266.2812 651.0625 z M 1551.5312 700 C 1706.5741 754.89375 1846.466 854.81867 1949.9062 994.1875 L 1297.4375 1197.6562 L 1291.9688 1194.7812 L 1551.5312 700 z M 758.3125 820.1875 L 961.78125 1472.625 L 958.90625 1478.125 L 464.125 1218.5625 C 519.01882 1063.5199 618.94356 923.62762 758.3125 820.1875 z M 2036.5 1138.2812 C 2110.7388 1294.2643 2133.5317 1463.0499 2110.375 1624.0938 L 1502.0312 1304.9688 L 2036.5 1138.2812 z M 1281.5 1373.75 L 1282.9688 1374.5 L 1365.2812 1417.6562 L 1367.375 1424.4062 L 1396.3438 1517.4062 L 1395.5938 1518.875 L 1352.4375 1601.1562 L 1345.6875 1603.25 L 1252.6875 1632.25 L 1251.2188 1631.4688 L 1168.9375 1588.3125 L 1166.8438 1581.5625 L 1137.8438 1488.5938 L 1138.625 1487.125 L 1181.7812 1404.8125 L 1188.5312 1402.7188 L 1281.5 1373.75 z M 423.84375 1381.9062 L 1032.1875 1701 L 497.6875 1867.6875 C 423.44863 1711.7047 400.68707 1542.9503 423.84375 1381.9062 z M 1575.3125 1527.875 L 2070.0938 1787.4375 C 2015.1999 1942.4803 1915.2752 2082.341 1775.9062 2185.7812 L 1572.4375 1533.3438 L 1575.3125 1527.875 z M 1465.125 1737.9062 L 1631.8125 2272.4062 C 1475.8296 2346.6449 1307.044 2369.4067 1146 2346.25 L 1465.125 1737.9062 z M 1236.7812 1808.3125 L 1242.25 1811.2188 L 982.65625 2306 C 827.6136 2251.1061 687.75263 2151.1503 584.3125 2011.7812 L 1236.7812 1808.3125 z "
     transform="scale(10.666667,10.666667)"
     id="path5450" />
</svg>
