<?xml version="1.0" encoding="UTF-8" standalone="no"?>
<svg
   xmlns:dc="http://purl.org/dc/elements/1.1/"
   xmlns:cc="http://creativecommons.org/ns#"
   xmlns:rdf="http://www.w3.org/1999/02/22-rdf-syntax-ns#"
   xmlns:svg="http://www.w3.org/2000/svg"
   xmlns="http://www.w3.org/2000/svg"
   xmlns:sodipodi="http://sodipodi.sourceforge.net/DTD/sodipodi-0.dtd"
   xmlns:inkscape="http://www.inkscape.org/namespaces/inkscape"
   width="2520"
   height="2520"
   viewBox="0 0 26880 26880"
   id="svg3064"
   version="1.1"
   inkscape:version="0.48.4 r9939"
   sodipodi:docname="weir.svg">
  <metadata
     id="metadata3072">
    <rdf:RDF>
      <cc:Work
         rdf:about="">
        <dc:format>image/svg+xml</dc:format>
        <dc:type
           rdf:resource="http://purl.org/dc/dcmitype/StillImage" />
        <dc:title />
      </cc:Work>
    </rdf:RDF>
  </metadata>
  <defs
     id="defs3070" />
  <sodipodi:namedview
     pagecolor="#ffffff"
     bordercolor="#666666"
     borderopacity="1"
     objecttolerance="6"
     gridtolerance="6"
     guidetolerance="6"
     inkscape:pageopacity="0"
     inkscape:pageshadow="2"
     inkscape:window-width="1600"
     inkscape:window-height="1147"
     id="namedview3068"
     showgrid="true"
     inkscape:snap-grids="true"
     inkscape:zoom="0.14928528"
     inkscape:cx="-183.0162"
     inkscape:cy="1743.2374"
     inkscape:window-x="0"
     inkscape:window-y="0"
     inkscape:window-maximized="1"
     inkscape:current-layer="svg3064"
     showguides="true"
     inkscape:guide-bbox="true"
     inkscape:snap-to-guides="true"
     inkscape:object-paths="true">
    <inkscape:grid
       type="xygrid"
       id="grid3074"
       empspacing="2"
       visible="true"
       enabled="true"
       snapvisiblegridlinesonly="true"
       dotted="false"
       spacingx="315px"
       spacingy="315px"
       color="#00009b"
       opacity="0.1372549"
       empcolor="#00009b"
       empopacity="0.29411765" />
    <inkscape:grid
       type="xygrid"
       id="grid5379"
       empspacing="3"
       visible="true"
       enabled="true"
       snapvisiblegridlinesonly="true"
       color="#9b0000"
       opacity="0.11764706"
       empcolor="#9b0000"
       empopacity="0.39215686"
       spacingx="280px"
       spacingy="280px" />
    <inkscape:grid
       type="xygrid"
       id="grid5381"
       empspacing="2"
       visible="true"
       enabled="true"
       snapvisiblegridlinesonly="true"
       spacingx="252px"
       spacingy="252px"
       empcolor="#009b00"
       empopacity="0.23529412"
       color="#009b00"
       opacity="0.09803922" />
    <inkscape:grid
       type="xygrid"
       id="grid5383"
       empspacing="2"
       visible="true"
       enabled="true"
       snapvisiblegridlinesonly="true"
       spacingx="180px"
       spacingy="180px"
       color="#009b9b"
       opacity="0.07843137"
       empcolor="#009b9b"
       empopacity="0.15686275" />
    <inkscape:grid
       type="xygrid"
       id="grid3019"
       empspacing="5"
       visible="true"
       enabled="true"
       snapvisiblegridlinesonly="true"
       color="#9b0000"
       opacity="0.09803922"
       empcolor="#0000ff"
       empopacity="0"
       dotted="true"
       spacingx="140px"
       spacingy="140px" />
    <inkscape:grid
       type="xygrid"
       id="grid3013"
       empspacing="5"
       visible="true"
       enabled="false"
       snapvisiblegridlinesonly="true"
       spacingx="210px"
       spacingy="210px"
       color="#ff00ff"
       opacity="0.29411765" />
    <sodipodi:guide
       orientation="0,1"
       position="451.42857,771.42857"
       id="guide5329" />
  </sodipodi:namedview>
  <path
     style="fill:#000000;fill-opacity:1;fill-rule:evenodd"
     d="M 341.53125 311.59375 C 339.70518 311.59262 337.88336 311.61085 336.0625 311.65625 C 223.16648 314.47246 117.85198 399.34032 9 398.65625 C 7.9493166 398.62905 6.8939684 398.51276 5.84375 398.46875 L 5.84375 651.5 C 117.21726 650.71701 224.97876 561.75334 341.0625 564.5 C 458.48565 568.21341 585.52444 662.60969 700.53125 669.09375 C 813.99767 672.68152 933.56776 590.04578 1016.7812 589.34375 C 1061.3494 588.91869 1094.4681 607.22863 1123.2812 626.25 C 1140.1029 643.39793 1157.9697 663.27336 1176.4375 686.9375 C 1203.8939 789.41908 1185.1057 934.16286 1218.625 1049.25 C 1255.0707 1162.297 1275.9538 1209.3543 1312.3125 1325.3125 C 1313.8515 1330.3276 1338.4742 1399.0235 1349.4375 1430.7188 C 1348.9457 1430.6684 1348.4344 1430.6201 1347.9375 1430.5625 L 1347.9375 1684.125 C 1349.9576 1684.2902 1352.0007 1684.3997 1354.0312 1684.5 C 1460.0077 1688.825 1569.4157 1611.3127 1682.8438 1617.2812 C 1794.7023 1622.713 1906.7501 1714.5293 2021.0312 1717.6875 C 2133.395 1718.3732 2241.6354 1627.9388 2358.6875 1630.6875 C 2413.3906 1632.2052 2470.227 1653.8182 2526.9375 1677.0938 L 2526.9375 1421.6875 C 2472.2684 1399.5429 2417.5352 1379.5116 2364.8125 1377.8438 C 2247.7595 1375.1052 2139.1452 1465.8733 2026.7812 1465.1875 C 1912.5 1462.0397 1800.6085 1370.1927 1688.75 1364.75 C 1685.2058 1364.5342 1681.8174 1364.2736 1678.2812 1364.2188 C 1674.8552 1364.1644 1671.5439 1364.1305 1668.125 1364.2188 C 1637.5159 1365.0085 1607.1411 1371.3132 1577.0625 1379.75 C 1573.0529 1358.0921 1566.6574 1332.1079 1557.5312 1301 C 1521.1724 1185.0418 1462.852 1085.3278 1426.4062 972.28125 C 1392.8867 857.19345 1438.391 724.8467 1410.9375 622.375 C 1395.3655 558.4675 1371.5524 515.35586 1345.2188 485.78125 C 1339.2204 472.16732 1314.7815 447.58574 1254.3438 405.375 C 1184.3914 348.09259 1103.8646 335.11722 1022.5938 336.84375 C 939.37112 337.54513 820.09142 420.21343 706.625 416.625 C 591.61818 410.14106 464.45439 315.36971 347.03125 311.65625 C 345.20219 311.61329 343.35733 311.59437 341.53125 311.59375 z M 818.21875 814.5 C 738.85255 815.01255 639.45277 834.13781 514 864.5 C 410.4817 864.31355 139.05809 868.55695 5.84375 872.8125 L 5.84375 2272.5 L 1194.8438 2272.5 C 1131.6911 1126.2605 1145.2075 812.38825 818.21875 814.5 z M 1701.3125 1877 C 1593.5059 1877.5851 1489.0295 1948.562 1387.9688 1944.4375 C 1383.912 1944.2174 1379.9538 1943.8083 1375.9375 1943.3438 L 1375.9375 2196.9375 C 1377.9572 2197.1028 1380.0319 2197.3682 1382.0625 2197.4688 C 1488.039 2201.7936 1597.5407 2124.0634 1710.9688 2130.0312 C 1822.8273 2135.4632 1934.7191 2227.3105 2049 2230.4688 C 2161.3639 2231.154 2269.8227 2140.6881 2386.875 2143.4375 C 2432.5218 2144.7039 2479.6386 2160.0816 2526.9375 2178.625 L 2526.9375 1923.4062 C 2481.6836 1906.0559 2436.6846 1891.9749 2393 1890.5938 C 2275.9472 1887.8547 2167.3323 1978.6227 2054.9688 1977.9375 C 1940.6873 1974.7897 1828.7961 1882.9736 1716.9375 1877.5312 C 1713.3935 1877.315 1710.0046 1877.0553 1706.4688 1877 C 1704.7557 1876.9733 1703.0236 1876.9902 1701.3125 1877 z "
     transform="scale(10.666667,10.666667)"
     id="path121" />
</svg>
