<?xml version="1.0" encoding="UTF-8" standalone="no"?>
<svg
   xmlns:dc="http://purl.org/dc/elements/1.1/"
   xmlns:cc="http://creativecommons.org/ns#"
   xmlns:rdf="http://www.w3.org/1999/02/22-rdf-syntax-ns#"
   xmlns:svg="http://www.w3.org/2000/svg"
   xmlns="http://www.w3.org/2000/svg"
   xmlns:sodipodi="http://sodipodi.sourceforge.net/DTD/sodipodi-0.dtd"
   xmlns:inkscape="http://www.inkscape.org/namespaces/inkscape"
   width="2520"
   height="2520"
   viewBox="0 0 26880 26880"
   id="svg3064"
   version="1.1"
   inkscape:version="0.48.3.1 r9886"
   sodipodi:docname="zoo.svg">
  <metadata
     id="metadata3072">
    <rdf:RDF>
      <cc:Work
         rdf:about="">
        <dc:format>image/svg+xml</dc:format>
        <dc:type
           rdf:resource="http://purl.org/dc/dcmitype/StillImage" />
        <dc:title></dc:title>
      </cc:Work>
    </rdf:RDF>
  </metadata>
  <defs
     id="defs3070" />
  <sodipodi:namedview
     pagecolor="#ffffff"
     bordercolor="#666666"
     borderopacity="1"
     objecttolerance="6"
     gridtolerance="6"
     guidetolerance="6"
     inkscape:pageopacity="0"
     inkscape:pageshadow="2"
     inkscape:window-width="1600"
     inkscape:window-height="1147"
     id="namedview3068"
     showgrid="true"
     inkscape:snap-grids="true"
     inkscape:zoom="0.34307206"
     inkscape:cx="1184.2388"
     inkscape:cy="1294.4638"
     inkscape:window-x="0"
     inkscape:window-y="0"
     inkscape:window-maximized="1"
     inkscape:current-layer="svg3064">
    <inkscape:grid
       type="xygrid"
       id="grid3074"
       empspacing="2"
       visible="true"
       enabled="true"
       snapvisiblegridlinesonly="true"
       dotted="false"
       spacingx="315px"
       spacingy="315px"
       color="#00009b"
       opacity="0.1372549"
       empcolor="#00009b"
       empopacity="0.29411765" />
    <inkscape:grid
       type="xygrid"
       id="grid5379"
       empspacing="3"
       visible="true"
       enabled="true"
       snapvisiblegridlinesonly="true"
       color="#9b0000"
       opacity="0.11764706"
       empcolor="#9b0000"
       empopacity="0.39215686"
       spacingx="280px"
       spacingy="280px" />
    <inkscape:grid
       type="xygrid"
       id="grid5381"
       empspacing="2"
       visible="true"
       enabled="true"
       snapvisiblegridlinesonly="true"
       spacingx="252px"
       spacingy="252px"
       empcolor="#009b00"
       empopacity="0.23529412"
       color="#009b00"
       opacity="0.09803922" />
    <inkscape:grid
       type="xygrid"
       id="grid5383"
       empspacing="2"
       visible="true"
       enabled="true"
       snapvisiblegridlinesonly="true"
       spacingx="180px"
       spacingy="180px"
       color="#009b9b"
       opacity="0.07843137"
       empcolor="#009b9b"
       empopacity="0.15686275" />
    <inkscape:grid
       type="xygrid"
       id="grid3019"
       empspacing="5"
       visible="true"
       enabled="true"
       snapvisiblegridlinesonly="true"
       color="#9b0000"
       opacity="0.09803922"
       empcolor="#0000ff"
       empopacity="0"
       dotted="true"
       spacingx="140px"
       spacingy="140px" />
  </sodipodi:namedview>
  <path
     style="fill:#000000"
     d="m 16699.478,3936.6617 c -213.437,1.4933 -426.473,19.4243 -638.18,45.7909 -190.727,24.2102 -380.907,55.904 -567.453,102.9012 -129.4,31.9797 -258.825,65.467 -383.154,113.9698 -137.975,53.4082 -269.531,121.6723 -401.184,188.9046 -95.637,49.5362 -191.955,97.4882 -290.175,141.6907 -296.343,134.0484 -604.977,240.5606 -919.909,321.7983 -525.085,135.9643 -1064.977,205.6917 -1605.207,245.645 -269.761,19.6597 -540.037,32.0751 -810.424,38.704 -218.167,4.5873 -437.027,0.5984 -653.851,-25.8302 -256.696,-30.4807 -509.7782,-85.7273 -761.9843,-141.2123 -356.4091,-79.1453 -713.3988,-156.9861 -1073.5747,-217.4581 -242.7276,-40.4244 -486.9762,-70.9064 -732.6075,-86.8196 -190.9467,-12.6809 -382.2842,-19.383 -573.6383,-21.0109 -432.9292,-2.5408 -867.2538,32.8699 -1290.3817,126.3909 -348.2407,76.7451 -688.1224,191.483 -1011.1852,342.4087 -386.1744,180.9912 -745.8521,417.7027 -1066.9288,698.2753 -366.8568,320.0249 -683.6432,695.2164 -951.5464,1101.2388 -317.989,481.1978 -568.9553,1004.3704 -770.4515,1544.1464 -72.4948,194.8518 -138.2343,392.0997 -200.9438,590.3053 -44.275,140.801 -84.4929,282.8172 -120.232,426.0396 -44.7061,177.4214 -87.4002,355.4369 -126.7943,534.0749 -51.4616,235.401 -93.8581,472.998 -121.2735,712.414 -40.0284,345.647 -54.2037,693.598 -65.3954,1041.171 -7.6042,255.061 -13.5714,510.169 -22.075,765.204 -14.3398,448.522 -34.0674,896.88 -60.8498,1344.836 -18.1476,306.577 -37.695,613.077 -59.8932,919.39 -31.3124,425.879 -68.0982,851.665 -124.7917,1274.949 -51.4907,381.357 -122.0635,760.81 -229.3779,1130.642 -28.0106,96.887 -56.2769,193.79 -81.49862,291.53 -103.78566,395.727 -177.33496,800.136 -205.39748,1208.573 -12.15556,173.06 -15.93097,346.635 -13.65354,520.088 0.46504,56.267 0.11214,112.594 1.37282,168.822 -0.32685,3.638 4.71158,5.688 6.10546,1.845 5.08554,-13.6 6.81053,-28.345 10.70317,-42.368 21.23641,-91.782 43.34926,-183.436 72.27102,-273.104 52.14662,-166.044 112.93775,-329.12 172.80307,-492.529 55.6338,-149.87 110.5519,-300.022 158.0785,-452.686 62.7502,-199.765 113.7474,-403.191 153.5277,-608.761 37.8761,-193.551 66.8184,-388.69 94.9255,-583.855 11.1607,-75.189 23.9481,-150.13 35.9215,-225.185 26.4022,-188.687 48.5399,-377.883 71.4586,-567.033 51.5757,-429.21 100.2125,-858.77 146.1142,-1288.623 51.9267,-479.044 104.7833,-958.004 163.5316,-1436.266 24.1277,-197.836 52.2719,-395.491 76.656,-593.206 1.9613,-14.473 3.1339,-29.148 4.9047,-43.571 1.3346,-5.808 8.1671,-2.294 11.3206,-0.128 20.3105,16.149 35.0397,38.644 49.3206,60.101 22.1174,34.114 41.6419,70.631 69.6404,100.263 3.744,4.306 9.5487,4.526 13.9281,7.6 11.3138,12.318 16.8202,28.592 23.4923,43.642 20.795,54.773 34.6873,111.824 48.5454,168.717 25.3069,106.884 44.2102,215.261 61.8087,323.698 11.4394,64.792 30.0708,128.069 51.0355,190.375 14.3141,42.296 32.0987,83.329 50.422,124.02 55.1472,127.594 96.6038,262.139 110.6274,400.846 17.2798,163.293 2.0182,327.969 -20.7246,489.882 -14.528,99.148 -29.8356,198.188 -42.7256,297.57 -15.2419,111.817 -28.1081,223.94 -39.7158,336.216 -35.758,328.796 -71.3904,657.866 -112.8066,985.845 -6.7325,53.593 -14.6027,107.065 -25.602,159.963 -22.2658,117.262 -36.8844,235.824 -59.5747,353.009 -38.4467,203.663 -85.3515,405.531 -134.4961,606.865 -73.1732,298.026 -153.3527,594.364 -240.8669,888.443 -60.9099,204.062 -127.6303,406.333 -199.4809,606.753 -112.7941,315.865 -234.4875,628.424 -362.7248,938.292 -74.0271,178.422 -150.0631,356.035 -230.11409,531.776 -100.05045,215.699 -204.28904,429.42 -308.23099,643.272 -123.43714,253.099 -247.51761,506.043 -375.48502,756.965 -43.22884,84.281 -90.32092,166.567 -133.79306,250.771 -41.163749,79.565 -81.653243,159.642 -115.69855,242.523 -9.403586,23.681 -19.2587822,47.782 -21.94149,73.298 -0.70178171,7.394 3.8415135,14.593 11.288738,16.153 36.840507,15.311 75.617899,24.689 113.801242,35.973 176.35567,48.756 354.29173,91.607 532.66551,132.286 124.16946,28.289 249.03758,54.81 375.59331,70.236 145.5983,18.414 292.1899,28.615 438.574,39.066 143.0064,9.714 286.0575,18.936 429.1935,26.489 102.4679,3.849 206.9086,2.73 306.3566,-24.725 64.1464,-18.043 124.5882,-50.83 171.5252,-98.419 28.867,-28.394 53.3634,-63.802 59.1867,-104.764 8.4953,-52.392 -3.39,-105.219 -14.8804,-156.158 -20.9142,-88.001 -54.1175,-172.808 -71.2262,-261.684 -9.4793,-51.365 -9.6696,-103.977 -5.5306,-155.952 11.1946,-164.817 46.5924,-326.817 88.0501,-486.372 67.2063,-254.741 153.9495,-503.866 247.5076,-750.041 82.5914,-216.723 172.2054,-430.752 264.8342,-643.401 68.5092,-165.432 130.1672,-333.607 192.9621,-501.288 37.9266,-101.588 74.3273,-203.753 113.2063,-304.979 51.7535,-132.082 108.331,-262.337 172.8216,-388.648 21.3511,-40.995 42.4807,-82.502 70.8126,-119.227 3.2681,-3.714 7.1699,-9.199 12.2428,-9.667 7.0697,6.688 9.7812,16.754 14.0318,25.275 22.9269,54.261 39.474,110.883 57.4996,166.938 47.1429,152.031 91.1882,304.96 134.4641,458.082 31.5474,119.599 57.5634,240.486 80.6434,361.98 18.0731,98.705 37.9943,197.03 61.9163,294.478 54.647,225.801 123.0188,447.893 191.8176,669.705 72.641,230.958 144.8617,462.86 187.6712,701.518 31.2771,171.599 45.7078,346.003 48.0078,520.362 0.9257,191.336 -6.3335,382.637 -17.5687,573.62 -9.2402,160.861 -22.7293,321.482 -41.4732,481.522 -0.9641,8.846 -1.9442,17.69 -2.8622,26.542 66.4266,10.882 133.1394,19.266 200.0659,26.271 172.8693,19.032 346.0944,34.775 518.7585,55.679 217.6224,25.36 434.8205,53.863 651.8621,83.97 214.1524,28.577 428.5784,56.612 644.2678,70.984 128.7864,8.14 259.056,11.567 386.9792,-7.082 104.307,-15.785 206.3547,-49.64 297.5209,-102.861 89.5145,-53.241 167.724,-125.597 226.9998,-211.198 38.282,-55.967 69.1195,-119.277 76.7635,-187.361 3.6467,-33.865 -1.1857,-68.294 -14.422,-99.622 -26.909,-69.643 -66.1629,-133.567 -106.5425,-196.143 -63.2076,-96.366 -133.8438,-188.053 -212.9696,-271.857 -49.6107,-51.163 -102.8305,-98.533 -153.644,-148.496 -74.6981,-72.079 -149.9943,-144.026 -212.8325,-226.793 -47.845,-63.913 -85.085,-135.097 -116.5857,-208.327 -46.5897,-106.489 -86.2886,-215.732 -128.5217,-324.024 -141.6985,-369.623 -268.136,-745.769 -359.3039,-1131.276 -65.2486,-275.071 -112.5316,-554.508 -142.3914,-835.625 -36.8452,-341.444 -49.2672,-685.014 -52.1049,-1028.272 -1.9587,-201.293 -1.7034,-402.895 13.4532,-603.738 10.8577,-140.043 31.2144,-279.227 62.0142,-416.363 16.8588,-77.047 34.1148,-154.367 58.1637,-229.541 30.4364,-92.046 72.1738,-179.922 112.6616,-267.995 28.6416,-60.579 58.5324,-122.132 104.0863,-172.048 36.5872,-39.384 84.7227,-66.535 135.2755,-84.402 75.4249,-27.612 154.6546,-43.458 232.907,-60.989 72.2531,-15.873 145.32,-30.342 214.8175,-56.115 48.1066,-18.496 93.0977,-46.47 128.2012,-84.597 51.5831,-54.421 89.1357,-119.995 127.0572,-184.405 50.8119,-87.607 96.8683,-178.12 148.3013,-265.302 45.861,-76.609 97.7399,-152.347 170.3928,-206.117 64.3593,-46.828 140.7291,-74.705 217.7786,-93.349 122.3294,-28.358 249.2876,-26.548 373.9831,-18.954 138.7064,8.718 276.4437,28.168 414.2844,44.498 236.8305,26.774 476.6564,40.387 714.2304,14.764 161.9161,-17.15 321.3437,-53.019 477.4491,-98.848 237.3414,-68.484 471.8026,-146.981 705.3218,-227.41 286.804,-99.072 571.669,-203.671 855.787,-310.155 314.813,-116.414 630.648,-230.2 951.357,-329.405 200.672,-61.654 403.567,-117.817 610.638,-153.588 67.235,-11.55 135.52,-17.881 203.814,-15.361 108.839,3.027 216.648,20.115 325.327,25.699 59.872,3.382 119.993,5.938 179.901,2.167 31.053,-2.903 61.687,-10.021 92.536,-14.213 2.489,-0.606 4.977,-1.528 7.568,-1.495 -14.083,77.968 -24.962,156.45 -35.344,234.982 -33.633,249.34 -62.357,499.343 -98.213,748.378 -10.597,62.24 -14.242,125.358 -20.416,188.156 -13.7,157.238 -26.033,314.602 -36.5,472.089 -13.422,210.803 -18.996,422.576 -3.422,633.429 17.676,250.88 58.018,499.356 99.24,747.252 19.451,113.118 39.298,226.33 52.38,340.347 19.709,162.529 30.439,326.082 33.587,489.755 2.803,107.525 2.571,215.889 -15.799,322.147 -17.113,104.751 -41.722,208.085 -60.507,312.532 -64.845,343.972 -116.33,690.278 -166.242,1036.679 -35.182,247.685 -69.026,495.578 -108.444,742.638 -65.783,415.306 -141.741,829.768 -254.88,1235.069 -26.207,93.216 -53.572,186.349 -84.547,278.081 -29.763,84.916 -69.123,166.089 -115.464,243.067 -64.917,109.584 -137.808,214.32 -205.645,322.163 -57.262,89.87 -115.035,179.548 -165.928,273.189 -14.79,27.726 -29.829,55.86 -36.887,86.621 -2.227,11.222 1.019,23.157 9.349,31.131 20.887,23.675 50.119,37.821 77.891,51.996 75.304,36.446 155.702,61.249 236.168,83.667 107.732,29.375 218.221,46.543 328.244,64.911 170.555,27.3 341.735,50.767 513.321,70.256 73.162,8.056 146.487,15.649 220.138,16.945 135.642,3.485 271.352,1.516 407,-0.595 218.393,-4.044 436.78,-10.922 654.83,-24.074 71.986,-4.412 143.977,-10.092 215.143,-21.941 133.723,-20.16 267.66,-39.341 400.567,-64.456 29.786,-6.038 60.305,-11.365 88.242,-23.34 6.967,-2.686 13.145,-9.679 10.589,-17.618 -4.212,-30.483 -15.163,-59.526 -24.236,-88.819 -33.167,-99.425 -70.867,-197.408 -113.461,-293.159 -12.535,-28.42 -27.009,-56.007 -46.198,-80.604 -62.406,-86.397 -128.779,-169.914 -194.484,-253.823 -88.932,-112.502 -178.242,-224.848 -271.512,-333.698 -11.687,-13.774 -25.046,-25.979 -38.626,-37.718 -33.265,-32.332 -58.684,-71.531 -82.781,-110.993 -25.68,-43.456 -48.827,-89.101 -62.556,-137.799 -17.654,-69.024 -10.61,-141.792 3.363,-210.867 22.69,-109.806 62.129,-215.355 103.262,-319.469 70.224,-175.101 150.006,-346.051 230.9,-516.445 95.7,-200.402 193.48,-400.002 272.314,-607.776 85.571,-224.36 153.286,-454.917 227.23,-683.255 93.262,-291.85 185.413,-584.097 284.371,-874.082 72.831,-211.672 150.073,-422.01 229.055,-631.52 8.316,-21.25 16.31,-43.072 25.886,-63.544 8.684,1.697 15.569,8.9 22.809,13.853 31.809,26.503 59.671,57.814 87.547,88.393 119.723,134.071 224.447,280.607 323.954,430.173 137.15,207.115 264.573,421.345 379.872,641.405 49.427,94.137 95.268,190.092 144.624,284.275 115.147,222.652 238.58,441.102 372.522,653.012 76.754,121.599 152.66,243.755 217.995,371.838 62.61,121.44 116.144,247.261 166.472,374.292 95.049,238.475 179.488,481.382 245.097,729.635 76.785,287.209 128.234,580.872 160.74,876.26 19.77,176.646 32.804,353.969 42.966,531.404 6.366,94.863 12.158,190.054 24.114,284.297 1.287,5.964 1.384,13.263 5.406,17.871 9.673,5.45 21.33,4.472 31.982,6.636 123.795,14.224 248.46,17.786 372.736,25.758 192.527,12.128 384.769,28.775 576.532,49.755 212.905,21.004 427.807,34.268 641.366,14.898 151.39,-14.109 301.497,-47.626 442.096,-106.084 116.55,-47.971 226.913,-110.196 331.067,-180.978 98.999,-70.129 191.897,-148.443 283.34,-228.082 86.911,-75.953 171.361,-154.798 249.768,-239.573 23.128,-24.45 46.259,-48.897 69.402,-73.331 -135.099,-157.096 -268.815,-315.359 -405.573,-471.007 -164.509,-186.513 -335.866,-367.746 -524.358,-530.33 -103.727,-90.286 -215.437,-172.072 -312.244,-269.902 -59.504,-60.306 -114.772,-127.619 -146.891,-207.051 -11.573,-27.97 -19.781,-57.294 -23.903,-87.475 -10.297,-66.095 -14.924,-132.967 -19.715,-199.687 -8.688,-130.863 -8.522,-262.169 -19.158,-392.921 -11.295,-150.335 -33.007,-299.969 -67.278,-446.799 -42.784,-185.764 -100.844,-367.519 -161.803,-548.008 -67.409,-196.53 -146.062,-389.124 -232.192,-578.174 -151.187,-333.873 -318.746,-659.912 -479.987,-988.977 -132.318,-269.119 -264.191,-538.616 -387.304,-812.164 -99.02,-220.807 -190.44,-445.594 -261.615,-677.083 -60.021,-193.177 -107.402,-390.12 -154.954,-586.792 -54.664,-214.802 -116.667,-427.582 -180.061,-639.927 -89.358,-296.876 -189.274,-590.706 -266.703,-891.009 -42.905,-166.39 -74.914,-336.369 -81.925,-508.467 -8.025,-175.327 2.529,-350.759 11.693,-525.823 9.416,-164.141 19.648,-328.565 42.829,-491.383 16.969,-116.027 43.323,-232.15 96.351,-337.357 35.63,-71.267 86.051,-136.067 151.758,-181.758 47.283,-33.408 100.164,-59.053 155.181,-77.175 66.66,-18.97 136.078,-24.883 204.947,-30.464 163.952,-11.621 328.601,-9.442 492.649,-0.995 136.03,7.521 271.982,19.73 406.23,43.185 114.563,20.849 229.571,42.506 346.313,45.106 83.014,2.256 166.102,-0.885 248.942,-6.224 146.837,-11.172 292.553,-33.241 437.624,-58.194 132.621,-23.289 264.847,-49.446 394.84,-84.721 40.336,-11.396 81.396,-22.71 118.574,-42.141 10.821,-5.803 18.6,-15.887 22.259,-27.507 13.223,-34.344 14.46,-71.943 15.867,-108.435 2.205,-97.442 -8.131,-194.596 -18.675,-291.322 -11.578,-98.224 -28.244,-196.002 -32.903,-294.96 -1.703,-38.925 0.03,-79.26 16.717,-115.064 5.532,-14.491 14.458,-31.04 31.205,-33.979 27.068,-6.221 55.294,-1.57 82.792,-0.654 54.239,3.151 108.311,9.847 160.886,23.708 110.014,27.634 215.232,70.94 319.47,115.134 252.946,108.293 496.888,236.952 750.528,343.804 109.674,46.348 221.747,86.438 336.096,119.614 102.824,30.122 206.475,57.464 307.979,92.068 146,48.707 290.387,108.514 414.792,200.457 106.946,78.693 195.721,178.968 274.965,285.003 75.092,100.133 144.51,204.564 210.836,310.771 249.309,401.653 437.928,837.47 599.87,1280.781 162.418,446.443 299.193,901.863 427.151,1359.231 76.213,272.845 148.05,546.877 219.766,820.927 161.964,616.247 323.499,1232.612 486.002,1848.715 56.801,207.403 116.978,413.903 169.523,622.451 106.545,416.995 200.321,837.071 285.966,1258.811 71.8,355.12 137.802,711.516 191.356,1069.877 28.004,191.79 52.969,384.016 76.741,576.324 31.272,256.603 59.745,513.738 74.461,771.895 7.98,147.301 11.97,295.357 -1.565,442.46 -4.867,52.104 -13.773,103.757 -24.753,154.933 -12.906,69.022 -25.802,138.708 -24.463,209.204 0.863,24.515 3.395,50.929 18.504,71.105 12.179,13.837 31.543,16.407 48.576,20.169 50.311,8.503 101.563,-1.088 150.647,-12.315 95.819,-22.52 187.263,-59.504 280.151,-91.461 74.957,-25.026 150.717,-48.39 228.541,-62.448 37.19,-5.428 75.761,-1.069 112.825,-8.394 6.157,-2.796 1.889,-10.106 0.731,-14.534 -18.787,-60.441 -42.452,-119.468 -55.108,-181.637 -29.387,-132.331 -42.316,-267.655 -53.173,-402.633 -18.575,-241.573 -21.219,-483.942 -29.972,-725.974 -32.932,-974.405 -90.128,-1948.072 -176.292,-2919.246 -61.967,-696.415 -138.895,-1391.591 -238.782,-2083.606 -39.965,-274.792 -83.993,-548.973 -127.464,-823.228 -82.811,-518.856 -170.143,-1037.005 -264.701,-1553.856 -78.62,-432.631 -162.45,-864.293 -242.864,-1296.591 -10.641,-58.255 -21.762,-116.585 -31.686,-174.872 7.051,-6.751 17.221,-10.586 26.305,-14.571 76.25,-30.956 155.81,-52.596 235.467,-72.94 136.292,-32.7 274.776,-55.521 412.629,-80.776 142.296,-25.224 285.594,-48.204 423.106,-93.63 68.8,-23.488 135.732,-53.722 196.374,-93.98 52.831,-38.818 95.391,-90.111 130.693,-145.04 19.551,-31.587 38.008,-65.568 42.633,-102.928 1.428,-9.8 -3.336,-19.562 -11.564,-24.839 -18.973,-14.314 -42.847,-19.617 -65.34,-26.029 -71.762,-18.203 -145.458,-27.363 -218.693,-37.675 -202.494,-26.745 -406.442,-42.444 -608.606,-71.797 -134.016,-19.173 -268.01,-41.983 -398.065,-79.844 -93.479,-27.502 -184.958,-65.231 -263.655,-123.078 -47.045,-33.098 -89.089,-73.995 -118.473,-123.715 -41.472,-68.001 -68.908,-143.418 -97.115,-217.792 -43.538,-118.441 -84.707,-237.734 -127.892,-356.306 -81.201,-224.28 -162.809,-448.412 -243.714,-672.799 -146.247,-404.088 -294.147,-807.7403 -455.924,-1205.8895 -69.023,-169.7937 -141.504,-338.0713 -218.42,-504.3528 -22.57,-50.0446 -45.561,-100.0303 -65.784,-151.0159 -6.425,-23.7945 -18.824,-45.4027 -28.39,-68.086 -48.403,-103.8646 -99.99,-206.1743 -151.063,-308.7548 -79.286,-157.8418 -159.482,-315.3186 -243.312,-470.7502 -148.382,-272.309 -311.474,-536.503 -485.899,-792.8836 -142.808,-209.4567 -293.389,-413.6394 -456.429,-607.853 -98.408,-116.8433 -203.242,-228.1513 -311.286,-336.1168 -168.315,-167.8204 -349.269,-323.9427 -547.726,-455.2203 -202.298,-134.6332 -420.541,-243.5614 -644.022,-338.2485 -151.562,-64.2866 -305.402,-123.1356 -460.473,-178.3901 -111.08,-39.0268 -225.036,-70.9486 -341.734,-87.9239 -142.749,-21.9367 -287.104,-30.9963 -431.071,-41.4609 -196.017,-13.6438 -392.145,-26.4103 -587.745,-45.2556 -69.105,-8.4029 -136.414,-28.2039 -202.066,-50.7609 -91.439,-32.5299 -179.624,-74.0958 -262.819,-123.9327 -49.065,-30.216 -97.905,-60.9851 -148.529,-88.6966 -170.376,-95.4734 -347.621,-178.1586 -526.764,-255.7352 -239.021,-102.8053 -482.509,-195.4526 -730.496,-274.2899 -140.518,-44.2553 -282.572,-84.763 -427.673,-110.9568 -75.673,-13.4342 -152.508,-18.8198 -229.313,-20.1363 -23.486,-0.4814 -46.977,-0.6766 -70.467,-0.564 z"
     id="path3101"
     inkscape:connector-curvature="0" />
  <path
     style="fill:#000000"
     d="m 16681.875,4275.375 c -186.686,1.175 -373.076,15.6327 -558.5,36.6875 -182.462,21.323 -364.539,49.1105 -543.781,89.6875 -95.218,22.4393 -190.305,45.9284 -284.25,73.125 -104.702,29.995 -206.818,68.5784 -305.625,114.3125 -124.579,57.0576 -245.446,121.7519 -367.781,183.4063 -301.075,150.396 -616.874,270.8885 -940.563,362.9062 -509.666,145.1641 -1036.101,222.7009 -1563.344,267.9688 -297.06,25.369 -594.947,40.4029 -892.937,49.0937 -219.918,5.9881 -440.559,5.0133 -659.5,-18.8125 -250.876,-26.6477 -498.237,-79.1208 -744.4378,-132.8438 -326.994,-72.7574 -654.367,-144.7777 -984.1874,-203.9062 -252.5703,-45.2834 -506.9283,-80.9898 -762.8438,-100.5312 -193.1267,-14.9108 -386.7808,-22.491 -580.4375,-25.6563 -409.4465,-5.6383 -820.4239,22.047 -1222.5313,101.5313 -348.9053,68.592 -690.1722,176.2435 -1015.2812,320.1874 -359.0053,159.2362 -696.2399,366.948 -1001.1875,614.3126 -364.0433,294.7574 -681.6744,644.6628 -952.3125,1026.4687 -345.9051,487.7434 -616.9112,1025.6004 -832.125,1582.625 -67.806,174.9716 -129.246,352.2641 -187.375,530.6563 -54.3347,164.884 -105.1783,330.9361 -148.5,499.0624 -39.8721,154.0829 -77.1097,308.8327 -113.0625,463.8748 -57.4106,248.569 -106.7593,499.334 -138.8125,752.563 -42.9436,334.766 -58.9342,672.345 -70.75,1009.468 -7.7082,230.079 -12.6272,460.25 -19.875,690.344 -12.9439,433.549 -30.1695,866.966 -54.5625,1300.032 -17.5686,313.742 -37.458,627.351 -59.0313,940.843 -28.9244,409.995 -62.0992,819.864 -111.7187,1227.938 -48.0137,393.399 -113.2933,785.671 -217.0625,1168.531 -29.3718,109.452 -63.1583,217.57 -92.2812,327.125 -96.1395,355.17 -168.4785,717.352 -204.5938,1083.719 -21.5382,215.928 -30.2305,433.066 -27.7188,650.031 0.5335,64.228 0.3886,128.548 1.3438,192.719 1.3374,9.59 5.0221,-4.791 5.5312,-8.282 20.3451,-85.993 39.5724,-172.4 65.2813,-256.937 46.5888,-154.487 102.2721,-305.911 157.4687,-457.5 49.9901,-136.281 101.57,-272.04 147.0938,-409.875 63.4012,-189.685 116.9518,-382.699 159,-578.219 47.7473,-220.279 82.2509,-443.136 114.0938,-666.187 11.8144,-80.321 24.7448,-160.479 38.2187,-240.532 18.6941,-130.25 34.3068,-260.834 50.4687,-391.406 50.1512,-412.857 98.0849,-825.97 142.9376,-1239.437 53.3012,-495.203 107.341,-990.362 166.75,-1484.875 19.0781,-159.105 39.4641,-317.979 60.8437,-476.813 11.6213,-90.038 24.0729,-179.992 34.3437,-270.156 0.4147,-4.976 -0.479,-13.292 5.5626,-15.063 9.6129,0.61 16.2714,9.346 22.875,15.407 36.1228,39.309 57.5536,89.341 90.9374,130.906 6.3156,6.869 11.4123,16.134 20.375,19.594 7.79,0.886 11.5707,9.673 15.5,15.343 18.1906,33.752 28.4379,71.183 39.2813,107.719 32.5684,117.465 55.3067,237.332 75.4687,357.5 6.1724,40.383 12.8686,80.595 23.3438,120.031 19.522,75.521 43.8191,150.157 76.6875,220.907 53.0792,120 94.8062,245.808 112.25,376.187 22.1362,160.67 9.8041,323.924 -11.25,484 -11.6495,85.545 -25.7231,170.738 -37.1875,256.313 -16.5434,119.373 -31.8501,238.842 -44.0312,358.75 -33.4183,308.608 -66.961,617.223 -104.6563,925.343 -8.5843,66.924 -16.0802,134.047 -27.7187,200.563 -19.5038,96.199 -33.7405,193.367 -49.125,290.281 -29.1288,172.193 -66.731,342.752 -106.125,512.813 -75.162,321.061 -159.2619,640.142 -251.25,956.719 -54.8715,188.467 -113.8053,375.87 -178.1563,561.25 -110.2305,318.006 -230.7117,632.405 -357.5,944.093 -84.7556,207.571 -172.3729,414.059 -264.6875,618.313 -84.1316,182.305 -171.9056,362.904 -259.375,543.625 -130.33095,267.857 -261.22713,535.448 -395.8125,801.25 -30.34143,60.068 -61.57091,119.528 -94.21875,178.343 -57.55874,106.722 -114.41854,214.08 -163.28125,325.094 -12.54567,30.669 -26.73714,61.176 -32.75,93.906 -1.14414,6.738 -1.42455,16.312 6.46875,18.969 29.63213,13.06 61.53201,20.911 92.5625,30.375 150.60715,42.392 302.67168,79.488 454.9375,115.406 116.44824,26.795 232.86435,53.915 350.71875,73.938 153.8533,25.279 309.5395,37.172 465,48.875 160.9952,11.557 322.0988,21.643 483.25,30.75 93.9921,4.011 189.3485,4.14 281.6562,-15.813 67.8088,-14.472 133.4698,-43.531 184.9376,-90.593 31.0525,-27.907 59.9492,-61.637 69.5624,-103.281 11.1751,-47.391 2.4834,-96.68 -7.3437,-143.5 -17.7465,-82.622 -47.6509,-161.946 -67.5,-243.969 -12.6542,-50.78 -17.4403,-103.424 -14.6875,-155.75 7.3313,-157.771 38.8645,-313.223 76.9062,-466.125 57.8378,-228.775 132.8669,-452.806 214.3126,-674.156 91.7074,-248.35 192.9642,-493.021 298.9062,-735.626 57.2479,-137.585 109.1568,-277.336 161.5625,-416.843 43.5669,-116.07 85.8275,-232.605 129.0937,-348.781 50.6573,-132.227 106.6814,-262.468 169.625,-389.219 23.3788,-45.582 46.2174,-91.592 75.7813,-133.531 5.8172,-6.826 10.7982,-15.926 19.6563,-19 5.9292,3.023 8.013,10.531 11.3437,16 21.1427,46.746 35.7937,95.971 51.7813,144.656 49.0189,155.857 93.9722,312.965 138.8437,470 29.9363,111.594 54.3018,224.506 76.75,337.812 15.2792,81.856 30.3693,163.812 49.0625,244.938 51.6858,228.336 119.6089,452.504 188.4688,676.125 46.4422,149.446 94.629,298.417 134.7187,449.687 45.2208,168.28 80.4779,339.571 97.5937,513.094 12.0421,119.138 17.5989,238.913 16.5313,358.656 -1.2776,203.029 -10.5488,405.961 -24.375,608.5 -8.0033,116.709 -18.7476,233.199 -32.1875,349.406 -1.3823,12.695 -2.8108,25.395 -4.1562,38.094 50.2143,7.941 100.4315,15.383 151,20.594 137.3515,15.764 275.0195,28.659 412.4687,43.5 252.0884,28.118 503.6273,60.03 754.8437,95.094 206.4288,27.721 413.043,54.907 620.8126,70.687 127.81,9.037 256.6742,14.662 384.3124,0.25 86.9782,-9.764 172.6458,-32.021 252.625,-67.781 106.5493,-46.371 200.1847,-120.926 272.125,-211.906 43.9139,-56.704 81.1526,-120.979 95.4063,-191.969 7.1554,-35.998 6.7704,-74.157 -6.0937,-108.875 -20.9046,-59.319 -52.642,-114.136 -85.375,-167.625 -61.6302,-98.651 -131.4885,-192.227 -209.2188,-278.563 -46.0304,-51.21 -97.8303,-96.86 -147.25,-144.906 -72.0453,-69.496 -145.121,-137.892 -209.2188,-214.75 -50.0969,-59.792 -90.5401,-127.192 -123.25,-197.968 -46.7119,-100.55 -85.0084,-204.794 -125.125,-308.157 -119.6548,-309.173 -229.5684,-622.453 -316.625,-942.437 -81.6847,-298.434 -142.4229,-602.665 -180.9062,-909.656 -44.405,-349.583 -61.2613,-702.346 -65.75,-1054.626 -2.6168,-200.784 -4.1975,-401.794 6.8125,-602.374 8.0798,-148.329 25.7856,-296.11 56.0313,-441.594 16.2831,-77.174 33.0959,-154.365 54.2812,-230.406 27.6979,-99.763 72.1457,-193.708 114.875,-287.688 28.5656,-60.735 56.7079,-122.476 99.3438,-174.844 31.9133,-39.439 74.886,-68.74 121.6562,-88.125 68.4894,-28.533 141.2706,-44.349 213.4062,-60.812 76.0012,-17.101 153.0553,-31.321 227.3126,-55.407 49.0221,-16.048 96.1138,-40.171 133.625,-75.812 51.1882,-48.231 88.172,-109.081 124.1874,-169.062 51.323,-86.866 97.8372,-176.684 147.6563,-264.344 43.5042,-74.436 90.7479,-148.969 156,-205.875 59.3033,-52.053 133.8232,-83.331 209.0937,-104.75 117.4185,-32.983 240.9145,-34.697 362,-28.907 136.8066,6.803 272.7325,24.645 408.4688,41.657 237.4113,28.096 477.7856,44.374 716.3438,20.875 153.021,-14.648 304.0248,-46.313 451.8124,-88.25 216.5355,-61.073 430.3208,-131.704 643.3438,-204.063 300.535,-102.659 599.049,-211.369 896.406,-322.969 300.023,-111.281 600.99,-220.11 906.063,-316.718 192.243,-60.365 386.242,-116.391 583.969,-155.782 82.021,-16.158 164.886,-30.701 248.781,-29.937 96.166,-0.06 191.56,13.368 287.219,21.344 75.427,5.621 151.159,10.261 226.812,7.312 32.834,-1.572 64.96,-9.37 97.438,-14 4.418,0.538 14.939,-4.999 15.5,-0.625 -9.916,56.562 -19.166,113.226 -26.5,170.188 -36.387,263.648 -66.507,528.127 -104,791.625 -4.626,27.614 -8.634,55.244 -11.032,83.156 -15.688,162.705 -28.241,325.705 -40.218,488.719 -15.175,213.145 -24.712,427.18 -12.844,640.75 13.186,245.271 50.55,488.293 90.25,730.437 19.071,117.694 41.628,234.858 56.594,353.188 21.671,165.304 34.495,331.919 38.281,498.656 2.989,107.843 5.181,216.474 -10.875,323.437 -14.893,101.153 -38.816,200.676 -57.438,301.157 -59.061,308.492 -106.463,619.046 -151.968,929.781 -36.62,250.747 -69.841,501.986 -108.688,752.406 -53.971,350.033 -114.234,699.503 -196.531,1044.063 -41.251,171.769 -87.911,342.209 -142.063,510.343 -26.273,80.849 -60.603,159.042 -102.687,232.876 -61.611,109.029 -133.302,212.116 -200.625,317.781 -60.351,94.406 -121.348,188.591 -176.25,286.281 -16.576,31.03 -34.516,61.944 -44.063,95.969 -3.012,10.371 -3.162,22.53 4.25,31.187 15.954,20.611 39.673,33.507 62.063,45.875 64.337,33.484 133.529,56.703 202.906,77.594 70.838,21.236 143.039,37.678 215.844,50.687 183.019,33.17 367.303,59.546 551.781,82.782 85.245,10.239 170.548,20.526 256.219,26.468 111.699,5.466 223.582,4.482 335.375,3.75 229.929,-2.558 459.849,-8.921 689.5,-20.656 82.389,-4.78 165.008,-8.805 246.875,-19.25 138.221,-20.772 276.621,-40.63 414.218,-65.281 35.921,-7.072 72.404,-12.85 106.938,-25.125 6.177,-2.903 15.175,-5.64 16.031,-13.5 -2.127,-24.527 -10.782,-47.91 -17.625,-71.438 -29.657,-91.88 -64.128,-182.225 -101.75,-271.156 -14.125,-31.813 -27.25,-64.36 -45.906,-93.812 -48.6,-69.373 -101.138,-135.964 -152.969,-202.938 -95.188,-121.531 -191.09,-242.54 -290.219,-360.875 -17.624,-20.25 -34.25,-41.658 -53.906,-59.875 -31.204,-25.052 -54.805,-58.643 -77,-91.625 -31.357,-48.613 -59.377,-99.942 -77.406,-155.156 -19.264,-63.895 -15.281,-132.68 -3.906,-197.813 17.774,-98.081 50.809,-192.51 86.031,-285.531 62.435,-161.914 134.797,-319.792 208.344,-476.969 94.563,-201.145 194.876,-399.807 277.687,-606.218 91.862,-227.46 161.423,-462.976 236.5,-696.313 86.679,-271.358 172.488,-542.99 262.938,-813.125 72.748,-216.876 151.339,-431.861 231.25,-646.25 16.603,-43.332 32.156,-87.174 50.562,-129.687 2.572,-3.016 7.418,0.757 10.188,1.906 23.362,14.787 42.08,35.206 61.531,54.594 67.953,71.148 130.053,147.921 189.75,226.219 86.378,114.793 166.535,234.208 243.813,355.343 133.687,210.729 257.501,427.802 367.906,651.688 115.927,231.63 239.171,459.652 374.344,680.656 69.576,114.51 143.843,226.227 209.874,342.781 72.217,125.177 134.464,255.788 189.782,389.25 58.748,142.225 114.118,286.009 164.25,431.438 87.797,254.217 157.8,514.538 207.468,778.875 61.006,322.208 92.649,649.172 111.063,976.375 6.17,94.405 12.107,188.963 22.813,282.937 1.809,10.639 1.959,21.958 5.968,32 6.57,4.625 15.604,3.884 23.219,5.657 74.431,9.208 149.506,13.283 224.375,17.937 105.041,5.232 210.025,11.66 314.875,19.906 129.06,9.871 257.973,21.594 386.625,35.844 195.006,19.634 391.5,32.905 587.438,20.625 150.508,-9.49 300.533,-36.82 442.031,-89.406 129.874,-47.779 251.998,-114.84 366.843,-191.656 85.122,-59.441 165.238,-125.882 244.282,-193.188 88.466,-76.482 175.74,-154.669 256.468,-239.344 32.398,-34.24 64.783,-68.485 97.188,-102.718 -114.865,-133.724 -229.056,-268.042 -344.531,-401.219 -173.221,-198.783 -352.359,-393.343 -551.375,-566.719 -60.148,-53.12 -122.821,-103.225 -184.719,-154.281 -76.264,-64.412 -151.746,-130.705 -213.125,-209.594 -39.782,-51.513 -72.026,-109.977 -88.031,-173.344 -12.088,-58.784 -16.764,-118.89 -21.813,-178.687 -7.672,-95.815 -10.559,-191.902 -13.906,-287.938 -6.58,-166.401 -22.393,-332.667 -55,-496.094 -39.472,-199.755 -100.034,-394.586 -164.188,-587.624 -57.317,-171.288 -123.028,-339.713 -195.531,-505.157 -147.698,-336.583 -315.048,-664.028 -477.469,-993.656 -127.651,-258.903 -254.996,-517.967 -375.75,-780.219 -108.459,-236.25 -210.705,-475.95 -289.593,-723.875 -64.257,-199.968 -113.997,-404.208 -163.031,-608.375 -45.287,-179.521 -96.358,-357.49 -148.5,-535.094 -40.523,-138.018 -83.239,-275.379 -126.594,-412.531 -59.242,-190.303 -118.804,-380.576 -168.219,-573.687 -37.868,-148.217 -67.28,-299.117 -76.875,-452.032 -11.376,-174.316 -1.787,-349.084 7.062,-523.281 8.755,-157.634 18.114,-315.651 37.657,-472.219 15.654,-121.028 38.157,-242.946 89.406,-354.343 32.333,-71.925 78.022,-138.902 140.063,-188.157 50.292,-40.333 108.673,-69.699 169.312,-90.906 58.188,-17.553 119.18,-23.783 179.562,-29.5 147.849,-12.172 296.472,-11.826 444.626,-6.312 150.658,6.289 301.347,18.209 450.187,42.656 102.495,18.328 204.958,38.743 309.063,45.125 91.184,5.71 182.643,2.261 273.781,-2.594 132.288,-9.025 263.579,-27.916 394.375,-49.25 141.15,-23.725 281.906,-50.623 420.468,-86.593 43.742,-12.123 88.116,-23.586 129.313,-42.876 10.747,-5.082 21.539,-11.959 26.125,-23.5 13.196,-28.472 15.405,-60.414 17.594,-91.312 4.024,-86.558 -3.746,-173.129 -12.344,-259.188 -10.576,-107.298 -29.839,-213.522 -36.844,-321.187 -2.074,-42.272 -3.561,-86.526 13.938,-126.063 5.933,-15.396 13.462,-33.683 30.812,-38.562 22.53,-6.43 46.732,-3.338 69.938,-2.469 48.77,2.911 97.375,6.8 145.094,17.657 101.711,22.26 199.303,60.282 295.437,99.874 178.701,74.489 352.544,160.009 527.719,242.407 164.359,76.969 330.221,152.084 503.406,207.156 112.699,36.605 227.778,64.703 340.5,101.219 147.038,47.11 293.514,102.403 421.844,189.5 100.433,67.549 185.764,154.603 261,249.031 72.736,91.31 138.682,187.95 202.375,285.781 264.03,407.89 460.892,855.053 628.25,1310.156 135.35,369.308 252.271,745.286 361.343,1123.094 89.903,311.381 173.623,624.494 255.407,938.094 167.355,636.871 334.418,1273.826 502.156,1910.594 50.925,186.989 105.326,373.018 153.625,560.718 101,389.845 190.101,782.639 272,1176.876 75.062,363.62 144.237,728.578 201.219,1095.5 27.159,176.055 50.071,352.718 72.906,529.374 33.887,269.427 65.55,539.464 83.719,810.532 9.419,149.591 15.695,299.81 6.156,449.562 -4.077,63.671 -12.241,127.014 -26.031,189.344 -12.973,67.448 -25.598,135.413 -26.563,204.281 0.46,25.605 1.048,52.862 14.063,75.594 5.953,10.969 17.52,16.952 29.25,19.844 47.491,14.304 98.375,7.454 146.25,-2.063 95.161,-20.197 186.193,-55.439 277.593,-88.156 74.898,-25.537 150.736,-49.439 228.376,-65.156 21.638,-4.795 43.723,-5.966 65.843,-6.125 20.224,-1.187 40.935,-0.819 60.75,-4.907 4.925,-2.078 0,-8.334 -0.281,-11.906 -16.653,-54.158 -37.91,-106.883 -50.406,-162.218 -27.508,-116.714 -40.715,-236.265 -51.469,-355.563 -16.592,-191.391 -22.596,-383.495 -27.844,-575.469 -28.106,-927.462 -78.637,-1854.305 -155.031,-2779.062 -59.485,-716.37 -134.203,-1431.616 -232.438,-2143.719 -30.524,-222.177 -64.382,-443.867 -99.406,-665.375 -86.944,-555.117 -177.715,-1109.659 -277.156,-1662.688 -65.184,-364.188 -133.95,-727.74 -202.969,-1091.218 -33.858,-180.018 -68.196,-359.963 -100.593,-540.25 -0.107,-4.209 -2.738,-9.134 -1.376,-13 13.351,-10.244 29.951,-15.285 45.407,-21.875 65.853,-24.896 133.77,-43.848 201.906,-61.5 118.211,-29.139 238.362,-49.731 358.125,-71.594 145.614,-26.758 292.801,-48.048 435,-90.094 79.749,-23.588 157.145,-56.419 227.188,-101.343 46.454,-32.763 84.45,-76.21 117.281,-122.376 22.447,-32.906 43.723,-67.643 53.781,-106.5 2.016,-11.019 6.452,-24.854 -2.281,-34.187 -13.901,-14.294 -34.076,-19.631 -52.531,-25.719 -61.889,-17.54 -126.021,-26.372 -189.688,-35.781 -183.917,-25.978 -369.37,-40.706 -553.531,-64.563 -142.406,-18.606 -284.88,-39.857 -424.125,-75.406 -107.959,-28.05 -215.413,-65.843 -306.532,-131.437 -43.304,-29.89 -83.053,-65.442 -112.406,-109.469 -40.688,-60.598 -67.384,-129.249 -93.812,-197.156 -38.783,-102.612 -74.183,-206.446 -111.594,-309.563 -64.595,-180.234 -130.63,-359.948 -195.562,-540.062 -109.181,-301.99 -217.982,-604.131 -332.063,-904.3128 -106.456,-279.7898 -216.069,-558.5425 -337.813,-832.0624 -41.985,-94.822 -87.184,-188.3021 -126.718,-284.0938 -3.254,-8.6635 -4.892,-17.7707 -9.094,-26.125 -34.143,-77.9189 -72.419,-154.0068 -109.844,-230.4062 -89.448,-180.4628 -180.526,-360.1702 -274.937,-538.0938 -126.8,-236.4935 -265.595,-466.5369 -412.813,-690.9062 -153.235,-232.5628 -315.514,-459.4772 -491.968,-675.0626 -75.65,-92.3186 -154.79,-181.7633 -237.376,-267.9374 -176.442,-185.8414 -364.695,-361.8396 -574.218,-510.0313 -181.786,-129.3857 -378.523,-236.5832 -581.532,-328.7187 -177.809,-80.8097 -359.98,-151.69 -543.531,-218.375 -108.592,-39.3002 -219.456,-73.5447 -333.5,-92.9376 -135.848,-23.5227 -273.597,-33.1727 -410.969,-43.4374 -201.377,-14.0839 -402.849,-26.9823 -603.874,-45.5938 -32.785,-2.5832 -65.191,-7.7606 -97.188,-15.3125 -116.346,-27.2443 -228,-72.7256 -332.969,-129.2813 -55.557,-29.5565 -107.314,-65.6385 -162.156,-96.5624 -157.852,-90.9791 -322.78,-169.7556 -489.313,-243.7188 -237.237,-104.4398 -479.189,-198.3647 -725.437,-279.3125 -142.036,-46.0993 -285.598,-88.8512 -431.906,-118.625 -69.851,-14.3851 -140.721,-23.4338 -212,-26.2187 -42.163,-1.9935 -84.387,-2.6203 -126.594,-2.4688 z"
     id="path3097" />
  <path
     style="fill:#000000;fill-opacity:1;stroke:#000000;stroke-opacity:1;stroke-width:533.33333332999995946;stroke-miterlimit:4;stroke-dasharray:none;stroke-linejoin:round;stroke-dashoffset:0"
     d="m 16681.875,4275.375 c -186.686,1.175 -373.079,15.6331 -558.503,36.6879 -182.462,21.323 -364.533,49.1107 -543.775,89.6877 -95.218,22.4393 -190.306,45.913 -284.251,73.1096 -104.702,29.995 -206.825,68.5856 -305.632,114.3197 -124.579,57.0576 -245.44,121.7596 -367.776,183.4139 -301.074,150.3961 -616.874,270.8885 -940.563,362.9062 -509.666,145.1641 -1036.106,222.7091 -1563.349,267.977 -297.06,25.3691 -594.937,40.3995 -892.927,49.0903 -219.918,5.9881 -440.573,5.0184 -659.514,-18.8074 -250.876,-26.6477 -498.243,-79.1425 -744.444,-132.8655 -326.994,-72.7574 -654.3387,-144.7741 -984.1591,-203.9026 -252.5703,-45.2834 -506.9492,-80.9689 -762.8647,-100.5103 -193.1267,-14.9108 -386.7719,-22.5149 -580.4286,-25.6802 -409.4465,-5.6383 -820.4303,22.0474 -1222.5377,101.5317 -348.9054,68.5921 -690.1553,176.2581 -1015.2643,320.202 -359.0053,159.2361 -696.2456,366.9521 -1001.1932,614.3166 -364.0433,294.7575 -681.6722,644.6625 -952.3103,1026.4684 -345.9051,487.7434 -616.9131,1025.5958 -832.1269,1582.6204 -67.806,174.9716 -129.2371,352.2714 -187.3661,530.6635 -54.3347,164.884 -105.1988,330.9225 -148.5205,499.0489 -39.8721,154.0829 -77.1087,308.8429 -113.0615,463.8852 -57.4106,248.569 -106.7474,499.316 -138.8006,752.545 -42.9436,334.766 -58.9494,672.354 -70.7652,1009.477 -7.7082,230.079 -12.6325,460.241 -19.8803,690.335 -12.9439,433.549 -30.157,866.989 -54.55,1300.054 -17.5686,313.742 -37.4516,627.354 -59.0249,940.846 -28.9244,409.995 -62.0964,819.859 -111.7159,1227.933 -48.0137,393.399 -113.2985,785.677 -217.0677,1168.537 -29.3718,109.452 -63.1753,217.565 -92.2983,327.12 -96.1395,355.17 -168.4617,717.344 -204.577,1083.711 -21.5382,215.928 -30.2283,433.063 -27.7165,650.028 0.5334,64.228 0.3918,128.546 1.347,192.717 1.3374,9.59 5.0071,-4.792 5.5163,-8.283 20.345,-85.994 39.5686,-172.398 65.2775,-256.935 46.5888,-154.487 102.2827,-305.913 157.4794,-457.502 49.9901,-136.281 101.5567,-272.029 147.0805,-409.864 63.4012,-189.685 116.9501,-382.692 158.9983,-578.212 47.7473,-220.279 82.253,-443.143 114.0958,-666.194 11.8145,-80.321 24.7481,-160.475 38.222,-240.528 18.6941,-130.25 34.3042,-260.841 50.4661,-391.413 50.1511,-412.857 98.0891,-825.988 142.9417,-1239.455 53.3012,-495.203 107.3442,-990.341 166.7531,-1484.854 19.0782,-159.105 39.4603,-317.983 60.8399,-476.817 11.6213,-90.038 24.081,-179.995 34.3519,-270.159 0.4147,-4.976 -0.4789,-13.293 5.5626,-15.063 9.6129,0.609 16.2714,9.346 22.875,15.407 36.1229,39.309 57.5535,89.341 90.9374,130.906 6.3155,6.869 11.4122,16.134 20.375,19.594 7.79,0.886 11.5706,9.673 15.5,15.343 18.1905,33.751 28.4418,71.168 39.2852,107.704 32.5684,117.465 55.3028,237.347 75.4648,357.515 6.1724,40.383 12.8686,80.595 23.3438,120.031 19.522,75.52 43.8191,150.157 76.6875,220.907 53.0792,120 94.8164,245.822 112.2602,376.201 22.1362,160.67 9.784,323.913 -11.2701,483.989 -11.6495,85.545 -25.7238,170.741 -37.1882,256.316 -16.5434,119.373 -31.835,238.849 -44.0162,358.757 -33.4183,308.608 -66.9613,617.219 -104.6566,925.339 -8.5843,66.923 -16.0995,134.049 -27.738,200.565 -19.5038,96.199 -33.7133,193.36 -49.0978,290.274 -29.1288,172.193 -66.7519,342.753 -106.146,512.814 -75.162,321.061 -159.2522,640.123 -251.2404,956.699 -54.8715,188.467 -113.815,375.875 -178.166,561.254 -110.2305,318.006 -230.7026,632.416 -357.4909,944.104 -84.7556,207.571 -172.3644,414.072 -264.679,618.326 -84.1316,182.305 -171.9141,362.891 -259.3835,543.612 -130.33095,267.857 -261.23494,535.455 -395.82031,801.257 -30.34143,60.068 -61.55733,119.533 -94.20517,178.349 -57.55874,106.721 -114.42431,214.067 -163.28702,325.081 -12.54567,30.669 -26.73714,61.175 -32.75,93.906 -1.14414,6.737 -1.42455,16.312 6.46875,18.969 29.63213,13.06 61.5367,20.922 92.56719,30.386 150.60715,42.392 302.65621,79.48 454.92203,115.398 116.44824,26.795 232.87513,53.912 350.72953,73.935 153.8533,25.279 309.5325,37.18 464.993,48.883 160.9952,11.557 322.1003,21.62 483.2515,30.727 93.9921,4.011 189.354,4.155 281.6617,-15.798 67.8087,-14.472 133.4699,-43.531 184.9376,-90.593 31.0526,-27.907 59.9351,-61.641 69.5484,-103.285 11.1751,-47.391 2.4974,-96.675 -7.3297,-143.496 -17.7465,-82.622 -47.6622,-161.933 -67.5113,-243.956 -12.6542,-50.78 -17.4168,-103.436 -14.664,-155.762 7.3313,-157.771 38.8466,-313.236 76.8883,-466.138 57.8378,-228.775 132.8577,-452.795 214.3034,-674.145 91.7074,-248.35 192.9725,-493.017 298.9145,-735.622 57.2479,-137.586 109.1778,-277.326 161.5835,-416.833 43.5669,-116.07 85.8264,-232.63 129.0926,-348.807 50.6572,-132.227 106.672,-262.469 169.6156,-389.22 23.3788,-45.582 46.2135,-91.577 75.7774,-133.517 5.8172,-6.825 10.7982,-15.926 19.6563,-19 5.9293,3.023 8.013,10.532 11.3437,16 21.1427,46.747 35.8073,95.97 51.7949,144.655 49.0189,155.857 93.9667,312.967 138.8382,470.002 29.9363,111.594 54.2992,224.5 76.7474,337.806 15.2792,81.856 30.3583,163.826 49.0515,244.952 51.6858,228.336 119.6185,452.486 188.4783,676.107 46.4423,149.446 94.6365,298.412 134.7262,449.682 45.2208,168.28 80.4742,339.578 97.59,513.101 12.0421,119.138 17.5893,238.92 16.5217,358.663 -1.2776,203.029 -10.5522,405.951 -24.3784,608.49 -8.0033,116.709 -18.7292,233.22 -32.1691,349.428 -1.3823,12.695 -2.824,25.383 -4.1694,38.082 50.2144,7.941 100.4304,15.384 150.9989,20.595 137.3516,15.764 275.0086,28.658 412.4578,43.499 252.0884,28.118 503.6435,60.026 754.8599,95.09 206.4287,27.721 413.0486,54.904 620.8181,70.684 127.81,9.037 256.6678,14.667 384.3061,0.255 86.9782,-9.764 172.6291,-32.012 252.6084,-67.772 106.5493,-46.371 200.1979,-120.933 272.1382,-211.913 43.9138,-56.704 81.1526,-120.979 95.4063,-191.969 7.1554,-35.998 6.7574,-74.146 -6.1067,-108.864 -20.9046,-59.319 -52.6237,-114.154 -85.3568,-167.643 -61.6301,-98.651 -131.4937,-192.22 -209.224,-278.556 -46.0304,-51.211 -97.8238,-96.849 -147.2435,-144.895 -72.0453,-69.496 -145.1283,-137.906 -209.2261,-214.764 -50.097,-59.792 -90.5533,-127.184 -123.2631,-197.961 -46.7119,-100.55 -84.979,-204.807 -125.0956,-308.17 -119.6548,-309.173 -229.5832,-622.457 -316.6398,-942.441 -81.6848,-298.434 -142.4236,-602.651 -180.9069,-909.643 -44.405,-349.583 -61.252,-702.343 -65.7407,-1054.623 -2.6168,-200.785 -4.2033,-401.786 6.8067,-602.367 8.0798,-148.328 25.786,-296.126 56.0316,-441.61 16.2832,-77.174 33.0921,-154.359 54.2774,-230.4 27.6979,-99.763 72.1511,-193.7 114.8804,-287.68 28.5656,-60.735 56.7026,-122.484 99.3384,-174.852 31.9133,-39.439 74.886,-68.74 121.6562,-88.125 68.4894,-28.533 141.2706,-44.349 213.4062,-60.812 76.0012,-17.101 153.0554,-31.321 227.3126,-55.407 49.0221,-16.049 96.1138,-40.171 133.625,-75.812 51.1883,-48.231 88.1613,-109.082 124.1767,-169.064 51.3229,-86.866 97.8577,-176.676 147.6768,-264.336 43.5042,-74.436 90.7381,-148.975 155.9902,-205.881 59.3033,-52.053 133.8359,-83.332 209.1065,-104.751 117.4185,-32.983 240.8963,-34.681 361.9818,-28.891 136.8066,6.803 272.7269,24.622 408.4632,41.634 237.4113,28.096 477.7961,44.372 716.3542,20.873 153.021,-14.648 304.0223,-46.305 451.81,-88.242 216.5354,-61.073 430.3238,-131.702 643.3468,-204.061 300.535,-102.659 599.049,-211.359 896.406,-322.958 300.023,-111.281 600.997,-220.134 906.07,-316.742 192.243,-60.365 386.235,-116.378 583.962,-155.769 82.021,-16.159 164.886,-30.701 248.781,-29.937 96.166,-0.06 191.569,13.366 287.227,21.342 75.428,5.621 151.151,10.263 226.804,7.314 32.834,-1.572 64.951,-9.355 97.428,-13.985 4.419,0.538 14.957,-5.011 15.518,-0.637 -9.916,56.562 -19.174,113.234 -26.509,170.196 -36.386,263.648 -66.511,528.126 -104.005,791.624 -4.625,27.614 -8.633,55.229 -11.031,83.141 -15.688,162.705 -28.236,325.698 -40.214,488.712 -15.175,213.145 -24.702,427.187 -12.834,640.757 13.186,245.271 50.544,488.311 90.244,730.455 19.071,117.694 41.612,234.858 56.577,353.188 21.671,165.304 34.523,331.902 38.309,498.639 2.989,107.843 5.166,216.48 -10.89,323.444 -14.893,101.153 -38.817,200.664 -57.439,301.145 -59.061,308.492 -106.463,619.066 -151.969,929.801 -36.619,250.747 -69.84,501.988 -108.687,752.408 -53.971,350.033 -114.242,699.504 -196.539,1044.064 -41.251,171.769 -87.901,342.195 -142.053,510.329 -26.273,80.848 -60.603,159.042 -102.687,232.876 -61.611,109.03 -133.301,212.129 -200.624,317.794 -60.351,94.406 -121.363,188.579 -176.265,286.269 -16.576,31.03 -34.502,61.943 -44.049,95.968 -3.012,10.371 -3.162,22.53 4.25,31.187 15.954,20.611 39.673,33.507 62.063,45.875 64.337,33.484 133.529,56.703 202.906,77.594 70.838,21.236 143.041,37.678 215.846,50.687 183.019,33.17 367.289,59.548 551.767,82.784 85.245,10.239 170.553,20.531 256.224,26.473 111.699,5.465 223.589,4.465 335.382,3.733 229.929,-2.558 459.843,-8.91 689.494,-20.645 82.389,-4.78 165.014,-8.806 246.881,-19.251 138.221,-20.772 276.621,-40.63 414.218,-65.281 35.92,-7.072 72.404,-12.85 106.938,-25.125 6.177,-2.903 15.175,-5.64 16.031,-13.5 -2.127,-24.527 -10.78,-47.922 -17.623,-71.449 -29.657,-91.88 -64.117,-182.227 -101.739,-271.158 -14.125,-31.813 -27.264,-64.361 -45.92,-93.813 -48.6,-69.373 -101.141,-135.938 -152.972,-202.912 -95.188,-121.531 -191.099,-242.563 -290.228,-360.898 -17.625,-20.25 -34.237,-41.647 -53.893,-59.864 -31.204,-25.052 -54.792,-58.635 -76.987,-91.617 -31.357,-48.613 -59.39,-99.95 -77.419,-155.164 -19.264,-63.895 -15.283,-132.665 -3.908,-197.798 17.774,-98.082 50.815,-192.539 86.037,-285.56 62.435,-161.914 134.78,-319.791 208.327,-476.968 94.563,-201.145 194.876,-399.809 277.687,-606.22 91.862,-227.46 161.44,-462.946 236.517,-696.283 86.679,-271.358 172.49,-543.012 262.94,-813.147 72.748,-216.876 151.338,-431.841 231.249,-646.23 16.603,-43.332 32.151,-87.187 50.557,-129.7 2.572,-3.016 7.418,0.757 10.188,1.906 23.362,14.787 42.088,35.205 61.539,54.593 67.953,71.148 130.03,147.909 189.727,226.207 86.378,114.793 166.535,234.222 243.812,355.357 133.688,210.729 257.521,427.788 367.926,651.674 115.927,231.63 239.152,459.675 374.324,680.679 69.576,114.51 143.849,226.228 209.88,342.782 72.216,125.177 134.475,255.769 189.793,389.231 58.748,142.225 114.117,286.017 164.249,431.446 87.797,254.217 157.798,514.552 207.466,778.889 61.005,322.208 92.65,649.152 111.064,976.355 6.17,94.405 12.108,188.969 22.814,282.943 1.809,10.639 1.959,21.958 5.968,32 6.57,4.625 15.604,3.885 23.219,5.657 74.431,9.209 149.506,13.283 224.375,17.937 105.041,5.232 210.022,11.674 314.872,19.92 129.06,9.871 257.982,21.583 386.634,35.833 195.006,19.634 391.489,32.895 587.427,20.615 150.508,-9.49 300.538,-36.813 442.036,-89.399 129.874,-47.779 251.99,-114.847 366.836,-191.664 85.122,-59.441 165.235,-125.881 244.279,-193.187 88.466,-76.482 175.749,-154.654 256.478,-239.329 32.397,-34.24 64.783,-68.493 97.188,-102.726 -114.865,-133.724 -229.059,-268.041 -344.534,-401.218 -173.221,-198.783 -352.365,-393.349 -551.381,-566.725 -60.148,-53.12 -122.827,-103.207 -184.725,-154.263 -76.264,-64.412 -151.745,-130.731 -213.124,-209.62 -39.782,-51.513 -72.014,-109.97 -88.019,-173.337 -12.088,-58.784 -16.769,-118.876 -21.818,-178.673 -7.672,-95.815 -10.563,-191.909 -13.91,-287.945 -6.58,-166.401 -22.394,-332.674 -55.001,-496.101 -39.472,-199.755 -100.017,-394.574 -164.171,-587.612 -57.318,-171.287 -123.034,-339.732 -195.537,-505.176 -147.698,-336.583 -315.063,-664.013 -477.483,-993.641 -127.652,-258.903 -254.995,-517.956 -375.748,-780.208 -108.46,-236.25 -210.7,-475.948 -289.588,-723.873 -64.257,-199.968 -113.973,-404.208 -163.008,-608.375 -45.286,-179.521 -96.384,-357.52 -148.526,-535.124 -40.522,-138.018 -83.23,-275.378 -126.585,-412.53 -59.242,-190.303 -118.791,-380.564 -168.206,-573.675 -37.868,-148.217 -67.292,-299.126 -76.887,-452.041 -11.376,-174.317 -1.78,-349.062 7.07,-523.259 8.754,-157.634 18.117,-315.669 37.66,-472.236 15.654,-121.028 38.157,-242.943 89.406,-354.34 32.333,-71.925 78,-138.913 140.04,-188.168 50.292,-40.333 108.701,-69.676 169.34,-90.883 58.188,-17.553 119.172,-23.802 179.554,-29.519 147.849,-12.172 296.463,-11.801 444.617,-6.287 150.659,6.289 301.342,18.181 450.182,42.628 102.495,18.328 204.951,38.752 309.056,45.134 91.184,5.71 182.648,2.258 273.786,-2.597 132.288,-9.025 263.603,-27.915 394.399,-49.249 141.15,-23.725 281.889,-50.625 420.451,-86.596 43.741,-12.123 88.118,-23.578 129.315,-42.867 10.747,-5.082 21.539,-11.96 26.125,-23.5 13.196,-28.473 15.411,-60.412 17.6,-91.31 4.024,-86.558 -3.75,-173.129 -12.348,-259.188 -10.576,-107.298 -29.832,-213.519 -36.837,-321.184 -2.074,-42.272 -3.57,-86.532 13.929,-126.068 5.933,-15.396 13.462,-33.683 30.812,-38.562 22.53,-6.43 46.726,-3.342 69.932,-2.473 48.77,2.911 97.378,6.806 145.096,17.663 101.712,22.26 199.296,60.294 295.43,99.886 178.701,74.489 352.545,159.995 527.72,242.393 164.359,76.969 330.223,152.082 503.408,207.154 112.699,36.605 227.799,64.714 340.521,101.23 147.038,47.11 293.501,102.389 421.831,189.486 100.433,67.549 185.766,154.603 261.002,249.031 72.736,91.31 138.683,187.952 202.376,285.783 264.03,407.89 460.878,855.069 628.236,1310.172 135.35,369.307 252.278,745.266 361.35,1123.074 89.903,311.381 173.617,624.507 255.401,938.107 167.355,636.871 334.428,1273.82 502.166,1910.588 50.925,186.989 105.335,373.03 153.634,560.73 101,389.844 190.106,782.638 272.005,1176.874 75.062,363.621 144.213,728.557 201.195,1095.479 27.159,176.055 50.082,352.728 72.917,529.385 33.887,269.427 65.553,539.454 83.722,810.522 9.419,149.591 15.681,299.816 6.142,449.568 -4.077,63.671 -12.233,127.017 -26.023,189.347 -12.973,67.448 -25.596,135.414 -26.561,204.282 0.46,25.605 1.042,52.869 14.057,75.601 5.953,10.969 17.514,16.954 29.244,19.846 47.491,14.304 98.388,7.436 146.263,-2.081 95.161,-20.197 186.192,-55.43 277.592,-88.147 74.897,-25.537 150.75,-49.436 228.39,-65.153 21.639,-4.795 43.706,-5.965 65.826,-6.124 20.224,-1.187 40.938,-0.823 60.753,-4.911 4.925,-2.078 0,-8.334 -0.281,-11.906 -16.653,-54.158 -37.905,-106.89 -50.401,-162.226 -27.508,-116.714 -40.707,-236.27 -51.461,-355.568 -16.592,-191.391 -22.602,-383.477 -27.85,-575.451 -28.106,-927.462 -78.654,-1854.303 -155.048,-2779.06 -59.485,-716.37 -134.201,-1431.626 -232.435,-2143.729 -30.524,-222.177 -64.367,-443.878 -99.391,-665.386 -86.944,-555.117 -177.721,-1109.661 -277.162,-1662.689 -65.184,-364.188 -133.94,-727.723 -202.959,-1091.201 -33.858,-180.018 -68.201,-359.952 -100.598,-540.239 -0.107,-4.209 -2.746,-9.147 -1.383,-13.013 13.351,-10.244 29.944,-15.284 45.4,-21.874 65.853,-24.896 133.779,-43.841 201.915,-61.493 118.211,-29.139 238.374,-49.735 358.137,-71.598 145.614,-26.758 292.785,-48.04 434.984,-90.086 79.749,-23.588 157.147,-56.43 227.19,-101.355 46.454,-32.762 84.451,-76.198 117.282,-122.364 22.447,-32.906 43.734,-67.659 53.792,-106.516 2.016,-11.019 6.44,-24.85 -2.293,-34.183 -13.901,-14.294 -34.089,-19.633 -52.544,-25.721 -61.889,-17.54 -126.023,-26.362 -189.69,-35.771 -183.917,-25.978 -369.343,-40.716 -553.504,-64.573 -142.406,-18.607 -284.892,-39.855 -424.137,-75.404 -107.959,-28.05 -215.426,-65.841 -306.545,-131.435 -43.304,-29.89 -83.04,-65.444 -112.393,-109.471 -40.688,-60.598 -67.389,-129.24 -93.817,-197.147 -38.783,-102.612 -74.169,-206.467 -111.58,-309.584 -64.595,-180.234 -130.628,-359.949 -195.56,-540.063 -109.18,-301.99 -218.008,-604.131 -332.089,-904.3129 -106.456,-279.7898 -216.068,-558.5421 -337.811,-832.0621 -41.985,-94.8219 -87.171,-188.2893 -126.705,-284.081 -3.254,-8.6635 -4.892,-17.7707 -9.094,-26.125 -34.143,-77.9189 -72.427,-154.02 -109.852,-230.4195 -89.448,-180.4628 -180.518,-360.1569 -274.929,-538.0805 -126.8,-236.4935 -265.595,-466.5369 -412.813,-690.9062 -153.235,-232.5627 -315.514,-459.4773 -491.968,-675.0626 -75.649,-92.3187 -154.8,-181.7517 -237.386,-267.9258 -176.443,-185.8413 -364.688,-361.8366 -574.211,-510.0283 -181.786,-129.3857 -378.536,-236.598 -581.544,-328.7335 -177.809,-80.8097 -359.979,-151.6987 -543.53,-218.3837 -108.592,-39.3002 -219.446,-73.5374 -333.49,-92.9303 -135.848,-23.5227 -273.58,-33.1856 -410.952,-43.4503 -201.377,-14.0838 -402.871,-26.9807 -603.896,-45.5922 -32.785,-2.5832 -65.192,-7.7331 -97.189,-15.285 -116.346,-27.2443 -227.979,-72.7319 -332.948,-129.2875 -55.557,-29.5566 -107.325,-65.6469 -162.167,-96.5708 -157.852,-90.9791 -322.792,-169.7651 -489.325,-243.7283 -237.237,-104.4398 -479.17,-198.3685 -725.418,-279.3163 -142.036,-46.0993 -285.617,-88.8455 -431.925,-118.6193 -69.851,-14.3851 -140.709,-23.4262 -211.988,-26.2111 -42.163,-1.9935 -84.387,-2.6203 -126.594,-2.4688 z"
     id="path3093"
     inkscape:connector-curvature="0" />
</svg>
